G04 EAGLE Gerber RS-274X export*
G75*
%MOMM*%
%FSLAX34Y34*%
%LPD*%
%INBottom Copper*%
%IPPOS*%
%AMOC8*
5,1,8,0,0,1.08239X$1,22.5*%
G01*
%ADD10C,0.279400*%
%ADD11C,1.879600*%
%ADD12R,1.879600X1.879600*%
%ADD13R,0.660400X1.270000*%
%ADD14C,0.635000*%
%ADD15R,0.635000X1.270000*%
%ADD16C,0.203200*%
%ADD17C,0.736600*%
%ADD18C,0.609600*%
%ADD19C,0.711200*%
%ADD20C,0.304800*%

G36*
X5333Y200205D02*
X5333Y200205D01*
X5452Y200220D01*
X5571Y200227D01*
X5609Y200240D01*
X5648Y200245D01*
X5760Y200288D01*
X5873Y200325D01*
X5907Y200347D01*
X5944Y200361D01*
X6080Y200447D01*
X6443Y200711D01*
X8117Y201564D01*
X9904Y202145D01*
X10161Y202185D01*
X10161Y191770D01*
X10176Y191652D01*
X10183Y191533D01*
X10196Y191495D01*
X10201Y191455D01*
X10244Y191344D01*
X10281Y191231D01*
X10303Y191197D01*
X10318Y191159D01*
X10388Y191063D01*
X10451Y190962D01*
X10481Y190934D01*
X10504Y190902D01*
X10596Y190826D01*
X10683Y190744D01*
X10718Y190725D01*
X10749Y190699D01*
X10857Y190648D01*
X10961Y190591D01*
X11001Y190580D01*
X11037Y190563D01*
X11154Y190541D01*
X11269Y190511D01*
X11330Y190507D01*
X11350Y190503D01*
X11370Y190505D01*
X11430Y190501D01*
X12701Y190501D01*
X12701Y189230D01*
X12716Y189112D01*
X12723Y188993D01*
X12736Y188955D01*
X12741Y188914D01*
X12785Y188804D01*
X12821Y188691D01*
X12843Y188656D01*
X12858Y188619D01*
X12928Y188523D01*
X12991Y188422D01*
X13021Y188394D01*
X13045Y188361D01*
X13136Y188286D01*
X13223Y188204D01*
X13258Y188184D01*
X13290Y188159D01*
X13397Y188108D01*
X13502Y188050D01*
X13541Y188040D01*
X13577Y188023D01*
X13694Y188001D01*
X13809Y187971D01*
X13870Y187967D01*
X13890Y187963D01*
X13910Y187965D01*
X13970Y187961D01*
X24385Y187961D01*
X24345Y187704D01*
X23764Y185917D01*
X22911Y184243D01*
X21806Y182722D01*
X20478Y181394D01*
X18957Y180289D01*
X17283Y179436D01*
X16818Y179285D01*
X16791Y179272D01*
X16762Y179265D01*
X16648Y179205D01*
X16530Y179150D01*
X16507Y179131D01*
X16481Y179117D01*
X16385Y179030D01*
X16285Y178947D01*
X16268Y178923D01*
X16246Y178903D01*
X16174Y178794D01*
X16098Y178690D01*
X16087Y178662D01*
X16071Y178637D01*
X16029Y178514D01*
X15981Y178394D01*
X15977Y178364D01*
X15968Y178336D01*
X15957Y178207D01*
X15941Y178079D01*
X15945Y178049D01*
X15942Y178019D01*
X15965Y177891D01*
X15981Y177763D01*
X15992Y177735D01*
X15997Y177706D01*
X16050Y177588D01*
X16098Y177467D01*
X16115Y177443D01*
X16127Y177416D01*
X16208Y177315D01*
X16284Y177210D01*
X16307Y177191D01*
X16326Y177167D01*
X16430Y177089D01*
X16529Y177007D01*
X16556Y176994D01*
X16580Y176976D01*
X16725Y176905D01*
X19750Y175652D01*
X23252Y172150D01*
X25147Y167576D01*
X25147Y162624D01*
X23322Y158220D01*
X23309Y158172D01*
X23288Y158127D01*
X23267Y158019D01*
X23238Y157913D01*
X23238Y157863D01*
X23228Y157814D01*
X23235Y157705D01*
X23233Y157595D01*
X23245Y157547D01*
X23248Y157497D01*
X23282Y157393D01*
X23307Y157286D01*
X23331Y157242D01*
X23346Y157195D01*
X23405Y157102D01*
X23456Y157005D01*
X23490Y156968D01*
X23516Y156926D01*
X23596Y156851D01*
X23670Y156769D01*
X23712Y156742D01*
X23748Y156708D01*
X23844Y156655D01*
X23936Y156595D01*
X23983Y156578D01*
X24026Y156554D01*
X24133Y156527D01*
X24237Y156491D01*
X24286Y156487D01*
X24334Y156475D01*
X24495Y156465D01*
X57519Y156465D01*
X57617Y156477D01*
X57716Y156480D01*
X57774Y156497D01*
X57834Y156505D01*
X57926Y156541D01*
X58022Y156569D01*
X58074Y156599D01*
X58130Y156622D01*
X58210Y156680D01*
X58296Y156730D01*
X58371Y156796D01*
X58387Y156808D01*
X58395Y156818D01*
X58416Y156836D01*
X59687Y158107D01*
X62161Y159132D01*
X64839Y159132D01*
X67313Y158107D01*
X69207Y156213D01*
X70232Y153739D01*
X70232Y151061D01*
X69207Y148587D01*
X67313Y146693D01*
X64839Y145668D01*
X62161Y145668D01*
X59687Y146693D01*
X58416Y147964D01*
X58338Y148024D01*
X58266Y148092D01*
X58213Y148121D01*
X58165Y148158D01*
X58074Y148198D01*
X57987Y148246D01*
X57929Y148261D01*
X57873Y148285D01*
X57775Y148300D01*
X57680Y148325D01*
X57580Y148331D01*
X57559Y148335D01*
X57547Y148333D01*
X57519Y148335D01*
X27609Y148335D01*
X27511Y148323D01*
X27412Y148320D01*
X27354Y148303D01*
X27294Y148295D01*
X27202Y148259D01*
X27107Y148231D01*
X27055Y148201D01*
X26998Y148178D01*
X26918Y148120D01*
X26833Y148070D01*
X26757Y148004D01*
X26741Y147992D01*
X26733Y147982D01*
X26712Y147964D01*
X24510Y145761D01*
X24492Y145738D01*
X24469Y145719D01*
X24394Y145613D01*
X24315Y145510D01*
X24303Y145483D01*
X24286Y145459D01*
X24240Y145337D01*
X24188Y145218D01*
X24184Y145189D01*
X24173Y145161D01*
X24159Y145032D01*
X24139Y144904D01*
X24141Y144875D01*
X24138Y144845D01*
X24156Y144717D01*
X24168Y144587D01*
X24178Y144560D01*
X24182Y144530D01*
X24235Y144378D01*
X25147Y142176D01*
X25147Y137224D01*
X23252Y132650D01*
X19750Y129148D01*
X17395Y128173D01*
X17275Y128104D01*
X17152Y128039D01*
X17137Y128025D01*
X17119Y128015D01*
X17019Y127918D01*
X16916Y127825D01*
X16905Y127808D01*
X16891Y127794D01*
X16818Y127676D01*
X16742Y127559D01*
X16735Y127540D01*
X16724Y127523D01*
X16684Y127390D01*
X16638Y127258D01*
X16637Y127238D01*
X16631Y127219D01*
X16624Y127080D01*
X16613Y126941D01*
X16617Y126921D01*
X16616Y126901D01*
X16644Y126765D01*
X16668Y126628D01*
X16676Y126609D01*
X16680Y126590D01*
X16741Y126465D01*
X16798Y126338D01*
X16811Y126322D01*
X16820Y126304D01*
X16910Y126198D01*
X16997Y126090D01*
X17013Y126077D01*
X17026Y126062D01*
X17140Y125982D01*
X17251Y125898D01*
X17276Y125886D01*
X17286Y125879D01*
X17305Y125872D01*
X17395Y125827D01*
X19750Y124852D01*
X23252Y121350D01*
X25147Y116776D01*
X25147Y111824D01*
X24235Y109622D01*
X24227Y109594D01*
X24213Y109567D01*
X24185Y109440D01*
X24151Y109315D01*
X24150Y109286D01*
X24144Y109257D01*
X24148Y109127D01*
X24146Y108997D01*
X24152Y108968D01*
X24153Y108939D01*
X24189Y108814D01*
X24220Y108688D01*
X24234Y108662D01*
X24242Y108633D01*
X24308Y108522D01*
X24368Y108407D01*
X24388Y108385D01*
X24403Y108360D01*
X24510Y108239D01*
X52112Y80636D01*
X52190Y80576D01*
X52262Y80508D01*
X52315Y80479D01*
X52363Y80442D01*
X52454Y80402D01*
X52541Y80354D01*
X52599Y80339D01*
X52655Y80315D01*
X52753Y80300D01*
X52849Y80275D01*
X52949Y80269D01*
X52969Y80265D01*
X52981Y80267D01*
X53009Y80265D01*
X78781Y80265D01*
X78918Y80282D01*
X79057Y80295D01*
X79076Y80302D01*
X79096Y80305D01*
X79225Y80356D01*
X79356Y80403D01*
X79373Y80414D01*
X79392Y80422D01*
X79504Y80503D01*
X79619Y80581D01*
X79633Y80597D01*
X79649Y80608D01*
X79738Y80716D01*
X79830Y80820D01*
X79839Y80838D01*
X79852Y80853D01*
X79911Y80979D01*
X79974Y81103D01*
X79979Y81123D01*
X79987Y81141D01*
X80014Y81277D01*
X80044Y81413D01*
X80043Y81434D01*
X80047Y81453D01*
X80039Y81592D01*
X80034Y81731D01*
X80029Y81751D01*
X80027Y81771D01*
X79985Y81903D01*
X79946Y82037D01*
X79936Y82054D01*
X79929Y82073D01*
X79855Y82191D01*
X79784Y82311D01*
X79766Y82332D01*
X79759Y82342D01*
X79744Y82356D01*
X79678Y82431D01*
X70097Y92012D01*
X68061Y94049D01*
X67055Y96476D01*
X67055Y109862D01*
X67054Y109871D01*
X67055Y109880D01*
X67034Y110029D01*
X67015Y110177D01*
X67012Y110186D01*
X67011Y110195D01*
X66959Y110348D01*
X66928Y110421D01*
X66928Y113099D01*
X67953Y115573D01*
X69847Y117467D01*
X72321Y118492D01*
X74999Y118492D01*
X77473Y117467D01*
X79367Y115573D01*
X80392Y113099D01*
X80392Y110421D01*
X80361Y110348D01*
X80359Y110339D01*
X80354Y110331D01*
X80317Y110186D01*
X80277Y110041D01*
X80277Y110032D01*
X80275Y110023D01*
X80265Y109862D01*
X80265Y101052D01*
X80277Y100953D01*
X80280Y100854D01*
X80297Y100796D01*
X80305Y100736D01*
X80341Y100644D01*
X80369Y100549D01*
X80399Y100497D01*
X80422Y100440D01*
X80480Y100360D01*
X80530Y100275D01*
X80596Y100199D01*
X80608Y100183D01*
X80618Y100175D01*
X80636Y100154D01*
X88724Y92066D01*
X88802Y92006D01*
X88874Y91938D01*
X88927Y91909D01*
X88975Y91872D01*
X89066Y91832D01*
X89153Y91784D01*
X89211Y91769D01*
X89267Y91745D01*
X89365Y91730D01*
X89461Y91705D01*
X89561Y91699D01*
X89581Y91695D01*
X89594Y91697D01*
X89622Y91695D01*
X159298Y91695D01*
X159397Y91707D01*
X159496Y91710D01*
X159554Y91727D01*
X159614Y91735D01*
X159706Y91771D01*
X159801Y91799D01*
X159853Y91829D01*
X159910Y91852D01*
X159990Y91910D01*
X160075Y91960D01*
X160151Y92026D01*
X160167Y92038D01*
X160175Y92048D01*
X160196Y92066D01*
X166379Y98249D01*
X166439Y98327D01*
X166507Y98399D01*
X166536Y98452D01*
X166573Y98500D01*
X166613Y98591D01*
X166661Y98678D01*
X166676Y98736D01*
X166700Y98792D01*
X166715Y98890D01*
X166740Y98986D01*
X166746Y99086D01*
X166750Y99106D01*
X166748Y99119D01*
X166750Y99147D01*
X166750Y107957D01*
X166749Y107966D01*
X166750Y107975D01*
X166729Y108124D01*
X166710Y108272D01*
X166707Y108281D01*
X166706Y108290D01*
X166654Y108443D01*
X166623Y108516D01*
X166623Y111194D01*
X167648Y113668D01*
X169542Y115562D01*
X172016Y116587D01*
X174694Y116587D01*
X177168Y115562D01*
X179062Y113668D01*
X180087Y111194D01*
X180087Y108516D01*
X180056Y108443D01*
X180054Y108434D01*
X180049Y108426D01*
X180012Y108281D01*
X179972Y108136D01*
X179972Y108127D01*
X179970Y108118D01*
X179960Y107957D01*
X179960Y94571D01*
X178954Y92144D01*
X166301Y79491D01*
X163874Y78485D01*
X147701Y78485D01*
X147583Y78470D01*
X147464Y78463D01*
X147426Y78450D01*
X147385Y78445D01*
X147275Y78402D01*
X147162Y78365D01*
X147127Y78343D01*
X147090Y78328D01*
X146994Y78259D01*
X146893Y78195D01*
X146865Y78165D01*
X146832Y78142D01*
X146756Y78050D01*
X146675Y77963D01*
X146655Y77928D01*
X146630Y77897D01*
X146579Y77789D01*
X146521Y77685D01*
X146511Y77645D01*
X146494Y77609D01*
X146472Y77492D01*
X146442Y77377D01*
X146438Y77317D01*
X146434Y77297D01*
X146436Y77276D01*
X146432Y77216D01*
X146432Y74734D01*
X146293Y74400D01*
X146280Y74352D01*
X146259Y74307D01*
X146238Y74199D01*
X146209Y74093D01*
X146209Y74043D01*
X146199Y73994D01*
X146206Y73885D01*
X146204Y73775D01*
X146216Y73727D01*
X146219Y73677D01*
X146253Y73573D01*
X146278Y73466D01*
X146302Y73422D01*
X146317Y73375D01*
X146376Y73282D01*
X146427Y73185D01*
X146461Y73148D01*
X146487Y73106D01*
X146567Y73031D01*
X146641Y72949D01*
X146683Y72922D01*
X146719Y72888D01*
X146815Y72835D01*
X146907Y72775D01*
X146954Y72758D01*
X146997Y72734D01*
X147103Y72707D01*
X147208Y72671D01*
X147257Y72667D01*
X147305Y72655D01*
X147466Y72645D01*
X165304Y72645D01*
X165402Y72657D01*
X165501Y72660D01*
X165559Y72677D01*
X165619Y72685D01*
X165711Y72721D01*
X165806Y72749D01*
X165858Y72779D01*
X165915Y72802D01*
X165995Y72860D01*
X166080Y72910D01*
X166156Y72976D01*
X166172Y72988D01*
X166180Y72998D01*
X166201Y73016D01*
X193430Y100245D01*
X193490Y100323D01*
X193558Y100395D01*
X193587Y100448D01*
X193624Y100496D01*
X193664Y100587D01*
X193712Y100674D01*
X193727Y100732D01*
X193751Y100788D01*
X193766Y100886D01*
X193791Y100982D01*
X193797Y101082D01*
X193801Y101102D01*
X193799Y101114D01*
X193801Y101142D01*
X193801Y102939D01*
X194826Y105413D01*
X196720Y107307D01*
X199194Y108332D01*
X201872Y108332D01*
X204346Y107307D01*
X206240Y105413D01*
X207265Y102939D01*
X207265Y100261D01*
X206240Y97787D01*
X204346Y95893D01*
X201872Y94868D01*
X200075Y94868D01*
X199977Y94856D01*
X199878Y94853D01*
X199820Y94836D01*
X199760Y94828D01*
X199668Y94792D01*
X199573Y94764D01*
X199521Y94734D01*
X199464Y94711D01*
X199384Y94653D01*
X199299Y94603D01*
X199223Y94537D01*
X199207Y94525D01*
X199199Y94515D01*
X199178Y94497D01*
X169197Y64515D01*
X134206Y64515D01*
X130768Y67954D01*
X130690Y68014D01*
X130618Y68082D01*
X130565Y68111D01*
X130517Y68148D01*
X130426Y68188D01*
X130339Y68236D01*
X130281Y68251D01*
X130225Y68275D01*
X130127Y68290D01*
X130031Y68315D01*
X129931Y68321D01*
X129911Y68325D01*
X129899Y68323D01*
X129871Y68325D01*
X27526Y68325D01*
X18761Y77090D01*
X18738Y77108D01*
X18719Y77131D01*
X18613Y77206D01*
X18510Y77285D01*
X18483Y77297D01*
X18459Y77314D01*
X18337Y77360D01*
X18218Y77412D01*
X18189Y77416D01*
X18161Y77427D01*
X18032Y77441D01*
X17904Y77461D01*
X17875Y77459D01*
X17845Y77462D01*
X17717Y77444D01*
X17587Y77432D01*
X17560Y77422D01*
X17530Y77418D01*
X17378Y77365D01*
X15176Y76453D01*
X10224Y76453D01*
X5820Y78278D01*
X5772Y78291D01*
X5727Y78312D01*
X5619Y78333D01*
X5513Y78362D01*
X5463Y78362D01*
X5414Y78372D01*
X5305Y78365D01*
X5195Y78367D01*
X5147Y78355D01*
X5097Y78352D01*
X4993Y78318D01*
X4886Y78293D01*
X4842Y78269D01*
X4795Y78254D01*
X4702Y78195D01*
X4605Y78144D01*
X4568Y78110D01*
X4526Y78084D01*
X4451Y78004D01*
X4369Y77930D01*
X4342Y77888D01*
X4308Y77852D01*
X4255Y77756D01*
X4195Y77664D01*
X4178Y77617D01*
X4154Y77574D01*
X4127Y77467D01*
X4091Y77363D01*
X4087Y77314D01*
X4075Y77266D01*
X4065Y77105D01*
X4065Y51331D01*
X4069Y51295D01*
X4067Y51260D01*
X4089Y51138D01*
X4105Y51015D01*
X4118Y50982D01*
X4124Y50947D01*
X4176Y50835D01*
X4222Y50719D01*
X4242Y50691D01*
X4257Y50659D01*
X4336Y50562D01*
X4408Y50462D01*
X4436Y50439D01*
X4458Y50412D01*
X4558Y50339D01*
X4653Y50259D01*
X4685Y50244D01*
X4714Y50223D01*
X4829Y50177D01*
X4941Y50124D01*
X4976Y50117D01*
X5009Y50104D01*
X5132Y50087D01*
X5253Y50064D01*
X5289Y50066D01*
X5324Y50061D01*
X5447Y50076D01*
X5571Y50084D01*
X5605Y50095D01*
X5640Y50099D01*
X5756Y50144D01*
X5873Y50182D01*
X5903Y50201D01*
X5936Y50213D01*
X6037Y50286D01*
X6142Y50352D01*
X6166Y50378D01*
X6195Y50398D01*
X6306Y50515D01*
X10644Y55685D01*
X17549Y59671D01*
X25400Y61055D01*
X33251Y59671D01*
X40155Y55685D01*
X42782Y52555D01*
X42859Y52483D01*
X42930Y52406D01*
X42975Y52376D01*
X43015Y52339D01*
X43108Y52289D01*
X43195Y52231D01*
X43247Y52213D01*
X43295Y52187D01*
X43397Y52162D01*
X43496Y52128D01*
X43551Y52124D01*
X43604Y52110D01*
X43709Y52111D01*
X43813Y52103D01*
X43867Y52112D01*
X43922Y52112D01*
X44023Y52139D01*
X44126Y52157D01*
X44176Y52180D01*
X44229Y52193D01*
X44321Y52244D01*
X44416Y52288D01*
X44459Y52322D01*
X44507Y52348D01*
X44583Y52421D01*
X44665Y52486D01*
X44698Y52530D01*
X44737Y52568D01*
X44793Y52656D01*
X44856Y52740D01*
X44895Y52819D01*
X44906Y52837D01*
X44911Y52852D01*
X44927Y52885D01*
X45524Y54325D01*
X47275Y56076D01*
X49562Y57024D01*
X52038Y57024D01*
X54325Y56076D01*
X56076Y54325D01*
X57024Y52038D01*
X57024Y49562D01*
X56076Y47275D01*
X54325Y45524D01*
X52038Y44576D01*
X49562Y44576D01*
X49328Y44673D01*
X49221Y44702D01*
X49116Y44740D01*
X49068Y44744D01*
X49022Y44757D01*
X48910Y44759D01*
X48799Y44769D01*
X48752Y44761D01*
X48704Y44762D01*
X48595Y44736D01*
X48485Y44718D01*
X48441Y44699D01*
X48395Y44688D01*
X48296Y44636D01*
X48194Y44591D01*
X48156Y44562D01*
X48113Y44539D01*
X48031Y44464D01*
X47943Y44396D01*
X47913Y44358D01*
X47878Y44325D01*
X47817Y44232D01*
X47749Y44144D01*
X47730Y44100D01*
X47703Y44060D01*
X47667Y43954D01*
X47623Y43852D01*
X47616Y43804D01*
X47600Y43759D01*
X47591Y43648D01*
X47574Y43537D01*
X47579Y43490D01*
X47575Y43442D01*
X47594Y43332D01*
X47605Y43221D01*
X47625Y43150D01*
X47629Y43128D01*
X47637Y43112D01*
X47650Y43066D01*
X48007Y42086D01*
X48007Y34114D01*
X47547Y32852D01*
X47523Y32743D01*
X47490Y32637D01*
X47488Y32589D01*
X47477Y32542D01*
X47480Y32430D01*
X47475Y32319D01*
X47484Y32272D01*
X47486Y32224D01*
X47517Y32117D01*
X47539Y32008D01*
X47560Y31964D01*
X47573Y31918D01*
X47630Y31822D01*
X47679Y31722D01*
X47710Y31685D01*
X47734Y31644D01*
X47813Y31565D01*
X47885Y31480D01*
X47924Y31452D01*
X47958Y31418D01*
X48054Y31361D01*
X48145Y31297D01*
X48190Y31280D01*
X48231Y31255D01*
X48338Y31224D01*
X48443Y31184D01*
X48490Y31179D01*
X48536Y31165D01*
X48648Y31161D01*
X48759Y31149D01*
X48806Y31156D01*
X48854Y31154D01*
X48963Y31178D01*
X49074Y31193D01*
X49143Y31217D01*
X49165Y31222D01*
X49181Y31230D01*
X49226Y31245D01*
X51366Y32132D01*
X53163Y32132D01*
X53261Y32144D01*
X53360Y32147D01*
X53418Y32164D01*
X53478Y32172D01*
X53570Y32208D01*
X53665Y32236D01*
X53717Y32266D01*
X53774Y32289D01*
X53854Y32347D01*
X53939Y32397D01*
X54015Y32463D01*
X54031Y32475D01*
X54039Y32485D01*
X54060Y32503D01*
X63721Y42165D01*
X121019Y42165D01*
X121117Y42177D01*
X121216Y42180D01*
X121274Y42197D01*
X121334Y42205D01*
X121426Y42241D01*
X121522Y42269D01*
X121574Y42299D01*
X121630Y42322D01*
X121710Y42380D01*
X121796Y42430D01*
X121871Y42496D01*
X121887Y42508D01*
X121895Y42518D01*
X121916Y42536D01*
X123187Y43807D01*
X125661Y44832D01*
X128339Y44832D01*
X128412Y44801D01*
X128421Y44799D01*
X128429Y44794D01*
X128574Y44757D01*
X128719Y44717D01*
X128728Y44717D01*
X128737Y44715D01*
X128898Y44705D01*
X170379Y44705D01*
X172806Y43699D01*
X188179Y28326D01*
X188257Y28266D01*
X188329Y28198D01*
X188382Y28169D01*
X188430Y28132D01*
X188521Y28092D01*
X188608Y28044D01*
X188666Y28029D01*
X188722Y28005D01*
X188820Y27990D01*
X188916Y27965D01*
X189016Y27959D01*
X189036Y27955D01*
X189049Y27957D01*
X189077Y27955D01*
X189387Y27955D01*
X189436Y27961D01*
X189486Y27959D01*
X189593Y27981D01*
X189702Y27995D01*
X189749Y28013D01*
X189797Y28023D01*
X189896Y28071D01*
X189998Y28112D01*
X190038Y28141D01*
X190083Y28163D01*
X190166Y28234D01*
X190255Y28298D01*
X190287Y28337D01*
X190325Y28369D01*
X190388Y28459D01*
X190458Y28543D01*
X190479Y28588D01*
X190508Y28629D01*
X190547Y28732D01*
X190594Y28831D01*
X190603Y28880D01*
X190621Y28926D01*
X190633Y29036D01*
X190653Y29143D01*
X190650Y29193D01*
X190656Y29242D01*
X190641Y29351D01*
X190634Y29461D01*
X190618Y29508D01*
X190611Y29557D01*
X190559Y29710D01*
X190336Y30248D01*
X190336Y33252D01*
X191485Y36026D01*
X193609Y38150D01*
X196383Y39299D01*
X199387Y39299D01*
X202161Y38150D01*
X204285Y36026D01*
X205434Y33252D01*
X205434Y30248D01*
X205211Y29710D01*
X205197Y29662D01*
X205176Y29617D01*
X205156Y29509D01*
X205127Y29403D01*
X205126Y29353D01*
X205117Y29304D01*
X205123Y29195D01*
X205122Y29085D01*
X205133Y29037D01*
X205136Y28987D01*
X205170Y28883D01*
X205196Y28776D01*
X205219Y28732D01*
X205234Y28685D01*
X205293Y28592D01*
X205344Y28495D01*
X205378Y28458D01*
X205404Y28416D01*
X205485Y28341D01*
X205558Y28259D01*
X205600Y28232D01*
X205636Y28198D01*
X205732Y28145D01*
X205824Y28085D01*
X205871Y28068D01*
X205915Y28044D01*
X206021Y28017D01*
X206125Y27981D01*
X206174Y27977D01*
X206223Y27965D01*
X206383Y27955D01*
X221923Y27955D01*
X222022Y27967D01*
X222121Y27970D01*
X222179Y27987D01*
X222239Y27995D01*
X222331Y28031D01*
X222426Y28059D01*
X222478Y28089D01*
X222535Y28112D01*
X222615Y28170D01*
X222700Y28220D01*
X222776Y28286D01*
X222792Y28298D01*
X222800Y28308D01*
X222821Y28326D01*
X228063Y33568D01*
X228068Y33575D01*
X228076Y33581D01*
X228165Y33700D01*
X228258Y33819D01*
X228261Y33828D01*
X228267Y33835D01*
X228338Y33980D01*
X228368Y34053D01*
X230262Y35947D01*
X230642Y36104D01*
X230702Y36139D01*
X230767Y36164D01*
X230840Y36217D01*
X230918Y36262D01*
X230968Y36310D01*
X231024Y36351D01*
X231082Y36421D01*
X231146Y36483D01*
X231183Y36542D01*
X231227Y36596D01*
X231265Y36677D01*
X231312Y36754D01*
X231333Y36821D01*
X231363Y36884D01*
X231380Y36972D01*
X231406Y37058D01*
X231409Y37128D01*
X231423Y37196D01*
X231417Y37286D01*
X231421Y37376D01*
X231407Y37444D01*
X231403Y37514D01*
X231375Y37599D01*
X231357Y37687D01*
X231326Y37750D01*
X231305Y37816D01*
X231257Y37892D01*
X231217Y37973D01*
X231172Y38026D01*
X231135Y38085D01*
X231069Y38147D01*
X231011Y38215D01*
X230954Y38255D01*
X230903Y38303D01*
X230824Y38346D01*
X230751Y38398D01*
X230686Y38423D01*
X230624Y38456D01*
X230537Y38479D01*
X230453Y38511D01*
X230384Y38518D01*
X230317Y38536D01*
X230156Y38546D01*
X209362Y38546D01*
X207122Y39474D01*
X190694Y55902D01*
X190686Y55908D01*
X190680Y55915D01*
X190561Y56005D01*
X190442Y56097D01*
X190434Y56101D01*
X190426Y56107D01*
X190282Y56178D01*
X188982Y56716D01*
X187088Y58610D01*
X186063Y61084D01*
X186063Y63762D01*
X187088Y66236D01*
X188982Y68130D01*
X191456Y69155D01*
X194134Y69155D01*
X196608Y68130D01*
X198502Y66236D01*
X199040Y64936D01*
X199045Y64928D01*
X199048Y64919D01*
X199123Y64791D01*
X199198Y64660D01*
X199205Y64653D01*
X199209Y64645D01*
X199316Y64524D01*
X212729Y51111D01*
X212807Y51051D01*
X212879Y50983D01*
X212932Y50954D01*
X212980Y50916D01*
X213071Y50877D01*
X213158Y50829D01*
X213216Y50814D01*
X213272Y50790D01*
X213370Y50774D01*
X213466Y50750D01*
X213566Y50743D01*
X213586Y50740D01*
X213598Y50741D01*
X213626Y50740D01*
X263910Y50740D01*
X266151Y49811D01*
X289935Y26028D01*
X290044Y25942D01*
X290151Y25854D01*
X290170Y25845D01*
X290186Y25833D01*
X290314Y25777D01*
X290439Y25718D01*
X290459Y25714D01*
X290478Y25706D01*
X290616Y25684D01*
X290752Y25658D01*
X290772Y25660D01*
X290792Y25656D01*
X290931Y25670D01*
X291069Y25678D01*
X291088Y25684D01*
X291108Y25686D01*
X291240Y25733D01*
X291371Y25776D01*
X291389Y25787D01*
X291408Y25794D01*
X291523Y25872D01*
X291640Y25946D01*
X291654Y25961D01*
X291671Y25972D01*
X291763Y26076D01*
X291858Y26178D01*
X291868Y26196D01*
X291881Y26211D01*
X291945Y26335D01*
X292012Y26456D01*
X292017Y26476D01*
X292026Y26494D01*
X292056Y26630D01*
X292091Y26764D01*
X292093Y26792D01*
X292096Y26804D01*
X292095Y26825D01*
X292101Y26925D01*
X292101Y34269D01*
X295001Y41270D01*
X300360Y46629D01*
X307361Y49529D01*
X314939Y49529D01*
X321940Y46629D01*
X327299Y41270D01*
X330199Y34269D01*
X330199Y26691D01*
X327299Y19690D01*
X323492Y15883D01*
X323407Y15774D01*
X323319Y15667D01*
X323310Y15648D01*
X323298Y15632D01*
X323242Y15504D01*
X323183Y15379D01*
X323179Y15359D01*
X323171Y15340D01*
X323149Y15202D01*
X323123Y15066D01*
X323125Y15046D01*
X323121Y15026D01*
X323134Y14887D01*
X323143Y14749D01*
X323149Y14730D01*
X323151Y14710D01*
X323198Y14578D01*
X323241Y14447D01*
X323252Y14429D01*
X323259Y14410D01*
X323337Y14295D01*
X323411Y14178D01*
X323426Y14164D01*
X323437Y14147D01*
X323542Y14055D01*
X323643Y13960D01*
X323661Y13950D01*
X323676Y13937D01*
X323800Y13873D01*
X323921Y13806D01*
X323941Y13801D01*
X323959Y13792D01*
X324095Y13762D01*
X324229Y13727D01*
X324257Y13725D01*
X324269Y13722D01*
X324290Y13723D01*
X324390Y13717D01*
X360169Y13717D01*
X360267Y13729D01*
X360366Y13732D01*
X360424Y13749D01*
X360484Y13757D01*
X360577Y13793D01*
X360672Y13821D01*
X360724Y13851D01*
X360780Y13874D01*
X360860Y13932D01*
X360946Y13982D01*
X361021Y14048D01*
X361037Y14060D01*
X361045Y14070D01*
X361066Y14088D01*
X392439Y45461D01*
X392499Y45539D01*
X392567Y45611D01*
X392596Y45664D01*
X392633Y45712D01*
X392673Y45803D01*
X392721Y45889D01*
X392736Y45948D01*
X392760Y46004D01*
X392775Y46102D01*
X392800Y46197D01*
X392806Y46297D01*
X392810Y46318D01*
X392808Y46330D01*
X392810Y46358D01*
X392810Y52832D01*
X392795Y52950D01*
X392788Y53069D01*
X392775Y53107D01*
X392770Y53148D01*
X392727Y53258D01*
X392690Y53371D01*
X392668Y53406D01*
X392653Y53443D01*
X392584Y53539D01*
X392520Y53640D01*
X392490Y53668D01*
X392467Y53701D01*
X392375Y53777D01*
X392288Y53858D01*
X392253Y53878D01*
X392222Y53903D01*
X392114Y53954D01*
X392010Y54012D01*
X391970Y54022D01*
X391934Y54039D01*
X391817Y54061D01*
X391702Y54091D01*
X391642Y54095D01*
X391622Y54099D01*
X391601Y54097D01*
X391541Y54101D01*
X383928Y54101D01*
X382142Y55887D01*
X382142Y71134D01*
X382153Y71145D01*
X382182Y71198D01*
X382219Y71246D01*
X382259Y71337D01*
X382307Y71424D01*
X382322Y71483D01*
X382346Y71538D01*
X382361Y71636D01*
X382386Y71732D01*
X382392Y71832D01*
X382396Y71852D01*
X382394Y71864D01*
X382396Y71893D01*
X382396Y77086D01*
X382384Y77184D01*
X382381Y77283D01*
X382364Y77341D01*
X382356Y77401D01*
X382320Y77494D01*
X382292Y77589D01*
X382262Y77641D01*
X382239Y77697D01*
X382181Y77777D01*
X382131Y77863D01*
X382065Y77938D01*
X382053Y77954D01*
X382043Y77962D01*
X382025Y77983D01*
X378679Y81329D01*
X378656Y81347D01*
X378637Y81369D01*
X378531Y81444D01*
X378428Y81524D01*
X378401Y81535D01*
X378377Y81552D01*
X378255Y81598D01*
X378136Y81650D01*
X378107Y81655D01*
X378079Y81665D01*
X377950Y81679D01*
X377822Y81700D01*
X377793Y81697D01*
X377763Y81700D01*
X377635Y81682D01*
X377505Y81670D01*
X377478Y81660D01*
X377448Y81656D01*
X377296Y81604D01*
X377126Y81533D01*
X372174Y81533D01*
X371453Y81832D01*
X371405Y81845D01*
X371360Y81866D01*
X371252Y81887D01*
X371146Y81916D01*
X371096Y81917D01*
X371047Y81926D01*
X370938Y81919D01*
X370828Y81921D01*
X370780Y81910D01*
X370730Y81906D01*
X370626Y81873D01*
X370519Y81847D01*
X370475Y81824D01*
X370428Y81808D01*
X370335Y81750D01*
X370238Y81698D01*
X370201Y81665D01*
X370159Y81638D01*
X370084Y81558D01*
X370002Y81484D01*
X369975Y81443D01*
X369941Y81407D01*
X369888Y81310D01*
X369828Y81219D01*
X369811Y81172D01*
X369787Y81128D01*
X369760Y81022D01*
X369724Y80918D01*
X369720Y80868D01*
X369708Y80820D01*
X369698Y80659D01*
X369698Y73660D01*
X369713Y73542D01*
X369720Y73423D01*
X369733Y73385D01*
X369738Y73344D01*
X369782Y73233D01*
X369818Y73121D01*
X369840Y73086D01*
X369855Y73049D01*
X369924Y72953D01*
X369988Y72852D01*
X370018Y72824D01*
X370041Y72791D01*
X370133Y72715D01*
X370220Y72634D01*
X370255Y72614D01*
X370286Y72589D01*
X370394Y72538D01*
X370498Y72480D01*
X370538Y72470D01*
X370574Y72453D01*
X370691Y72431D01*
X370806Y72401D01*
X370866Y72397D01*
X370886Y72393D01*
X370907Y72395D01*
X370967Y72391D01*
X371857Y72391D01*
X371857Y64833D01*
X366459Y64833D01*
X366440Y64821D01*
X366417Y64817D01*
X366410Y64802D01*
X366401Y64796D01*
X366403Y64786D01*
X366396Y64770D01*
X366396Y62230D01*
X366408Y62211D01*
X366411Y62189D01*
X366427Y62182D01*
X366433Y62173D01*
X366443Y62174D01*
X366459Y62167D01*
X371857Y62167D01*
X371857Y54609D01*
X369870Y54609D01*
X369234Y54780D01*
X369129Y54794D01*
X369026Y54817D01*
X368972Y54816D01*
X368919Y54823D01*
X368814Y54811D01*
X368708Y54808D01*
X368656Y54793D01*
X368603Y54787D01*
X368504Y54749D01*
X368403Y54719D01*
X368356Y54692D01*
X368306Y54673D01*
X368220Y54611D01*
X368129Y54558D01*
X368065Y54501D01*
X368047Y54489D01*
X368036Y54477D01*
X368008Y54451D01*
X367658Y54101D01*
X358528Y54101D01*
X356742Y55887D01*
X356742Y61321D01*
X356741Y61330D01*
X356742Y61339D01*
X356721Y61488D01*
X356702Y61636D01*
X356699Y61645D01*
X356698Y61654D01*
X356646Y61806D01*
X356488Y62186D01*
X356488Y79367D01*
X356487Y79376D01*
X356488Y79386D01*
X356467Y79534D01*
X356448Y79683D01*
X356445Y79691D01*
X356444Y79701D01*
X356392Y79853D01*
X356265Y80160D01*
X356230Y80221D01*
X356204Y80285D01*
X356152Y80358D01*
X356107Y80436D01*
X356058Y80486D01*
X356018Y80543D01*
X355948Y80600D01*
X355886Y80664D01*
X355826Y80701D01*
X355773Y80745D01*
X355691Y80784D01*
X355615Y80831D01*
X355548Y80851D01*
X355485Y80881D01*
X355397Y80898D01*
X355311Y80924D01*
X355241Y80928D01*
X355172Y80941D01*
X355083Y80935D01*
X354993Y80939D01*
X354925Y80925D01*
X354855Y80921D01*
X354770Y80893D01*
X354682Y80875D01*
X354619Y80844D01*
X354553Y80823D01*
X354477Y80775D01*
X354396Y80735D01*
X354343Y80690D01*
X354284Y80653D01*
X354222Y80587D01*
X354154Y80529D01*
X354114Y80472D01*
X354066Y80421D01*
X354023Y80342D01*
X353971Y80269D01*
X353946Y80204D01*
X353912Y80143D01*
X353890Y80056D01*
X353858Y79972D01*
X353850Y79902D01*
X353833Y79835D01*
X353823Y79674D01*
X353823Y75449D01*
X352235Y73861D01*
X352162Y73767D01*
X352083Y73678D01*
X352065Y73642D01*
X352040Y73610D01*
X351992Y73500D01*
X351938Y73394D01*
X351929Y73355D01*
X351913Y73318D01*
X351895Y73200D01*
X351869Y73084D01*
X351870Y73044D01*
X351864Y73004D01*
X351875Y72885D01*
X351878Y72766D01*
X351890Y72727D01*
X351893Y72687D01*
X351934Y72575D01*
X351967Y72461D01*
X351987Y72426D01*
X352001Y72388D01*
X352068Y72289D01*
X352128Y72187D01*
X352168Y72141D01*
X352180Y72125D01*
X352195Y72111D01*
X352235Y72066D01*
X353188Y71113D01*
X353188Y55887D01*
X351402Y54101D01*
X334398Y54101D01*
X332612Y55887D01*
X332612Y57658D01*
X332597Y57776D01*
X332590Y57895D01*
X332577Y57933D01*
X332572Y57974D01*
X332529Y58084D01*
X332492Y58197D01*
X332470Y58232D01*
X332455Y58269D01*
X332386Y58365D01*
X332322Y58466D01*
X332292Y58494D01*
X332269Y58527D01*
X332177Y58603D01*
X332090Y58684D01*
X332055Y58704D01*
X332024Y58729D01*
X331916Y58780D01*
X331812Y58838D01*
X331772Y58848D01*
X331736Y58865D01*
X331619Y58887D01*
X331504Y58917D01*
X331444Y58921D01*
X331424Y58925D01*
X331403Y58923D01*
X331343Y58927D01*
X323226Y58927D01*
X264489Y117664D01*
X264450Y117695D01*
X264416Y117731D01*
X264325Y117792D01*
X264238Y117859D01*
X264192Y117879D01*
X264151Y117906D01*
X264047Y117942D01*
X263946Y117985D01*
X263897Y117993D01*
X263850Y118009D01*
X263741Y118018D01*
X263632Y118035D01*
X263582Y118031D01*
X263533Y118034D01*
X263425Y118016D01*
X263315Y118005D01*
X263269Y117989D01*
X263220Y117980D01*
X263119Y117935D01*
X263016Y117898D01*
X262975Y117870D01*
X262930Y117849D01*
X262844Y117781D01*
X262753Y117719D01*
X262720Y117682D01*
X262681Y117651D01*
X262615Y117563D01*
X262542Y117481D01*
X262520Y117437D01*
X262490Y117397D01*
X262419Y117252D01*
X262247Y116837D01*
X260353Y114943D01*
X257879Y113918D01*
X255201Y113918D01*
X252727Y114943D01*
X250833Y116837D01*
X249808Y119311D01*
X249808Y121108D01*
X249796Y121206D01*
X249793Y121305D01*
X249776Y121363D01*
X249768Y121423D01*
X249732Y121515D01*
X249704Y121610D01*
X249674Y121662D01*
X249651Y121719D01*
X249593Y121799D01*
X249543Y121884D01*
X249477Y121960D01*
X249465Y121976D01*
X249455Y121984D01*
X249437Y122005D01*
X232368Y139074D01*
X232290Y139134D01*
X232218Y139202D01*
X232165Y139231D01*
X232117Y139268D01*
X232026Y139308D01*
X231939Y139356D01*
X231881Y139371D01*
X231825Y139395D01*
X231727Y139410D01*
X231631Y139435D01*
X231531Y139441D01*
X231511Y139445D01*
X231499Y139443D01*
X231471Y139445D01*
X210451Y139445D01*
X210353Y139433D01*
X210254Y139430D01*
X210196Y139413D01*
X210136Y139405D01*
X210044Y139369D01*
X209948Y139341D01*
X209896Y139311D01*
X209840Y139288D01*
X209760Y139230D01*
X209674Y139180D01*
X209599Y139114D01*
X209583Y139102D01*
X209575Y139092D01*
X209554Y139074D01*
X208283Y137803D01*
X205809Y136778D01*
X203131Y136778D01*
X200657Y137803D01*
X198763Y139697D01*
X197738Y142171D01*
X197738Y144849D01*
X198763Y147323D01*
X200657Y149217D01*
X200709Y149239D01*
X200752Y149263D01*
X200799Y149280D01*
X200890Y149342D01*
X200986Y149396D01*
X201021Y149431D01*
X201062Y149459D01*
X201135Y149541D01*
X201214Y149617D01*
X201240Y149660D01*
X201273Y149697D01*
X201323Y149795D01*
X201380Y149889D01*
X201395Y149936D01*
X201417Y149980D01*
X201441Y150087D01*
X201474Y150193D01*
X201476Y150242D01*
X201487Y150291D01*
X201484Y150400D01*
X201489Y150510D01*
X201479Y150559D01*
X201477Y150609D01*
X201447Y150714D01*
X201425Y150822D01*
X201403Y150866D01*
X201389Y150914D01*
X201333Y151009D01*
X201285Y151107D01*
X201253Y151145D01*
X201227Y151188D01*
X201121Y151309D01*
X200033Y152397D01*
X199008Y154871D01*
X199008Y157549D01*
X200033Y160023D01*
X201927Y161917D01*
X204401Y162942D01*
X207079Y162942D01*
X209553Y161917D01*
X210316Y161154D01*
X210394Y161094D01*
X210466Y161026D01*
X210519Y160997D01*
X210567Y160960D01*
X210658Y160920D01*
X210745Y160872D01*
X210803Y160857D01*
X210859Y160833D01*
X210957Y160818D01*
X211052Y160793D01*
X211152Y160787D01*
X211173Y160783D01*
X211185Y160785D01*
X211213Y160783D01*
X234304Y160783D01*
X309237Y85850D01*
X309346Y85765D01*
X309453Y85676D01*
X309472Y85668D01*
X309488Y85655D01*
X309616Y85600D01*
X309741Y85541D01*
X309761Y85537D01*
X309780Y85529D01*
X309918Y85507D01*
X310054Y85481D01*
X310074Y85482D01*
X310094Y85479D01*
X310233Y85492D01*
X310371Y85501D01*
X310390Y85507D01*
X310410Y85509D01*
X310542Y85556D01*
X310673Y85599D01*
X310691Y85610D01*
X310710Y85617D01*
X310825Y85695D01*
X310942Y85769D01*
X310956Y85784D01*
X310973Y85795D01*
X311065Y85899D01*
X311160Y86001D01*
X311170Y86018D01*
X311183Y86034D01*
X311247Y86157D01*
X311314Y86279D01*
X311319Y86299D01*
X311328Y86317D01*
X311358Y86453D01*
X311393Y86587D01*
X311395Y86615D01*
X311398Y86627D01*
X311397Y86648D01*
X311403Y86748D01*
X311403Y104641D01*
X313189Y106427D01*
X318516Y106427D01*
X318634Y106442D01*
X318753Y106449D01*
X318791Y106462D01*
X318832Y106467D01*
X318942Y106510D01*
X319055Y106547D01*
X319090Y106569D01*
X319127Y106584D01*
X319223Y106653D01*
X319324Y106717D01*
X319352Y106747D01*
X319385Y106770D01*
X319461Y106862D01*
X319542Y106949D01*
X319562Y106984D01*
X319587Y107015D01*
X319638Y107123D01*
X319696Y107227D01*
X319706Y107267D01*
X319723Y107303D01*
X319745Y107420D01*
X319775Y107535D01*
X319779Y107595D01*
X319783Y107615D01*
X319781Y107636D01*
X319785Y107696D01*
X319785Y134399D01*
X327017Y141630D01*
X368498Y141630D01*
X368596Y141642D01*
X368695Y141645D01*
X368754Y141662D01*
X368814Y141670D01*
X368906Y141706D01*
X369001Y141734D01*
X369053Y141765D01*
X369109Y141787D01*
X369189Y141845D01*
X369275Y141895D01*
X369350Y141962D01*
X369367Y141974D01*
X369374Y141983D01*
X369396Y142002D01*
X371908Y144514D01*
X371938Y144553D01*
X371975Y144587D01*
X372035Y144678D01*
X372103Y144765D01*
X372123Y144811D01*
X372150Y144852D01*
X372185Y144956D01*
X372229Y145057D01*
X372237Y145106D01*
X372253Y145153D01*
X372262Y145263D01*
X372279Y145371D01*
X372274Y145421D01*
X372278Y145470D01*
X372259Y145578D01*
X372249Y145688D01*
X372232Y145735D01*
X372224Y145784D01*
X372179Y145884D01*
X372142Y145987D01*
X372114Y146028D01*
X372093Y146074D01*
X372025Y146159D01*
X371963Y146250D01*
X371926Y146283D01*
X371895Y146322D01*
X371807Y146388D01*
X371725Y146461D01*
X371680Y146483D01*
X371641Y146513D01*
X371496Y146584D01*
X367600Y148198D01*
X364098Y151700D01*
X363123Y154055D01*
X363054Y154175D01*
X362989Y154298D01*
X362975Y154313D01*
X362965Y154331D01*
X362868Y154431D01*
X362775Y154534D01*
X362758Y154545D01*
X362744Y154559D01*
X362625Y154632D01*
X362509Y154708D01*
X362490Y154715D01*
X362473Y154726D01*
X362340Y154766D01*
X362208Y154812D01*
X362188Y154813D01*
X362169Y154819D01*
X362030Y154826D01*
X361891Y154837D01*
X361871Y154833D01*
X361851Y154834D01*
X361715Y154806D01*
X361578Y154782D01*
X361559Y154774D01*
X361540Y154770D01*
X361414Y154709D01*
X361288Y154652D01*
X361272Y154639D01*
X361254Y154630D01*
X361148Y154540D01*
X361040Y154453D01*
X361027Y154437D01*
X361012Y154424D01*
X360932Y154310D01*
X360848Y154199D01*
X360836Y154174D01*
X360829Y154164D01*
X360822Y154145D01*
X360777Y154055D01*
X359802Y151700D01*
X356300Y148198D01*
X351726Y146303D01*
X346774Y146303D01*
X342200Y148198D01*
X338698Y151700D01*
X337723Y154055D01*
X337654Y154175D01*
X337589Y154298D01*
X337575Y154313D01*
X337565Y154331D01*
X337468Y154431D01*
X337375Y154534D01*
X337358Y154545D01*
X337344Y154559D01*
X337225Y154632D01*
X337109Y154708D01*
X337090Y154715D01*
X337073Y154726D01*
X336940Y154766D01*
X336808Y154812D01*
X336788Y154813D01*
X336769Y154819D01*
X336630Y154826D01*
X336491Y154837D01*
X336471Y154833D01*
X336451Y154834D01*
X336315Y154806D01*
X336178Y154782D01*
X336159Y154774D01*
X336140Y154770D01*
X336014Y154709D01*
X335888Y154652D01*
X335872Y154639D01*
X335854Y154630D01*
X335748Y154540D01*
X335640Y154453D01*
X335627Y154437D01*
X335612Y154424D01*
X335532Y154310D01*
X335448Y154199D01*
X335436Y154174D01*
X335429Y154164D01*
X335422Y154145D01*
X335377Y154055D01*
X334402Y151700D01*
X330900Y148198D01*
X326326Y146303D01*
X321374Y146303D01*
X319172Y147215D01*
X319144Y147223D01*
X319117Y147237D01*
X318990Y147265D01*
X318865Y147299D01*
X318836Y147300D01*
X318807Y147306D01*
X318677Y147302D01*
X318547Y147304D01*
X318519Y147298D01*
X318489Y147297D01*
X318364Y147261D01*
X318238Y147230D01*
X318212Y147216D01*
X318184Y147208D01*
X318072Y147142D01*
X317957Y147082D01*
X317935Y147062D01*
X317910Y147047D01*
X317789Y146940D01*
X313632Y142784D01*
X313614Y142760D01*
X313592Y142741D01*
X313517Y142635D01*
X313437Y142532D01*
X313425Y142505D01*
X313408Y142481D01*
X313362Y142360D01*
X313311Y142241D01*
X313306Y142211D01*
X313296Y142184D01*
X313281Y142055D01*
X313261Y141926D01*
X313264Y141897D01*
X313260Y141868D01*
X313279Y141739D01*
X313291Y141610D01*
X313301Y141582D01*
X313305Y141553D01*
X313357Y141400D01*
X314046Y139737D01*
X314046Y137059D01*
X313021Y134585D01*
X311127Y132691D01*
X308653Y131666D01*
X305975Y131666D01*
X303501Y132691D01*
X301607Y134585D01*
X300583Y137059D01*
X300583Y139737D01*
X301607Y142211D01*
X302878Y143482D01*
X302938Y143560D01*
X303006Y143632D01*
X303034Y143683D01*
X312040Y152689D01*
X312058Y152712D01*
X312081Y152731D01*
X312156Y152837D01*
X312235Y152940D01*
X312247Y152967D01*
X312264Y152991D01*
X312310Y153113D01*
X312362Y153232D01*
X312366Y153261D01*
X312377Y153289D01*
X312391Y153418D01*
X312411Y153546D01*
X312409Y153575D01*
X312412Y153605D01*
X312394Y153733D01*
X312382Y153863D01*
X312372Y153890D01*
X312368Y153920D01*
X312315Y154072D01*
X311403Y156274D01*
X311403Y161226D01*
X313298Y165800D01*
X316800Y169302D01*
X321374Y171197D01*
X326326Y171197D01*
X330900Y169302D01*
X334402Y165800D01*
X335377Y163445D01*
X335446Y163325D01*
X335511Y163202D01*
X335525Y163187D01*
X335535Y163169D01*
X335632Y163069D01*
X335725Y162966D01*
X335742Y162955D01*
X335756Y162941D01*
X335874Y162868D01*
X335991Y162792D01*
X336010Y162785D01*
X336027Y162774D01*
X336160Y162734D01*
X336292Y162688D01*
X336312Y162687D01*
X336331Y162681D01*
X336470Y162674D01*
X336609Y162663D01*
X336629Y162667D01*
X336649Y162666D01*
X336785Y162694D01*
X336922Y162718D01*
X336941Y162726D01*
X336960Y162730D01*
X337085Y162791D01*
X337212Y162848D01*
X337228Y162861D01*
X337246Y162870D01*
X337352Y162960D01*
X337460Y163047D01*
X337473Y163063D01*
X337488Y163076D01*
X337568Y163190D01*
X337652Y163301D01*
X337664Y163326D01*
X337671Y163336D01*
X337678Y163355D01*
X337723Y163445D01*
X338698Y165800D01*
X342200Y169302D01*
X343894Y170004D01*
X343919Y170018D01*
X343947Y170027D01*
X344057Y170097D01*
X344170Y170161D01*
X344191Y170182D01*
X344216Y170197D01*
X344305Y170292D01*
X344398Y170382D01*
X344414Y170408D01*
X344434Y170429D01*
X344497Y170543D01*
X344565Y170654D01*
X344573Y170682D01*
X344588Y170708D01*
X344620Y170833D01*
X344658Y170957D01*
X344660Y170987D01*
X344667Y171016D01*
X344677Y171176D01*
X344677Y172145D01*
X344671Y172194D01*
X344673Y172244D01*
X344651Y172351D01*
X344637Y172460D01*
X344619Y172506D01*
X344609Y172555D01*
X344561Y172654D01*
X344520Y172756D01*
X344491Y172796D01*
X344469Y172841D01*
X344398Y172924D01*
X344334Y173013D01*
X344295Y173045D01*
X344263Y173083D01*
X344173Y173146D01*
X344089Y173216D01*
X344044Y173237D01*
X344003Y173266D01*
X343900Y173305D01*
X343801Y173352D01*
X343752Y173361D01*
X343706Y173378D01*
X343596Y173391D01*
X343489Y173411D01*
X343439Y173408D01*
X343390Y173414D01*
X343281Y173398D01*
X343171Y173392D01*
X343124Y173376D01*
X343075Y173369D01*
X342922Y173317D01*
X339026Y171703D01*
X334074Y171703D01*
X329500Y173598D01*
X325998Y177100D01*
X324103Y181674D01*
X324103Y186626D01*
X325998Y191200D01*
X329500Y194702D01*
X334074Y196597D01*
X339026Y196597D01*
X340636Y195930D01*
X340684Y195916D01*
X340729Y195895D01*
X340837Y195875D01*
X340943Y195846D01*
X340993Y195845D01*
X341042Y195836D01*
X341151Y195842D01*
X341261Y195841D01*
X341309Y195852D01*
X341359Y195855D01*
X341463Y195889D01*
X341570Y195915D01*
X341614Y195938D01*
X341661Y195953D01*
X341754Y196012D01*
X341851Y196064D01*
X341888Y196097D01*
X341930Y196124D01*
X342005Y196204D01*
X342087Y196277D01*
X342114Y196319D01*
X342148Y196355D01*
X342201Y196451D01*
X342261Y196543D01*
X342278Y196590D01*
X342302Y196634D01*
X342329Y196740D01*
X342365Y196844D01*
X342369Y196894D01*
X342381Y196942D01*
X342391Y197102D01*
X342391Y205740D01*
X342376Y205858D01*
X342369Y205977D01*
X342356Y206015D01*
X342351Y206056D01*
X342308Y206166D01*
X342271Y206279D01*
X342249Y206314D01*
X342234Y206351D01*
X342165Y206447D01*
X342101Y206548D01*
X342071Y206576D01*
X342048Y206609D01*
X341956Y206685D01*
X341869Y206766D01*
X341834Y206786D01*
X341803Y206811D01*
X341695Y206862D01*
X341591Y206920D01*
X341551Y206930D01*
X341515Y206947D01*
X341398Y206969D01*
X341283Y206999D01*
X341223Y207003D01*
X341203Y207007D01*
X341182Y207005D01*
X341122Y207009D01*
X340423Y207009D01*
X340423Y215582D01*
X340408Y215701D01*
X340400Y215819D01*
X340388Y215858D01*
X340383Y215898D01*
X340377Y215912D01*
X340383Y215942D01*
X340413Y216057D01*
X340416Y216117D01*
X340420Y216137D01*
X340419Y216158D01*
X340423Y216218D01*
X340423Y224791D01*
X341492Y224791D01*
X341591Y224803D01*
X341690Y224806D01*
X341748Y224823D01*
X341808Y224831D01*
X341900Y224867D01*
X341995Y224895D01*
X342047Y224925D01*
X342104Y224948D01*
X342184Y225006D01*
X342269Y225056D01*
X342344Y225122D01*
X342361Y225134D01*
X342369Y225144D01*
X342390Y225162D01*
X342526Y225299D01*
X351402Y225299D01*
X353188Y223513D01*
X353188Y208287D01*
X351908Y207008D01*
X351848Y206930D01*
X351780Y206858D01*
X351751Y206805D01*
X351714Y206757D01*
X351674Y206666D01*
X351626Y206579D01*
X351611Y206521D01*
X351587Y206465D01*
X351572Y206367D01*
X351547Y206271D01*
X351541Y206171D01*
X351537Y206151D01*
X351539Y206138D01*
X351537Y206110D01*
X351537Y198478D01*
X351549Y198380D01*
X351552Y198281D01*
X351569Y198223D01*
X351577Y198162D01*
X351613Y198070D01*
X351641Y197975D01*
X351671Y197923D01*
X351694Y197867D01*
X351752Y197787D01*
X351802Y197701D01*
X351868Y197626D01*
X351880Y197609D01*
X351890Y197602D01*
X351908Y197580D01*
X354036Y195453D01*
X354102Y195376D01*
X354166Y195287D01*
X354205Y195255D01*
X354237Y195217D01*
X354327Y195154D01*
X354411Y195084D01*
X354456Y195063D01*
X354497Y195034D01*
X354600Y194995D01*
X354699Y194948D01*
X354748Y194939D01*
X354794Y194922D01*
X354904Y194909D01*
X355011Y194889D01*
X355061Y194892D01*
X355110Y194886D01*
X355219Y194902D01*
X355329Y194908D01*
X355376Y194924D01*
X355425Y194931D01*
X355578Y194983D01*
X359474Y196597D01*
X363043Y196597D01*
X363141Y196609D01*
X363240Y196612D01*
X363298Y196629D01*
X363358Y196637D01*
X363450Y196673D01*
X363545Y196701D01*
X363597Y196731D01*
X363654Y196754D01*
X363734Y196812D01*
X363819Y196862D01*
X363895Y196928D01*
X363911Y196940D01*
X363919Y196950D01*
X363940Y196968D01*
X374109Y207138D01*
X425029Y207138D01*
X434595Y197572D01*
X434595Y162473D01*
X400772Y128650D01*
X398746Y128650D01*
X398608Y128633D01*
X398470Y128620D01*
X398451Y128613D01*
X398431Y128610D01*
X398302Y128559D01*
X398171Y128512D01*
X398154Y128501D01*
X398135Y128493D01*
X398023Y128412D01*
X397907Y128334D01*
X397894Y128318D01*
X397878Y128307D01*
X397789Y128199D01*
X397697Y128095D01*
X397688Y128077D01*
X397675Y128062D01*
X397616Y127936D01*
X397552Y127812D01*
X397548Y127792D01*
X397539Y127774D01*
X397513Y127637D01*
X397483Y127502D01*
X397483Y127481D01*
X397480Y127462D01*
X397488Y127323D01*
X397492Y127184D01*
X397498Y127164D01*
X397499Y127144D01*
X397542Y127012D01*
X397581Y126878D01*
X397591Y126861D01*
X397597Y126842D01*
X397672Y126724D01*
X397742Y126604D01*
X397761Y126583D01*
X397768Y126573D01*
X397782Y126559D01*
X397849Y126483D01*
X397902Y126430D01*
X398877Y124075D01*
X398946Y123955D01*
X399011Y123832D01*
X399025Y123817D01*
X399035Y123799D01*
X399132Y123699D01*
X399225Y123596D01*
X399242Y123585D01*
X399256Y123571D01*
X399375Y123498D01*
X399491Y123422D01*
X399510Y123415D01*
X399527Y123404D01*
X399660Y123363D01*
X399792Y123318D01*
X399812Y123317D01*
X399831Y123311D01*
X399970Y123304D01*
X400109Y123293D01*
X400129Y123297D01*
X400149Y123296D01*
X400285Y123324D01*
X400422Y123348D01*
X400441Y123356D01*
X400460Y123360D01*
X400586Y123421D01*
X400712Y123478D01*
X400728Y123491D01*
X400746Y123500D01*
X400852Y123590D01*
X400960Y123677D01*
X400973Y123693D01*
X400988Y123706D01*
X401068Y123820D01*
X401152Y123931D01*
X401164Y123956D01*
X401171Y123966D01*
X401178Y123985D01*
X401223Y124075D01*
X402198Y126431D01*
X405700Y129932D01*
X410274Y131827D01*
X415226Y131827D01*
X419800Y129932D01*
X423302Y126430D01*
X425197Y121856D01*
X425197Y116904D01*
X423302Y112330D01*
X419800Y108828D01*
X415226Y106933D01*
X410274Y106933D01*
X405700Y108828D01*
X402198Y112329D01*
X401223Y114685D01*
X401154Y114805D01*
X401089Y114928D01*
X401075Y114943D01*
X401065Y114961D01*
X400968Y115061D01*
X400875Y115164D01*
X400858Y115175D01*
X400844Y115189D01*
X400726Y115262D01*
X400609Y115338D01*
X400590Y115345D01*
X400573Y115356D01*
X400440Y115396D01*
X400308Y115442D01*
X400288Y115443D01*
X400269Y115449D01*
X400130Y115456D01*
X399991Y115467D01*
X399971Y115463D01*
X399951Y115464D01*
X399815Y115436D01*
X399678Y115412D01*
X399659Y115404D01*
X399640Y115400D01*
X399515Y115339D01*
X399388Y115282D01*
X399372Y115269D01*
X399354Y115260D01*
X399248Y115170D01*
X399140Y115083D01*
X399127Y115067D01*
X399112Y115054D01*
X399032Y114940D01*
X398948Y114829D01*
X398936Y114804D01*
X398929Y114794D01*
X398922Y114775D01*
X398877Y114685D01*
X397902Y112330D01*
X394400Y108828D01*
X389826Y106933D01*
X384874Y106933D01*
X380343Y108810D01*
X380295Y108823D01*
X380250Y108845D01*
X380142Y108865D01*
X380036Y108894D01*
X379986Y108895D01*
X379937Y108904D01*
X379828Y108898D01*
X379718Y108899D01*
X379670Y108888D01*
X379620Y108885D01*
X379516Y108851D01*
X379409Y108825D01*
X379365Y108802D01*
X379318Y108787D01*
X379225Y108728D01*
X379128Y108676D01*
X379091Y108643D01*
X379049Y108616D01*
X378974Y108536D01*
X378892Y108462D01*
X378865Y108421D01*
X378831Y108385D01*
X378778Y108289D01*
X378718Y108197D01*
X378701Y108150D01*
X378677Y108106D01*
X378650Y108000D01*
X378614Y107896D01*
X378610Y107846D01*
X378598Y107798D01*
X378588Y107638D01*
X378588Y106669D01*
X378591Y106640D01*
X378589Y106611D01*
X378611Y106482D01*
X378628Y106354D01*
X378638Y106326D01*
X378643Y106297D01*
X378697Y106179D01*
X378745Y106058D01*
X378762Y106034D01*
X378774Y106007D01*
X378855Y105906D01*
X378931Y105801D01*
X378954Y105782D01*
X378973Y105759D01*
X379076Y105681D01*
X379176Y105598D01*
X379203Y105585D01*
X379227Y105568D01*
X379371Y105497D01*
X381700Y104532D01*
X385202Y101030D01*
X386177Y98675D01*
X386246Y98555D01*
X386311Y98432D01*
X386325Y98417D01*
X386335Y98399D01*
X386432Y98299D01*
X386525Y98196D01*
X386542Y98185D01*
X386556Y98171D01*
X386675Y98098D01*
X386791Y98022D01*
X386810Y98015D01*
X386827Y98004D01*
X386960Y97964D01*
X387092Y97918D01*
X387112Y97917D01*
X387131Y97911D01*
X387270Y97904D01*
X387409Y97893D01*
X387429Y97897D01*
X387449Y97896D01*
X387585Y97924D01*
X387722Y97948D01*
X387741Y97956D01*
X387760Y97960D01*
X387886Y98021D01*
X388012Y98078D01*
X388028Y98091D01*
X388046Y98100D01*
X388152Y98190D01*
X388260Y98277D01*
X388273Y98293D01*
X388288Y98306D01*
X388368Y98420D01*
X388452Y98531D01*
X388464Y98556D01*
X388471Y98566D01*
X388478Y98585D01*
X388523Y98675D01*
X389498Y101030D01*
X393000Y104532D01*
X397574Y106427D01*
X402526Y106427D01*
X407100Y104532D01*
X410602Y101030D01*
X412497Y96456D01*
X412497Y91504D01*
X410602Y86930D01*
X407100Y83428D01*
X402526Y81533D01*
X397574Y81533D01*
X396345Y82043D01*
X396297Y82056D01*
X396252Y82077D01*
X396144Y82097D01*
X396038Y82126D01*
X395988Y82127D01*
X395939Y82137D01*
X395830Y82130D01*
X395720Y82132D01*
X395672Y82120D01*
X395622Y82117D01*
X395518Y82083D01*
X395411Y82057D01*
X395367Y82034D01*
X395320Y82019D01*
X395227Y81960D01*
X395130Y81909D01*
X395093Y81875D01*
X395051Y81849D01*
X394976Y81769D01*
X394894Y81695D01*
X394867Y81653D01*
X394833Y81617D01*
X394780Y81521D01*
X394720Y81429D01*
X394703Y81382D01*
X394679Y81339D01*
X394652Y81232D01*
X394616Y81128D01*
X394612Y81079D01*
X394600Y81031D01*
X394590Y80870D01*
X394590Y74168D01*
X394605Y74050D01*
X394612Y73931D01*
X394625Y73893D01*
X394630Y73852D01*
X394673Y73742D01*
X394710Y73629D01*
X394732Y73594D01*
X394747Y73557D01*
X394816Y73461D01*
X394880Y73360D01*
X394910Y73332D01*
X394933Y73299D01*
X395025Y73223D01*
X395112Y73142D01*
X395147Y73122D01*
X395178Y73097D01*
X395286Y73046D01*
X395390Y72988D01*
X395430Y72978D01*
X395466Y72961D01*
X395583Y72939D01*
X395698Y72909D01*
X395758Y72905D01*
X395778Y72901D01*
X395799Y72903D01*
X395859Y72899D01*
X403472Y72899D01*
X405258Y71113D01*
X405258Y55866D01*
X405247Y55855D01*
X405218Y55802D01*
X405181Y55754D01*
X405141Y55663D01*
X405093Y55576D01*
X405078Y55517D01*
X405054Y55462D01*
X405039Y55364D01*
X405014Y55268D01*
X405008Y55168D01*
X405004Y55148D01*
X405006Y55135D01*
X405004Y55107D01*
X405004Y42094D01*
X404076Y39853D01*
X370454Y6231D01*
X370368Y6122D01*
X370280Y6015D01*
X370271Y5996D01*
X370259Y5980D01*
X370203Y5852D01*
X370144Y5727D01*
X370140Y5707D01*
X370132Y5688D01*
X370110Y5550D01*
X370084Y5414D01*
X370086Y5394D01*
X370082Y5374D01*
X370096Y5235D01*
X370104Y5097D01*
X370110Y5078D01*
X370112Y5058D01*
X370159Y4926D01*
X370202Y4795D01*
X370213Y4777D01*
X370220Y4758D01*
X370298Y4643D01*
X370372Y4526D01*
X370387Y4512D01*
X370398Y4495D01*
X370502Y4403D01*
X370604Y4308D01*
X370622Y4298D01*
X370637Y4285D01*
X370761Y4221D01*
X370882Y4154D01*
X370902Y4149D01*
X370920Y4140D01*
X371056Y4110D01*
X371190Y4075D01*
X371218Y4073D01*
X371230Y4070D01*
X371251Y4071D01*
X371351Y4065D01*
X477266Y4065D01*
X477384Y4080D01*
X477503Y4087D01*
X477541Y4100D01*
X477582Y4105D01*
X477692Y4148D01*
X477805Y4185D01*
X477840Y4207D01*
X477877Y4222D01*
X477973Y4291D01*
X478074Y4355D01*
X478102Y4385D01*
X478135Y4408D01*
X478211Y4500D01*
X478292Y4587D01*
X478312Y4622D01*
X478337Y4653D01*
X478388Y4761D01*
X478446Y4865D01*
X478456Y4905D01*
X478473Y4941D01*
X478495Y5058D01*
X478525Y5173D01*
X478529Y5233D01*
X478533Y5253D01*
X478531Y5274D01*
X478535Y5334D01*
X478535Y115205D01*
X478529Y115254D01*
X478531Y115304D01*
X478509Y115411D01*
X478495Y115521D01*
X478477Y115567D01*
X478467Y115615D01*
X478419Y115714D01*
X478378Y115816D01*
X478349Y115856D01*
X478327Y115901D01*
X478256Y115985D01*
X478192Y116074D01*
X478153Y116105D01*
X478121Y116143D01*
X478031Y116206D01*
X477947Y116276D01*
X477902Y116298D01*
X477861Y116326D01*
X477758Y116365D01*
X477659Y116412D01*
X477610Y116421D01*
X477564Y116439D01*
X477454Y116451D01*
X477347Y116472D01*
X477297Y116469D01*
X477248Y116474D01*
X477139Y116459D01*
X477029Y116452D01*
X476982Y116437D01*
X476933Y116430D01*
X476780Y116378D01*
X472376Y114553D01*
X467424Y114553D01*
X462850Y116448D01*
X459348Y119950D01*
X457453Y124524D01*
X457453Y129476D01*
X459348Y134050D01*
X462850Y137552D01*
X465205Y138527D01*
X465325Y138596D01*
X465448Y138661D01*
X465463Y138675D01*
X465481Y138685D01*
X465581Y138782D01*
X465684Y138875D01*
X465695Y138892D01*
X465709Y138906D01*
X465782Y139024D01*
X465858Y139141D01*
X465865Y139160D01*
X465876Y139177D01*
X465916Y139310D01*
X465962Y139442D01*
X465963Y139462D01*
X465969Y139481D01*
X465976Y139620D01*
X465987Y139759D01*
X465983Y139779D01*
X465984Y139799D01*
X465956Y139935D01*
X465932Y140072D01*
X465924Y140091D01*
X465920Y140110D01*
X465859Y140235D01*
X465802Y140362D01*
X465789Y140378D01*
X465780Y140396D01*
X465690Y140502D01*
X465603Y140610D01*
X465587Y140623D01*
X465574Y140638D01*
X465460Y140718D01*
X465349Y140802D01*
X465324Y140814D01*
X465314Y140821D01*
X465295Y140828D01*
X465205Y140873D01*
X462850Y141848D01*
X459348Y145350D01*
X457453Y149924D01*
X457453Y154876D01*
X459348Y159450D01*
X462850Y162952D01*
X467424Y164847D01*
X472376Y164847D01*
X476780Y163022D01*
X476828Y163009D01*
X476873Y162988D01*
X476981Y162967D01*
X477087Y162938D01*
X477137Y162938D01*
X477186Y162928D01*
X477295Y162935D01*
X477405Y162933D01*
X477453Y162945D01*
X477503Y162948D01*
X477607Y162982D01*
X477714Y163007D01*
X477758Y163031D01*
X477805Y163046D01*
X477898Y163105D01*
X477995Y163156D01*
X478032Y163190D01*
X478074Y163216D01*
X478149Y163296D01*
X478231Y163370D01*
X478258Y163412D01*
X478292Y163448D01*
X478345Y163544D01*
X478405Y163636D01*
X478422Y163683D01*
X478446Y163726D01*
X478473Y163833D01*
X478509Y163937D01*
X478513Y163986D01*
X478525Y164034D01*
X478535Y164195D01*
X478535Y225736D01*
X478520Y225854D01*
X478513Y225973D01*
X478500Y226011D01*
X478495Y226051D01*
X478452Y226162D01*
X478415Y226275D01*
X478393Y226309D01*
X478378Y226347D01*
X478309Y226443D01*
X478245Y226544D01*
X478215Y226572D01*
X478192Y226604D01*
X478100Y226680D01*
X478013Y226762D01*
X477978Y226781D01*
X477947Y226807D01*
X477839Y226858D01*
X477735Y226915D01*
X477695Y226925D01*
X477659Y226943D01*
X477542Y226965D01*
X477427Y226995D01*
X477367Y226999D01*
X477347Y227002D01*
X477326Y227001D01*
X477266Y227005D01*
X476822Y227005D01*
X474561Y229266D01*
X474467Y229339D01*
X474378Y229417D01*
X474342Y229436D01*
X474310Y229461D01*
X474200Y229508D01*
X474094Y229562D01*
X474055Y229571D01*
X474018Y229587D01*
X473900Y229606D01*
X473784Y229632D01*
X473744Y229630D01*
X473704Y229637D01*
X473585Y229626D01*
X473466Y229622D01*
X473427Y229611D01*
X473387Y229607D01*
X473275Y229567D01*
X473161Y229534D01*
X473126Y229513D01*
X473088Y229499D01*
X472989Y229432D01*
X472887Y229372D01*
X472841Y229332D01*
X472825Y229321D01*
X472811Y229305D01*
X472766Y229266D01*
X470505Y227005D01*
X464323Y227005D01*
X462194Y229133D01*
X460768Y230560D01*
X459218Y232109D01*
X459218Y240792D01*
X460824Y242397D01*
X462194Y243768D01*
X464636Y246209D01*
X464721Y246319D01*
X464810Y246426D01*
X464819Y246445D01*
X464831Y246461D01*
X464886Y246588D01*
X464946Y246714D01*
X464950Y246734D01*
X464958Y246752D01*
X464980Y246890D01*
X465006Y247026D01*
X465004Y247046D01*
X465007Y247067D01*
X464994Y247206D01*
X464986Y247344D01*
X464980Y247363D01*
X464978Y247383D01*
X464930Y247514D01*
X464888Y247646D01*
X464877Y247663D01*
X464870Y247682D01*
X464792Y247798D01*
X464718Y247915D01*
X464703Y247929D01*
X464691Y247946D01*
X464587Y248037D01*
X464486Y248133D01*
X464468Y248143D01*
X464453Y248156D01*
X464329Y248219D01*
X464207Y248286D01*
X464188Y248291D01*
X464170Y248301D01*
X464034Y248331D01*
X463900Y248366D01*
X463871Y248368D01*
X463859Y248370D01*
X463839Y248370D01*
X463739Y248376D01*
X461823Y248376D01*
X460545Y249654D01*
X459218Y250980D01*
X459218Y254663D01*
X461589Y257034D01*
X462194Y257639D01*
X464732Y260176D01*
X464777Y260235D01*
X464830Y260288D01*
X464874Y260360D01*
X464927Y260428D01*
X464956Y260496D01*
X464995Y260560D01*
X465019Y260641D01*
X465053Y260720D01*
X465065Y260793D01*
X465086Y260865D01*
X465089Y260949D01*
X465103Y261034D01*
X465096Y261108D01*
X465099Y261182D01*
X465081Y261266D01*
X465073Y261350D01*
X465048Y261421D01*
X465032Y261493D01*
X464969Y261642D01*
X463864Y263853D01*
X465029Y267347D01*
X466452Y268058D01*
X466493Y268086D01*
X466538Y268106D01*
X466624Y268174D01*
X466716Y268235D01*
X466749Y268272D01*
X466788Y268302D01*
X466855Y268390D01*
X466928Y268472D01*
X466951Y268516D01*
X466981Y268555D01*
X467024Y268656D01*
X467075Y268754D01*
X467086Y268802D01*
X467105Y268848D01*
X467122Y268957D01*
X467147Y269064D01*
X467145Y269113D01*
X467153Y269162D01*
X467142Y269272D01*
X467139Y269382D01*
X467126Y269429D01*
X467121Y269479D01*
X467083Y269582D01*
X467053Y269688D01*
X467028Y269731D01*
X467011Y269777D01*
X466948Y269868D01*
X466893Y269963D01*
X466859Y269998D01*
X466831Y270039D01*
X466748Y270111D01*
X466670Y270190D01*
X466628Y270215D01*
X466591Y270248D01*
X466452Y270329D01*
X465029Y271040D01*
X463886Y274467D01*
X463854Y274535D01*
X463831Y274605D01*
X463785Y274677D01*
X463749Y274754D01*
X463701Y274811D01*
X463661Y274874D01*
X463599Y274933D01*
X463544Y274998D01*
X463483Y275041D01*
X463429Y275092D01*
X463355Y275133D01*
X463285Y275183D01*
X463216Y275210D01*
X463151Y275246D01*
X463068Y275267D01*
X462989Y275298D01*
X462915Y275306D01*
X462843Y275325D01*
X462682Y275335D01*
X294309Y275335D01*
X294211Y275323D01*
X294112Y275320D01*
X294054Y275303D01*
X293994Y275295D01*
X293902Y275259D01*
X293807Y275231D01*
X293755Y275201D01*
X293698Y275178D01*
X293618Y275120D01*
X293533Y275070D01*
X293457Y275004D01*
X293441Y274992D01*
X293433Y274982D01*
X293412Y274964D01*
X281084Y262635D01*
X241597Y262635D01*
X241452Y262617D01*
X241307Y262602D01*
X241294Y262597D01*
X241281Y262595D01*
X241146Y262542D01*
X241009Y262491D01*
X240998Y262483D01*
X240985Y262478D01*
X240868Y262393D01*
X240748Y262310D01*
X240739Y262299D01*
X240728Y262292D01*
X240635Y262180D01*
X240540Y262069D01*
X240534Y262057D01*
X240525Y262047D01*
X240463Y261915D01*
X240398Y261784D01*
X240395Y261771D01*
X240390Y261759D01*
X240362Y261617D01*
X240332Y261473D01*
X240332Y261460D01*
X240330Y261447D01*
X240339Y261302D01*
X240345Y261156D01*
X240349Y261142D01*
X240350Y261129D01*
X240394Y260991D01*
X240437Y260851D01*
X240444Y260839D01*
X240448Y260827D01*
X240525Y260704D01*
X240601Y260579D01*
X240611Y260569D01*
X240618Y260558D01*
X240724Y260458D01*
X240828Y260356D01*
X240843Y260346D01*
X240849Y260340D01*
X240864Y260332D01*
X240962Y260267D01*
X243355Y258885D01*
X248480Y252778D01*
X251207Y245286D01*
X251207Y237314D01*
X248480Y229822D01*
X243356Y223715D01*
X236451Y219729D01*
X228600Y218345D01*
X220749Y219729D01*
X213845Y223715D01*
X208720Y229822D01*
X205993Y237314D01*
X205993Y245286D01*
X208720Y252778D01*
X213845Y258885D01*
X216238Y260267D01*
X216354Y260355D01*
X216472Y260440D01*
X216481Y260451D01*
X216491Y260459D01*
X216582Y260573D01*
X216675Y260685D01*
X216681Y260698D01*
X216689Y260708D01*
X216749Y260842D01*
X216810Y260973D01*
X216813Y260986D01*
X216818Y260999D01*
X216843Y261143D01*
X216870Y261286D01*
X216869Y261299D01*
X216872Y261312D01*
X216859Y261458D01*
X216850Y261603D01*
X216846Y261616D01*
X216845Y261629D01*
X216797Y261767D01*
X216752Y261905D01*
X216745Y261917D01*
X216741Y261930D01*
X216660Y262051D01*
X216582Y262174D01*
X216572Y262183D01*
X216565Y262195D01*
X216457Y262292D01*
X216351Y262392D01*
X216339Y262399D01*
X216329Y262408D01*
X216199Y262475D01*
X216072Y262546D01*
X216059Y262549D01*
X216047Y262555D01*
X215905Y262589D01*
X215764Y262625D01*
X215746Y262626D01*
X215737Y262628D01*
X215720Y262628D01*
X215603Y262635D01*
X38397Y262635D01*
X38252Y262617D01*
X38107Y262602D01*
X38094Y262597D01*
X38081Y262595D01*
X37946Y262542D01*
X37809Y262491D01*
X37798Y262483D01*
X37785Y262478D01*
X37668Y262393D01*
X37548Y262310D01*
X37539Y262299D01*
X37528Y262292D01*
X37435Y262180D01*
X37340Y262069D01*
X37334Y262057D01*
X37325Y262047D01*
X37263Y261915D01*
X37198Y261784D01*
X37195Y261771D01*
X37190Y261759D01*
X37162Y261617D01*
X37132Y261473D01*
X37132Y261460D01*
X37130Y261447D01*
X37139Y261302D01*
X37145Y261156D01*
X37149Y261142D01*
X37150Y261129D01*
X37194Y260991D01*
X37237Y260851D01*
X37244Y260839D01*
X37248Y260827D01*
X37325Y260704D01*
X37401Y260579D01*
X37411Y260569D01*
X37418Y260558D01*
X37524Y260458D01*
X37628Y260356D01*
X37643Y260346D01*
X37649Y260340D01*
X37664Y260332D01*
X37762Y260267D01*
X40155Y258885D01*
X45280Y252778D01*
X48007Y245286D01*
X48007Y237314D01*
X45280Y229822D01*
X40156Y223715D01*
X33251Y219729D01*
X25400Y218345D01*
X17549Y219729D01*
X10645Y223715D01*
X6306Y228885D01*
X6280Y228909D01*
X6260Y228938D01*
X6164Y229017D01*
X6073Y229101D01*
X6042Y229118D01*
X6015Y229141D01*
X5902Y229194D01*
X5793Y229253D01*
X5759Y229261D01*
X5727Y229276D01*
X5605Y229299D01*
X5485Y229330D01*
X5449Y229329D01*
X5414Y229336D01*
X5291Y229328D01*
X5167Y229327D01*
X5132Y229318D01*
X5097Y229316D01*
X4979Y229278D01*
X4859Y229246D01*
X4828Y229229D01*
X4795Y229218D01*
X4690Y229152D01*
X4581Y229091D01*
X4556Y229067D01*
X4526Y229048D01*
X4441Y228958D01*
X4351Y228872D01*
X4332Y228842D01*
X4308Y228816D01*
X4248Y228708D01*
X4182Y228603D01*
X4171Y228569D01*
X4154Y228538D01*
X4123Y228418D01*
X4086Y228300D01*
X4084Y228264D01*
X4075Y228230D01*
X4065Y228069D01*
X4065Y201474D01*
X4070Y201435D01*
X4067Y201395D01*
X4090Y201277D01*
X4105Y201159D01*
X4119Y201122D01*
X4127Y201083D01*
X4178Y200974D01*
X4222Y200863D01*
X4245Y200831D01*
X4262Y200795D01*
X4338Y200703D01*
X4408Y200606D01*
X4439Y200580D01*
X4464Y200550D01*
X4561Y200479D01*
X4653Y200403D01*
X4689Y200386D01*
X4722Y200362D01*
X4833Y200318D01*
X4941Y200267D01*
X4980Y200260D01*
X5017Y200245D01*
X5136Y200230D01*
X5253Y200208D01*
X5293Y200210D01*
X5333Y200205D01*
G37*
%LPC*%
G36*
X445435Y251468D02*
X445435Y251468D01*
X445484Y251478D01*
X445534Y251479D01*
X445639Y251510D01*
X445747Y251532D01*
X445792Y251554D01*
X445839Y251568D01*
X445934Y251623D01*
X446033Y251672D01*
X446070Y251704D01*
X446113Y251729D01*
X446234Y251836D01*
X447325Y252926D01*
X449612Y253874D01*
X452088Y253874D01*
X454375Y252926D01*
X456126Y251175D01*
X457074Y248888D01*
X457074Y246412D01*
X456126Y244125D01*
X454375Y242374D01*
X452088Y241426D01*
X449612Y241426D01*
X447325Y242374D01*
X446234Y243464D01*
X446195Y243495D01*
X446161Y243532D01*
X446069Y243592D01*
X445983Y243659D01*
X445937Y243679D01*
X445896Y243706D01*
X445792Y243742D01*
X445691Y243786D01*
X445642Y243793D01*
X445595Y243810D01*
X445485Y243818D01*
X445377Y243835D01*
X445327Y243831D01*
X445278Y243835D01*
X445170Y243816D01*
X445060Y243806D01*
X445013Y243789D01*
X444964Y243780D01*
X444864Y243735D01*
X444761Y243698D01*
X444720Y243670D01*
X444674Y243650D01*
X444589Y243581D01*
X444498Y243519D01*
X444465Y243482D01*
X444426Y243451D01*
X444360Y243363D01*
X444287Y243281D01*
X444265Y243237D01*
X444235Y243197D01*
X444164Y243053D01*
X441599Y236860D01*
X436240Y231501D01*
X429239Y228601D01*
X421661Y228601D01*
X414660Y231501D01*
X409301Y236860D01*
X406401Y243861D01*
X406401Y251439D01*
X409301Y258440D01*
X414660Y263799D01*
X421661Y266699D01*
X429239Y266699D01*
X436240Y263799D01*
X441599Y258440D01*
X444164Y252247D01*
X444188Y252204D01*
X444205Y252158D01*
X444267Y252067D01*
X444321Y251971D01*
X444356Y251935D01*
X444384Y251894D01*
X444466Y251822D01*
X444543Y251743D01*
X444585Y251717D01*
X444622Y251684D01*
X444720Y251634D01*
X444814Y251577D01*
X444861Y251562D01*
X444906Y251539D01*
X445013Y251515D01*
X445118Y251483D01*
X445167Y251481D01*
X445216Y251470D01*
X445326Y251473D01*
X445435Y251468D01*
G37*
%LPD*%
%LPC*%
G36*
X307361Y228601D02*
X307361Y228601D01*
X300360Y231501D01*
X295001Y236860D01*
X292101Y243861D01*
X292101Y251439D01*
X295001Y258440D01*
X300360Y263799D01*
X307361Y266699D01*
X314939Y266699D01*
X321940Y263799D01*
X327299Y258440D01*
X330199Y251439D01*
X330199Y243861D01*
X327299Y236860D01*
X321940Y231501D01*
X314939Y228601D01*
X307361Y228601D01*
G37*
%LPD*%
%LPC*%
G36*
X421661Y11431D02*
X421661Y11431D01*
X414660Y14331D01*
X409301Y19690D01*
X406401Y26691D01*
X406401Y34269D01*
X409301Y41270D01*
X414660Y46629D01*
X421661Y49529D01*
X429239Y49529D01*
X436240Y46629D01*
X441599Y41270D01*
X444499Y34269D01*
X444499Y26691D01*
X441599Y19690D01*
X436240Y14331D01*
X429239Y11431D01*
X421661Y11431D01*
G37*
%LPD*%
%LPC*%
G36*
X15239Y193039D02*
X15239Y193039D01*
X15239Y202185D01*
X15496Y202145D01*
X17283Y201564D01*
X18957Y200711D01*
X20478Y199606D01*
X21806Y198278D01*
X22911Y196757D01*
X23764Y195083D01*
X24345Y193296D01*
X24385Y193039D01*
X15239Y193039D01*
G37*
%LPD*%
%LPC*%
G36*
X375157Y65150D02*
X375157Y65150D01*
X375157Y72391D01*
X377143Y72391D01*
X377790Y72218D01*
X378369Y71883D01*
X378842Y71410D01*
X379177Y70831D01*
X379350Y70184D01*
X379350Y65150D01*
X375157Y65150D01*
G37*
%LPD*%
%LPC*%
G36*
X375157Y54609D02*
X375157Y54609D01*
X375157Y61850D01*
X379350Y61850D01*
X379350Y56815D01*
X379177Y56169D01*
X378842Y55590D01*
X378369Y55117D01*
X377790Y54782D01*
X377143Y54609D01*
X375157Y54609D01*
G37*
%LPD*%
%LPC*%
G36*
X333120Y217487D02*
X333120Y217487D01*
X333120Y222584D01*
X333293Y223231D01*
X333628Y223810D01*
X334101Y224283D01*
X334680Y224618D01*
X335327Y224791D01*
X337249Y224791D01*
X337249Y217487D01*
X333120Y217487D01*
G37*
%LPD*%
%LPC*%
G36*
X335327Y207009D02*
X335327Y207009D01*
X334680Y207182D01*
X334101Y207517D01*
X333628Y207990D01*
X333293Y208569D01*
X333120Y209216D01*
X333120Y214313D01*
X337249Y214313D01*
X337249Y207009D01*
X335327Y207009D01*
G37*
%LPD*%
G36*
X400704Y62179D02*
X400704Y62179D01*
X400726Y62183D01*
X400733Y62198D01*
X400742Y62204D01*
X400741Y62214D01*
X400748Y62230D01*
X400748Y64770D01*
X400736Y64789D01*
X400732Y64811D01*
X400717Y64818D01*
X400711Y64827D01*
X400701Y64826D01*
X400685Y64833D01*
X391859Y64833D01*
X391840Y64821D01*
X391817Y64817D01*
X391810Y64802D01*
X391801Y64796D01*
X391803Y64786D01*
X391796Y64770D01*
X391796Y62230D01*
X391808Y62211D01*
X391811Y62189D01*
X391827Y62182D01*
X391833Y62173D01*
X391843Y62174D01*
X391859Y62167D01*
X400685Y62167D01*
X400704Y62179D01*
G37*
D10*
X468664Y274193D02*
X478663Y269193D01*
X468664Y264194D01*
X468664Y257821D02*
X463664Y252822D01*
X478663Y252822D01*
X478663Y257821D02*
X478663Y247822D01*
X478663Y241450D02*
X478663Y231451D01*
X478663Y241450D02*
X468664Y231451D01*
X466164Y231451D01*
X463664Y233950D01*
X463664Y238950D01*
X466164Y241450D01*
D11*
X323850Y158750D03*
X336550Y184150D03*
X349250Y158750D03*
X374650Y158750D03*
X400050Y158750D03*
X361950Y184150D03*
X387350Y184150D03*
D12*
X412750Y184150D03*
D13*
X398907Y63500D03*
X388493Y63500D03*
X373507Y63500D03*
X363093Y63500D03*
D14*
X50800Y50800D03*
X450850Y247650D03*
D11*
X412750Y119380D03*
X400050Y93980D03*
X387350Y119380D03*
X361950Y119380D03*
X336550Y119380D03*
X374650Y93980D03*
X349250Y93980D03*
D12*
X323850Y93980D03*
D11*
X12700Y190500D03*
X12700Y165100D03*
X12700Y139700D03*
X12700Y114300D03*
X469900Y127000D03*
X469900Y152400D03*
D15*
X338836Y215900D03*
X346964Y215900D03*
X346964Y63500D03*
X338836Y63500D03*
D11*
X12700Y88900D03*
D16*
X25400Y152400D02*
X63500Y152400D01*
X25400Y152400D02*
X12700Y139700D01*
D17*
X204470Y143510D03*
D16*
X233680Y143510D01*
X256540Y120650D01*
D17*
X256540Y120650D03*
X63500Y152400D03*
D16*
X12700Y114300D02*
X50800Y76200D01*
D17*
X139700Y76073D03*
D16*
X139573Y76200D01*
X50800Y76200D01*
D17*
X177800Y182880D03*
X227330Y86995D03*
X183515Y117475D03*
X179070Y67310D03*
X90170Y59690D03*
X271780Y213360D03*
X193040Y182880D03*
X281305Y67310D03*
X424815Y73660D03*
X274955Y242570D03*
X231140Y128270D03*
X134620Y189230D03*
X137160Y172720D03*
X144780Y182880D03*
X156210Y190500D03*
X187960Y194310D03*
X151130Y97790D03*
X144780Y135890D03*
X173990Y193040D03*
X200660Y220980D03*
X73660Y245110D03*
X81280Y252730D03*
X25400Y208280D03*
X266700Y228600D03*
X62230Y127000D03*
X63500Y177800D03*
X59690Y102870D03*
X38100Y101600D03*
X50800Y62230D03*
X192795Y62423D03*
D18*
X210575Y44643D02*
X262697Y44643D01*
X210575Y44643D02*
X192795Y62423D01*
X398907Y63500D02*
X398907Y43307D01*
X299720Y7620D02*
X262697Y44643D01*
X299720Y7620D02*
X363220Y7620D01*
X398907Y43307D01*
D16*
X29210Y72390D02*
X12700Y88900D01*
X29210Y72390D02*
X132080Y72390D01*
X135890Y68580D01*
X167513Y68580D01*
X200533Y101600D01*
D17*
X200533Y101600D03*
X307314Y138398D03*
D16*
X307314Y142214D01*
X323850Y158750D01*
X327868Y128062D02*
X336550Y119380D01*
X327868Y128062D02*
X327868Y131345D01*
X330278Y133755D01*
X372286Y133755D01*
X389513Y150982D01*
X392282Y150982D01*
X400050Y158750D01*
X323850Y132715D02*
X323850Y93980D01*
X323850Y132715D02*
X328700Y137565D01*
X370708Y137565D01*
X387858Y154716D01*
X387858Y163800D01*
X408208Y184150D01*
X412750Y184150D01*
X397510Y136525D02*
X381635Y136525D01*
X397510Y136525D02*
X426720Y165735D01*
X426720Y194310D02*
X422275Y198755D01*
X384713Y198755D01*
X426720Y194310D02*
X426720Y165735D01*
X364490Y119380D02*
X361950Y119380D01*
X364490Y119380D02*
X381635Y136525D01*
X374523Y158877D02*
X374523Y188565D01*
X374523Y158877D02*
X374650Y158750D01*
X374523Y188565D02*
X384713Y198755D01*
X361950Y119380D02*
X361950Y83693D01*
D19*
X363093Y82550D02*
X363093Y63500D01*
X363093Y82550D02*
X361950Y83693D01*
D16*
X374523Y94107D02*
X374523Y123795D01*
X374523Y94107D02*
X374650Y93980D01*
X399088Y132715D02*
X430530Y164157D01*
X399088Y132715D02*
X383443Y132715D01*
X430530Y164157D02*
X430530Y195888D01*
X383443Y132715D02*
X374523Y123795D01*
X375793Y203073D02*
X423345Y203073D01*
X430530Y195888D01*
X375793Y203073D02*
X361950Y189230D01*
X361950Y184150D01*
D18*
X388493Y80137D02*
X388493Y63500D01*
X388493Y80137D02*
X374523Y94107D01*
D20*
X349250Y93980D02*
X349250Y77343D01*
X346964Y75057D02*
X346964Y63500D01*
X346964Y75057D02*
X349250Y77343D01*
X349250Y158750D02*
X349250Y193772D01*
X346964Y196058D02*
X346964Y215900D01*
X346964Y196058D02*
X349250Y193772D01*
D17*
X173355Y109855D03*
D19*
X173355Y95885D01*
X162560Y85090D01*
X86360Y85090D01*
X73660Y97790D01*
X73660Y111760D01*
D17*
X73660Y111760D03*
D20*
X325120Y63500D02*
X338836Y63500D01*
D17*
X205740Y156210D03*
D20*
X232410Y156210D01*
X325120Y63500D01*
D17*
X52705Y25400D03*
X127000Y38100D03*
D19*
X225185Y21350D02*
X234075Y30240D01*
X225185Y21350D02*
X185815Y21350D01*
X169065Y38100D01*
X127000Y38100D01*
D17*
X234075Y30240D03*
D16*
X65405Y38100D02*
X52705Y25400D01*
X65405Y38100D02*
X127000Y38100D01*
M02*
