G04 EAGLE Gerber RS-274X export*
G75*
%MOMM*%
%FSLAX34Y34*%
%LPD*%
%INSoldermask Top*%
%IPPOS*%
%AMOC8*
5,1,8,0,0,1.08239X$1,22.5*%
G01*
%ADD10R,1.403200X2.203200*%
%ADD11R,0.803200X1.553200*%
%ADD12R,1.303200X0.453200*%
%ADD13R,1.303200X1.203200*%
%ADD14R,1.203200X1.303200*%
%ADD15C,2.082800*%
%ADD16R,2.082800X2.082800*%
%ADD17C,3.403200*%
%ADD18R,0.863600X1.473200*%
%ADD19C,3.505200*%
%ADD20C,0.838200*%
%ADD21C,0.505344*%
%ADD22R,1.473200X0.863600*%
%ADD23R,2.003200X2.203200*%
%ADD24R,0.803200X0.453200*%
%ADD25R,0.453200X0.803200*%
%ADD26R,0.453200X2.027200*%
%ADD27R,2.263200X1.473200*%
%ADD28R,1.403200X1.003200*%
%ADD29C,0.965200*%
%ADD30R,3.103200X1.103200*%
%ADD31C,1.203200*%
%ADD32C,1.270000*%
%ADD33C,1.703200*%

G36*
X1460565Y426732D02*
X1460565Y426732D01*
X1460631Y426734D01*
X1460674Y426752D01*
X1460721Y426760D01*
X1460778Y426794D01*
X1460838Y426819D01*
X1460873Y426850D01*
X1460914Y426875D01*
X1460956Y426926D01*
X1461004Y426970D01*
X1461026Y427012D01*
X1461055Y427049D01*
X1461076Y427111D01*
X1461107Y427170D01*
X1461115Y427224D01*
X1461127Y427261D01*
X1461126Y427301D01*
X1461134Y427355D01*
X1461134Y431165D01*
X1461123Y431230D01*
X1461121Y431296D01*
X1461103Y431339D01*
X1461095Y431386D01*
X1461061Y431443D01*
X1461036Y431503D01*
X1461005Y431538D01*
X1460980Y431579D01*
X1460929Y431621D01*
X1460885Y431669D01*
X1460843Y431691D01*
X1460806Y431720D01*
X1460744Y431741D01*
X1460685Y431772D01*
X1460631Y431780D01*
X1460594Y431792D01*
X1460554Y431791D01*
X1460500Y431799D01*
X1457960Y431799D01*
X1457895Y431788D01*
X1457829Y431786D01*
X1457786Y431768D01*
X1457739Y431760D01*
X1457682Y431726D01*
X1457622Y431701D01*
X1457587Y431670D01*
X1457546Y431645D01*
X1457505Y431594D01*
X1457456Y431550D01*
X1457434Y431508D01*
X1457405Y431471D01*
X1457384Y431409D01*
X1457353Y431350D01*
X1457345Y431296D01*
X1457333Y431259D01*
X1457333Y431255D01*
X1457333Y431254D01*
X1457334Y431219D01*
X1457326Y431165D01*
X1457326Y427355D01*
X1457337Y427290D01*
X1457339Y427224D01*
X1457357Y427181D01*
X1457365Y427134D01*
X1457399Y427077D01*
X1457424Y427017D01*
X1457455Y426982D01*
X1457480Y426941D01*
X1457531Y426900D01*
X1457575Y426851D01*
X1457617Y426829D01*
X1457654Y426800D01*
X1457716Y426779D01*
X1457775Y426748D01*
X1457829Y426740D01*
X1457866Y426728D01*
X1457906Y426729D01*
X1457960Y426721D01*
X1460500Y426721D01*
X1460565Y426732D01*
G37*
G36*
X998285Y426732D02*
X998285Y426732D01*
X998351Y426734D01*
X998394Y426752D01*
X998441Y426760D01*
X998498Y426794D01*
X998558Y426819D01*
X998593Y426850D01*
X998634Y426875D01*
X998676Y426926D01*
X998724Y426970D01*
X998746Y427012D01*
X998775Y427049D01*
X998796Y427111D01*
X998827Y427170D01*
X998835Y427224D01*
X998847Y427261D01*
X998846Y427301D01*
X998854Y427355D01*
X998854Y431165D01*
X998843Y431230D01*
X998841Y431296D01*
X998823Y431339D01*
X998815Y431386D01*
X998781Y431443D01*
X998756Y431503D01*
X998725Y431538D01*
X998700Y431579D01*
X998649Y431621D01*
X998605Y431669D01*
X998563Y431691D01*
X998526Y431720D01*
X998464Y431741D01*
X998405Y431772D01*
X998351Y431780D01*
X998314Y431792D01*
X998274Y431791D01*
X998220Y431799D01*
X995680Y431799D01*
X995615Y431788D01*
X995549Y431786D01*
X995506Y431768D01*
X995459Y431760D01*
X995402Y431726D01*
X995342Y431701D01*
X995307Y431670D01*
X995266Y431645D01*
X995225Y431594D01*
X995176Y431550D01*
X995154Y431508D01*
X995125Y431471D01*
X995104Y431409D01*
X995073Y431350D01*
X995065Y431296D01*
X995053Y431259D01*
X995053Y431255D01*
X995053Y431254D01*
X995054Y431219D01*
X995046Y431165D01*
X995046Y427355D01*
X995057Y427290D01*
X995059Y427224D01*
X995077Y427181D01*
X995085Y427134D01*
X995119Y427077D01*
X995144Y427017D01*
X995175Y426982D01*
X995200Y426941D01*
X995251Y426900D01*
X995295Y426851D01*
X995337Y426829D01*
X995374Y426800D01*
X995436Y426779D01*
X995495Y426748D01*
X995549Y426740D01*
X995586Y426728D01*
X995626Y426729D01*
X995680Y426721D01*
X998220Y426721D01*
X998285Y426732D01*
G37*
G36*
X536005Y426732D02*
X536005Y426732D01*
X536071Y426734D01*
X536114Y426752D01*
X536161Y426760D01*
X536218Y426794D01*
X536278Y426819D01*
X536313Y426850D01*
X536354Y426875D01*
X536396Y426926D01*
X536444Y426970D01*
X536466Y427012D01*
X536495Y427049D01*
X536516Y427111D01*
X536547Y427170D01*
X536555Y427224D01*
X536567Y427261D01*
X536566Y427301D01*
X536574Y427355D01*
X536574Y431165D01*
X536563Y431230D01*
X536561Y431296D01*
X536543Y431339D01*
X536535Y431386D01*
X536501Y431443D01*
X536476Y431503D01*
X536445Y431538D01*
X536420Y431579D01*
X536369Y431621D01*
X536325Y431669D01*
X536283Y431691D01*
X536246Y431720D01*
X536184Y431741D01*
X536125Y431772D01*
X536071Y431780D01*
X536034Y431792D01*
X535994Y431791D01*
X535940Y431799D01*
X533400Y431799D01*
X533335Y431788D01*
X533269Y431786D01*
X533226Y431768D01*
X533179Y431760D01*
X533122Y431726D01*
X533062Y431701D01*
X533027Y431670D01*
X532986Y431645D01*
X532945Y431594D01*
X532896Y431550D01*
X532874Y431508D01*
X532845Y431471D01*
X532824Y431409D01*
X532793Y431350D01*
X532785Y431296D01*
X532773Y431259D01*
X532773Y431255D01*
X532773Y431254D01*
X532774Y431219D01*
X532766Y431165D01*
X532766Y427355D01*
X532777Y427290D01*
X532779Y427224D01*
X532797Y427181D01*
X532805Y427134D01*
X532839Y427077D01*
X532864Y427017D01*
X532895Y426982D01*
X532920Y426941D01*
X532971Y426900D01*
X533015Y426851D01*
X533057Y426829D01*
X533094Y426800D01*
X533156Y426779D01*
X533215Y426748D01*
X533269Y426740D01*
X533306Y426728D01*
X533346Y426729D01*
X533400Y426721D01*
X535940Y426721D01*
X536005Y426732D01*
G37*
G36*
X73725Y426732D02*
X73725Y426732D01*
X73791Y426734D01*
X73834Y426752D01*
X73881Y426760D01*
X73938Y426794D01*
X73998Y426819D01*
X74033Y426850D01*
X74074Y426875D01*
X74116Y426926D01*
X74164Y426970D01*
X74186Y427012D01*
X74215Y427049D01*
X74236Y427111D01*
X74267Y427170D01*
X74275Y427224D01*
X74287Y427261D01*
X74286Y427301D01*
X74294Y427355D01*
X74294Y431165D01*
X74283Y431230D01*
X74281Y431296D01*
X74263Y431339D01*
X74255Y431386D01*
X74221Y431443D01*
X74196Y431503D01*
X74165Y431538D01*
X74140Y431579D01*
X74089Y431621D01*
X74045Y431669D01*
X74003Y431691D01*
X73966Y431720D01*
X73904Y431741D01*
X73845Y431772D01*
X73791Y431780D01*
X73754Y431792D01*
X73714Y431791D01*
X73660Y431799D01*
X71120Y431799D01*
X71055Y431788D01*
X70989Y431786D01*
X70946Y431768D01*
X70899Y431760D01*
X70842Y431726D01*
X70782Y431701D01*
X70747Y431670D01*
X70706Y431645D01*
X70665Y431594D01*
X70616Y431550D01*
X70594Y431508D01*
X70565Y431471D01*
X70544Y431409D01*
X70513Y431350D01*
X70505Y431296D01*
X70493Y431259D01*
X70493Y431255D01*
X70493Y431254D01*
X70494Y431219D01*
X70486Y431165D01*
X70486Y427355D01*
X70497Y427290D01*
X70499Y427224D01*
X70517Y427181D01*
X70525Y427134D01*
X70559Y427077D01*
X70584Y427017D01*
X70615Y426982D01*
X70640Y426941D01*
X70691Y426900D01*
X70735Y426851D01*
X70777Y426829D01*
X70814Y426800D01*
X70876Y426779D01*
X70935Y426748D01*
X70989Y426740D01*
X71026Y426728D01*
X71066Y426729D01*
X71120Y426721D01*
X73660Y426721D01*
X73725Y426732D01*
G37*
G36*
X1460565Y-17768D02*
X1460565Y-17768D01*
X1460631Y-17766D01*
X1460674Y-17748D01*
X1460721Y-17740D01*
X1460778Y-17706D01*
X1460838Y-17681D01*
X1460873Y-17650D01*
X1460914Y-17625D01*
X1460956Y-17574D01*
X1461004Y-17530D01*
X1461026Y-17488D01*
X1461055Y-17451D01*
X1461076Y-17389D01*
X1461107Y-17330D01*
X1461115Y-17276D01*
X1461127Y-17239D01*
X1461126Y-17199D01*
X1461134Y-17145D01*
X1461134Y-13335D01*
X1461123Y-13270D01*
X1461121Y-13204D01*
X1461103Y-13161D01*
X1461095Y-13114D01*
X1461061Y-13057D01*
X1461036Y-12997D01*
X1461005Y-12962D01*
X1460980Y-12921D01*
X1460929Y-12880D01*
X1460885Y-12831D01*
X1460843Y-12809D01*
X1460806Y-12780D01*
X1460744Y-12759D01*
X1460685Y-12728D01*
X1460631Y-12720D01*
X1460594Y-12708D01*
X1460554Y-12709D01*
X1460500Y-12701D01*
X1457960Y-12701D01*
X1457895Y-12712D01*
X1457829Y-12714D01*
X1457786Y-12732D01*
X1457739Y-12740D01*
X1457682Y-12774D01*
X1457622Y-12799D01*
X1457587Y-12830D01*
X1457546Y-12855D01*
X1457505Y-12906D01*
X1457456Y-12950D01*
X1457434Y-12992D01*
X1457405Y-13029D01*
X1457384Y-13091D01*
X1457353Y-13150D01*
X1457345Y-13204D01*
X1457333Y-13241D01*
X1457333Y-13245D01*
X1457333Y-13246D01*
X1457334Y-13281D01*
X1457326Y-13335D01*
X1457326Y-17145D01*
X1457337Y-17210D01*
X1457339Y-17276D01*
X1457357Y-17319D01*
X1457365Y-17366D01*
X1457399Y-17423D01*
X1457424Y-17483D01*
X1457455Y-17518D01*
X1457480Y-17559D01*
X1457531Y-17601D01*
X1457575Y-17649D01*
X1457617Y-17671D01*
X1457654Y-17700D01*
X1457716Y-17721D01*
X1457775Y-17752D01*
X1457829Y-17760D01*
X1457866Y-17772D01*
X1457906Y-17771D01*
X1457960Y-17779D01*
X1460500Y-17779D01*
X1460565Y-17768D01*
G37*
G36*
X998285Y-17768D02*
X998285Y-17768D01*
X998351Y-17766D01*
X998394Y-17748D01*
X998441Y-17740D01*
X998498Y-17706D01*
X998558Y-17681D01*
X998593Y-17650D01*
X998634Y-17625D01*
X998676Y-17574D01*
X998724Y-17530D01*
X998746Y-17488D01*
X998775Y-17451D01*
X998796Y-17389D01*
X998827Y-17330D01*
X998835Y-17276D01*
X998847Y-17239D01*
X998846Y-17199D01*
X998854Y-17145D01*
X998854Y-13335D01*
X998843Y-13270D01*
X998841Y-13204D01*
X998823Y-13161D01*
X998815Y-13114D01*
X998781Y-13057D01*
X998756Y-12997D01*
X998725Y-12962D01*
X998700Y-12921D01*
X998649Y-12880D01*
X998605Y-12831D01*
X998563Y-12809D01*
X998526Y-12780D01*
X998464Y-12759D01*
X998405Y-12728D01*
X998351Y-12720D01*
X998314Y-12708D01*
X998274Y-12709D01*
X998220Y-12701D01*
X995680Y-12701D01*
X995615Y-12712D01*
X995549Y-12714D01*
X995506Y-12732D01*
X995459Y-12740D01*
X995402Y-12774D01*
X995342Y-12799D01*
X995307Y-12830D01*
X995266Y-12855D01*
X995225Y-12906D01*
X995176Y-12950D01*
X995154Y-12992D01*
X995125Y-13029D01*
X995104Y-13091D01*
X995073Y-13150D01*
X995065Y-13204D01*
X995053Y-13241D01*
X995053Y-13245D01*
X995053Y-13246D01*
X995054Y-13281D01*
X995046Y-13335D01*
X995046Y-17145D01*
X995057Y-17210D01*
X995059Y-17276D01*
X995077Y-17319D01*
X995085Y-17366D01*
X995119Y-17423D01*
X995144Y-17483D01*
X995175Y-17518D01*
X995200Y-17559D01*
X995251Y-17601D01*
X995295Y-17649D01*
X995337Y-17671D01*
X995374Y-17700D01*
X995436Y-17721D01*
X995495Y-17752D01*
X995549Y-17760D01*
X995586Y-17772D01*
X995626Y-17771D01*
X995680Y-17779D01*
X998220Y-17779D01*
X998285Y-17768D01*
G37*
G36*
X536005Y-17768D02*
X536005Y-17768D01*
X536071Y-17766D01*
X536114Y-17748D01*
X536161Y-17740D01*
X536218Y-17706D01*
X536278Y-17681D01*
X536313Y-17650D01*
X536354Y-17625D01*
X536396Y-17574D01*
X536444Y-17530D01*
X536466Y-17488D01*
X536495Y-17451D01*
X536516Y-17389D01*
X536547Y-17330D01*
X536555Y-17276D01*
X536567Y-17239D01*
X536566Y-17199D01*
X536574Y-17145D01*
X536574Y-13335D01*
X536563Y-13270D01*
X536561Y-13204D01*
X536543Y-13161D01*
X536535Y-13114D01*
X536501Y-13057D01*
X536476Y-12997D01*
X536445Y-12962D01*
X536420Y-12921D01*
X536369Y-12880D01*
X536325Y-12831D01*
X536283Y-12809D01*
X536246Y-12780D01*
X536184Y-12759D01*
X536125Y-12728D01*
X536071Y-12720D01*
X536034Y-12708D01*
X535994Y-12709D01*
X535940Y-12701D01*
X533400Y-12701D01*
X533335Y-12712D01*
X533269Y-12714D01*
X533226Y-12732D01*
X533179Y-12740D01*
X533122Y-12774D01*
X533062Y-12799D01*
X533027Y-12830D01*
X532986Y-12855D01*
X532945Y-12906D01*
X532896Y-12950D01*
X532874Y-12992D01*
X532845Y-13029D01*
X532824Y-13091D01*
X532793Y-13150D01*
X532785Y-13204D01*
X532773Y-13241D01*
X532773Y-13245D01*
X532773Y-13246D01*
X532774Y-13281D01*
X532766Y-13335D01*
X532766Y-17145D01*
X532777Y-17210D01*
X532779Y-17276D01*
X532797Y-17319D01*
X532805Y-17366D01*
X532839Y-17423D01*
X532864Y-17483D01*
X532895Y-17518D01*
X532920Y-17559D01*
X532971Y-17601D01*
X533015Y-17649D01*
X533057Y-17671D01*
X533094Y-17700D01*
X533156Y-17721D01*
X533215Y-17752D01*
X533269Y-17760D01*
X533306Y-17772D01*
X533346Y-17771D01*
X533400Y-17779D01*
X535940Y-17779D01*
X536005Y-17768D01*
G37*
G36*
X73725Y-17768D02*
X73725Y-17768D01*
X73791Y-17766D01*
X73834Y-17748D01*
X73881Y-17740D01*
X73938Y-17706D01*
X73998Y-17681D01*
X74033Y-17650D01*
X74074Y-17625D01*
X74116Y-17574D01*
X74164Y-17530D01*
X74186Y-17488D01*
X74215Y-17451D01*
X74236Y-17389D01*
X74267Y-17330D01*
X74275Y-17276D01*
X74287Y-17239D01*
X74286Y-17199D01*
X74294Y-17145D01*
X74294Y-13335D01*
X74283Y-13270D01*
X74281Y-13204D01*
X74263Y-13161D01*
X74255Y-13114D01*
X74221Y-13057D01*
X74196Y-12997D01*
X74165Y-12962D01*
X74140Y-12921D01*
X74089Y-12880D01*
X74045Y-12831D01*
X74003Y-12809D01*
X73966Y-12780D01*
X73904Y-12759D01*
X73845Y-12728D01*
X73791Y-12720D01*
X73754Y-12708D01*
X73714Y-12709D01*
X73660Y-12701D01*
X71120Y-12701D01*
X71055Y-12712D01*
X70989Y-12714D01*
X70946Y-12732D01*
X70899Y-12740D01*
X70842Y-12774D01*
X70782Y-12799D01*
X70747Y-12830D01*
X70706Y-12855D01*
X70665Y-12906D01*
X70616Y-12950D01*
X70594Y-12992D01*
X70565Y-13029D01*
X70544Y-13091D01*
X70513Y-13150D01*
X70505Y-13204D01*
X70493Y-13241D01*
X70493Y-13245D01*
X70493Y-13246D01*
X70494Y-13281D01*
X70486Y-13335D01*
X70486Y-17145D01*
X70497Y-17210D01*
X70499Y-17276D01*
X70517Y-17319D01*
X70525Y-17366D01*
X70559Y-17423D01*
X70584Y-17483D01*
X70615Y-17518D01*
X70640Y-17559D01*
X70691Y-17601D01*
X70735Y-17649D01*
X70777Y-17671D01*
X70814Y-17700D01*
X70876Y-17721D01*
X70935Y-17752D01*
X70989Y-17760D01*
X71026Y-17772D01*
X71066Y-17771D01*
X71120Y-17779D01*
X73660Y-17779D01*
X73725Y-17768D01*
G37*
G36*
X1641540Y448957D02*
X1641540Y448957D01*
X1641606Y448959D01*
X1641649Y448977D01*
X1641696Y448985D01*
X1641753Y449019D01*
X1641813Y449044D01*
X1641848Y449075D01*
X1641889Y449100D01*
X1641931Y449151D01*
X1641979Y449195D01*
X1642001Y449237D01*
X1642030Y449274D01*
X1642051Y449336D01*
X1642082Y449395D01*
X1642090Y449449D01*
X1642102Y449486D01*
X1642101Y449526D01*
X1642109Y449580D01*
X1642109Y452120D01*
X1642098Y452185D01*
X1642096Y452251D01*
X1642078Y452294D01*
X1642070Y452341D01*
X1642036Y452398D01*
X1642011Y452458D01*
X1641980Y452493D01*
X1641955Y452534D01*
X1641904Y452576D01*
X1641860Y452624D01*
X1641818Y452646D01*
X1641781Y452675D01*
X1641719Y452696D01*
X1641660Y452727D01*
X1641606Y452735D01*
X1641569Y452747D01*
X1641529Y452746D01*
X1641475Y452754D01*
X1637665Y452754D01*
X1637600Y452743D01*
X1637534Y452741D01*
X1637491Y452723D01*
X1637444Y452715D01*
X1637387Y452681D01*
X1637327Y452656D01*
X1637292Y452625D01*
X1637251Y452600D01*
X1637210Y452549D01*
X1637161Y452505D01*
X1637139Y452463D01*
X1637110Y452426D01*
X1637089Y452364D01*
X1637058Y452305D01*
X1637050Y452251D01*
X1637038Y452214D01*
X1637038Y452211D01*
X1637039Y452174D01*
X1637031Y452120D01*
X1637031Y449580D01*
X1637042Y449515D01*
X1637044Y449449D01*
X1637062Y449406D01*
X1637070Y449359D01*
X1637104Y449302D01*
X1637129Y449242D01*
X1637160Y449207D01*
X1637185Y449166D01*
X1637236Y449125D01*
X1637280Y449076D01*
X1637322Y449054D01*
X1637359Y449025D01*
X1637421Y449004D01*
X1637480Y448973D01*
X1637534Y448965D01*
X1637571Y448953D01*
X1637611Y448954D01*
X1637665Y448946D01*
X1641475Y448946D01*
X1641540Y448957D01*
G37*
G36*
X716980Y448957D02*
X716980Y448957D01*
X717046Y448959D01*
X717089Y448977D01*
X717136Y448985D01*
X717193Y449019D01*
X717253Y449044D01*
X717288Y449075D01*
X717329Y449100D01*
X717371Y449151D01*
X717419Y449195D01*
X717441Y449237D01*
X717470Y449274D01*
X717491Y449336D01*
X717522Y449395D01*
X717530Y449449D01*
X717542Y449486D01*
X717541Y449526D01*
X717549Y449580D01*
X717549Y452120D01*
X717538Y452185D01*
X717536Y452251D01*
X717518Y452294D01*
X717510Y452341D01*
X717476Y452398D01*
X717451Y452458D01*
X717420Y452493D01*
X717395Y452534D01*
X717344Y452576D01*
X717300Y452624D01*
X717258Y452646D01*
X717221Y452675D01*
X717159Y452696D01*
X717100Y452727D01*
X717046Y452735D01*
X717009Y452747D01*
X716969Y452746D01*
X716915Y452754D01*
X713105Y452754D01*
X713040Y452743D01*
X712974Y452741D01*
X712931Y452723D01*
X712884Y452715D01*
X712827Y452681D01*
X712767Y452656D01*
X712732Y452625D01*
X712691Y452600D01*
X712650Y452549D01*
X712601Y452505D01*
X712579Y452463D01*
X712550Y452426D01*
X712529Y452364D01*
X712498Y452305D01*
X712490Y452251D01*
X712478Y452214D01*
X712478Y452211D01*
X712479Y452174D01*
X712471Y452120D01*
X712471Y449580D01*
X712482Y449515D01*
X712484Y449449D01*
X712502Y449406D01*
X712510Y449359D01*
X712544Y449302D01*
X712569Y449242D01*
X712600Y449207D01*
X712625Y449166D01*
X712676Y449125D01*
X712720Y449076D01*
X712762Y449054D01*
X712799Y449025D01*
X712861Y449004D01*
X712920Y448973D01*
X712974Y448965D01*
X713011Y448953D01*
X713051Y448954D01*
X713105Y448946D01*
X716915Y448946D01*
X716980Y448957D01*
G37*
G36*
X254700Y448957D02*
X254700Y448957D01*
X254766Y448959D01*
X254809Y448977D01*
X254856Y448985D01*
X254913Y449019D01*
X254973Y449044D01*
X255008Y449075D01*
X255049Y449100D01*
X255091Y449151D01*
X255139Y449195D01*
X255161Y449237D01*
X255190Y449274D01*
X255211Y449336D01*
X255242Y449395D01*
X255250Y449449D01*
X255262Y449486D01*
X255261Y449526D01*
X255269Y449580D01*
X255269Y452120D01*
X255258Y452185D01*
X255256Y452251D01*
X255238Y452294D01*
X255230Y452341D01*
X255196Y452398D01*
X255171Y452458D01*
X255140Y452493D01*
X255115Y452534D01*
X255064Y452576D01*
X255020Y452624D01*
X254978Y452646D01*
X254941Y452675D01*
X254879Y452696D01*
X254820Y452727D01*
X254766Y452735D01*
X254729Y452747D01*
X254689Y452746D01*
X254635Y452754D01*
X250825Y452754D01*
X250760Y452743D01*
X250694Y452741D01*
X250651Y452723D01*
X250604Y452715D01*
X250547Y452681D01*
X250487Y452656D01*
X250452Y452625D01*
X250411Y452600D01*
X250370Y452549D01*
X250321Y452505D01*
X250299Y452463D01*
X250270Y452426D01*
X250249Y452364D01*
X250218Y452305D01*
X250210Y452251D01*
X250198Y452214D01*
X250198Y452211D01*
X250199Y452174D01*
X250191Y452120D01*
X250191Y449580D01*
X250202Y449515D01*
X250204Y449449D01*
X250222Y449406D01*
X250230Y449359D01*
X250264Y449302D01*
X250289Y449242D01*
X250320Y449207D01*
X250345Y449166D01*
X250396Y449125D01*
X250440Y449076D01*
X250482Y449054D01*
X250519Y449025D01*
X250581Y449004D01*
X250640Y448973D01*
X250694Y448965D01*
X250731Y448953D01*
X250771Y448954D01*
X250825Y448946D01*
X254635Y448946D01*
X254700Y448957D01*
G37*
G36*
X1179260Y448957D02*
X1179260Y448957D01*
X1179326Y448959D01*
X1179369Y448977D01*
X1179416Y448985D01*
X1179473Y449019D01*
X1179533Y449044D01*
X1179568Y449075D01*
X1179609Y449100D01*
X1179651Y449151D01*
X1179699Y449195D01*
X1179721Y449237D01*
X1179750Y449274D01*
X1179771Y449336D01*
X1179802Y449395D01*
X1179810Y449449D01*
X1179822Y449486D01*
X1179821Y449526D01*
X1179829Y449580D01*
X1179829Y452120D01*
X1179818Y452185D01*
X1179816Y452251D01*
X1179798Y452294D01*
X1179790Y452341D01*
X1179756Y452398D01*
X1179731Y452458D01*
X1179700Y452493D01*
X1179675Y452534D01*
X1179624Y452576D01*
X1179580Y452624D01*
X1179538Y452646D01*
X1179501Y452675D01*
X1179439Y452696D01*
X1179380Y452727D01*
X1179326Y452735D01*
X1179289Y452747D01*
X1179249Y452746D01*
X1179195Y452754D01*
X1175385Y452754D01*
X1175320Y452743D01*
X1175254Y452741D01*
X1175211Y452723D01*
X1175164Y452715D01*
X1175107Y452681D01*
X1175047Y452656D01*
X1175012Y452625D01*
X1174971Y452600D01*
X1174930Y452549D01*
X1174881Y452505D01*
X1174859Y452463D01*
X1174830Y452426D01*
X1174809Y452364D01*
X1174778Y452305D01*
X1174770Y452251D01*
X1174758Y452214D01*
X1174758Y452211D01*
X1174759Y452174D01*
X1174751Y452120D01*
X1174751Y449580D01*
X1174762Y449515D01*
X1174764Y449449D01*
X1174782Y449406D01*
X1174790Y449359D01*
X1174824Y449302D01*
X1174849Y449242D01*
X1174880Y449207D01*
X1174905Y449166D01*
X1174956Y449125D01*
X1175000Y449076D01*
X1175042Y449054D01*
X1175079Y449025D01*
X1175141Y449004D01*
X1175200Y448973D01*
X1175254Y448965D01*
X1175291Y448953D01*
X1175331Y448954D01*
X1175385Y448946D01*
X1179195Y448946D01*
X1179260Y448957D01*
G37*
G36*
X706820Y448957D02*
X706820Y448957D01*
X706886Y448959D01*
X706929Y448977D01*
X706976Y448985D01*
X707033Y449019D01*
X707093Y449044D01*
X707128Y449075D01*
X707169Y449100D01*
X707211Y449151D01*
X707259Y449195D01*
X707281Y449237D01*
X707310Y449274D01*
X707331Y449336D01*
X707362Y449395D01*
X707370Y449449D01*
X707382Y449486D01*
X707381Y449526D01*
X707389Y449580D01*
X707389Y452120D01*
X707378Y452185D01*
X707376Y452251D01*
X707358Y452294D01*
X707350Y452341D01*
X707316Y452398D01*
X707291Y452458D01*
X707260Y452493D01*
X707235Y452534D01*
X707184Y452576D01*
X707140Y452624D01*
X707098Y452646D01*
X707061Y452675D01*
X706999Y452696D01*
X706940Y452727D01*
X706886Y452735D01*
X706849Y452747D01*
X706809Y452746D01*
X706755Y452754D01*
X702945Y452754D01*
X702880Y452743D01*
X702814Y452741D01*
X702771Y452723D01*
X702724Y452715D01*
X702667Y452681D01*
X702607Y452656D01*
X702572Y452625D01*
X702531Y452600D01*
X702490Y452549D01*
X702441Y452505D01*
X702419Y452463D01*
X702390Y452426D01*
X702369Y452364D01*
X702338Y452305D01*
X702330Y452251D01*
X702318Y452214D01*
X702318Y452211D01*
X702319Y452174D01*
X702311Y452120D01*
X702311Y449580D01*
X702322Y449515D01*
X702324Y449449D01*
X702342Y449406D01*
X702350Y449359D01*
X702384Y449302D01*
X702409Y449242D01*
X702440Y449207D01*
X702465Y449166D01*
X702516Y449125D01*
X702560Y449076D01*
X702602Y449054D01*
X702639Y449025D01*
X702701Y449004D01*
X702760Y448973D01*
X702814Y448965D01*
X702851Y448953D01*
X702891Y448954D01*
X702945Y448946D01*
X706755Y448946D01*
X706820Y448957D01*
G37*
G36*
X1631380Y448957D02*
X1631380Y448957D01*
X1631446Y448959D01*
X1631489Y448977D01*
X1631536Y448985D01*
X1631593Y449019D01*
X1631653Y449044D01*
X1631688Y449075D01*
X1631729Y449100D01*
X1631771Y449151D01*
X1631819Y449195D01*
X1631841Y449237D01*
X1631870Y449274D01*
X1631891Y449336D01*
X1631922Y449395D01*
X1631930Y449449D01*
X1631942Y449486D01*
X1631941Y449526D01*
X1631949Y449580D01*
X1631949Y452120D01*
X1631938Y452185D01*
X1631936Y452251D01*
X1631918Y452294D01*
X1631910Y452341D01*
X1631876Y452398D01*
X1631851Y452458D01*
X1631820Y452493D01*
X1631795Y452534D01*
X1631744Y452576D01*
X1631700Y452624D01*
X1631658Y452646D01*
X1631621Y452675D01*
X1631559Y452696D01*
X1631500Y452727D01*
X1631446Y452735D01*
X1631409Y452747D01*
X1631369Y452746D01*
X1631315Y452754D01*
X1627505Y452754D01*
X1627440Y452743D01*
X1627374Y452741D01*
X1627331Y452723D01*
X1627284Y452715D01*
X1627227Y452681D01*
X1627167Y452656D01*
X1627132Y452625D01*
X1627091Y452600D01*
X1627050Y452549D01*
X1627001Y452505D01*
X1626979Y452463D01*
X1626950Y452426D01*
X1626929Y452364D01*
X1626898Y452305D01*
X1626890Y452251D01*
X1626878Y452214D01*
X1626878Y452211D01*
X1626879Y452174D01*
X1626871Y452120D01*
X1626871Y449580D01*
X1626882Y449515D01*
X1626884Y449449D01*
X1626902Y449406D01*
X1626910Y449359D01*
X1626944Y449302D01*
X1626969Y449242D01*
X1627000Y449207D01*
X1627025Y449166D01*
X1627076Y449125D01*
X1627120Y449076D01*
X1627162Y449054D01*
X1627199Y449025D01*
X1627261Y449004D01*
X1627320Y448973D01*
X1627374Y448965D01*
X1627411Y448953D01*
X1627451Y448954D01*
X1627505Y448946D01*
X1631315Y448946D01*
X1631380Y448957D01*
G37*
G36*
X244540Y448957D02*
X244540Y448957D01*
X244606Y448959D01*
X244649Y448977D01*
X244696Y448985D01*
X244753Y449019D01*
X244813Y449044D01*
X244848Y449075D01*
X244889Y449100D01*
X244931Y449151D01*
X244979Y449195D01*
X245001Y449237D01*
X245030Y449274D01*
X245051Y449336D01*
X245082Y449395D01*
X245090Y449449D01*
X245102Y449486D01*
X245101Y449526D01*
X245109Y449580D01*
X245109Y452120D01*
X245098Y452185D01*
X245096Y452251D01*
X245078Y452294D01*
X245070Y452341D01*
X245036Y452398D01*
X245011Y452458D01*
X244980Y452493D01*
X244955Y452534D01*
X244904Y452576D01*
X244860Y452624D01*
X244818Y452646D01*
X244781Y452675D01*
X244719Y452696D01*
X244660Y452727D01*
X244606Y452735D01*
X244569Y452747D01*
X244529Y452746D01*
X244475Y452754D01*
X240665Y452754D01*
X240600Y452743D01*
X240534Y452741D01*
X240491Y452723D01*
X240444Y452715D01*
X240387Y452681D01*
X240327Y452656D01*
X240292Y452625D01*
X240251Y452600D01*
X240210Y452549D01*
X240161Y452505D01*
X240139Y452463D01*
X240110Y452426D01*
X240089Y452364D01*
X240058Y452305D01*
X240050Y452251D01*
X240038Y452214D01*
X240038Y452211D01*
X240039Y452174D01*
X240031Y452120D01*
X240031Y449580D01*
X240042Y449515D01*
X240044Y449449D01*
X240062Y449406D01*
X240070Y449359D01*
X240104Y449302D01*
X240129Y449242D01*
X240160Y449207D01*
X240185Y449166D01*
X240236Y449125D01*
X240280Y449076D01*
X240322Y449054D01*
X240359Y449025D01*
X240421Y449004D01*
X240480Y448973D01*
X240534Y448965D01*
X240571Y448953D01*
X240611Y448954D01*
X240665Y448946D01*
X244475Y448946D01*
X244540Y448957D01*
G37*
G36*
X1169100Y448957D02*
X1169100Y448957D01*
X1169166Y448959D01*
X1169209Y448977D01*
X1169256Y448985D01*
X1169313Y449019D01*
X1169373Y449044D01*
X1169408Y449075D01*
X1169449Y449100D01*
X1169491Y449151D01*
X1169539Y449195D01*
X1169561Y449237D01*
X1169590Y449274D01*
X1169611Y449336D01*
X1169642Y449395D01*
X1169650Y449449D01*
X1169662Y449486D01*
X1169661Y449526D01*
X1169669Y449580D01*
X1169669Y452120D01*
X1169658Y452185D01*
X1169656Y452251D01*
X1169638Y452294D01*
X1169630Y452341D01*
X1169596Y452398D01*
X1169571Y452458D01*
X1169540Y452493D01*
X1169515Y452534D01*
X1169464Y452576D01*
X1169420Y452624D01*
X1169378Y452646D01*
X1169341Y452675D01*
X1169279Y452696D01*
X1169220Y452727D01*
X1169166Y452735D01*
X1169129Y452747D01*
X1169089Y452746D01*
X1169035Y452754D01*
X1165225Y452754D01*
X1165160Y452743D01*
X1165094Y452741D01*
X1165051Y452723D01*
X1165004Y452715D01*
X1164947Y452681D01*
X1164887Y452656D01*
X1164852Y452625D01*
X1164811Y452600D01*
X1164770Y452549D01*
X1164721Y452505D01*
X1164699Y452463D01*
X1164670Y452426D01*
X1164649Y452364D01*
X1164618Y452305D01*
X1164610Y452251D01*
X1164598Y452214D01*
X1164598Y452211D01*
X1164599Y452174D01*
X1164591Y452120D01*
X1164591Y449580D01*
X1164602Y449515D01*
X1164604Y449449D01*
X1164622Y449406D01*
X1164630Y449359D01*
X1164664Y449302D01*
X1164689Y449242D01*
X1164720Y449207D01*
X1164745Y449166D01*
X1164796Y449125D01*
X1164840Y449076D01*
X1164882Y449054D01*
X1164919Y449025D01*
X1164981Y449004D01*
X1165040Y448973D01*
X1165094Y448965D01*
X1165131Y448953D01*
X1165171Y448954D01*
X1165225Y448946D01*
X1169035Y448946D01*
X1169100Y448957D01*
G37*
G36*
X706820Y4457D02*
X706820Y4457D01*
X706886Y4459D01*
X706929Y4477D01*
X706976Y4485D01*
X707033Y4519D01*
X707093Y4544D01*
X707128Y4575D01*
X707169Y4600D01*
X707211Y4651D01*
X707259Y4695D01*
X707281Y4737D01*
X707310Y4774D01*
X707331Y4836D01*
X707362Y4895D01*
X707370Y4949D01*
X707382Y4986D01*
X707381Y5026D01*
X707389Y5080D01*
X707389Y7620D01*
X707378Y7685D01*
X707376Y7751D01*
X707358Y7794D01*
X707350Y7841D01*
X707316Y7898D01*
X707291Y7958D01*
X707260Y7993D01*
X707235Y8034D01*
X707184Y8076D01*
X707140Y8124D01*
X707098Y8146D01*
X707061Y8175D01*
X706999Y8196D01*
X706940Y8227D01*
X706886Y8235D01*
X706849Y8247D01*
X706809Y8246D01*
X706755Y8254D01*
X702945Y8254D01*
X702880Y8243D01*
X702814Y8241D01*
X702771Y8223D01*
X702724Y8215D01*
X702667Y8181D01*
X702607Y8156D01*
X702572Y8125D01*
X702531Y8100D01*
X702490Y8049D01*
X702441Y8005D01*
X702419Y7963D01*
X702390Y7926D01*
X702369Y7864D01*
X702338Y7805D01*
X702330Y7751D01*
X702318Y7714D01*
X702318Y7711D01*
X702319Y7674D01*
X702311Y7620D01*
X702311Y5080D01*
X702322Y5015D01*
X702324Y4949D01*
X702342Y4906D01*
X702350Y4859D01*
X702384Y4802D01*
X702409Y4742D01*
X702440Y4707D01*
X702465Y4666D01*
X702516Y4625D01*
X702560Y4576D01*
X702602Y4554D01*
X702639Y4525D01*
X702701Y4504D01*
X702760Y4473D01*
X702814Y4465D01*
X702851Y4453D01*
X702891Y4454D01*
X702945Y4446D01*
X706755Y4446D01*
X706820Y4457D01*
G37*
G36*
X1169100Y4457D02*
X1169100Y4457D01*
X1169166Y4459D01*
X1169209Y4477D01*
X1169256Y4485D01*
X1169313Y4519D01*
X1169373Y4544D01*
X1169408Y4575D01*
X1169449Y4600D01*
X1169491Y4651D01*
X1169539Y4695D01*
X1169561Y4737D01*
X1169590Y4774D01*
X1169611Y4836D01*
X1169642Y4895D01*
X1169650Y4949D01*
X1169662Y4986D01*
X1169661Y5026D01*
X1169669Y5080D01*
X1169669Y7620D01*
X1169658Y7685D01*
X1169656Y7751D01*
X1169638Y7794D01*
X1169630Y7841D01*
X1169596Y7898D01*
X1169571Y7958D01*
X1169540Y7993D01*
X1169515Y8034D01*
X1169464Y8076D01*
X1169420Y8124D01*
X1169378Y8146D01*
X1169341Y8175D01*
X1169279Y8196D01*
X1169220Y8227D01*
X1169166Y8235D01*
X1169129Y8247D01*
X1169089Y8246D01*
X1169035Y8254D01*
X1165225Y8254D01*
X1165160Y8243D01*
X1165094Y8241D01*
X1165051Y8223D01*
X1165004Y8215D01*
X1164947Y8181D01*
X1164887Y8156D01*
X1164852Y8125D01*
X1164811Y8100D01*
X1164770Y8049D01*
X1164721Y8005D01*
X1164699Y7963D01*
X1164670Y7926D01*
X1164649Y7864D01*
X1164618Y7805D01*
X1164610Y7751D01*
X1164598Y7714D01*
X1164598Y7711D01*
X1164599Y7674D01*
X1164591Y7620D01*
X1164591Y5080D01*
X1164602Y5015D01*
X1164604Y4949D01*
X1164622Y4906D01*
X1164630Y4859D01*
X1164664Y4802D01*
X1164689Y4742D01*
X1164720Y4707D01*
X1164745Y4666D01*
X1164796Y4625D01*
X1164840Y4576D01*
X1164882Y4554D01*
X1164919Y4525D01*
X1164981Y4504D01*
X1165040Y4473D01*
X1165094Y4465D01*
X1165131Y4453D01*
X1165171Y4454D01*
X1165225Y4446D01*
X1169035Y4446D01*
X1169100Y4457D01*
G37*
G36*
X1179260Y4457D02*
X1179260Y4457D01*
X1179326Y4459D01*
X1179369Y4477D01*
X1179416Y4485D01*
X1179473Y4519D01*
X1179533Y4544D01*
X1179568Y4575D01*
X1179609Y4600D01*
X1179651Y4651D01*
X1179699Y4695D01*
X1179721Y4737D01*
X1179750Y4774D01*
X1179771Y4836D01*
X1179802Y4895D01*
X1179810Y4949D01*
X1179822Y4986D01*
X1179821Y5026D01*
X1179829Y5080D01*
X1179829Y7620D01*
X1179818Y7685D01*
X1179816Y7751D01*
X1179798Y7794D01*
X1179790Y7841D01*
X1179756Y7898D01*
X1179731Y7958D01*
X1179700Y7993D01*
X1179675Y8034D01*
X1179624Y8076D01*
X1179580Y8124D01*
X1179538Y8146D01*
X1179501Y8175D01*
X1179439Y8196D01*
X1179380Y8227D01*
X1179326Y8235D01*
X1179289Y8247D01*
X1179249Y8246D01*
X1179195Y8254D01*
X1175385Y8254D01*
X1175320Y8243D01*
X1175254Y8241D01*
X1175211Y8223D01*
X1175164Y8215D01*
X1175107Y8181D01*
X1175047Y8156D01*
X1175012Y8125D01*
X1174971Y8100D01*
X1174930Y8049D01*
X1174881Y8005D01*
X1174859Y7963D01*
X1174830Y7926D01*
X1174809Y7864D01*
X1174778Y7805D01*
X1174770Y7751D01*
X1174758Y7714D01*
X1174758Y7711D01*
X1174759Y7674D01*
X1174751Y7620D01*
X1174751Y5080D01*
X1174762Y5015D01*
X1174764Y4949D01*
X1174782Y4906D01*
X1174790Y4859D01*
X1174824Y4802D01*
X1174849Y4742D01*
X1174880Y4707D01*
X1174905Y4666D01*
X1174956Y4625D01*
X1175000Y4576D01*
X1175042Y4554D01*
X1175079Y4525D01*
X1175141Y4504D01*
X1175200Y4473D01*
X1175254Y4465D01*
X1175291Y4453D01*
X1175331Y4454D01*
X1175385Y4446D01*
X1179195Y4446D01*
X1179260Y4457D01*
G37*
G36*
X1631380Y4457D02*
X1631380Y4457D01*
X1631446Y4459D01*
X1631489Y4477D01*
X1631536Y4485D01*
X1631593Y4519D01*
X1631653Y4544D01*
X1631688Y4575D01*
X1631729Y4600D01*
X1631771Y4651D01*
X1631819Y4695D01*
X1631841Y4737D01*
X1631870Y4774D01*
X1631891Y4836D01*
X1631922Y4895D01*
X1631930Y4949D01*
X1631942Y4986D01*
X1631941Y5026D01*
X1631949Y5080D01*
X1631949Y7620D01*
X1631938Y7685D01*
X1631936Y7751D01*
X1631918Y7794D01*
X1631910Y7841D01*
X1631876Y7898D01*
X1631851Y7958D01*
X1631820Y7993D01*
X1631795Y8034D01*
X1631744Y8076D01*
X1631700Y8124D01*
X1631658Y8146D01*
X1631621Y8175D01*
X1631559Y8196D01*
X1631500Y8227D01*
X1631446Y8235D01*
X1631409Y8247D01*
X1631369Y8246D01*
X1631315Y8254D01*
X1627505Y8254D01*
X1627440Y8243D01*
X1627374Y8241D01*
X1627331Y8223D01*
X1627284Y8215D01*
X1627227Y8181D01*
X1627167Y8156D01*
X1627132Y8125D01*
X1627091Y8100D01*
X1627050Y8049D01*
X1627001Y8005D01*
X1626979Y7963D01*
X1626950Y7926D01*
X1626929Y7864D01*
X1626898Y7805D01*
X1626890Y7751D01*
X1626878Y7714D01*
X1626878Y7711D01*
X1626879Y7674D01*
X1626871Y7620D01*
X1626871Y5080D01*
X1626882Y5015D01*
X1626884Y4949D01*
X1626902Y4906D01*
X1626910Y4859D01*
X1626944Y4802D01*
X1626969Y4742D01*
X1627000Y4707D01*
X1627025Y4666D01*
X1627076Y4625D01*
X1627120Y4576D01*
X1627162Y4554D01*
X1627199Y4525D01*
X1627261Y4504D01*
X1627320Y4473D01*
X1627374Y4465D01*
X1627411Y4453D01*
X1627451Y4454D01*
X1627505Y4446D01*
X1631315Y4446D01*
X1631380Y4457D01*
G37*
G36*
X1641540Y4457D02*
X1641540Y4457D01*
X1641606Y4459D01*
X1641649Y4477D01*
X1641696Y4485D01*
X1641753Y4519D01*
X1641813Y4544D01*
X1641848Y4575D01*
X1641889Y4600D01*
X1641931Y4651D01*
X1641979Y4695D01*
X1642001Y4737D01*
X1642030Y4774D01*
X1642051Y4836D01*
X1642082Y4895D01*
X1642090Y4949D01*
X1642102Y4986D01*
X1642101Y5026D01*
X1642109Y5080D01*
X1642109Y7620D01*
X1642098Y7685D01*
X1642096Y7751D01*
X1642078Y7794D01*
X1642070Y7841D01*
X1642036Y7898D01*
X1642011Y7958D01*
X1641980Y7993D01*
X1641955Y8034D01*
X1641904Y8076D01*
X1641860Y8124D01*
X1641818Y8146D01*
X1641781Y8175D01*
X1641719Y8196D01*
X1641660Y8227D01*
X1641606Y8235D01*
X1641569Y8247D01*
X1641529Y8246D01*
X1641475Y8254D01*
X1637665Y8254D01*
X1637600Y8243D01*
X1637534Y8241D01*
X1637491Y8223D01*
X1637444Y8215D01*
X1637387Y8181D01*
X1637327Y8156D01*
X1637292Y8125D01*
X1637251Y8100D01*
X1637210Y8049D01*
X1637161Y8005D01*
X1637139Y7963D01*
X1637110Y7926D01*
X1637089Y7864D01*
X1637058Y7805D01*
X1637050Y7751D01*
X1637038Y7714D01*
X1637038Y7711D01*
X1637039Y7674D01*
X1637031Y7620D01*
X1637031Y5080D01*
X1637042Y5015D01*
X1637044Y4949D01*
X1637062Y4906D01*
X1637070Y4859D01*
X1637104Y4802D01*
X1637129Y4742D01*
X1637160Y4707D01*
X1637185Y4666D01*
X1637236Y4625D01*
X1637280Y4576D01*
X1637322Y4554D01*
X1637359Y4525D01*
X1637421Y4504D01*
X1637480Y4473D01*
X1637534Y4465D01*
X1637571Y4453D01*
X1637611Y4454D01*
X1637665Y4446D01*
X1641475Y4446D01*
X1641540Y4457D01*
G37*
G36*
X254700Y4457D02*
X254700Y4457D01*
X254766Y4459D01*
X254809Y4477D01*
X254856Y4485D01*
X254913Y4519D01*
X254973Y4544D01*
X255008Y4575D01*
X255049Y4600D01*
X255091Y4651D01*
X255139Y4695D01*
X255161Y4737D01*
X255190Y4774D01*
X255211Y4836D01*
X255242Y4895D01*
X255250Y4949D01*
X255262Y4986D01*
X255261Y5026D01*
X255269Y5080D01*
X255269Y7620D01*
X255258Y7685D01*
X255256Y7751D01*
X255238Y7794D01*
X255230Y7841D01*
X255196Y7898D01*
X255171Y7958D01*
X255140Y7993D01*
X255115Y8034D01*
X255064Y8076D01*
X255020Y8124D01*
X254978Y8146D01*
X254941Y8175D01*
X254879Y8196D01*
X254820Y8227D01*
X254766Y8235D01*
X254729Y8247D01*
X254689Y8246D01*
X254635Y8254D01*
X250825Y8254D01*
X250760Y8243D01*
X250694Y8241D01*
X250651Y8223D01*
X250604Y8215D01*
X250547Y8181D01*
X250487Y8156D01*
X250452Y8125D01*
X250411Y8100D01*
X250370Y8049D01*
X250321Y8005D01*
X250299Y7963D01*
X250270Y7926D01*
X250249Y7864D01*
X250218Y7805D01*
X250210Y7751D01*
X250198Y7714D01*
X250198Y7711D01*
X250199Y7674D01*
X250191Y7620D01*
X250191Y5080D01*
X250202Y5015D01*
X250204Y4949D01*
X250222Y4906D01*
X250230Y4859D01*
X250264Y4802D01*
X250289Y4742D01*
X250320Y4707D01*
X250345Y4666D01*
X250396Y4625D01*
X250440Y4576D01*
X250482Y4554D01*
X250519Y4525D01*
X250581Y4504D01*
X250640Y4473D01*
X250694Y4465D01*
X250731Y4453D01*
X250771Y4454D01*
X250825Y4446D01*
X254635Y4446D01*
X254700Y4457D01*
G37*
G36*
X716980Y4457D02*
X716980Y4457D01*
X717046Y4459D01*
X717089Y4477D01*
X717136Y4485D01*
X717193Y4519D01*
X717253Y4544D01*
X717288Y4575D01*
X717329Y4600D01*
X717371Y4651D01*
X717419Y4695D01*
X717441Y4737D01*
X717470Y4774D01*
X717491Y4836D01*
X717522Y4895D01*
X717530Y4949D01*
X717542Y4986D01*
X717541Y5026D01*
X717549Y5080D01*
X717549Y7620D01*
X717538Y7685D01*
X717536Y7751D01*
X717518Y7794D01*
X717510Y7841D01*
X717476Y7898D01*
X717451Y7958D01*
X717420Y7993D01*
X717395Y8034D01*
X717344Y8076D01*
X717300Y8124D01*
X717258Y8146D01*
X717221Y8175D01*
X717159Y8196D01*
X717100Y8227D01*
X717046Y8235D01*
X717009Y8247D01*
X716969Y8246D01*
X716915Y8254D01*
X713105Y8254D01*
X713040Y8243D01*
X712974Y8241D01*
X712931Y8223D01*
X712884Y8215D01*
X712827Y8181D01*
X712767Y8156D01*
X712732Y8125D01*
X712691Y8100D01*
X712650Y8049D01*
X712601Y8005D01*
X712579Y7963D01*
X712550Y7926D01*
X712529Y7864D01*
X712498Y7805D01*
X712490Y7751D01*
X712478Y7714D01*
X712478Y7711D01*
X712479Y7674D01*
X712471Y7620D01*
X712471Y5080D01*
X712482Y5015D01*
X712484Y4949D01*
X712502Y4906D01*
X712510Y4859D01*
X712544Y4802D01*
X712569Y4742D01*
X712600Y4707D01*
X712625Y4666D01*
X712676Y4625D01*
X712720Y4576D01*
X712762Y4554D01*
X712799Y4525D01*
X712861Y4504D01*
X712920Y4473D01*
X712974Y4465D01*
X713011Y4453D01*
X713051Y4454D01*
X713105Y4446D01*
X716915Y4446D01*
X716980Y4457D01*
G37*
G36*
X244540Y4457D02*
X244540Y4457D01*
X244606Y4459D01*
X244649Y4477D01*
X244696Y4485D01*
X244753Y4519D01*
X244813Y4544D01*
X244848Y4575D01*
X244889Y4600D01*
X244931Y4651D01*
X244979Y4695D01*
X245001Y4737D01*
X245030Y4774D01*
X245051Y4836D01*
X245082Y4895D01*
X245090Y4949D01*
X245102Y4986D01*
X245101Y5026D01*
X245109Y5080D01*
X245109Y7620D01*
X245098Y7685D01*
X245096Y7751D01*
X245078Y7794D01*
X245070Y7841D01*
X245036Y7898D01*
X245011Y7958D01*
X244980Y7993D01*
X244955Y8034D01*
X244904Y8076D01*
X244860Y8124D01*
X244818Y8146D01*
X244781Y8175D01*
X244719Y8196D01*
X244660Y8227D01*
X244606Y8235D01*
X244569Y8247D01*
X244529Y8246D01*
X244475Y8254D01*
X240665Y8254D01*
X240600Y8243D01*
X240534Y8241D01*
X240491Y8223D01*
X240444Y8215D01*
X240387Y8181D01*
X240327Y8156D01*
X240292Y8125D01*
X240251Y8100D01*
X240210Y8049D01*
X240161Y8005D01*
X240139Y7963D01*
X240110Y7926D01*
X240089Y7864D01*
X240058Y7805D01*
X240050Y7751D01*
X240038Y7714D01*
X240038Y7711D01*
X240039Y7674D01*
X240031Y7620D01*
X240031Y5080D01*
X240042Y5015D01*
X240044Y4949D01*
X240062Y4906D01*
X240070Y4859D01*
X240104Y4802D01*
X240129Y4742D01*
X240160Y4707D01*
X240185Y4666D01*
X240236Y4625D01*
X240280Y4576D01*
X240322Y4554D01*
X240359Y4525D01*
X240421Y4504D01*
X240480Y4473D01*
X240534Y4465D01*
X240571Y4453D01*
X240611Y4454D01*
X240665Y4446D01*
X244475Y4446D01*
X244540Y4457D01*
G37*
D10*
X99000Y-49450D03*
X155000Y-49450D03*
D11*
X112000Y-12700D03*
X122000Y-12700D03*
X132000Y-12700D03*
X142000Y-12700D03*
D12*
X225060Y33275D03*
X225060Y38275D03*
X225060Y43275D03*
X225060Y48275D03*
X225060Y28225D03*
X271310Y33275D03*
X271310Y38275D03*
X271310Y43275D03*
X271310Y48275D03*
X271310Y28225D03*
D10*
X155000Y176450D03*
X99000Y176450D03*
D11*
X142000Y139700D03*
X132000Y139700D03*
X122000Y139700D03*
X112000Y139700D03*
D13*
X224400Y64770D03*
X207400Y64770D03*
X258200Y64770D03*
X275200Y64770D03*
D14*
X172720Y-36585D03*
X172720Y-53585D03*
X191770Y-36585D03*
X191770Y-53585D03*
D15*
X323850Y82550D03*
X336550Y107950D03*
X349250Y82550D03*
X374650Y82550D03*
X400050Y82550D03*
X361950Y107950D03*
X387350Y107950D03*
D16*
X412750Y107950D03*
D17*
X425450Y171450D03*
X311150Y171450D03*
D14*
X221615Y16120D03*
X221615Y-880D03*
X275590Y13580D03*
X275590Y-3420D03*
D18*
X258064Y6350D03*
X247650Y6350D03*
X237236Y6350D03*
D19*
X228600Y-38100D03*
X25400Y-38100D03*
X25400Y165100D03*
D20*
X12700Y-12700D03*
X406400Y190500D03*
D15*
X412750Y43180D03*
X400050Y17780D03*
X387350Y43180D03*
X361950Y43180D03*
X336550Y43180D03*
X374650Y17780D03*
X349250Y17780D03*
D16*
X323850Y17780D03*
D17*
X311150Y-45720D03*
X425450Y-45720D03*
D13*
X80890Y-35560D03*
X63890Y-35560D03*
D21*
X77670Y-47310D02*
X77670Y-54290D01*
X77670Y-47310D02*
X84650Y-47310D01*
X84650Y-54290D01*
X77670Y-54290D01*
X77670Y-49490D02*
X84650Y-49490D01*
X60130Y-47310D02*
X60130Y-54290D01*
X60130Y-47310D02*
X67110Y-47310D01*
X67110Y-54290D01*
X60130Y-54290D01*
X60130Y-49490D02*
X67110Y-49490D01*
D22*
X72390Y-10033D03*
X72390Y-20447D03*
D15*
X12700Y114300D03*
X12700Y88900D03*
X12700Y63500D03*
X12700Y38100D03*
X241300Y177800D03*
X215900Y177800D03*
X12700Y12700D03*
D23*
X127000Y74655D03*
X127000Y119655D03*
D13*
X92955Y24765D03*
X75955Y24765D03*
D24*
X118000Y54430D03*
X136000Y54430D03*
X136000Y47930D03*
X118000Y47930D03*
X118000Y41430D03*
X118000Y36430D03*
X136000Y41430D03*
X136000Y36430D03*
D25*
X132000Y29180D03*
X127000Y29180D03*
X122000Y29180D03*
D26*
X127000Y51060D03*
D27*
X167640Y122960D03*
X167640Y87860D03*
X86360Y122960D03*
X86360Y87860D03*
D14*
X177800Y143900D03*
X177800Y160900D03*
X154940Y15485D03*
X154940Y-1515D03*
X173355Y-1515D03*
X173355Y15485D03*
X190500Y15485D03*
X190500Y-1515D03*
D13*
X114545Y6985D03*
X97545Y6985D03*
D28*
X177800Y41800D03*
X177800Y59800D03*
X76200Y41800D03*
X76200Y59800D03*
D14*
X158750Y42300D03*
X158750Y59300D03*
X95250Y42300D03*
X95250Y59300D03*
D29*
X266700Y-38100D03*
D30*
X210780Y114300D03*
X271780Y114300D03*
D10*
X561280Y-49450D03*
X617280Y-49450D03*
D11*
X574280Y-12700D03*
X584280Y-12700D03*
X594280Y-12700D03*
X604280Y-12700D03*
D12*
X687340Y33275D03*
X687340Y38275D03*
X687340Y43275D03*
X687340Y48275D03*
X687340Y28225D03*
X733590Y33275D03*
X733590Y38275D03*
X733590Y43275D03*
X733590Y48275D03*
X733590Y28225D03*
D10*
X617280Y176450D03*
X561280Y176450D03*
D11*
X604280Y139700D03*
X594280Y139700D03*
X584280Y139700D03*
X574280Y139700D03*
D13*
X686680Y64770D03*
X669680Y64770D03*
X720480Y64770D03*
X737480Y64770D03*
D14*
X635000Y-36585D03*
X635000Y-53585D03*
X654050Y-36585D03*
X654050Y-53585D03*
D15*
X786130Y82550D03*
X798830Y107950D03*
X811530Y82550D03*
X836930Y82550D03*
X862330Y82550D03*
X824230Y107950D03*
X849630Y107950D03*
D16*
X875030Y107950D03*
D17*
X887730Y171450D03*
X773430Y171450D03*
D14*
X683895Y16120D03*
X683895Y-880D03*
X737870Y13580D03*
X737870Y-3420D03*
D18*
X720344Y6350D03*
X709930Y6350D03*
X699516Y6350D03*
D19*
X690880Y-38100D03*
X487680Y-38100D03*
X487680Y165100D03*
D20*
X474980Y-12700D03*
X868680Y190500D03*
D15*
X875030Y43180D03*
X862330Y17780D03*
X849630Y43180D03*
X824230Y43180D03*
X798830Y43180D03*
X836930Y17780D03*
X811530Y17780D03*
D16*
X786130Y17780D03*
D17*
X773430Y-45720D03*
X887730Y-45720D03*
D13*
X543170Y-35560D03*
X526170Y-35560D03*
D21*
X539950Y-47310D02*
X539950Y-54290D01*
X539950Y-47310D02*
X546930Y-47310D01*
X546930Y-54290D01*
X539950Y-54290D01*
X539950Y-49490D02*
X546930Y-49490D01*
X522410Y-47310D02*
X522410Y-54290D01*
X522410Y-47310D02*
X529390Y-47310D01*
X529390Y-54290D01*
X522410Y-54290D01*
X522410Y-49490D02*
X529390Y-49490D01*
D22*
X534670Y-10033D03*
X534670Y-20447D03*
D15*
X474980Y114300D03*
X474980Y88900D03*
X474980Y63500D03*
X474980Y38100D03*
X703580Y177800D03*
X678180Y177800D03*
X474980Y12700D03*
D23*
X589280Y74655D03*
X589280Y119655D03*
D13*
X555235Y24765D03*
X538235Y24765D03*
D24*
X580280Y54430D03*
X598280Y54430D03*
X598280Y47930D03*
X580280Y47930D03*
X580280Y41430D03*
X580280Y36430D03*
X598280Y41430D03*
X598280Y36430D03*
D25*
X594280Y29180D03*
X589280Y29180D03*
X584280Y29180D03*
D26*
X589280Y51060D03*
D27*
X629920Y122960D03*
X629920Y87860D03*
X548640Y122960D03*
X548640Y87860D03*
D14*
X640080Y143900D03*
X640080Y160900D03*
X617220Y15485D03*
X617220Y-1515D03*
X635635Y-1515D03*
X635635Y15485D03*
X652780Y15485D03*
X652780Y-1515D03*
D13*
X576825Y6985D03*
X559825Y6985D03*
D28*
X640080Y41800D03*
X640080Y59800D03*
X538480Y41800D03*
X538480Y59800D03*
D14*
X621030Y42300D03*
X621030Y59300D03*
X557530Y42300D03*
X557530Y59300D03*
D29*
X728980Y-38100D03*
D30*
X673060Y114300D03*
X734060Y114300D03*
D10*
X1023560Y-49450D03*
X1079560Y-49450D03*
D11*
X1036560Y-12700D03*
X1046560Y-12700D03*
X1056560Y-12700D03*
X1066560Y-12700D03*
D12*
X1149620Y33275D03*
X1149620Y38275D03*
X1149620Y43275D03*
X1149620Y48275D03*
X1149620Y28225D03*
X1195870Y33275D03*
X1195870Y38275D03*
X1195870Y43275D03*
X1195870Y48275D03*
X1195870Y28225D03*
D10*
X1079560Y176450D03*
X1023560Y176450D03*
D11*
X1066560Y139700D03*
X1056560Y139700D03*
X1046560Y139700D03*
X1036560Y139700D03*
D13*
X1148960Y64770D03*
X1131960Y64770D03*
X1182760Y64770D03*
X1199760Y64770D03*
D14*
X1097280Y-36585D03*
X1097280Y-53585D03*
X1116330Y-36585D03*
X1116330Y-53585D03*
D15*
X1248410Y82550D03*
X1261110Y107950D03*
X1273810Y82550D03*
X1299210Y82550D03*
X1324610Y82550D03*
X1286510Y107950D03*
X1311910Y107950D03*
D16*
X1337310Y107950D03*
D17*
X1350010Y171450D03*
X1235710Y171450D03*
D14*
X1146175Y16120D03*
X1146175Y-880D03*
X1200150Y13580D03*
X1200150Y-3420D03*
D18*
X1182624Y6350D03*
X1172210Y6350D03*
X1161796Y6350D03*
D19*
X1153160Y-38100D03*
X949960Y-38100D03*
X949960Y165100D03*
D20*
X937260Y-12700D03*
X1330960Y190500D03*
D15*
X1337310Y43180D03*
X1324610Y17780D03*
X1311910Y43180D03*
X1286510Y43180D03*
X1261110Y43180D03*
X1299210Y17780D03*
X1273810Y17780D03*
D16*
X1248410Y17780D03*
D17*
X1235710Y-45720D03*
X1350010Y-45720D03*
D13*
X1005450Y-35560D03*
X988450Y-35560D03*
D21*
X1002230Y-47310D02*
X1002230Y-54290D01*
X1002230Y-47310D02*
X1009210Y-47310D01*
X1009210Y-54290D01*
X1002230Y-54290D01*
X1002230Y-49490D02*
X1009210Y-49490D01*
X984690Y-47310D02*
X984690Y-54290D01*
X984690Y-47310D02*
X991670Y-47310D01*
X991670Y-54290D01*
X984690Y-54290D01*
X984690Y-49490D02*
X991670Y-49490D01*
D22*
X996950Y-10033D03*
X996950Y-20447D03*
D15*
X937260Y114300D03*
X937260Y88900D03*
X937260Y63500D03*
X937260Y38100D03*
X1165860Y177800D03*
X1140460Y177800D03*
X937260Y12700D03*
D23*
X1051560Y74655D03*
X1051560Y119655D03*
D13*
X1017515Y24765D03*
X1000515Y24765D03*
D24*
X1042560Y54430D03*
X1060560Y54430D03*
X1060560Y47930D03*
X1042560Y47930D03*
X1042560Y41430D03*
X1042560Y36430D03*
X1060560Y41430D03*
X1060560Y36430D03*
D25*
X1056560Y29180D03*
X1051560Y29180D03*
X1046560Y29180D03*
D26*
X1051560Y51060D03*
D27*
X1092200Y122960D03*
X1092200Y87860D03*
X1010920Y122960D03*
X1010920Y87860D03*
D14*
X1102360Y143900D03*
X1102360Y160900D03*
X1079500Y15485D03*
X1079500Y-1515D03*
X1097915Y-1515D03*
X1097915Y15485D03*
X1115060Y15485D03*
X1115060Y-1515D03*
D13*
X1039105Y6985D03*
X1022105Y6985D03*
D28*
X1102360Y41800D03*
X1102360Y59800D03*
X1000760Y41800D03*
X1000760Y59800D03*
D14*
X1083310Y42300D03*
X1083310Y59300D03*
X1019810Y42300D03*
X1019810Y59300D03*
D29*
X1191260Y-38100D03*
D30*
X1135340Y114300D03*
X1196340Y114300D03*
D10*
X1485840Y-49450D03*
X1541840Y-49450D03*
D11*
X1498840Y-12700D03*
X1508840Y-12700D03*
X1518840Y-12700D03*
X1528840Y-12700D03*
D12*
X1611900Y33275D03*
X1611900Y38275D03*
X1611900Y43275D03*
X1611900Y48275D03*
X1611900Y28225D03*
X1658150Y33275D03*
X1658150Y38275D03*
X1658150Y43275D03*
X1658150Y48275D03*
X1658150Y28225D03*
D10*
X1541840Y176450D03*
X1485840Y176450D03*
D11*
X1528840Y139700D03*
X1518840Y139700D03*
X1508840Y139700D03*
X1498840Y139700D03*
D13*
X1611240Y64770D03*
X1594240Y64770D03*
X1645040Y64770D03*
X1662040Y64770D03*
D14*
X1559560Y-36585D03*
X1559560Y-53585D03*
X1578610Y-36585D03*
X1578610Y-53585D03*
D15*
X1710690Y82550D03*
X1723390Y107950D03*
X1736090Y82550D03*
X1761490Y82550D03*
X1786890Y82550D03*
X1748790Y107950D03*
X1774190Y107950D03*
D16*
X1799590Y107950D03*
D17*
X1812290Y171450D03*
X1697990Y171450D03*
D14*
X1608455Y16120D03*
X1608455Y-880D03*
X1662430Y13580D03*
X1662430Y-3420D03*
D18*
X1644904Y6350D03*
X1634490Y6350D03*
X1624076Y6350D03*
D19*
X1615440Y-38100D03*
X1412240Y-38100D03*
X1412240Y165100D03*
D20*
X1399540Y-12700D03*
X1793240Y190500D03*
D15*
X1799590Y43180D03*
X1786890Y17780D03*
X1774190Y43180D03*
X1748790Y43180D03*
X1723390Y43180D03*
X1761490Y17780D03*
X1736090Y17780D03*
D16*
X1710690Y17780D03*
D17*
X1697990Y-45720D03*
X1812290Y-45720D03*
D13*
X1467730Y-35560D03*
X1450730Y-35560D03*
D21*
X1464510Y-47310D02*
X1464510Y-54290D01*
X1464510Y-47310D02*
X1471490Y-47310D01*
X1471490Y-54290D01*
X1464510Y-54290D01*
X1464510Y-49490D02*
X1471490Y-49490D01*
X1446970Y-47310D02*
X1446970Y-54290D01*
X1446970Y-47310D02*
X1453950Y-47310D01*
X1453950Y-54290D01*
X1446970Y-54290D01*
X1446970Y-49490D02*
X1453950Y-49490D01*
D22*
X1459230Y-10033D03*
X1459230Y-20447D03*
D15*
X1399540Y114300D03*
X1399540Y88900D03*
X1399540Y63500D03*
X1399540Y38100D03*
X1628140Y177800D03*
X1602740Y177800D03*
X1399540Y12700D03*
D23*
X1513840Y74655D03*
X1513840Y119655D03*
D13*
X1479795Y24765D03*
X1462795Y24765D03*
D24*
X1504840Y54430D03*
X1522840Y54430D03*
X1522840Y47930D03*
X1504840Y47930D03*
X1504840Y41430D03*
X1504840Y36430D03*
X1522840Y41430D03*
X1522840Y36430D03*
D25*
X1518840Y29180D03*
X1513840Y29180D03*
X1508840Y29180D03*
D26*
X1513840Y51060D03*
D27*
X1554480Y122960D03*
X1554480Y87860D03*
X1473200Y122960D03*
X1473200Y87860D03*
D14*
X1564640Y143900D03*
X1564640Y160900D03*
X1541780Y15485D03*
X1541780Y-1515D03*
X1560195Y-1515D03*
X1560195Y15485D03*
X1577340Y15485D03*
X1577340Y-1515D03*
D13*
X1501385Y6985D03*
X1484385Y6985D03*
D28*
X1564640Y41800D03*
X1564640Y59800D03*
X1463040Y41800D03*
X1463040Y59800D03*
D14*
X1545590Y42300D03*
X1545590Y59300D03*
X1482090Y42300D03*
X1482090Y59300D03*
D29*
X1653540Y-38100D03*
D30*
X1597620Y114300D03*
X1658620Y114300D03*
D10*
X99000Y395050D03*
X155000Y395050D03*
D11*
X112000Y431800D03*
X122000Y431800D03*
X132000Y431800D03*
X142000Y431800D03*
D12*
X225060Y477775D03*
X225060Y482775D03*
X225060Y487775D03*
X225060Y492775D03*
X225060Y472725D03*
X271310Y477775D03*
X271310Y482775D03*
X271310Y487775D03*
X271310Y492775D03*
X271310Y472725D03*
D10*
X155000Y620950D03*
X99000Y620950D03*
D11*
X142000Y584200D03*
X132000Y584200D03*
X122000Y584200D03*
X112000Y584200D03*
D13*
X224400Y509270D03*
X207400Y509270D03*
X258200Y509270D03*
X275200Y509270D03*
D14*
X172720Y407915D03*
X172720Y390915D03*
X191770Y407915D03*
X191770Y390915D03*
D15*
X323850Y527050D03*
X336550Y552450D03*
X349250Y527050D03*
X374650Y527050D03*
X400050Y527050D03*
X361950Y552450D03*
X387350Y552450D03*
D16*
X412750Y552450D03*
D17*
X425450Y615950D03*
X311150Y615950D03*
D14*
X221615Y460620D03*
X221615Y443620D03*
X275590Y458080D03*
X275590Y441080D03*
D18*
X258064Y450850D03*
X247650Y450850D03*
X237236Y450850D03*
D19*
X228600Y406400D03*
X25400Y406400D03*
X25400Y609600D03*
D20*
X12700Y431800D03*
X406400Y635000D03*
D15*
X412750Y487680D03*
X400050Y462280D03*
X387350Y487680D03*
X361950Y487680D03*
X336550Y487680D03*
X374650Y462280D03*
X349250Y462280D03*
D16*
X323850Y462280D03*
D17*
X311150Y398780D03*
X425450Y398780D03*
D13*
X80890Y408940D03*
X63890Y408940D03*
D21*
X77670Y397190D02*
X77670Y390210D01*
X77670Y397190D02*
X84650Y397190D01*
X84650Y390210D01*
X77670Y390210D01*
X77670Y395010D02*
X84650Y395010D01*
X60130Y397190D02*
X60130Y390210D01*
X60130Y397190D02*
X67110Y397190D01*
X67110Y390210D01*
X60130Y390210D01*
X60130Y395010D02*
X67110Y395010D01*
D22*
X72390Y434467D03*
X72390Y424053D03*
D15*
X12700Y558800D03*
X12700Y533400D03*
X12700Y508000D03*
X12700Y482600D03*
X241300Y622300D03*
X215900Y622300D03*
X12700Y457200D03*
D23*
X127000Y519155D03*
X127000Y564155D03*
D13*
X92955Y469265D03*
X75955Y469265D03*
D24*
X118000Y498930D03*
X136000Y498930D03*
X136000Y492430D03*
X118000Y492430D03*
X118000Y485930D03*
X118000Y480930D03*
X136000Y485930D03*
X136000Y480930D03*
D25*
X132000Y473680D03*
X127000Y473680D03*
X122000Y473680D03*
D26*
X127000Y495560D03*
D27*
X167640Y567460D03*
X167640Y532360D03*
X86360Y567460D03*
X86360Y532360D03*
D14*
X177800Y588400D03*
X177800Y605400D03*
X154940Y459985D03*
X154940Y442985D03*
X173355Y442985D03*
X173355Y459985D03*
X190500Y459985D03*
X190500Y442985D03*
D13*
X114545Y451485D03*
X97545Y451485D03*
D28*
X177800Y486300D03*
X177800Y504300D03*
X76200Y486300D03*
X76200Y504300D03*
D14*
X158750Y486800D03*
X158750Y503800D03*
X95250Y486800D03*
X95250Y503800D03*
D29*
X266700Y406400D03*
D30*
X210780Y558800D03*
X271780Y558800D03*
D10*
X561280Y395050D03*
X617280Y395050D03*
D11*
X574280Y431800D03*
X584280Y431800D03*
X594280Y431800D03*
X604280Y431800D03*
D12*
X687340Y477775D03*
X687340Y482775D03*
X687340Y487775D03*
X687340Y492775D03*
X687340Y472725D03*
X733590Y477775D03*
X733590Y482775D03*
X733590Y487775D03*
X733590Y492775D03*
X733590Y472725D03*
D10*
X617280Y620950D03*
X561280Y620950D03*
D11*
X604280Y584200D03*
X594280Y584200D03*
X584280Y584200D03*
X574280Y584200D03*
D13*
X686680Y509270D03*
X669680Y509270D03*
X720480Y509270D03*
X737480Y509270D03*
D14*
X635000Y407915D03*
X635000Y390915D03*
X654050Y407915D03*
X654050Y390915D03*
D15*
X786130Y527050D03*
X798830Y552450D03*
X811530Y527050D03*
X836930Y527050D03*
X862330Y527050D03*
X824230Y552450D03*
X849630Y552450D03*
D16*
X875030Y552450D03*
D17*
X887730Y615950D03*
X773430Y615950D03*
D14*
X683895Y460620D03*
X683895Y443620D03*
X737870Y458080D03*
X737870Y441080D03*
D18*
X720344Y450850D03*
X709930Y450850D03*
X699516Y450850D03*
D19*
X690880Y406400D03*
X487680Y406400D03*
X487680Y609600D03*
D20*
X474980Y431800D03*
X868680Y635000D03*
D15*
X875030Y487680D03*
X862330Y462280D03*
X849630Y487680D03*
X824230Y487680D03*
X798830Y487680D03*
X836930Y462280D03*
X811530Y462280D03*
D16*
X786130Y462280D03*
D17*
X773430Y398780D03*
X887730Y398780D03*
D13*
X543170Y408940D03*
X526170Y408940D03*
D21*
X539950Y397190D02*
X539950Y390210D01*
X539950Y397190D02*
X546930Y397190D01*
X546930Y390210D01*
X539950Y390210D01*
X539950Y395010D02*
X546930Y395010D01*
X522410Y397190D02*
X522410Y390210D01*
X522410Y397190D02*
X529390Y397190D01*
X529390Y390210D01*
X522410Y390210D01*
X522410Y395010D02*
X529390Y395010D01*
D22*
X534670Y434467D03*
X534670Y424053D03*
D15*
X474980Y558800D03*
X474980Y533400D03*
X474980Y508000D03*
X474980Y482600D03*
X703580Y622300D03*
X678180Y622300D03*
X474980Y457200D03*
D23*
X589280Y519155D03*
X589280Y564155D03*
D13*
X555235Y469265D03*
X538235Y469265D03*
D24*
X580280Y498930D03*
X598280Y498930D03*
X598280Y492430D03*
X580280Y492430D03*
X580280Y485930D03*
X580280Y480930D03*
X598280Y485930D03*
X598280Y480930D03*
D25*
X594280Y473680D03*
X589280Y473680D03*
X584280Y473680D03*
D26*
X589280Y495560D03*
D27*
X629920Y567460D03*
X629920Y532360D03*
X548640Y567460D03*
X548640Y532360D03*
D14*
X640080Y588400D03*
X640080Y605400D03*
X617220Y459985D03*
X617220Y442985D03*
X635635Y442985D03*
X635635Y459985D03*
X652780Y459985D03*
X652780Y442985D03*
D13*
X576825Y451485D03*
X559825Y451485D03*
D28*
X640080Y486300D03*
X640080Y504300D03*
X538480Y486300D03*
X538480Y504300D03*
D14*
X621030Y486800D03*
X621030Y503800D03*
X557530Y486800D03*
X557530Y503800D03*
D29*
X728980Y406400D03*
D30*
X673060Y558800D03*
X734060Y558800D03*
D10*
X1023560Y395050D03*
X1079560Y395050D03*
D11*
X1036560Y431800D03*
X1046560Y431800D03*
X1056560Y431800D03*
X1066560Y431800D03*
D12*
X1149620Y477775D03*
X1149620Y482775D03*
X1149620Y487775D03*
X1149620Y492775D03*
X1149620Y472725D03*
X1195870Y477775D03*
X1195870Y482775D03*
X1195870Y487775D03*
X1195870Y492775D03*
X1195870Y472725D03*
D10*
X1079560Y620950D03*
X1023560Y620950D03*
D11*
X1066560Y584200D03*
X1056560Y584200D03*
X1046560Y584200D03*
X1036560Y584200D03*
D13*
X1148960Y509270D03*
X1131960Y509270D03*
X1182760Y509270D03*
X1199760Y509270D03*
D14*
X1097280Y407915D03*
X1097280Y390915D03*
X1116330Y407915D03*
X1116330Y390915D03*
D15*
X1248410Y527050D03*
X1261110Y552450D03*
X1273810Y527050D03*
X1299210Y527050D03*
X1324610Y527050D03*
X1286510Y552450D03*
X1311910Y552450D03*
D16*
X1337310Y552450D03*
D17*
X1350010Y615950D03*
X1235710Y615950D03*
D14*
X1146175Y460620D03*
X1146175Y443620D03*
X1200150Y458080D03*
X1200150Y441080D03*
D18*
X1182624Y450850D03*
X1172210Y450850D03*
X1161796Y450850D03*
D19*
X1153160Y406400D03*
X949960Y406400D03*
X949960Y609600D03*
D20*
X937260Y431800D03*
X1330960Y635000D03*
D15*
X1337310Y487680D03*
X1324610Y462280D03*
X1311910Y487680D03*
X1286510Y487680D03*
X1261110Y487680D03*
X1299210Y462280D03*
X1273810Y462280D03*
D16*
X1248410Y462280D03*
D17*
X1235710Y398780D03*
X1350010Y398780D03*
D13*
X1005450Y408940D03*
X988450Y408940D03*
D21*
X1002230Y397190D02*
X1002230Y390210D01*
X1002230Y397190D02*
X1009210Y397190D01*
X1009210Y390210D01*
X1002230Y390210D01*
X1002230Y395010D02*
X1009210Y395010D01*
X984690Y397190D02*
X984690Y390210D01*
X984690Y397190D02*
X991670Y397190D01*
X991670Y390210D01*
X984690Y390210D01*
X984690Y395010D02*
X991670Y395010D01*
D22*
X996950Y434467D03*
X996950Y424053D03*
D15*
X937260Y558800D03*
X937260Y533400D03*
X937260Y508000D03*
X937260Y482600D03*
X1165860Y622300D03*
X1140460Y622300D03*
X937260Y457200D03*
D23*
X1051560Y519155D03*
X1051560Y564155D03*
D13*
X1017515Y469265D03*
X1000515Y469265D03*
D24*
X1042560Y498930D03*
X1060560Y498930D03*
X1060560Y492430D03*
X1042560Y492430D03*
X1042560Y485930D03*
X1042560Y480930D03*
X1060560Y485930D03*
X1060560Y480930D03*
D25*
X1056560Y473680D03*
X1051560Y473680D03*
X1046560Y473680D03*
D26*
X1051560Y495560D03*
D27*
X1092200Y567460D03*
X1092200Y532360D03*
X1010920Y567460D03*
X1010920Y532360D03*
D14*
X1102360Y588400D03*
X1102360Y605400D03*
X1079500Y459985D03*
X1079500Y442985D03*
X1097915Y442985D03*
X1097915Y459985D03*
X1115060Y459985D03*
X1115060Y442985D03*
D13*
X1039105Y451485D03*
X1022105Y451485D03*
D28*
X1102360Y486300D03*
X1102360Y504300D03*
X1000760Y486300D03*
X1000760Y504300D03*
D14*
X1083310Y486800D03*
X1083310Y503800D03*
X1019810Y486800D03*
X1019810Y503800D03*
D29*
X1191260Y406400D03*
D30*
X1135340Y558800D03*
X1196340Y558800D03*
D10*
X1485840Y395050D03*
X1541840Y395050D03*
D11*
X1498840Y431800D03*
X1508840Y431800D03*
X1518840Y431800D03*
X1528840Y431800D03*
D12*
X1611900Y477775D03*
X1611900Y482775D03*
X1611900Y487775D03*
X1611900Y492775D03*
X1611900Y472725D03*
X1658150Y477775D03*
X1658150Y482775D03*
X1658150Y487775D03*
X1658150Y492775D03*
X1658150Y472725D03*
D10*
X1541840Y620950D03*
X1485840Y620950D03*
D11*
X1528840Y584200D03*
X1518840Y584200D03*
X1508840Y584200D03*
X1498840Y584200D03*
D13*
X1611240Y509270D03*
X1594240Y509270D03*
X1645040Y509270D03*
X1662040Y509270D03*
D14*
X1559560Y407915D03*
X1559560Y390915D03*
X1578610Y407915D03*
X1578610Y390915D03*
D15*
X1710690Y527050D03*
X1723390Y552450D03*
X1736090Y527050D03*
X1761490Y527050D03*
X1786890Y527050D03*
X1748790Y552450D03*
X1774190Y552450D03*
D16*
X1799590Y552450D03*
D17*
X1812290Y615950D03*
X1697990Y615950D03*
D14*
X1608455Y460620D03*
X1608455Y443620D03*
X1662430Y458080D03*
X1662430Y441080D03*
D18*
X1644904Y450850D03*
X1634490Y450850D03*
X1624076Y450850D03*
D19*
X1615440Y406400D03*
X1412240Y406400D03*
X1412240Y609600D03*
D20*
X1399540Y431800D03*
X1793240Y635000D03*
D15*
X1799590Y487680D03*
X1786890Y462280D03*
X1774190Y487680D03*
X1748790Y487680D03*
X1723390Y487680D03*
X1761490Y462280D03*
X1736090Y462280D03*
D16*
X1710690Y462280D03*
D17*
X1697990Y398780D03*
X1812290Y398780D03*
D13*
X1467730Y408940D03*
X1450730Y408940D03*
D21*
X1464510Y397190D02*
X1464510Y390210D01*
X1464510Y397190D02*
X1471490Y397190D01*
X1471490Y390210D01*
X1464510Y390210D01*
X1464510Y395010D02*
X1471490Y395010D01*
X1446970Y397190D02*
X1446970Y390210D01*
X1446970Y397190D02*
X1453950Y397190D01*
X1453950Y390210D01*
X1446970Y390210D01*
X1446970Y395010D02*
X1453950Y395010D01*
D22*
X1459230Y434467D03*
X1459230Y424053D03*
D15*
X1399540Y558800D03*
X1399540Y533400D03*
X1399540Y508000D03*
X1399540Y482600D03*
X1628140Y622300D03*
X1602740Y622300D03*
X1399540Y457200D03*
D23*
X1513840Y519155D03*
X1513840Y564155D03*
D13*
X1479795Y469265D03*
X1462795Y469265D03*
D24*
X1504840Y498930D03*
X1522840Y498930D03*
X1522840Y492430D03*
X1504840Y492430D03*
X1504840Y485930D03*
X1504840Y480930D03*
X1522840Y485930D03*
X1522840Y480930D03*
D25*
X1518840Y473680D03*
X1513840Y473680D03*
X1508840Y473680D03*
D26*
X1513840Y495560D03*
D27*
X1554480Y567460D03*
X1554480Y532360D03*
X1473200Y567460D03*
X1473200Y532360D03*
D14*
X1564640Y588400D03*
X1564640Y605400D03*
X1541780Y459985D03*
X1541780Y442985D03*
X1560195Y442985D03*
X1560195Y459985D03*
X1577340Y459985D03*
X1577340Y442985D03*
D13*
X1501385Y451485D03*
X1484385Y451485D03*
D28*
X1564640Y486300D03*
X1564640Y504300D03*
X1463040Y486300D03*
X1463040Y504300D03*
D14*
X1545590Y486800D03*
X1545590Y503800D03*
X1482090Y486800D03*
X1482090Y503800D03*
D29*
X1653540Y406400D03*
D30*
X1597620Y558800D03*
X1658620Y558800D03*
D31*
X68580Y752475D03*
X1774825Y752475D03*
D32*
X59525Y-180975D02*
X59528Y-180753D01*
X59536Y-180531D01*
X59550Y-180309D01*
X59569Y-180087D01*
X59593Y-179867D01*
X59623Y-179646D01*
X59658Y-179427D01*
X59699Y-179208D01*
X59745Y-178991D01*
X59796Y-178775D01*
X59853Y-178560D01*
X59915Y-178346D01*
X59982Y-178135D01*
X60054Y-177924D01*
X60132Y-177716D01*
X60214Y-177510D01*
X60302Y-177306D01*
X60394Y-177103D01*
X60492Y-176904D01*
X60594Y-176707D01*
X60701Y-176512D01*
X60813Y-176320D01*
X60930Y-176131D01*
X61051Y-175944D01*
X61177Y-175761D01*
X61307Y-175581D01*
X61442Y-175404D01*
X61580Y-175231D01*
X61723Y-175061D01*
X61871Y-174894D01*
X62022Y-174731D01*
X62177Y-174572D01*
X62336Y-174417D01*
X62499Y-174266D01*
X62666Y-174118D01*
X62836Y-173975D01*
X63009Y-173837D01*
X63186Y-173702D01*
X63366Y-173572D01*
X63549Y-173446D01*
X63736Y-173325D01*
X63925Y-173208D01*
X64117Y-173096D01*
X64312Y-172989D01*
X64509Y-172887D01*
X64708Y-172789D01*
X64911Y-172697D01*
X65115Y-172609D01*
X65321Y-172527D01*
X65529Y-172449D01*
X65740Y-172377D01*
X65951Y-172310D01*
X66165Y-172248D01*
X66380Y-172191D01*
X66596Y-172140D01*
X66813Y-172094D01*
X67032Y-172053D01*
X67251Y-172018D01*
X67472Y-171988D01*
X67692Y-171964D01*
X67914Y-171945D01*
X68136Y-171931D01*
X68358Y-171923D01*
X68580Y-171920D01*
X68802Y-171923D01*
X69024Y-171931D01*
X69246Y-171945D01*
X69468Y-171964D01*
X69688Y-171988D01*
X69909Y-172018D01*
X70128Y-172053D01*
X70347Y-172094D01*
X70564Y-172140D01*
X70780Y-172191D01*
X70995Y-172248D01*
X71209Y-172310D01*
X71420Y-172377D01*
X71631Y-172449D01*
X71839Y-172527D01*
X72045Y-172609D01*
X72249Y-172697D01*
X72452Y-172789D01*
X72651Y-172887D01*
X72848Y-172989D01*
X73043Y-173096D01*
X73235Y-173208D01*
X73424Y-173325D01*
X73611Y-173446D01*
X73794Y-173572D01*
X73974Y-173702D01*
X74151Y-173837D01*
X74324Y-173975D01*
X74494Y-174118D01*
X74661Y-174266D01*
X74824Y-174417D01*
X74983Y-174572D01*
X75138Y-174731D01*
X75289Y-174894D01*
X75437Y-175061D01*
X75580Y-175231D01*
X75718Y-175404D01*
X75853Y-175581D01*
X75983Y-175761D01*
X76109Y-175944D01*
X76230Y-176131D01*
X76347Y-176320D01*
X76459Y-176512D01*
X76566Y-176707D01*
X76668Y-176904D01*
X76766Y-177103D01*
X76858Y-177306D01*
X76946Y-177510D01*
X77028Y-177716D01*
X77106Y-177924D01*
X77178Y-178135D01*
X77245Y-178346D01*
X77307Y-178560D01*
X77364Y-178775D01*
X77415Y-178991D01*
X77461Y-179208D01*
X77502Y-179427D01*
X77537Y-179646D01*
X77567Y-179867D01*
X77591Y-180087D01*
X77610Y-180309D01*
X77624Y-180531D01*
X77632Y-180753D01*
X77635Y-180975D01*
X77632Y-181197D01*
X77624Y-181419D01*
X77610Y-181641D01*
X77591Y-181863D01*
X77567Y-182083D01*
X77537Y-182304D01*
X77502Y-182523D01*
X77461Y-182742D01*
X77415Y-182959D01*
X77364Y-183175D01*
X77307Y-183390D01*
X77245Y-183604D01*
X77178Y-183815D01*
X77106Y-184026D01*
X77028Y-184234D01*
X76946Y-184440D01*
X76858Y-184644D01*
X76766Y-184847D01*
X76668Y-185046D01*
X76566Y-185243D01*
X76459Y-185438D01*
X76347Y-185630D01*
X76230Y-185819D01*
X76109Y-186006D01*
X75983Y-186189D01*
X75853Y-186369D01*
X75718Y-186546D01*
X75580Y-186719D01*
X75437Y-186889D01*
X75289Y-187056D01*
X75138Y-187219D01*
X74983Y-187378D01*
X74824Y-187533D01*
X74661Y-187684D01*
X74494Y-187832D01*
X74324Y-187975D01*
X74151Y-188113D01*
X73974Y-188248D01*
X73794Y-188378D01*
X73611Y-188504D01*
X73424Y-188625D01*
X73235Y-188742D01*
X73043Y-188854D01*
X72848Y-188961D01*
X72651Y-189063D01*
X72452Y-189161D01*
X72249Y-189253D01*
X72045Y-189341D01*
X71839Y-189423D01*
X71631Y-189501D01*
X71420Y-189573D01*
X71209Y-189640D01*
X70995Y-189702D01*
X70780Y-189759D01*
X70564Y-189810D01*
X70347Y-189856D01*
X70128Y-189897D01*
X69909Y-189932D01*
X69688Y-189962D01*
X69468Y-189986D01*
X69246Y-190005D01*
X69024Y-190019D01*
X68802Y-190027D01*
X68580Y-190030D01*
X68358Y-190027D01*
X68136Y-190019D01*
X67914Y-190005D01*
X67692Y-189986D01*
X67472Y-189962D01*
X67251Y-189932D01*
X67032Y-189897D01*
X66813Y-189856D01*
X66596Y-189810D01*
X66380Y-189759D01*
X66165Y-189702D01*
X65951Y-189640D01*
X65740Y-189573D01*
X65529Y-189501D01*
X65321Y-189423D01*
X65115Y-189341D01*
X64911Y-189253D01*
X64708Y-189161D01*
X64509Y-189063D01*
X64312Y-188961D01*
X64117Y-188854D01*
X63925Y-188742D01*
X63736Y-188625D01*
X63549Y-188504D01*
X63366Y-188378D01*
X63186Y-188248D01*
X63009Y-188113D01*
X62836Y-187975D01*
X62666Y-187832D01*
X62499Y-187684D01*
X62336Y-187533D01*
X62177Y-187378D01*
X62022Y-187219D01*
X61871Y-187056D01*
X61723Y-186889D01*
X61580Y-186719D01*
X61442Y-186546D01*
X61307Y-186369D01*
X61177Y-186189D01*
X61051Y-186006D01*
X60930Y-185819D01*
X60813Y-185630D01*
X60701Y-185438D01*
X60594Y-185243D01*
X60492Y-185046D01*
X60394Y-184847D01*
X60302Y-184644D01*
X60214Y-184440D01*
X60132Y-184234D01*
X60054Y-184026D01*
X59982Y-183815D01*
X59915Y-183604D01*
X59853Y-183390D01*
X59796Y-183175D01*
X59745Y-182959D01*
X59699Y-182742D01*
X59658Y-182523D01*
X59623Y-182304D01*
X59593Y-182083D01*
X59569Y-181863D01*
X59550Y-181641D01*
X59536Y-181419D01*
X59528Y-181197D01*
X59525Y-180975D01*
D33*
X68580Y-180975D03*
M02*
