M48
;GenerationSoftware,Autodesk,EAGLE,9.6.2*%
;CreationDate,2021-04-02T15:29:23Z*%
FMAT,2
ICI,OFF
METRIC,TZ,000.000
T7C0.330
T6C0.350
T5C0.381
T4C1.000
T3C1.016
T2C3.200
T1C3.302
%
G90
M71
T1
X94996Y-3810
X94996Y16510
X69088Y-3810
X48768Y-3810
X48768Y16510
X141224Y16510
X22860Y-3810
X2540Y-3810
X2540Y16510
X161544Y-3810
X141224Y-3810
X115316Y-3810
X22860Y40640
X2540Y40640
X2540Y60960
X69088Y40640
X48768Y40640
X48768Y60960
X115316Y40640
X94996Y40640
X94996Y60960
X161544Y40640
X141224Y40640
X141224Y60960
T2
X123571Y-4572
X135001Y-4572
X181229Y17145
X169799Y17145
X169799Y-4572
X181229Y-4572
X42545Y61595
X31115Y61595
X181229Y39878
X77343Y39878
X88773Y-4572
X31115Y39878
X42545Y39878
X88773Y61595
X77343Y61595
X42545Y17145
X31115Y17145
X31115Y-4572
X88773Y39878
X135001Y61595
X123571Y61595
X42545Y-4572
X88773Y17145
X77343Y17145
X123571Y39878
X135001Y39878
X181229Y61595
X169799Y61595
X77343Y-4572
X135001Y17145
X123571Y17145
X169799Y39878
T3
X139954Y55880
X21590Y17780
X1270Y1270
X1270Y11430
X1270Y8890
X1270Y6350
X1270Y3810
X24130Y17780
X160274Y62230
X162814Y62230
X139954Y48260
X139954Y50800
X139954Y53340
X93726Y45720
X47498Y8890
X114046Y62230
X116586Y62230
X93726Y48260
X47498Y11430
X93726Y50800
X139954Y3810
X93726Y53340
X93726Y55880
X47498Y45720
X67818Y62230
X70358Y62230
X47498Y48260
X47498Y50800
X47498Y53340
X47498Y55880
X1270Y45720
X21590Y62230
X24130Y62230
X1270Y48260
X1270Y50800
X1270Y53340
X1270Y55880
X139954Y45720
X139954Y1270
X160274Y17780
X162814Y17780
X139954Y8890
X139954Y6350
X139954Y11430
X93726Y1270
X114046Y17780
X116586Y17780
X93726Y3810
X93726Y6350
X93726Y8890
X93726Y11430
X47498Y1270
X67818Y17780
X70358Y17780
X47498Y3810
X47498Y6350
T4
X178689Y46228
X177419Y48768
X174879Y48768
X172339Y48768
X176149Y46228
X173609Y46228
X171069Y46228
X133731Y48768
X32385Y8255
X33655Y10795
X34925Y8255
X37465Y8255
X40005Y8255
X36195Y10795
X38735Y10795
X41275Y10795
X41275Y4318
X40005Y1778
X38735Y4318
X36195Y4318
X33655Y4318
X37465Y1778
X34925Y1778
X32385Y1778
X78613Y8255
X79883Y10795
X81153Y8255
X83693Y8255
X86233Y8255
X82423Y10795
X84963Y10795
X87503Y10795
X87503Y4318
X86233Y1778
X84963Y4318
X82423Y4318
X79883Y4318
X83693Y1778
X81153Y1778
X78613Y1778
X124841Y8255
X126111Y10795
X127381Y8255
X129921Y8255
X132461Y8255
X128651Y10795
X131191Y10795
X133731Y10795
X133731Y4318
X132461Y1778
X131191Y4318
X128651Y4318
X126111Y4318
X129921Y1778
X127381Y1778
X124841Y1778
X171069Y8255
X172339Y10795
X173609Y8255
X176149Y8255
X178689Y8255
X174879Y10795
X177419Y10795
X179959Y10795
X179959Y4318
X178689Y1778
X177419Y4318
X174879Y4318
X172339Y4318
X176149Y1778
X173609Y1778
X171069Y1778
X32385Y52705
X33655Y55245
X34925Y52705
X37465Y52705
X40005Y52705
X36195Y55245
X38735Y55245
X41275Y55245
X41275Y48768
X40005Y46228
X38735Y48768
X36195Y48768
X33655Y48768
X37465Y46228
X34925Y46228
X32385Y46228
X78613Y52705
X79883Y55245
X81153Y52705
X83693Y52705
X86233Y52705
X82423Y55245
X84963Y55245
X87503Y55245
X87503Y48768
X86233Y46228
X84963Y48768
X82423Y48768
X79883Y48768
X83693Y46228
X81153Y46228
X78613Y46228
X124841Y52705
X126111Y55245
X127381Y52705
X129921Y52705
X132461Y52705
X128651Y55245
X131191Y55245
X133731Y55245
X132461Y46228
X131191Y48768
X128651Y48768
X126111Y48768
X129921Y46228
X127381Y46228
X124841Y46228
X171069Y52705
X172339Y55245
X173609Y52705
X176149Y52705
X178689Y52705
X174879Y55245
X177419Y55245
X179959Y55245
X179959Y48768
T5
X146812Y17653
X53594Y16891
X54356Y17653
X164973Y1905
X118745Y46355
X54356Y62103
X99822Y16891
X146050Y61341
X118745Y1905
X26289Y1905
X26289Y46355
X8128Y17653
X7366Y16891
X146812Y62103
X146050Y16891
X164973Y46355
X72517Y1905
X100584Y62103
X99822Y61341
X53594Y61341
X8128Y62103
X7366Y61341
X72517Y46355
X100584Y17653
T6
X110680Y-3810
X59626Y39180
X105854Y-5271
X110680Y-5271
X18225Y-5271
X59626Y-5271
X75438Y0
X13398Y39180
X18225Y39180
X156909Y39180
X18225Y40640
X75438Y44450
X64452Y-3810
X156909Y40640
X167894Y44450
X110680Y40640
X121666Y44450
X152083Y39180
X110680Y39180
X64452Y40640
X167894Y0
X64452Y39180
X121666Y0
X29210Y44450
X105854Y39180
X152083Y-5271
X156909Y-5271
X156909Y-3810
X29210Y0
X64452Y-5271
X13398Y-5271
X18225Y-3810
T7
X6223Y51054
X6731Y52705
X6731Y53594
X5969Y53086
X10668Y51054
X10795Y50292
X14605Y50165
X14732Y50927
X18225Y54610
X15240Y54292
X18733Y53975
X18606Y53149
X12636Y46101
X13398Y45847
X4445Y44132
X7874Y45148
X10732Y46228
X14287Y47371
X17399Y47053
X20066Y45974
X20066Y44577
X16891Y54673
X8382Y54737
X29210Y52070
X20752Y45466
X30731Y50670
X34925Y57023
X18923Y48768
X19685Y48768
X14859Y48958
X10478Y48958
X5271Y39370
X12700Y40640
X24423Y43537
X24765Y50038
X69977Y48641
X51308Y58420
X68898Y57340
X58166Y59690
X61468Y42799
X51308Y57150
X72136Y41339
X62674Y43371
X64389Y43307
X55245Y42799
X75946Y55626
X76899Y42736
X88709Y44196
X73724Y61087
X69977Y47117
X66294Y62738
X48768Y57658
X65913Y60325
X52451Y48514
X52197Y46101
X49022Y46926
X51308Y43053
X52451Y50165
X52451Y51054
X52959Y52705
X52959Y53594
X52197Y53086
X56896Y51054
X57023Y50292
X60833Y50165
X60960Y50927
X64452Y54610
X61468Y54292
X64960Y53975
X64833Y53149
X58864Y46101
X59626Y45847
X50673Y44132
X54102Y45148
X56959Y46228
X60515Y47371
X63627Y47053
X66294Y45974
X66294Y44577
X63119Y54673
X54610Y54737
X75438Y52070
X66980Y45466
X76959Y50670
X56896Y6604
X65151Y48768
X65913Y48768
X61087Y48958
X56705Y48958
X51498Y39370
X58928Y40640
X70652Y43537
X70993Y50038
X23749Y4191
X5080Y13970
X116205Y48641
X97536Y58420
X115125Y57340
X104394Y59690
X107696Y42799
X97536Y57150
X118364Y41339
X108902Y43371
X110617Y43307
X101473Y42799
X122174Y55626
X123126Y42736
X134938Y44196
X119951Y61087
X116205Y47117
X112522Y62738
X22669Y12890
X11938Y15240
X94996Y57658
X112141Y60325
X98679Y48514
X98425Y46101
X95250Y46926
X97536Y43053
X98679Y50165
X98679Y51054
X99187Y52705
X99187Y53594
X98425Y53086
X103124Y51054
X103251Y50292
X107061Y50165
X107188Y50927
X110680Y54610
X107696Y54292
X111188Y53975
X111061Y53149
X105092Y46101
X105854Y45847
X96901Y44132
X100330Y45148
X103187Y46228
X106743Y47371
X109855Y47053
X112522Y45974
X112522Y44577
X109347Y54673
X100838Y54737
X15240Y-1651
X5080Y12700
X121666Y52070
X25908Y-3111
X113208Y45466
X123187Y50670
X127381Y57023
X111379Y48768
X112141Y48768
X107315Y48958
X102933Y48958
X97726Y39370
X105156Y40640
X116879Y43537
X117221Y50038
X16447Y-1080
X18161Y-1143
X162433Y48641
X143764Y58420
X161354Y57340
X150622Y59690
X153924Y42799
X143764Y57150
X164592Y41339
X155131Y43371
X156845Y43307
X147701Y42799
X168402Y55626
X169355Y42736
X181165Y44196
X166180Y61087
X162433Y47117
X158750Y62738
X9017Y-1651
X29718Y11176
X141224Y57658
X158369Y60325
X144907Y48514
X144653Y46101
X141478Y46926
X143764Y43053
X144907Y50165
X144907Y51054
X145415Y52705
X145415Y53594
X144653Y53086
X149352Y51054
X149479Y50292
X153289Y50165
X153416Y50927
X156909Y54610
X153924Y54292
X157417Y53975
X157290Y53149
X151321Y46101
X152083Y45847
X143129Y44132
X146558Y45148
X149416Y46228
X152972Y47371
X156083Y47053
X158750Y45974
X158750Y44577
X155575Y54673
X147066Y54737
X30670Y-1714
X42482Y-254
X167894Y52070
X27495Y16637
X159436Y45466
X169415Y50670
X173609Y57023
X157607Y48768
X158369Y48768
X153543Y48958
X149162Y48958
X143955Y39370
X151384Y40640
X163108Y43537
X163449Y50038
X23749Y2667
X20066Y18288
X2540Y13208
X19685Y15875
X6223Y4064
X5969Y1651
X2794Y2477
X5080Y-1397
X6223Y5715
X6223Y6604
X6731Y8255
X6731Y9144
X5969Y8636
X10668Y6604
X10795Y5842
X14605Y5715
X14732Y6477
X18225Y10160
X15240Y9843
X18733Y9525
X18606Y8700
X12636Y1651
X13398Y1397
X4445Y-318
X7874Y698
X10732Y1778
X14287Y2921
X17399Y2604
X20066Y1524
X20066Y127
X16891Y10224
X8382Y10287
X29210Y7620
X20752Y1016
X30731Y6220
X34925Y12573
X18923Y4318
X19685Y4318
X14859Y4509
X10478Y4509
X5271Y-5080
X12700Y-3810
X24423Y-913
X24765Y5588
X69977Y4191
X51308Y13970
X68898Y12890
X58166Y15240
X61468Y-1651
X51308Y12700
X72136Y-3111
X62674Y-1080
X64389Y-1143
X55245Y-1651
X75946Y11176
X76899Y-1714
X88709Y-254
X73724Y16637
X69977Y2667
X66294Y18288
X48768Y13208
X65913Y15875
X52451Y4064
X52197Y1651
X49022Y2477
X51308Y-1397
X52451Y5715
X52451Y6604
X52959Y8255
X52959Y9144
X52197Y8636
X57023Y5842
X60833Y5715
X60960Y6477
X64452Y10160
X61468Y9843
X64960Y9525
X64833Y8700
X58864Y1651
X59626Y1397
X50673Y-318
X54102Y698
X56959Y1778
X60515Y2921
X63627Y2604
X66294Y1524
X66294Y127
X63119Y10224
X54610Y10287
X75438Y7620
X66980Y1016
X76959Y6220
X81153Y12573
X65151Y4318
X65913Y4318
X61087Y4509
X56705Y4509
X51498Y-5080
X58928Y-3810
X70652Y-913
X70993Y5588
X116205Y4191
X97536Y13970
X115125Y12890
X104394Y15240
X107696Y-1651
X97536Y12700
X118364Y-3111
X108902Y-1080
X110617Y-1143
X101473Y-1651
X122174Y11176
X123126Y-1714
X134938Y-254
X119951Y16637
X116205Y2667
X112522Y18288
X94996Y13208
X112141Y15875
X98679Y4064
X98425Y1651
X95250Y2477
X97536Y-1397
X98679Y5715
X98679Y6604
X99187Y8255
X99187Y9144
X98425Y8636
X103124Y6604
X103251Y5842
X107061Y5715
X107188Y6477
X110680Y10160
X107696Y9843
X111188Y9525
X111061Y8700
X105092Y1651
X105854Y1397
X96901Y-318
X100330Y698
X103187Y1778
X106743Y2921
X109855Y2604
X112522Y1524
X112522Y127
X81153Y57023
X109347Y10224
X100838Y10287
X121666Y7620
X113208Y1016
X123187Y6220
X127381Y12573
X111379Y4318
X112141Y4318
X107315Y4509
X102933Y4509
X97726Y-5080
X105156Y-3810
X116879Y-913
X117221Y5588
X162433Y4191
X143764Y13970
X161354Y12890
X150622Y15240
X153924Y-1651
X143764Y12700
X164592Y-3111
X155131Y-1080
X156845Y-1143
X147701Y-1651
X168402Y11176
X169355Y-1714
X181165Y-254
X166180Y16637
X162433Y2667
X158750Y18288
X141224Y13208
X158369Y15875
X144907Y4064
X144653Y1651
X141478Y2477
X143764Y-1397
X144907Y5715
X144907Y6604
X145415Y8255
X145415Y9144
X144653Y8636
X149352Y6604
X149479Y5842
X153289Y5715
X153416Y6477
X156909Y10160
X153924Y9843
X157417Y9525
X157290Y8700
X151321Y1651
X152083Y1397
X143129Y-318
X146558Y698
X149416Y1778
X152972Y2921
X156083Y2604
X158750Y1524
X158750Y127
X155575Y10224
X147066Y10287
X167894Y7620
X159436Y1016
X169415Y6220
X173609Y12573
X157607Y4318
X158369Y4318
X153543Y4509
X149162Y4509
X143955Y-5080
X151384Y-3810
X163108Y-913
X163449Y5588
X23749Y48641
X5080Y58420
X22669Y57340
X11938Y59690
X15240Y42799
X5080Y57150
X25908Y41339
X16447Y43371
X18161Y43307
X9017Y42799
X29718Y55626
X30670Y42736
X42482Y44196
X27495Y61087
X23749Y47117
X20066Y62738
X2540Y57658
X19685Y60325
X6223Y48514
X5969Y46101
X2794Y46926
X5080Y43053
X6223Y50165
M30