G04 EAGLE Gerber RS-274X export*
G75*
%MOMM*%
%FSLAX34Y34*%
%LPD*%
%IN*%
%IPPOS*%
%AMOC8*
5,1,8,0,0,1.08239X$1,22.5*%
G01*
%ADD10C,0.203200*%
%ADD11C,0.000000*%
%ADD12C,0.254000*%


D10*
X431800Y0D02*
X254000Y0D01*
X254000Y12700D01*
X0Y12700D01*
X0Y266700D01*
X254000Y266700D01*
X254000Y279400D01*
X431800Y279400D01*
X431800Y0D01*
D11*
X384050Y247650D02*
X384055Y248043D01*
X384069Y248435D01*
X384093Y248827D01*
X384127Y249218D01*
X384170Y249609D01*
X384223Y249998D01*
X384286Y250385D01*
X384357Y250771D01*
X384439Y251156D01*
X384529Y251538D01*
X384630Y251917D01*
X384739Y252295D01*
X384858Y252669D01*
X384985Y253040D01*
X385122Y253408D01*
X385268Y253773D01*
X385423Y254134D01*
X385586Y254491D01*
X385758Y254844D01*
X385939Y255192D01*
X386129Y255536D01*
X386326Y255876D01*
X386532Y256210D01*
X386746Y256539D01*
X386969Y256863D01*
X387199Y257181D01*
X387436Y257494D01*
X387682Y257800D01*
X387935Y258101D01*
X388195Y258395D01*
X388462Y258683D01*
X388736Y258964D01*
X389017Y259238D01*
X389305Y259505D01*
X389599Y259765D01*
X389900Y260018D01*
X390206Y260264D01*
X390519Y260501D01*
X390837Y260731D01*
X391161Y260954D01*
X391490Y261168D01*
X391824Y261374D01*
X392164Y261571D01*
X392508Y261761D01*
X392856Y261942D01*
X393209Y262114D01*
X393566Y262277D01*
X393927Y262432D01*
X394292Y262578D01*
X394660Y262715D01*
X395031Y262842D01*
X395405Y262961D01*
X395783Y263070D01*
X396162Y263171D01*
X396544Y263261D01*
X396929Y263343D01*
X397315Y263414D01*
X397702Y263477D01*
X398091Y263530D01*
X398482Y263573D01*
X398873Y263607D01*
X399265Y263631D01*
X399657Y263645D01*
X400050Y263650D01*
X400443Y263645D01*
X400835Y263631D01*
X401227Y263607D01*
X401618Y263573D01*
X402009Y263530D01*
X402398Y263477D01*
X402785Y263414D01*
X403171Y263343D01*
X403556Y263261D01*
X403938Y263171D01*
X404317Y263070D01*
X404695Y262961D01*
X405069Y262842D01*
X405440Y262715D01*
X405808Y262578D01*
X406173Y262432D01*
X406534Y262277D01*
X406891Y262114D01*
X407244Y261942D01*
X407592Y261761D01*
X407936Y261571D01*
X408276Y261374D01*
X408610Y261168D01*
X408939Y260954D01*
X409263Y260731D01*
X409581Y260501D01*
X409894Y260264D01*
X410200Y260018D01*
X410501Y259765D01*
X410795Y259505D01*
X411083Y259238D01*
X411364Y258964D01*
X411638Y258683D01*
X411905Y258395D01*
X412165Y258101D01*
X412418Y257800D01*
X412664Y257494D01*
X412901Y257181D01*
X413131Y256863D01*
X413354Y256539D01*
X413568Y256210D01*
X413774Y255876D01*
X413971Y255536D01*
X414161Y255192D01*
X414342Y254844D01*
X414514Y254491D01*
X414677Y254134D01*
X414832Y253773D01*
X414978Y253408D01*
X415115Y253040D01*
X415242Y252669D01*
X415361Y252295D01*
X415470Y251917D01*
X415571Y251538D01*
X415661Y251156D01*
X415743Y250771D01*
X415814Y250385D01*
X415877Y249998D01*
X415930Y249609D01*
X415973Y249218D01*
X416007Y248827D01*
X416031Y248435D01*
X416045Y248043D01*
X416050Y247650D01*
X416045Y247257D01*
X416031Y246865D01*
X416007Y246473D01*
X415973Y246082D01*
X415930Y245691D01*
X415877Y245302D01*
X415814Y244915D01*
X415743Y244529D01*
X415661Y244144D01*
X415571Y243762D01*
X415470Y243383D01*
X415361Y243005D01*
X415242Y242631D01*
X415115Y242260D01*
X414978Y241892D01*
X414832Y241527D01*
X414677Y241166D01*
X414514Y240809D01*
X414342Y240456D01*
X414161Y240108D01*
X413971Y239764D01*
X413774Y239424D01*
X413568Y239090D01*
X413354Y238761D01*
X413131Y238437D01*
X412901Y238119D01*
X412664Y237806D01*
X412418Y237500D01*
X412165Y237199D01*
X411905Y236905D01*
X411638Y236617D01*
X411364Y236336D01*
X411083Y236062D01*
X410795Y235795D01*
X410501Y235535D01*
X410200Y235282D01*
X409894Y235036D01*
X409581Y234799D01*
X409263Y234569D01*
X408939Y234346D01*
X408610Y234132D01*
X408276Y233926D01*
X407936Y233729D01*
X407592Y233539D01*
X407244Y233358D01*
X406891Y233186D01*
X406534Y233023D01*
X406173Y232868D01*
X405808Y232722D01*
X405440Y232585D01*
X405069Y232458D01*
X404695Y232339D01*
X404317Y232230D01*
X403938Y232129D01*
X403556Y232039D01*
X403171Y231957D01*
X402785Y231886D01*
X402398Y231823D01*
X402009Y231770D01*
X401618Y231727D01*
X401227Y231693D01*
X400835Y231669D01*
X400443Y231655D01*
X400050Y231650D01*
X399657Y231655D01*
X399265Y231669D01*
X398873Y231693D01*
X398482Y231727D01*
X398091Y231770D01*
X397702Y231823D01*
X397315Y231886D01*
X396929Y231957D01*
X396544Y232039D01*
X396162Y232129D01*
X395783Y232230D01*
X395405Y232339D01*
X395031Y232458D01*
X394660Y232585D01*
X394292Y232722D01*
X393927Y232868D01*
X393566Y233023D01*
X393209Y233186D01*
X392856Y233358D01*
X392508Y233539D01*
X392164Y233729D01*
X391824Y233926D01*
X391490Y234132D01*
X391161Y234346D01*
X390837Y234569D01*
X390519Y234799D01*
X390206Y235036D01*
X389900Y235282D01*
X389599Y235535D01*
X389305Y235795D01*
X389017Y236062D01*
X388736Y236336D01*
X388462Y236617D01*
X388195Y236905D01*
X387935Y237199D01*
X387682Y237500D01*
X387436Y237806D01*
X387199Y238119D01*
X386969Y238437D01*
X386746Y238761D01*
X386532Y239090D01*
X386326Y239424D01*
X386129Y239764D01*
X385939Y240108D01*
X385758Y240456D01*
X385586Y240809D01*
X385423Y241166D01*
X385268Y241527D01*
X385122Y241892D01*
X384985Y242260D01*
X384858Y242631D01*
X384739Y243005D01*
X384630Y243383D01*
X384529Y243762D01*
X384439Y244144D01*
X384357Y244529D01*
X384286Y244915D01*
X384223Y245302D01*
X384170Y245691D01*
X384127Y246082D01*
X384093Y246473D01*
X384069Y246865D01*
X384055Y247257D01*
X384050Y247650D01*
X269750Y247650D02*
X269755Y248043D01*
X269769Y248435D01*
X269793Y248827D01*
X269827Y249218D01*
X269870Y249609D01*
X269923Y249998D01*
X269986Y250385D01*
X270057Y250771D01*
X270139Y251156D01*
X270229Y251538D01*
X270330Y251917D01*
X270439Y252295D01*
X270558Y252669D01*
X270685Y253040D01*
X270822Y253408D01*
X270968Y253773D01*
X271123Y254134D01*
X271286Y254491D01*
X271458Y254844D01*
X271639Y255192D01*
X271829Y255536D01*
X272026Y255876D01*
X272232Y256210D01*
X272446Y256539D01*
X272669Y256863D01*
X272899Y257181D01*
X273136Y257494D01*
X273382Y257800D01*
X273635Y258101D01*
X273895Y258395D01*
X274162Y258683D01*
X274436Y258964D01*
X274717Y259238D01*
X275005Y259505D01*
X275299Y259765D01*
X275600Y260018D01*
X275906Y260264D01*
X276219Y260501D01*
X276537Y260731D01*
X276861Y260954D01*
X277190Y261168D01*
X277524Y261374D01*
X277864Y261571D01*
X278208Y261761D01*
X278556Y261942D01*
X278909Y262114D01*
X279266Y262277D01*
X279627Y262432D01*
X279992Y262578D01*
X280360Y262715D01*
X280731Y262842D01*
X281105Y262961D01*
X281483Y263070D01*
X281862Y263171D01*
X282244Y263261D01*
X282629Y263343D01*
X283015Y263414D01*
X283402Y263477D01*
X283791Y263530D01*
X284182Y263573D01*
X284573Y263607D01*
X284965Y263631D01*
X285357Y263645D01*
X285750Y263650D01*
X286143Y263645D01*
X286535Y263631D01*
X286927Y263607D01*
X287318Y263573D01*
X287709Y263530D01*
X288098Y263477D01*
X288485Y263414D01*
X288871Y263343D01*
X289256Y263261D01*
X289638Y263171D01*
X290017Y263070D01*
X290395Y262961D01*
X290769Y262842D01*
X291140Y262715D01*
X291508Y262578D01*
X291873Y262432D01*
X292234Y262277D01*
X292591Y262114D01*
X292944Y261942D01*
X293292Y261761D01*
X293636Y261571D01*
X293976Y261374D01*
X294310Y261168D01*
X294639Y260954D01*
X294963Y260731D01*
X295281Y260501D01*
X295594Y260264D01*
X295900Y260018D01*
X296201Y259765D01*
X296495Y259505D01*
X296783Y259238D01*
X297064Y258964D01*
X297338Y258683D01*
X297605Y258395D01*
X297865Y258101D01*
X298118Y257800D01*
X298364Y257494D01*
X298601Y257181D01*
X298831Y256863D01*
X299054Y256539D01*
X299268Y256210D01*
X299474Y255876D01*
X299671Y255536D01*
X299861Y255192D01*
X300042Y254844D01*
X300214Y254491D01*
X300377Y254134D01*
X300532Y253773D01*
X300678Y253408D01*
X300815Y253040D01*
X300942Y252669D01*
X301061Y252295D01*
X301170Y251917D01*
X301271Y251538D01*
X301361Y251156D01*
X301443Y250771D01*
X301514Y250385D01*
X301577Y249998D01*
X301630Y249609D01*
X301673Y249218D01*
X301707Y248827D01*
X301731Y248435D01*
X301745Y248043D01*
X301750Y247650D01*
X301745Y247257D01*
X301731Y246865D01*
X301707Y246473D01*
X301673Y246082D01*
X301630Y245691D01*
X301577Y245302D01*
X301514Y244915D01*
X301443Y244529D01*
X301361Y244144D01*
X301271Y243762D01*
X301170Y243383D01*
X301061Y243005D01*
X300942Y242631D01*
X300815Y242260D01*
X300678Y241892D01*
X300532Y241527D01*
X300377Y241166D01*
X300214Y240809D01*
X300042Y240456D01*
X299861Y240108D01*
X299671Y239764D01*
X299474Y239424D01*
X299268Y239090D01*
X299054Y238761D01*
X298831Y238437D01*
X298601Y238119D01*
X298364Y237806D01*
X298118Y237500D01*
X297865Y237199D01*
X297605Y236905D01*
X297338Y236617D01*
X297064Y236336D01*
X296783Y236062D01*
X296495Y235795D01*
X296201Y235535D01*
X295900Y235282D01*
X295594Y235036D01*
X295281Y234799D01*
X294963Y234569D01*
X294639Y234346D01*
X294310Y234132D01*
X293976Y233926D01*
X293636Y233729D01*
X293292Y233539D01*
X292944Y233358D01*
X292591Y233186D01*
X292234Y233023D01*
X291873Y232868D01*
X291508Y232722D01*
X291140Y232585D01*
X290769Y232458D01*
X290395Y232339D01*
X290017Y232230D01*
X289638Y232129D01*
X289256Y232039D01*
X288871Y231957D01*
X288485Y231886D01*
X288098Y231823D01*
X287709Y231770D01*
X287318Y231727D01*
X286927Y231693D01*
X286535Y231669D01*
X286143Y231655D01*
X285750Y231650D01*
X285357Y231655D01*
X284965Y231669D01*
X284573Y231693D01*
X284182Y231727D01*
X283791Y231770D01*
X283402Y231823D01*
X283015Y231886D01*
X282629Y231957D01*
X282244Y232039D01*
X281862Y232129D01*
X281483Y232230D01*
X281105Y232339D01*
X280731Y232458D01*
X280360Y232585D01*
X279992Y232722D01*
X279627Y232868D01*
X279266Y233023D01*
X278909Y233186D01*
X278556Y233358D01*
X278208Y233539D01*
X277864Y233729D01*
X277524Y233926D01*
X277190Y234132D01*
X276861Y234346D01*
X276537Y234569D01*
X276219Y234799D01*
X275906Y235036D01*
X275600Y235282D01*
X275299Y235535D01*
X275005Y235795D01*
X274717Y236062D01*
X274436Y236336D01*
X274162Y236617D01*
X273895Y236905D01*
X273635Y237199D01*
X273382Y237500D01*
X273136Y237806D01*
X272899Y238119D01*
X272669Y238437D01*
X272446Y238761D01*
X272232Y239090D01*
X272026Y239424D01*
X271829Y239764D01*
X271639Y240108D01*
X271458Y240456D01*
X271286Y240809D01*
X271123Y241166D01*
X270968Y241527D01*
X270822Y241892D01*
X270685Y242260D01*
X270558Y242631D01*
X270439Y243005D01*
X270330Y243383D01*
X270229Y243762D01*
X270139Y244144D01*
X270057Y244529D01*
X269986Y244915D01*
X269923Y245302D01*
X269870Y245691D01*
X269827Y246082D01*
X269793Y246473D01*
X269769Y246865D01*
X269755Y247257D01*
X269750Y247650D01*
X212090Y38100D02*
X212095Y38505D01*
X212110Y38910D01*
X212135Y39315D01*
X212170Y39718D01*
X212214Y40121D01*
X212269Y40523D01*
X212333Y40923D01*
X212407Y41321D01*
X212491Y41717D01*
X212585Y42112D01*
X212688Y42503D01*
X212801Y42893D01*
X212923Y43279D01*
X213055Y43662D01*
X213196Y44042D01*
X213347Y44418D01*
X213506Y44791D01*
X213675Y45159D01*
X213853Y45523D01*
X214039Y45883D01*
X214235Y46238D01*
X214439Y46588D01*
X214651Y46933D01*
X214872Y47272D01*
X215102Y47607D01*
X215339Y47935D01*
X215584Y48257D01*
X215838Y48574D01*
X216098Y48884D01*
X216367Y49187D01*
X216643Y49484D01*
X216926Y49774D01*
X217216Y50057D01*
X217513Y50333D01*
X217816Y50602D01*
X218126Y50862D01*
X218443Y51116D01*
X218765Y51361D01*
X219093Y51598D01*
X219428Y51828D01*
X219767Y52049D01*
X220112Y52261D01*
X220462Y52465D01*
X220817Y52661D01*
X221177Y52847D01*
X221541Y53025D01*
X221909Y53194D01*
X222282Y53353D01*
X222658Y53504D01*
X223038Y53645D01*
X223421Y53777D01*
X223807Y53899D01*
X224197Y54012D01*
X224588Y54115D01*
X224983Y54209D01*
X225379Y54293D01*
X225777Y54367D01*
X226177Y54431D01*
X226579Y54486D01*
X226982Y54530D01*
X227385Y54565D01*
X227790Y54590D01*
X228195Y54605D01*
X228600Y54610D01*
X229005Y54605D01*
X229410Y54590D01*
X229815Y54565D01*
X230218Y54530D01*
X230621Y54486D01*
X231023Y54431D01*
X231423Y54367D01*
X231821Y54293D01*
X232217Y54209D01*
X232612Y54115D01*
X233003Y54012D01*
X233393Y53899D01*
X233779Y53777D01*
X234162Y53645D01*
X234542Y53504D01*
X234918Y53353D01*
X235291Y53194D01*
X235659Y53025D01*
X236023Y52847D01*
X236383Y52661D01*
X236738Y52465D01*
X237088Y52261D01*
X237433Y52049D01*
X237772Y51828D01*
X238107Y51598D01*
X238435Y51361D01*
X238757Y51116D01*
X239074Y50862D01*
X239384Y50602D01*
X239687Y50333D01*
X239984Y50057D01*
X240274Y49774D01*
X240557Y49484D01*
X240833Y49187D01*
X241102Y48884D01*
X241362Y48574D01*
X241616Y48257D01*
X241861Y47935D01*
X242098Y47607D01*
X242328Y47272D01*
X242549Y46933D01*
X242761Y46588D01*
X242965Y46238D01*
X243161Y45883D01*
X243347Y45523D01*
X243525Y45159D01*
X243694Y44791D01*
X243853Y44418D01*
X244004Y44042D01*
X244145Y43662D01*
X244277Y43279D01*
X244399Y42893D01*
X244512Y42503D01*
X244615Y42112D01*
X244709Y41717D01*
X244793Y41321D01*
X244867Y40923D01*
X244931Y40523D01*
X244986Y40121D01*
X245030Y39718D01*
X245065Y39315D01*
X245090Y38910D01*
X245105Y38505D01*
X245110Y38100D01*
X245105Y37695D01*
X245090Y37290D01*
X245065Y36885D01*
X245030Y36482D01*
X244986Y36079D01*
X244931Y35677D01*
X244867Y35277D01*
X244793Y34879D01*
X244709Y34483D01*
X244615Y34088D01*
X244512Y33697D01*
X244399Y33307D01*
X244277Y32921D01*
X244145Y32538D01*
X244004Y32158D01*
X243853Y31782D01*
X243694Y31409D01*
X243525Y31041D01*
X243347Y30677D01*
X243161Y30317D01*
X242965Y29962D01*
X242761Y29612D01*
X242549Y29267D01*
X242328Y28928D01*
X242098Y28593D01*
X241861Y28265D01*
X241616Y27943D01*
X241362Y27626D01*
X241102Y27316D01*
X240833Y27013D01*
X240557Y26716D01*
X240274Y26426D01*
X239984Y26143D01*
X239687Y25867D01*
X239384Y25598D01*
X239074Y25338D01*
X238757Y25084D01*
X238435Y24839D01*
X238107Y24602D01*
X237772Y24372D01*
X237433Y24151D01*
X237088Y23939D01*
X236738Y23735D01*
X236383Y23539D01*
X236023Y23353D01*
X235659Y23175D01*
X235291Y23006D01*
X234918Y22847D01*
X234542Y22696D01*
X234162Y22555D01*
X233779Y22423D01*
X233393Y22301D01*
X233003Y22188D01*
X232612Y22085D01*
X232217Y21991D01*
X231821Y21907D01*
X231423Y21833D01*
X231023Y21769D01*
X230621Y21714D01*
X230218Y21670D01*
X229815Y21635D01*
X229410Y21610D01*
X229005Y21595D01*
X228600Y21590D01*
X228195Y21595D01*
X227790Y21610D01*
X227385Y21635D01*
X226982Y21670D01*
X226579Y21714D01*
X226177Y21769D01*
X225777Y21833D01*
X225379Y21907D01*
X224983Y21991D01*
X224588Y22085D01*
X224197Y22188D01*
X223807Y22301D01*
X223421Y22423D01*
X223038Y22555D01*
X222658Y22696D01*
X222282Y22847D01*
X221909Y23006D01*
X221541Y23175D01*
X221177Y23353D01*
X220817Y23539D01*
X220462Y23735D01*
X220112Y23939D01*
X219767Y24151D01*
X219428Y24372D01*
X219093Y24602D01*
X218765Y24839D01*
X218443Y25084D01*
X218126Y25338D01*
X217816Y25598D01*
X217513Y25867D01*
X217216Y26143D01*
X216926Y26426D01*
X216643Y26716D01*
X216367Y27013D01*
X216098Y27316D01*
X215838Y27626D01*
X215584Y27943D01*
X215339Y28265D01*
X215102Y28593D01*
X214872Y28928D01*
X214651Y29267D01*
X214439Y29612D01*
X214235Y29962D01*
X214039Y30317D01*
X213853Y30677D01*
X213675Y31041D01*
X213506Y31409D01*
X213347Y31782D01*
X213196Y32158D01*
X213055Y32538D01*
X212923Y32921D01*
X212801Y33307D01*
X212688Y33697D01*
X212585Y34088D01*
X212491Y34483D01*
X212407Y34879D01*
X212333Y35277D01*
X212269Y35677D01*
X212214Y36079D01*
X212170Y36482D01*
X212135Y36885D01*
X212110Y37290D01*
X212095Y37695D01*
X212090Y38100D01*
X212090Y241300D02*
X212095Y241705D01*
X212110Y242110D01*
X212135Y242515D01*
X212170Y242918D01*
X212214Y243321D01*
X212269Y243723D01*
X212333Y244123D01*
X212407Y244521D01*
X212491Y244917D01*
X212585Y245312D01*
X212688Y245703D01*
X212801Y246093D01*
X212923Y246479D01*
X213055Y246862D01*
X213196Y247242D01*
X213347Y247618D01*
X213506Y247991D01*
X213675Y248359D01*
X213853Y248723D01*
X214039Y249083D01*
X214235Y249438D01*
X214439Y249788D01*
X214651Y250133D01*
X214872Y250472D01*
X215102Y250807D01*
X215339Y251135D01*
X215584Y251457D01*
X215838Y251774D01*
X216098Y252084D01*
X216367Y252387D01*
X216643Y252684D01*
X216926Y252974D01*
X217216Y253257D01*
X217513Y253533D01*
X217816Y253802D01*
X218126Y254062D01*
X218443Y254316D01*
X218765Y254561D01*
X219093Y254798D01*
X219428Y255028D01*
X219767Y255249D01*
X220112Y255461D01*
X220462Y255665D01*
X220817Y255861D01*
X221177Y256047D01*
X221541Y256225D01*
X221909Y256394D01*
X222282Y256553D01*
X222658Y256704D01*
X223038Y256845D01*
X223421Y256977D01*
X223807Y257099D01*
X224197Y257212D01*
X224588Y257315D01*
X224983Y257409D01*
X225379Y257493D01*
X225777Y257567D01*
X226177Y257631D01*
X226579Y257686D01*
X226982Y257730D01*
X227385Y257765D01*
X227790Y257790D01*
X228195Y257805D01*
X228600Y257810D01*
X229005Y257805D01*
X229410Y257790D01*
X229815Y257765D01*
X230218Y257730D01*
X230621Y257686D01*
X231023Y257631D01*
X231423Y257567D01*
X231821Y257493D01*
X232217Y257409D01*
X232612Y257315D01*
X233003Y257212D01*
X233393Y257099D01*
X233779Y256977D01*
X234162Y256845D01*
X234542Y256704D01*
X234918Y256553D01*
X235291Y256394D01*
X235659Y256225D01*
X236023Y256047D01*
X236383Y255861D01*
X236738Y255665D01*
X237088Y255461D01*
X237433Y255249D01*
X237772Y255028D01*
X238107Y254798D01*
X238435Y254561D01*
X238757Y254316D01*
X239074Y254062D01*
X239384Y253802D01*
X239687Y253533D01*
X239984Y253257D01*
X240274Y252974D01*
X240557Y252684D01*
X240833Y252387D01*
X241102Y252084D01*
X241362Y251774D01*
X241616Y251457D01*
X241861Y251135D01*
X242098Y250807D01*
X242328Y250472D01*
X242549Y250133D01*
X242761Y249788D01*
X242965Y249438D01*
X243161Y249083D01*
X243347Y248723D01*
X243525Y248359D01*
X243694Y247991D01*
X243853Y247618D01*
X244004Y247242D01*
X244145Y246862D01*
X244277Y246479D01*
X244399Y246093D01*
X244512Y245703D01*
X244615Y245312D01*
X244709Y244917D01*
X244793Y244521D01*
X244867Y244123D01*
X244931Y243723D01*
X244986Y243321D01*
X245030Y242918D01*
X245065Y242515D01*
X245090Y242110D01*
X245105Y241705D01*
X245110Y241300D01*
X245105Y240895D01*
X245090Y240490D01*
X245065Y240085D01*
X245030Y239682D01*
X244986Y239279D01*
X244931Y238877D01*
X244867Y238477D01*
X244793Y238079D01*
X244709Y237683D01*
X244615Y237288D01*
X244512Y236897D01*
X244399Y236507D01*
X244277Y236121D01*
X244145Y235738D01*
X244004Y235358D01*
X243853Y234982D01*
X243694Y234609D01*
X243525Y234241D01*
X243347Y233877D01*
X243161Y233517D01*
X242965Y233162D01*
X242761Y232812D01*
X242549Y232467D01*
X242328Y232128D01*
X242098Y231793D01*
X241861Y231465D01*
X241616Y231143D01*
X241362Y230826D01*
X241102Y230516D01*
X240833Y230213D01*
X240557Y229916D01*
X240274Y229626D01*
X239984Y229343D01*
X239687Y229067D01*
X239384Y228798D01*
X239074Y228538D01*
X238757Y228284D01*
X238435Y228039D01*
X238107Y227802D01*
X237772Y227572D01*
X237433Y227351D01*
X237088Y227139D01*
X236738Y226935D01*
X236383Y226739D01*
X236023Y226553D01*
X235659Y226375D01*
X235291Y226206D01*
X234918Y226047D01*
X234542Y225896D01*
X234162Y225755D01*
X233779Y225623D01*
X233393Y225501D01*
X233003Y225388D01*
X232612Y225285D01*
X232217Y225191D01*
X231821Y225107D01*
X231423Y225033D01*
X231023Y224969D01*
X230621Y224914D01*
X230218Y224870D01*
X229815Y224835D01*
X229410Y224810D01*
X229005Y224795D01*
X228600Y224790D01*
X228195Y224795D01*
X227790Y224810D01*
X227385Y224835D01*
X226982Y224870D01*
X226579Y224914D01*
X226177Y224969D01*
X225777Y225033D01*
X225379Y225107D01*
X224983Y225191D01*
X224588Y225285D01*
X224197Y225388D01*
X223807Y225501D01*
X223421Y225623D01*
X223038Y225755D01*
X222658Y225896D01*
X222282Y226047D01*
X221909Y226206D01*
X221541Y226375D01*
X221177Y226553D01*
X220817Y226739D01*
X220462Y226935D01*
X220112Y227139D01*
X219767Y227351D01*
X219428Y227572D01*
X219093Y227802D01*
X218765Y228039D01*
X218443Y228284D01*
X218126Y228538D01*
X217816Y228798D01*
X217513Y229067D01*
X217216Y229343D01*
X216926Y229626D01*
X216643Y229916D01*
X216367Y230213D01*
X216098Y230516D01*
X215838Y230826D01*
X215584Y231143D01*
X215339Y231465D01*
X215102Y231793D01*
X214872Y232128D01*
X214651Y232467D01*
X214439Y232812D01*
X214235Y233162D01*
X214039Y233517D01*
X213853Y233877D01*
X213675Y234241D01*
X213506Y234609D01*
X213347Y234982D01*
X213196Y235358D01*
X213055Y235738D01*
X212923Y236121D01*
X212801Y236507D01*
X212688Y236897D01*
X212585Y237288D01*
X212491Y237683D01*
X212407Y238079D01*
X212333Y238477D01*
X212269Y238877D01*
X212214Y239279D01*
X212170Y239682D01*
X212135Y240085D01*
X212110Y240490D01*
X212095Y240895D01*
X212090Y241300D01*
X8890Y38100D02*
X8895Y38505D01*
X8910Y38910D01*
X8935Y39315D01*
X8970Y39718D01*
X9014Y40121D01*
X9069Y40523D01*
X9133Y40923D01*
X9207Y41321D01*
X9291Y41717D01*
X9385Y42112D01*
X9488Y42503D01*
X9601Y42893D01*
X9723Y43279D01*
X9855Y43662D01*
X9996Y44042D01*
X10147Y44418D01*
X10306Y44791D01*
X10475Y45159D01*
X10653Y45523D01*
X10839Y45883D01*
X11035Y46238D01*
X11239Y46588D01*
X11451Y46933D01*
X11672Y47272D01*
X11902Y47607D01*
X12139Y47935D01*
X12384Y48257D01*
X12638Y48574D01*
X12898Y48884D01*
X13167Y49187D01*
X13443Y49484D01*
X13726Y49774D01*
X14016Y50057D01*
X14313Y50333D01*
X14616Y50602D01*
X14926Y50862D01*
X15243Y51116D01*
X15565Y51361D01*
X15893Y51598D01*
X16228Y51828D01*
X16567Y52049D01*
X16912Y52261D01*
X17262Y52465D01*
X17617Y52661D01*
X17977Y52847D01*
X18341Y53025D01*
X18709Y53194D01*
X19082Y53353D01*
X19458Y53504D01*
X19838Y53645D01*
X20221Y53777D01*
X20607Y53899D01*
X20997Y54012D01*
X21388Y54115D01*
X21783Y54209D01*
X22179Y54293D01*
X22577Y54367D01*
X22977Y54431D01*
X23379Y54486D01*
X23782Y54530D01*
X24185Y54565D01*
X24590Y54590D01*
X24995Y54605D01*
X25400Y54610D01*
X25805Y54605D01*
X26210Y54590D01*
X26615Y54565D01*
X27018Y54530D01*
X27421Y54486D01*
X27823Y54431D01*
X28223Y54367D01*
X28621Y54293D01*
X29017Y54209D01*
X29412Y54115D01*
X29803Y54012D01*
X30193Y53899D01*
X30579Y53777D01*
X30962Y53645D01*
X31342Y53504D01*
X31718Y53353D01*
X32091Y53194D01*
X32459Y53025D01*
X32823Y52847D01*
X33183Y52661D01*
X33538Y52465D01*
X33888Y52261D01*
X34233Y52049D01*
X34572Y51828D01*
X34907Y51598D01*
X35235Y51361D01*
X35557Y51116D01*
X35874Y50862D01*
X36184Y50602D01*
X36487Y50333D01*
X36784Y50057D01*
X37074Y49774D01*
X37357Y49484D01*
X37633Y49187D01*
X37902Y48884D01*
X38162Y48574D01*
X38416Y48257D01*
X38661Y47935D01*
X38898Y47607D01*
X39128Y47272D01*
X39349Y46933D01*
X39561Y46588D01*
X39765Y46238D01*
X39961Y45883D01*
X40147Y45523D01*
X40325Y45159D01*
X40494Y44791D01*
X40653Y44418D01*
X40804Y44042D01*
X40945Y43662D01*
X41077Y43279D01*
X41199Y42893D01*
X41312Y42503D01*
X41415Y42112D01*
X41509Y41717D01*
X41593Y41321D01*
X41667Y40923D01*
X41731Y40523D01*
X41786Y40121D01*
X41830Y39718D01*
X41865Y39315D01*
X41890Y38910D01*
X41905Y38505D01*
X41910Y38100D01*
X41905Y37695D01*
X41890Y37290D01*
X41865Y36885D01*
X41830Y36482D01*
X41786Y36079D01*
X41731Y35677D01*
X41667Y35277D01*
X41593Y34879D01*
X41509Y34483D01*
X41415Y34088D01*
X41312Y33697D01*
X41199Y33307D01*
X41077Y32921D01*
X40945Y32538D01*
X40804Y32158D01*
X40653Y31782D01*
X40494Y31409D01*
X40325Y31041D01*
X40147Y30677D01*
X39961Y30317D01*
X39765Y29962D01*
X39561Y29612D01*
X39349Y29267D01*
X39128Y28928D01*
X38898Y28593D01*
X38661Y28265D01*
X38416Y27943D01*
X38162Y27626D01*
X37902Y27316D01*
X37633Y27013D01*
X37357Y26716D01*
X37074Y26426D01*
X36784Y26143D01*
X36487Y25867D01*
X36184Y25598D01*
X35874Y25338D01*
X35557Y25084D01*
X35235Y24839D01*
X34907Y24602D01*
X34572Y24372D01*
X34233Y24151D01*
X33888Y23939D01*
X33538Y23735D01*
X33183Y23539D01*
X32823Y23353D01*
X32459Y23175D01*
X32091Y23006D01*
X31718Y22847D01*
X31342Y22696D01*
X30962Y22555D01*
X30579Y22423D01*
X30193Y22301D01*
X29803Y22188D01*
X29412Y22085D01*
X29017Y21991D01*
X28621Y21907D01*
X28223Y21833D01*
X27823Y21769D01*
X27421Y21714D01*
X27018Y21670D01*
X26615Y21635D01*
X26210Y21610D01*
X25805Y21595D01*
X25400Y21590D01*
X24995Y21595D01*
X24590Y21610D01*
X24185Y21635D01*
X23782Y21670D01*
X23379Y21714D01*
X22977Y21769D01*
X22577Y21833D01*
X22179Y21907D01*
X21783Y21991D01*
X21388Y22085D01*
X20997Y22188D01*
X20607Y22301D01*
X20221Y22423D01*
X19838Y22555D01*
X19458Y22696D01*
X19082Y22847D01*
X18709Y23006D01*
X18341Y23175D01*
X17977Y23353D01*
X17617Y23539D01*
X17262Y23735D01*
X16912Y23939D01*
X16567Y24151D01*
X16228Y24372D01*
X15893Y24602D01*
X15565Y24839D01*
X15243Y25084D01*
X14926Y25338D01*
X14616Y25598D01*
X14313Y25867D01*
X14016Y26143D01*
X13726Y26426D01*
X13443Y26716D01*
X13167Y27013D01*
X12898Y27316D01*
X12638Y27626D01*
X12384Y27943D01*
X12139Y28265D01*
X11902Y28593D01*
X11672Y28928D01*
X11451Y29267D01*
X11239Y29612D01*
X11035Y29962D01*
X10839Y30317D01*
X10653Y30677D01*
X10475Y31041D01*
X10306Y31409D01*
X10147Y31782D01*
X9996Y32158D01*
X9855Y32538D01*
X9723Y32921D01*
X9601Y33307D01*
X9488Y33697D01*
X9385Y34088D01*
X9291Y34483D01*
X9207Y34879D01*
X9133Y35277D01*
X9069Y35677D01*
X9014Y36079D01*
X8970Y36482D01*
X8935Y36885D01*
X8910Y37290D01*
X8895Y37695D01*
X8890Y38100D01*
X8890Y241300D02*
X8895Y241705D01*
X8910Y242110D01*
X8935Y242515D01*
X8970Y242918D01*
X9014Y243321D01*
X9069Y243723D01*
X9133Y244123D01*
X9207Y244521D01*
X9291Y244917D01*
X9385Y245312D01*
X9488Y245703D01*
X9601Y246093D01*
X9723Y246479D01*
X9855Y246862D01*
X9996Y247242D01*
X10147Y247618D01*
X10306Y247991D01*
X10475Y248359D01*
X10653Y248723D01*
X10839Y249083D01*
X11035Y249438D01*
X11239Y249788D01*
X11451Y250133D01*
X11672Y250472D01*
X11902Y250807D01*
X12139Y251135D01*
X12384Y251457D01*
X12638Y251774D01*
X12898Y252084D01*
X13167Y252387D01*
X13443Y252684D01*
X13726Y252974D01*
X14016Y253257D01*
X14313Y253533D01*
X14616Y253802D01*
X14926Y254062D01*
X15243Y254316D01*
X15565Y254561D01*
X15893Y254798D01*
X16228Y255028D01*
X16567Y255249D01*
X16912Y255461D01*
X17262Y255665D01*
X17617Y255861D01*
X17977Y256047D01*
X18341Y256225D01*
X18709Y256394D01*
X19082Y256553D01*
X19458Y256704D01*
X19838Y256845D01*
X20221Y256977D01*
X20607Y257099D01*
X20997Y257212D01*
X21388Y257315D01*
X21783Y257409D01*
X22179Y257493D01*
X22577Y257567D01*
X22977Y257631D01*
X23379Y257686D01*
X23782Y257730D01*
X24185Y257765D01*
X24590Y257790D01*
X24995Y257805D01*
X25400Y257810D01*
X25805Y257805D01*
X26210Y257790D01*
X26615Y257765D01*
X27018Y257730D01*
X27421Y257686D01*
X27823Y257631D01*
X28223Y257567D01*
X28621Y257493D01*
X29017Y257409D01*
X29412Y257315D01*
X29803Y257212D01*
X30193Y257099D01*
X30579Y256977D01*
X30962Y256845D01*
X31342Y256704D01*
X31718Y256553D01*
X32091Y256394D01*
X32459Y256225D01*
X32823Y256047D01*
X33183Y255861D01*
X33538Y255665D01*
X33888Y255461D01*
X34233Y255249D01*
X34572Y255028D01*
X34907Y254798D01*
X35235Y254561D01*
X35557Y254316D01*
X35874Y254062D01*
X36184Y253802D01*
X36487Y253533D01*
X36784Y253257D01*
X37074Y252974D01*
X37357Y252684D01*
X37633Y252387D01*
X37902Y252084D01*
X38162Y251774D01*
X38416Y251457D01*
X38661Y251135D01*
X38898Y250807D01*
X39128Y250472D01*
X39349Y250133D01*
X39561Y249788D01*
X39765Y249438D01*
X39961Y249083D01*
X40147Y248723D01*
X40325Y248359D01*
X40494Y247991D01*
X40653Y247618D01*
X40804Y247242D01*
X40945Y246862D01*
X41077Y246479D01*
X41199Y246093D01*
X41312Y245703D01*
X41415Y245312D01*
X41509Y244917D01*
X41593Y244521D01*
X41667Y244123D01*
X41731Y243723D01*
X41786Y243321D01*
X41830Y242918D01*
X41865Y242515D01*
X41890Y242110D01*
X41905Y241705D01*
X41910Y241300D01*
X41905Y240895D01*
X41890Y240490D01*
X41865Y240085D01*
X41830Y239682D01*
X41786Y239279D01*
X41731Y238877D01*
X41667Y238477D01*
X41593Y238079D01*
X41509Y237683D01*
X41415Y237288D01*
X41312Y236897D01*
X41199Y236507D01*
X41077Y236121D01*
X40945Y235738D01*
X40804Y235358D01*
X40653Y234982D01*
X40494Y234609D01*
X40325Y234241D01*
X40147Y233877D01*
X39961Y233517D01*
X39765Y233162D01*
X39561Y232812D01*
X39349Y232467D01*
X39128Y232128D01*
X38898Y231793D01*
X38661Y231465D01*
X38416Y231143D01*
X38162Y230826D01*
X37902Y230516D01*
X37633Y230213D01*
X37357Y229916D01*
X37074Y229626D01*
X36784Y229343D01*
X36487Y229067D01*
X36184Y228798D01*
X35874Y228538D01*
X35557Y228284D01*
X35235Y228039D01*
X34907Y227802D01*
X34572Y227572D01*
X34233Y227351D01*
X33888Y227139D01*
X33538Y226935D01*
X33183Y226739D01*
X32823Y226553D01*
X32459Y226375D01*
X32091Y226206D01*
X31718Y226047D01*
X31342Y225896D01*
X30962Y225755D01*
X30579Y225623D01*
X30193Y225501D01*
X29803Y225388D01*
X29412Y225285D01*
X29017Y225191D01*
X28621Y225107D01*
X28223Y225033D01*
X27823Y224969D01*
X27421Y224914D01*
X27018Y224870D01*
X26615Y224835D01*
X26210Y224810D01*
X25805Y224795D01*
X25400Y224790D01*
X24995Y224795D01*
X24590Y224810D01*
X24185Y224835D01*
X23782Y224870D01*
X23379Y224914D01*
X22977Y224969D01*
X22577Y225033D01*
X22179Y225107D01*
X21783Y225191D01*
X21388Y225285D01*
X20997Y225388D01*
X20607Y225501D01*
X20221Y225623D01*
X19838Y225755D01*
X19458Y225896D01*
X19082Y226047D01*
X18709Y226206D01*
X18341Y226375D01*
X17977Y226553D01*
X17617Y226739D01*
X17262Y226935D01*
X16912Y227139D01*
X16567Y227351D01*
X16228Y227572D01*
X15893Y227802D01*
X15565Y228039D01*
X15243Y228284D01*
X14926Y228538D01*
X14616Y228798D01*
X14313Y229067D01*
X14016Y229343D01*
X13726Y229626D01*
X13443Y229916D01*
X13167Y230213D01*
X12898Y230516D01*
X12638Y230826D01*
X12384Y231143D01*
X12139Y231465D01*
X11902Y231793D01*
X11672Y232128D01*
X11451Y232467D01*
X11239Y232812D01*
X11035Y233162D01*
X10839Y233517D01*
X10653Y233877D01*
X10475Y234241D01*
X10306Y234609D01*
X10147Y234982D01*
X9996Y235358D01*
X9855Y235738D01*
X9723Y236121D01*
X9601Y236507D01*
X9488Y236897D01*
X9385Y237288D01*
X9291Y237683D01*
X9207Y238079D01*
X9133Y238477D01*
X9069Y238877D01*
X9014Y239279D01*
X8970Y239682D01*
X8935Y240085D01*
X8910Y240490D01*
X8895Y240895D01*
X8890Y241300D01*
X269750Y30480D02*
X269755Y30873D01*
X269769Y31265D01*
X269793Y31657D01*
X269827Y32048D01*
X269870Y32439D01*
X269923Y32828D01*
X269986Y33215D01*
X270057Y33601D01*
X270139Y33986D01*
X270229Y34368D01*
X270330Y34747D01*
X270439Y35125D01*
X270558Y35499D01*
X270685Y35870D01*
X270822Y36238D01*
X270968Y36603D01*
X271123Y36964D01*
X271286Y37321D01*
X271458Y37674D01*
X271639Y38022D01*
X271829Y38366D01*
X272026Y38706D01*
X272232Y39040D01*
X272446Y39369D01*
X272669Y39693D01*
X272899Y40011D01*
X273136Y40324D01*
X273382Y40630D01*
X273635Y40931D01*
X273895Y41225D01*
X274162Y41513D01*
X274436Y41794D01*
X274717Y42068D01*
X275005Y42335D01*
X275299Y42595D01*
X275600Y42848D01*
X275906Y43094D01*
X276219Y43331D01*
X276537Y43561D01*
X276861Y43784D01*
X277190Y43998D01*
X277524Y44204D01*
X277864Y44401D01*
X278208Y44591D01*
X278556Y44772D01*
X278909Y44944D01*
X279266Y45107D01*
X279627Y45262D01*
X279992Y45408D01*
X280360Y45545D01*
X280731Y45672D01*
X281105Y45791D01*
X281483Y45900D01*
X281862Y46001D01*
X282244Y46091D01*
X282629Y46173D01*
X283015Y46244D01*
X283402Y46307D01*
X283791Y46360D01*
X284182Y46403D01*
X284573Y46437D01*
X284965Y46461D01*
X285357Y46475D01*
X285750Y46480D01*
X286143Y46475D01*
X286535Y46461D01*
X286927Y46437D01*
X287318Y46403D01*
X287709Y46360D01*
X288098Y46307D01*
X288485Y46244D01*
X288871Y46173D01*
X289256Y46091D01*
X289638Y46001D01*
X290017Y45900D01*
X290395Y45791D01*
X290769Y45672D01*
X291140Y45545D01*
X291508Y45408D01*
X291873Y45262D01*
X292234Y45107D01*
X292591Y44944D01*
X292944Y44772D01*
X293292Y44591D01*
X293636Y44401D01*
X293976Y44204D01*
X294310Y43998D01*
X294639Y43784D01*
X294963Y43561D01*
X295281Y43331D01*
X295594Y43094D01*
X295900Y42848D01*
X296201Y42595D01*
X296495Y42335D01*
X296783Y42068D01*
X297064Y41794D01*
X297338Y41513D01*
X297605Y41225D01*
X297865Y40931D01*
X298118Y40630D01*
X298364Y40324D01*
X298601Y40011D01*
X298831Y39693D01*
X299054Y39369D01*
X299268Y39040D01*
X299474Y38706D01*
X299671Y38366D01*
X299861Y38022D01*
X300042Y37674D01*
X300214Y37321D01*
X300377Y36964D01*
X300532Y36603D01*
X300678Y36238D01*
X300815Y35870D01*
X300942Y35499D01*
X301061Y35125D01*
X301170Y34747D01*
X301271Y34368D01*
X301361Y33986D01*
X301443Y33601D01*
X301514Y33215D01*
X301577Y32828D01*
X301630Y32439D01*
X301673Y32048D01*
X301707Y31657D01*
X301731Y31265D01*
X301745Y30873D01*
X301750Y30480D01*
X301745Y30087D01*
X301731Y29695D01*
X301707Y29303D01*
X301673Y28912D01*
X301630Y28521D01*
X301577Y28132D01*
X301514Y27745D01*
X301443Y27359D01*
X301361Y26974D01*
X301271Y26592D01*
X301170Y26213D01*
X301061Y25835D01*
X300942Y25461D01*
X300815Y25090D01*
X300678Y24722D01*
X300532Y24357D01*
X300377Y23996D01*
X300214Y23639D01*
X300042Y23286D01*
X299861Y22938D01*
X299671Y22594D01*
X299474Y22254D01*
X299268Y21920D01*
X299054Y21591D01*
X298831Y21267D01*
X298601Y20949D01*
X298364Y20636D01*
X298118Y20330D01*
X297865Y20029D01*
X297605Y19735D01*
X297338Y19447D01*
X297064Y19166D01*
X296783Y18892D01*
X296495Y18625D01*
X296201Y18365D01*
X295900Y18112D01*
X295594Y17866D01*
X295281Y17629D01*
X294963Y17399D01*
X294639Y17176D01*
X294310Y16962D01*
X293976Y16756D01*
X293636Y16559D01*
X293292Y16369D01*
X292944Y16188D01*
X292591Y16016D01*
X292234Y15853D01*
X291873Y15698D01*
X291508Y15552D01*
X291140Y15415D01*
X290769Y15288D01*
X290395Y15169D01*
X290017Y15060D01*
X289638Y14959D01*
X289256Y14869D01*
X288871Y14787D01*
X288485Y14716D01*
X288098Y14653D01*
X287709Y14600D01*
X287318Y14557D01*
X286927Y14523D01*
X286535Y14499D01*
X286143Y14485D01*
X285750Y14480D01*
X285357Y14485D01*
X284965Y14499D01*
X284573Y14523D01*
X284182Y14557D01*
X283791Y14600D01*
X283402Y14653D01*
X283015Y14716D01*
X282629Y14787D01*
X282244Y14869D01*
X281862Y14959D01*
X281483Y15060D01*
X281105Y15169D01*
X280731Y15288D01*
X280360Y15415D01*
X279992Y15552D01*
X279627Y15698D01*
X279266Y15853D01*
X278909Y16016D01*
X278556Y16188D01*
X278208Y16369D01*
X277864Y16559D01*
X277524Y16756D01*
X277190Y16962D01*
X276861Y17176D01*
X276537Y17399D01*
X276219Y17629D01*
X275906Y17866D01*
X275600Y18112D01*
X275299Y18365D01*
X275005Y18625D01*
X274717Y18892D01*
X274436Y19166D01*
X274162Y19447D01*
X273895Y19735D01*
X273635Y20029D01*
X273382Y20330D01*
X273136Y20636D01*
X272899Y20949D01*
X272669Y21267D01*
X272446Y21591D01*
X272232Y21920D01*
X272026Y22254D01*
X271829Y22594D01*
X271639Y22938D01*
X271458Y23286D01*
X271286Y23639D01*
X271123Y23996D01*
X270968Y24357D01*
X270822Y24722D01*
X270685Y25090D01*
X270558Y25461D01*
X270439Y25835D01*
X270330Y26213D01*
X270229Y26592D01*
X270139Y26974D01*
X270057Y27359D01*
X269986Y27745D01*
X269923Y28132D01*
X269870Y28521D01*
X269827Y28912D01*
X269793Y29303D01*
X269769Y29695D01*
X269755Y30087D01*
X269750Y30480D01*
X384050Y30480D02*
X384055Y30873D01*
X384069Y31265D01*
X384093Y31657D01*
X384127Y32048D01*
X384170Y32439D01*
X384223Y32828D01*
X384286Y33215D01*
X384357Y33601D01*
X384439Y33986D01*
X384529Y34368D01*
X384630Y34747D01*
X384739Y35125D01*
X384858Y35499D01*
X384985Y35870D01*
X385122Y36238D01*
X385268Y36603D01*
X385423Y36964D01*
X385586Y37321D01*
X385758Y37674D01*
X385939Y38022D01*
X386129Y38366D01*
X386326Y38706D01*
X386532Y39040D01*
X386746Y39369D01*
X386969Y39693D01*
X387199Y40011D01*
X387436Y40324D01*
X387682Y40630D01*
X387935Y40931D01*
X388195Y41225D01*
X388462Y41513D01*
X388736Y41794D01*
X389017Y42068D01*
X389305Y42335D01*
X389599Y42595D01*
X389900Y42848D01*
X390206Y43094D01*
X390519Y43331D01*
X390837Y43561D01*
X391161Y43784D01*
X391490Y43998D01*
X391824Y44204D01*
X392164Y44401D01*
X392508Y44591D01*
X392856Y44772D01*
X393209Y44944D01*
X393566Y45107D01*
X393927Y45262D01*
X394292Y45408D01*
X394660Y45545D01*
X395031Y45672D01*
X395405Y45791D01*
X395783Y45900D01*
X396162Y46001D01*
X396544Y46091D01*
X396929Y46173D01*
X397315Y46244D01*
X397702Y46307D01*
X398091Y46360D01*
X398482Y46403D01*
X398873Y46437D01*
X399265Y46461D01*
X399657Y46475D01*
X400050Y46480D01*
X400443Y46475D01*
X400835Y46461D01*
X401227Y46437D01*
X401618Y46403D01*
X402009Y46360D01*
X402398Y46307D01*
X402785Y46244D01*
X403171Y46173D01*
X403556Y46091D01*
X403938Y46001D01*
X404317Y45900D01*
X404695Y45791D01*
X405069Y45672D01*
X405440Y45545D01*
X405808Y45408D01*
X406173Y45262D01*
X406534Y45107D01*
X406891Y44944D01*
X407244Y44772D01*
X407592Y44591D01*
X407936Y44401D01*
X408276Y44204D01*
X408610Y43998D01*
X408939Y43784D01*
X409263Y43561D01*
X409581Y43331D01*
X409894Y43094D01*
X410200Y42848D01*
X410501Y42595D01*
X410795Y42335D01*
X411083Y42068D01*
X411364Y41794D01*
X411638Y41513D01*
X411905Y41225D01*
X412165Y40931D01*
X412418Y40630D01*
X412664Y40324D01*
X412901Y40011D01*
X413131Y39693D01*
X413354Y39369D01*
X413568Y39040D01*
X413774Y38706D01*
X413971Y38366D01*
X414161Y38022D01*
X414342Y37674D01*
X414514Y37321D01*
X414677Y36964D01*
X414832Y36603D01*
X414978Y36238D01*
X415115Y35870D01*
X415242Y35499D01*
X415361Y35125D01*
X415470Y34747D01*
X415571Y34368D01*
X415661Y33986D01*
X415743Y33601D01*
X415814Y33215D01*
X415877Y32828D01*
X415930Y32439D01*
X415973Y32048D01*
X416007Y31657D01*
X416031Y31265D01*
X416045Y30873D01*
X416050Y30480D01*
X416045Y30087D01*
X416031Y29695D01*
X416007Y29303D01*
X415973Y28912D01*
X415930Y28521D01*
X415877Y28132D01*
X415814Y27745D01*
X415743Y27359D01*
X415661Y26974D01*
X415571Y26592D01*
X415470Y26213D01*
X415361Y25835D01*
X415242Y25461D01*
X415115Y25090D01*
X414978Y24722D01*
X414832Y24357D01*
X414677Y23996D01*
X414514Y23639D01*
X414342Y23286D01*
X414161Y22938D01*
X413971Y22594D01*
X413774Y22254D01*
X413568Y21920D01*
X413354Y21591D01*
X413131Y21267D01*
X412901Y20949D01*
X412664Y20636D01*
X412418Y20330D01*
X412165Y20029D01*
X411905Y19735D01*
X411638Y19447D01*
X411364Y19166D01*
X411083Y18892D01*
X410795Y18625D01*
X410501Y18365D01*
X410200Y18112D01*
X409894Y17866D01*
X409581Y17629D01*
X409263Y17399D01*
X408939Y17176D01*
X408610Y16962D01*
X408276Y16756D01*
X407936Y16559D01*
X407592Y16369D01*
X407244Y16188D01*
X406891Y16016D01*
X406534Y15853D01*
X406173Y15698D01*
X405808Y15552D01*
X405440Y15415D01*
X405069Y15288D01*
X404695Y15169D01*
X404317Y15060D01*
X403938Y14959D01*
X403556Y14869D01*
X403171Y14787D01*
X402785Y14716D01*
X402398Y14653D01*
X402009Y14600D01*
X401618Y14557D01*
X401227Y14523D01*
X400835Y14499D01*
X400443Y14485D01*
X400050Y14480D01*
X399657Y14485D01*
X399265Y14499D01*
X398873Y14523D01*
X398482Y14557D01*
X398091Y14600D01*
X397702Y14653D01*
X397315Y14716D01*
X396929Y14787D01*
X396544Y14869D01*
X396162Y14959D01*
X395783Y15060D01*
X395405Y15169D01*
X395031Y15288D01*
X394660Y15415D01*
X394292Y15552D01*
X393927Y15698D01*
X393566Y15853D01*
X393209Y16016D01*
X392856Y16188D01*
X392508Y16369D01*
X392164Y16559D01*
X391824Y16756D01*
X391490Y16962D01*
X391161Y17176D01*
X390837Y17399D01*
X390519Y17629D01*
X390206Y17866D01*
X389900Y18112D01*
X389599Y18365D01*
X389305Y18625D01*
X389017Y18892D01*
X388736Y19166D01*
X388462Y19447D01*
X388195Y19735D01*
X387935Y20029D01*
X387682Y20330D01*
X387436Y20636D01*
X387199Y20949D01*
X386969Y21267D01*
X386746Y21591D01*
X386532Y21920D01*
X386326Y22254D01*
X386129Y22594D01*
X385939Y22938D01*
X385758Y23286D01*
X385586Y23639D01*
X385423Y23996D01*
X385268Y24357D01*
X385122Y24722D01*
X384985Y25090D01*
X384858Y25461D01*
X384739Y25835D01*
X384630Y26213D01*
X384529Y26592D01*
X384439Y26974D01*
X384357Y27359D01*
X384286Y27745D01*
X384223Y28132D01*
X384170Y28521D01*
X384127Y28912D01*
X384093Y29303D01*
X384069Y29695D01*
X384055Y30087D01*
X384050Y30480D01*
D12*
X0Y12700D02*
X254000Y12700D01*
X254000Y0D01*
X431800Y0D01*
X431800Y279400D01*
X254000Y279400D01*
X254000Y266700D01*
X0Y266700D01*
X0Y12700D01*
X384050Y248174D02*
X384119Y249219D01*
X384255Y250258D01*
X384460Y251285D01*
X384731Y252297D01*
X385067Y253289D01*
X385468Y254257D01*
X385932Y255196D01*
X386456Y256104D01*
X387038Y256975D01*
X387675Y257806D01*
X388366Y258593D01*
X389107Y259334D01*
X389894Y260025D01*
X390725Y260663D01*
X391596Y261245D01*
X392504Y261768D01*
X393443Y262232D01*
X394411Y262633D01*
X395403Y262969D01*
X396415Y263240D01*
X397442Y263445D01*
X398481Y263582D01*
X399526Y263650D01*
X400574Y263650D01*
X401619Y263582D01*
X402658Y263445D01*
X403685Y263240D01*
X404697Y262969D01*
X405689Y262633D01*
X406657Y262232D01*
X407596Y261768D01*
X408504Y261245D01*
X409375Y260663D01*
X410206Y260025D01*
X410993Y259334D01*
X411734Y258593D01*
X412425Y257806D01*
X413063Y256975D01*
X413645Y256104D01*
X414168Y255196D01*
X414632Y254257D01*
X415033Y253289D01*
X415369Y252297D01*
X415640Y251285D01*
X415845Y250258D01*
X415982Y249219D01*
X416050Y248174D01*
X416050Y247126D01*
X415982Y246081D01*
X415845Y245042D01*
X415640Y244015D01*
X415369Y243003D01*
X415033Y242011D01*
X414632Y241043D01*
X414168Y240104D01*
X413645Y239196D01*
X413063Y238325D01*
X412425Y237494D01*
X411734Y236707D01*
X410993Y235966D01*
X410206Y235275D01*
X409375Y234638D01*
X408504Y234056D01*
X407596Y233532D01*
X406657Y233068D01*
X405689Y232667D01*
X404697Y232331D01*
X403685Y232060D01*
X402658Y231855D01*
X401619Y231719D01*
X400574Y231650D01*
X399526Y231650D01*
X398481Y231719D01*
X397442Y231855D01*
X396415Y232060D01*
X395403Y232331D01*
X394411Y232667D01*
X393443Y233068D01*
X392504Y233532D01*
X391596Y234056D01*
X390725Y234638D01*
X389894Y235275D01*
X389107Y235966D01*
X388366Y236707D01*
X387675Y237494D01*
X387038Y238325D01*
X386456Y239196D01*
X385932Y240104D01*
X385468Y241043D01*
X385067Y242011D01*
X384731Y243003D01*
X384460Y244015D01*
X384255Y245042D01*
X384119Y246081D01*
X384050Y247126D01*
X384050Y248174D01*
X269750Y248174D02*
X269819Y249219D01*
X269955Y250258D01*
X270160Y251285D01*
X270431Y252297D01*
X270767Y253289D01*
X271168Y254257D01*
X271632Y255196D01*
X272156Y256104D01*
X272738Y256975D01*
X273375Y257806D01*
X274066Y258593D01*
X274807Y259334D01*
X275594Y260025D01*
X276425Y260663D01*
X277296Y261245D01*
X278204Y261768D01*
X279143Y262232D01*
X280111Y262633D01*
X281103Y262969D01*
X282115Y263240D01*
X283142Y263445D01*
X284181Y263582D01*
X285226Y263650D01*
X286274Y263650D01*
X287319Y263582D01*
X288358Y263445D01*
X289385Y263240D01*
X290397Y262969D01*
X291389Y262633D01*
X292357Y262232D01*
X293296Y261768D01*
X294204Y261245D01*
X295075Y260663D01*
X295906Y260025D01*
X296693Y259334D01*
X297434Y258593D01*
X298125Y257806D01*
X298763Y256975D01*
X299345Y256104D01*
X299868Y255196D01*
X300332Y254257D01*
X300733Y253289D01*
X301069Y252297D01*
X301340Y251285D01*
X301545Y250258D01*
X301682Y249219D01*
X301750Y248174D01*
X301750Y247126D01*
X301682Y246081D01*
X301545Y245042D01*
X301340Y244015D01*
X301069Y243003D01*
X300733Y242011D01*
X300332Y241043D01*
X299868Y240104D01*
X299345Y239196D01*
X298763Y238325D01*
X298125Y237494D01*
X297434Y236707D01*
X296693Y235966D01*
X295906Y235275D01*
X295075Y234638D01*
X294204Y234056D01*
X293296Y233532D01*
X292357Y233068D01*
X291389Y232667D01*
X290397Y232331D01*
X289385Y232060D01*
X288358Y231855D01*
X287319Y231719D01*
X286274Y231650D01*
X285226Y231650D01*
X284181Y231719D01*
X283142Y231855D01*
X282115Y232060D01*
X281103Y232331D01*
X280111Y232667D01*
X279143Y233068D01*
X278204Y233532D01*
X277296Y234056D01*
X276425Y234638D01*
X275594Y235275D01*
X274807Y235966D01*
X274066Y236707D01*
X273375Y237494D01*
X272738Y238325D01*
X272156Y239196D01*
X271632Y240104D01*
X271168Y241043D01*
X270767Y242011D01*
X270431Y243003D01*
X270160Y244015D01*
X269955Y245042D01*
X269819Y246081D01*
X269750Y247126D01*
X269750Y248174D01*
X229140Y54610D02*
X230219Y54539D01*
X231291Y54398D01*
X232351Y54187D01*
X233395Y53908D01*
X234419Y53560D01*
X235417Y53146D01*
X236387Y52668D01*
X237323Y52128D01*
X238222Y51527D01*
X239079Y50869D01*
X239892Y50157D01*
X240657Y49392D01*
X241369Y48579D01*
X242027Y47722D01*
X242628Y46823D01*
X243168Y45887D01*
X243646Y44917D01*
X244060Y43919D01*
X244408Y42895D01*
X244687Y41851D01*
X244898Y40791D01*
X245039Y39719D01*
X245110Y38640D01*
X245110Y37560D01*
X245039Y36481D01*
X244898Y35409D01*
X244687Y34349D01*
X244408Y33305D01*
X244060Y32281D01*
X243646Y31283D01*
X243168Y30313D01*
X242628Y29377D01*
X242027Y28478D01*
X241369Y27621D01*
X240657Y26808D01*
X239892Y26044D01*
X239079Y25331D01*
X238222Y24673D01*
X237323Y24072D01*
X236387Y23532D01*
X235417Y23054D01*
X234419Y22640D01*
X233395Y22292D01*
X232351Y22013D01*
X231291Y21802D01*
X230219Y21661D01*
X229140Y21590D01*
X228060Y21590D01*
X226981Y21661D01*
X225909Y21802D01*
X224849Y22013D01*
X223805Y22292D01*
X222781Y22640D01*
X221783Y23054D01*
X220813Y23532D01*
X219877Y24072D01*
X218978Y24673D01*
X218121Y25331D01*
X217308Y26044D01*
X216544Y26808D01*
X215831Y27621D01*
X215173Y28478D01*
X214572Y29377D01*
X214032Y30313D01*
X213554Y31283D01*
X213140Y32281D01*
X212792Y33305D01*
X212513Y34349D01*
X212302Y35409D01*
X212161Y36481D01*
X212090Y37560D01*
X212090Y38640D01*
X212161Y39719D01*
X212302Y40791D01*
X212513Y41851D01*
X212792Y42895D01*
X213140Y43919D01*
X213554Y44917D01*
X214032Y45887D01*
X214572Y46823D01*
X215173Y47722D01*
X215831Y48579D01*
X216544Y49392D01*
X217308Y50157D01*
X218121Y50869D01*
X218978Y51527D01*
X219877Y52128D01*
X220813Y52668D01*
X221783Y53146D01*
X222781Y53560D01*
X223805Y53908D01*
X224849Y54187D01*
X225909Y54398D01*
X226981Y54539D01*
X228060Y54610D01*
X229140Y54610D01*
X229140Y257810D02*
X230219Y257739D01*
X231291Y257598D01*
X232351Y257387D01*
X233395Y257108D01*
X234419Y256760D01*
X235417Y256346D01*
X236387Y255868D01*
X237323Y255328D01*
X238222Y254727D01*
X239079Y254069D01*
X239892Y253357D01*
X240657Y252592D01*
X241369Y251779D01*
X242027Y250922D01*
X242628Y250023D01*
X243168Y249087D01*
X243646Y248117D01*
X244060Y247119D01*
X244408Y246095D01*
X244687Y245051D01*
X244898Y243991D01*
X245039Y242919D01*
X245110Y241840D01*
X245110Y240760D01*
X245039Y239681D01*
X244898Y238609D01*
X244687Y237549D01*
X244408Y236505D01*
X244060Y235481D01*
X243646Y234483D01*
X243168Y233513D01*
X242628Y232577D01*
X242027Y231678D01*
X241369Y230821D01*
X240657Y230008D01*
X239892Y229244D01*
X239079Y228531D01*
X238222Y227873D01*
X237323Y227272D01*
X236387Y226732D01*
X235417Y226254D01*
X234419Y225840D01*
X233395Y225492D01*
X232351Y225213D01*
X231291Y225002D01*
X230219Y224861D01*
X229140Y224790D01*
X228060Y224790D01*
X226981Y224861D01*
X225909Y225002D01*
X224849Y225213D01*
X223805Y225492D01*
X222781Y225840D01*
X221783Y226254D01*
X220813Y226732D01*
X219877Y227272D01*
X218978Y227873D01*
X218121Y228531D01*
X217308Y229244D01*
X216544Y230008D01*
X215831Y230821D01*
X215173Y231678D01*
X214572Y232577D01*
X214032Y233513D01*
X213554Y234483D01*
X213140Y235481D01*
X212792Y236505D01*
X212513Y237549D01*
X212302Y238609D01*
X212161Y239681D01*
X212090Y240760D01*
X212090Y241840D01*
X212161Y242919D01*
X212302Y243991D01*
X212513Y245051D01*
X212792Y246095D01*
X213140Y247119D01*
X213554Y248117D01*
X214032Y249087D01*
X214572Y250023D01*
X215173Y250922D01*
X215831Y251779D01*
X216544Y252592D01*
X217308Y253357D01*
X218121Y254069D01*
X218978Y254727D01*
X219877Y255328D01*
X220813Y255868D01*
X221783Y256346D01*
X222781Y256760D01*
X223805Y257108D01*
X224849Y257387D01*
X225909Y257598D01*
X226981Y257739D01*
X228060Y257810D01*
X229140Y257810D01*
X25940Y54610D02*
X27019Y54539D01*
X28091Y54398D01*
X29151Y54187D01*
X30195Y53908D01*
X31219Y53560D01*
X32217Y53146D01*
X33187Y52668D01*
X34123Y52128D01*
X35022Y51527D01*
X35879Y50869D01*
X36692Y50157D01*
X37457Y49392D01*
X38169Y48579D01*
X38827Y47722D01*
X39428Y46823D01*
X39968Y45887D01*
X40446Y44917D01*
X40860Y43919D01*
X41208Y42895D01*
X41487Y41851D01*
X41698Y40791D01*
X41839Y39719D01*
X41910Y38640D01*
X41910Y37560D01*
X41839Y36481D01*
X41698Y35409D01*
X41487Y34349D01*
X41208Y33305D01*
X40860Y32281D01*
X40446Y31283D01*
X39968Y30313D01*
X39428Y29377D01*
X38827Y28478D01*
X38169Y27621D01*
X37457Y26808D01*
X36692Y26044D01*
X35879Y25331D01*
X35022Y24673D01*
X34123Y24072D01*
X33187Y23532D01*
X32217Y23054D01*
X31219Y22640D01*
X30195Y22292D01*
X29151Y22013D01*
X28091Y21802D01*
X27019Y21661D01*
X25940Y21590D01*
X24860Y21590D01*
X23781Y21661D01*
X22709Y21802D01*
X21649Y22013D01*
X20605Y22292D01*
X19581Y22640D01*
X18583Y23054D01*
X17613Y23532D01*
X16677Y24072D01*
X15778Y24673D01*
X14921Y25331D01*
X14108Y26044D01*
X13344Y26808D01*
X12631Y27621D01*
X11973Y28478D01*
X11372Y29377D01*
X10832Y30313D01*
X10354Y31283D01*
X9940Y32281D01*
X9592Y33305D01*
X9313Y34349D01*
X9102Y35409D01*
X8961Y36481D01*
X8890Y37560D01*
X8890Y38640D01*
X8961Y39719D01*
X9102Y40791D01*
X9313Y41851D01*
X9592Y42895D01*
X9940Y43919D01*
X10354Y44917D01*
X10832Y45887D01*
X11372Y46823D01*
X11973Y47722D01*
X12631Y48579D01*
X13344Y49392D01*
X14108Y50157D01*
X14921Y50869D01*
X15778Y51527D01*
X16677Y52128D01*
X17613Y52668D01*
X18583Y53146D01*
X19581Y53560D01*
X20605Y53908D01*
X21649Y54187D01*
X22709Y54398D01*
X23781Y54539D01*
X24860Y54610D01*
X25940Y54610D01*
X25940Y257810D02*
X27019Y257739D01*
X28091Y257598D01*
X29151Y257387D01*
X30195Y257108D01*
X31219Y256760D01*
X32217Y256346D01*
X33187Y255868D01*
X34123Y255328D01*
X35022Y254727D01*
X35879Y254069D01*
X36692Y253357D01*
X37457Y252592D01*
X38169Y251779D01*
X38827Y250922D01*
X39428Y250023D01*
X39968Y249087D01*
X40446Y248117D01*
X40860Y247119D01*
X41208Y246095D01*
X41487Y245051D01*
X41698Y243991D01*
X41839Y242919D01*
X41910Y241840D01*
X41910Y240760D01*
X41839Y239681D01*
X41698Y238609D01*
X41487Y237549D01*
X41208Y236505D01*
X40860Y235481D01*
X40446Y234483D01*
X39968Y233513D01*
X39428Y232577D01*
X38827Y231678D01*
X38169Y230821D01*
X37457Y230008D01*
X36692Y229244D01*
X35879Y228531D01*
X35022Y227873D01*
X34123Y227272D01*
X33187Y226732D01*
X32217Y226254D01*
X31219Y225840D01*
X30195Y225492D01*
X29151Y225213D01*
X28091Y225002D01*
X27019Y224861D01*
X25940Y224790D01*
X24860Y224790D01*
X23781Y224861D01*
X22709Y225002D01*
X21649Y225213D01*
X20605Y225492D01*
X19581Y225840D01*
X18583Y226254D01*
X17613Y226732D01*
X16677Y227272D01*
X15778Y227873D01*
X14921Y228531D01*
X14108Y229244D01*
X13344Y230008D01*
X12631Y230821D01*
X11973Y231678D01*
X11372Y232577D01*
X10832Y233513D01*
X10354Y234483D01*
X9940Y235481D01*
X9592Y236505D01*
X9313Y237549D01*
X9102Y238609D01*
X8961Y239681D01*
X8890Y240760D01*
X8890Y241840D01*
X8961Y242919D01*
X9102Y243991D01*
X9313Y245051D01*
X9592Y246095D01*
X9940Y247119D01*
X10354Y248117D01*
X10832Y249087D01*
X11372Y250023D01*
X11973Y250922D01*
X12631Y251779D01*
X13344Y252592D01*
X14108Y253357D01*
X14921Y254069D01*
X15778Y254727D01*
X16677Y255328D01*
X17613Y255868D01*
X18583Y256346D01*
X19581Y256760D01*
X20605Y257108D01*
X21649Y257387D01*
X22709Y257598D01*
X23781Y257739D01*
X24860Y257810D01*
X25940Y257810D01*
X301750Y29956D02*
X301682Y28911D01*
X301545Y27872D01*
X301340Y26845D01*
X301069Y25833D01*
X300733Y24841D01*
X300332Y23873D01*
X299868Y22934D01*
X299345Y22026D01*
X298763Y21155D01*
X298125Y20324D01*
X297434Y19537D01*
X296693Y18796D01*
X295906Y18105D01*
X295075Y17468D01*
X294204Y16886D01*
X293296Y16362D01*
X292357Y15898D01*
X291389Y15497D01*
X290397Y15161D01*
X289385Y14890D01*
X288358Y14685D01*
X287319Y14549D01*
X286274Y14480D01*
X285226Y14480D01*
X284181Y14549D01*
X283142Y14685D01*
X282115Y14890D01*
X281103Y15161D01*
X280111Y15497D01*
X279143Y15898D01*
X278204Y16362D01*
X277296Y16886D01*
X276425Y17468D01*
X275594Y18105D01*
X274807Y18796D01*
X274066Y19537D01*
X273375Y20324D01*
X272738Y21155D01*
X272156Y22026D01*
X271632Y22934D01*
X271168Y23873D01*
X270767Y24841D01*
X270431Y25833D01*
X270160Y26845D01*
X269955Y27872D01*
X269819Y28911D01*
X269750Y29956D01*
X269750Y31004D01*
X269819Y32049D01*
X269955Y33088D01*
X270160Y34115D01*
X270431Y35127D01*
X270767Y36119D01*
X271168Y37087D01*
X271632Y38026D01*
X272156Y38934D01*
X272738Y39805D01*
X273375Y40636D01*
X274066Y41423D01*
X274807Y42164D01*
X275594Y42855D01*
X276425Y43493D01*
X277296Y44075D01*
X278204Y44598D01*
X279143Y45062D01*
X280111Y45463D01*
X281103Y45799D01*
X282115Y46070D01*
X283142Y46275D01*
X284181Y46412D01*
X285226Y46480D01*
X286274Y46480D01*
X287319Y46412D01*
X288358Y46275D01*
X289385Y46070D01*
X290397Y45799D01*
X291389Y45463D01*
X292357Y45062D01*
X293296Y44598D01*
X294204Y44075D01*
X295075Y43493D01*
X295906Y42855D01*
X296693Y42164D01*
X297434Y41423D01*
X298125Y40636D01*
X298763Y39805D01*
X299345Y38934D01*
X299868Y38026D01*
X300332Y37087D01*
X300733Y36119D01*
X301069Y35127D01*
X301340Y34115D01*
X301545Y33088D01*
X301682Y32049D01*
X301750Y31004D01*
X301750Y29956D01*
X416050Y29956D02*
X415982Y28911D01*
X415845Y27872D01*
X415640Y26845D01*
X415369Y25833D01*
X415033Y24841D01*
X414632Y23873D01*
X414168Y22934D01*
X413645Y22026D01*
X413063Y21155D01*
X412425Y20324D01*
X411734Y19537D01*
X410993Y18796D01*
X410206Y18105D01*
X409375Y17468D01*
X408504Y16886D01*
X407596Y16362D01*
X406657Y15898D01*
X405689Y15497D01*
X404697Y15161D01*
X403685Y14890D01*
X402658Y14685D01*
X401619Y14549D01*
X400574Y14480D01*
X399526Y14480D01*
X398481Y14549D01*
X397442Y14685D01*
X396415Y14890D01*
X395403Y15161D01*
X394411Y15497D01*
X393443Y15898D01*
X392504Y16362D01*
X391596Y16886D01*
X390725Y17468D01*
X389894Y18105D01*
X389107Y18796D01*
X388366Y19537D01*
X387675Y20324D01*
X387038Y21155D01*
X386456Y22026D01*
X385932Y22934D01*
X385468Y23873D01*
X385067Y24841D01*
X384731Y25833D01*
X384460Y26845D01*
X384255Y27872D01*
X384119Y28911D01*
X384050Y29956D01*
X384050Y31004D01*
X384119Y32049D01*
X384255Y33088D01*
X384460Y34115D01*
X384731Y35127D01*
X385067Y36119D01*
X385468Y37087D01*
X385932Y38026D01*
X386456Y38934D01*
X387038Y39805D01*
X387675Y40636D01*
X388366Y41423D01*
X389107Y42164D01*
X389894Y42855D01*
X390725Y43493D01*
X391596Y44075D01*
X392504Y44598D01*
X393443Y45062D01*
X394411Y45463D01*
X395403Y45799D01*
X396415Y46070D01*
X397442Y46275D01*
X398481Y46412D01*
X399526Y46480D01*
X400574Y46480D01*
X401619Y46412D01*
X402658Y46275D01*
X403685Y46070D01*
X404697Y45799D01*
X405689Y45463D01*
X406657Y45062D01*
X407596Y44598D01*
X408504Y44075D01*
X409375Y43493D01*
X410206Y42855D01*
X410993Y42164D01*
X411734Y41423D01*
X412425Y40636D01*
X413063Y39805D01*
X413645Y38934D01*
X414168Y38026D01*
X414632Y37087D01*
X415033Y36119D01*
X415369Y35127D01*
X415640Y34115D01*
X415845Y33088D01*
X415982Y32049D01*
X416050Y31004D01*
X416050Y29956D01*
M02*
