G04 EAGLE Gerber RS-274X export*
G75*
%MOMM*%
%FSLAX34Y34*%
%LPD*%
%INSoldermask Top*%
%IPPOS*%
%AMOC8*
5,1,8,0,0,1.08239X$1,22.5*%
G01*
%ADD10R,1.403200X2.203200*%
%ADD11R,0.803200X1.553200*%
%ADD12R,1.303200X0.453200*%
%ADD13R,1.303200X1.203200*%
%ADD14C,2.082800*%
%ADD15R,2.082800X2.082800*%
%ADD16C,3.403200*%
%ADD17R,1.203200X1.303200*%
%ADD18R,0.863600X1.473200*%
%ADD19C,3.505200*%
%ADD20C,0.838200*%
%ADD21C,0.505344*%
%ADD22R,1.473200X0.863600*%
%ADD23R,1.553200X0.753200*%
%ADD24R,1.346200X4.292600*%
%ADD25R,1.803200X2.003200*%
%ADD26R,1.473200X2.263200*%
%ADD27R,1.203200X1.003200*%
%ADD28R,0.903200X1.703200*%
%ADD29C,1.103200*%

G36*
X73725Y58432D02*
X73725Y58432D01*
X73791Y58434D01*
X73834Y58452D01*
X73881Y58460D01*
X73938Y58494D01*
X73998Y58519D01*
X74033Y58550D01*
X74074Y58575D01*
X74116Y58626D01*
X74164Y58670D01*
X74186Y58712D01*
X74215Y58749D01*
X74236Y58811D01*
X74267Y58870D01*
X74275Y58924D01*
X74287Y58961D01*
X74286Y59001D01*
X74294Y59055D01*
X74294Y62865D01*
X74283Y62930D01*
X74281Y62996D01*
X74263Y63039D01*
X74255Y63086D01*
X74221Y63143D01*
X74196Y63203D01*
X74165Y63238D01*
X74140Y63279D01*
X74089Y63321D01*
X74045Y63369D01*
X74003Y63391D01*
X73966Y63420D01*
X73904Y63441D01*
X73845Y63472D01*
X73791Y63480D01*
X73754Y63492D01*
X73714Y63491D01*
X73660Y63499D01*
X71120Y63499D01*
X71055Y63488D01*
X70989Y63486D01*
X70946Y63468D01*
X70899Y63460D01*
X70842Y63426D01*
X70782Y63401D01*
X70747Y63370D01*
X70706Y63345D01*
X70665Y63294D01*
X70616Y63250D01*
X70594Y63208D01*
X70565Y63171D01*
X70544Y63109D01*
X70513Y63050D01*
X70505Y62996D01*
X70493Y62959D01*
X70493Y62955D01*
X70493Y62954D01*
X70494Y62919D01*
X70486Y62865D01*
X70486Y59055D01*
X70497Y58990D01*
X70499Y58924D01*
X70517Y58881D01*
X70525Y58834D01*
X70559Y58777D01*
X70584Y58717D01*
X70615Y58682D01*
X70640Y58641D01*
X70691Y58600D01*
X70735Y58551D01*
X70777Y58529D01*
X70814Y58500D01*
X70876Y58479D01*
X70935Y58448D01*
X70989Y58440D01*
X71026Y58428D01*
X71066Y58429D01*
X71120Y58421D01*
X73660Y58421D01*
X73725Y58432D01*
G37*
G36*
X248350Y106057D02*
X248350Y106057D01*
X248416Y106059D01*
X248459Y106077D01*
X248506Y106085D01*
X248563Y106119D01*
X248623Y106144D01*
X248658Y106175D01*
X248699Y106200D01*
X248741Y106251D01*
X248789Y106295D01*
X248811Y106337D01*
X248840Y106374D01*
X248861Y106436D01*
X248892Y106495D01*
X248900Y106549D01*
X248912Y106586D01*
X248911Y106626D01*
X248919Y106680D01*
X248919Y109220D01*
X248908Y109285D01*
X248906Y109351D01*
X248888Y109394D01*
X248880Y109441D01*
X248846Y109498D01*
X248821Y109558D01*
X248790Y109593D01*
X248765Y109634D01*
X248714Y109676D01*
X248670Y109724D01*
X248628Y109746D01*
X248591Y109775D01*
X248529Y109796D01*
X248470Y109827D01*
X248416Y109835D01*
X248379Y109847D01*
X248339Y109846D01*
X248285Y109854D01*
X244475Y109854D01*
X244410Y109843D01*
X244344Y109841D01*
X244301Y109823D01*
X244254Y109815D01*
X244197Y109781D01*
X244137Y109756D01*
X244102Y109725D01*
X244061Y109700D01*
X244020Y109649D01*
X243971Y109605D01*
X243949Y109563D01*
X243920Y109526D01*
X243899Y109464D01*
X243868Y109405D01*
X243860Y109351D01*
X243848Y109314D01*
X243848Y109311D01*
X243849Y109274D01*
X243841Y109220D01*
X243841Y106680D01*
X243852Y106615D01*
X243854Y106549D01*
X243872Y106506D01*
X243880Y106459D01*
X243914Y106402D01*
X243939Y106342D01*
X243970Y106307D01*
X243995Y106266D01*
X244046Y106225D01*
X244090Y106176D01*
X244132Y106154D01*
X244169Y106125D01*
X244231Y106104D01*
X244290Y106073D01*
X244344Y106065D01*
X244381Y106053D01*
X244421Y106054D01*
X244475Y106046D01*
X248285Y106046D01*
X248350Y106057D01*
G37*
G36*
X238190Y106057D02*
X238190Y106057D01*
X238256Y106059D01*
X238299Y106077D01*
X238346Y106085D01*
X238403Y106119D01*
X238463Y106144D01*
X238498Y106175D01*
X238539Y106200D01*
X238581Y106251D01*
X238629Y106295D01*
X238651Y106337D01*
X238680Y106374D01*
X238701Y106436D01*
X238732Y106495D01*
X238740Y106549D01*
X238752Y106586D01*
X238751Y106626D01*
X238759Y106680D01*
X238759Y109220D01*
X238748Y109285D01*
X238746Y109351D01*
X238728Y109394D01*
X238720Y109441D01*
X238686Y109498D01*
X238661Y109558D01*
X238630Y109593D01*
X238605Y109634D01*
X238554Y109676D01*
X238510Y109724D01*
X238468Y109746D01*
X238431Y109775D01*
X238369Y109796D01*
X238310Y109827D01*
X238256Y109835D01*
X238219Y109847D01*
X238179Y109846D01*
X238125Y109854D01*
X234315Y109854D01*
X234250Y109843D01*
X234184Y109841D01*
X234141Y109823D01*
X234094Y109815D01*
X234037Y109781D01*
X233977Y109756D01*
X233942Y109725D01*
X233901Y109700D01*
X233860Y109649D01*
X233811Y109605D01*
X233789Y109563D01*
X233760Y109526D01*
X233739Y109464D01*
X233708Y109405D01*
X233700Y109351D01*
X233688Y109314D01*
X233688Y109311D01*
X233689Y109274D01*
X233681Y109220D01*
X233681Y106680D01*
X233692Y106615D01*
X233694Y106549D01*
X233712Y106506D01*
X233720Y106459D01*
X233754Y106402D01*
X233779Y106342D01*
X233810Y106307D01*
X233835Y106266D01*
X233886Y106225D01*
X233930Y106176D01*
X233972Y106154D01*
X234009Y106125D01*
X234071Y106104D01*
X234130Y106073D01*
X234184Y106065D01*
X234221Y106053D01*
X234261Y106054D01*
X234315Y106046D01*
X238125Y106046D01*
X238190Y106057D01*
G37*
D10*
X99000Y26750D03*
X155000Y26750D03*
D11*
X112000Y63500D03*
X122000Y63500D03*
X132000Y63500D03*
X142000Y63500D03*
D12*
X218710Y134875D03*
X218710Y139875D03*
X218710Y144875D03*
X218710Y149875D03*
X218710Y129825D03*
X264960Y134875D03*
X264960Y139875D03*
X264960Y144875D03*
X264960Y149875D03*
X264960Y129825D03*
D10*
X155000Y252650D03*
X99000Y252650D03*
D11*
X142000Y215900D03*
X132000Y215900D03*
X122000Y215900D03*
X112000Y215900D03*
D13*
X224400Y190500D03*
X207400Y190500D03*
X258200Y171450D03*
X275200Y171450D03*
X224400Y171450D03*
X207400Y171450D03*
X258200Y190500D03*
X275200Y190500D03*
D14*
X323850Y158750D03*
X336550Y184150D03*
X349250Y158750D03*
X374650Y158750D03*
X400050Y158750D03*
X361950Y184150D03*
X387350Y184150D03*
D15*
X412750Y184150D03*
D16*
X425450Y247650D03*
X311150Y247650D03*
D17*
X215900Y115180D03*
X215900Y98180D03*
X269240Y115180D03*
X269240Y98180D03*
D18*
X251714Y107950D03*
X241300Y107950D03*
X230886Y107950D03*
D19*
X228600Y241300D03*
X25400Y38100D03*
X25400Y241300D03*
D20*
X50800Y50800D03*
X450850Y247650D03*
D14*
X412750Y119380D03*
X400050Y93980D03*
X387350Y119380D03*
X361950Y119380D03*
X336550Y119380D03*
X374650Y93980D03*
X349250Y93980D03*
D15*
X323850Y93980D03*
D16*
X311150Y30480D03*
X425450Y30480D03*
D13*
X80890Y40640D03*
X63890Y40640D03*
D21*
X77670Y28890D02*
X77670Y21910D01*
X77670Y28890D02*
X84650Y28890D01*
X84650Y21910D01*
X77670Y21910D01*
X77670Y26710D02*
X84650Y26710D01*
X60130Y28890D02*
X60130Y21910D01*
X60130Y28890D02*
X67110Y28890D01*
X67110Y21910D01*
X60130Y21910D01*
X60130Y26710D02*
X67110Y26710D01*
D22*
X72390Y66167D03*
X72390Y55753D03*
D14*
X12700Y190500D03*
X12700Y165100D03*
X12700Y139700D03*
X12700Y114300D03*
X469900Y127000D03*
X469900Y152400D03*
D23*
X160436Y111150D03*
X160436Y120650D03*
X160436Y130150D03*
X132934Y130150D03*
X132934Y120650D03*
X132934Y111150D03*
D24*
X116332Y121285D03*
X86868Y121285D03*
D13*
X135500Y90805D03*
X118500Y90805D03*
D25*
X88870Y184150D03*
X116870Y184150D03*
X88870Y158750D03*
X116870Y158750D03*
D26*
X136755Y151765D03*
X171855Y151765D03*
D27*
X274385Y42750D03*
X274385Y20750D03*
X171385Y20750D03*
X171385Y42750D03*
D28*
X237885Y49250D03*
X207885Y49250D03*
X192885Y49250D03*
X252885Y49250D03*
D29*
X197885Y31750D03*
X247885Y31750D03*
D14*
X12700Y88900D03*
M02*
