M48
;GenerationSoftware,Autodesk,EAGLE,9.6.0*%
;CreationDate,2020-08-25T17:03:29Z*%
FMAT,2
ICI,OFF
METRIC,TZ,000.000
T6C0.381
T5C0.900
T4C1.000
T3C1.016
T2C3.200
T1C3.302
%
G90
M71
T1
X2540Y24130
X22860Y24130
X2540Y3810
T2
X42545Y24765
X31115Y24765
X31115Y3048
X42545Y3048
T3
X1270Y8890
X1270Y19050
X1270Y16510
X1270Y13970
X1270Y11430
X46990Y12700
X46990Y15240
T4
X40005Y15875
X32385Y15875
X33655Y18415
X34925Y15875
X37465Y15875
X36195Y18415
X38735Y18415
X41275Y18415
X41275Y11938
X40005Y9398
X38735Y11938
X36195Y11938
X33655Y11938
X34925Y9398
X32385Y9398
X37465Y9398
T5
X19789Y3175
X24788Y3175
T6
X5080Y6223
X19280Y6242
X20053Y10160
X30731Y13840
X17336Y10985
X27178Y21336
X20574Y15621
X5271Y2540
X12700Y3810
X23407Y3024
X20447Y14351
X25654Y12065
X6350Y15240
X13970Y7607
X7366Y11176
X17780Y18288
X22733Y8700
X18352Y11747
X17907Y6731
X9017Y5969
X19304Y18288
X28130Y6731
X42482Y7366
X27495Y24257
X23114Y12827
X13462Y18923
X13716Y17272
X14478Y18288
X15621Y19050
X18796Y19431
X15113Y9779
X14478Y13589
X6223Y12700
X17399Y19304
X20066Y22098
X7366Y24511
X8128Y25273
X2540Y20828
X26670Y22860
X6350Y17780
X5969Y10287
X3810Y10160
M30