G04 EAGLE Gerber RS-274X export*
G75*
%MOMM*%
%FSLAX34Y34*%
%LPD*%
%INSilkscreen Bottom*%
%IPPOS*%
%AMOC8*
5,1,8,0,0,1.08239X$1,22.5*%
G01*
%ADD10C,0.203200*%
%ADD11C,0.152400*%

G36*
X142425Y18030D02*
X142425Y18030D01*
X142481Y18030D01*
X142509Y18045D01*
X142541Y18050D01*
X142600Y18090D01*
X142636Y18108D01*
X142645Y18120D01*
X142661Y18131D01*
X146969Y22439D01*
X146986Y22466D01*
X147010Y22487D01*
X147031Y22539D01*
X147060Y22586D01*
X147063Y22618D01*
X147075Y22648D01*
X147072Y22703D01*
X147077Y22759D01*
X147065Y22789D01*
X147063Y22821D01*
X147029Y22884D01*
X147015Y22921D01*
X147004Y22931D01*
X146995Y22948D01*
X142028Y29039D01*
X143217Y31349D01*
X143224Y31375D01*
X143241Y31407D01*
X144033Y33881D01*
X151852Y34675D01*
X151883Y34685D01*
X151915Y34686D01*
X151964Y34713D01*
X152016Y34731D01*
X152039Y34754D01*
X152067Y34769D01*
X152099Y34815D01*
X152138Y34854D01*
X152148Y34885D01*
X152167Y34911D01*
X152180Y34981D01*
X152193Y35019D01*
X152191Y35034D01*
X152194Y35053D01*
X152194Y41147D01*
X152187Y41178D01*
X152189Y41210D01*
X152167Y41261D01*
X152155Y41316D01*
X152134Y41340D01*
X152122Y41370D01*
X152080Y41406D01*
X152045Y41449D01*
X152015Y41462D01*
X151991Y41483D01*
X151922Y41504D01*
X151886Y41520D01*
X151871Y41520D01*
X151852Y41525D01*
X144033Y42319D01*
X143241Y44793D01*
X143228Y44816D01*
X143217Y44851D01*
X142028Y47161D01*
X146995Y53252D01*
X147009Y53280D01*
X147030Y53304D01*
X147046Y53357D01*
X147071Y53407D01*
X147071Y53439D01*
X147080Y53470D01*
X147070Y53525D01*
X147070Y53581D01*
X147055Y53609D01*
X147050Y53641D01*
X147010Y53700D01*
X146992Y53736D01*
X146980Y53745D01*
X146969Y53761D01*
X142661Y58069D01*
X142634Y58086D01*
X142613Y58110D01*
X142561Y58131D01*
X142514Y58160D01*
X142482Y58163D01*
X142452Y58175D01*
X142397Y58172D01*
X142341Y58177D01*
X142311Y58165D01*
X142279Y58163D01*
X142216Y58129D01*
X142179Y58115D01*
X142169Y58104D01*
X142152Y58095D01*
X136061Y53128D01*
X133751Y54317D01*
X133725Y54324D01*
X133693Y54341D01*
X131219Y55133D01*
X130425Y62952D01*
X130417Y62978D01*
X130416Y62990D01*
X130415Y62993D01*
X130414Y63015D01*
X130387Y63064D01*
X130369Y63116D01*
X130346Y63139D01*
X130331Y63167D01*
X130285Y63199D01*
X130246Y63238D01*
X130215Y63248D01*
X130189Y63267D01*
X130119Y63280D01*
X130081Y63293D01*
X130066Y63291D01*
X130047Y63294D01*
X123953Y63294D01*
X123922Y63287D01*
X123890Y63289D01*
X123839Y63267D01*
X123784Y63255D01*
X123760Y63234D01*
X123730Y63222D01*
X123694Y63180D01*
X123651Y63145D01*
X123638Y63115D01*
X123617Y63091D01*
X123596Y63022D01*
X123580Y62986D01*
X123580Y62971D01*
X123578Y62964D01*
X123577Y62962D01*
X123577Y62961D01*
X123575Y62952D01*
X122781Y55133D01*
X120307Y54341D01*
X120284Y54328D01*
X120249Y54317D01*
X117939Y53128D01*
X111848Y58095D01*
X111820Y58109D01*
X111796Y58130D01*
X111743Y58146D01*
X111693Y58171D01*
X111661Y58171D01*
X111630Y58180D01*
X111575Y58170D01*
X111519Y58170D01*
X111491Y58155D01*
X111459Y58150D01*
X111400Y58110D01*
X111365Y58092D01*
X111355Y58080D01*
X111339Y58069D01*
X107031Y53761D01*
X107014Y53734D01*
X106990Y53713D01*
X106969Y53661D01*
X106940Y53614D01*
X106937Y53582D01*
X106925Y53552D01*
X106929Y53497D01*
X106923Y53441D01*
X106935Y53411D01*
X106937Y53379D01*
X106971Y53316D01*
X106985Y53279D01*
X106996Y53269D01*
X107005Y53252D01*
X111972Y47161D01*
X110783Y44851D01*
X110776Y44825D01*
X110759Y44793D01*
X109967Y42319D01*
X102148Y41525D01*
X102117Y41515D01*
X102085Y41514D01*
X102036Y41487D01*
X101984Y41469D01*
X101961Y41446D01*
X101933Y41431D01*
X101901Y41385D01*
X101862Y41346D01*
X101852Y41315D01*
X101833Y41289D01*
X101820Y41219D01*
X101807Y41181D01*
X101809Y41166D01*
X101806Y41147D01*
X101806Y35053D01*
X101813Y35022D01*
X101811Y34990D01*
X101833Y34939D01*
X101845Y34884D01*
X101866Y34860D01*
X101878Y34830D01*
X101920Y34794D01*
X101955Y34751D01*
X101985Y34738D01*
X102009Y34717D01*
X102078Y34696D01*
X102114Y34680D01*
X102129Y34680D01*
X102148Y34675D01*
X109967Y33881D01*
X110759Y31407D01*
X110772Y31384D01*
X110783Y31349D01*
X111972Y29039D01*
X107005Y22948D01*
X106991Y22920D01*
X106970Y22896D01*
X106954Y22843D01*
X106929Y22793D01*
X106929Y22761D01*
X106920Y22730D01*
X106930Y22675D01*
X106930Y22619D01*
X106945Y22591D01*
X106950Y22559D01*
X106990Y22500D01*
X107008Y22465D01*
X107020Y22455D01*
X107031Y22439D01*
X111339Y18131D01*
X111366Y18114D01*
X111387Y18090D01*
X111439Y18069D01*
X111486Y18040D01*
X111518Y18037D01*
X111548Y18025D01*
X111603Y18029D01*
X111659Y18023D01*
X111689Y18035D01*
X111721Y18037D01*
X111784Y18071D01*
X111821Y18085D01*
X111831Y18096D01*
X111848Y18105D01*
X117939Y23072D01*
X120248Y21882D01*
X120312Y21866D01*
X120375Y21843D01*
X120396Y21845D01*
X120416Y21840D01*
X120481Y21854D01*
X120547Y21861D01*
X120565Y21872D01*
X120585Y21877D01*
X120637Y21918D01*
X120693Y21954D01*
X120706Y21973D01*
X120721Y21985D01*
X120737Y22020D01*
X120773Y22074D01*
X124361Y30736D01*
X124366Y30768D01*
X124380Y30796D01*
X124380Y30852D01*
X124389Y30907D01*
X124380Y30938D01*
X124380Y30969D01*
X124355Y31020D01*
X124339Y31073D01*
X124317Y31096D01*
X124303Y31125D01*
X124247Y31171D01*
X124220Y31199D01*
X124206Y31204D01*
X124191Y31217D01*
X122814Y31961D01*
X121648Y32945D01*
X120708Y34147D01*
X120034Y35515D01*
X119653Y36993D01*
X119581Y38517D01*
X119823Y40023D01*
X120367Y41449D01*
X121191Y42733D01*
X122260Y43822D01*
X123528Y44670D01*
X124943Y45240D01*
X126445Y45510D01*
X127970Y45467D01*
X129454Y45114D01*
X130835Y44464D01*
X132054Y43547D01*
X133060Y42400D01*
X133811Y41071D01*
X134274Y39618D01*
X134431Y38099D01*
X134288Y36650D01*
X133865Y35256D01*
X133179Y33972D01*
X132255Y32846D01*
X131129Y31922D01*
X129811Y31217D01*
X129786Y31196D01*
X129757Y31182D01*
X129722Y31139D01*
X129681Y31103D01*
X129668Y31073D01*
X129648Y31048D01*
X129636Y30994D01*
X129615Y30943D01*
X129617Y30910D01*
X129610Y30878D01*
X129624Y30809D01*
X129627Y30770D01*
X129635Y30756D01*
X129639Y30736D01*
X133227Y22074D01*
X133266Y22020D01*
X133298Y21963D01*
X133315Y21951D01*
X133328Y21934D01*
X133386Y21903D01*
X133441Y21865D01*
X133462Y21862D01*
X133481Y21852D01*
X133547Y21851D01*
X133613Y21841D01*
X133636Y21848D01*
X133654Y21847D01*
X133689Y21864D01*
X133752Y21882D01*
X136061Y23072D01*
X142152Y18105D01*
X142180Y18091D01*
X142204Y18070D01*
X142257Y18054D01*
X142307Y18029D01*
X142339Y18029D01*
X142370Y18020D01*
X142425Y18030D01*
G37*
G36*
X180159Y101018D02*
X180159Y101018D01*
X180204Y101030D01*
X180207Y101036D01*
X180215Y101039D01*
X180264Y101135D01*
X180261Y101144D01*
X180264Y101150D01*
X180264Y114750D01*
X180247Y114794D01*
X180235Y114839D01*
X180229Y114842D01*
X180226Y114850D01*
X180130Y114899D01*
X180121Y114896D01*
X180115Y114899D01*
X176815Y114899D01*
X176804Y114895D01*
X176792Y114897D01*
X176770Y114882D01*
X176768Y114881D01*
X176739Y114887D01*
X176715Y114899D01*
X135415Y114899D01*
X135403Y114895D01*
X135394Y114898D01*
X134694Y114798D01*
X134692Y114797D01*
X134690Y114797D01*
X134090Y114697D01*
X134082Y114692D01*
X134074Y114694D01*
X133374Y114494D01*
X133371Y114491D01*
X133368Y114492D01*
X132768Y114292D01*
X132758Y114283D01*
X132748Y114284D01*
X132148Y113984D01*
X132141Y113975D01*
X132132Y113974D01*
X131532Y113574D01*
X131528Y113568D01*
X131522Y113567D01*
X131022Y113167D01*
X131017Y113158D01*
X131009Y113156D01*
X130009Y112156D01*
X129998Y112129D01*
X129982Y112117D01*
X129686Y111525D01*
X129291Y110933D01*
X129286Y110909D01*
X129273Y110897D01*
X128873Y109697D01*
X128874Y109693D01*
X128872Y109691D01*
X128672Y108991D01*
X128674Y108966D01*
X128666Y108950D01*
X128666Y106950D01*
X128675Y106926D01*
X128672Y106909D01*
X128872Y106209D01*
X128874Y106206D01*
X128873Y106203D01*
X129072Y105606D01*
X129272Y104909D01*
X129294Y104880D01*
X129298Y104857D01*
X129694Y104362D01*
X130091Y103767D01*
X130097Y103763D01*
X130098Y103757D01*
X130498Y103257D01*
X130507Y103252D01*
X130509Y103244D01*
X131009Y102744D01*
X131019Y102740D01*
X131022Y102733D01*
X131522Y102333D01*
X131529Y102331D01*
X131532Y102326D01*
X132132Y101926D01*
X132143Y101923D01*
X132148Y101917D01*
X132748Y101617D01*
X132761Y101615D01*
X132768Y101608D01*
X133368Y101408D01*
X133372Y101409D01*
X133374Y101407D01*
X134074Y101207D01*
X134084Y101207D01*
X134090Y101203D01*
X134690Y101103D01*
X134693Y101103D01*
X134694Y101102D01*
X135394Y101002D01*
X135406Y101005D01*
X135415Y101001D01*
X180115Y101001D01*
X180159Y101018D01*
G37*
G36*
X352987Y234992D02*
X352987Y234992D01*
X352999Y234989D01*
X353499Y235089D01*
X353527Y235106D01*
X353559Y235115D01*
X353567Y235132D01*
X353590Y235146D01*
X353609Y235214D01*
X353619Y235235D01*
X353619Y248135D01*
X353614Y248149D01*
X353617Y248160D01*
X353517Y248760D01*
X353499Y248790D01*
X353490Y248824D01*
X353475Y248832D01*
X353463Y248852D01*
X353388Y248875D01*
X353370Y248884D01*
X350170Y248884D01*
X350156Y248879D01*
X350141Y248881D01*
X350123Y248867D01*
X350094Y248872D01*
X350070Y248884D01*
X305370Y248884D01*
X305356Y248879D01*
X305345Y248882D01*
X304745Y248782D01*
X304715Y248764D01*
X304681Y248755D01*
X304673Y248740D01*
X304653Y248728D01*
X304630Y248653D01*
X304621Y248635D01*
X304621Y235735D01*
X304626Y235721D01*
X304623Y235710D01*
X304723Y235110D01*
X304741Y235080D01*
X304750Y235046D01*
X304765Y235038D01*
X304777Y235018D01*
X304852Y234995D01*
X304870Y234986D01*
X352970Y234986D01*
X352987Y234992D01*
G37*
G36*
X352987Y31157D02*
X352987Y31157D01*
X352999Y31154D01*
X353499Y31254D01*
X353527Y31271D01*
X353559Y31280D01*
X353567Y31297D01*
X353590Y31311D01*
X353609Y31379D01*
X353619Y31400D01*
X353619Y44300D01*
X353614Y44314D01*
X353617Y44325D01*
X353517Y44925D01*
X353499Y44955D01*
X353490Y44989D01*
X353475Y44997D01*
X353463Y45017D01*
X353388Y45040D01*
X353370Y45049D01*
X350170Y45049D01*
X350156Y45044D01*
X350141Y45046D01*
X350123Y45032D01*
X350094Y45037D01*
X350070Y45049D01*
X305370Y45049D01*
X305356Y45044D01*
X305345Y45047D01*
X304745Y44947D01*
X304715Y44929D01*
X304681Y44920D01*
X304673Y44905D01*
X304653Y44893D01*
X304630Y44818D01*
X304621Y44800D01*
X304621Y31900D01*
X304626Y31886D01*
X304623Y31875D01*
X304723Y31275D01*
X304741Y31245D01*
X304750Y31211D01*
X304765Y31203D01*
X304777Y31183D01*
X304852Y31160D01*
X304870Y31151D01*
X352970Y31151D01*
X352987Y31157D01*
G37*
G36*
X69777Y94657D02*
X69777Y94657D01*
X69789Y94654D01*
X70289Y94754D01*
X70317Y94771D01*
X70349Y94780D01*
X70357Y94797D01*
X70380Y94811D01*
X70399Y94879D01*
X70409Y94900D01*
X70409Y107800D01*
X70404Y107814D01*
X70407Y107825D01*
X70307Y108425D01*
X70289Y108455D01*
X70280Y108489D01*
X70265Y108497D01*
X70253Y108517D01*
X70178Y108540D01*
X70160Y108549D01*
X66960Y108549D01*
X66946Y108544D01*
X66931Y108546D01*
X66913Y108532D01*
X66884Y108537D01*
X66860Y108549D01*
X22160Y108549D01*
X22146Y108544D01*
X22135Y108547D01*
X21535Y108447D01*
X21505Y108429D01*
X21471Y108420D01*
X21463Y108405D01*
X21443Y108393D01*
X21420Y108318D01*
X21411Y108300D01*
X21411Y95400D01*
X21416Y95386D01*
X21413Y95375D01*
X21513Y94775D01*
X21531Y94745D01*
X21540Y94711D01*
X21555Y94703D01*
X21567Y94683D01*
X21642Y94660D01*
X21660Y94651D01*
X69760Y94651D01*
X69777Y94657D01*
G37*
G36*
X55842Y145455D02*
X55842Y145455D01*
X55851Y145452D01*
X56551Y145552D01*
X56562Y145558D01*
X56571Y145557D01*
X57271Y145757D01*
X57274Y145759D01*
X57277Y145758D01*
X58477Y146158D01*
X58496Y146174D01*
X58513Y146176D01*
X59105Y146571D01*
X59697Y146867D01*
X59717Y146888D01*
X59736Y146894D01*
X60736Y147894D01*
X60740Y147904D01*
X60747Y147907D01*
X61147Y148407D01*
X61152Y148425D01*
X61164Y148433D01*
X62064Y150233D01*
X62066Y150262D01*
X62078Y150279D01*
X62176Y150969D01*
X62374Y151659D01*
X62371Y151684D01*
X62379Y151700D01*
X62379Y153000D01*
X62375Y153012D01*
X62378Y153021D01*
X62278Y153721D01*
X62270Y153735D01*
X62272Y153747D01*
X62073Y154344D01*
X61874Y155041D01*
X61863Y155054D01*
X61864Y155067D01*
X61264Y156267D01*
X61254Y156275D01*
X61252Y156286D01*
X61248Y156288D01*
X61247Y156293D01*
X60847Y156793D01*
X60838Y156798D01*
X60836Y156806D01*
X59836Y157806D01*
X59819Y157813D01*
X59813Y157824D01*
X59213Y158224D01*
X59209Y158225D01*
X59207Y158228D01*
X58707Y158528D01*
X58695Y158530D01*
X58689Y158537D01*
X57989Y158837D01*
X57981Y158837D01*
X57977Y158842D01*
X57377Y159042D01*
X57373Y159041D01*
X57371Y159044D01*
X56671Y159244D01*
X56661Y159243D01*
X56655Y159247D01*
X56055Y159347D01*
X56040Y159344D01*
X56030Y159349D01*
X55530Y159349D01*
X55524Y159347D01*
X55518Y159349D01*
X55500Y159338D01*
X55481Y159330D01*
X55449Y159340D01*
X55430Y159349D01*
X24330Y159349D01*
X24318Y159345D01*
X24309Y159348D01*
X22909Y159148D01*
X22895Y159140D01*
X22883Y159142D01*
X22283Y158942D01*
X22273Y158933D01*
X22263Y158934D01*
X21063Y158334D01*
X21056Y158325D01*
X21047Y158324D01*
X20447Y157924D01*
X20443Y157918D01*
X20437Y157917D01*
X19937Y157517D01*
X19932Y157508D01*
X19924Y157506D01*
X19424Y157006D01*
X19417Y156989D01*
X19406Y156983D01*
X19009Y156388D01*
X18613Y155893D01*
X18608Y155875D01*
X18597Y155867D01*
X18297Y155267D01*
X18295Y155250D01*
X18287Y155241D01*
X18087Y154544D01*
X17888Y153947D01*
X17889Y153931D01*
X17882Y153921D01*
X17682Y152521D01*
X17689Y152494D01*
X17683Y152475D01*
X17781Y151888D01*
X17781Y151200D01*
X17790Y151176D01*
X17787Y151159D01*
X17987Y150459D01*
X17989Y150456D01*
X17988Y150453D01*
X18188Y149853D01*
X18197Y149843D01*
X18197Y149833D01*
X18797Y148633D01*
X18805Y148626D01*
X18806Y148617D01*
X19206Y148017D01*
X19220Y148007D01*
X19224Y147994D01*
X19724Y147494D01*
X19734Y147490D01*
X19737Y147483D01*
X20737Y146683D01*
X20744Y146681D01*
X20747Y146676D01*
X21347Y146276D01*
X21358Y146273D01*
X21363Y146267D01*
X21963Y145967D01*
X21980Y145965D01*
X21989Y145957D01*
X22686Y145757D01*
X23283Y145558D01*
X23312Y145560D01*
X23330Y145551D01*
X24019Y145551D01*
X24709Y145452D01*
X24721Y145455D01*
X24730Y145451D01*
X55830Y145451D01*
X55842Y145455D01*
G37*
G36*
X52802Y120055D02*
X52802Y120055D01*
X52811Y120052D01*
X53501Y120151D01*
X54190Y120151D01*
X54217Y120161D01*
X54237Y120158D01*
X54834Y120357D01*
X55531Y120557D01*
X55544Y120567D01*
X55557Y120567D01*
X56157Y120867D01*
X56164Y120875D01*
X56173Y120876D01*
X56773Y121276D01*
X56777Y121282D01*
X56779Y121283D01*
X56783Y121283D01*
X57783Y122083D01*
X57788Y122092D01*
X57796Y122094D01*
X58296Y122594D01*
X58303Y122611D01*
X58314Y122617D01*
X58714Y123217D01*
X58715Y123221D01*
X58718Y123223D01*
X59018Y123723D01*
X59019Y123730D01*
X59024Y123733D01*
X59324Y124333D01*
X59325Y124350D01*
X59334Y124359D01*
X59532Y125055D01*
X59732Y125653D01*
X59731Y125669D01*
X59738Y125679D01*
X59838Y126379D01*
X59835Y126391D01*
X59839Y126400D01*
X59839Y127800D01*
X59829Y127827D01*
X59832Y127847D01*
X59636Y128434D01*
X59538Y129121D01*
X59523Y129147D01*
X59524Y129167D01*
X58624Y130967D01*
X58609Y130980D01*
X58607Y130993D01*
X58207Y131493D01*
X58198Y131498D01*
X58196Y131506D01*
X57196Y132506D01*
X57169Y132517D01*
X57157Y132534D01*
X56565Y132829D01*
X55973Y133224D01*
X55949Y133229D01*
X55937Y133242D01*
X54737Y133642D01*
X54733Y133641D01*
X54731Y133644D01*
X54031Y133844D01*
X54019Y133842D01*
X54011Y133848D01*
X53311Y133948D01*
X53299Y133945D01*
X53290Y133949D01*
X52990Y133949D01*
X52983Y133946D01*
X52975Y133949D01*
X52956Y133936D01*
X52942Y133931D01*
X52913Y133938D01*
X52890Y133949D01*
X24490Y133949D01*
X24478Y133945D01*
X24469Y133948D01*
X23769Y133848D01*
X23755Y133840D01*
X23743Y133842D01*
X23146Y133643D01*
X22449Y133444D01*
X22446Y133441D01*
X22443Y133442D01*
X21843Y133242D01*
X21824Y133226D01*
X21807Y133224D01*
X21207Y132824D01*
X21203Y132818D01*
X21197Y132817D01*
X20197Y132017D01*
X20192Y132008D01*
X20184Y132006D01*
X19684Y131506D01*
X19680Y131496D01*
X19673Y131493D01*
X19273Y130993D01*
X19271Y130986D01*
X19266Y130983D01*
X18866Y130383D01*
X18863Y130372D01*
X18857Y130367D01*
X18557Y129767D01*
X18555Y129750D01*
X18547Y129741D01*
X18347Y129044D01*
X18148Y128447D01*
X18149Y128433D01*
X18146Y128426D01*
X18142Y128421D01*
X18042Y127721D01*
X18045Y127709D01*
X18041Y127700D01*
X18041Y126400D01*
X18045Y126388D01*
X18042Y126379D01*
X18142Y125679D01*
X18148Y125668D01*
X18147Y125659D01*
X18347Y124959D01*
X18349Y124956D01*
X18348Y124953D01*
X18548Y124353D01*
X18557Y124343D01*
X18557Y124333D01*
X19157Y123133D01*
X19171Y123120D01*
X19173Y123107D01*
X19573Y122607D01*
X19582Y122602D01*
X19584Y122594D01*
X20584Y121594D01*
X20594Y121590D01*
X20597Y121583D01*
X21097Y121183D01*
X21115Y121178D01*
X21123Y121167D01*
X22323Y120567D01*
X22340Y120565D01*
X22349Y120557D01*
X23046Y120357D01*
X23643Y120158D01*
X23659Y120159D01*
X23669Y120152D01*
X24369Y120052D01*
X24381Y120055D01*
X24390Y120051D01*
X52790Y120051D01*
X52802Y120055D01*
G37*
G36*
X352884Y56556D02*
X352884Y56556D01*
X352895Y56553D01*
X353495Y56653D01*
X353525Y56671D01*
X353559Y56680D01*
X353567Y56695D01*
X353587Y56707D01*
X353610Y56782D01*
X353619Y56800D01*
X353619Y70300D01*
X353602Y70344D01*
X353590Y70389D01*
X353584Y70392D01*
X353581Y70400D01*
X353485Y70449D01*
X353476Y70446D01*
X353470Y70449D01*
X350170Y70449D01*
X350169Y70449D01*
X350168Y70449D01*
X350163Y70447D01*
X350120Y70430D01*
X350082Y70443D01*
X350070Y70449D01*
X316270Y70449D01*
X316256Y70444D01*
X316245Y70447D01*
X315645Y70347D01*
X315615Y70329D01*
X315581Y70320D01*
X315573Y70305D01*
X315553Y70293D01*
X315530Y70218D01*
X315521Y70200D01*
X315521Y56700D01*
X315538Y56656D01*
X315550Y56611D01*
X315556Y56608D01*
X315559Y56600D01*
X315655Y56551D01*
X315664Y56554D01*
X315670Y56551D01*
X352870Y56551D01*
X352884Y56556D01*
G37*
G36*
X352884Y208956D02*
X352884Y208956D01*
X352895Y208953D01*
X353495Y209053D01*
X353525Y209071D01*
X353559Y209080D01*
X353567Y209095D01*
X353587Y209107D01*
X353610Y209182D01*
X353619Y209200D01*
X353619Y222700D01*
X353602Y222744D01*
X353590Y222789D01*
X353584Y222792D01*
X353581Y222800D01*
X353485Y222849D01*
X353476Y222846D01*
X353470Y222849D01*
X350170Y222849D01*
X350169Y222849D01*
X350168Y222849D01*
X350163Y222847D01*
X350120Y222830D01*
X350082Y222843D01*
X350070Y222849D01*
X316270Y222849D01*
X316256Y222844D01*
X316245Y222847D01*
X315645Y222747D01*
X315615Y222729D01*
X315581Y222720D01*
X315573Y222705D01*
X315553Y222693D01*
X315530Y222618D01*
X315521Y222600D01*
X315521Y209100D01*
X315538Y209056D01*
X315550Y209011D01*
X315556Y209008D01*
X315559Y209000D01*
X315655Y208951D01*
X315664Y208954D01*
X315670Y208951D01*
X352870Y208951D01*
X352884Y208956D01*
G37*
G36*
X58244Y196256D02*
X58244Y196256D01*
X58255Y196253D01*
X58855Y196353D01*
X58885Y196371D01*
X58919Y196380D01*
X58927Y196395D01*
X58947Y196407D01*
X58970Y196482D01*
X58979Y196500D01*
X58979Y210000D01*
X58962Y210044D01*
X58950Y210089D01*
X58944Y210092D01*
X58941Y210100D01*
X58845Y210149D01*
X58836Y210146D01*
X58830Y210149D01*
X55530Y210149D01*
X55529Y210149D01*
X55528Y210149D01*
X55523Y210147D01*
X55480Y210130D01*
X55442Y210143D01*
X55430Y210149D01*
X21630Y210149D01*
X21616Y210144D01*
X21605Y210147D01*
X21005Y210047D01*
X20975Y210029D01*
X20941Y210020D01*
X20933Y210005D01*
X20913Y209993D01*
X20890Y209918D01*
X20881Y209900D01*
X20881Y196400D01*
X20898Y196356D01*
X20910Y196311D01*
X20916Y196308D01*
X20919Y196300D01*
X21015Y196251D01*
X21024Y196254D01*
X21030Y196251D01*
X58230Y196251D01*
X58244Y196256D01*
G37*
G36*
X58363Y170863D02*
X58363Y170863D01*
X58385Y170861D01*
X58885Y171061D01*
X58900Y171075D01*
X58919Y171080D01*
X58931Y171103D01*
X58964Y171135D01*
X58968Y171177D01*
X58979Y171200D01*
X58979Y184100D01*
X58967Y184133D01*
X58969Y184155D01*
X58769Y184655D01*
X58758Y184666D01*
X58757Y184671D01*
X58755Y184672D01*
X58750Y184689D01*
X58727Y184701D01*
X58695Y184734D01*
X58653Y184738D01*
X58630Y184749D01*
X55530Y184749D01*
X55524Y184747D01*
X55517Y184749D01*
X55498Y184737D01*
X55481Y184731D01*
X55452Y184738D01*
X55430Y184749D01*
X22330Y184749D01*
X22316Y184744D01*
X22305Y184747D01*
X21705Y184647D01*
X21675Y184629D01*
X21641Y184620D01*
X21633Y184605D01*
X21613Y184593D01*
X21590Y184518D01*
X21581Y184500D01*
X21581Y171600D01*
X21586Y171586D01*
X21583Y171575D01*
X21683Y170975D01*
X21701Y170945D01*
X21710Y170911D01*
X21725Y170903D01*
X21737Y170883D01*
X21812Y170860D01*
X21830Y170851D01*
X58330Y170851D01*
X58363Y170863D01*
G37*
G36*
X216763Y183558D02*
X216763Y183558D01*
X216783Y183556D01*
X216803Y183573D01*
X216845Y183589D01*
X216865Y183628D01*
X216884Y183645D01*
X217084Y184145D01*
X217084Y184180D01*
X217094Y184200D01*
X217094Y197000D01*
X217056Y197100D01*
X217040Y197108D01*
X217035Y197119D01*
X216635Y197419D01*
X216566Y197439D01*
X216545Y197449D01*
X213645Y197449D01*
X213595Y197430D01*
X213548Y197449D01*
X213546Y197449D01*
X213545Y197449D01*
X185145Y197449D01*
X185133Y197445D01*
X185124Y197448D01*
X183724Y197248D01*
X183710Y197240D01*
X183698Y197242D01*
X183098Y197042D01*
X183088Y197033D01*
X183078Y197034D01*
X181878Y196434D01*
X181871Y196425D01*
X181862Y196424D01*
X181262Y196024D01*
X181252Y196010D01*
X181239Y196006D01*
X180745Y195511D01*
X180252Y195117D01*
X180238Y195092D01*
X180221Y195083D01*
X179824Y194488D01*
X179428Y193993D01*
X179421Y193970D01*
X179408Y193959D01*
X179108Y193259D01*
X179108Y193251D01*
X179103Y193247D01*
X178703Y192047D01*
X178704Y192031D01*
X178697Y192021D01*
X178497Y190621D01*
X178503Y190596D01*
X178497Y190579D01*
X178597Y189879D01*
X178598Y189877D01*
X178598Y189875D01*
X178698Y189277D01*
X178797Y188579D01*
X178805Y188565D01*
X178803Y188553D01*
X179003Y187953D01*
X179012Y187943D01*
X179012Y187933D01*
X179312Y187333D01*
X179320Y187326D01*
X179321Y187317D01*
X180121Y186117D01*
X180127Y186113D01*
X180128Y186107D01*
X180528Y185607D01*
X180546Y185597D01*
X180552Y185583D01*
X181052Y185183D01*
X181059Y185181D01*
X181062Y185176D01*
X181657Y184779D01*
X182152Y184383D01*
X182175Y184376D01*
X182186Y184363D01*
X182886Y184063D01*
X182894Y184063D01*
X182898Y184058D01*
X183498Y183858D01*
X183502Y183859D01*
X183504Y183857D01*
X184204Y183657D01*
X184229Y183659D01*
X184245Y183651D01*
X184834Y183651D01*
X185524Y183552D01*
X185536Y183555D01*
X185545Y183551D01*
X216745Y183551D01*
X216763Y183558D01*
G37*
G36*
X46814Y69256D02*
X46814Y69256D01*
X46825Y69253D01*
X47425Y69353D01*
X47517Y69407D01*
X47522Y69424D01*
X47533Y69432D01*
X50933Y76032D01*
X50933Y76033D01*
X50933Y76036D01*
X50940Y76101D01*
X50940Y76102D01*
X50944Y76138D01*
X50933Y76153D01*
X50934Y76167D01*
X50634Y76766D01*
X47634Y82866D01*
X47555Y82939D01*
X47550Y82939D01*
X47547Y82942D01*
X46947Y83142D01*
X46918Y83140D01*
X46900Y83149D01*
X44100Y83149D01*
X44082Y83142D01*
X44063Y83145D01*
X44053Y83136D01*
X44023Y83138D01*
X44000Y83149D01*
X21000Y83149D01*
X20900Y83111D01*
X20893Y83098D01*
X20883Y83093D01*
X20483Y82593D01*
X20478Y82576D01*
X20467Y82569D01*
X17367Y76569D01*
X17360Y76498D01*
X17353Y76475D01*
X17453Y75875D01*
X17466Y75853D01*
X17466Y75834D01*
X20466Y69734D01*
X20488Y69714D01*
X20494Y69694D01*
X20894Y69294D01*
X20993Y69251D01*
X20997Y69252D01*
X21000Y69251D01*
X46800Y69251D01*
X46814Y69256D01*
G37*
G36*
X183651Y66651D02*
X183651Y66651D01*
X183669Y66660D01*
X183684Y66657D01*
X184984Y67057D01*
X184986Y67059D01*
X184987Y67058D01*
X186187Y67458D01*
X186202Y67470D01*
X186215Y67471D01*
X187415Y68171D01*
X187427Y68185D01*
X187440Y68189D01*
X187652Y68380D01*
X187653Y68380D01*
X188150Y68828D01*
X188440Y69089D01*
X188442Y69093D01*
X188446Y69094D01*
X189446Y70094D01*
X189451Y70107D01*
X189461Y70112D01*
X190261Y71212D01*
X190265Y71227D01*
X190274Y71233D01*
X190874Y72433D01*
X190875Y72446D01*
X190882Y72453D01*
X191282Y73653D01*
X191281Y73663D01*
X191286Y73669D01*
X191586Y75069D01*
X191584Y75081D01*
X191589Y75089D01*
X191689Y76389D01*
X191685Y76401D01*
X191689Y76411D01*
X191589Y77811D01*
X191583Y77823D01*
X191585Y77834D01*
X191285Y79134D01*
X191282Y79139D01*
X191283Y79144D01*
X190883Y80444D01*
X190875Y80453D01*
X190876Y80463D01*
X190276Y81763D01*
X190267Y81771D01*
X190266Y81780D01*
X189566Y82880D01*
X189550Y82892D01*
X189546Y82906D01*
X188646Y83806D01*
X188637Y83809D01*
X188635Y83816D01*
X187535Y84716D01*
X187521Y84720D01*
X187515Y84729D01*
X186315Y85429D01*
X186303Y85431D01*
X186297Y85438D01*
X185097Y85938D01*
X185082Y85938D01*
X185074Y85945D01*
X183774Y86245D01*
X183760Y86244D01*
X183751Y86249D01*
X182451Y86349D01*
X182445Y86347D01*
X182440Y86349D01*
X181040Y86349D01*
X181021Y86342D01*
X181006Y86345D01*
X179706Y86045D01*
X179701Y86042D01*
X179696Y86043D01*
X178396Y85643D01*
X178377Y85628D01*
X178360Y85626D01*
X177260Y84926D01*
X177259Y84924D01*
X177257Y84924D01*
X176057Y84124D01*
X176050Y84114D01*
X176040Y84111D01*
X175723Y83825D01*
X175225Y83377D01*
X175040Y83211D01*
X175032Y83194D01*
X175019Y83188D01*
X174219Y82088D01*
X174218Y82082D01*
X174214Y82080D01*
X173514Y80980D01*
X173511Y80965D01*
X173502Y80957D01*
X173002Y79757D01*
X173002Y79742D01*
X172995Y79734D01*
X172695Y78434D01*
X172697Y78420D01*
X172691Y78411D01*
X172591Y77011D01*
X172593Y77004D01*
X172591Y77000D01*
X172591Y75600D01*
X172596Y75587D01*
X172593Y75577D01*
X172793Y74277D01*
X172799Y74266D01*
X172797Y74256D01*
X173197Y72956D01*
X173199Y72954D01*
X173198Y72953D01*
X173461Y72165D01*
X172262Y71427D01*
X172255Y71418D01*
X172247Y71417D01*
X171247Y70617D01*
X171212Y70557D01*
X171196Y70539D01*
X170896Y69439D01*
X170900Y69404D01*
X170898Y69401D01*
X170901Y69391D01*
X170907Y69337D01*
X170907Y69333D01*
X171507Y68133D01*
X171522Y68119D01*
X171525Y68104D01*
X172525Y66904D01*
X172596Y66865D01*
X172611Y66854D01*
X173611Y66654D01*
X173678Y66665D01*
X173703Y66665D01*
X175003Y67265D01*
X175016Y67278D01*
X175030Y67281D01*
X176176Y68141D01*
X177091Y67958D01*
X178273Y67367D01*
X178279Y67366D01*
X178283Y67362D01*
X179483Y66862D01*
X179504Y66862D01*
X179517Y66853D01*
X180817Y66653D01*
X180824Y66654D01*
X180829Y66651D01*
X182229Y66551D01*
X182242Y66555D01*
X182251Y66551D01*
X183651Y66651D01*
G37*
G36*
X107050Y66555D02*
X107050Y66555D01*
X107059Y66552D01*
X108659Y66752D01*
X108713Y66781D01*
X108738Y66788D01*
X109538Y67488D01*
X109588Y67583D01*
X109587Y67587D01*
X109589Y67589D01*
X109689Y68989D01*
X109687Y68996D01*
X109689Y69000D01*
X109689Y84100D01*
X109681Y84122D01*
X109684Y84139D01*
X109384Y85239D01*
X109348Y85288D01*
X109346Y85296D01*
X109340Y85299D01*
X109320Y85326D01*
X109311Y85328D01*
X109307Y85334D01*
X108307Y85834D01*
X108270Y85837D01*
X108249Y85849D01*
X106649Y85949D01*
X106644Y85947D01*
X106640Y85949D01*
X101240Y85949D01*
X101234Y85947D01*
X101230Y85949D01*
X99730Y85849D01*
X99717Y85843D01*
X99706Y85845D01*
X98406Y85545D01*
X98381Y85528D01*
X98360Y85526D01*
X97260Y84826D01*
X97251Y84814D01*
X97240Y84811D01*
X96240Y83911D01*
X96227Y83886D01*
X96211Y83875D01*
X95511Y82675D01*
X95509Y82663D01*
X95502Y82657D01*
X95002Y81457D01*
X95001Y81428D01*
X94991Y81411D01*
X94891Y80011D01*
X94895Y79999D01*
X94894Y79998D01*
X94896Y79989D01*
X94893Y79977D01*
X95093Y78677D01*
X95102Y78661D01*
X95101Y78646D01*
X95601Y77346D01*
X95611Y77335D01*
X95612Y77323D01*
X95894Y76853D01*
X95119Y75788D01*
X95114Y75767D01*
X95102Y75757D01*
X94602Y74557D01*
X94602Y74536D01*
X94593Y74523D01*
X94393Y73223D01*
X94397Y73203D01*
X94391Y73190D01*
X94491Y71690D01*
X94498Y71676D01*
X94495Y71664D01*
X94795Y70464D01*
X94810Y70443D01*
X94811Y70425D01*
X95511Y69225D01*
X95525Y69213D01*
X95529Y69200D01*
X96429Y68200D01*
X96441Y68194D01*
X96446Y68185D01*
X97546Y67285D01*
X97571Y67276D01*
X97583Y67262D01*
X98783Y66762D01*
X98805Y66762D01*
X98819Y66752D01*
X100219Y66552D01*
X100231Y66555D01*
X100240Y66551D01*
X107040Y66551D01*
X107050Y66555D01*
G37*
G36*
X116235Y175991D02*
X116235Y175991D01*
X116286Y175993D01*
X116318Y176011D01*
X116354Y176019D01*
X116393Y176052D01*
X116438Y176076D01*
X116459Y176106D01*
X116487Y176129D01*
X116508Y176176D01*
X116538Y176218D01*
X116546Y176260D01*
X116558Y176288D01*
X116557Y176318D01*
X116565Y176360D01*
X116565Y189160D01*
X116561Y189178D01*
X116563Y189202D01*
X116363Y191002D01*
X116352Y191033D01*
X116346Y191080D01*
X116146Y191680D01*
X116133Y191700D01*
X116125Y191730D01*
X115825Y192330D01*
X115817Y192340D01*
X115811Y192356D01*
X115511Y192856D01*
X115497Y192870D01*
X115488Y192889D01*
X115411Y192959D01*
X115390Y192980D01*
X115385Y192982D01*
X115381Y192986D01*
X114897Y193276D01*
X114513Y193564D01*
X114478Y193579D01*
X114426Y193613D01*
X113426Y194013D01*
X113393Y194018D01*
X113348Y194035D01*
X112748Y194135D01*
X112721Y194133D01*
X112685Y194140D01*
X111885Y194140D01*
X111849Y194132D01*
X111793Y194129D01*
X111438Y194040D01*
X111285Y194040D01*
X111270Y194037D01*
X111255Y194039D01*
X111123Y194002D01*
X111116Y194001D01*
X111116Y194000D01*
X111115Y194000D01*
X110915Y193900D01*
X110896Y193884D01*
X110872Y193875D01*
X110830Y193829D01*
X110782Y193789D01*
X110772Y193767D01*
X110755Y193748D01*
X110737Y193688D01*
X110711Y193631D01*
X110713Y193606D01*
X110705Y193582D01*
X110716Y193520D01*
X110719Y193458D01*
X110731Y193436D01*
X110735Y193411D01*
X110784Y193338D01*
X110802Y193306D01*
X110810Y193301D01*
X110816Y193291D01*
X110916Y193191D01*
X110948Y193171D01*
X111015Y193120D01*
X111415Y192920D01*
X111438Y192914D01*
X111465Y192899D01*
X111680Y192828D01*
X111990Y192518D01*
X112140Y192292D01*
X112205Y192098D01*
X112205Y191922D01*
X112133Y191706D01*
X111973Y191385D01*
X111743Y191156D01*
X111507Y190998D01*
X111076Y190826D01*
X110647Y190740D01*
X109932Y190740D01*
X109241Y190913D01*
X108745Y191244D01*
X108424Y191645D01*
X108265Y192122D01*
X108265Y192682D01*
X108511Y193255D01*
X109171Y194009D01*
X109969Y194907D01*
X109970Y194909D01*
X109971Y194910D01*
X110671Y195710D01*
X110687Y195739D01*
X110717Y195775D01*
X111217Y196675D01*
X111228Y196713D01*
X111256Y196778D01*
X111456Y197678D01*
X111456Y197711D01*
X111465Y197760D01*
X111465Y198560D01*
X111457Y198597D01*
X111446Y198680D01*
X111146Y199580D01*
X111125Y199614D01*
X111094Y199681D01*
X110594Y200381D01*
X110568Y200404D01*
X110538Y200444D01*
X109638Y201244D01*
X109607Y201261D01*
X109567Y201294D01*
X108467Y201894D01*
X108431Y201904D01*
X108353Y201934D01*
X107253Y202134D01*
X107224Y202133D01*
X107185Y202140D01*
X106185Y202140D01*
X106148Y202132D01*
X106065Y202121D01*
X105165Y201821D01*
X105159Y201817D01*
X105152Y201816D01*
X104352Y201516D01*
X104337Y201506D01*
X104315Y201500D01*
X104149Y201417D01*
X103715Y201200D01*
X103693Y201182D01*
X103657Y201164D01*
X103257Y200864D01*
X103242Y200846D01*
X103216Y200829D01*
X103116Y200729D01*
X103103Y200707D01*
X103083Y200691D01*
X103057Y200634D01*
X103025Y200582D01*
X103022Y200556D01*
X103012Y200532D01*
X103014Y200471D01*
X103008Y200409D01*
X103017Y200385D01*
X103018Y200359D01*
X103048Y200305D01*
X103070Y200247D01*
X103089Y200230D01*
X103101Y200207D01*
X103152Y200172D01*
X103197Y200130D01*
X103222Y200122D01*
X103243Y200107D01*
X103327Y200091D01*
X103363Y200080D01*
X103373Y200082D01*
X103385Y200080D01*
X103685Y200080D01*
X103722Y200088D01*
X103805Y200099D01*
X104047Y200180D01*
X104238Y200180D01*
X104593Y200091D01*
X104601Y200091D01*
X104610Y200087D01*
X105061Y199997D01*
X105384Y199835D01*
X105705Y199595D01*
X105840Y199392D01*
X105924Y199140D01*
X105937Y199120D01*
X105945Y199090D01*
X106033Y198914D01*
X106084Y198760D01*
X106024Y198580D01*
X106023Y198567D01*
X106016Y198552D01*
X105932Y198216D01*
X105769Y197971D01*
X105761Y197951D01*
X105745Y197930D01*
X105573Y197585D01*
X105343Y197356D01*
X105074Y197176D01*
X105067Y197169D01*
X105057Y197164D01*
X104665Y196871D01*
X104394Y196690D01*
X103962Y196474D01*
X103695Y196340D01*
X103147Y196340D01*
X102954Y196405D01*
X102805Y196504D01*
X102665Y196922D01*
X102665Y197660D01*
X102653Y197710D01*
X102653Y197731D01*
X102652Y197755D01*
X102651Y197762D01*
X102634Y197794D01*
X102626Y197829D01*
X102593Y197869D01*
X102568Y197914D01*
X102538Y197935D01*
X102516Y197962D01*
X102468Y197984D01*
X102426Y198013D01*
X102390Y198019D01*
X102357Y198033D01*
X102306Y198031D01*
X102255Y198039D01*
X102214Y198028D01*
X102184Y198027D01*
X102157Y198012D01*
X102115Y198000D01*
X102104Y197995D01*
X101344Y197615D01*
X101315Y197600D01*
X101311Y197597D01*
X101201Y197513D01*
X100401Y196613D01*
X100386Y196585D01*
X100357Y196552D01*
X99657Y195352D01*
X99648Y195323D01*
X99627Y195288D01*
X99127Y193888D01*
X99124Y193862D01*
X99111Y193830D01*
X98811Y192230D01*
X98813Y192194D01*
X98805Y192139D01*
X98905Y190339D01*
X98915Y190307D01*
X98919Y190258D01*
X99419Y188458D01*
X99436Y188427D01*
X99453Y188375D01*
X100453Y186575D01*
X100470Y186557D01*
X100485Y186527D01*
X101185Y185627D01*
X101192Y185621D01*
X101196Y185613D01*
X101206Y185607D01*
X101216Y185591D01*
X102016Y184791D01*
X102026Y184785D01*
X102035Y184774D01*
X102835Y184074D01*
X102860Y184060D01*
X102889Y184034D01*
X103889Y183434D01*
X103914Y183426D01*
X103944Y183407D01*
X104944Y183007D01*
X104963Y183004D01*
X104985Y182993D01*
X106085Y182693D01*
X106102Y182693D01*
X106123Y182685D01*
X107323Y182485D01*
X107349Y182487D01*
X107385Y182480D01*
X109254Y182480D01*
X109751Y182397D01*
X110167Y182147D01*
X111117Y181387D01*
X111593Y180817D01*
X111605Y180807D01*
X111616Y180791D01*
X112894Y179514D01*
X113376Y178839D01*
X113396Y178821D01*
X113416Y178791D01*
X114004Y178203D01*
X114493Y177617D01*
X114505Y177607D01*
X114516Y177591D01*
X114997Y177110D01*
X115281Y176732D01*
X115299Y176717D01*
X115316Y176691D01*
X115590Y176418D01*
X115769Y176149D01*
X115788Y176131D01*
X115801Y176107D01*
X115851Y176072D01*
X115895Y176031D01*
X115921Y176023D01*
X115943Y176007D01*
X116024Y175992D01*
X116061Y175981D01*
X116072Y175982D01*
X116085Y175980D01*
X116185Y175980D01*
X116235Y175991D01*
G37*
G36*
X161924Y150491D02*
X161924Y150491D01*
X161986Y150493D01*
X162008Y150506D01*
X162034Y150510D01*
X162105Y150558D01*
X162138Y150576D01*
X162144Y150584D01*
X162154Y150591D01*
X163039Y151476D01*
X164523Y152663D01*
X164534Y152678D01*
X164554Y152691D01*
X165439Y153576D01*
X165923Y153963D01*
X165929Y153971D01*
X165938Y153976D01*
X165982Y154039D01*
X166030Y154099D01*
X166032Y154109D01*
X166038Y154118D01*
X166053Y154199D01*
X166058Y154210D01*
X166058Y154222D01*
X166065Y154260D01*
X166065Y172760D01*
X166064Y172764D01*
X166065Y172769D01*
X166045Y172849D01*
X166026Y172929D01*
X166023Y172932D01*
X166022Y172937D01*
X165968Y172999D01*
X165916Y173062D01*
X165911Y173064D01*
X165909Y173068D01*
X165777Y173129D01*
X165377Y173229D01*
X165369Y173229D01*
X165360Y173233D01*
X164860Y173333D01*
X164828Y173332D01*
X164785Y173340D01*
X164332Y173340D01*
X163977Y173429D01*
X163969Y173429D01*
X163960Y173433D01*
X163468Y173531D01*
X163077Y173629D01*
X163069Y173629D01*
X163060Y173633D01*
X162060Y173833D01*
X162058Y173833D01*
X162057Y173833D01*
X161973Y173830D01*
X161886Y173827D01*
X161885Y173827D01*
X161884Y173827D01*
X161810Y173786D01*
X161734Y173745D01*
X161733Y173744D01*
X161732Y173744D01*
X161684Y173675D01*
X161633Y173604D01*
X161633Y173603D01*
X161632Y173602D01*
X161605Y173460D01*
X161605Y172678D01*
X161454Y172829D01*
X161438Y172839D01*
X161423Y172857D01*
X160923Y173257D01*
X160902Y173267D01*
X160881Y173286D01*
X159881Y173886D01*
X159868Y173890D01*
X159748Y173935D01*
X158548Y174135D01*
X158521Y174133D01*
X158485Y174140D01*
X157785Y174140D01*
X157774Y174138D01*
X157760Y174139D01*
X156260Y174039D01*
X156223Y174028D01*
X156157Y174018D01*
X154757Y173518D01*
X154728Y173499D01*
X154681Y173481D01*
X153581Y172781D01*
X153554Y172753D01*
X153502Y172714D01*
X152602Y171714D01*
X152589Y171691D01*
X152564Y171664D01*
X151864Y170564D01*
X151852Y170528D01*
X151822Y170472D01*
X151422Y169172D01*
X151421Y169157D01*
X151413Y169140D01*
X151113Y167740D01*
X151114Y167716D01*
X151106Y167685D01*
X151006Y166185D01*
X151009Y166163D01*
X151006Y166133D01*
X151106Y164733D01*
X151113Y164709D01*
X151115Y164675D01*
X151415Y163375D01*
X151427Y163350D01*
X151434Y163314D01*
X151934Y162114D01*
X151944Y162099D01*
X151951Y162078D01*
X152551Y160978D01*
X152577Y160949D01*
X152616Y160891D01*
X153516Y159991D01*
X153538Y159978D01*
X153561Y159952D01*
X154661Y159152D01*
X154697Y159137D01*
X154765Y159099D01*
X155965Y158699D01*
X155995Y158696D01*
X156035Y158683D01*
X157535Y158483D01*
X157574Y158487D01*
X157648Y158485D01*
X159448Y158785D01*
X159484Y158800D01*
X159555Y158820D01*
X159685Y158885D01*
X160155Y159120D01*
X160165Y159128D01*
X160181Y159134D01*
X161181Y159734D01*
X161201Y159754D01*
X161282Y159822D01*
X161505Y160101D01*
X161505Y150860D01*
X161511Y150835D01*
X161508Y150809D01*
X161530Y150752D01*
X161544Y150691D01*
X161561Y150671D01*
X161570Y150647D01*
X161615Y150605D01*
X161654Y150558D01*
X161678Y150547D01*
X161697Y150530D01*
X161756Y150512D01*
X161813Y150487D01*
X161838Y150488D01*
X161863Y150480D01*
X161924Y150491D01*
G37*
G36*
X162063Y66753D02*
X162063Y66753D01*
X162135Y66794D01*
X162151Y66800D01*
X163051Y67800D01*
X163062Y67829D01*
X163078Y67843D01*
X163578Y69043D01*
X166678Y76543D01*
X166678Y76545D01*
X166679Y76546D01*
X167179Y77846D01*
X167179Y77865D01*
X167187Y77875D01*
X167387Y79075D01*
X167366Y79181D01*
X167354Y79189D01*
X167352Y79199D01*
X166552Y80099D01*
X166512Y80119D01*
X166495Y80139D01*
X164995Y80739D01*
X164952Y80739D01*
X164928Y80749D01*
X163728Y80649D01*
X163631Y80602D01*
X163630Y80600D01*
X163628Y80599D01*
X162828Y79699D01*
X162817Y79668D01*
X162801Y79653D01*
X161504Y76262D01*
X160971Y75272D01*
X159781Y78748D01*
X159770Y78762D01*
X159769Y78775D01*
X159069Y79975D01*
X159023Y80012D01*
X159007Y80034D01*
X157807Y80634D01*
X157741Y80640D01*
X157717Y80648D01*
X156417Y80448D01*
X156366Y80418D01*
X156340Y80411D01*
X155988Y80094D01*
X155490Y79646D01*
X155340Y79511D01*
X155323Y79478D01*
X155305Y79463D01*
X154605Y77963D01*
X154604Y77954D01*
X154599Y77950D01*
X154000Y76252D01*
X153613Y75284D01*
X153594Y75265D01*
X152178Y78756D01*
X152177Y78757D01*
X152177Y78759D01*
X151577Y80159D01*
X151530Y80207D01*
X151517Y80228D01*
X150517Y80828D01*
X150411Y80846D01*
X150409Y80845D01*
X150406Y80845D01*
X149106Y80545D01*
X149082Y80529D01*
X149062Y80527D01*
X147762Y79727D01*
X147697Y79642D01*
X147697Y79640D01*
X147696Y79639D01*
X147396Y78539D01*
X147399Y78514D01*
X147394Y78505D01*
X147401Y78480D01*
X147397Y78456D01*
X147797Y77156D01*
X147802Y77150D01*
X147801Y77145D01*
X148801Y74645D01*
X148802Y74644D01*
X151302Y68444D01*
X151314Y68431D01*
X151316Y68417D01*
X152116Y67217D01*
X152125Y67211D01*
X152126Y67208D01*
X152136Y67203D01*
X152154Y67191D01*
X152169Y67169D01*
X153269Y66569D01*
X153369Y66556D01*
X153374Y66555D01*
X154674Y66855D01*
X154708Y66878D01*
X154734Y66888D01*
X154737Y66895D01*
X154751Y66900D01*
X155651Y67900D01*
X155665Y67936D01*
X155682Y67953D01*
X155980Y68847D01*
X156975Y71137D01*
X157428Y72042D01*
X157799Y71150D01*
X158297Y69458D01*
X158302Y69451D01*
X158301Y69445D01*
X158701Y68445D01*
X158713Y68432D01*
X158714Y68420D01*
X159414Y67320D01*
X159451Y67293D01*
X159465Y67271D01*
X160665Y66571D01*
X160746Y66558D01*
X160763Y66553D01*
X162063Y66753D01*
G37*
G36*
X145915Y158487D02*
X145915Y158487D01*
X145960Y158487D01*
X146423Y158580D01*
X146885Y158580D01*
X146921Y158588D01*
X146977Y158591D01*
X147377Y158691D01*
X147397Y158701D01*
X147426Y158707D01*
X147926Y158907D01*
X147938Y158915D01*
X147955Y158920D01*
X148355Y159120D01*
X148371Y159133D01*
X148396Y159144D01*
X148676Y159331D01*
X149055Y159520D01*
X149084Y159544D01*
X149154Y159591D01*
X149454Y159891D01*
X149470Y159918D01*
X149501Y159949D01*
X149696Y160240D01*
X149989Y160632D01*
X149993Y160641D01*
X150001Y160649D01*
X150201Y160949D01*
X150202Y160950D01*
X150203Y160951D01*
X150258Y161085D01*
X150348Y161536D01*
X150525Y161890D01*
X150529Y161905D01*
X150538Y161918D01*
X150564Y162052D01*
X150565Y162059D01*
X150565Y162060D01*
X150565Y162522D01*
X150658Y162985D01*
X150658Y162995D01*
X150659Y163128D01*
X150459Y164228D01*
X150450Y164250D01*
X150446Y164280D01*
X150146Y165180D01*
X150129Y165207D01*
X150115Y165249D01*
X149715Y165949D01*
X149692Y165973D01*
X149632Y166049D01*
X148932Y166649D01*
X148906Y166663D01*
X148874Y166690D01*
X148174Y167090D01*
X148148Y167098D01*
X148119Y167116D01*
X147319Y167416D01*
X147300Y167419D01*
X147277Y167429D01*
X146477Y167629D01*
X146455Y167629D01*
X146427Y167638D01*
X145527Y167738D01*
X143733Y167937D01*
X143064Y168033D01*
X142398Y168223D01*
X141845Y168408D01*
X141445Y168648D01*
X141265Y168887D01*
X141265Y169770D01*
X141498Y170235D01*
X141554Y170291D01*
X141574Y170323D01*
X141625Y170390D01*
X141668Y170477D01*
X142075Y170680D01*
X142185Y170680D01*
X142200Y170683D01*
X142215Y170681D01*
X142347Y170718D01*
X142354Y170719D01*
X142354Y170720D01*
X142355Y170720D01*
X142475Y170780D01*
X144095Y170780D01*
X144960Y170348D01*
X145273Y170035D01*
X145333Y169914D01*
X145424Y169640D01*
X145437Y169620D01*
X145445Y169590D01*
X145505Y169470D01*
X145505Y169060D01*
X145516Y169010D01*
X145518Y168959D01*
X145536Y168927D01*
X145544Y168891D01*
X145577Y168852D01*
X145601Y168807D01*
X145631Y168786D01*
X145654Y168758D01*
X145701Y168737D01*
X145743Y168707D01*
X145785Y168699D01*
X145813Y168687D01*
X145843Y168688D01*
X145885Y168680D01*
X149785Y168680D01*
X149865Y168698D01*
X149945Y168715D01*
X149949Y168718D01*
X149954Y168719D01*
X150017Y168772D01*
X150081Y168822D01*
X150083Y168826D01*
X150087Y168829D01*
X150121Y168904D01*
X150156Y168978D01*
X150156Y168983D01*
X150158Y168988D01*
X150157Y169015D01*
X150160Y169123D01*
X149960Y170323D01*
X149950Y170346D01*
X149950Y170348D01*
X149949Y170368D01*
X149947Y170373D01*
X149946Y170380D01*
X149746Y170980D01*
X149726Y171012D01*
X149689Y171088D01*
X149401Y171472D01*
X149111Y171956D01*
X149099Y171968D01*
X149089Y171988D01*
X148789Y172388D01*
X148764Y172409D01*
X148757Y172422D01*
X148742Y172433D01*
X148713Y172464D01*
X148313Y172764D01*
X148297Y172771D01*
X148281Y172786D01*
X147281Y173386D01*
X147256Y173394D01*
X147226Y173413D01*
X146726Y173613D01*
X146697Y173617D01*
X146660Y173633D01*
X146183Y173728D01*
X145605Y173921D01*
X145580Y173923D01*
X145548Y173935D01*
X144954Y174034D01*
X144460Y174133D01*
X144428Y174132D01*
X144385Y174140D01*
X142085Y174140D01*
X142055Y174133D01*
X142010Y174133D01*
X141547Y174040D01*
X140985Y174040D01*
X140955Y174033D01*
X140910Y174033D01*
X140410Y173933D01*
X140384Y173921D01*
X140344Y173913D01*
X139876Y173726D01*
X139410Y173633D01*
X139384Y173621D01*
X139344Y173613D01*
X138844Y173413D01*
X138813Y173391D01*
X138757Y173364D01*
X137557Y172464D01*
X137532Y172434D01*
X137481Y172388D01*
X137181Y171988D01*
X137169Y171962D01*
X137145Y171930D01*
X136945Y171530D01*
X136942Y171516D01*
X136932Y171501D01*
X136732Y171001D01*
X136728Y170972D01*
X136712Y170935D01*
X136612Y170435D01*
X136613Y170403D01*
X136605Y170360D01*
X136605Y161750D01*
X136545Y161630D01*
X136541Y161615D01*
X136532Y161602D01*
X136506Y161468D01*
X136505Y161462D01*
X136505Y161461D01*
X136505Y161460D01*
X136505Y160650D01*
X136445Y160530D01*
X136441Y160515D01*
X136432Y160502D01*
X136423Y160456D01*
X136422Y160453D01*
X136422Y160451D01*
X136406Y160368D01*
X136405Y160362D01*
X136405Y160361D01*
X136405Y160360D01*
X136405Y160250D01*
X136345Y160130D01*
X136341Y160115D01*
X136332Y160102D01*
X136306Y159968D01*
X136305Y159962D01*
X136305Y159961D01*
X136305Y159960D01*
X136305Y159750D01*
X136273Y159685D01*
X136216Y159629D01*
X136176Y159564D01*
X136132Y159502D01*
X136130Y159490D01*
X136125Y159482D01*
X136121Y159445D01*
X136105Y159360D01*
X136105Y159260D01*
X136116Y159210D01*
X136118Y159159D01*
X136136Y159127D01*
X136144Y159091D01*
X136177Y159052D01*
X136201Y159007D01*
X136231Y158986D01*
X136254Y158958D01*
X136301Y158937D01*
X136343Y158907D01*
X136385Y158899D01*
X136413Y158887D01*
X136443Y158888D01*
X136485Y158880D01*
X140385Y158880D01*
X140435Y158891D01*
X140486Y158893D01*
X140518Y158911D01*
X140554Y158919D01*
X140593Y158952D01*
X140638Y158976D01*
X140659Y159006D01*
X140687Y159029D01*
X140708Y159076D01*
X140738Y159118D01*
X140746Y159160D01*
X140758Y159188D01*
X140758Y159198D01*
X140794Y159256D01*
X140838Y159318D01*
X140840Y159330D01*
X140845Y159338D01*
X140849Y159375D01*
X140851Y159389D01*
X140854Y159391D01*
X140894Y159456D01*
X140938Y159518D01*
X140940Y159530D01*
X140945Y159538D01*
X140949Y159575D01*
X140965Y159660D01*
X140965Y159809D01*
X140978Y159830D01*
X141116Y159691D01*
X141143Y159675D01*
X141174Y159644D01*
X141474Y159444D01*
X141510Y159430D01*
X141565Y159399D01*
X141817Y159315D01*
X142074Y159144D01*
X142110Y159130D01*
X142165Y159099D01*
X143365Y158699D01*
X143402Y158696D01*
X143485Y158680D01*
X143723Y158680D01*
X143965Y158599D01*
X144002Y158596D01*
X144085Y158580D01*
X144423Y158580D01*
X144665Y158499D01*
X144702Y158496D01*
X144785Y158480D01*
X145885Y158480D01*
X145915Y158487D01*
G37*
G36*
X114917Y158887D02*
X114917Y158887D01*
X114951Y158885D01*
X115001Y158907D01*
X115054Y158919D01*
X115079Y158940D01*
X115110Y158953D01*
X115157Y159005D01*
X115187Y159029D01*
X115194Y159045D01*
X115208Y159060D01*
X118864Y164966D01*
X119905Y163995D01*
X119905Y159260D01*
X119916Y159210D01*
X119918Y159159D01*
X119936Y159127D01*
X119944Y159091D01*
X119977Y159052D01*
X120001Y159007D01*
X120031Y158986D01*
X120054Y158958D01*
X120101Y158937D01*
X120143Y158907D01*
X120185Y158899D01*
X120213Y158887D01*
X120243Y158888D01*
X120285Y158880D01*
X124185Y158880D01*
X124235Y158891D01*
X124286Y158893D01*
X124318Y158911D01*
X124354Y158919D01*
X124393Y158952D01*
X124438Y158976D01*
X124459Y159006D01*
X124487Y159029D01*
X124508Y159076D01*
X124538Y159118D01*
X124546Y159160D01*
X124558Y159188D01*
X124557Y159218D01*
X124565Y159260D01*
X124565Y176660D01*
X124555Y176703D01*
X124555Y176748D01*
X124536Y176787D01*
X124526Y176829D01*
X124497Y176863D01*
X124477Y176903D01*
X124438Y176936D01*
X124416Y176962D01*
X124392Y176973D01*
X124365Y176995D01*
X120465Y179095D01*
X120410Y179110D01*
X120357Y179133D01*
X120327Y179132D01*
X120298Y179140D01*
X120242Y179129D01*
X120184Y179127D01*
X120158Y179112D01*
X120128Y179106D01*
X120083Y179071D01*
X120032Y179044D01*
X120015Y179019D01*
X119991Y179001D01*
X119965Y178949D01*
X119932Y178902D01*
X119926Y178868D01*
X119914Y178845D01*
X119915Y178810D01*
X119905Y178760D01*
X119905Y169305D01*
X115659Y173723D01*
X115592Y173767D01*
X115527Y173813D01*
X115519Y173814D01*
X115514Y173818D01*
X115481Y173822D01*
X115385Y173840D01*
X110785Y173840D01*
X110758Y173834D01*
X110731Y173836D01*
X110675Y173814D01*
X110616Y173801D01*
X110595Y173783D01*
X110569Y173773D01*
X110529Y173729D01*
X110483Y173691D01*
X110471Y173665D01*
X110453Y173645D01*
X110436Y173587D01*
X110412Y173532D01*
X110413Y173505D01*
X110405Y173478D01*
X110416Y173419D01*
X110418Y173359D01*
X110432Y173335D01*
X110437Y173308D01*
X110483Y173241D01*
X110501Y173207D01*
X110511Y173200D01*
X110519Y173189D01*
X115596Y168207D01*
X109867Y159468D01*
X109842Y159399D01*
X109812Y159332D01*
X109812Y159319D01*
X109808Y159306D01*
X109816Y159233D01*
X109818Y159159D01*
X109825Y159147D01*
X109826Y159134D01*
X109866Y159072D01*
X109901Y159007D01*
X109912Y158999D01*
X109920Y158988D01*
X109983Y158950D01*
X110043Y158907D01*
X110058Y158904D01*
X110068Y158898D01*
X110107Y158895D01*
X110185Y158880D01*
X114885Y158880D01*
X114917Y158887D01*
G37*
G36*
X75435Y158891D02*
X75435Y158891D01*
X75486Y158893D01*
X75518Y158911D01*
X75554Y158919D01*
X75593Y158952D01*
X75638Y158976D01*
X75659Y159006D01*
X75687Y159029D01*
X75708Y159076D01*
X75738Y159118D01*
X75746Y159160D01*
X75758Y159188D01*
X75757Y159218D01*
X75765Y159260D01*
X75765Y167236D01*
X75862Y168009D01*
X75961Y168703D01*
X76048Y169226D01*
X76301Y169648D01*
X76545Y169972D01*
X76924Y170200D01*
X77354Y170286D01*
X77893Y170376D01*
X78630Y170284D01*
X79151Y170197D01*
X79531Y169969D01*
X79872Y169542D01*
X80146Y169087D01*
X80413Y168462D01*
X80505Y167639D01*
X80505Y159260D01*
X80516Y159210D01*
X80518Y159159D01*
X80536Y159127D01*
X80544Y159091D01*
X80577Y159052D01*
X80601Y159007D01*
X80631Y158986D01*
X80654Y158958D01*
X80701Y158937D01*
X80743Y158907D01*
X80785Y158899D01*
X80813Y158887D01*
X80843Y158888D01*
X80885Y158880D01*
X84785Y158880D01*
X84835Y158891D01*
X84886Y158893D01*
X84918Y158911D01*
X84954Y158919D01*
X84993Y158952D01*
X85038Y158976D01*
X85059Y159006D01*
X85087Y159029D01*
X85108Y159076D01*
X85138Y159118D01*
X85146Y159160D01*
X85158Y159188D01*
X85157Y159218D01*
X85165Y159260D01*
X85165Y173460D01*
X85154Y173510D01*
X85152Y173561D01*
X85134Y173593D01*
X85126Y173629D01*
X85093Y173668D01*
X85069Y173713D01*
X85039Y173734D01*
X85016Y173762D01*
X84969Y173783D01*
X84927Y173813D01*
X84885Y173821D01*
X84857Y173833D01*
X84827Y173832D01*
X84785Y173840D01*
X81085Y173840D01*
X81035Y173829D01*
X80984Y173827D01*
X80952Y173809D01*
X80916Y173801D01*
X80877Y173768D01*
X80832Y173744D01*
X80811Y173714D01*
X80783Y173691D01*
X80762Y173644D01*
X80732Y173602D01*
X80724Y173560D01*
X80712Y173532D01*
X80713Y173502D01*
X80705Y173460D01*
X80705Y172478D01*
X80454Y172729D01*
X80438Y172739D01*
X80423Y172757D01*
X79923Y173157D01*
X79909Y173163D01*
X79896Y173176D01*
X79296Y173576D01*
X79260Y173590D01*
X79205Y173621D01*
X78005Y174021D01*
X77980Y174023D01*
X77948Y174035D01*
X77348Y174135D01*
X77321Y174133D01*
X77285Y174140D01*
X76685Y174140D01*
X76673Y174137D01*
X76658Y174139D01*
X75258Y174039D01*
X75228Y174030D01*
X75185Y174027D01*
X74085Y173727D01*
X74053Y173710D01*
X74000Y173692D01*
X73100Y173192D01*
X73072Y173166D01*
X73016Y173129D01*
X72316Y172429D01*
X72298Y172399D01*
X72263Y172362D01*
X71763Y171562D01*
X71750Y171525D01*
X71721Y171469D01*
X71421Y170469D01*
X71420Y170450D01*
X71411Y170428D01*
X71211Y169328D01*
X71212Y169311D01*
X71206Y169289D01*
X71106Y167989D01*
X71108Y167976D01*
X71105Y167960D01*
X71105Y159260D01*
X71116Y159210D01*
X71118Y159159D01*
X71136Y159127D01*
X71144Y159091D01*
X71177Y159052D01*
X71201Y159007D01*
X71231Y158986D01*
X71254Y158958D01*
X71301Y158937D01*
X71343Y158907D01*
X71385Y158899D01*
X71413Y158887D01*
X71443Y158888D01*
X71485Y158880D01*
X75385Y158880D01*
X75435Y158891D01*
G37*
G36*
X96412Y158581D02*
X96412Y158581D01*
X96449Y158592D01*
X96515Y158603D01*
X97615Y159003D01*
X97637Y159017D01*
X97670Y159028D01*
X98570Y159528D01*
X98593Y159549D01*
X98632Y159571D01*
X99332Y160171D01*
X99349Y160194D01*
X99417Y160275D01*
X99917Y161175D01*
X99927Y161208D01*
X99949Y161251D01*
X100249Y162251D01*
X100250Y162270D01*
X100259Y162292D01*
X100459Y163392D01*
X100458Y163421D01*
X100465Y163460D01*
X100465Y173460D01*
X100454Y173510D01*
X100452Y173561D01*
X100434Y173593D01*
X100426Y173629D01*
X100393Y173668D01*
X100369Y173713D01*
X100339Y173734D01*
X100316Y173762D01*
X100269Y173783D01*
X100227Y173813D01*
X100185Y173821D01*
X100157Y173833D01*
X100127Y173832D01*
X100085Y173840D01*
X96285Y173840D01*
X96235Y173829D01*
X96184Y173827D01*
X96152Y173809D01*
X96116Y173801D01*
X96077Y173768D01*
X96032Y173744D01*
X96011Y173714D01*
X95983Y173691D01*
X95962Y173644D01*
X95932Y173602D01*
X95924Y173560D01*
X95912Y173532D01*
X95913Y173502D01*
X95905Y173460D01*
X95905Y165484D01*
X95709Y163915D01*
X95625Y163414D01*
X95126Y162748D01*
X94746Y162520D01*
X94316Y162434D01*
X93777Y162344D01*
X93040Y162436D01*
X92519Y162523D01*
X92121Y162762D01*
X91798Y163085D01*
X91530Y163620D01*
X91256Y164260D01*
X91165Y164984D01*
X91165Y173460D01*
X91154Y173510D01*
X91152Y173561D01*
X91134Y173593D01*
X91126Y173629D01*
X91093Y173668D01*
X91069Y173713D01*
X91039Y173734D01*
X91016Y173762D01*
X90969Y173783D01*
X90927Y173813D01*
X90885Y173821D01*
X90857Y173833D01*
X90827Y173832D01*
X90785Y173840D01*
X86885Y173840D01*
X86835Y173829D01*
X86784Y173827D01*
X86752Y173809D01*
X86716Y173801D01*
X86677Y173768D01*
X86632Y173744D01*
X86611Y173714D01*
X86583Y173691D01*
X86562Y173644D01*
X86532Y173602D01*
X86524Y173560D01*
X86512Y173532D01*
X86513Y173502D01*
X86505Y173460D01*
X86505Y159260D01*
X86516Y159210D01*
X86518Y159159D01*
X86536Y159127D01*
X86544Y159091D01*
X86577Y159052D01*
X86601Y159007D01*
X86631Y158986D01*
X86654Y158958D01*
X86701Y158937D01*
X86743Y158907D01*
X86785Y158899D01*
X86813Y158887D01*
X86843Y158888D01*
X86885Y158880D01*
X90585Y158880D01*
X90635Y158891D01*
X90686Y158893D01*
X90718Y158911D01*
X90754Y158919D01*
X90793Y158952D01*
X90838Y158976D01*
X90859Y159006D01*
X90887Y159029D01*
X90908Y159076D01*
X90938Y159118D01*
X90946Y159160D01*
X90958Y159188D01*
X90957Y159218D01*
X90965Y159260D01*
X90965Y160201D01*
X91188Y159922D01*
X91215Y159901D01*
X91247Y159863D01*
X91747Y159463D01*
X91777Y159449D01*
X91815Y159420D01*
X92415Y159120D01*
X92429Y159117D01*
X92444Y159107D01*
X92944Y158907D01*
X92954Y158905D01*
X92965Y158899D01*
X93565Y158699D01*
X93594Y158697D01*
X93631Y158684D01*
X94328Y158584D01*
X94923Y158485D01*
X94958Y158487D01*
X95012Y158481D01*
X96412Y158581D01*
G37*
G36*
X175017Y158581D02*
X175017Y158581D01*
X175030Y158585D01*
X175048Y158585D01*
X176248Y158785D01*
X176263Y158792D01*
X176285Y158793D01*
X177385Y159093D01*
X177413Y159108D01*
X177455Y159120D01*
X177775Y159280D01*
X178455Y159620D01*
X178484Y159644D01*
X178535Y159674D01*
X179335Y160374D01*
X179353Y160399D01*
X179385Y160427D01*
X180085Y161327D01*
X180101Y161362D01*
X180138Y161419D01*
X180538Y162419D01*
X180543Y162453D01*
X180561Y162502D01*
X180761Y163802D01*
X180755Y163882D01*
X180752Y163961D01*
X180748Y163967D01*
X180747Y163975D01*
X180707Y164043D01*
X180669Y164113D01*
X180663Y164117D01*
X180659Y164124D01*
X180592Y164167D01*
X180527Y164213D01*
X180519Y164214D01*
X180513Y164218D01*
X180480Y164222D01*
X180385Y164240D01*
X176685Y164240D01*
X176635Y164229D01*
X176584Y164227D01*
X176552Y164209D01*
X176516Y164201D01*
X176477Y164168D01*
X176432Y164144D01*
X176411Y164114D01*
X176383Y164091D01*
X176362Y164044D01*
X176332Y164002D01*
X176324Y163960D01*
X176312Y163932D01*
X176313Y163902D01*
X176305Y163860D01*
X176305Y163333D01*
X176151Y162948D01*
X175913Y162632D01*
X175231Y162120D01*
X174723Y162035D01*
X174717Y162033D01*
X174710Y162033D01*
X174216Y161934D01*
X173701Y161848D01*
X173377Y161929D01*
X173341Y161929D01*
X173285Y161940D01*
X172932Y161940D01*
X172618Y162019D01*
X172286Y162185D01*
X171935Y162448D01*
X171728Y162654D01*
X171577Y163260D01*
X171644Y163527D01*
X171785Y163810D01*
X172097Y164044D01*
X172545Y164312D01*
X173091Y164495D01*
X174668Y164889D01*
X175660Y165087D01*
X175663Y165089D01*
X175668Y165089D01*
X176568Y165289D01*
X176588Y165299D01*
X176619Y165304D01*
X177419Y165604D01*
X177425Y165608D01*
X177435Y165611D01*
X178135Y165911D01*
X178150Y165922D01*
X178174Y165930D01*
X178874Y166330D01*
X178882Y166338D01*
X178896Y166344D01*
X179496Y166744D01*
X179497Y166745D01*
X179500Y166746D01*
X179601Y166849D01*
X180001Y167449D01*
X180012Y167477D01*
X180035Y167510D01*
X180335Y168210D01*
X180341Y168249D01*
X180347Y168268D01*
X180359Y168294D01*
X180359Y168304D01*
X180363Y168318D01*
X180463Y169218D01*
X180459Y169249D01*
X180464Y169292D01*
X180364Y170492D01*
X180352Y170529D01*
X180338Y170601D01*
X179938Y171601D01*
X179918Y171630D01*
X179871Y171710D01*
X179171Y172510D01*
X179152Y172524D01*
X179132Y172549D01*
X178432Y173149D01*
X178400Y173166D01*
X178355Y173200D01*
X177355Y173700D01*
X177318Y173709D01*
X177260Y173733D01*
X176260Y173933D01*
X176257Y173933D01*
X176253Y173934D01*
X175153Y174134D01*
X175124Y174133D01*
X175085Y174140D01*
X172785Y174140D01*
X172757Y174134D01*
X172717Y174134D01*
X171617Y173934D01*
X171600Y173927D01*
X171576Y173924D01*
X170576Y173624D01*
X170557Y173614D01*
X170531Y173607D01*
X169631Y173207D01*
X169603Y173187D01*
X169557Y173164D01*
X168757Y172564D01*
X168732Y172534D01*
X168681Y172488D01*
X168081Y171688D01*
X168069Y171662D01*
X168045Y171630D01*
X167545Y170630D01*
X167536Y170592D01*
X167510Y170523D01*
X167310Y169323D01*
X167315Y169241D01*
X167318Y169159D01*
X167321Y169155D01*
X167321Y169150D01*
X167362Y169079D01*
X167401Y169007D01*
X167405Y169004D01*
X167408Y169000D01*
X167476Y168954D01*
X167543Y168907D01*
X167548Y168906D01*
X167552Y168904D01*
X167580Y168900D01*
X167685Y168880D01*
X171385Y168880D01*
X171398Y168883D01*
X171412Y168881D01*
X171482Y168902D01*
X171554Y168919D01*
X171564Y168928D01*
X171577Y168932D01*
X171631Y168983D01*
X171687Y169029D01*
X171693Y169042D01*
X171703Y169051D01*
X171758Y169185D01*
X171851Y169651D01*
X172023Y170082D01*
X172159Y170286D01*
X172376Y170431D01*
X172741Y170613D01*
X173158Y170780D01*
X174723Y170780D01*
X174965Y170699D01*
X174978Y170698D01*
X174993Y170691D01*
X175379Y170595D01*
X175541Y170541D01*
X175805Y170145D01*
X175805Y169907D01*
X175735Y169627D01*
X175513Y169332D01*
X175184Y169085D01*
X174639Y168812D01*
X174100Y168633D01*
X173338Y168537D01*
X173319Y168530D01*
X173293Y168529D01*
X170897Y167930D01*
X170003Y167731D01*
X169967Y167714D01*
X169896Y167690D01*
X168496Y166890D01*
X168476Y166871D01*
X168442Y166852D01*
X167842Y166352D01*
X167818Y166321D01*
X167813Y166316D01*
X167812Y166315D01*
X167769Y166271D01*
X167369Y165671D01*
X167358Y165643D01*
X167336Y165610D01*
X167036Y164910D01*
X167029Y164871D01*
X167007Y164802D01*
X166907Y163902D01*
X166912Y163864D01*
X166909Y163802D01*
X167109Y162502D01*
X167121Y162473D01*
X167128Y162430D01*
X167528Y161330D01*
X167549Y161297D01*
X167581Y161232D01*
X168181Y160432D01*
X168206Y160411D01*
X168235Y160374D01*
X169035Y159674D01*
X169068Y159656D01*
X169115Y159620D01*
X170115Y159120D01*
X170145Y159113D01*
X170185Y159093D01*
X171285Y158793D01*
X171302Y158793D01*
X171323Y158785D01*
X172523Y158585D01*
X172537Y158586D01*
X172553Y158581D01*
X173753Y158481D01*
X173780Y158485D01*
X173817Y158481D01*
X175017Y158581D01*
G37*
G36*
X79351Y66559D02*
X79351Y66559D01*
X79371Y66554D01*
X80771Y66854D01*
X80808Y66878D01*
X80833Y66888D01*
X80838Y66898D01*
X80861Y66913D01*
X80863Y66920D01*
X80868Y66923D01*
X81397Y67805D01*
X81869Y67568D01*
X83065Y66871D01*
X83090Y66867D01*
X83104Y66855D01*
X84304Y66555D01*
X84339Y66560D01*
X84361Y66552D01*
X85761Y66752D01*
X85773Y66759D01*
X85784Y66757D01*
X87084Y67157D01*
X87108Y67176D01*
X87128Y67179D01*
X88228Y67979D01*
X88238Y67995D01*
X88251Y68000D01*
X89151Y69000D01*
X89156Y69014D01*
X89166Y69020D01*
X89866Y70120D01*
X89870Y70142D01*
X89882Y70153D01*
X90282Y71353D01*
X90281Y71363D01*
X90286Y71369D01*
X90586Y72769D01*
X90583Y72788D01*
X90589Y72800D01*
X90589Y78300D01*
X90584Y78313D01*
X90588Y78323D01*
X90388Y79623D01*
X90344Y79699D01*
X90338Y79712D01*
X89538Y80412D01*
X89467Y80438D01*
X89449Y80449D01*
X87749Y80549D01*
X87711Y80537D01*
X87686Y80539D01*
X86386Y80039D01*
X86307Y79967D01*
X86306Y79963D01*
X86304Y79961D01*
X85904Y79061D01*
X85902Y79028D01*
X85891Y79010D01*
X85791Y77510D01*
X85793Y77504D01*
X85791Y77500D01*
X85791Y73422D01*
X85412Y72193D01*
X84493Y71549D01*
X83078Y71549D01*
X82058Y72106D01*
X81587Y73235D01*
X81489Y74605D01*
X81489Y78700D01*
X81481Y78721D01*
X81485Y78736D01*
X81185Y79936D01*
X81123Y80024D01*
X81106Y80028D01*
X81097Y80038D01*
X79897Y80538D01*
X79855Y80539D01*
X79831Y80549D01*
X78131Y80449D01*
X78097Y80433D01*
X78073Y80434D01*
X77073Y79934D01*
X77001Y79854D01*
X77001Y79850D01*
X76998Y79847D01*
X76598Y78647D01*
X76600Y78618D01*
X76591Y78600D01*
X76591Y69000D01*
X76596Y68987D01*
X76593Y68977D01*
X76793Y67677D01*
X76827Y67617D01*
X76834Y67594D01*
X77634Y66794D01*
X77704Y66764D01*
X77722Y66752D01*
X79322Y66552D01*
X79351Y66559D01*
G37*
G36*
X67642Y66555D02*
X67642Y66555D01*
X67651Y66551D01*
X68951Y66651D01*
X68964Y66657D01*
X68974Y66655D01*
X70274Y66955D01*
X70281Y66959D01*
X70287Y66958D01*
X71487Y67358D01*
X71499Y67368D01*
X71511Y67369D01*
X72811Y68069D01*
X72820Y68080D01*
X72826Y68082D01*
X72832Y68094D01*
X72877Y68146D01*
X72880Y68149D01*
X72881Y68150D01*
X73280Y69249D01*
X73278Y69356D01*
X73278Y69357D01*
X72778Y70557D01*
X72760Y70577D01*
X72756Y70595D01*
X71856Y71695D01*
X71762Y71748D01*
X71749Y71745D01*
X71740Y71749D01*
X70540Y71749D01*
X70499Y71733D01*
X70473Y71734D01*
X69078Y71036D01*
X67915Y70551D01*
X66441Y70643D01*
X66235Y71125D01*
X67182Y71555D01*
X68660Y71752D01*
X68678Y71762D01*
X68694Y71761D01*
X69994Y72261D01*
X70004Y72270D01*
X70015Y72271D01*
X71215Y72971D01*
X71236Y72997D01*
X71257Y73007D01*
X72057Y74007D01*
X72062Y74025D01*
X72074Y74033D01*
X72674Y75233D01*
X72676Y75262D01*
X72688Y75279D01*
X72888Y76679D01*
X72887Y76682D01*
X72889Y76685D01*
X72884Y76700D01*
X72889Y76711D01*
X72789Y78011D01*
X72773Y78044D01*
X72774Y78067D01*
X72274Y79067D01*
X72256Y79082D01*
X72252Y79098D01*
X71552Y79898D01*
X71524Y79913D01*
X71511Y79931D01*
X70411Y80531D01*
X70392Y80534D01*
X70381Y80544D01*
X68981Y80944D01*
X68961Y80942D01*
X68948Y80949D01*
X67148Y81049D01*
X67144Y81048D01*
X67140Y81049D01*
X65840Y81049D01*
X65821Y81042D01*
X65806Y81045D01*
X64506Y80745D01*
X64496Y80738D01*
X64486Y80739D01*
X63186Y80239D01*
X63158Y80213D01*
X63134Y80206D01*
X62234Y79306D01*
X62234Y79304D01*
X62233Y79304D01*
X62230Y79296D01*
X62191Y79207D01*
X62197Y79189D01*
X62193Y79175D01*
X62393Y77975D01*
X62419Y77931D01*
X62425Y77904D01*
X63425Y76704D01*
X63519Y76652D01*
X63523Y76653D01*
X63525Y76652D01*
X64525Y76552D01*
X64572Y76564D01*
X64599Y76563D01*
X65976Y77153D01*
X67321Y77249D01*
X68346Y76907D01*
X68127Y76324D01*
X66709Y75946D01*
X65417Y75748D01*
X65401Y75738D01*
X65386Y75739D01*
X64086Y75239D01*
X64080Y75233D01*
X64073Y75234D01*
X62873Y74634D01*
X62843Y74600D01*
X62819Y74588D01*
X62019Y73488D01*
X62010Y73454D01*
X61995Y73436D01*
X61695Y72236D01*
X61697Y72220D01*
X61691Y72210D01*
X61591Y70710D01*
X61599Y70685D01*
X61595Y70666D01*
X61895Y69366D01*
X61908Y69346D01*
X61909Y69329D01*
X62509Y68229D01*
X62541Y68202D01*
X62552Y68179D01*
X63652Y67379D01*
X63677Y67373D01*
X63689Y67360D01*
X64789Y66960D01*
X64800Y66960D01*
X64806Y66955D01*
X66106Y66655D01*
X66121Y66657D01*
X66130Y66651D01*
X67630Y66551D01*
X67642Y66555D01*
G37*
G36*
X119555Y66559D02*
X119555Y66559D01*
X119574Y66555D01*
X120874Y66855D01*
X120884Y66862D01*
X120894Y66861D01*
X122194Y67361D01*
X122204Y67370D01*
X122215Y67371D01*
X123415Y68071D01*
X123422Y68080D01*
X123427Y68082D01*
X123430Y68086D01*
X123440Y68089D01*
X124440Y68989D01*
X124448Y69006D01*
X124461Y69012D01*
X125261Y70112D01*
X125265Y70129D01*
X125276Y70137D01*
X125876Y71437D01*
X125877Y71456D01*
X125885Y71466D01*
X126185Y72766D01*
X126183Y72787D01*
X126189Y72800D01*
X126189Y74200D01*
X126184Y74213D01*
X126188Y74223D01*
X125988Y75523D01*
X125981Y75534D01*
X125983Y75544D01*
X125583Y76844D01*
X125566Y76865D01*
X125564Y76883D01*
X124764Y78083D01*
X124754Y78090D01*
X124751Y78100D01*
X123851Y79100D01*
X123826Y79113D01*
X123815Y79129D01*
X122615Y79829D01*
X122610Y79830D01*
X122607Y79834D01*
X121407Y80434D01*
X121385Y80436D01*
X121374Y80445D01*
X120074Y80745D01*
X120060Y80744D01*
X120051Y80749D01*
X118751Y80849D01*
X118733Y80843D01*
X118719Y80848D01*
X117319Y80648D01*
X117301Y80638D01*
X117286Y80639D01*
X115986Y80139D01*
X115976Y80130D01*
X115965Y80129D01*
X114765Y79429D01*
X114741Y79399D01*
X114719Y79388D01*
X113919Y78288D01*
X113903Y78228D01*
X113893Y78207D01*
X113895Y78198D01*
X113892Y78184D01*
X113894Y78179D01*
X113893Y78175D01*
X114093Y76975D01*
X114112Y76943D01*
X114114Y76919D01*
X115014Y75519D01*
X115050Y75494D01*
X115063Y75472D01*
X116063Y74872D01*
X116169Y74854D01*
X116174Y74857D01*
X116179Y74856D01*
X117279Y75156D01*
X117296Y75168D01*
X117311Y75169D01*
X118572Y75848D01*
X119794Y75754D01*
X120914Y75100D01*
X121291Y73878D01*
X121291Y72576D01*
X120271Y71834D01*
X119138Y71457D01*
X117898Y71838D01*
X116611Y72531D01*
X116504Y72545D01*
X116498Y72541D01*
X116493Y72542D01*
X115593Y72242D01*
X115555Y72210D01*
X115530Y72201D01*
X114430Y71001D01*
X114417Y70969D01*
X114401Y70954D01*
X113901Y69654D01*
X113901Y69558D01*
X113900Y69549D01*
X114300Y68449D01*
X114328Y68416D01*
X114332Y68402D01*
X114342Y68397D01*
X114350Y68381D01*
X115550Y67481D01*
X115572Y67475D01*
X115583Y67462D01*
X116783Y66962D01*
X116798Y66962D01*
X116806Y66955D01*
X118106Y66655D01*
X118120Y66657D01*
X118129Y66651D01*
X119529Y66551D01*
X119555Y66559D01*
G37*
G36*
X107835Y158891D02*
X107835Y158891D01*
X107886Y158893D01*
X107918Y158911D01*
X107954Y158919D01*
X107993Y158952D01*
X108038Y158976D01*
X108059Y159006D01*
X108087Y159029D01*
X108108Y159076D01*
X108138Y159118D01*
X108146Y159160D01*
X108158Y159188D01*
X108157Y159218D01*
X108165Y159260D01*
X108165Y170480D01*
X111685Y170480D01*
X111736Y170492D01*
X111789Y170494D01*
X111819Y170511D01*
X111854Y170519D01*
X111894Y170553D01*
X111940Y170578D01*
X111960Y170607D01*
X111987Y170629D01*
X112009Y170677D01*
X112039Y170721D01*
X112044Y170755D01*
X112058Y170788D01*
X112056Y170840D01*
X112064Y170892D01*
X112053Y170925D01*
X112052Y170961D01*
X112027Y171007D01*
X112010Y171057D01*
X111983Y171087D01*
X111969Y171113D01*
X111943Y171131D01*
X111913Y171164D01*
X111535Y171448D01*
X109954Y173029D01*
X109934Y173041D01*
X109913Y173064D01*
X109557Y173332D01*
X109289Y173688D01*
X109277Y173699D01*
X109269Y173713D01*
X109211Y173754D01*
X109156Y173799D01*
X109141Y173803D01*
X109127Y173813D01*
X109000Y173837D01*
X108988Y173840D01*
X108987Y173840D01*
X108985Y173840D01*
X108165Y173840D01*
X108165Y175460D01*
X108159Y175486D01*
X108141Y175594D01*
X107841Y176394D01*
X107837Y176400D01*
X107835Y176410D01*
X107535Y177110D01*
X107511Y177141D01*
X107477Y177203D01*
X106977Y177803D01*
X106947Y177826D01*
X106906Y177869D01*
X106206Y178369D01*
X106182Y178379D01*
X106155Y178400D01*
X105355Y178800D01*
X105328Y178807D01*
X105294Y178824D01*
X104294Y179124D01*
X104255Y179127D01*
X104185Y179140D01*
X101285Y179140D01*
X101270Y179137D01*
X101255Y179139D01*
X101123Y179102D01*
X101116Y179101D01*
X101116Y179100D01*
X101115Y179100D01*
X100915Y179000D01*
X100876Y178968D01*
X100832Y178944D01*
X100811Y178913D01*
X100782Y178889D01*
X100761Y178843D01*
X100732Y178802D01*
X100724Y178759D01*
X100711Y178731D01*
X100712Y178715D01*
X100713Y178701D01*
X100705Y178660D01*
X100705Y175860D01*
X100716Y175810D01*
X100718Y175759D01*
X100736Y175727D01*
X100744Y175691D01*
X100777Y175652D01*
X100801Y175607D01*
X100831Y175586D01*
X100854Y175558D01*
X100901Y175537D01*
X100943Y175507D01*
X100985Y175499D01*
X101013Y175487D01*
X101043Y175488D01*
X101085Y175480D01*
X102738Y175480D01*
X103052Y175401D01*
X103325Y175265D01*
X103456Y175069D01*
X103505Y174970D01*
X103505Y174660D01*
X103513Y174624D01*
X103516Y174568D01*
X103605Y174213D01*
X103605Y173840D01*
X101285Y173840D01*
X101235Y173829D01*
X101184Y173827D01*
X101152Y173809D01*
X101116Y173801D01*
X101077Y173768D01*
X101032Y173744D01*
X101011Y173714D01*
X100983Y173691D01*
X100962Y173644D01*
X100932Y173602D01*
X100924Y173560D01*
X100912Y173532D01*
X100913Y173502D01*
X100905Y173460D01*
X100905Y170860D01*
X100916Y170810D01*
X100918Y170759D01*
X100936Y170727D01*
X100944Y170691D01*
X100977Y170652D01*
X101001Y170607D01*
X101031Y170586D01*
X101054Y170558D01*
X101101Y170537D01*
X101143Y170507D01*
X101185Y170499D01*
X101213Y170487D01*
X101243Y170488D01*
X101285Y170480D01*
X103605Y170480D01*
X103605Y159260D01*
X103616Y159210D01*
X103618Y159159D01*
X103636Y159127D01*
X103644Y159091D01*
X103677Y159052D01*
X103701Y159007D01*
X103731Y158986D01*
X103754Y158958D01*
X103801Y158937D01*
X103843Y158907D01*
X103885Y158899D01*
X103913Y158887D01*
X103943Y158888D01*
X103985Y158880D01*
X107785Y158880D01*
X107835Y158891D01*
G37*
G36*
X134835Y158891D02*
X134835Y158891D01*
X134886Y158893D01*
X134918Y158911D01*
X134954Y158919D01*
X134993Y158952D01*
X135038Y158976D01*
X135059Y159006D01*
X135087Y159029D01*
X135108Y159076D01*
X135138Y159118D01*
X135146Y159160D01*
X135158Y159188D01*
X135157Y159218D01*
X135165Y159260D01*
X135165Y172760D01*
X135162Y172773D01*
X135164Y172787D01*
X135143Y172857D01*
X135126Y172929D01*
X135117Y172939D01*
X135113Y172952D01*
X135062Y173006D01*
X135016Y173062D01*
X135003Y173068D01*
X134994Y173078D01*
X134860Y173133D01*
X134368Y173231D01*
X133977Y173329D01*
X133941Y173329D01*
X133885Y173340D01*
X133423Y173340D01*
X132968Y173431D01*
X132577Y173529D01*
X132569Y173529D01*
X132560Y173533D01*
X131568Y173731D01*
X131177Y173829D01*
X131167Y173829D01*
X131157Y173833D01*
X131081Y173830D01*
X131004Y173832D01*
X130995Y173827D01*
X130984Y173827D01*
X130917Y173790D01*
X130848Y173757D01*
X130841Y173749D01*
X130832Y173744D01*
X130788Y173681D01*
X130740Y173621D01*
X130738Y173611D01*
X130732Y173602D01*
X130705Y173460D01*
X130705Y172044D01*
X130582Y172198D01*
X130579Y172200D01*
X130577Y172203D01*
X130077Y172803D01*
X130062Y172815D01*
X130058Y172822D01*
X130044Y172831D01*
X130023Y172857D01*
X129523Y173257D01*
X129499Y173268D01*
X129474Y173290D01*
X128774Y173690D01*
X128744Y173699D01*
X128705Y173721D01*
X128105Y173921D01*
X128098Y173921D01*
X128089Y173926D01*
X127389Y174126D01*
X127351Y174128D01*
X127285Y174140D01*
X125885Y174140D01*
X125811Y174123D01*
X125736Y174110D01*
X125726Y174103D01*
X125716Y174101D01*
X125687Y174077D01*
X125616Y174029D01*
X125615Y174028D01*
X125584Y174027D01*
X125552Y174009D01*
X125516Y174001D01*
X125477Y173968D01*
X125432Y173944D01*
X125411Y173914D01*
X125383Y173891D01*
X125362Y173844D01*
X125332Y173802D01*
X125324Y173760D01*
X125312Y173732D01*
X125313Y173702D01*
X125305Y173660D01*
X125305Y170060D01*
X125316Y170010D01*
X125318Y169959D01*
X125336Y169927D01*
X125344Y169891D01*
X125377Y169852D01*
X125401Y169807D01*
X125431Y169786D01*
X125454Y169758D01*
X125501Y169737D01*
X125543Y169707D01*
X125585Y169699D01*
X125613Y169687D01*
X125643Y169688D01*
X125685Y169680D01*
X125785Y169680D01*
X125800Y169683D01*
X125815Y169681D01*
X125947Y169718D01*
X125954Y169719D01*
X125954Y169720D01*
X125955Y169720D01*
X126075Y169780D01*
X127066Y169780D01*
X128020Y169684D01*
X128742Y169504D01*
X129337Y169164D01*
X129771Y168642D01*
X130132Y168011D01*
X130316Y167366D01*
X130505Y166518D01*
X130505Y159260D01*
X130516Y159210D01*
X130518Y159159D01*
X130536Y159127D01*
X130544Y159091D01*
X130577Y159052D01*
X130601Y159007D01*
X130631Y158986D01*
X130654Y158958D01*
X130701Y158937D01*
X130743Y158907D01*
X130785Y158899D01*
X130813Y158887D01*
X130843Y158888D01*
X130885Y158880D01*
X134785Y158880D01*
X134835Y158891D01*
G37*
%LPC*%
G36*
X180686Y71644D02*
X180686Y71644D01*
X179525Y72224D01*
X178555Y73097D01*
X177877Y74163D01*
X177489Y75422D01*
X177489Y76889D01*
X177684Y78252D01*
X178263Y79313D01*
X179140Y80288D01*
X180208Y81065D01*
X181462Y81451D01*
X182718Y81451D01*
X183972Y81065D01*
X185040Y80288D01*
X185917Y79313D01*
X186499Y78248D01*
X186791Y76884D01*
X186791Y74240D01*
X186789Y74240D01*
X186758Y74213D01*
X186734Y74206D01*
X186437Y73908D01*
X186345Y73825D01*
X185848Y73378D01*
X185442Y73013D01*
X184363Y72129D01*
X183199Y71645D01*
X181940Y71451D01*
X180686Y71644D01*
G37*
%LPD*%
G36*
X133356Y66752D02*
X133356Y66752D01*
X133427Y66788D01*
X133446Y66794D01*
X134246Y67594D01*
X134282Y67676D01*
X134289Y67688D01*
X134389Y68888D01*
X134387Y68895D01*
X134389Y68900D01*
X134389Y78100D01*
X134387Y78106D01*
X134389Y78111D01*
X134289Y79411D01*
X134264Y79463D01*
X134261Y79475D01*
X134258Y79477D01*
X134249Y79495D01*
X134246Y79506D01*
X133446Y80306D01*
X133376Y80336D01*
X133359Y80348D01*
X131759Y80548D01*
X131729Y80541D01*
X131709Y80546D01*
X130309Y80246D01*
X130219Y80187D01*
X130217Y80180D01*
X130212Y80177D01*
X129612Y79177D01*
X129603Y79125D01*
X129591Y79102D01*
X129592Y79102D01*
X129591Y79100D01*
X129591Y68100D01*
X129607Y68059D01*
X129607Y68033D01*
X130107Y67033D01*
X130186Y66961D01*
X130192Y66961D01*
X130196Y66957D01*
X131496Y66557D01*
X131534Y66560D01*
X131556Y66552D01*
X133356Y66752D01*
G37*
G36*
X141856Y66752D02*
X141856Y66752D01*
X141927Y66788D01*
X141946Y66794D01*
X142746Y67594D01*
X142782Y67676D01*
X142789Y67688D01*
X142889Y68888D01*
X142887Y68895D01*
X142889Y68900D01*
X142889Y78100D01*
X142887Y78106D01*
X142889Y78111D01*
X142789Y79411D01*
X142764Y79463D01*
X142761Y79475D01*
X142758Y79477D01*
X142752Y79498D01*
X142052Y80298D01*
X141958Y80348D01*
X141957Y80348D01*
X140257Y80548D01*
X140227Y80540D01*
X140206Y80545D01*
X138906Y80245D01*
X138817Y80185D01*
X138816Y80179D01*
X138812Y80177D01*
X138212Y79177D01*
X138204Y79133D01*
X138191Y79111D01*
X138091Y77711D01*
X138093Y77704D01*
X138091Y77700D01*
X138091Y68100D01*
X138107Y68059D01*
X138107Y68033D01*
X138607Y67033D01*
X138686Y66961D01*
X138692Y66961D01*
X138696Y66957D01*
X139996Y66557D01*
X140034Y66560D01*
X140056Y66552D01*
X141856Y66752D01*
G37*
%LPC*%
G36*
X37341Y198649D02*
X37341Y198649D01*
X36700Y198741D01*
X36369Y199072D01*
X36277Y199625D01*
X36261Y199652D01*
X36279Y199693D01*
X36278Y199697D01*
X36279Y199700D01*
X36279Y206400D01*
X36276Y206409D01*
X36278Y206419D01*
X36262Y206450D01*
X36267Y206476D01*
X36279Y206500D01*
X36279Y207159D01*
X36539Y207591D01*
X36971Y207851D01*
X37668Y207851D01*
X38281Y207238D01*
X38281Y202500D01*
X38299Y202453D01*
X38315Y202405D01*
X38318Y202403D01*
X38319Y202400D01*
X38364Y202377D01*
X38408Y202352D01*
X38411Y202353D01*
X38415Y202351D01*
X38519Y202380D01*
X38524Y202391D01*
X38536Y202394D01*
X38736Y202594D01*
X38741Y202606D01*
X38749Y202610D01*
X39349Y203410D01*
X39349Y203411D01*
X42147Y207107D01*
X42618Y207672D01*
X43154Y207851D01*
X43778Y207851D01*
X44202Y207511D01*
X44381Y206976D01*
X44381Y199641D01*
X44363Y199626D01*
X44341Y199620D01*
X44330Y199598D01*
X44299Y199572D01*
X44293Y199524D01*
X44281Y199500D01*
X44281Y198962D01*
X43968Y198649D01*
X43151Y198649D01*
X42541Y198823D01*
X42379Y199229D01*
X42379Y203900D01*
X42377Y203907D01*
X42379Y203914D01*
X42358Y203956D01*
X42341Y204000D01*
X42334Y204004D01*
X42331Y204010D01*
X42287Y204027D01*
X42245Y204049D01*
X42238Y204047D01*
X42231Y204049D01*
X42210Y204039D01*
X42141Y204020D01*
X42131Y204000D01*
X42111Y203990D01*
X38517Y199198D01*
X37968Y198649D01*
X37341Y198649D01*
G37*
%LPD*%
%LPC*%
G36*
X331981Y58949D02*
X331981Y58949D01*
X331340Y59041D01*
X331009Y59372D01*
X330917Y59925D01*
X330901Y59952D01*
X330919Y59993D01*
X330918Y59997D01*
X330919Y60000D01*
X330919Y66700D01*
X330916Y66709D01*
X330918Y66719D01*
X330902Y66750D01*
X330907Y66776D01*
X330919Y66800D01*
X330919Y67459D01*
X331179Y67891D01*
X331611Y68151D01*
X332308Y68151D01*
X332921Y67538D01*
X332921Y62800D01*
X332939Y62753D01*
X332955Y62705D01*
X332958Y62703D01*
X332959Y62700D01*
X333004Y62677D01*
X333048Y62652D01*
X333051Y62653D01*
X333055Y62651D01*
X333159Y62680D01*
X333164Y62691D01*
X333176Y62694D01*
X333376Y62894D01*
X333381Y62906D01*
X333389Y62910D01*
X333989Y63710D01*
X333989Y63711D01*
X336787Y67407D01*
X337258Y67972D01*
X337794Y68151D01*
X338418Y68151D01*
X338842Y67811D01*
X339021Y67276D01*
X339021Y59941D01*
X339003Y59926D01*
X338981Y59920D01*
X338970Y59898D01*
X338939Y59872D01*
X338933Y59824D01*
X338921Y59800D01*
X338921Y59262D01*
X338608Y58949D01*
X337791Y58949D01*
X337181Y59123D01*
X337019Y59529D01*
X337019Y64200D01*
X337017Y64207D01*
X337019Y64214D01*
X336998Y64256D01*
X336981Y64300D01*
X336974Y64304D01*
X336971Y64310D01*
X336927Y64327D01*
X336885Y64349D01*
X336878Y64347D01*
X336871Y64349D01*
X336850Y64339D01*
X336781Y64320D01*
X336771Y64300D01*
X336751Y64290D01*
X333157Y59498D01*
X332608Y58949D01*
X331981Y58949D01*
G37*
%LPD*%
%LPC*%
G36*
X331981Y211349D02*
X331981Y211349D01*
X331340Y211441D01*
X331009Y211772D01*
X330917Y212325D01*
X330901Y212352D01*
X330919Y212393D01*
X330918Y212397D01*
X330919Y212400D01*
X330919Y219100D01*
X330916Y219109D01*
X330918Y219119D01*
X330902Y219150D01*
X330907Y219176D01*
X330919Y219200D01*
X330919Y219859D01*
X331179Y220291D01*
X331611Y220551D01*
X332308Y220551D01*
X332921Y219938D01*
X332921Y215200D01*
X332939Y215153D01*
X332955Y215105D01*
X332958Y215103D01*
X332959Y215100D01*
X333004Y215077D01*
X333048Y215052D01*
X333051Y215053D01*
X333055Y215051D01*
X333159Y215080D01*
X333164Y215091D01*
X333176Y215094D01*
X333376Y215294D01*
X333381Y215306D01*
X333389Y215310D01*
X333989Y216110D01*
X333989Y216111D01*
X336787Y219807D01*
X337258Y220372D01*
X337794Y220551D01*
X338418Y220551D01*
X338842Y220211D01*
X339021Y219676D01*
X339021Y212341D01*
X339003Y212326D01*
X338981Y212320D01*
X338970Y212298D01*
X338939Y212272D01*
X338933Y212224D01*
X338921Y212200D01*
X338921Y211662D01*
X338608Y211349D01*
X337791Y211349D01*
X337181Y211523D01*
X337019Y211929D01*
X337019Y216600D01*
X337017Y216607D01*
X337019Y216614D01*
X336998Y216656D01*
X336981Y216700D01*
X336974Y216704D01*
X336971Y216710D01*
X336927Y216727D01*
X336885Y216749D01*
X336878Y216747D01*
X336871Y216749D01*
X336850Y216739D01*
X336781Y216720D01*
X336771Y216700D01*
X336751Y216690D01*
X333157Y211898D01*
X332608Y211349D01*
X331981Y211349D01*
G37*
%LPD*%
%LPC*%
G36*
X32191Y71738D02*
X32191Y71738D01*
X31949Y72141D01*
X31949Y76800D01*
X31931Y76847D01*
X31915Y76895D01*
X31912Y76897D01*
X31911Y76900D01*
X31866Y76923D01*
X31822Y76948D01*
X31819Y76947D01*
X31815Y76949D01*
X31711Y76920D01*
X31706Y76909D01*
X31694Y76906D01*
X31494Y76706D01*
X31492Y76699D01*
X31487Y76697D01*
X30887Y75997D01*
X30885Y75992D01*
X30881Y75990D01*
X28087Y72298D01*
X27528Y71739D01*
X26997Y71651D01*
X26258Y71743D01*
X25939Y71982D01*
X25849Y72611D01*
X25849Y80076D01*
X26024Y80600D01*
X26441Y80851D01*
X27079Y80851D01*
X27683Y80678D01*
X27754Y80467D01*
X27851Y79691D01*
X27851Y75700D01*
X27868Y75656D01*
X27880Y75611D01*
X27886Y75608D01*
X27889Y75600D01*
X27985Y75551D01*
X27994Y75554D01*
X28000Y75551D01*
X28100Y75551D01*
X28200Y75589D01*
X28208Y75604D01*
X28219Y75609D01*
X29519Y77309D01*
X29519Y77311D01*
X29520Y77311D01*
X31513Y80002D01*
X32093Y80582D01*
X32541Y80851D01*
X33165Y80851D01*
X33678Y80594D01*
X33851Y80076D01*
X33851Y72700D01*
X33852Y72697D01*
X33851Y72694D01*
X33870Y72651D01*
X33861Y72620D01*
X33851Y72600D01*
X33851Y72062D01*
X33531Y71742D01*
X32801Y71651D01*
X32191Y71738D01*
G37*
%LPD*%
%LPC*%
G36*
X37012Y71649D02*
X37012Y71649D01*
X36493Y71736D01*
X36249Y72141D01*
X36249Y72976D01*
X36413Y73468D01*
X36923Y73553D01*
X37611Y73651D01*
X41000Y73651D01*
X41013Y73656D01*
X41026Y73653D01*
X41047Y73669D01*
X41100Y73689D01*
X41116Y73720D01*
X41134Y73733D01*
X41334Y74133D01*
X41336Y74161D01*
X41337Y74161D01*
X41336Y74162D01*
X41338Y74177D01*
X41349Y74200D01*
X41349Y74900D01*
X41337Y74933D01*
X41333Y74968D01*
X41319Y74978D01*
X41311Y75000D01*
X41241Y75035D01*
X41225Y75047D01*
X40625Y75147D01*
X40614Y75145D01*
X40607Y75149D01*
X38614Y75249D01*
X37970Y75341D01*
X37649Y75662D01*
X37649Y76379D01*
X37827Y77002D01*
X38241Y77251D01*
X40900Y77251D01*
X41000Y77289D01*
X41002Y77293D01*
X41006Y77294D01*
X41306Y77594D01*
X41349Y77693D01*
X41348Y77697D01*
X41349Y77700D01*
X41349Y78400D01*
X41311Y78500D01*
X41295Y78508D01*
X41290Y78519D01*
X40890Y78819D01*
X40821Y78839D01*
X40800Y78849D01*
X36741Y78849D01*
X36327Y79098D01*
X36152Y79712D01*
X36242Y80431D01*
X36572Y80761D01*
X37112Y80851D01*
X42576Y80851D01*
X43100Y80676D01*
X43351Y80259D01*
X43351Y72809D01*
X43255Y72044D01*
X43102Y71738D01*
X42391Y71649D01*
X37012Y71649D01*
G37*
%LPD*%
%LPC*%
G36*
X324782Y58949D02*
X324782Y58949D01*
X324203Y59046D01*
X323524Y59240D01*
X322951Y59526D01*
X322463Y59917D01*
X321975Y60307D01*
X321492Y60887D01*
X321201Y61372D01*
X320910Y61954D01*
X320716Y62633D01*
X320619Y63212D01*
X320619Y63889D01*
X320716Y64569D01*
X320910Y65246D01*
X321196Y65819D01*
X321587Y66307D01*
X321977Y66795D01*
X322557Y67278D01*
X323042Y67569D01*
X323624Y67860D01*
X324303Y68054D01*
X324882Y68151D01*
X328120Y68151D01*
X328443Y67909D01*
X328621Y67376D01*
X328621Y66404D01*
X326502Y65862D01*
X326160Y66119D01*
X326091Y66139D01*
X326070Y66149D01*
X324670Y66149D01*
X324629Y66133D01*
X324603Y66134D01*
X324003Y65834D01*
X323990Y65819D01*
X323977Y65817D01*
X323477Y65417D01*
X323467Y65399D01*
X323453Y65393D01*
X323053Y64893D01*
X323048Y64875D01*
X323037Y64867D01*
X322737Y64267D01*
X322734Y64238D01*
X322722Y64221D01*
X322622Y63521D01*
X322628Y63496D01*
X322622Y63479D01*
X322722Y62779D01*
X322737Y62753D01*
X322737Y62733D01*
X323037Y62133D01*
X323051Y62120D01*
X323053Y62107D01*
X323453Y61607D01*
X323462Y61602D01*
X323464Y61594D01*
X323964Y61094D01*
X324005Y61077D01*
X324023Y61058D01*
X324323Y60958D01*
X324352Y60960D01*
X324370Y60951D01*
X326370Y60951D01*
X326403Y60963D01*
X326438Y60967D01*
X326448Y60981D01*
X326470Y60989D01*
X326505Y61059D01*
X326517Y61075D01*
X326617Y61675D01*
X326614Y61690D01*
X326619Y61700D01*
X326619Y65581D01*
X328621Y66047D01*
X328621Y59911D01*
X328531Y59282D01*
X328211Y59042D01*
X327559Y58949D01*
X324782Y58949D01*
G37*
%LPD*%
%LPC*%
G36*
X30142Y198649D02*
X30142Y198649D01*
X29563Y198746D01*
X28884Y198940D01*
X28311Y199226D01*
X27823Y199617D01*
X27335Y200007D01*
X26852Y200587D01*
X26561Y201072D01*
X26270Y201654D01*
X26076Y202333D01*
X25979Y202912D01*
X25979Y203589D01*
X26076Y204269D01*
X26270Y204946D01*
X26556Y205519D01*
X26947Y206007D01*
X27337Y206495D01*
X27917Y206978D01*
X28402Y207269D01*
X28984Y207560D01*
X29663Y207754D01*
X30242Y207851D01*
X33480Y207851D01*
X33803Y207609D01*
X33981Y207076D01*
X33981Y206104D01*
X31862Y205562D01*
X31520Y205819D01*
X31451Y205839D01*
X31430Y205849D01*
X30030Y205849D01*
X29989Y205833D01*
X29963Y205834D01*
X29363Y205534D01*
X29350Y205519D01*
X29337Y205517D01*
X28837Y205117D01*
X28827Y205099D01*
X28813Y205093D01*
X28413Y204593D01*
X28408Y204575D01*
X28397Y204567D01*
X28097Y203967D01*
X28094Y203938D01*
X28082Y203921D01*
X27982Y203221D01*
X27988Y203196D01*
X27982Y203179D01*
X28082Y202479D01*
X28097Y202453D01*
X28097Y202433D01*
X28397Y201833D01*
X28411Y201820D01*
X28413Y201807D01*
X28813Y201307D01*
X28822Y201302D01*
X28824Y201294D01*
X29324Y200794D01*
X29365Y200777D01*
X29383Y200758D01*
X29683Y200658D01*
X29712Y200660D01*
X29730Y200651D01*
X31730Y200651D01*
X31763Y200663D01*
X31798Y200667D01*
X31808Y200681D01*
X31830Y200689D01*
X31865Y200759D01*
X31877Y200775D01*
X31977Y201375D01*
X31974Y201390D01*
X31979Y201400D01*
X31979Y205281D01*
X33981Y205747D01*
X33981Y199611D01*
X33891Y198982D01*
X33571Y198742D01*
X32919Y198649D01*
X30142Y198649D01*
G37*
%LPD*%
%LPC*%
G36*
X324782Y211349D02*
X324782Y211349D01*
X324203Y211446D01*
X323524Y211640D01*
X322951Y211926D01*
X322463Y212317D01*
X321975Y212707D01*
X321492Y213287D01*
X321201Y213772D01*
X320910Y214354D01*
X320716Y215033D01*
X320619Y215612D01*
X320619Y216289D01*
X320716Y216969D01*
X320910Y217646D01*
X321196Y218219D01*
X321587Y218707D01*
X321977Y219195D01*
X322557Y219678D01*
X323042Y219969D01*
X323624Y220260D01*
X324303Y220454D01*
X324882Y220551D01*
X328120Y220551D01*
X328443Y220309D01*
X328621Y219776D01*
X328621Y218804D01*
X326502Y218262D01*
X326160Y218519D01*
X326091Y218539D01*
X326070Y218549D01*
X324670Y218549D01*
X324629Y218533D01*
X324603Y218534D01*
X324003Y218234D01*
X323990Y218219D01*
X323977Y218217D01*
X323477Y217817D01*
X323467Y217799D01*
X323453Y217793D01*
X323053Y217293D01*
X323048Y217275D01*
X323037Y217267D01*
X322737Y216667D01*
X322734Y216638D01*
X322722Y216621D01*
X322622Y215921D01*
X322628Y215896D01*
X322622Y215879D01*
X322722Y215179D01*
X322737Y215153D01*
X322737Y215133D01*
X323037Y214533D01*
X323051Y214520D01*
X323053Y214507D01*
X323453Y214007D01*
X323462Y214002D01*
X323464Y213994D01*
X323964Y213494D01*
X324005Y213477D01*
X324023Y213458D01*
X324323Y213358D01*
X324352Y213360D01*
X324370Y213351D01*
X326370Y213351D01*
X326403Y213363D01*
X326438Y213367D01*
X326448Y213381D01*
X326470Y213389D01*
X326505Y213459D01*
X326517Y213475D01*
X326617Y214075D01*
X326614Y214090D01*
X326619Y214100D01*
X326619Y217981D01*
X328621Y218447D01*
X328621Y212311D01*
X328531Y211682D01*
X328211Y211442D01*
X327559Y211349D01*
X324782Y211349D01*
G37*
%LPD*%
%LPC*%
G36*
X148144Y103399D02*
X148144Y103399D01*
X147752Y103556D01*
X147665Y104250D01*
X147758Y104992D01*
X147997Y105311D01*
X148626Y105401D01*
X152015Y105401D01*
X152029Y105406D01*
X152040Y105403D01*
X152640Y105503D01*
X152670Y105521D01*
X152704Y105530D01*
X152712Y105545D01*
X152732Y105557D01*
X152755Y105632D01*
X152764Y105650D01*
X152764Y106250D01*
X152752Y106283D01*
X152754Y106305D01*
X152554Y106805D01*
X152540Y106820D01*
X152535Y106839D01*
X152512Y106851D01*
X152480Y106884D01*
X152438Y106888D01*
X152415Y106899D01*
X150426Y106899D01*
X149754Y106995D01*
X149323Y107168D01*
X149064Y107685D01*
X149064Y108488D01*
X149396Y108820D01*
X149939Y109001D01*
X152615Y109001D01*
X152659Y109018D01*
X152704Y109030D01*
X152707Y109036D01*
X152715Y109039D01*
X152764Y109135D01*
X152761Y109144D01*
X152764Y109150D01*
X152764Y110450D01*
X152747Y110494D01*
X152735Y110539D01*
X152729Y110542D01*
X152726Y110550D01*
X152630Y110599D01*
X152621Y110596D01*
X152615Y110599D01*
X148527Y110599D01*
X147999Y110687D01*
X147734Y111040D01*
X147714Y111052D01*
X147701Y111072D01*
X147677Y111076D01*
X147664Y111083D01*
X147664Y111826D01*
X147839Y112350D01*
X148256Y112601D01*
X153606Y112601D01*
X154357Y112507D01*
X154678Y112266D01*
X154766Y111738D01*
X154766Y104250D01*
X154784Y104203D01*
X154785Y104200D01*
X154782Y104194D01*
X154768Y104175D01*
X154679Y103643D01*
X154274Y103399D01*
X148144Y103399D01*
G37*
%LPD*%
%LPC*%
G36*
X140326Y103399D02*
X140326Y103399D01*
X139636Y103498D01*
X138966Y103594D01*
X138495Y103876D01*
X137910Y104266D01*
X137545Y104631D01*
X137364Y105174D01*
X137364Y107939D01*
X137454Y108568D01*
X137781Y108813D01*
X138533Y109001D01*
X140591Y109001D01*
X141093Y108833D01*
X141263Y108240D01*
X141176Y107632D01*
X140865Y107399D01*
X140215Y107399D01*
X140203Y107395D01*
X140194Y107398D01*
X139494Y107298D01*
X139462Y107280D01*
X139426Y107270D01*
X139419Y107256D01*
X139400Y107245D01*
X139373Y107164D01*
X139366Y107150D01*
X139366Y105750D01*
X139374Y105728D01*
X139373Y105704D01*
X139390Y105686D01*
X139404Y105650D01*
X139449Y105627D01*
X139468Y105608D01*
X140068Y105408D01*
X140097Y105410D01*
X140115Y105401D01*
X140815Y105401D01*
X140827Y105405D01*
X140836Y105402D01*
X141536Y105502D01*
X141550Y105510D01*
X141562Y105508D01*
X142162Y105708D01*
X142196Y105736D01*
X142221Y105744D01*
X142721Y106244D01*
X142728Y106261D01*
X142739Y106267D01*
X143139Y106867D01*
X143142Y106878D01*
X143149Y106883D01*
X143449Y107483D01*
X143453Y107527D01*
X143464Y107550D01*
X143464Y108950D01*
X143448Y108991D01*
X143449Y109017D01*
X143149Y109617D01*
X143134Y109630D01*
X143132Y109643D01*
X142732Y110143D01*
X142707Y110157D01*
X142698Y110174D01*
X142098Y110574D01*
X142074Y110579D01*
X142062Y110592D01*
X141462Y110792D01*
X141446Y110791D01*
X141436Y110798D01*
X140736Y110898D01*
X140711Y110892D01*
X140694Y110898D01*
X139994Y110798D01*
X139968Y110783D01*
X139948Y110784D01*
X139348Y110484D01*
X138794Y110206D01*
X138396Y110286D01*
X137941Y110832D01*
X137682Y111350D01*
X137931Y111848D01*
X138490Y112221D01*
X139072Y112512D01*
X139659Y112707D01*
X140336Y112901D01*
X140904Y112901D01*
X141594Y112802D01*
X142270Y112706D01*
X143427Y112127D01*
X143909Y111644D01*
X143919Y111640D01*
X143922Y111633D01*
X144404Y111248D01*
X144789Y110670D01*
X145080Y110186D01*
X145069Y110117D01*
X145082Y110099D01*
X145082Y110083D01*
X145371Y109503D01*
X145466Y108938D01*
X145466Y107561D01*
X145369Y106884D01*
X145177Y106307D01*
X144886Y105725D01*
X144499Y105145D01*
X144015Y104661D01*
X143527Y104271D01*
X142940Y103879D01*
X142358Y103588D01*
X141791Y103399D01*
X140326Y103399D01*
G37*
%LPD*%
%LPC*%
G36*
X344579Y211349D02*
X344579Y211349D01*
X343792Y211448D01*
X343217Y211544D01*
X342642Y211831D01*
X342163Y212119D01*
X341697Y212584D01*
X341509Y213055D01*
X341506Y213058D01*
X341508Y213077D01*
X341519Y213100D01*
X341519Y215789D01*
X341612Y216441D01*
X341859Y216770D01*
X342491Y216951D01*
X344646Y216951D01*
X345152Y216782D01*
X345321Y216276D01*
X345321Y215662D01*
X345004Y215345D01*
X343659Y215249D01*
X343621Y215231D01*
X343581Y215220D01*
X343576Y215210D01*
X343562Y215203D01*
X343521Y215104D01*
X343522Y215102D01*
X343521Y215100D01*
X343521Y213800D01*
X343526Y213787D01*
X343523Y213774D01*
X343539Y213753D01*
X343559Y213700D01*
X343590Y213684D01*
X343603Y213667D01*
X344203Y213367D01*
X344247Y213362D01*
X344270Y213351D01*
X344970Y213351D01*
X344984Y213356D01*
X344995Y213353D01*
X345595Y213453D01*
X345607Y213460D01*
X345617Y213458D01*
X346217Y213658D01*
X346244Y213680D01*
X346266Y213685D01*
X346866Y214185D01*
X346874Y214201D01*
X346887Y214207D01*
X347287Y214707D01*
X347296Y214738D01*
X347312Y214753D01*
X347512Y215353D01*
X347511Y215369D01*
X347518Y215379D01*
X347618Y216079D01*
X347614Y216095D01*
X347616Y216100D01*
X347614Y216109D01*
X347618Y216121D01*
X347518Y216821D01*
X347512Y216832D01*
X347514Y216841D01*
X347314Y217541D01*
X347291Y217570D01*
X347287Y217593D01*
X346887Y218093D01*
X346862Y218107D01*
X346853Y218124D01*
X346253Y218524D01*
X346229Y218529D01*
X346217Y218542D01*
X345617Y218742D01*
X345601Y218741D01*
X345591Y218748D01*
X344891Y218848D01*
X344866Y218842D01*
X344849Y218848D01*
X344149Y218748D01*
X344123Y218733D01*
X344103Y218734D01*
X342949Y218156D01*
X342544Y218238D01*
X342000Y218781D01*
X341827Y219300D01*
X341995Y219804D01*
X342545Y220171D01*
X343127Y220462D01*
X343704Y220654D01*
X344391Y220752D01*
X344393Y220753D01*
X344395Y220753D01*
X344972Y220849D01*
X345649Y220752D01*
X346325Y220656D01*
X346903Y220367D01*
X347489Y220074D01*
X347970Y219689D01*
X348459Y219200D01*
X348849Y218712D01*
X349235Y218134D01*
X349424Y217566D01*
X349621Y216189D01*
X349621Y215524D01*
X349428Y214947D01*
X349429Y214943D01*
X349427Y214941D01*
X349230Y214254D01*
X348939Y213672D01*
X348652Y213193D01*
X347675Y212216D01*
X347095Y211829D01*
X346523Y211544D01*
X345947Y211448D01*
X345259Y211349D01*
X344579Y211349D01*
G37*
%LPD*%
%LPC*%
G36*
X49939Y198649D02*
X49939Y198649D01*
X49152Y198748D01*
X48577Y198844D01*
X48002Y199131D01*
X47523Y199419D01*
X47057Y199884D01*
X46869Y200355D01*
X46866Y200358D01*
X46868Y200377D01*
X46879Y200400D01*
X46879Y203089D01*
X46972Y203741D01*
X47219Y204070D01*
X47851Y204251D01*
X50006Y204251D01*
X50512Y204082D01*
X50681Y203576D01*
X50681Y202962D01*
X50364Y202645D01*
X49019Y202549D01*
X48981Y202531D01*
X48941Y202520D01*
X48936Y202510D01*
X48922Y202503D01*
X48881Y202404D01*
X48882Y202402D01*
X48881Y202400D01*
X48881Y201100D01*
X48886Y201087D01*
X48883Y201074D01*
X48899Y201053D01*
X48919Y201000D01*
X48950Y200984D01*
X48963Y200967D01*
X49563Y200667D01*
X49607Y200662D01*
X49630Y200651D01*
X50330Y200651D01*
X50344Y200656D01*
X50355Y200653D01*
X50955Y200753D01*
X50967Y200760D01*
X50977Y200758D01*
X51577Y200958D01*
X51604Y200980D01*
X51626Y200985D01*
X52226Y201485D01*
X52234Y201501D01*
X52247Y201507D01*
X52647Y202007D01*
X52656Y202038D01*
X52672Y202053D01*
X52872Y202653D01*
X52871Y202669D01*
X52878Y202679D01*
X52978Y203379D01*
X52974Y203395D01*
X52976Y203400D01*
X52974Y203409D01*
X52978Y203421D01*
X52878Y204121D01*
X52872Y204132D01*
X52874Y204141D01*
X52674Y204841D01*
X52651Y204870D01*
X52647Y204893D01*
X52247Y205393D01*
X52222Y205407D01*
X52213Y205424D01*
X51613Y205824D01*
X51589Y205829D01*
X51577Y205842D01*
X50977Y206042D01*
X50961Y206041D01*
X50951Y206048D01*
X50251Y206148D01*
X50226Y206142D01*
X50209Y206148D01*
X49509Y206048D01*
X49483Y206033D01*
X49463Y206034D01*
X48309Y205456D01*
X47904Y205538D01*
X47360Y206081D01*
X47187Y206600D01*
X47355Y207104D01*
X47905Y207471D01*
X48487Y207762D01*
X49064Y207954D01*
X49751Y208052D01*
X49753Y208053D01*
X49755Y208053D01*
X50332Y208149D01*
X51009Y208052D01*
X51685Y207956D01*
X52263Y207667D01*
X52849Y207374D01*
X53330Y206989D01*
X53819Y206500D01*
X54209Y206012D01*
X54595Y205434D01*
X54784Y204866D01*
X54981Y203489D01*
X54981Y202824D01*
X54788Y202247D01*
X54789Y202243D01*
X54787Y202241D01*
X54590Y201554D01*
X54299Y200972D01*
X54012Y200493D01*
X53035Y199516D01*
X52455Y199129D01*
X51883Y198844D01*
X51307Y198748D01*
X50619Y198649D01*
X49939Y198649D01*
G37*
%LPD*%
%LPC*%
G36*
X344579Y58949D02*
X344579Y58949D01*
X343792Y59048D01*
X343217Y59144D01*
X342642Y59431D01*
X342163Y59719D01*
X341697Y60184D01*
X341509Y60655D01*
X341506Y60658D01*
X341508Y60677D01*
X341519Y60700D01*
X341519Y63389D01*
X341612Y64041D01*
X341859Y64370D01*
X342491Y64551D01*
X344646Y64551D01*
X345152Y64382D01*
X345321Y63876D01*
X345321Y63262D01*
X345004Y62945D01*
X343659Y62849D01*
X343621Y62831D01*
X343581Y62820D01*
X343576Y62810D01*
X343562Y62803D01*
X343521Y62704D01*
X343522Y62702D01*
X343521Y62700D01*
X343521Y61400D01*
X343526Y61387D01*
X343523Y61374D01*
X343539Y61353D01*
X343559Y61300D01*
X343590Y61284D01*
X343603Y61267D01*
X344203Y60967D01*
X344247Y60962D01*
X344270Y60951D01*
X344970Y60951D01*
X344984Y60956D01*
X344995Y60953D01*
X345595Y61053D01*
X345607Y61060D01*
X345617Y61058D01*
X346217Y61258D01*
X346244Y61280D01*
X346266Y61285D01*
X346866Y61785D01*
X346874Y61801D01*
X346887Y61807D01*
X347287Y62307D01*
X347296Y62338D01*
X347312Y62353D01*
X347512Y62953D01*
X347511Y62969D01*
X347518Y62979D01*
X347618Y63679D01*
X347614Y63695D01*
X347616Y63700D01*
X347614Y63709D01*
X347618Y63721D01*
X347518Y64421D01*
X347512Y64432D01*
X347514Y64441D01*
X347314Y65141D01*
X347291Y65170D01*
X347287Y65193D01*
X346887Y65693D01*
X346862Y65707D01*
X346853Y65724D01*
X346253Y66124D01*
X346229Y66129D01*
X346217Y66142D01*
X345617Y66342D01*
X345601Y66341D01*
X345591Y66348D01*
X344891Y66448D01*
X344866Y66442D01*
X344849Y66448D01*
X344149Y66348D01*
X344123Y66333D01*
X344103Y66334D01*
X342949Y65756D01*
X342544Y65838D01*
X342000Y66381D01*
X341827Y66900D01*
X341995Y67404D01*
X342545Y67771D01*
X343127Y68062D01*
X343704Y68254D01*
X344391Y68352D01*
X344393Y68353D01*
X344395Y68353D01*
X344972Y68449D01*
X345649Y68352D01*
X346325Y68256D01*
X346903Y67967D01*
X347489Y67674D01*
X347970Y67289D01*
X348459Y66800D01*
X348849Y66312D01*
X349235Y65734D01*
X349424Y65166D01*
X349621Y63789D01*
X349621Y63124D01*
X349428Y62547D01*
X349429Y62543D01*
X349427Y62541D01*
X349230Y61854D01*
X348939Y61272D01*
X348652Y60793D01*
X347675Y59816D01*
X347095Y59429D01*
X346523Y59144D01*
X345947Y59048D01*
X345259Y58949D01*
X344579Y58949D01*
G37*
%LPD*%
%LPC*%
G36*
X157855Y162334D02*
X157855Y162334D01*
X157162Y162508D01*
X156658Y162928D01*
X156314Y163357D01*
X156038Y164002D01*
X155757Y164752D01*
X155665Y165484D01*
X155665Y167136D01*
X155757Y167868D01*
X156038Y168618D01*
X156313Y169259D01*
X156742Y169774D01*
X157267Y170124D01*
X157883Y170388D01*
X158682Y170477D01*
X159393Y170388D01*
X160095Y170125D01*
X160517Y169787D01*
X160957Y169259D01*
X161232Y168618D01*
X161513Y167868D01*
X161605Y167136D01*
X161605Y165507D01*
X161223Y163982D01*
X160964Y163377D01*
X160528Y162941D01*
X160003Y162504D01*
X159411Y162334D01*
X158588Y162243D01*
X157855Y162334D01*
G37*
%LPD*%
%LPC*%
G36*
X29751Y173249D02*
X29751Y173249D01*
X29074Y173443D01*
X28502Y173633D01*
X28030Y174011D01*
X27541Y174500D01*
X27165Y174970D01*
X26979Y175621D01*
X26979Y176288D01*
X27074Y176853D01*
X27353Y177412D01*
X27836Y177894D01*
X27857Y177943D01*
X27875Y177964D01*
X27975Y178364D01*
X27973Y178380D01*
X27979Y178395D01*
X27968Y178419D01*
X27962Y178470D01*
X27933Y178495D01*
X27923Y178517D01*
X27449Y178896D01*
X27179Y179435D01*
X27179Y180089D01*
X27274Y180755D01*
X27556Y181319D01*
X27941Y181800D01*
X28892Y182751D01*
X30719Y182751D01*
X31385Y182656D01*
X32542Y182077D01*
X33014Y181605D01*
X33389Y181042D01*
X33484Y180571D01*
X33484Y180570D01*
X33495Y180553D01*
X33488Y180547D01*
X33305Y179996D01*
X32774Y179642D01*
X32260Y179556D01*
X31830Y179814D01*
X31447Y180293D01*
X31422Y180307D01*
X31413Y180324D01*
X30813Y180724D01*
X30753Y180737D01*
X30730Y180749D01*
X30030Y180749D01*
X29989Y180733D01*
X29963Y180734D01*
X29363Y180434D01*
X29363Y180433D01*
X29362Y180433D01*
X29359Y180429D01*
X29291Y180354D01*
X29291Y180336D01*
X29283Y180325D01*
X29183Y179725D01*
X29187Y179705D01*
X29181Y179685D01*
X29195Y179664D01*
X29204Y179619D01*
X29240Y179594D01*
X29253Y179572D01*
X29753Y179272D01*
X29793Y179265D01*
X29814Y179252D01*
X30707Y179152D01*
X31116Y179071D01*
X31281Y178576D01*
X31281Y177741D01*
X31038Y177336D01*
X30507Y177248D01*
X29809Y177148D01*
X29772Y177127D01*
X29747Y177124D01*
X29147Y176724D01*
X29085Y176636D01*
X29086Y176629D01*
X29083Y176625D01*
X28983Y176025D01*
X29004Y175919D01*
X29012Y175914D01*
X29013Y175907D01*
X29413Y175407D01*
X29464Y175377D01*
X29483Y175358D01*
X30083Y175158D01*
X30112Y175160D01*
X30130Y175151D01*
X30930Y175151D01*
X30987Y175173D01*
X31013Y175176D01*
X31613Y175576D01*
X31642Y175617D01*
X31664Y175633D01*
X31953Y176212D01*
X32300Y176559D01*
X32922Y176648D01*
X33642Y176468D01*
X33881Y176150D01*
X33881Y175621D01*
X33693Y174963D01*
X33319Y174402D01*
X32837Y174017D01*
X32358Y173633D01*
X31786Y173443D01*
X31109Y173249D01*
X29751Y173249D01*
G37*
%LPD*%
%LPC*%
G36*
X51141Y173249D02*
X51141Y173249D01*
X50464Y173346D01*
X49887Y173538D01*
X49311Y173826D01*
X48836Y174206D01*
X48456Y174681D01*
X48174Y175245D01*
X48079Y175911D01*
X48079Y176576D01*
X48263Y177128D01*
X48641Y177600D01*
X49136Y178094D01*
X49155Y178137D01*
X49178Y178178D01*
X49175Y178185D01*
X49179Y178193D01*
X49145Y178295D01*
X49138Y178299D01*
X49136Y178306D01*
X48741Y178700D01*
X48365Y179170D01*
X48183Y179809D01*
X48277Y180375D01*
X48271Y180406D01*
X48275Y180437D01*
X48268Y180444D01*
X48269Y180445D01*
X48463Y180930D01*
X48851Y181512D01*
X49241Y182000D01*
X49728Y182487D01*
X50080Y182751D01*
X51419Y182751D01*
X52107Y182653D01*
X52688Y182556D01*
X53353Y182271D01*
X53825Y181893D01*
X54297Y181326D01*
X54481Y180776D01*
X54481Y180252D01*
X54134Y179819D01*
X53595Y179549D01*
X53100Y179549D01*
X52645Y180095D01*
X52247Y180593D01*
X52154Y180647D01*
X52152Y180647D01*
X52151Y180648D01*
X51451Y180748D01*
X51424Y180742D01*
X51405Y180747D01*
X50805Y180647D01*
X50716Y180595D01*
X50713Y180593D01*
X50313Y180093D01*
X50281Y179991D01*
X50286Y179980D01*
X50284Y179971D01*
X50384Y179471D01*
X50397Y179450D01*
X50400Y179427D01*
X50408Y179421D01*
X50409Y179418D01*
X50421Y179412D01*
X50441Y179380D01*
X50489Y179367D01*
X50512Y179352D01*
X51310Y179252D01*
X51971Y179158D01*
X52289Y178919D01*
X52380Y178102D01*
X52292Y177491D01*
X51889Y177249D01*
X51230Y177249D01*
X51203Y177239D01*
X51183Y177242D01*
X50583Y177042D01*
X50524Y176993D01*
X50506Y176983D01*
X50106Y176383D01*
X50082Y176278D01*
X50083Y176277D01*
X50083Y176275D01*
X50183Y175675D01*
X50237Y175583D01*
X50248Y175580D01*
X50253Y175572D01*
X50753Y175272D01*
X50791Y175265D01*
X50812Y175252D01*
X51612Y175152D01*
X51648Y175161D01*
X51671Y175157D01*
X52371Y175357D01*
X52410Y175386D01*
X52436Y175394D01*
X52836Y175794D01*
X52847Y175821D01*
X52864Y175833D01*
X53144Y176394D01*
X53564Y176646D01*
X54393Y176554D01*
X54810Y176387D01*
X54977Y175888D01*
X54886Y175342D01*
X54604Y174685D01*
X53742Y173823D01*
X53173Y173538D01*
X52596Y173346D01*
X51919Y173249D01*
X51141Y173249D01*
G37*
%LPD*%
%LPC*%
G36*
X51054Y147849D02*
X51054Y147849D01*
X50477Y148042D01*
X49896Y148235D01*
X49325Y148616D01*
X48853Y149088D01*
X48568Y149657D01*
X48379Y150224D01*
X48379Y150889D01*
X48476Y151566D01*
X48665Y152134D01*
X49032Y152684D01*
X49587Y152962D01*
X50177Y153158D01*
X50183Y153163D01*
X50189Y153163D01*
X50872Y153456D01*
X51455Y153553D01*
X51463Y153558D01*
X51471Y153557D01*
X52171Y153757D01*
X52200Y153779D01*
X52223Y153783D01*
X52723Y154183D01*
X52777Y154276D01*
X52774Y154290D01*
X52779Y154300D01*
X52779Y155000D01*
X52776Y155007D01*
X52779Y155015D01*
X52766Y155034D01*
X52749Y155079D01*
X52745Y155092D01*
X52744Y155093D01*
X52741Y155100D01*
X52717Y155112D01*
X52707Y155128D01*
X52207Y155428D01*
X52154Y155437D01*
X52130Y155449D01*
X51330Y155449D01*
X51280Y155430D01*
X51253Y155428D01*
X50758Y155131D01*
X50195Y154849D01*
X49692Y154849D01*
X49250Y155291D01*
X48895Y155912D01*
X49055Y156310D01*
X49617Y156778D01*
X50090Y157062D01*
X50763Y157254D01*
X51342Y157351D01*
X52119Y157351D01*
X52785Y157256D01*
X53358Y156969D01*
X53853Y156672D01*
X53898Y156664D01*
X53942Y156651D01*
X53949Y156655D01*
X53956Y156654D01*
X54304Y156219D01*
X54592Y155643D01*
X54781Y155076D01*
X54781Y154411D01*
X54684Y153734D01*
X54500Y153181D01*
X54030Y152711D01*
X53558Y152333D01*
X52983Y152142D01*
X52977Y152137D01*
X52971Y152137D01*
X52289Y151845D01*
X51609Y151748D01*
X51595Y151740D01*
X51583Y151742D01*
X50983Y151542D01*
X50958Y151521D01*
X50937Y151517D01*
X50437Y151117D01*
X50433Y151109D01*
X50425Y151106D01*
X50417Y151083D01*
X50383Y151024D01*
X50388Y150997D01*
X50382Y150979D01*
X50482Y150279D01*
X50517Y150216D01*
X50524Y150194D01*
X50924Y149794D01*
X50994Y149764D01*
X51012Y149752D01*
X51812Y149652D01*
X51870Y149667D01*
X51897Y149667D01*
X52497Y149967D01*
X52504Y149975D01*
X52513Y149976D01*
X53113Y150376D01*
X53118Y150384D01*
X53126Y150385D01*
X53684Y150851D01*
X54085Y150851D01*
X54622Y150492D01*
X54972Y149969D01*
X54890Y149563D01*
X54612Y149191D01*
X54231Y148716D01*
X53556Y148330D01*
X53555Y148328D01*
X53553Y148328D01*
X53070Y148038D01*
X52409Y147849D01*
X51054Y147849D01*
G37*
%LPD*%
%LPC*%
G36*
X48411Y122449D02*
X48411Y122449D01*
X47744Y122640D01*
X47171Y122926D01*
X46696Y123306D01*
X46316Y123781D01*
X46028Y124357D01*
X45839Y124924D01*
X45839Y125600D01*
X45831Y125622D01*
X45832Y125646D01*
X45827Y125651D01*
X45827Y125662D01*
X45837Y125675D01*
X45934Y126253D01*
X46219Y126825D01*
X46592Y127384D01*
X47147Y127662D01*
X47734Y127857D01*
X48421Y128054D01*
X49111Y128152D01*
X49137Y128167D01*
X49157Y128167D01*
X49757Y128467D01*
X49777Y128488D01*
X49796Y128494D01*
X50195Y128894D01*
X50196Y128894D01*
X50239Y128993D01*
X50234Y129009D01*
X50238Y129021D01*
X50138Y129721D01*
X50137Y129723D01*
X50137Y129726D01*
X50129Y129736D01*
X50085Y129815D01*
X50066Y129821D01*
X50057Y129834D01*
X49457Y130134D01*
X49393Y130140D01*
X49369Y130148D01*
X48669Y130048D01*
X48623Y130022D01*
X48597Y130017D01*
X48113Y129629D01*
X47488Y129362D01*
X47081Y129525D01*
X46616Y130082D01*
X46360Y130594D01*
X46604Y131000D01*
X47071Y131374D01*
X47644Y131660D01*
X48321Y131854D01*
X49001Y131951D01*
X49669Y131951D01*
X50346Y131757D01*
X50918Y131567D01*
X51390Y131189D01*
X51867Y130712D01*
X52146Y130153D01*
X52241Y129588D01*
X52241Y128911D01*
X52146Y128245D01*
X51867Y127688D01*
X51397Y127219D01*
X50922Y126933D01*
X50237Y126640D01*
X49656Y126446D01*
X48969Y126348D01*
X48955Y126340D01*
X48943Y126342D01*
X48343Y126142D01*
X48298Y126104D01*
X48273Y126093D01*
X47873Y125593D01*
X47841Y125491D01*
X47844Y125484D01*
X47842Y125479D01*
X47942Y124779D01*
X47995Y124685D01*
X48008Y124681D01*
X48013Y124672D01*
X48513Y124372D01*
X48551Y124365D01*
X48572Y124352D01*
X49372Y124252D01*
X49463Y124275D01*
X49473Y124276D01*
X50673Y125076D01*
X50677Y125082D01*
X50683Y125083D01*
X51142Y125451D01*
X51636Y125451D01*
X52175Y125001D01*
X52427Y124582D01*
X52256Y124070D01*
X51977Y123698D01*
X51495Y123216D01*
X50915Y122829D01*
X50343Y122544D01*
X49778Y122449D01*
X48411Y122449D01*
G37*
%LPD*%
%LPC*%
G36*
X40493Y148236D02*
X40493Y148236D01*
X40010Y148526D01*
X39425Y148916D01*
X38946Y149395D01*
X38559Y149975D01*
X38268Y150557D01*
X38073Y151144D01*
X37879Y151821D01*
X37879Y152400D01*
X37879Y152402D01*
X37879Y152404D01*
X37860Y152450D01*
X37875Y152491D01*
X37879Y152500D01*
X37879Y153079D01*
X38073Y153756D01*
X38268Y154343D01*
X38556Y154919D01*
X38941Y155400D01*
X39431Y155890D01*
X40017Y156378D01*
X40490Y156662D01*
X41171Y156857D01*
X41174Y156859D01*
X41177Y156858D01*
X41754Y157051D01*
X44821Y157051D01*
X45539Y156961D01*
X45781Y156559D01*
X45781Y150349D01*
X43779Y150349D01*
X43779Y154900D01*
X43762Y154944D01*
X43750Y154989D01*
X43744Y154992D01*
X43741Y155000D01*
X43645Y155049D01*
X43636Y155046D01*
X43630Y155049D01*
X42330Y155049D01*
X42318Y155045D01*
X42309Y155048D01*
X41609Y154948D01*
X41583Y154933D01*
X41563Y154934D01*
X40963Y154634D01*
X40944Y154612D01*
X40924Y154606D01*
X40424Y154106D01*
X40416Y154085D01*
X40402Y154077D01*
X40102Y153577D01*
X40098Y153553D01*
X40087Y153541D01*
X39887Y152841D01*
X39889Y152816D01*
X39881Y152800D01*
X39881Y152100D01*
X39891Y152073D01*
X39888Y152053D01*
X40088Y151453D01*
X40097Y151443D01*
X40097Y151433D01*
X40397Y150833D01*
X40418Y150814D01*
X40424Y150794D01*
X40924Y150294D01*
X40951Y150283D01*
X40963Y150267D01*
X41642Y149927D01*
X40941Y148087D01*
X40493Y148236D01*
G37*
%LPD*%
%LPC*%
G36*
X322027Y33938D02*
X322027Y33938D01*
X321458Y34223D01*
X320481Y35200D01*
X320096Y35681D01*
X319804Y36267D01*
X319514Y36845D01*
X319418Y37521D01*
X319321Y38198D01*
X319417Y38775D01*
X319409Y38816D01*
X319408Y38847D01*
X319411Y38850D01*
X319410Y38866D01*
X319417Y38875D01*
X319515Y39464D01*
X319705Y40034D01*
X320094Y40617D01*
X320481Y41198D01*
X320963Y41583D01*
X320968Y41592D01*
X320976Y41594D01*
X321458Y42077D01*
X322027Y42362D01*
X322614Y42557D01*
X323291Y42751D01*
X326361Y42751D01*
X327079Y42661D01*
X327321Y42259D01*
X327321Y36531D01*
X325319Y36086D01*
X325319Y40600D01*
X325302Y40644D01*
X325290Y40689D01*
X325284Y40692D01*
X325281Y40700D01*
X325185Y40749D01*
X325176Y40746D01*
X325170Y40749D01*
X323770Y40749D01*
X323756Y40744D01*
X323745Y40747D01*
X323145Y40647D01*
X323122Y40633D01*
X323103Y40634D01*
X322503Y40334D01*
X322484Y40312D01*
X322464Y40306D01*
X321964Y39806D01*
X321957Y39789D01*
X321946Y39783D01*
X321546Y39183D01*
X321537Y39144D01*
X321523Y39125D01*
X321423Y38525D01*
X321426Y38510D01*
X321421Y38500D01*
X321421Y37800D01*
X321425Y37788D01*
X321422Y37779D01*
X321522Y37079D01*
X321546Y37037D01*
X321547Y37032D01*
X321548Y37031D01*
X321553Y37007D01*
X321953Y36507D01*
X321962Y36502D01*
X321964Y36494D01*
X322464Y35994D01*
X322486Y35985D01*
X322496Y35970D01*
X323090Y35631D01*
X322476Y33789D01*
X322027Y33938D01*
G37*
%LPD*%
%LPC*%
G36*
X38817Y97438D02*
X38817Y97438D01*
X38248Y97723D01*
X37271Y98700D01*
X36886Y99181D01*
X36594Y99767D01*
X36304Y100345D01*
X36208Y101021D01*
X36111Y101698D01*
X36207Y102275D01*
X36199Y102316D01*
X36198Y102347D01*
X36201Y102350D01*
X36200Y102366D01*
X36207Y102375D01*
X36305Y102964D01*
X36495Y103534D01*
X36884Y104117D01*
X37271Y104698D01*
X37753Y105083D01*
X37758Y105092D01*
X37766Y105094D01*
X38248Y105577D01*
X38817Y105862D01*
X39404Y106057D01*
X40081Y106251D01*
X43151Y106251D01*
X43869Y106161D01*
X44111Y105759D01*
X44111Y100031D01*
X42109Y99586D01*
X42109Y104100D01*
X42092Y104144D01*
X42080Y104189D01*
X42074Y104192D01*
X42071Y104200D01*
X41975Y104249D01*
X41966Y104246D01*
X41960Y104249D01*
X40560Y104249D01*
X40546Y104244D01*
X40535Y104247D01*
X39935Y104147D01*
X39912Y104133D01*
X39893Y104134D01*
X39293Y103834D01*
X39274Y103812D01*
X39254Y103806D01*
X38754Y103306D01*
X38747Y103289D01*
X38736Y103283D01*
X38336Y102683D01*
X38327Y102644D01*
X38313Y102625D01*
X38213Y102025D01*
X38216Y102010D01*
X38211Y102000D01*
X38211Y101300D01*
X38215Y101288D01*
X38212Y101279D01*
X38312Y100579D01*
X38336Y100537D01*
X38337Y100532D01*
X38338Y100531D01*
X38343Y100507D01*
X38743Y100007D01*
X38752Y100002D01*
X38754Y99994D01*
X39254Y99494D01*
X39276Y99485D01*
X39286Y99470D01*
X39880Y99131D01*
X39266Y97289D01*
X38817Y97438D01*
G37*
%LPD*%
%LPC*%
G36*
X322027Y237773D02*
X322027Y237773D01*
X321458Y238058D01*
X320481Y239035D01*
X320096Y239516D01*
X319804Y240102D01*
X319514Y240680D01*
X319418Y241356D01*
X319321Y242033D01*
X319417Y242610D01*
X319409Y242651D01*
X319408Y242682D01*
X319411Y242685D01*
X319410Y242701D01*
X319417Y242710D01*
X319515Y243299D01*
X319705Y243869D01*
X320094Y244452D01*
X320481Y245033D01*
X320963Y245418D01*
X320968Y245427D01*
X320976Y245429D01*
X321458Y245912D01*
X322027Y246197D01*
X322614Y246392D01*
X323291Y246586D01*
X326361Y246586D01*
X327079Y246496D01*
X327321Y246094D01*
X327321Y240366D01*
X325319Y239921D01*
X325319Y244435D01*
X325302Y244479D01*
X325290Y244524D01*
X325284Y244527D01*
X325281Y244535D01*
X325185Y244584D01*
X325176Y244581D01*
X325170Y244584D01*
X323770Y244584D01*
X323756Y244579D01*
X323745Y244582D01*
X323145Y244482D01*
X323122Y244468D01*
X323103Y244469D01*
X322503Y244169D01*
X322484Y244147D01*
X322464Y244141D01*
X321964Y243641D01*
X321957Y243624D01*
X321946Y243618D01*
X321546Y243018D01*
X321537Y242979D01*
X321523Y242960D01*
X321423Y242360D01*
X321426Y242345D01*
X321421Y242335D01*
X321421Y241635D01*
X321425Y241623D01*
X321422Y241614D01*
X321522Y240914D01*
X321546Y240872D01*
X321547Y240867D01*
X321548Y240866D01*
X321553Y240842D01*
X321953Y240342D01*
X321962Y240337D01*
X321964Y240329D01*
X322464Y239829D01*
X322486Y239820D01*
X322496Y239805D01*
X323090Y239466D01*
X322476Y237624D01*
X322027Y237773D01*
G37*
%LPD*%
%LPC*%
G36*
X162603Y103582D02*
X162603Y103582D01*
X162357Y103909D01*
X162264Y104561D01*
X162264Y105850D01*
X162252Y105883D01*
X162248Y105918D01*
X162234Y105928D01*
X162226Y105950D01*
X162156Y105985D01*
X162140Y105997D01*
X161540Y106097D01*
X161525Y106094D01*
X161515Y106099D01*
X160115Y106099D01*
X160099Y106093D01*
X160082Y106096D01*
X160062Y106079D01*
X160015Y106061D01*
X159997Y106026D01*
X159979Y106011D01*
X159579Y105111D01*
X159578Y105106D01*
X159576Y105104D01*
X159082Y103819D01*
X158919Y103575D01*
X158415Y103407D01*
X157876Y103587D01*
X157244Y103948D01*
X157160Y104286D01*
X157152Y104298D01*
X157157Y104303D01*
X157555Y105497D01*
X158053Y106693D01*
X158054Y106754D01*
X158061Y106779D01*
X157961Y107279D01*
X157937Y107318D01*
X157932Y107343D01*
X157541Y107831D01*
X157259Y108395D01*
X157164Y109061D01*
X157164Y109729D01*
X157358Y110406D01*
X157548Y110978D01*
X157922Y111445D01*
X158510Y111935D01*
X158875Y112227D01*
X159384Y111378D01*
X159828Y110491D01*
X159422Y110167D01*
X159392Y110116D01*
X159373Y110097D01*
X159173Y109497D01*
X159176Y109434D01*
X159172Y109409D01*
X159372Y108709D01*
X159388Y108688D01*
X159392Y108673D01*
X159403Y108667D01*
X159411Y108656D01*
X159422Y108633D01*
X159922Y108233D01*
X159969Y108219D01*
X159990Y108203D01*
X160590Y108103D01*
X160605Y108106D01*
X160615Y108101D01*
X162015Y108101D01*
X162037Y108109D01*
X162061Y108108D01*
X162079Y108125D01*
X162115Y108139D01*
X162138Y108184D01*
X162157Y108203D01*
X162257Y108503D01*
X162255Y108532D01*
X162264Y108550D01*
X162264Y110324D01*
X164266Y110657D01*
X164266Y104561D01*
X164173Y103909D01*
X163926Y103580D01*
X163312Y103404D01*
X162603Y103582D01*
G37*
%LPD*%
%LPC*%
G36*
X100770Y71449D02*
X100770Y71449D01*
X99662Y71911D01*
X99292Y73113D01*
X99382Y73831D01*
X100110Y74559D01*
X101560Y74752D01*
X101577Y74761D01*
X101591Y74760D01*
X102691Y75160D01*
X102772Y75230D01*
X102774Y75247D01*
X102783Y75256D01*
X103183Y76556D01*
X103179Y76606D01*
X103186Y76631D01*
X102886Y78031D01*
X102827Y78121D01*
X102813Y78125D01*
X102807Y78134D01*
X101807Y78634D01*
X101770Y78637D01*
X101749Y78649D01*
X100235Y78744D01*
X99800Y79613D01*
X100157Y80774D01*
X101357Y81051D01*
X104001Y81051D01*
X104791Y80612D01*
X104791Y72606D01*
X104702Y71449D01*
X100770Y71449D01*
G37*
%LPD*%
%LPC*%
G36*
X38301Y122449D02*
X38301Y122449D01*
X37627Y122545D01*
X36843Y122839D01*
X36366Y123030D01*
X35909Y123396D01*
X35657Y123900D01*
X35918Y124423D01*
X36380Y125069D01*
X36677Y125143D01*
X37315Y124870D01*
X37700Y124581D01*
X37747Y124567D01*
X37769Y124552D01*
X38469Y124452D01*
X38481Y124455D01*
X38490Y124451D01*
X39190Y124451D01*
X39217Y124461D01*
X39237Y124458D01*
X39837Y124658D01*
X39847Y124667D01*
X39857Y124667D01*
X40457Y124967D01*
X40477Y124988D01*
X40496Y124994D01*
X40996Y125494D01*
X41007Y125521D01*
X41024Y125533D01*
X41324Y126133D01*
X41326Y126160D01*
X41337Y126175D01*
X41437Y126775D01*
X41434Y126790D01*
X41439Y126800D01*
X41439Y127600D01*
X41434Y127614D01*
X41437Y127625D01*
X41337Y128225D01*
X41317Y128259D01*
X41314Y128283D01*
X40914Y128883D01*
X40891Y128899D01*
X40883Y128917D01*
X40383Y129317D01*
X40365Y129322D01*
X40357Y129334D01*
X39757Y129634D01*
X39740Y129635D01*
X39731Y129644D01*
X39031Y129844D01*
X39006Y129841D01*
X38990Y129849D01*
X38290Y129849D01*
X38263Y129839D01*
X38243Y129842D01*
X37643Y129642D01*
X37624Y129626D01*
X37607Y129624D01*
X37032Y129241D01*
X36617Y129158D01*
X36189Y129415D01*
X35731Y129964D01*
X35637Y130525D01*
X35630Y130536D01*
X35992Y130989D01*
X36560Y131367D01*
X37038Y131559D01*
X37721Y131754D01*
X38401Y131851D01*
X39078Y131851D01*
X39657Y131754D01*
X40346Y131557D01*
X40924Y131365D01*
X41502Y130979D01*
X41990Y130589D01*
X42479Y130100D01*
X42864Y129619D01*
X43150Y129046D01*
X43344Y128367D01*
X43441Y127788D01*
X43441Y126400D01*
X43449Y126378D01*
X43448Y126354D01*
X43451Y126350D01*
X43448Y126347D01*
X43052Y125157D01*
X42764Y124581D01*
X42379Y124100D01*
X41895Y123616D01*
X41315Y123229D01*
X40133Y122638D01*
X39566Y122449D01*
X38301Y122449D01*
G37*
%LPD*%
%LPC*%
G36*
X344894Y237384D02*
X344894Y237384D01*
X344358Y237563D01*
X343896Y238117D01*
X340610Y244689D01*
X340414Y245376D01*
X340389Y245408D01*
X340371Y245444D01*
X340359Y245448D01*
X340349Y245462D01*
X340319Y245467D01*
X340319Y245883D01*
X340666Y246316D01*
X341024Y246495D01*
X341649Y246674D01*
X342052Y246432D01*
X342333Y245776D01*
X342335Y245774D01*
X342335Y245771D01*
X344935Y240271D01*
X344970Y240238D01*
X345001Y240203D01*
X345008Y240202D01*
X345013Y240197D01*
X345061Y240196D01*
X345108Y240191D01*
X345113Y240195D01*
X345120Y240194D01*
X345202Y240265D01*
X345202Y240274D01*
X345209Y240280D01*
X345408Y240778D01*
X347700Y246059D01*
X347968Y246417D01*
X348481Y246674D01*
X349023Y246493D01*
X349061Y246495D01*
X349099Y246489D01*
X349106Y246494D01*
X349634Y246054D01*
X349717Y245641D01*
X349531Y244990D01*
X345848Y237824D01*
X345408Y237384D01*
X344894Y237384D01*
G37*
%LPD*%
%LPC*%
G36*
X61684Y97049D02*
X61684Y97049D01*
X61148Y97228D01*
X60686Y97782D01*
X57400Y104354D01*
X57204Y105041D01*
X57179Y105073D01*
X57161Y105109D01*
X57149Y105113D01*
X57139Y105127D01*
X57109Y105132D01*
X57109Y105548D01*
X57456Y105981D01*
X57814Y106160D01*
X58439Y106339D01*
X58842Y106097D01*
X59123Y105441D01*
X59125Y105439D01*
X59125Y105436D01*
X61725Y99936D01*
X61760Y99903D01*
X61791Y99868D01*
X61798Y99867D01*
X61803Y99862D01*
X61851Y99861D01*
X61898Y99856D01*
X61903Y99860D01*
X61910Y99859D01*
X61992Y99930D01*
X61992Y99939D01*
X61999Y99945D01*
X62198Y100443D01*
X64490Y105724D01*
X64758Y106082D01*
X65271Y106339D01*
X65813Y106158D01*
X65851Y106160D01*
X65889Y106154D01*
X65896Y106159D01*
X66424Y105719D01*
X66507Y105306D01*
X66321Y104655D01*
X62638Y97489D01*
X62198Y97049D01*
X61684Y97049D01*
G37*
%LPD*%
%LPC*%
G36*
X344894Y33549D02*
X344894Y33549D01*
X344358Y33728D01*
X343896Y34282D01*
X340610Y40854D01*
X340414Y41541D01*
X340389Y41573D01*
X340371Y41609D01*
X340359Y41613D01*
X340349Y41627D01*
X340319Y41632D01*
X340319Y42048D01*
X340666Y42481D01*
X341024Y42660D01*
X341649Y42839D01*
X342052Y42597D01*
X342333Y41941D01*
X342335Y41939D01*
X342335Y41936D01*
X344935Y36436D01*
X344970Y36403D01*
X345001Y36368D01*
X345008Y36367D01*
X345013Y36362D01*
X345061Y36361D01*
X345108Y36356D01*
X345113Y36360D01*
X345120Y36359D01*
X345202Y36430D01*
X345202Y36439D01*
X345209Y36445D01*
X345408Y36943D01*
X347700Y42224D01*
X347968Y42582D01*
X348481Y42839D01*
X349023Y42658D01*
X349061Y42660D01*
X349099Y42654D01*
X349106Y42659D01*
X349634Y42219D01*
X349717Y41806D01*
X349531Y41155D01*
X345848Y33989D01*
X345408Y33549D01*
X344894Y33549D01*
G37*
%LPD*%
%LPC*%
G36*
X171004Y103578D02*
X171004Y103578D01*
X170642Y104031D01*
X167349Y110716D01*
X167349Y110717D01*
X167059Y111297D01*
X166971Y111820D01*
X167228Y112248D01*
X167583Y112514D01*
X168212Y112694D01*
X168706Y112529D01*
X171479Y106389D01*
X171503Y106364D01*
X171520Y106335D01*
X171540Y106328D01*
X171555Y106313D01*
X171590Y106312D01*
X171622Y106301D01*
X171638Y106310D01*
X171663Y106309D01*
X171720Y106357D01*
X171739Y106367D01*
X171939Y106667D01*
X171942Y106682D01*
X171951Y106688D01*
X174344Y111974D01*
X174623Y112345D01*
X175045Y112683D01*
X175568Y112508D01*
X175603Y112510D01*
X175638Y112503D01*
X175652Y112512D01*
X176194Y112152D01*
X176358Y111742D01*
X176175Y111104D01*
X172596Y103846D01*
X172154Y103492D01*
X171529Y103403D01*
X171004Y103578D01*
G37*
%LPD*%
%LPC*%
G36*
X40765Y173249D02*
X40765Y173249D01*
X40241Y173511D01*
X39964Y174067D01*
X39963Y174067D01*
X36664Y180766D01*
X36664Y180767D01*
X36367Y181359D01*
X36376Y181371D01*
X36468Y181826D01*
X36914Y182273D01*
X37359Y182451D01*
X37868Y182451D01*
X38207Y182112D01*
X38496Y181535D01*
X40794Y176538D01*
X40805Y176528D01*
X40806Y176517D01*
X41006Y176217D01*
X41032Y176199D01*
X41050Y176174D01*
X41074Y176169D01*
X41094Y176155D01*
X41125Y176159D01*
X41156Y176153D01*
X41172Y176165D01*
X41200Y176168D01*
X41243Y176218D01*
X41264Y176233D01*
X41564Y176833D01*
X41564Y176836D01*
X41566Y176838D01*
X43666Y181438D01*
X43666Y181448D01*
X43672Y181453D01*
X43860Y182019D01*
X44211Y182370D01*
X44723Y182540D01*
X45345Y182274D01*
X45781Y181838D01*
X45781Y181400D01*
X45788Y181382D01*
X45785Y181363D01*
X45791Y181356D01*
X45497Y180767D01*
X45496Y180766D01*
X42197Y174067D01*
X41919Y173511D01*
X41395Y173249D01*
X40765Y173249D01*
G37*
%LPD*%
%LPC*%
G36*
X27481Y147943D02*
X27481Y147943D01*
X26838Y148310D01*
X26593Y148718D01*
X26769Y149244D01*
X30357Y156620D01*
X30711Y157062D01*
X31221Y157147D01*
X31843Y156970D01*
X32203Y156519D01*
X34316Y152231D01*
X32126Y151962D01*
X31969Y152355D01*
X31963Y152361D01*
X31964Y152367D01*
X31664Y152967D01*
X31642Y152987D01*
X31636Y153006D01*
X31236Y153406D01*
X31220Y153413D01*
X31210Y153426D01*
X31172Y153434D01*
X31137Y153449D01*
X31121Y153444D01*
X31104Y153447D01*
X31083Y153431D01*
X31035Y153415D01*
X31016Y153381D01*
X30997Y153367D01*
X30397Y152167D01*
X30386Y152060D01*
X30397Y152046D01*
X30397Y152033D01*
X30597Y151633D01*
X30607Y151624D01*
X30610Y151611D01*
X30634Y151599D01*
X30676Y151561D01*
X30710Y151561D01*
X30730Y151551D01*
X31931Y151551D01*
X32605Y149949D01*
X29530Y149949D01*
X29430Y149911D01*
X29423Y149898D01*
X29413Y149893D01*
X29013Y149393D01*
X29007Y149372D01*
X28995Y149363D01*
X28414Y148104D01*
X28000Y147856D01*
X27481Y147943D01*
G37*
%LPD*%
%LPC*%
G36*
X29271Y97049D02*
X29271Y97049D01*
X28594Y97146D01*
X28032Y97333D01*
X27565Y97707D01*
X27082Y98287D01*
X26798Y98760D01*
X26609Y99421D01*
X26609Y100089D01*
X26706Y100766D01*
X26893Y101328D01*
X27261Y101787D01*
X29053Y102919D01*
X29370Y102681D01*
X29419Y102667D01*
X29442Y102652D01*
X30191Y102558D01*
X30511Y102238D01*
X30511Y101541D01*
X30268Y101137D01*
X29037Y100948D01*
X28944Y100894D01*
X28940Y100882D01*
X28932Y100877D01*
X28632Y100377D01*
X28625Y100338D01*
X28625Y100337D01*
X28625Y100336D01*
X28623Y100324D01*
X28611Y100300D01*
X28611Y99700D01*
X28640Y99625D01*
X28643Y99607D01*
X29043Y99107D01*
X29136Y99053D01*
X29150Y99056D01*
X29160Y99051D01*
X31260Y99051D01*
X31301Y99067D01*
X31327Y99067D01*
X31727Y99267D01*
X31736Y99277D01*
X31749Y99280D01*
X31761Y99304D01*
X31799Y99346D01*
X31799Y99380D01*
X31809Y99400D01*
X31809Y103209D01*
X33811Y102709D01*
X33811Y97912D01*
X33721Y97372D01*
X33398Y97049D01*
X29271Y97049D01*
G37*
%LPD*%
%LPC*%
G36*
X312481Y33549D02*
X312481Y33549D01*
X311804Y33646D01*
X311242Y33833D01*
X310775Y34207D01*
X310292Y34787D01*
X310008Y35260D01*
X309819Y35921D01*
X309819Y36589D01*
X309916Y37266D01*
X310103Y37828D01*
X310471Y38287D01*
X312263Y39419D01*
X312580Y39181D01*
X312629Y39167D01*
X312652Y39152D01*
X313401Y39058D01*
X313721Y38738D01*
X313721Y38041D01*
X313478Y37637D01*
X312247Y37448D01*
X312154Y37394D01*
X312150Y37382D01*
X312142Y37377D01*
X311842Y36877D01*
X311835Y36838D01*
X311835Y36837D01*
X311835Y36836D01*
X311833Y36824D01*
X311821Y36800D01*
X311821Y36200D01*
X311850Y36125D01*
X311853Y36107D01*
X312253Y35607D01*
X312346Y35553D01*
X312360Y35556D01*
X312370Y35551D01*
X314470Y35551D01*
X314511Y35567D01*
X314537Y35567D01*
X314937Y35767D01*
X314946Y35777D01*
X314959Y35780D01*
X314971Y35804D01*
X315009Y35846D01*
X315009Y35880D01*
X315019Y35900D01*
X315019Y39709D01*
X317021Y39209D01*
X317021Y34412D01*
X316931Y33872D01*
X316608Y33549D01*
X312481Y33549D01*
G37*
%LPD*%
%LPC*%
G36*
X312481Y237384D02*
X312481Y237384D01*
X311804Y237481D01*
X311242Y237668D01*
X310775Y238042D01*
X310292Y238622D01*
X310008Y239095D01*
X309819Y239756D01*
X309819Y240424D01*
X309916Y241101D01*
X310103Y241663D01*
X310471Y242122D01*
X312263Y243254D01*
X312580Y243016D01*
X312629Y243002D01*
X312652Y242987D01*
X313401Y242893D01*
X313721Y242573D01*
X313721Y241876D01*
X313478Y241472D01*
X312247Y241283D01*
X312154Y241229D01*
X312150Y241217D01*
X312142Y241212D01*
X311842Y240712D01*
X311835Y240673D01*
X311835Y240672D01*
X311835Y240671D01*
X311833Y240659D01*
X311821Y240635D01*
X311821Y240035D01*
X311850Y239960D01*
X311853Y239942D01*
X312253Y239442D01*
X312346Y239388D01*
X312360Y239391D01*
X312370Y239386D01*
X314470Y239386D01*
X314511Y239402D01*
X314537Y239402D01*
X314937Y239602D01*
X314946Y239612D01*
X314959Y239615D01*
X314971Y239639D01*
X315009Y239681D01*
X315009Y239715D01*
X315019Y239735D01*
X315019Y243544D01*
X317021Y243044D01*
X317021Y238247D01*
X316931Y237707D01*
X316608Y237384D01*
X312481Y237384D01*
G37*
%LPD*%
%LPC*%
G36*
X332917Y237577D02*
X332917Y237577D01*
X332327Y237773D01*
X331752Y238061D01*
X331177Y238540D01*
X330787Y239028D01*
X330391Y239523D01*
X330005Y240101D01*
X329812Y240682D01*
X329803Y240693D01*
X329818Y240753D01*
X329816Y240756D01*
X329817Y240760D01*
X329718Y241358D01*
X329621Y242035D01*
X329718Y242712D01*
X329816Y243302D01*
X330005Y243965D01*
X330387Y244442D01*
X330389Y244449D01*
X330394Y244452D01*
X330786Y245040D01*
X331270Y245524D01*
X331751Y245909D01*
X332327Y246197D01*
X332914Y246392D01*
X333591Y246586D01*
X336661Y246586D01*
X337379Y246496D01*
X337621Y246094D01*
X337621Y245009D01*
X335356Y244584D01*
X334070Y244584D01*
X334058Y244580D01*
X334049Y244583D01*
X333349Y244483D01*
X333317Y244465D01*
X333293Y244463D01*
X332793Y244163D01*
X332780Y244146D01*
X332764Y244141D01*
X332264Y243641D01*
X332257Y243624D01*
X332246Y243618D01*
X331846Y243018D01*
X331837Y242979D01*
X331823Y242960D01*
X331723Y242360D01*
X331726Y242345D01*
X331721Y242335D01*
X331721Y241635D01*
X331725Y241623D01*
X331722Y241614D01*
X331822Y240914D01*
X331846Y240872D01*
X331847Y240867D01*
X331848Y240866D01*
X331853Y240842D01*
X332253Y240342D01*
X332262Y240337D01*
X332264Y240329D01*
X332764Y239829D01*
X332791Y239818D01*
X332803Y239802D01*
X333513Y239447D01*
X333450Y238732D01*
X333411Y238284D01*
X333338Y237436D01*
X332917Y237577D01*
G37*
%LPD*%
%LPC*%
G36*
X49707Y97242D02*
X49707Y97242D01*
X49117Y97438D01*
X48542Y97726D01*
X47967Y98205D01*
X47577Y98693D01*
X47181Y99188D01*
X46795Y99766D01*
X46602Y100347D01*
X46593Y100358D01*
X46608Y100418D01*
X46606Y100421D01*
X46607Y100425D01*
X46508Y101023D01*
X46411Y101700D01*
X46508Y102377D01*
X46606Y102967D01*
X46795Y103630D01*
X47177Y104107D01*
X47179Y104114D01*
X47184Y104117D01*
X47576Y104705D01*
X48060Y105189D01*
X48541Y105574D01*
X49117Y105862D01*
X49704Y106057D01*
X50381Y106251D01*
X53451Y106251D01*
X54169Y106161D01*
X54411Y105759D01*
X54411Y104674D01*
X52146Y104249D01*
X50860Y104249D01*
X50848Y104245D01*
X50839Y104248D01*
X50139Y104148D01*
X50107Y104130D01*
X50083Y104128D01*
X49583Y103828D01*
X49570Y103811D01*
X49554Y103806D01*
X49054Y103306D01*
X49047Y103289D01*
X49036Y103283D01*
X48636Y102683D01*
X48627Y102644D01*
X48613Y102625D01*
X48513Y102025D01*
X48516Y102010D01*
X48511Y102000D01*
X48511Y101300D01*
X48515Y101288D01*
X48512Y101279D01*
X48612Y100579D01*
X48636Y100537D01*
X48637Y100532D01*
X48638Y100531D01*
X48643Y100507D01*
X49043Y100007D01*
X49052Y100002D01*
X49054Y99994D01*
X49554Y99494D01*
X49581Y99483D01*
X49593Y99467D01*
X50303Y99112D01*
X50240Y98397D01*
X50201Y97949D01*
X50128Y97101D01*
X49707Y97242D01*
G37*
%LPD*%
%LPC*%
G36*
X332917Y33742D02*
X332917Y33742D01*
X332327Y33938D01*
X331752Y34226D01*
X331177Y34705D01*
X330787Y35193D01*
X330391Y35688D01*
X330005Y36266D01*
X329812Y36847D01*
X329803Y36858D01*
X329818Y36918D01*
X329816Y36921D01*
X329817Y36925D01*
X329718Y37523D01*
X329621Y38200D01*
X329718Y38877D01*
X329816Y39467D01*
X330005Y40130D01*
X330387Y40607D01*
X330389Y40614D01*
X330394Y40617D01*
X330786Y41205D01*
X331270Y41689D01*
X331751Y42074D01*
X332327Y42362D01*
X332914Y42557D01*
X333591Y42751D01*
X336661Y42751D01*
X337379Y42661D01*
X337621Y42259D01*
X337621Y41174D01*
X335356Y40749D01*
X334070Y40749D01*
X334058Y40745D01*
X334049Y40748D01*
X333349Y40648D01*
X333317Y40630D01*
X333293Y40628D01*
X332793Y40328D01*
X332780Y40311D01*
X332764Y40306D01*
X332264Y39806D01*
X332257Y39789D01*
X332246Y39783D01*
X331846Y39183D01*
X331837Y39144D01*
X331823Y39125D01*
X331723Y38525D01*
X331726Y38510D01*
X331721Y38500D01*
X331721Y37800D01*
X331725Y37788D01*
X331722Y37779D01*
X331822Y37079D01*
X331846Y37037D01*
X331847Y37032D01*
X331848Y37031D01*
X331853Y37007D01*
X332253Y36507D01*
X332262Y36502D01*
X332264Y36494D01*
X332764Y35994D01*
X332791Y35983D01*
X332803Y35967D01*
X333513Y35612D01*
X333450Y34897D01*
X333411Y34449D01*
X333338Y33601D01*
X332917Y33742D01*
G37*
%LPD*%
%LPC*%
G36*
X27402Y122449D02*
X27402Y122449D01*
X26883Y122536D01*
X26639Y122941D01*
X26639Y123559D01*
X26881Y123962D01*
X27501Y124051D01*
X30890Y124051D01*
X30934Y124068D01*
X30979Y124080D01*
X30982Y124086D01*
X30990Y124089D01*
X31039Y124185D01*
X31036Y124194D01*
X31039Y124200D01*
X31039Y130788D01*
X31128Y131319D01*
X31542Y131651D01*
X32366Y131651D01*
X32877Y131480D01*
X33050Y131048D01*
X33048Y131046D01*
X33050Y131018D01*
X33041Y131000D01*
X33041Y122941D01*
X32799Y122538D01*
X32179Y122449D01*
X27402Y122449D01*
G37*
%LPD*%
%LPC*%
G36*
X192294Y193000D02*
X192294Y193000D01*
X192277Y193044D01*
X192265Y193089D01*
X192259Y193092D01*
X192256Y193100D01*
X192160Y193149D01*
X192151Y193146D01*
X192145Y193149D01*
X190145Y193149D01*
X190104Y193133D01*
X190078Y193134D01*
X189478Y192834D01*
X189469Y192823D01*
X189456Y192820D01*
X189444Y192796D01*
X189406Y192754D01*
X189406Y192720D01*
X189396Y192700D01*
X189396Y192086D01*
X187708Y191109D01*
X187583Y191357D01*
X187394Y191924D01*
X187394Y192588D01*
X187491Y193167D01*
X187680Y193830D01*
X188056Y194300D01*
X188533Y194777D01*
X189090Y195056D01*
X189756Y195151D01*
X193136Y195151D01*
X193887Y195057D01*
X194208Y194816D01*
X194296Y194288D01*
X194296Y189096D01*
X192294Y188500D01*
X192294Y193000D01*
G37*
%LPD*%
%LPC*%
G36*
X189756Y185949D02*
X189756Y185949D01*
X189079Y186046D01*
X188517Y186233D01*
X188050Y186607D01*
X187567Y187187D01*
X187283Y187660D01*
X187094Y188321D01*
X187094Y188989D01*
X187189Y189655D01*
X187476Y190228D01*
X187755Y190693D01*
X189538Y191819D01*
X189855Y191581D01*
X189904Y191567D01*
X189927Y191552D01*
X190676Y191458D01*
X191003Y191131D01*
X191091Y190433D01*
X190854Y190038D01*
X189524Y189848D01*
X189430Y189795D01*
X189426Y189782D01*
X189417Y189777D01*
X189117Y189277D01*
X189110Y189238D01*
X189110Y189237D01*
X189110Y189236D01*
X189108Y189224D01*
X189096Y189200D01*
X189096Y188600D01*
X189125Y188525D01*
X189128Y188507D01*
X189528Y188007D01*
X189621Y187953D01*
X189635Y187956D01*
X189645Y187951D01*
X191645Y187951D01*
X191662Y187957D01*
X191674Y187954D01*
X192174Y188054D01*
X192182Y188059D01*
X192190Y188058D01*
X194296Y188716D01*
X194296Y186812D01*
X194206Y186272D01*
X193883Y185949D01*
X189756Y185949D01*
G37*
%LPD*%
%LPC*%
G36*
X204704Y186042D02*
X204704Y186042D01*
X204080Y186487D01*
X203998Y186894D01*
X204185Y187546D01*
X207478Y194233D01*
X207479Y194233D01*
X207768Y194812D01*
X208207Y195251D01*
X208710Y195251D01*
X209249Y194981D01*
X209618Y194519D01*
X210241Y193256D01*
X208772Y191349D01*
X208445Y191349D01*
X208432Y191344D01*
X208419Y191347D01*
X208398Y191331D01*
X208345Y191311D01*
X208329Y191280D01*
X208312Y191267D01*
X207712Y190067D01*
X207708Y190029D01*
X207696Y189993D01*
X207703Y189980D01*
X207701Y189960D01*
X207757Y189885D01*
X207762Y189876D01*
X207964Y189741D01*
X207657Y188908D01*
X207244Y188034D01*
X206720Y187947D01*
X206719Y187947D01*
X206715Y187944D01*
X206628Y187893D01*
X206622Y187875D01*
X206612Y187867D01*
X206012Y186667D01*
X205739Y186122D01*
X205233Y185953D01*
X204704Y186042D01*
G37*
%LPD*%
G36*
X141850Y82251D02*
X141850Y82251D01*
X141947Y82296D01*
X141949Y82299D01*
X141951Y82300D01*
X142851Y83300D01*
X142888Y83398D01*
X142889Y83400D01*
X142889Y84700D01*
X142884Y84713D01*
X142888Y84723D01*
X142688Y86023D01*
X142634Y86116D01*
X142631Y86117D01*
X142630Y86119D01*
X141830Y86719D01*
X141771Y86736D01*
X141748Y86749D01*
X139948Y86849D01*
X139915Y86838D01*
X139893Y86842D01*
X138693Y86442D01*
X138610Y86373D01*
X138609Y86369D01*
X138607Y86367D01*
X138107Y85367D01*
X138102Y85323D01*
X138091Y85300D01*
X138091Y83800D01*
X138101Y83773D01*
X138098Y83753D01*
X138498Y82553D01*
X138502Y82548D01*
X138502Y82543D01*
X138518Y82529D01*
X138522Y82524D01*
X138526Y82510D01*
X138540Y82503D01*
X138567Y82470D01*
X138591Y82466D01*
X138604Y82455D01*
X139004Y82355D01*
X139012Y82356D01*
X139017Y82353D01*
X140317Y82153D01*
X140337Y82157D01*
X140350Y82151D01*
X141850Y82251D01*
G37*
G36*
X133251Y82251D02*
X133251Y82251D01*
X133348Y82297D01*
X133349Y82299D01*
X133351Y82300D01*
X134251Y83300D01*
X134278Y83370D01*
X134289Y83389D01*
X134389Y84689D01*
X134383Y84708D01*
X134388Y84723D01*
X134188Y86023D01*
X134134Y86116D01*
X134131Y86117D01*
X134130Y86119D01*
X133330Y86719D01*
X133271Y86736D01*
X133248Y86749D01*
X131448Y86849D01*
X131417Y86839D01*
X131396Y86843D01*
X130096Y86443D01*
X130012Y86376D01*
X130009Y86362D01*
X130001Y86355D01*
X129601Y85355D01*
X129601Y85320D01*
X129591Y85300D01*
X129591Y83800D01*
X129601Y83773D01*
X129598Y83753D01*
X129998Y82553D01*
X130002Y82548D01*
X130002Y82543D01*
X130018Y82529D01*
X130022Y82524D01*
X130026Y82510D01*
X130040Y82503D01*
X130067Y82470D01*
X130091Y82466D01*
X130104Y82455D01*
X130504Y82355D01*
X130512Y82356D01*
X130517Y82353D01*
X131817Y82153D01*
X131837Y82157D01*
X131851Y82151D01*
X133251Y82251D01*
G37*
%LPC*%
G36*
X50516Y97049D02*
X50516Y97049D01*
X50603Y99051D01*
X51760Y99051D01*
X51793Y99063D01*
X51815Y99061D01*
X52315Y99261D01*
X52330Y99275D01*
X52349Y99280D01*
X52361Y99303D01*
X52394Y99335D01*
X52398Y99377D01*
X52409Y99400D01*
X52409Y103976D01*
X54411Y104351D01*
X54411Y97629D01*
X54247Y97220D01*
X53736Y97049D01*
X50516Y97049D01*
G37*
%LPD*%
%LPC*%
G36*
X333726Y237384D02*
X333726Y237384D01*
X333813Y239386D01*
X334970Y239386D01*
X335003Y239398D01*
X335025Y239396D01*
X335525Y239596D01*
X335540Y239610D01*
X335559Y239615D01*
X335571Y239638D01*
X335604Y239670D01*
X335608Y239712D01*
X335619Y239735D01*
X335619Y244311D01*
X337621Y244686D01*
X337621Y237964D01*
X337457Y237555D01*
X336946Y237384D01*
X333726Y237384D01*
G37*
%LPD*%
%LPC*%
G36*
X333726Y33549D02*
X333726Y33549D01*
X333813Y35551D01*
X334970Y35551D01*
X335003Y35563D01*
X335025Y35561D01*
X335525Y35761D01*
X335540Y35775D01*
X335559Y35780D01*
X335571Y35803D01*
X335604Y35835D01*
X335608Y35877D01*
X335619Y35900D01*
X335619Y40476D01*
X337621Y40851D01*
X337621Y34129D01*
X337457Y33720D01*
X336946Y33549D01*
X333726Y33549D01*
G37*
%LPD*%
%LPC*%
G36*
X27098Y102457D02*
X27098Y102457D01*
X26909Y103024D01*
X26909Y103689D01*
X27006Y104366D01*
X27193Y104928D01*
X27571Y105400D01*
X28048Y105877D01*
X28605Y106156D01*
X29271Y106251D01*
X32651Y106251D01*
X33402Y106157D01*
X33723Y105916D01*
X33811Y105388D01*
X33811Y103116D01*
X31809Y103617D01*
X31809Y104100D01*
X31792Y104144D01*
X31780Y104189D01*
X31774Y104192D01*
X31771Y104200D01*
X31675Y104249D01*
X31666Y104246D01*
X31660Y104249D01*
X29560Y104249D01*
X29510Y104230D01*
X29483Y104228D01*
X28983Y103928D01*
X28979Y103922D01*
X28971Y103920D01*
X28961Y103899D01*
X28917Y103843D01*
X28919Y103817D01*
X28911Y103800D01*
X28911Y103186D01*
X27223Y102209D01*
X27098Y102457D01*
G37*
%LPD*%
%LPC*%
G36*
X310308Y242792D02*
X310308Y242792D01*
X310119Y243359D01*
X310119Y244024D01*
X310216Y244701D01*
X310403Y245263D01*
X310781Y245735D01*
X311258Y246212D01*
X311815Y246491D01*
X312481Y246586D01*
X315861Y246586D01*
X316612Y246492D01*
X316933Y246251D01*
X317021Y245723D01*
X317021Y243451D01*
X315019Y243952D01*
X315019Y244435D01*
X315002Y244479D01*
X314990Y244524D01*
X314984Y244527D01*
X314981Y244535D01*
X314885Y244584D01*
X314876Y244581D01*
X314870Y244584D01*
X312770Y244584D01*
X312720Y244565D01*
X312693Y244563D01*
X312193Y244263D01*
X312189Y244257D01*
X312181Y244255D01*
X312171Y244234D01*
X312127Y244178D01*
X312129Y244152D01*
X312121Y244135D01*
X312121Y243521D01*
X310433Y242544D01*
X310308Y242792D01*
G37*
%LPD*%
%LPC*%
G36*
X310308Y38957D02*
X310308Y38957D01*
X310119Y39524D01*
X310119Y40189D01*
X310216Y40866D01*
X310403Y41428D01*
X310781Y41900D01*
X311258Y42377D01*
X311815Y42656D01*
X312481Y42751D01*
X315861Y42751D01*
X316612Y42657D01*
X316933Y42416D01*
X317021Y41888D01*
X317021Y39616D01*
X315019Y40117D01*
X315019Y40600D01*
X315002Y40644D01*
X314990Y40689D01*
X314984Y40692D01*
X314981Y40700D01*
X314885Y40749D01*
X314876Y40746D01*
X314870Y40749D01*
X312770Y40749D01*
X312720Y40730D01*
X312693Y40728D01*
X312193Y40428D01*
X312189Y40422D01*
X312181Y40420D01*
X312171Y40399D01*
X312127Y40343D01*
X312129Y40317D01*
X312121Y40300D01*
X312121Y39686D01*
X310433Y38709D01*
X310308Y38957D01*
G37*
%LPD*%
%LPC*%
G36*
X211617Y186039D02*
X211617Y186039D01*
X211269Y186387D01*
X210681Y187663D01*
X210674Y187669D01*
X210673Y187670D01*
X210636Y187706D01*
X210622Y187728D01*
X210122Y188028D01*
X210069Y188037D01*
X210045Y188049D01*
X207659Y188049D01*
X207933Y188792D01*
X208339Y189651D01*
X208845Y189651D01*
X208862Y189657D01*
X208874Y189654D01*
X209374Y189754D01*
X209381Y189758D01*
X209389Y189757D01*
X209426Y189786D01*
X209465Y189811D01*
X209467Y189819D01*
X209473Y189824D01*
X209475Y189847D01*
X209494Y189915D01*
X209481Y189939D01*
X209483Y189957D01*
X209016Y191077D01*
X210420Y192891D01*
X212909Y187838D01*
X213196Y187169D01*
X213196Y186672D01*
X212761Y186324D01*
X212117Y185956D01*
X211617Y186039D01*
G37*
%LPD*%
%LPC*%
G36*
X144023Y161840D02*
X144023Y161840D01*
X143560Y161933D01*
X143528Y161932D01*
X143485Y161940D01*
X143075Y161940D01*
X142755Y162100D01*
X142722Y162108D01*
X142677Y162129D01*
X142341Y162213D01*
X142127Y162356D01*
X141981Y162502D01*
X141801Y162771D01*
X141779Y162792D01*
X141754Y162829D01*
X141617Y162965D01*
X141446Y163480D01*
X141433Y163500D01*
X141425Y163530D01*
X141337Y163706D01*
X141265Y163922D01*
X141265Y165545D01*
X141515Y165420D01*
X141530Y165416D01*
X141543Y165407D01*
X141677Y165381D01*
X141684Y165380D01*
X141685Y165380D01*
X141795Y165380D01*
X141915Y165320D01*
X141930Y165316D01*
X141943Y165307D01*
X142077Y165281D01*
X142084Y165280D01*
X142085Y165280D01*
X142395Y165280D01*
X142515Y165220D01*
X142530Y165216D01*
X142543Y165207D01*
X142677Y165181D01*
X142684Y165180D01*
X142685Y165180D01*
X142823Y165180D01*
X143065Y165099D01*
X143102Y165096D01*
X143185Y165080D01*
X143523Y165080D01*
X143765Y164999D01*
X143802Y164996D01*
X143885Y164980D01*
X144195Y164980D01*
X144315Y164920D01*
X144330Y164916D01*
X144343Y164907D01*
X144477Y164881D01*
X144484Y164880D01*
X144485Y164880D01*
X144623Y164880D01*
X144839Y164808D01*
X144960Y164748D01*
X145016Y164691D01*
X145048Y164671D01*
X145115Y164620D01*
X145460Y164448D01*
X145516Y164391D01*
X145548Y164371D01*
X145615Y164320D01*
X145702Y164277D01*
X145905Y163870D01*
X145905Y163760D01*
X145908Y163745D01*
X145906Y163730D01*
X145943Y163598D01*
X145944Y163591D01*
X145945Y163591D01*
X145945Y163590D01*
X146005Y163470D01*
X146005Y163122D01*
X145924Y162880D01*
X145921Y162843D01*
X145905Y162760D01*
X145905Y162650D01*
X145873Y162585D01*
X145816Y162529D01*
X145808Y162515D01*
X145805Y162513D01*
X145802Y162505D01*
X145796Y162497D01*
X145745Y162430D01*
X145702Y162343D01*
X145615Y162300D01*
X145586Y162276D01*
X145516Y162229D01*
X145460Y162173D01*
X145195Y162040D01*
X145085Y162040D01*
X145070Y162037D01*
X145055Y162039D01*
X144923Y162002D01*
X144916Y162001D01*
X144916Y162000D01*
X144915Y162000D01*
X144795Y161940D01*
X144685Y161940D01*
X144670Y161937D01*
X144655Y161939D01*
X144523Y161902D01*
X144516Y161901D01*
X144516Y161900D01*
X144515Y161900D01*
X144440Y161863D01*
X144395Y161840D01*
X144023Y161840D01*
G37*
%LPD*%
%LPC*%
G36*
X323194Y237384D02*
X323194Y237384D01*
X322765Y237527D01*
X323473Y239386D01*
X324670Y239386D01*
X324703Y239398D01*
X324725Y239396D01*
X325213Y239591D01*
X327321Y240013D01*
X327321Y237964D01*
X327157Y237555D01*
X326646Y237384D01*
X323194Y237384D01*
G37*
%LPD*%
%LPC*%
G36*
X39984Y97049D02*
X39984Y97049D01*
X39555Y97192D01*
X40263Y99051D01*
X41460Y99051D01*
X41493Y99063D01*
X41515Y99061D01*
X42003Y99256D01*
X44111Y99678D01*
X44111Y97629D01*
X43947Y97220D01*
X43436Y97049D01*
X39984Y97049D01*
G37*
%LPD*%
%LPC*%
G36*
X323194Y33549D02*
X323194Y33549D01*
X322765Y33692D01*
X323473Y35551D01*
X324670Y35551D01*
X324703Y35563D01*
X324725Y35561D01*
X325213Y35756D01*
X327321Y36178D01*
X327321Y34129D01*
X327157Y33720D01*
X326646Y33549D01*
X323194Y33549D01*
G37*
%LPD*%
%LPC*%
G36*
X159646Y111522D02*
X159646Y111522D01*
X159225Y112363D01*
X159662Y112508D01*
X160239Y112701D01*
X162906Y112701D01*
X163677Y112604D01*
X164095Y112437D01*
X164266Y111926D01*
X164266Y111022D01*
X162004Y110699D01*
X160715Y110699D01*
X160701Y110694D01*
X160690Y110697D01*
X160191Y110614D01*
X159646Y111522D01*
G37*
%LPD*%
%LPC*%
G36*
X41742Y147849D02*
X41742Y147849D01*
X41324Y147919D01*
X41939Y149851D01*
X43130Y149851D01*
X43147Y149857D01*
X43159Y149854D01*
X43646Y149951D01*
X45781Y149997D01*
X45781Y148512D01*
X45698Y148013D01*
X45206Y147849D01*
X41742Y147849D01*
G37*
%LPD*%
%LPC*%
G36*
X33949Y148196D02*
X33949Y148196D01*
X33364Y149367D01*
X33358Y149371D01*
X33358Y149377D01*
X33062Y149870D01*
X32253Y151577D01*
X34502Y151853D01*
X35494Y149838D01*
X35787Y149155D01*
X35870Y148739D01*
X35531Y148316D01*
X34879Y147943D01*
X34371Y147858D01*
X33949Y148196D01*
G37*
%LPD*%
%LPC*%
G36*
X197474Y189649D02*
X197474Y189649D01*
X197000Y189839D01*
X196973Y189839D01*
X196894Y190312D01*
X196894Y190938D01*
X197215Y191259D01*
X197856Y191351D01*
X200534Y191351D01*
X201165Y191261D01*
X201496Y190848D01*
X201496Y190229D01*
X201334Y189823D01*
X200724Y189649D01*
X197474Y189649D01*
G37*
%LPD*%
D10*
X372110Y252095D02*
X356870Y252095D01*
X376682Y236347D02*
X376680Y236214D01*
X376674Y236081D01*
X376665Y235949D01*
X376651Y235816D01*
X376634Y235684D01*
X376613Y235553D01*
X376588Y235422D01*
X376559Y235293D01*
X376526Y235164D01*
X376490Y235036D01*
X376450Y234909D01*
X376406Y234783D01*
X376359Y234659D01*
X376308Y234536D01*
X376254Y234415D01*
X376196Y234295D01*
X376134Y234177D01*
X376069Y234061D01*
X376001Y233947D01*
X375930Y233835D01*
X375855Y233725D01*
X375777Y233617D01*
X375696Y233511D01*
X375612Y233408D01*
X375525Y233308D01*
X375436Y233210D01*
X375343Y233114D01*
X375247Y233021D01*
X375149Y232932D01*
X375049Y232845D01*
X374946Y232761D01*
X374840Y232680D01*
X374732Y232602D01*
X374622Y232527D01*
X374510Y232456D01*
X374396Y232388D01*
X374280Y232323D01*
X374162Y232261D01*
X374042Y232203D01*
X373921Y232149D01*
X373798Y232098D01*
X373674Y232051D01*
X373548Y232007D01*
X373421Y231967D01*
X373293Y231931D01*
X373164Y231898D01*
X373035Y231869D01*
X372904Y231844D01*
X372773Y231823D01*
X372641Y231806D01*
X372508Y231792D01*
X372376Y231783D01*
X372243Y231777D01*
X372110Y231775D01*
X356870Y231775D02*
X356737Y231777D01*
X356604Y231783D01*
X356472Y231792D01*
X356339Y231806D01*
X356207Y231823D01*
X356076Y231844D01*
X355945Y231869D01*
X355816Y231898D01*
X355687Y231931D01*
X355559Y231967D01*
X355432Y232007D01*
X355306Y232051D01*
X355182Y232098D01*
X355059Y232149D01*
X354938Y232203D01*
X354818Y232261D01*
X354700Y232323D01*
X354584Y232388D01*
X354470Y232456D01*
X354358Y232527D01*
X354248Y232602D01*
X354140Y232680D01*
X354034Y232761D01*
X353931Y232845D01*
X353831Y232932D01*
X353733Y233021D01*
X353637Y233114D01*
X353544Y233210D01*
X353455Y233308D01*
X353368Y233408D01*
X353284Y233511D01*
X353203Y233617D01*
X353125Y233725D01*
X353050Y233835D01*
X352979Y233947D01*
X352911Y234061D01*
X352846Y234177D01*
X352784Y234295D01*
X352726Y234415D01*
X352672Y234536D01*
X352621Y234659D01*
X352574Y234783D01*
X352530Y234909D01*
X352490Y235036D01*
X352454Y235164D01*
X352421Y235293D01*
X352392Y235422D01*
X352367Y235553D01*
X352346Y235684D01*
X352329Y235816D01*
X352315Y235949D01*
X352306Y236081D01*
X352300Y236214D01*
X352298Y236347D01*
X352298Y247523D02*
X352300Y247656D01*
X352306Y247789D01*
X352315Y247921D01*
X352329Y248054D01*
X352346Y248186D01*
X352367Y248317D01*
X352392Y248448D01*
X352421Y248577D01*
X352454Y248706D01*
X352490Y248834D01*
X352530Y248961D01*
X352574Y249087D01*
X352621Y249211D01*
X352672Y249334D01*
X352726Y249455D01*
X352784Y249575D01*
X352846Y249693D01*
X352911Y249809D01*
X352979Y249923D01*
X353050Y250035D01*
X353125Y250145D01*
X353203Y250253D01*
X353284Y250359D01*
X353368Y250462D01*
X353455Y250562D01*
X353544Y250660D01*
X353637Y250756D01*
X353733Y250849D01*
X353831Y250938D01*
X353931Y251025D01*
X354034Y251109D01*
X354140Y251190D01*
X354248Y251268D01*
X354358Y251343D01*
X354470Y251414D01*
X354584Y251482D01*
X354700Y251547D01*
X354818Y251609D01*
X354938Y251667D01*
X355059Y251721D01*
X355182Y251772D01*
X355306Y251819D01*
X355432Y251863D01*
X355559Y251903D01*
X355687Y251939D01*
X355816Y251972D01*
X355945Y252001D01*
X356076Y252026D01*
X356207Y252047D01*
X356339Y252064D01*
X356472Y252078D01*
X356604Y252087D01*
X356737Y252093D01*
X356870Y252095D01*
X372110Y252095D02*
X372243Y252093D01*
X372376Y252087D01*
X372508Y252078D01*
X372641Y252064D01*
X372773Y252047D01*
X372904Y252026D01*
X373035Y252001D01*
X373164Y251972D01*
X373293Y251939D01*
X373421Y251903D01*
X373548Y251863D01*
X373674Y251819D01*
X373798Y251772D01*
X373921Y251721D01*
X374042Y251667D01*
X374162Y251609D01*
X374280Y251547D01*
X374396Y251482D01*
X374510Y251414D01*
X374622Y251343D01*
X374732Y251268D01*
X374840Y251190D01*
X374946Y251109D01*
X375049Y251025D01*
X375149Y250938D01*
X375247Y250849D01*
X375343Y250756D01*
X375436Y250660D01*
X375525Y250562D01*
X375612Y250462D01*
X375696Y250359D01*
X375777Y250253D01*
X375855Y250145D01*
X375930Y250035D01*
X376001Y249923D01*
X376069Y249809D01*
X376134Y249693D01*
X376196Y249575D01*
X376254Y249455D01*
X376308Y249334D01*
X376359Y249211D01*
X376406Y249087D01*
X376450Y248961D01*
X376490Y248834D01*
X376526Y248706D01*
X376559Y248577D01*
X376588Y248448D01*
X376613Y248317D01*
X376634Y248186D01*
X376651Y248054D01*
X376665Y247921D01*
X376674Y247789D01*
X376680Y247656D01*
X376682Y247523D01*
X376682Y236347D01*
X352298Y236347D02*
X352298Y247523D01*
X356870Y231775D02*
X372110Y231775D01*
X372110Y226695D02*
X356870Y226695D01*
X376682Y210947D02*
X376680Y210814D01*
X376674Y210681D01*
X376665Y210549D01*
X376651Y210416D01*
X376634Y210284D01*
X376613Y210153D01*
X376588Y210022D01*
X376559Y209893D01*
X376526Y209764D01*
X376490Y209636D01*
X376450Y209509D01*
X376406Y209383D01*
X376359Y209259D01*
X376308Y209136D01*
X376254Y209015D01*
X376196Y208895D01*
X376134Y208777D01*
X376069Y208661D01*
X376001Y208547D01*
X375930Y208435D01*
X375855Y208325D01*
X375777Y208217D01*
X375696Y208111D01*
X375612Y208008D01*
X375525Y207908D01*
X375436Y207810D01*
X375343Y207714D01*
X375247Y207621D01*
X375149Y207532D01*
X375049Y207445D01*
X374946Y207361D01*
X374840Y207280D01*
X374732Y207202D01*
X374622Y207127D01*
X374510Y207056D01*
X374396Y206988D01*
X374280Y206923D01*
X374162Y206861D01*
X374042Y206803D01*
X373921Y206749D01*
X373798Y206698D01*
X373674Y206651D01*
X373548Y206607D01*
X373421Y206567D01*
X373293Y206531D01*
X373164Y206498D01*
X373035Y206469D01*
X372904Y206444D01*
X372773Y206423D01*
X372641Y206406D01*
X372508Y206392D01*
X372376Y206383D01*
X372243Y206377D01*
X372110Y206375D01*
X356870Y206375D02*
X356737Y206377D01*
X356604Y206383D01*
X356472Y206392D01*
X356339Y206406D01*
X356207Y206423D01*
X356076Y206444D01*
X355945Y206469D01*
X355816Y206498D01*
X355687Y206531D01*
X355559Y206567D01*
X355432Y206607D01*
X355306Y206651D01*
X355182Y206698D01*
X355059Y206749D01*
X354938Y206803D01*
X354818Y206861D01*
X354700Y206923D01*
X354584Y206988D01*
X354470Y207056D01*
X354358Y207127D01*
X354248Y207202D01*
X354140Y207280D01*
X354034Y207361D01*
X353931Y207445D01*
X353831Y207532D01*
X353733Y207621D01*
X353637Y207714D01*
X353544Y207810D01*
X353455Y207908D01*
X353368Y208008D01*
X353284Y208111D01*
X353203Y208217D01*
X353125Y208325D01*
X353050Y208435D01*
X352979Y208547D01*
X352911Y208661D01*
X352846Y208777D01*
X352784Y208895D01*
X352726Y209015D01*
X352672Y209136D01*
X352621Y209259D01*
X352574Y209383D01*
X352530Y209509D01*
X352490Y209636D01*
X352454Y209764D01*
X352421Y209893D01*
X352392Y210022D01*
X352367Y210153D01*
X352346Y210284D01*
X352329Y210416D01*
X352315Y210549D01*
X352306Y210681D01*
X352300Y210814D01*
X352298Y210947D01*
X352298Y222123D02*
X352300Y222256D01*
X352306Y222389D01*
X352315Y222521D01*
X352329Y222654D01*
X352346Y222786D01*
X352367Y222917D01*
X352392Y223048D01*
X352421Y223177D01*
X352454Y223306D01*
X352490Y223434D01*
X352530Y223561D01*
X352574Y223687D01*
X352621Y223811D01*
X352672Y223934D01*
X352726Y224055D01*
X352784Y224175D01*
X352846Y224293D01*
X352911Y224409D01*
X352979Y224523D01*
X353050Y224635D01*
X353125Y224745D01*
X353203Y224853D01*
X353284Y224959D01*
X353368Y225062D01*
X353455Y225162D01*
X353544Y225260D01*
X353637Y225356D01*
X353733Y225449D01*
X353831Y225538D01*
X353931Y225625D01*
X354034Y225709D01*
X354140Y225790D01*
X354248Y225868D01*
X354358Y225943D01*
X354470Y226014D01*
X354584Y226082D01*
X354700Y226147D01*
X354818Y226209D01*
X354938Y226267D01*
X355059Y226321D01*
X355182Y226372D01*
X355306Y226419D01*
X355432Y226463D01*
X355559Y226503D01*
X355687Y226539D01*
X355816Y226572D01*
X355945Y226601D01*
X356076Y226626D01*
X356207Y226647D01*
X356339Y226664D01*
X356472Y226678D01*
X356604Y226687D01*
X356737Y226693D01*
X356870Y226695D01*
X372110Y226695D02*
X372243Y226693D01*
X372376Y226687D01*
X372508Y226678D01*
X372641Y226664D01*
X372773Y226647D01*
X372904Y226626D01*
X373035Y226601D01*
X373164Y226572D01*
X373293Y226539D01*
X373421Y226503D01*
X373548Y226463D01*
X373674Y226419D01*
X373798Y226372D01*
X373921Y226321D01*
X374042Y226267D01*
X374162Y226209D01*
X374280Y226147D01*
X374396Y226082D01*
X374510Y226014D01*
X374622Y225943D01*
X374732Y225868D01*
X374840Y225790D01*
X374946Y225709D01*
X375049Y225625D01*
X375149Y225538D01*
X375247Y225449D01*
X375343Y225356D01*
X375436Y225260D01*
X375525Y225162D01*
X375612Y225062D01*
X375696Y224959D01*
X375777Y224853D01*
X375855Y224745D01*
X375930Y224635D01*
X376001Y224523D01*
X376069Y224409D01*
X376134Y224293D01*
X376196Y224175D01*
X376254Y224055D01*
X376308Y223934D01*
X376359Y223811D01*
X376406Y223687D01*
X376450Y223561D01*
X376490Y223434D01*
X376526Y223306D01*
X376559Y223177D01*
X376588Y223048D01*
X376613Y222917D01*
X376634Y222786D01*
X376651Y222654D01*
X376665Y222521D01*
X376674Y222389D01*
X376680Y222256D01*
X376682Y222123D01*
X376682Y210947D01*
X352298Y210947D02*
X352298Y222123D01*
X356870Y206375D02*
X372110Y206375D01*
X372110Y48260D02*
X356870Y48260D01*
X376682Y32512D02*
X376680Y32379D01*
X376674Y32246D01*
X376665Y32114D01*
X376651Y31981D01*
X376634Y31849D01*
X376613Y31718D01*
X376588Y31587D01*
X376559Y31458D01*
X376526Y31329D01*
X376490Y31201D01*
X376450Y31074D01*
X376406Y30948D01*
X376359Y30824D01*
X376308Y30701D01*
X376254Y30580D01*
X376196Y30460D01*
X376134Y30342D01*
X376069Y30226D01*
X376001Y30112D01*
X375930Y30000D01*
X375855Y29890D01*
X375777Y29782D01*
X375696Y29676D01*
X375612Y29573D01*
X375525Y29473D01*
X375436Y29375D01*
X375343Y29279D01*
X375247Y29186D01*
X375149Y29097D01*
X375049Y29010D01*
X374946Y28926D01*
X374840Y28845D01*
X374732Y28767D01*
X374622Y28692D01*
X374510Y28621D01*
X374396Y28553D01*
X374280Y28488D01*
X374162Y28426D01*
X374042Y28368D01*
X373921Y28314D01*
X373798Y28263D01*
X373674Y28216D01*
X373548Y28172D01*
X373421Y28132D01*
X373293Y28096D01*
X373164Y28063D01*
X373035Y28034D01*
X372904Y28009D01*
X372773Y27988D01*
X372641Y27971D01*
X372508Y27957D01*
X372376Y27948D01*
X372243Y27942D01*
X372110Y27940D01*
X356870Y27940D02*
X356737Y27942D01*
X356604Y27948D01*
X356472Y27957D01*
X356339Y27971D01*
X356207Y27988D01*
X356076Y28009D01*
X355945Y28034D01*
X355816Y28063D01*
X355687Y28096D01*
X355559Y28132D01*
X355432Y28172D01*
X355306Y28216D01*
X355182Y28263D01*
X355059Y28314D01*
X354938Y28368D01*
X354818Y28426D01*
X354700Y28488D01*
X354584Y28553D01*
X354470Y28621D01*
X354358Y28692D01*
X354248Y28767D01*
X354140Y28845D01*
X354034Y28926D01*
X353931Y29010D01*
X353831Y29097D01*
X353733Y29186D01*
X353637Y29279D01*
X353544Y29375D01*
X353455Y29473D01*
X353368Y29573D01*
X353284Y29676D01*
X353203Y29782D01*
X353125Y29890D01*
X353050Y30000D01*
X352979Y30112D01*
X352911Y30226D01*
X352846Y30342D01*
X352784Y30460D01*
X352726Y30580D01*
X352672Y30701D01*
X352621Y30824D01*
X352574Y30948D01*
X352530Y31074D01*
X352490Y31201D01*
X352454Y31329D01*
X352421Y31458D01*
X352392Y31587D01*
X352367Y31718D01*
X352346Y31849D01*
X352329Y31981D01*
X352315Y32114D01*
X352306Y32246D01*
X352300Y32379D01*
X352298Y32512D01*
X352298Y43688D02*
X352300Y43821D01*
X352306Y43954D01*
X352315Y44086D01*
X352329Y44219D01*
X352346Y44351D01*
X352367Y44482D01*
X352392Y44613D01*
X352421Y44742D01*
X352454Y44871D01*
X352490Y44999D01*
X352530Y45126D01*
X352574Y45252D01*
X352621Y45376D01*
X352672Y45499D01*
X352726Y45620D01*
X352784Y45740D01*
X352846Y45858D01*
X352911Y45974D01*
X352979Y46088D01*
X353050Y46200D01*
X353125Y46310D01*
X353203Y46418D01*
X353284Y46524D01*
X353368Y46627D01*
X353455Y46727D01*
X353544Y46825D01*
X353637Y46921D01*
X353733Y47014D01*
X353831Y47103D01*
X353931Y47190D01*
X354034Y47274D01*
X354140Y47355D01*
X354248Y47433D01*
X354358Y47508D01*
X354470Y47579D01*
X354584Y47647D01*
X354700Y47712D01*
X354818Y47774D01*
X354938Y47832D01*
X355059Y47886D01*
X355182Y47937D01*
X355306Y47984D01*
X355432Y48028D01*
X355559Y48068D01*
X355687Y48104D01*
X355816Y48137D01*
X355945Y48166D01*
X356076Y48191D01*
X356207Y48212D01*
X356339Y48229D01*
X356472Y48243D01*
X356604Y48252D01*
X356737Y48258D01*
X356870Y48260D01*
X372110Y48260D02*
X372243Y48258D01*
X372376Y48252D01*
X372508Y48243D01*
X372641Y48229D01*
X372773Y48212D01*
X372904Y48191D01*
X373035Y48166D01*
X373164Y48137D01*
X373293Y48104D01*
X373421Y48068D01*
X373548Y48028D01*
X373674Y47984D01*
X373798Y47937D01*
X373921Y47886D01*
X374042Y47832D01*
X374162Y47774D01*
X374280Y47712D01*
X374396Y47647D01*
X374510Y47579D01*
X374622Y47508D01*
X374732Y47433D01*
X374840Y47355D01*
X374946Y47274D01*
X375049Y47190D01*
X375149Y47103D01*
X375247Y47014D01*
X375343Y46921D01*
X375436Y46825D01*
X375525Y46727D01*
X375612Y46627D01*
X375696Y46524D01*
X375777Y46418D01*
X375855Y46310D01*
X375930Y46200D01*
X376001Y46088D01*
X376069Y45974D01*
X376134Y45858D01*
X376196Y45740D01*
X376254Y45620D01*
X376308Y45499D01*
X376359Y45376D01*
X376406Y45252D01*
X376450Y45126D01*
X376490Y44999D01*
X376526Y44871D01*
X376559Y44742D01*
X376588Y44613D01*
X376613Y44482D01*
X376634Y44351D01*
X376651Y44219D01*
X376665Y44086D01*
X376674Y43954D01*
X376680Y43821D01*
X376682Y43688D01*
X376682Y32512D01*
X352298Y32512D02*
X352298Y43688D01*
X356870Y27940D02*
X372110Y27940D01*
X372110Y53340D02*
X356870Y53340D01*
X352298Y69088D02*
X352300Y69221D01*
X352306Y69354D01*
X352315Y69486D01*
X352329Y69619D01*
X352346Y69751D01*
X352367Y69882D01*
X352392Y70013D01*
X352421Y70142D01*
X352454Y70271D01*
X352490Y70399D01*
X352530Y70526D01*
X352574Y70652D01*
X352621Y70776D01*
X352672Y70899D01*
X352726Y71020D01*
X352784Y71140D01*
X352846Y71258D01*
X352911Y71374D01*
X352979Y71488D01*
X353050Y71600D01*
X353125Y71710D01*
X353203Y71818D01*
X353284Y71924D01*
X353368Y72027D01*
X353455Y72127D01*
X353544Y72225D01*
X353637Y72321D01*
X353733Y72414D01*
X353831Y72503D01*
X353931Y72590D01*
X354034Y72674D01*
X354140Y72755D01*
X354248Y72833D01*
X354358Y72908D01*
X354470Y72979D01*
X354584Y73047D01*
X354700Y73112D01*
X354818Y73174D01*
X354938Y73232D01*
X355059Y73286D01*
X355182Y73337D01*
X355306Y73384D01*
X355432Y73428D01*
X355559Y73468D01*
X355687Y73504D01*
X355816Y73537D01*
X355945Y73566D01*
X356076Y73591D01*
X356207Y73612D01*
X356339Y73629D01*
X356472Y73643D01*
X356604Y73652D01*
X356737Y73658D01*
X356870Y73660D01*
X372110Y73660D02*
X372243Y73658D01*
X372376Y73652D01*
X372508Y73643D01*
X372641Y73629D01*
X372773Y73612D01*
X372904Y73591D01*
X373035Y73566D01*
X373164Y73537D01*
X373293Y73504D01*
X373421Y73468D01*
X373548Y73428D01*
X373674Y73384D01*
X373798Y73337D01*
X373921Y73286D01*
X374042Y73232D01*
X374162Y73174D01*
X374280Y73112D01*
X374396Y73047D01*
X374510Y72979D01*
X374622Y72908D01*
X374732Y72833D01*
X374840Y72755D01*
X374946Y72674D01*
X375049Y72590D01*
X375149Y72503D01*
X375247Y72414D01*
X375343Y72321D01*
X375436Y72225D01*
X375525Y72127D01*
X375612Y72027D01*
X375696Y71924D01*
X375777Y71818D01*
X375855Y71710D01*
X375930Y71600D01*
X376001Y71488D01*
X376069Y71374D01*
X376134Y71258D01*
X376196Y71140D01*
X376254Y71020D01*
X376308Y70899D01*
X376359Y70776D01*
X376406Y70652D01*
X376450Y70526D01*
X376490Y70399D01*
X376526Y70271D01*
X376559Y70142D01*
X376588Y70013D01*
X376613Y69882D01*
X376634Y69751D01*
X376651Y69619D01*
X376665Y69486D01*
X376674Y69354D01*
X376680Y69221D01*
X376682Y69088D01*
X376682Y57912D02*
X376680Y57779D01*
X376674Y57646D01*
X376665Y57514D01*
X376651Y57381D01*
X376634Y57249D01*
X376613Y57118D01*
X376588Y56987D01*
X376559Y56858D01*
X376526Y56729D01*
X376490Y56601D01*
X376450Y56474D01*
X376406Y56348D01*
X376359Y56224D01*
X376308Y56101D01*
X376254Y55980D01*
X376196Y55860D01*
X376134Y55742D01*
X376069Y55626D01*
X376001Y55512D01*
X375930Y55400D01*
X375855Y55290D01*
X375777Y55182D01*
X375696Y55076D01*
X375612Y54973D01*
X375525Y54873D01*
X375436Y54775D01*
X375343Y54679D01*
X375247Y54586D01*
X375149Y54497D01*
X375049Y54410D01*
X374946Y54326D01*
X374840Y54245D01*
X374732Y54167D01*
X374622Y54092D01*
X374510Y54021D01*
X374396Y53953D01*
X374280Y53888D01*
X374162Y53826D01*
X374042Y53768D01*
X373921Y53714D01*
X373798Y53663D01*
X373674Y53616D01*
X373548Y53572D01*
X373421Y53532D01*
X373293Y53496D01*
X373164Y53463D01*
X373035Y53434D01*
X372904Y53409D01*
X372773Y53388D01*
X372641Y53371D01*
X372508Y53357D01*
X372376Y53348D01*
X372243Y53342D01*
X372110Y53340D01*
X356870Y53340D02*
X356737Y53342D01*
X356604Y53348D01*
X356472Y53357D01*
X356339Y53371D01*
X356207Y53388D01*
X356076Y53409D01*
X355945Y53434D01*
X355816Y53463D01*
X355687Y53496D01*
X355559Y53532D01*
X355432Y53572D01*
X355306Y53616D01*
X355182Y53663D01*
X355059Y53714D01*
X354938Y53768D01*
X354818Y53826D01*
X354700Y53888D01*
X354584Y53953D01*
X354470Y54021D01*
X354358Y54092D01*
X354248Y54167D01*
X354140Y54245D01*
X354034Y54326D01*
X353931Y54410D01*
X353831Y54497D01*
X353733Y54586D01*
X353637Y54679D01*
X353544Y54775D01*
X353455Y54873D01*
X353368Y54973D01*
X353284Y55076D01*
X353203Y55182D01*
X353125Y55290D01*
X353050Y55400D01*
X352979Y55512D01*
X352911Y55626D01*
X352846Y55742D01*
X352784Y55860D01*
X352726Y55980D01*
X352672Y56101D01*
X352621Y56224D01*
X352574Y56348D01*
X352530Y56474D01*
X352490Y56601D01*
X352454Y56729D01*
X352421Y56858D01*
X352392Y56987D01*
X352367Y57118D01*
X352346Y57249D01*
X352329Y57381D01*
X352315Y57514D01*
X352306Y57646D01*
X352300Y57779D01*
X352298Y57912D01*
X352298Y69088D01*
X376682Y69088D02*
X376682Y57912D01*
X372110Y73660D02*
X356870Y73660D01*
X200660Y100330D02*
X200660Y115570D01*
X184912Y95758D02*
X184779Y95760D01*
X184646Y95766D01*
X184514Y95775D01*
X184381Y95789D01*
X184249Y95806D01*
X184118Y95827D01*
X183987Y95852D01*
X183858Y95881D01*
X183729Y95914D01*
X183601Y95950D01*
X183474Y95990D01*
X183348Y96034D01*
X183224Y96081D01*
X183101Y96132D01*
X182980Y96186D01*
X182860Y96244D01*
X182742Y96306D01*
X182626Y96371D01*
X182512Y96439D01*
X182400Y96510D01*
X182290Y96585D01*
X182182Y96663D01*
X182076Y96744D01*
X181973Y96828D01*
X181873Y96915D01*
X181775Y97004D01*
X181679Y97097D01*
X181586Y97193D01*
X181497Y97291D01*
X181410Y97391D01*
X181326Y97494D01*
X181245Y97600D01*
X181167Y97708D01*
X181092Y97818D01*
X181021Y97930D01*
X180953Y98044D01*
X180888Y98160D01*
X180826Y98278D01*
X180768Y98398D01*
X180714Y98519D01*
X180663Y98642D01*
X180616Y98766D01*
X180572Y98892D01*
X180532Y99019D01*
X180496Y99147D01*
X180463Y99276D01*
X180434Y99405D01*
X180409Y99536D01*
X180388Y99667D01*
X180371Y99799D01*
X180357Y99932D01*
X180348Y100064D01*
X180342Y100197D01*
X180340Y100330D01*
X180340Y115570D02*
X180342Y115703D01*
X180348Y115836D01*
X180357Y115968D01*
X180371Y116101D01*
X180388Y116233D01*
X180409Y116364D01*
X180434Y116495D01*
X180463Y116624D01*
X180496Y116753D01*
X180532Y116881D01*
X180572Y117008D01*
X180616Y117134D01*
X180663Y117258D01*
X180714Y117381D01*
X180768Y117502D01*
X180826Y117622D01*
X180888Y117740D01*
X180953Y117856D01*
X181021Y117970D01*
X181092Y118082D01*
X181167Y118192D01*
X181245Y118300D01*
X181326Y118406D01*
X181410Y118509D01*
X181497Y118609D01*
X181586Y118707D01*
X181679Y118803D01*
X181775Y118896D01*
X181873Y118985D01*
X181973Y119072D01*
X182076Y119156D01*
X182182Y119237D01*
X182290Y119315D01*
X182400Y119390D01*
X182512Y119461D01*
X182626Y119529D01*
X182742Y119594D01*
X182860Y119656D01*
X182980Y119714D01*
X183101Y119768D01*
X183224Y119819D01*
X183348Y119866D01*
X183474Y119910D01*
X183601Y119950D01*
X183729Y119986D01*
X183858Y120019D01*
X183987Y120048D01*
X184118Y120073D01*
X184249Y120094D01*
X184381Y120111D01*
X184514Y120125D01*
X184646Y120134D01*
X184779Y120140D01*
X184912Y120142D01*
X196088Y120142D02*
X196221Y120140D01*
X196354Y120134D01*
X196486Y120125D01*
X196619Y120111D01*
X196751Y120094D01*
X196882Y120073D01*
X197013Y120048D01*
X197142Y120019D01*
X197271Y119986D01*
X197399Y119950D01*
X197526Y119910D01*
X197652Y119866D01*
X197776Y119819D01*
X197899Y119768D01*
X198020Y119714D01*
X198140Y119656D01*
X198258Y119594D01*
X198374Y119529D01*
X198488Y119461D01*
X198600Y119390D01*
X198710Y119315D01*
X198818Y119237D01*
X198924Y119156D01*
X199027Y119072D01*
X199127Y118985D01*
X199225Y118896D01*
X199321Y118803D01*
X199414Y118707D01*
X199503Y118609D01*
X199590Y118509D01*
X199674Y118406D01*
X199755Y118300D01*
X199833Y118192D01*
X199908Y118082D01*
X199979Y117970D01*
X200047Y117856D01*
X200112Y117740D01*
X200174Y117622D01*
X200232Y117502D01*
X200286Y117381D01*
X200337Y117258D01*
X200384Y117134D01*
X200428Y117008D01*
X200468Y116881D01*
X200504Y116753D01*
X200537Y116624D01*
X200566Y116495D01*
X200591Y116364D01*
X200612Y116233D01*
X200629Y116101D01*
X200643Y115968D01*
X200652Y115836D01*
X200658Y115703D01*
X200660Y115570D01*
X200660Y100330D02*
X200658Y100197D01*
X200652Y100064D01*
X200643Y99932D01*
X200629Y99799D01*
X200612Y99667D01*
X200591Y99536D01*
X200566Y99405D01*
X200537Y99276D01*
X200504Y99147D01*
X200468Y99019D01*
X200428Y98892D01*
X200384Y98766D01*
X200337Y98642D01*
X200286Y98519D01*
X200232Y98398D01*
X200174Y98278D01*
X200112Y98160D01*
X200047Y98044D01*
X199979Y97930D01*
X199908Y97818D01*
X199833Y97708D01*
X199755Y97600D01*
X199674Y97494D01*
X199590Y97391D01*
X199503Y97291D01*
X199414Y97193D01*
X199321Y97097D01*
X199225Y97004D01*
X199127Y96915D01*
X199027Y96828D01*
X198924Y96744D01*
X198818Y96663D01*
X198710Y96585D01*
X198600Y96510D01*
X198488Y96439D01*
X198374Y96371D01*
X198258Y96306D01*
X198140Y96244D01*
X198020Y96186D01*
X197899Y96132D01*
X197776Y96081D01*
X197652Y96034D01*
X197526Y95990D01*
X197399Y95950D01*
X197271Y95914D01*
X197142Y95881D01*
X197013Y95852D01*
X196882Y95827D01*
X196751Y95806D01*
X196619Y95789D01*
X196486Y95775D01*
X196354Y95766D01*
X196221Y95760D01*
X196088Y95758D01*
X184912Y95758D01*
X184912Y120142D02*
X196088Y120142D01*
X180340Y115570D02*
X180340Y100330D01*
D11*
X219964Y200660D02*
X237236Y200660D01*
X239776Y182880D02*
X239774Y182780D01*
X239768Y182681D01*
X239758Y182581D01*
X239745Y182483D01*
X239727Y182384D01*
X239706Y182287D01*
X239681Y182191D01*
X239652Y182095D01*
X239619Y182001D01*
X239583Y181908D01*
X239543Y181817D01*
X239499Y181727D01*
X239452Y181639D01*
X239402Y181553D01*
X239348Y181469D01*
X239291Y181387D01*
X239231Y181308D01*
X239167Y181230D01*
X239101Y181156D01*
X239032Y181084D01*
X238960Y181015D01*
X238886Y180949D01*
X238808Y180885D01*
X238729Y180825D01*
X238647Y180768D01*
X238563Y180714D01*
X238477Y180664D01*
X238389Y180617D01*
X238299Y180573D01*
X238208Y180533D01*
X238115Y180497D01*
X238021Y180464D01*
X237925Y180435D01*
X237829Y180410D01*
X237732Y180389D01*
X237633Y180371D01*
X237535Y180358D01*
X237435Y180348D01*
X237336Y180342D01*
X237236Y180340D01*
X219964Y180340D02*
X219864Y180342D01*
X219765Y180348D01*
X219665Y180358D01*
X219567Y180371D01*
X219468Y180389D01*
X219371Y180410D01*
X219275Y180435D01*
X219179Y180464D01*
X219085Y180497D01*
X218992Y180533D01*
X218901Y180573D01*
X218811Y180617D01*
X218723Y180664D01*
X218637Y180714D01*
X218553Y180768D01*
X218471Y180825D01*
X218392Y180885D01*
X218314Y180949D01*
X218240Y181015D01*
X218168Y181084D01*
X218099Y181156D01*
X218033Y181230D01*
X217969Y181308D01*
X217909Y181387D01*
X217852Y181469D01*
X217798Y181553D01*
X217748Y181639D01*
X217701Y181727D01*
X217657Y181817D01*
X217617Y181908D01*
X217581Y182001D01*
X217548Y182095D01*
X217519Y182191D01*
X217494Y182287D01*
X217473Y182384D01*
X217455Y182483D01*
X217442Y182581D01*
X217432Y182681D01*
X217426Y182780D01*
X217424Y182880D01*
X217424Y198120D02*
X217426Y198220D01*
X217432Y198319D01*
X217442Y198419D01*
X217455Y198517D01*
X217473Y198616D01*
X217494Y198713D01*
X217519Y198809D01*
X217548Y198905D01*
X217581Y198999D01*
X217617Y199092D01*
X217657Y199183D01*
X217701Y199273D01*
X217748Y199361D01*
X217798Y199447D01*
X217852Y199531D01*
X217909Y199613D01*
X217969Y199692D01*
X218033Y199770D01*
X218099Y199844D01*
X218168Y199916D01*
X218240Y199985D01*
X218314Y200051D01*
X218392Y200115D01*
X218471Y200175D01*
X218553Y200232D01*
X218637Y200286D01*
X218723Y200336D01*
X218811Y200383D01*
X218901Y200427D01*
X218992Y200467D01*
X219085Y200503D01*
X219179Y200536D01*
X219275Y200565D01*
X219371Y200590D01*
X219468Y200611D01*
X219567Y200629D01*
X219665Y200642D01*
X219765Y200652D01*
X219864Y200658D01*
X219964Y200660D01*
X237236Y200660D02*
X237336Y200658D01*
X237435Y200652D01*
X237535Y200642D01*
X237633Y200629D01*
X237732Y200611D01*
X237829Y200590D01*
X237925Y200565D01*
X238021Y200536D01*
X238115Y200503D01*
X238208Y200467D01*
X238299Y200427D01*
X238389Y200383D01*
X238477Y200336D01*
X238563Y200286D01*
X238647Y200232D01*
X238729Y200175D01*
X238808Y200115D01*
X238886Y200051D01*
X238960Y199985D01*
X239032Y199916D01*
X239101Y199844D01*
X239167Y199770D01*
X239231Y199692D01*
X239291Y199613D01*
X239348Y199531D01*
X239402Y199447D01*
X239452Y199361D01*
X239499Y199273D01*
X239543Y199183D01*
X239583Y199092D01*
X239619Y198999D01*
X239652Y198905D01*
X239681Y198809D01*
X239706Y198713D01*
X239727Y198616D01*
X239745Y198517D01*
X239758Y198419D01*
X239768Y198319D01*
X239774Y198220D01*
X239776Y198120D01*
X239776Y182880D01*
X217424Y182880D02*
X217424Y198120D01*
X219964Y180340D02*
X237236Y180340D01*
M02*
