G04 EAGLE Gerber RS-274X export*
G75*
%MOMM*%
%FSLAX34Y34*%
%LPD*%
%INBottom Copper*%
%IPPOS*%
%AMOC8*
5,1,8,0,0,1.08239X$1,22.5*%
G01*
%ADD10C,0.279400*%
%ADD11C,1.879600*%
%ADD12R,1.879600X1.879600*%
%ADD13R,0.660400X1.270000*%
%ADD14C,0.635000*%
%ADD15R,1.270000X0.660400*%
%ADD16R,0.635000X1.270000*%
%ADD17C,0.736600*%
%ADD18C,0.203200*%

G36*
X337514Y18884D02*
X337514Y18884D01*
X337533Y18890D01*
X337553Y18892D01*
X337684Y18940D01*
X337816Y18982D01*
X337833Y18993D01*
X337852Y19000D01*
X337968Y19078D01*
X338085Y19152D01*
X338099Y19167D01*
X338116Y19179D01*
X338208Y19283D01*
X338303Y19384D01*
X338313Y19402D01*
X338326Y19417D01*
X338389Y19541D01*
X338456Y19663D01*
X338461Y19682D01*
X338471Y19700D01*
X338501Y19836D01*
X338536Y19971D01*
X338538Y19999D01*
X338540Y20011D01*
X338540Y20031D01*
X338546Y20131D01*
X338546Y22047D01*
X339824Y23325D01*
X341150Y24652D01*
X344833Y24652D01*
X347204Y22281D01*
X347809Y21676D01*
X350346Y19138D01*
X350405Y19093D01*
X350458Y19040D01*
X350530Y18996D01*
X350598Y18943D01*
X350666Y18914D01*
X350730Y18875D01*
X350811Y18851D01*
X350890Y18817D01*
X350963Y18805D01*
X351035Y18784D01*
X351119Y18781D01*
X351204Y18767D01*
X351278Y18774D01*
X351352Y18771D01*
X351436Y18789D01*
X351520Y18797D01*
X351591Y18822D01*
X351663Y18838D01*
X351812Y18901D01*
X354023Y20006D01*
X357517Y18841D01*
X358228Y17418D01*
X358256Y17377D01*
X358276Y17332D01*
X358344Y17246D01*
X358405Y17154D01*
X358442Y17121D01*
X358472Y17082D01*
X358560Y17015D01*
X358642Y16942D01*
X358686Y16919D01*
X358725Y16889D01*
X358826Y16846D01*
X358924Y16795D01*
X358972Y16784D01*
X359018Y16765D01*
X359127Y16748D01*
X359234Y16723D01*
X359283Y16725D01*
X359332Y16717D01*
X359442Y16728D01*
X359552Y16731D01*
X359599Y16744D01*
X359649Y16749D01*
X359752Y16787D01*
X359858Y16817D01*
X359901Y16842D01*
X359947Y16859D01*
X360038Y16922D01*
X360133Y16977D01*
X360168Y17011D01*
X360209Y17039D01*
X360281Y17122D01*
X360360Y17200D01*
X360385Y17242D01*
X360418Y17279D01*
X360499Y17418D01*
X361210Y18841D01*
X364704Y20006D01*
X367998Y18359D01*
X369163Y14865D01*
X364681Y5902D01*
X364650Y5812D01*
X364610Y5727D01*
X364597Y5663D01*
X364576Y5602D01*
X364568Y5507D01*
X364550Y5414D01*
X364554Y5350D01*
X364548Y5285D01*
X364564Y5191D01*
X364569Y5097D01*
X364590Y5035D01*
X364600Y4971D01*
X364638Y4884D01*
X364668Y4795D01*
X364702Y4740D01*
X364729Y4680D01*
X364787Y4606D01*
X364838Y4526D01*
X364885Y4481D01*
X364925Y4430D01*
X365000Y4373D01*
X365069Y4308D01*
X365126Y4277D01*
X365178Y4237D01*
X365265Y4200D01*
X365348Y4154D01*
X365411Y4138D01*
X365471Y4113D01*
X365564Y4099D01*
X365656Y4075D01*
X365767Y4068D01*
X365785Y4065D01*
X365795Y4066D01*
X365816Y4065D01*
X426466Y4065D01*
X426584Y4080D01*
X426703Y4087D01*
X426741Y4100D01*
X426782Y4105D01*
X426892Y4148D01*
X427005Y4185D01*
X427040Y4207D01*
X427077Y4222D01*
X427173Y4291D01*
X427274Y4355D01*
X427302Y4385D01*
X427335Y4408D01*
X427411Y4500D01*
X427492Y4587D01*
X427512Y4622D01*
X427537Y4653D01*
X427588Y4761D01*
X427646Y4865D01*
X427656Y4905D01*
X427673Y4941D01*
X427695Y5058D01*
X427725Y5173D01*
X427729Y5233D01*
X427733Y5253D01*
X427731Y5274D01*
X427735Y5334D01*
X427735Y240157D01*
X427720Y240275D01*
X427713Y240394D01*
X427700Y240432D01*
X427695Y240473D01*
X427652Y240583D01*
X427615Y240696D01*
X427593Y240731D01*
X427578Y240768D01*
X427509Y240864D01*
X427445Y240965D01*
X427415Y240993D01*
X427392Y241026D01*
X427300Y241102D01*
X427213Y241183D01*
X427178Y241203D01*
X427147Y241228D01*
X427039Y241279D01*
X426935Y241337D01*
X426895Y241347D01*
X426859Y241364D01*
X426742Y241386D01*
X426627Y241416D01*
X426567Y241420D01*
X426547Y241424D01*
X426526Y241422D01*
X426466Y241426D01*
X424212Y241426D01*
X421925Y242374D01*
X420834Y243464D01*
X420795Y243495D01*
X420761Y243532D01*
X420669Y243592D01*
X420583Y243659D01*
X420537Y243679D01*
X420496Y243706D01*
X420392Y243742D01*
X420291Y243786D01*
X420242Y243793D01*
X420195Y243810D01*
X420085Y243818D01*
X419977Y243835D01*
X419927Y243831D01*
X419878Y243835D01*
X419770Y243816D01*
X419660Y243806D01*
X419613Y243789D01*
X419564Y243780D01*
X419464Y243735D01*
X419361Y243698D01*
X419320Y243670D01*
X419274Y243650D01*
X419189Y243581D01*
X419098Y243519D01*
X419065Y243482D01*
X419026Y243451D01*
X418960Y243363D01*
X418887Y243281D01*
X418865Y243237D01*
X418835Y243197D01*
X418764Y243053D01*
X416199Y236860D01*
X410840Y231501D01*
X403839Y228601D01*
X396261Y228601D01*
X389260Y231501D01*
X383901Y236860D01*
X381001Y243861D01*
X381001Y251439D01*
X383901Y258440D01*
X389260Y263799D01*
X396261Y266699D01*
X403839Y266699D01*
X410840Y263799D01*
X416199Y258440D01*
X418764Y252247D01*
X418788Y252204D01*
X418805Y252158D01*
X418867Y252067D01*
X418921Y251971D01*
X418956Y251935D01*
X418984Y251894D01*
X419066Y251822D01*
X419143Y251743D01*
X419185Y251717D01*
X419222Y251684D01*
X419320Y251634D01*
X419414Y251577D01*
X419461Y251562D01*
X419506Y251539D01*
X419613Y251515D01*
X419718Y251483D01*
X419767Y251481D01*
X419816Y251470D01*
X419926Y251473D01*
X420035Y251468D01*
X420084Y251478D01*
X420134Y251479D01*
X420239Y251510D01*
X420347Y251532D01*
X420392Y251554D01*
X420439Y251568D01*
X420534Y251623D01*
X420633Y251672D01*
X420670Y251704D01*
X420713Y251729D01*
X420834Y251836D01*
X421925Y252926D01*
X424212Y253874D01*
X426466Y253874D01*
X426584Y253889D01*
X426703Y253896D01*
X426741Y253909D01*
X426782Y253914D01*
X426892Y253957D01*
X427005Y253994D01*
X427040Y254016D01*
X427077Y254031D01*
X427173Y254100D01*
X427274Y254164D01*
X427302Y254194D01*
X427335Y254217D01*
X427411Y254309D01*
X427492Y254396D01*
X427512Y254431D01*
X427537Y254462D01*
X427588Y254570D01*
X427646Y254674D01*
X427656Y254714D01*
X427673Y254750D01*
X427695Y254867D01*
X427725Y254982D01*
X427729Y255042D01*
X427733Y255062D01*
X427731Y255083D01*
X427735Y255143D01*
X427735Y274066D01*
X427720Y274184D01*
X427713Y274303D01*
X427700Y274341D01*
X427695Y274382D01*
X427652Y274492D01*
X427615Y274605D01*
X427593Y274640D01*
X427578Y274677D01*
X427509Y274773D01*
X427445Y274874D01*
X427415Y274902D01*
X427392Y274935D01*
X427300Y275011D01*
X427213Y275092D01*
X427178Y275112D01*
X427147Y275137D01*
X427039Y275188D01*
X426935Y275246D01*
X426895Y275256D01*
X426859Y275273D01*
X426742Y275295D01*
X426627Y275325D01*
X426567Y275329D01*
X426547Y275333D01*
X426526Y275331D01*
X426466Y275335D01*
X259334Y275335D01*
X259216Y275320D01*
X259097Y275313D01*
X259059Y275300D01*
X259018Y275295D01*
X258908Y275252D01*
X258795Y275215D01*
X258760Y275193D01*
X258723Y275178D01*
X258627Y275109D01*
X258526Y275045D01*
X258498Y275015D01*
X258465Y274992D01*
X258389Y274900D01*
X258308Y274813D01*
X258288Y274778D01*
X258263Y274747D01*
X258212Y274639D01*
X258154Y274535D01*
X258144Y274495D01*
X258127Y274459D01*
X258105Y274342D01*
X258075Y274227D01*
X258071Y274167D01*
X258067Y274147D01*
X258069Y274126D01*
X258065Y274066D01*
X258065Y265016D01*
X255684Y262635D01*
X241597Y262635D01*
X241452Y262617D01*
X241307Y262602D01*
X241294Y262597D01*
X241281Y262595D01*
X241146Y262542D01*
X241009Y262491D01*
X240998Y262483D01*
X240985Y262478D01*
X240868Y262393D01*
X240748Y262310D01*
X240739Y262299D01*
X240728Y262292D01*
X240635Y262180D01*
X240540Y262069D01*
X240534Y262057D01*
X240525Y262047D01*
X240463Y261915D01*
X240398Y261784D01*
X240395Y261771D01*
X240390Y261759D01*
X240362Y261617D01*
X240332Y261473D01*
X240332Y261460D01*
X240330Y261447D01*
X240339Y261302D01*
X240345Y261156D01*
X240349Y261142D01*
X240350Y261129D01*
X240394Y260991D01*
X240437Y260851D01*
X240444Y260839D01*
X240448Y260827D01*
X240525Y260704D01*
X240601Y260579D01*
X240611Y260569D01*
X240618Y260558D01*
X240724Y260458D01*
X240828Y260356D01*
X240843Y260346D01*
X240849Y260340D01*
X240864Y260332D01*
X240962Y260267D01*
X243355Y258885D01*
X248480Y252778D01*
X251207Y245286D01*
X251207Y237314D01*
X248480Y229822D01*
X243356Y223715D01*
X236451Y219729D01*
X228600Y218345D01*
X220749Y219729D01*
X213845Y223715D01*
X208720Y229822D01*
X205993Y237314D01*
X205993Y245286D01*
X208720Y252778D01*
X213844Y258885D01*
X216238Y260267D01*
X216354Y260355D01*
X216472Y260440D01*
X216481Y260451D01*
X216491Y260459D01*
X216582Y260573D01*
X216675Y260685D01*
X216681Y260698D01*
X216689Y260708D01*
X216749Y260842D01*
X216810Y260973D01*
X216813Y260986D01*
X216818Y260999D01*
X216843Y261143D01*
X216870Y261286D01*
X216869Y261299D01*
X216872Y261312D01*
X216859Y261458D01*
X216850Y261603D01*
X216846Y261616D01*
X216845Y261629D01*
X216797Y261767D01*
X216752Y261905D01*
X216745Y261917D01*
X216741Y261930D01*
X216660Y262051D01*
X216582Y262174D01*
X216572Y262183D01*
X216565Y262195D01*
X216457Y262292D01*
X216351Y262392D01*
X216339Y262399D01*
X216329Y262408D01*
X216199Y262475D01*
X216072Y262546D01*
X216059Y262549D01*
X216047Y262555D01*
X215905Y262589D01*
X215764Y262625D01*
X215746Y262626D01*
X215737Y262628D01*
X215720Y262628D01*
X215603Y262635D01*
X38397Y262635D01*
X38252Y262617D01*
X38107Y262602D01*
X38094Y262597D01*
X38081Y262595D01*
X37946Y262542D01*
X37809Y262491D01*
X37798Y262483D01*
X37785Y262478D01*
X37668Y262393D01*
X37548Y262310D01*
X37539Y262299D01*
X37528Y262292D01*
X37435Y262180D01*
X37340Y262069D01*
X37334Y262057D01*
X37325Y262047D01*
X37263Y261915D01*
X37198Y261784D01*
X37195Y261771D01*
X37190Y261759D01*
X37162Y261616D01*
X37132Y261473D01*
X37132Y261460D01*
X37130Y261447D01*
X37139Y261302D01*
X37145Y261156D01*
X37149Y261142D01*
X37150Y261129D01*
X37194Y260991D01*
X37237Y260851D01*
X37244Y260839D01*
X37248Y260827D01*
X37325Y260704D01*
X37401Y260579D01*
X37411Y260569D01*
X37418Y260558D01*
X37524Y260458D01*
X37628Y260356D01*
X37643Y260346D01*
X37649Y260340D01*
X37664Y260332D01*
X37762Y260267D01*
X40155Y258885D01*
X45280Y252778D01*
X48007Y245286D01*
X48007Y237314D01*
X45280Y229822D01*
X40156Y223715D01*
X33251Y219729D01*
X25400Y218345D01*
X17549Y219729D01*
X10645Y223715D01*
X6306Y228885D01*
X6280Y228909D01*
X6260Y228938D01*
X6164Y229017D01*
X6073Y229101D01*
X6042Y229118D01*
X6015Y229141D01*
X5902Y229194D01*
X5793Y229253D01*
X5759Y229261D01*
X5727Y229276D01*
X5605Y229299D01*
X5485Y229330D01*
X5449Y229329D01*
X5414Y229336D01*
X5291Y229328D01*
X5167Y229327D01*
X5132Y229318D01*
X5097Y229316D01*
X4979Y229278D01*
X4859Y229246D01*
X4828Y229229D01*
X4795Y229218D01*
X4690Y229152D01*
X4581Y229091D01*
X4556Y229067D01*
X4526Y229048D01*
X4441Y228958D01*
X4351Y228872D01*
X4332Y228842D01*
X4308Y228816D01*
X4248Y228708D01*
X4182Y228603D01*
X4171Y228569D01*
X4154Y228538D01*
X4123Y228418D01*
X4086Y228300D01*
X4084Y228264D01*
X4075Y228230D01*
X4065Y228069D01*
X4065Y214174D01*
X4070Y214135D01*
X4067Y214095D01*
X4090Y213977D01*
X4105Y213859D01*
X4119Y213822D01*
X4127Y213783D01*
X4178Y213674D01*
X4222Y213563D01*
X4245Y213531D01*
X4262Y213495D01*
X4338Y213403D01*
X4408Y213306D01*
X4439Y213280D01*
X4464Y213250D01*
X4561Y213179D01*
X4653Y213103D01*
X4689Y213086D01*
X4722Y213062D01*
X4833Y213018D01*
X4941Y212967D01*
X4980Y212960D01*
X5017Y212945D01*
X5136Y212930D01*
X5253Y212908D01*
X5293Y212910D01*
X5333Y212905D01*
X5452Y212920D01*
X5571Y212927D01*
X5609Y212940D01*
X5648Y212945D01*
X5760Y212988D01*
X5873Y213025D01*
X5907Y213047D01*
X5944Y213061D01*
X6080Y213147D01*
X6443Y213411D01*
X8117Y214264D01*
X9904Y214845D01*
X10161Y214885D01*
X10161Y204470D01*
X10176Y204352D01*
X10183Y204233D01*
X10196Y204195D01*
X10201Y204155D01*
X10244Y204044D01*
X10281Y203931D01*
X10303Y203897D01*
X10318Y203859D01*
X10388Y203763D01*
X10451Y203662D01*
X10481Y203634D01*
X10504Y203602D01*
X10596Y203526D01*
X10683Y203444D01*
X10718Y203425D01*
X10749Y203399D01*
X10857Y203348D01*
X10961Y203291D01*
X11001Y203280D01*
X11037Y203263D01*
X11154Y203241D01*
X11269Y203211D01*
X11330Y203207D01*
X11350Y203203D01*
X11370Y203205D01*
X11430Y203201D01*
X12701Y203201D01*
X12701Y201930D01*
X12716Y201812D01*
X12723Y201693D01*
X12736Y201655D01*
X12741Y201614D01*
X12785Y201504D01*
X12821Y201391D01*
X12843Y201356D01*
X12858Y201319D01*
X12928Y201223D01*
X12991Y201122D01*
X13021Y201094D01*
X13045Y201061D01*
X13136Y200986D01*
X13223Y200904D01*
X13258Y200884D01*
X13290Y200859D01*
X13397Y200808D01*
X13502Y200750D01*
X13541Y200740D01*
X13577Y200723D01*
X13694Y200701D01*
X13809Y200671D01*
X13870Y200667D01*
X13890Y200663D01*
X13910Y200665D01*
X13970Y200661D01*
X24385Y200661D01*
X24345Y200404D01*
X23764Y198617D01*
X22911Y196943D01*
X21806Y195422D01*
X20478Y194094D01*
X18957Y192989D01*
X17283Y192136D01*
X16818Y191985D01*
X16791Y191972D01*
X16762Y191965D01*
X16648Y191905D01*
X16530Y191850D01*
X16507Y191831D01*
X16481Y191817D01*
X16385Y191730D01*
X16285Y191647D01*
X16268Y191623D01*
X16246Y191603D01*
X16174Y191494D01*
X16098Y191390D01*
X16087Y191362D01*
X16071Y191337D01*
X16029Y191214D01*
X15981Y191094D01*
X15977Y191064D01*
X15968Y191036D01*
X15957Y190907D01*
X15941Y190779D01*
X15945Y190749D01*
X15942Y190719D01*
X15965Y190591D01*
X15981Y190463D01*
X15992Y190435D01*
X15997Y190406D01*
X16050Y190288D01*
X16098Y190167D01*
X16115Y190143D01*
X16127Y190116D01*
X16208Y190015D01*
X16284Y189910D01*
X16307Y189891D01*
X16326Y189867D01*
X16430Y189789D01*
X16529Y189707D01*
X16556Y189694D01*
X16580Y189676D01*
X16725Y189605D01*
X19750Y188352D01*
X23252Y184850D01*
X25147Y180276D01*
X25147Y175324D01*
X23322Y170920D01*
X23309Y170872D01*
X23288Y170827D01*
X23267Y170719D01*
X23238Y170613D01*
X23238Y170563D01*
X23228Y170514D01*
X23235Y170405D01*
X23233Y170295D01*
X23245Y170247D01*
X23248Y170197D01*
X23282Y170093D01*
X23307Y169986D01*
X23331Y169942D01*
X23346Y169895D01*
X23405Y169802D01*
X23456Y169705D01*
X23490Y169668D01*
X23516Y169626D01*
X23596Y169551D01*
X23670Y169469D01*
X23712Y169442D01*
X23748Y169408D01*
X23844Y169355D01*
X23936Y169295D01*
X23983Y169278D01*
X24026Y169254D01*
X24133Y169227D01*
X24237Y169191D01*
X24286Y169187D01*
X24334Y169175D01*
X24495Y169165D01*
X90584Y169165D01*
X100245Y159503D01*
X100323Y159443D01*
X100395Y159375D01*
X100448Y159346D01*
X100496Y159309D01*
X100587Y159269D01*
X100674Y159221D01*
X100732Y159206D01*
X100788Y159182D01*
X100886Y159167D01*
X100982Y159142D01*
X101082Y159136D01*
X101102Y159132D01*
X101114Y159134D01*
X101142Y159132D01*
X102939Y159132D01*
X105413Y158107D01*
X107307Y156213D01*
X108332Y153739D01*
X108332Y151061D01*
X107307Y148587D01*
X106036Y147316D01*
X105976Y147238D01*
X105908Y147166D01*
X105879Y147113D01*
X105842Y147065D01*
X105802Y146974D01*
X105754Y146887D01*
X105739Y146829D01*
X105715Y146773D01*
X105700Y146675D01*
X105675Y146580D01*
X105669Y146480D01*
X105665Y146459D01*
X105667Y146447D01*
X105665Y146419D01*
X105665Y82181D01*
X105677Y82083D01*
X105680Y81984D01*
X105697Y81926D01*
X105705Y81866D01*
X105741Y81774D01*
X105769Y81678D01*
X105799Y81626D01*
X105822Y81570D01*
X105880Y81490D01*
X105930Y81404D01*
X105996Y81329D01*
X106008Y81313D01*
X106018Y81305D01*
X106036Y81284D01*
X107307Y80013D01*
X108332Y77539D01*
X108332Y74861D01*
X107307Y72387D01*
X105413Y70493D01*
X102939Y69468D01*
X100261Y69468D01*
X97787Y70493D01*
X95893Y72387D01*
X94868Y74861D01*
X94868Y77539D01*
X95893Y80013D01*
X97164Y81284D01*
X97224Y81362D01*
X97292Y81434D01*
X97321Y81487D01*
X97358Y81535D01*
X97398Y81626D01*
X97446Y81713D01*
X97461Y81771D01*
X97485Y81827D01*
X97500Y81925D01*
X97525Y82020D01*
X97531Y82120D01*
X97535Y82141D01*
X97533Y82153D01*
X97535Y82181D01*
X97535Y136576D01*
X97527Y136645D01*
X97528Y136715D01*
X97507Y136802D01*
X97495Y136891D01*
X97470Y136956D01*
X97453Y137024D01*
X97411Y137103D01*
X97378Y137187D01*
X97337Y137243D01*
X97305Y137305D01*
X97244Y137371D01*
X97192Y137444D01*
X97138Y137489D01*
X97091Y137540D01*
X97016Y137590D01*
X96947Y137647D01*
X96883Y137677D01*
X96825Y137715D01*
X96740Y137744D01*
X96659Y137783D01*
X96590Y137796D01*
X96524Y137818D01*
X96435Y137825D01*
X96347Y137842D01*
X96277Y137838D01*
X96207Y137843D01*
X96119Y137828D01*
X96029Y137823D01*
X95963Y137801D01*
X95894Y137789D01*
X95812Y137752D01*
X95727Y137725D01*
X95668Y137687D01*
X95604Y137659D01*
X95534Y137602D01*
X95458Y137554D01*
X95410Y137503D01*
X95356Y137460D01*
X95302Y137388D01*
X95240Y137323D01*
X95206Y137262D01*
X95164Y137206D01*
X95093Y137061D01*
X94607Y135887D01*
X92713Y133993D01*
X90239Y132968D01*
X87561Y132968D01*
X85087Y133993D01*
X83816Y135264D01*
X83738Y135324D01*
X83666Y135392D01*
X83613Y135421D01*
X83565Y135458D01*
X83474Y135498D01*
X83387Y135546D01*
X83329Y135561D01*
X83273Y135585D01*
X83175Y135600D01*
X83080Y135625D01*
X82980Y135631D01*
X82959Y135635D01*
X82947Y135633D01*
X82919Y135635D01*
X78409Y135635D01*
X78311Y135623D01*
X78212Y135620D01*
X78154Y135603D01*
X78094Y135595D01*
X78002Y135559D01*
X77907Y135531D01*
X77855Y135501D01*
X77798Y135478D01*
X77718Y135420D01*
X77633Y135370D01*
X77557Y135304D01*
X77541Y135292D01*
X77533Y135282D01*
X77512Y135264D01*
X24510Y82261D01*
X24492Y82238D01*
X24469Y82219D01*
X24394Y82113D01*
X24315Y82010D01*
X24303Y81983D01*
X24286Y81959D01*
X24240Y81837D01*
X24188Y81718D01*
X24184Y81689D01*
X24173Y81661D01*
X24159Y81532D01*
X24139Y81404D01*
X24141Y81375D01*
X24138Y81345D01*
X24156Y81217D01*
X24168Y81087D01*
X24178Y81060D01*
X24182Y81030D01*
X24235Y80878D01*
X25147Y78676D01*
X25147Y73724D01*
X23252Y69150D01*
X19750Y65648D01*
X15176Y63753D01*
X10224Y63753D01*
X5820Y65578D01*
X5772Y65591D01*
X5727Y65612D01*
X5619Y65633D01*
X5513Y65662D01*
X5463Y65662D01*
X5414Y65672D01*
X5305Y65665D01*
X5195Y65667D01*
X5147Y65655D01*
X5097Y65652D01*
X4993Y65618D01*
X4886Y65593D01*
X4842Y65569D01*
X4795Y65554D01*
X4702Y65495D01*
X4605Y65444D01*
X4568Y65410D01*
X4526Y65384D01*
X4451Y65304D01*
X4369Y65230D01*
X4342Y65188D01*
X4308Y65152D01*
X4255Y65056D01*
X4195Y64964D01*
X4178Y64917D01*
X4154Y64874D01*
X4127Y64767D01*
X4091Y64663D01*
X4087Y64614D01*
X4075Y64566D01*
X4065Y64405D01*
X4065Y51331D01*
X4069Y51295D01*
X4067Y51260D01*
X4089Y51138D01*
X4105Y51015D01*
X4118Y50982D01*
X4124Y50947D01*
X4176Y50835D01*
X4222Y50719D01*
X4242Y50691D01*
X4257Y50659D01*
X4336Y50562D01*
X4408Y50462D01*
X4436Y50439D01*
X4458Y50412D01*
X4558Y50339D01*
X4653Y50259D01*
X4685Y50244D01*
X4714Y50223D01*
X4829Y50177D01*
X4941Y50124D01*
X4976Y50117D01*
X5009Y50104D01*
X5132Y50087D01*
X5253Y50064D01*
X5289Y50066D01*
X5324Y50061D01*
X5447Y50076D01*
X5571Y50084D01*
X5605Y50095D01*
X5640Y50099D01*
X5756Y50144D01*
X5873Y50182D01*
X5903Y50201D01*
X5936Y50213D01*
X6037Y50286D01*
X6142Y50352D01*
X6166Y50378D01*
X6195Y50398D01*
X6306Y50515D01*
X10644Y55685D01*
X17549Y59671D01*
X25400Y61055D01*
X33251Y59671D01*
X40155Y55685D01*
X42782Y52555D01*
X42859Y52483D01*
X42930Y52406D01*
X42975Y52376D01*
X43015Y52339D01*
X43108Y52289D01*
X43195Y52231D01*
X43247Y52213D01*
X43295Y52187D01*
X43397Y52162D01*
X43496Y52128D01*
X43551Y52124D01*
X43604Y52110D01*
X43709Y52111D01*
X43813Y52103D01*
X43867Y52112D01*
X43922Y52112D01*
X44023Y52139D01*
X44126Y52157D01*
X44176Y52180D01*
X44229Y52193D01*
X44321Y52244D01*
X44416Y52288D01*
X44459Y52322D01*
X44507Y52348D01*
X44583Y52421D01*
X44665Y52486D01*
X44698Y52530D01*
X44737Y52568D01*
X44793Y52656D01*
X44856Y52740D01*
X44895Y52819D01*
X44906Y52837D01*
X44911Y52852D01*
X44927Y52885D01*
X45524Y54325D01*
X47275Y56076D01*
X49562Y57024D01*
X52038Y57024D01*
X54325Y56076D01*
X56076Y54325D01*
X57024Y52038D01*
X57024Y49562D01*
X56076Y47275D01*
X54325Y45524D01*
X52038Y44576D01*
X49562Y44576D01*
X49328Y44673D01*
X49221Y44702D01*
X49116Y44740D01*
X49068Y44744D01*
X49022Y44757D01*
X48910Y44759D01*
X48799Y44769D01*
X48752Y44761D01*
X48704Y44762D01*
X48595Y44736D01*
X48485Y44718D01*
X48441Y44699D01*
X48394Y44688D01*
X48296Y44636D01*
X48194Y44591D01*
X48156Y44562D01*
X48113Y44539D01*
X48031Y44464D01*
X47943Y44396D01*
X47914Y44358D01*
X47878Y44325D01*
X47817Y44232D01*
X47749Y44144D01*
X47730Y44100D01*
X47703Y44060D01*
X47667Y43954D01*
X47623Y43852D01*
X47616Y43804D01*
X47600Y43759D01*
X47591Y43647D01*
X47574Y43537D01*
X47579Y43490D01*
X47575Y43442D01*
X47594Y43332D01*
X47605Y43221D01*
X47625Y43150D01*
X47629Y43128D01*
X47637Y43112D01*
X47650Y43066D01*
X48007Y42086D01*
X48007Y34114D01*
X45280Y26622D01*
X40156Y20515D01*
X37762Y19133D01*
X37646Y19045D01*
X37528Y18960D01*
X37519Y18949D01*
X37509Y18941D01*
X37418Y18827D01*
X37325Y18715D01*
X37319Y18702D01*
X37311Y18692D01*
X37251Y18558D01*
X37190Y18427D01*
X37187Y18414D01*
X37182Y18401D01*
X37157Y18257D01*
X37130Y18114D01*
X37131Y18101D01*
X37128Y18088D01*
X37141Y17942D01*
X37150Y17797D01*
X37154Y17784D01*
X37155Y17771D01*
X37203Y17633D01*
X37248Y17495D01*
X37255Y17483D01*
X37259Y17470D01*
X37340Y17348D01*
X37418Y17226D01*
X37428Y17217D01*
X37435Y17205D01*
X37543Y17108D01*
X37649Y17008D01*
X37661Y17001D01*
X37671Y16992D01*
X37801Y16925D01*
X37928Y16854D01*
X37941Y16851D01*
X37953Y16845D01*
X38095Y16811D01*
X38236Y16775D01*
X38254Y16774D01*
X38263Y16772D01*
X38280Y16772D01*
X38397Y16765D01*
X52121Y16765D01*
X52190Y16773D01*
X52260Y16772D01*
X52347Y16793D01*
X52436Y16805D01*
X52501Y16830D01*
X52569Y16847D01*
X52648Y16889D01*
X52732Y16922D01*
X52788Y16963D01*
X52850Y16995D01*
X52916Y17056D01*
X52989Y17108D01*
X53034Y17162D01*
X53085Y17209D01*
X53135Y17284D01*
X53192Y17353D01*
X53222Y17417D01*
X53260Y17475D01*
X53289Y17560D01*
X53327Y17641D01*
X53341Y17710D01*
X53363Y17776D01*
X53370Y17865D01*
X53387Y17953D01*
X53383Y18023D01*
X53388Y18093D01*
X53373Y18181D01*
X53368Y18271D01*
X53346Y18337D01*
X53334Y18406D01*
X53297Y18488D01*
X53269Y18573D01*
X53232Y18632D01*
X53203Y18696D01*
X53147Y18766D01*
X53099Y18842D01*
X53049Y18890D01*
X53005Y18944D01*
X52933Y18999D01*
X52868Y19060D01*
X52807Y19094D01*
X52751Y19136D01*
X52606Y19207D01*
X51432Y19693D01*
X49538Y21587D01*
X48513Y24061D01*
X48513Y26739D01*
X49538Y29213D01*
X51432Y31107D01*
X53906Y32132D01*
X56584Y32132D01*
X59058Y31107D01*
X60329Y29836D01*
X60407Y29776D01*
X60479Y29708D01*
X60532Y29679D01*
X60580Y29642D01*
X60671Y29602D01*
X60758Y29554D01*
X60816Y29539D01*
X60872Y29515D01*
X60970Y29500D01*
X61065Y29475D01*
X61165Y29469D01*
X61186Y29465D01*
X61198Y29467D01*
X61226Y29465D01*
X68911Y29465D01*
X69009Y29477D01*
X69108Y29480D01*
X69166Y29497D01*
X69226Y29505D01*
X69318Y29541D01*
X69413Y29569D01*
X69465Y29599D01*
X69522Y29622D01*
X69602Y29680D01*
X69687Y29730D01*
X69763Y29796D01*
X69779Y29808D01*
X69787Y29818D01*
X69808Y29836D01*
X119897Y79925D01*
X119957Y80003D01*
X120025Y80075D01*
X120054Y80128D01*
X120091Y80176D01*
X120131Y80267D01*
X120179Y80354D01*
X120194Y80412D01*
X120218Y80468D01*
X120233Y80566D01*
X120258Y80662D01*
X120264Y80762D01*
X120268Y80782D01*
X120266Y80794D01*
X120268Y80822D01*
X120268Y82619D01*
X121293Y85093D01*
X123187Y86987D01*
X125661Y88012D01*
X127458Y88012D01*
X127556Y88024D01*
X127655Y88027D01*
X127713Y88044D01*
X127773Y88052D01*
X127865Y88088D01*
X127960Y88116D01*
X128012Y88146D01*
X128069Y88169D01*
X128149Y88227D01*
X128234Y88277D01*
X128310Y88343D01*
X128326Y88355D01*
X128334Y88365D01*
X128355Y88383D01*
X131666Y91695D01*
X226429Y91695D01*
X226527Y91707D01*
X226626Y91710D01*
X226684Y91727D01*
X226744Y91735D01*
X226836Y91771D01*
X226932Y91799D01*
X226984Y91829D01*
X227040Y91852D01*
X227120Y91910D01*
X227206Y91960D01*
X227281Y92026D01*
X227297Y92038D01*
X227305Y92048D01*
X227326Y92066D01*
X228597Y93337D01*
X231071Y94362D01*
X233749Y94362D01*
X236223Y93337D01*
X238117Y91443D01*
X239142Y88969D01*
X239142Y86291D01*
X238117Y83817D01*
X236223Y81923D01*
X233749Y80898D01*
X231071Y80898D01*
X228597Y81923D01*
X227326Y83194D01*
X227248Y83254D01*
X227176Y83322D01*
X227123Y83351D01*
X227075Y83388D01*
X226984Y83428D01*
X226897Y83476D01*
X226839Y83491D01*
X226783Y83515D01*
X226685Y83530D01*
X226590Y83555D01*
X226490Y83561D01*
X226469Y83565D01*
X226457Y83563D01*
X226429Y83565D01*
X135559Y83565D01*
X135461Y83553D01*
X135362Y83550D01*
X135304Y83533D01*
X135244Y83525D01*
X135152Y83489D01*
X135057Y83461D01*
X135005Y83431D01*
X134948Y83408D01*
X134868Y83350D01*
X134783Y83300D01*
X134707Y83234D01*
X134691Y83222D01*
X134683Y83212D01*
X134662Y83194D01*
X134103Y82635D01*
X134043Y82557D01*
X133975Y82485D01*
X133946Y82432D01*
X133909Y82384D01*
X133869Y82293D01*
X133821Y82206D01*
X133806Y82148D01*
X133782Y82092D01*
X133767Y81994D01*
X133742Y81898D01*
X133736Y81798D01*
X133732Y81778D01*
X133734Y81766D01*
X133732Y81738D01*
X133732Y79941D01*
X132707Y77467D01*
X130813Y75573D01*
X128339Y74548D01*
X126542Y74548D01*
X126444Y74536D01*
X126345Y74533D01*
X126287Y74516D01*
X126227Y74508D01*
X126135Y74472D01*
X126040Y74444D01*
X125988Y74414D01*
X125931Y74391D01*
X125851Y74333D01*
X125766Y74283D01*
X125690Y74217D01*
X125674Y74205D01*
X125666Y74195D01*
X125645Y74177D01*
X72804Y21335D01*
X61226Y21335D01*
X61128Y21323D01*
X61029Y21320D01*
X60971Y21303D01*
X60911Y21295D01*
X60819Y21259D01*
X60723Y21231D01*
X60671Y21201D01*
X60615Y21178D01*
X60535Y21120D01*
X60449Y21070D01*
X60374Y21004D01*
X60358Y20992D01*
X60350Y20982D01*
X60329Y20964D01*
X59058Y19693D01*
X57884Y19207D01*
X57823Y19172D01*
X57758Y19146D01*
X57686Y19094D01*
X57607Y19049D01*
X57557Y19001D01*
X57501Y18960D01*
X57444Y18890D01*
X57379Y18828D01*
X57343Y18768D01*
X57298Y18715D01*
X57260Y18633D01*
X57213Y18557D01*
X57192Y18490D01*
X57163Y18427D01*
X57146Y18339D01*
X57119Y18253D01*
X57116Y18183D01*
X57103Y18114D01*
X57108Y18025D01*
X57104Y17935D01*
X57118Y17867D01*
X57122Y17797D01*
X57150Y17712D01*
X57168Y17624D01*
X57199Y17561D01*
X57221Y17495D01*
X57269Y17419D01*
X57308Y17338D01*
X57353Y17285D01*
X57391Y17226D01*
X57456Y17164D01*
X57514Y17096D01*
X57571Y17056D01*
X57622Y17008D01*
X57701Y16965D01*
X57774Y16913D01*
X57840Y16888D01*
X57901Y16854D01*
X57988Y16832D01*
X58072Y16800D01*
X58141Y16792D01*
X58209Y16775D01*
X58369Y16765D01*
X215603Y16765D01*
X215748Y16783D01*
X215893Y16798D01*
X215906Y16803D01*
X215919Y16805D01*
X216054Y16858D01*
X216191Y16909D01*
X216202Y16917D01*
X216215Y16922D01*
X216332Y17007D01*
X216452Y17090D01*
X216461Y17101D01*
X216472Y17108D01*
X216565Y17220D01*
X216660Y17331D01*
X216666Y17343D01*
X216675Y17353D01*
X216737Y17485D01*
X216802Y17616D01*
X216805Y17629D01*
X216810Y17641D01*
X216838Y17783D01*
X216868Y17927D01*
X216868Y17940D01*
X216870Y17953D01*
X216861Y18098D01*
X216855Y18244D01*
X216851Y18258D01*
X216850Y18271D01*
X216806Y18409D01*
X216763Y18549D01*
X216756Y18561D01*
X216752Y18573D01*
X216675Y18696D01*
X216599Y18821D01*
X216589Y18831D01*
X216582Y18842D01*
X216476Y18942D01*
X216372Y19044D01*
X216357Y19054D01*
X216351Y19060D01*
X216336Y19068D01*
X216238Y19133D01*
X213845Y20515D01*
X208720Y26622D01*
X205993Y34114D01*
X205993Y42086D01*
X208720Y49578D01*
X213844Y55685D01*
X220749Y59671D01*
X228600Y61055D01*
X236451Y59671D01*
X243355Y55685D01*
X248480Y49578D01*
X251207Y42086D01*
X251207Y34114D01*
X248480Y26622D01*
X243356Y20515D01*
X240962Y19133D01*
X240846Y19045D01*
X240728Y18960D01*
X240719Y18949D01*
X240709Y18941D01*
X240618Y18827D01*
X240525Y18715D01*
X240519Y18702D01*
X240511Y18692D01*
X240451Y18558D01*
X240390Y18427D01*
X240387Y18414D01*
X240382Y18401D01*
X240357Y18257D01*
X240330Y18114D01*
X240331Y18101D01*
X240328Y18088D01*
X240341Y17942D01*
X240350Y17797D01*
X240354Y17784D01*
X240355Y17771D01*
X240403Y17633D01*
X240448Y17495D01*
X240455Y17483D01*
X240459Y17470D01*
X240540Y17348D01*
X240618Y17226D01*
X240628Y17217D01*
X240635Y17205D01*
X240743Y17108D01*
X240849Y17008D01*
X240861Y17001D01*
X240871Y16992D01*
X241001Y16925D01*
X241128Y16854D01*
X241141Y16851D01*
X241153Y16845D01*
X241295Y16811D01*
X241436Y16775D01*
X241454Y16774D01*
X241463Y16772D01*
X241480Y16772D01*
X241597Y16765D01*
X255684Y16765D01*
X258065Y14384D01*
X258065Y5334D01*
X258080Y5216D01*
X258087Y5097D01*
X258100Y5059D01*
X258105Y5018D01*
X258148Y4908D01*
X258185Y4795D01*
X258207Y4760D01*
X258222Y4723D01*
X258291Y4627D01*
X258355Y4526D01*
X258385Y4498D01*
X258408Y4465D01*
X258500Y4389D01*
X258587Y4308D01*
X258622Y4288D01*
X258653Y4263D01*
X258761Y4212D01*
X258865Y4154D01*
X258905Y4144D01*
X258941Y4127D01*
X259058Y4105D01*
X259173Y4075D01*
X259233Y4071D01*
X259253Y4067D01*
X259274Y4069D01*
X259334Y4065D01*
X315911Y4065D01*
X316051Y4082D01*
X316191Y4096D01*
X316209Y4102D01*
X316227Y4105D01*
X316358Y4156D01*
X316490Y4204D01*
X316505Y4215D01*
X316523Y4222D01*
X316637Y4304D01*
X316753Y4384D01*
X316765Y4398D01*
X316780Y4408D01*
X316870Y4517D01*
X316963Y4623D01*
X316971Y4639D01*
X316983Y4653D01*
X317043Y4780D01*
X317106Y4906D01*
X317110Y4925D01*
X317118Y4941D01*
X317145Y5079D01*
X317175Y5217D01*
X317175Y5235D01*
X317178Y5253D01*
X317174Y5321D01*
X317175Y5340D01*
X317175Y19547D01*
X318894Y21266D01*
X319303Y21676D01*
X320673Y23046D01*
X322279Y24652D01*
X330962Y24652D01*
X332511Y23102D01*
X333937Y21676D01*
X333938Y21676D01*
X334516Y21097D01*
X336379Y19234D01*
X336489Y19148D01*
X336596Y19060D01*
X336615Y19051D01*
X336631Y19039D01*
X336759Y18983D01*
X336884Y18924D01*
X336904Y18921D01*
X336922Y18912D01*
X337060Y18891D01*
X337196Y18865D01*
X337216Y18866D01*
X337237Y18863D01*
X337376Y18876D01*
X337514Y18884D01*
G37*
%LPC*%
G36*
X137934Y124715D02*
X137934Y124715D01*
X202261Y124715D01*
X202359Y124727D01*
X202458Y124730D01*
X202516Y124747D01*
X202576Y124755D01*
X202668Y124791D01*
X202763Y124819D01*
X202815Y124849D01*
X202872Y124872D01*
X202952Y124930D01*
X203037Y124980D01*
X203113Y125046D01*
X203129Y125058D01*
X203137Y125068D01*
X203158Y125086D01*
X230535Y152464D01*
X230553Y152487D01*
X230576Y152506D01*
X230651Y152612D01*
X230730Y152715D01*
X230742Y152742D01*
X230759Y152766D01*
X230805Y152888D01*
X230857Y153007D01*
X230861Y153036D01*
X230872Y153064D01*
X230886Y153193D01*
X230906Y153321D01*
X230904Y153350D01*
X230907Y153380D01*
X230889Y153508D01*
X230877Y153638D01*
X230867Y153665D01*
X230863Y153695D01*
X230810Y153847D01*
X230123Y155506D01*
X230123Y158184D01*
X231148Y160658D01*
X233042Y162552D01*
X235516Y163577D01*
X238194Y163577D01*
X240668Y162552D01*
X242562Y160658D01*
X243587Y158184D01*
X243587Y155506D01*
X242562Y153032D01*
X241291Y151761D01*
X241231Y151683D01*
X241163Y151611D01*
X241143Y151574D01*
X211116Y121548D01*
X211043Y121453D01*
X210964Y121364D01*
X210946Y121328D01*
X210921Y121296D01*
X210874Y121187D01*
X210820Y121081D01*
X210811Y121042D01*
X210795Y121004D01*
X210776Y120887D01*
X210750Y120771D01*
X210751Y120730D01*
X210745Y120690D01*
X210756Y120572D01*
X210760Y120453D01*
X210771Y120414D01*
X210775Y120374D01*
X210815Y120261D01*
X210848Y120147D01*
X210868Y120113D01*
X210882Y120074D01*
X210949Y119976D01*
X211009Y119873D01*
X211049Y119828D01*
X211061Y119811D01*
X211076Y119798D01*
X211116Y119753D01*
X219625Y111243D01*
X219703Y111183D01*
X219775Y111115D01*
X219828Y111086D01*
X219876Y111049D01*
X219967Y111009D01*
X220054Y110961D01*
X220112Y110946D01*
X220168Y110922D01*
X220266Y110907D01*
X220362Y110882D01*
X220394Y110880D01*
X222888Y109847D01*
X224159Y108576D01*
X224237Y108516D01*
X224309Y108448D01*
X224362Y108419D01*
X224410Y108382D01*
X224501Y108342D01*
X224588Y108294D01*
X224646Y108279D01*
X224702Y108255D01*
X224800Y108240D01*
X224895Y108215D01*
X224995Y108209D01*
X225016Y108205D01*
X225028Y108207D01*
X225056Y108205D01*
X254414Y108205D01*
X320082Y42536D01*
X320160Y42476D01*
X320232Y42408D01*
X320285Y42379D01*
X320333Y42342D01*
X320424Y42302D01*
X320511Y42254D01*
X320569Y42239D01*
X320625Y42215D01*
X320723Y42200D01*
X320819Y42175D01*
X320919Y42169D01*
X320939Y42165D01*
X320951Y42167D01*
X320979Y42165D01*
X351663Y42165D01*
X351781Y42180D01*
X351900Y42187D01*
X351938Y42200D01*
X351979Y42205D01*
X352089Y42248D01*
X352202Y42285D01*
X352237Y42307D01*
X352274Y42322D01*
X352370Y42391D01*
X352471Y42455D01*
X352499Y42485D01*
X352532Y42508D01*
X352608Y42600D01*
X352689Y42687D01*
X352709Y42722D01*
X352734Y42753D01*
X352785Y42861D01*
X352843Y42965D01*
X352853Y43005D01*
X352870Y43041D01*
X352892Y43158D01*
X352922Y43273D01*
X352926Y43333D01*
X352930Y43353D01*
X352928Y43374D01*
X352932Y43434D01*
X352932Y45466D01*
X352917Y45584D01*
X352910Y45703D01*
X352897Y45741D01*
X352892Y45782D01*
X352849Y45892D01*
X352812Y46005D01*
X352790Y46040D01*
X352775Y46077D01*
X352706Y46173D01*
X352642Y46274D01*
X352612Y46302D01*
X352589Y46335D01*
X352497Y46411D01*
X352410Y46492D01*
X352375Y46512D01*
X352344Y46537D01*
X352236Y46588D01*
X352132Y46646D01*
X352092Y46656D01*
X352056Y46673D01*
X351939Y46695D01*
X351824Y46725D01*
X351764Y46729D01*
X351744Y46733D01*
X351723Y46731D01*
X351663Y46735D01*
X341216Y46735D01*
X332485Y55466D01*
X332485Y82185D01*
X332479Y82234D01*
X332481Y82284D01*
X332459Y82391D01*
X332445Y82501D01*
X332427Y82547D01*
X332417Y82595D01*
X332369Y82694D01*
X332328Y82796D01*
X332299Y82836D01*
X332277Y82881D01*
X332206Y82965D01*
X332142Y83054D01*
X332103Y83085D01*
X332071Y83123D01*
X331981Y83186D01*
X331897Y83256D01*
X331852Y83278D01*
X331811Y83306D01*
X331708Y83345D01*
X331609Y83392D01*
X331560Y83401D01*
X331514Y83419D01*
X331404Y83431D01*
X331297Y83452D01*
X331247Y83449D01*
X331198Y83454D01*
X331089Y83439D01*
X330979Y83432D01*
X330932Y83417D01*
X330883Y83410D01*
X330730Y83358D01*
X326326Y81533D01*
X321374Y81533D01*
X316800Y83428D01*
X313284Y86944D01*
X313278Y86957D01*
X313226Y87030D01*
X313181Y87108D01*
X313133Y87158D01*
X313092Y87215D01*
X313022Y87272D01*
X312960Y87336D01*
X312900Y87373D01*
X312847Y87418D01*
X312765Y87456D01*
X312689Y87503D01*
X312622Y87523D01*
X312559Y87553D01*
X312471Y87570D01*
X312385Y87596D01*
X312315Y87600D01*
X312246Y87613D01*
X312157Y87607D01*
X312067Y87612D01*
X311999Y87597D01*
X311929Y87593D01*
X311844Y87565D01*
X311756Y87547D01*
X311693Y87517D01*
X311627Y87495D01*
X311551Y87447D01*
X311470Y87408D01*
X311417Y87362D01*
X311358Y87325D01*
X311296Y87260D01*
X311228Y87201D01*
X311188Y87144D01*
X311140Y87093D01*
X311097Y87015D01*
X311045Y86941D01*
X311020Y86876D01*
X310986Y86815D01*
X310964Y86728D01*
X310932Y86644D01*
X310924Y86574D01*
X310907Y86507D01*
X310897Y86346D01*
X310897Y83319D01*
X309111Y81533D01*
X287789Y81533D01*
X286003Y83319D01*
X286003Y104641D01*
X287789Y106427D01*
X293116Y106427D01*
X293234Y106442D01*
X293353Y106449D01*
X293391Y106462D01*
X293432Y106467D01*
X293542Y106510D01*
X293655Y106547D01*
X293690Y106569D01*
X293727Y106584D01*
X293823Y106653D01*
X293924Y106717D01*
X293952Y106747D01*
X293985Y106770D01*
X294061Y106862D01*
X294142Y106949D01*
X294162Y106984D01*
X294187Y107015D01*
X294238Y107123D01*
X294296Y107227D01*
X294306Y107267D01*
X294323Y107303D01*
X294345Y107420D01*
X294375Y107535D01*
X294379Y107595D01*
X294383Y107615D01*
X294381Y107636D01*
X294385Y107696D01*
X294385Y134399D01*
X303944Y143957D01*
X305571Y145584D01*
X305614Y145639D01*
X305664Y145688D01*
X305711Y145765D01*
X305766Y145835D01*
X305794Y145900D01*
X305830Y145959D01*
X305856Y146045D01*
X305892Y146127D01*
X305903Y146196D01*
X305924Y146263D01*
X305928Y146352D01*
X305942Y146441D01*
X305935Y146511D01*
X305939Y146581D01*
X305921Y146668D01*
X305912Y146758D01*
X305889Y146824D01*
X305874Y146892D01*
X305835Y146973D01*
X305805Y147057D01*
X305765Y147115D01*
X305735Y147178D01*
X305676Y147246D01*
X305626Y147320D01*
X305574Y147367D01*
X305528Y147420D01*
X305455Y147472D01*
X305388Y147531D01*
X305325Y147563D01*
X305268Y147603D01*
X305184Y147635D01*
X305104Y147676D01*
X305036Y147691D01*
X304971Y147716D01*
X304882Y147726D01*
X304794Y147745D01*
X304724Y147743D01*
X304655Y147751D01*
X304566Y147738D01*
X304476Y147736D01*
X304409Y147716D01*
X304340Y147706D01*
X304188Y147654D01*
X300926Y146303D01*
X295974Y146303D01*
X293772Y147215D01*
X293744Y147223D01*
X293717Y147237D01*
X293590Y147265D01*
X293465Y147299D01*
X293436Y147300D01*
X293407Y147306D01*
X293277Y147302D01*
X293147Y147304D01*
X293119Y147298D01*
X293089Y147297D01*
X292964Y147261D01*
X292838Y147230D01*
X292812Y147216D01*
X292784Y147208D01*
X292672Y147142D01*
X292557Y147082D01*
X292535Y147062D01*
X292510Y147047D01*
X292389Y146940D01*
X288232Y142784D01*
X288214Y142760D01*
X288192Y142741D01*
X288117Y142635D01*
X288037Y142532D01*
X288025Y142505D01*
X288008Y142481D01*
X287962Y142360D01*
X287911Y142241D01*
X287906Y142211D01*
X287896Y142184D01*
X287881Y142055D01*
X287861Y141926D01*
X287864Y141897D01*
X287860Y141868D01*
X287879Y141739D01*
X287891Y141610D01*
X287901Y141582D01*
X287905Y141553D01*
X287957Y141400D01*
X288646Y139737D01*
X288646Y137059D01*
X287621Y134585D01*
X285727Y132691D01*
X283253Y131666D01*
X280575Y131666D01*
X278101Y132691D01*
X276207Y134585D01*
X275183Y137059D01*
X275183Y139737D01*
X276207Y142211D01*
X277478Y143482D01*
X277538Y143560D01*
X277606Y143632D01*
X277634Y143683D01*
X286640Y152689D01*
X286658Y152712D01*
X286681Y152731D01*
X286756Y152837D01*
X286835Y152940D01*
X286847Y152967D01*
X286864Y152991D01*
X286910Y153113D01*
X286962Y153232D01*
X286966Y153261D01*
X286977Y153289D01*
X286991Y153418D01*
X287011Y153546D01*
X287009Y153575D01*
X287012Y153605D01*
X286994Y153733D01*
X286982Y153863D01*
X286972Y153890D01*
X286968Y153920D01*
X286915Y154072D01*
X286003Y156274D01*
X286003Y161226D01*
X287898Y165800D01*
X291400Y169302D01*
X295974Y171197D01*
X300926Y171197D01*
X305500Y169302D01*
X309002Y165800D01*
X309977Y163445D01*
X310046Y163325D01*
X310111Y163202D01*
X310125Y163187D01*
X310135Y163169D01*
X310232Y163069D01*
X310325Y162966D01*
X310342Y162955D01*
X310356Y162941D01*
X310474Y162868D01*
X310591Y162792D01*
X310610Y162785D01*
X310627Y162774D01*
X310760Y162734D01*
X310892Y162688D01*
X310912Y162687D01*
X310931Y162681D01*
X311070Y162674D01*
X311209Y162663D01*
X311229Y162667D01*
X311249Y162666D01*
X311385Y162694D01*
X311522Y162718D01*
X311541Y162726D01*
X311560Y162730D01*
X311685Y162791D01*
X311812Y162848D01*
X311828Y162861D01*
X311846Y162870D01*
X311952Y162960D01*
X312060Y163047D01*
X312073Y163063D01*
X312088Y163076D01*
X312168Y163190D01*
X312252Y163301D01*
X312264Y163326D01*
X312271Y163336D01*
X312278Y163355D01*
X312323Y163445D01*
X313298Y165800D01*
X316800Y169302D01*
X321374Y171197D01*
X326326Y171197D01*
X330900Y169302D01*
X334402Y165800D01*
X335377Y163445D01*
X335446Y163325D01*
X335511Y163202D01*
X335525Y163187D01*
X335535Y163169D01*
X335632Y163069D01*
X335725Y162966D01*
X335742Y162955D01*
X335756Y162941D01*
X335874Y162868D01*
X335991Y162792D01*
X336010Y162785D01*
X336027Y162774D01*
X336160Y162734D01*
X336292Y162688D01*
X336312Y162687D01*
X336331Y162681D01*
X336470Y162674D01*
X336609Y162663D01*
X336629Y162667D01*
X336649Y162666D01*
X336785Y162694D01*
X336922Y162718D01*
X336941Y162726D01*
X336960Y162730D01*
X337085Y162791D01*
X337212Y162848D01*
X337228Y162861D01*
X337246Y162870D01*
X337352Y162960D01*
X337460Y163047D01*
X337473Y163063D01*
X337488Y163076D01*
X337568Y163190D01*
X337652Y163301D01*
X337664Y163326D01*
X337671Y163336D01*
X337678Y163355D01*
X337723Y163445D01*
X338698Y165800D01*
X342200Y169302D01*
X344910Y170424D01*
X344935Y170439D01*
X344963Y170448D01*
X345034Y170493D01*
X345035Y170493D01*
X345038Y170495D01*
X345073Y170518D01*
X345186Y170582D01*
X345207Y170603D01*
X345232Y170618D01*
X345286Y170675D01*
X345293Y170680D01*
X345309Y170700D01*
X345321Y170713D01*
X345414Y170803D01*
X345430Y170828D01*
X345450Y170850D01*
X345484Y170911D01*
X345495Y170925D01*
X345516Y170969D01*
X345581Y171074D01*
X345589Y171103D01*
X345604Y171128D01*
X345619Y171187D01*
X345631Y171213D01*
X345643Y171278D01*
X345674Y171378D01*
X345676Y171408D01*
X345683Y171436D01*
X345688Y171510D01*
X345691Y171525D01*
X345690Y171541D01*
X345693Y171597D01*
X345693Y172627D01*
X345676Y172765D01*
X345663Y172903D01*
X345656Y172922D01*
X345653Y172942D01*
X345602Y173072D01*
X345555Y173203D01*
X345544Y173219D01*
X345536Y173238D01*
X345455Y173350D01*
X345377Y173466D01*
X345361Y173479D01*
X345350Y173495D01*
X345242Y173584D01*
X345138Y173676D01*
X345120Y173685D01*
X345105Y173698D01*
X344979Y173757D01*
X344855Y173821D01*
X344835Y173825D01*
X344817Y173834D01*
X344681Y173860D01*
X344544Y173890D01*
X344524Y173890D01*
X344505Y173893D01*
X344366Y173885D01*
X344227Y173881D01*
X344207Y173875D01*
X344187Y173874D01*
X344055Y173831D01*
X343921Y173792D01*
X343904Y173782D01*
X343885Y173776D01*
X343767Y173701D01*
X343647Y173630D01*
X343626Y173612D01*
X343616Y173605D01*
X343614Y173604D01*
X339026Y171703D01*
X334074Y171703D01*
X329500Y173598D01*
X325998Y177100D01*
X325023Y179455D01*
X324954Y179575D01*
X324889Y179698D01*
X324875Y179713D01*
X324865Y179731D01*
X324768Y179831D01*
X324675Y179934D01*
X324658Y179945D01*
X324644Y179959D01*
X324525Y180032D01*
X324409Y180108D01*
X324390Y180115D01*
X324373Y180126D01*
X324240Y180166D01*
X324108Y180212D01*
X324088Y180213D01*
X324069Y180219D01*
X323930Y180226D01*
X323791Y180237D01*
X323771Y180233D01*
X323751Y180234D01*
X323615Y180206D01*
X323478Y180182D01*
X323459Y180174D01*
X323440Y180170D01*
X323314Y180109D01*
X323188Y180052D01*
X323172Y180039D01*
X323154Y180030D01*
X323048Y179940D01*
X322940Y179853D01*
X322927Y179837D01*
X322912Y179824D01*
X322832Y179710D01*
X322748Y179599D01*
X322736Y179574D01*
X322729Y179564D01*
X322722Y179545D01*
X322677Y179455D01*
X321702Y177100D01*
X318200Y173598D01*
X313626Y171703D01*
X308674Y171703D01*
X304100Y173598D01*
X300598Y177100D01*
X298703Y181674D01*
X298703Y186626D01*
X300598Y191200D01*
X304100Y194702D01*
X308674Y196597D01*
X313626Y196597D01*
X318200Y194702D01*
X321702Y191200D01*
X322677Y188845D01*
X322746Y188725D01*
X322811Y188602D01*
X322825Y188587D01*
X322835Y188569D01*
X322932Y188469D01*
X323025Y188366D01*
X323042Y188355D01*
X323056Y188341D01*
X323174Y188268D01*
X323291Y188192D01*
X323310Y188185D01*
X323327Y188174D01*
X323460Y188134D01*
X323592Y188088D01*
X323612Y188087D01*
X323631Y188081D01*
X323770Y188074D01*
X323909Y188063D01*
X323929Y188067D01*
X323949Y188066D01*
X324085Y188094D01*
X324222Y188118D01*
X324241Y188126D01*
X324260Y188130D01*
X324385Y188191D01*
X324512Y188248D01*
X324528Y188261D01*
X324546Y188270D01*
X324652Y188360D01*
X324760Y188447D01*
X324773Y188463D01*
X324788Y188476D01*
X324868Y188590D01*
X324952Y188701D01*
X324964Y188726D01*
X324971Y188736D01*
X324978Y188755D01*
X325023Y188845D01*
X325998Y191200D01*
X329500Y194702D01*
X331702Y195614D01*
X331727Y195629D01*
X331755Y195638D01*
X331865Y195707D01*
X331978Y195772D01*
X331999Y195792D01*
X332024Y195808D01*
X332113Y195902D01*
X332206Y195993D01*
X332222Y196018D01*
X332242Y196040D01*
X332305Y196153D01*
X332373Y196264D01*
X332381Y196292D01*
X332396Y196318D01*
X332428Y196444D01*
X332466Y196568D01*
X332468Y196597D01*
X332475Y196626D01*
X332485Y196787D01*
X332485Y198534D01*
X335238Y201286D01*
X341216Y207265D01*
X352535Y207265D01*
X352666Y207281D01*
X352798Y207292D01*
X352824Y207301D01*
X352850Y207305D01*
X352974Y207353D01*
X353099Y207397D01*
X353121Y207412D01*
X353146Y207422D01*
X353253Y207499D01*
X353364Y207573D01*
X353382Y207593D01*
X353403Y207608D01*
X353488Y207710D01*
X353576Y207809D01*
X353589Y207833D01*
X353606Y207853D01*
X353663Y207973D01*
X353724Y208091D01*
X353730Y208117D01*
X353742Y208141D01*
X353767Y208271D01*
X353797Y208400D01*
X353796Y208427D01*
X353801Y208453D01*
X353793Y208585D01*
X353791Y208718D01*
X353783Y208744D01*
X353782Y208771D01*
X353741Y208897D01*
X353705Y209024D01*
X353688Y209059D01*
X353684Y209073D01*
X353672Y209092D01*
X353634Y209169D01*
X353613Y209204D01*
X353440Y209850D01*
X353440Y214885D01*
X358902Y214885D01*
X359020Y214900D01*
X359139Y214907D01*
X359177Y214919D01*
X359217Y214925D01*
X359328Y214968D01*
X359441Y215005D01*
X359475Y215027D01*
X359513Y215042D01*
X359609Y215111D01*
X359710Y215175D01*
X359735Y215202D01*
X366332Y215202D01*
X366350Y215214D01*
X366373Y215218D01*
X366380Y215233D01*
X366389Y215239D01*
X366387Y215249D01*
X366394Y215265D01*
X366394Y217805D01*
X366382Y217824D01*
X366379Y217846D01*
X366363Y217853D01*
X366357Y217862D01*
X366347Y217861D01*
X366332Y217868D01*
X360933Y217868D01*
X360933Y225426D01*
X362919Y225426D01*
X363556Y225255D01*
X363661Y225241D01*
X363764Y225218D01*
X363818Y225219D01*
X363871Y225212D01*
X363976Y225224D01*
X364082Y225227D01*
X364134Y225242D01*
X364187Y225248D01*
X364286Y225286D01*
X364387Y225316D01*
X364434Y225343D01*
X364484Y225362D01*
X364570Y225424D01*
X364661Y225477D01*
X364725Y225534D01*
X364743Y225546D01*
X364753Y225558D01*
X364782Y225584D01*
X365132Y225934D01*
X373584Y225934D01*
X373721Y225951D01*
X373860Y225964D01*
X373879Y225971D01*
X373899Y225974D01*
X374028Y226025D01*
X374159Y226072D01*
X374176Y226083D01*
X374195Y226091D01*
X374307Y226172D01*
X374422Y226250D01*
X374436Y226266D01*
X374452Y226277D01*
X374541Y226385D01*
X374633Y226489D01*
X374642Y226507D01*
X374655Y226522D01*
X374714Y226648D01*
X374777Y226772D01*
X374782Y226792D01*
X374791Y226810D01*
X374817Y226946D01*
X374847Y227082D01*
X374847Y227103D01*
X374850Y227122D01*
X374842Y227261D01*
X374837Y227400D01*
X374832Y227420D01*
X374831Y227440D01*
X374788Y227572D01*
X374749Y227706D01*
X374739Y227723D01*
X374733Y227742D01*
X374658Y227860D01*
X374588Y227980D01*
X374569Y228001D01*
X374562Y228011D01*
X374547Y228025D01*
X374481Y228100D01*
X370417Y232165D01*
X370339Y232225D01*
X370267Y232293D01*
X370214Y232322D01*
X370166Y232359D01*
X370075Y232399D01*
X369988Y232447D01*
X369930Y232462D01*
X369874Y232486D01*
X369776Y232501D01*
X369680Y232526D01*
X369580Y232532D01*
X369560Y232536D01*
X369548Y232534D01*
X369520Y232536D01*
X365001Y232536D01*
X364921Y232577D01*
X364881Y232586D01*
X364844Y232602D01*
X364727Y232621D01*
X364610Y232647D01*
X364570Y232646D01*
X364530Y232652D01*
X364412Y232641D01*
X364293Y232637D01*
X364254Y232626D01*
X364214Y232622D01*
X364101Y232582D01*
X363987Y232549D01*
X363966Y232536D01*
X354718Y232536D01*
X352932Y234322D01*
X352932Y236601D01*
X352917Y236719D01*
X352910Y236838D01*
X352897Y236876D01*
X352892Y236917D01*
X352849Y237027D01*
X352812Y237140D01*
X352790Y237175D01*
X352775Y237212D01*
X352706Y237308D01*
X352642Y237409D01*
X352612Y237437D01*
X352589Y237470D01*
X352497Y237546D01*
X352410Y237627D01*
X352375Y237647D01*
X352344Y237672D01*
X352236Y237723D01*
X352132Y237781D01*
X352092Y237791D01*
X352056Y237808D01*
X351939Y237830D01*
X351824Y237860D01*
X351764Y237864D01*
X351744Y237868D01*
X351723Y237866D01*
X351663Y237870D01*
X345071Y237870D01*
X344973Y237858D01*
X344874Y237855D01*
X344816Y237838D01*
X344756Y237830D01*
X344664Y237794D01*
X344568Y237766D01*
X344516Y237736D01*
X344460Y237713D01*
X344380Y237655D01*
X344294Y237605D01*
X344219Y237539D01*
X344203Y237527D01*
X344195Y237517D01*
X344174Y237499D01*
X342903Y236228D01*
X340429Y235203D01*
X337751Y235203D01*
X335277Y236228D01*
X333383Y238122D01*
X332358Y240596D01*
X332358Y243274D01*
X333383Y245748D01*
X335277Y247642D01*
X337751Y248667D01*
X340429Y248667D01*
X342903Y247642D01*
X344174Y246371D01*
X344252Y246311D01*
X344324Y246243D01*
X344377Y246214D01*
X344425Y246177D01*
X344516Y246137D01*
X344603Y246089D01*
X344661Y246074D01*
X344717Y246050D01*
X344815Y246035D01*
X344910Y246010D01*
X345010Y246004D01*
X345031Y246000D01*
X345043Y246002D01*
X345071Y246000D01*
X351663Y246000D01*
X351781Y246015D01*
X351900Y246022D01*
X351938Y246035D01*
X351979Y246040D01*
X352089Y246083D01*
X352202Y246120D01*
X352237Y246142D01*
X352274Y246157D01*
X352370Y246226D01*
X352471Y246290D01*
X352499Y246320D01*
X352532Y246343D01*
X352608Y246435D01*
X352689Y246522D01*
X352709Y246557D01*
X352734Y246588D01*
X352785Y246696D01*
X352843Y246800D01*
X352853Y246840D01*
X352870Y246876D01*
X352892Y246993D01*
X352922Y247108D01*
X352926Y247168D01*
X352930Y247188D01*
X352928Y247209D01*
X352932Y247269D01*
X352932Y249548D01*
X354718Y251334D01*
X363979Y251334D01*
X364059Y251293D01*
X364098Y251284D01*
X364135Y251268D01*
X364253Y251249D01*
X364369Y251223D01*
X364410Y251224D01*
X364450Y251218D01*
X364568Y251229D01*
X364687Y251233D01*
X364726Y251244D01*
X364766Y251248D01*
X364878Y251288D01*
X364993Y251321D01*
X365014Y251334D01*
X374262Y251334D01*
X376048Y249548D01*
X376048Y238556D01*
X376060Y238458D01*
X376063Y238359D01*
X376080Y238301D01*
X376088Y238241D01*
X376124Y238149D01*
X376152Y238054D01*
X376182Y238002D01*
X376205Y237945D01*
X376263Y237865D01*
X376313Y237780D01*
X376379Y237704D01*
X376391Y237688D01*
X376401Y237680D01*
X376419Y237659D01*
X385065Y229014D01*
X385065Y205961D01*
X382312Y203209D01*
X377867Y198763D01*
X377782Y198654D01*
X377693Y198547D01*
X377684Y198528D01*
X377672Y198512D01*
X377616Y198384D01*
X377557Y198259D01*
X377554Y198239D01*
X377546Y198220D01*
X377524Y198082D01*
X377498Y197946D01*
X377499Y197926D01*
X377496Y197906D01*
X377509Y197767D01*
X377517Y197629D01*
X377524Y197610D01*
X377526Y197590D01*
X377573Y197458D01*
X377615Y197327D01*
X377626Y197309D01*
X377633Y197290D01*
X377711Y197175D01*
X377786Y197058D01*
X377800Y197044D01*
X377812Y197027D01*
X377916Y196935D01*
X378017Y196840D01*
X378035Y196830D01*
X378050Y196817D01*
X378174Y196753D01*
X378296Y196686D01*
X378315Y196681D01*
X378333Y196672D01*
X378469Y196642D01*
X378604Y196607D01*
X378632Y196605D01*
X378644Y196602D01*
X378664Y196603D01*
X378764Y196597D01*
X398011Y196597D01*
X399797Y194811D01*
X399797Y173489D01*
X398011Y171703D01*
X382284Y171703D01*
X382215Y171695D01*
X382145Y171696D01*
X382057Y171675D01*
X381968Y171663D01*
X381903Y171638D01*
X381835Y171621D01*
X381756Y171579D01*
X381673Y171546D01*
X381616Y171505D01*
X381554Y171473D01*
X381488Y171412D01*
X381415Y171360D01*
X381371Y171306D01*
X381319Y171259D01*
X381270Y171184D01*
X381212Y171115D01*
X381183Y171051D01*
X381144Y170993D01*
X381115Y170908D01*
X381077Y170827D01*
X381064Y170758D01*
X381041Y170692D01*
X381034Y170603D01*
X381017Y170515D01*
X381022Y170445D01*
X381016Y170375D01*
X381031Y170287D01*
X381037Y170197D01*
X381058Y170131D01*
X381070Y170062D01*
X381107Y169980D01*
X381135Y169895D01*
X381172Y169836D01*
X381201Y169772D01*
X381257Y169702D01*
X381305Y169626D01*
X381356Y169578D01*
X381400Y169523D01*
X381471Y169470D01*
X381537Y169408D01*
X381598Y169374D01*
X381654Y169332D01*
X381686Y169316D01*
X385202Y165800D01*
X387097Y161226D01*
X387097Y156274D01*
X385202Y151700D01*
X381700Y148198D01*
X377126Y146303D01*
X372174Y146303D01*
X369972Y147215D01*
X369944Y147223D01*
X369917Y147237D01*
X369790Y147265D01*
X369665Y147299D01*
X369636Y147300D01*
X369607Y147306D01*
X369477Y147302D01*
X369347Y147304D01*
X369319Y147298D01*
X369289Y147297D01*
X369164Y147261D01*
X369038Y147230D01*
X369012Y147216D01*
X368984Y147208D01*
X368872Y147142D01*
X368757Y147082D01*
X368735Y147062D01*
X368710Y147047D01*
X368589Y146940D01*
X366026Y144377D01*
X363782Y144377D01*
X363684Y144365D01*
X363585Y144362D01*
X363527Y144345D01*
X363466Y144338D01*
X363374Y144301D01*
X363279Y144274D01*
X363227Y144243D01*
X363171Y144221D01*
X363091Y144162D01*
X363005Y144112D01*
X362930Y144046D01*
X362913Y144034D01*
X362906Y144024D01*
X362884Y144006D01*
X353649Y134771D01*
X312168Y134771D01*
X312070Y134758D01*
X311971Y134755D01*
X311912Y134738D01*
X311852Y134731D01*
X311760Y134694D01*
X311665Y134667D01*
X311613Y134636D01*
X311557Y134614D01*
X311477Y134556D01*
X311391Y134505D01*
X311316Y134439D01*
X311299Y134427D01*
X311292Y134417D01*
X311270Y134399D01*
X310865Y133994D01*
X310780Y133884D01*
X310691Y133777D01*
X310683Y133758D01*
X310670Y133742D01*
X310615Y133615D01*
X310556Y133489D01*
X310552Y133469D01*
X310544Y133450D01*
X310522Y133313D01*
X310496Y133176D01*
X310497Y133156D01*
X310494Y133136D01*
X310507Y132997D01*
X310516Y132859D01*
X310522Y132840D01*
X310524Y132820D01*
X310571Y132688D01*
X310614Y132557D01*
X310624Y132540D01*
X310631Y132520D01*
X310710Y132405D01*
X310784Y132288D01*
X310799Y132274D01*
X310810Y132257D01*
X310914Y132165D01*
X311015Y132070D01*
X311033Y132060D01*
X311048Y132047D01*
X311172Y131983D01*
X311294Y131916D01*
X311313Y131911D01*
X311332Y131902D01*
X311468Y131872D01*
X311602Y131837D01*
X311630Y131835D01*
X311642Y131832D01*
X311662Y131833D01*
X311763Y131827D01*
X313626Y131827D01*
X318200Y129932D01*
X321702Y126430D01*
X322677Y124075D01*
X322746Y123955D01*
X322811Y123832D01*
X322825Y123817D01*
X322835Y123799D01*
X322932Y123699D01*
X323025Y123596D01*
X323042Y123585D01*
X323056Y123571D01*
X323175Y123498D01*
X323291Y123422D01*
X323310Y123415D01*
X323327Y123404D01*
X323460Y123363D01*
X323592Y123318D01*
X323612Y123317D01*
X323631Y123311D01*
X323770Y123304D01*
X323909Y123293D01*
X323929Y123297D01*
X323949Y123296D01*
X324085Y123324D01*
X324222Y123348D01*
X324241Y123356D01*
X324260Y123360D01*
X324386Y123421D01*
X324512Y123478D01*
X324528Y123491D01*
X324546Y123500D01*
X324652Y123590D01*
X324760Y123677D01*
X324773Y123693D01*
X324788Y123706D01*
X324868Y123820D01*
X324952Y123931D01*
X324964Y123956D01*
X324971Y123966D01*
X324978Y123985D01*
X325023Y124075D01*
X325998Y126431D01*
X329500Y129932D01*
X334074Y131827D01*
X339026Y131827D01*
X343600Y129932D01*
X347102Y126430D01*
X348077Y124075D01*
X348146Y123955D01*
X348211Y123832D01*
X348225Y123817D01*
X348235Y123799D01*
X348332Y123699D01*
X348425Y123596D01*
X348442Y123585D01*
X348456Y123571D01*
X348575Y123498D01*
X348691Y123422D01*
X348710Y123415D01*
X348727Y123404D01*
X348860Y123363D01*
X348992Y123318D01*
X349012Y123317D01*
X349031Y123311D01*
X349170Y123304D01*
X349309Y123293D01*
X349329Y123297D01*
X349349Y123296D01*
X349485Y123324D01*
X349622Y123348D01*
X349641Y123356D01*
X349660Y123360D01*
X349786Y123421D01*
X349912Y123478D01*
X349928Y123491D01*
X349946Y123500D01*
X350052Y123590D01*
X350160Y123677D01*
X350173Y123693D01*
X350188Y123706D01*
X350268Y123820D01*
X350352Y123931D01*
X350364Y123956D01*
X350371Y123966D01*
X350378Y123985D01*
X350423Y124075D01*
X351398Y126431D01*
X354900Y129932D01*
X359474Y131827D01*
X364426Y131827D01*
X369000Y129932D01*
X372502Y126430D01*
X373477Y124075D01*
X373546Y123955D01*
X373611Y123832D01*
X373625Y123817D01*
X373635Y123799D01*
X373732Y123699D01*
X373825Y123596D01*
X373842Y123585D01*
X373856Y123571D01*
X373975Y123498D01*
X374091Y123422D01*
X374110Y123415D01*
X374127Y123404D01*
X374260Y123363D01*
X374392Y123318D01*
X374412Y123317D01*
X374431Y123311D01*
X374570Y123304D01*
X374709Y123293D01*
X374729Y123297D01*
X374749Y123296D01*
X374885Y123324D01*
X375022Y123348D01*
X375041Y123356D01*
X375060Y123360D01*
X375186Y123421D01*
X375312Y123478D01*
X375328Y123491D01*
X375346Y123500D01*
X375452Y123590D01*
X375560Y123677D01*
X375573Y123693D01*
X375588Y123706D01*
X375668Y123820D01*
X375752Y123931D01*
X375764Y123956D01*
X375771Y123966D01*
X375778Y123985D01*
X375823Y124075D01*
X376798Y126431D01*
X380300Y129932D01*
X384874Y131827D01*
X389826Y131827D01*
X394400Y129932D01*
X397902Y126430D01*
X399797Y121856D01*
X399797Y116904D01*
X397902Y112330D01*
X394400Y108828D01*
X389826Y106933D01*
X384874Y106933D01*
X380300Y108828D01*
X376798Y112329D01*
X375823Y114685D01*
X375754Y114806D01*
X375689Y114928D01*
X375675Y114943D01*
X375665Y114961D01*
X375568Y115061D01*
X375475Y115164D01*
X375458Y115175D01*
X375444Y115189D01*
X375326Y115262D01*
X375209Y115338D01*
X375190Y115345D01*
X375173Y115356D01*
X375040Y115396D01*
X374908Y115442D01*
X374888Y115443D01*
X374869Y115449D01*
X374730Y115456D01*
X374591Y115467D01*
X374571Y115463D01*
X374551Y115464D01*
X374415Y115436D01*
X374278Y115412D01*
X374259Y115404D01*
X374240Y115400D01*
X374115Y115339D01*
X373988Y115282D01*
X373972Y115269D01*
X373954Y115260D01*
X373848Y115170D01*
X373740Y115083D01*
X373727Y115067D01*
X373712Y115054D01*
X373632Y114940D01*
X373548Y114829D01*
X373536Y114804D01*
X373529Y114794D01*
X373522Y114775D01*
X373477Y114685D01*
X372502Y112330D01*
X369000Y108828D01*
X364426Y106933D01*
X359474Y106933D01*
X354900Y108828D01*
X351398Y112329D01*
X350423Y114685D01*
X350354Y114806D01*
X350289Y114928D01*
X350275Y114943D01*
X350265Y114961D01*
X350168Y115061D01*
X350075Y115164D01*
X350058Y115175D01*
X350044Y115189D01*
X349926Y115262D01*
X349809Y115338D01*
X349790Y115345D01*
X349773Y115356D01*
X349640Y115396D01*
X349508Y115442D01*
X349488Y115443D01*
X349469Y115449D01*
X349330Y115456D01*
X349191Y115467D01*
X349171Y115463D01*
X349151Y115464D01*
X349015Y115436D01*
X348878Y115412D01*
X348859Y115404D01*
X348840Y115400D01*
X348715Y115339D01*
X348588Y115282D01*
X348572Y115269D01*
X348554Y115260D01*
X348448Y115170D01*
X348340Y115083D01*
X348327Y115067D01*
X348312Y115054D01*
X348232Y114940D01*
X348148Y114829D01*
X348136Y114804D01*
X348129Y114794D01*
X348122Y114775D01*
X348077Y114685D01*
X347102Y112330D01*
X343600Y108828D01*
X341398Y107916D01*
X341373Y107901D01*
X341345Y107892D01*
X341235Y107823D01*
X341122Y107758D01*
X341101Y107738D01*
X341076Y107722D01*
X340987Y107628D01*
X340894Y107537D01*
X340878Y107512D01*
X340858Y107490D01*
X340795Y107377D01*
X340727Y107266D01*
X340719Y107238D01*
X340704Y107212D01*
X340672Y107086D01*
X340634Y106962D01*
X340632Y106933D01*
X340625Y106904D01*
X340615Y106743D01*
X340615Y105775D01*
X340621Y105726D01*
X340619Y105676D01*
X340641Y105569D01*
X340655Y105459D01*
X340673Y105413D01*
X340683Y105365D01*
X340731Y105266D01*
X340772Y105164D01*
X340801Y105124D01*
X340823Y105079D01*
X340894Y104995D01*
X340958Y104906D01*
X340997Y104875D01*
X341029Y104837D01*
X341119Y104774D01*
X341203Y104704D01*
X341248Y104682D01*
X341289Y104654D01*
X341392Y104615D01*
X341491Y104568D01*
X341540Y104559D01*
X341586Y104541D01*
X341696Y104529D01*
X341803Y104508D01*
X341853Y104511D01*
X341902Y104506D01*
X342011Y104521D01*
X342121Y104528D01*
X342168Y104543D01*
X342217Y104550D01*
X342370Y104602D01*
X346774Y106427D01*
X351726Y106427D01*
X356300Y104532D01*
X359802Y101030D01*
X360777Y98675D01*
X360846Y98555D01*
X360911Y98432D01*
X360925Y98417D01*
X360935Y98399D01*
X361032Y98299D01*
X361125Y98196D01*
X361142Y98185D01*
X361156Y98171D01*
X361275Y98098D01*
X361391Y98022D01*
X361410Y98015D01*
X361427Y98004D01*
X361560Y97963D01*
X361692Y97918D01*
X361712Y97917D01*
X361731Y97911D01*
X361870Y97904D01*
X362009Y97893D01*
X362029Y97897D01*
X362049Y97896D01*
X362185Y97924D01*
X362322Y97948D01*
X362341Y97956D01*
X362360Y97960D01*
X362486Y98021D01*
X362612Y98078D01*
X362628Y98091D01*
X362646Y98100D01*
X362752Y98190D01*
X362860Y98277D01*
X362873Y98293D01*
X362888Y98306D01*
X362968Y98420D01*
X363052Y98531D01*
X363064Y98556D01*
X363071Y98566D01*
X363078Y98585D01*
X363123Y98675D01*
X364098Y101031D01*
X367600Y104532D01*
X372174Y106427D01*
X377126Y106427D01*
X381700Y104532D01*
X385202Y101030D01*
X387097Y96456D01*
X387097Y91504D01*
X385202Y86930D01*
X381700Y83428D01*
X377126Y81533D01*
X372174Y81533D01*
X367600Y83428D01*
X364098Y86929D01*
X363123Y89285D01*
X363054Y89406D01*
X362989Y89528D01*
X362975Y89543D01*
X362965Y89561D01*
X362868Y89661D01*
X362775Y89764D01*
X362758Y89775D01*
X362744Y89789D01*
X362626Y89862D01*
X362509Y89938D01*
X362490Y89945D01*
X362473Y89956D01*
X362340Y89996D01*
X362208Y90042D01*
X362188Y90043D01*
X362169Y90049D01*
X362030Y90056D01*
X361891Y90067D01*
X361871Y90063D01*
X361851Y90064D01*
X361715Y90036D01*
X361578Y90012D01*
X361559Y90004D01*
X361540Y90000D01*
X361415Y89939D01*
X361288Y89882D01*
X361272Y89869D01*
X361254Y89860D01*
X361148Y89770D01*
X361040Y89683D01*
X361027Y89667D01*
X361012Y89654D01*
X360932Y89540D01*
X360848Y89429D01*
X360836Y89404D01*
X360829Y89394D01*
X360822Y89375D01*
X360777Y89285D01*
X359802Y86930D01*
X356300Y83428D01*
X354098Y82516D01*
X354073Y82501D01*
X354045Y82492D01*
X353935Y82423D01*
X353822Y82358D01*
X353801Y82338D01*
X353776Y82322D01*
X353687Y82228D01*
X353594Y82137D01*
X353578Y82112D01*
X353558Y82090D01*
X353495Y81977D01*
X353427Y81866D01*
X353419Y81838D01*
X353404Y81812D01*
X353372Y81686D01*
X353334Y81562D01*
X353332Y81533D01*
X353325Y81504D01*
X353315Y81343D01*
X353315Y74168D01*
X353330Y74050D01*
X353337Y73931D01*
X353350Y73893D01*
X353355Y73852D01*
X353398Y73742D01*
X353435Y73629D01*
X353457Y73594D01*
X353472Y73557D01*
X353541Y73461D01*
X353605Y73360D01*
X353635Y73332D01*
X353658Y73299D01*
X353750Y73223D01*
X353837Y73142D01*
X353872Y73122D01*
X353903Y73097D01*
X354011Y73046D01*
X354115Y72988D01*
X354155Y72978D01*
X354191Y72961D01*
X354308Y72939D01*
X354423Y72909D01*
X354483Y72905D01*
X354503Y72901D01*
X354524Y72903D01*
X354584Y72899D01*
X363848Y72899D01*
X364198Y72549D01*
X364281Y72484D01*
X364359Y72412D01*
X364407Y72387D01*
X364449Y72354D01*
X364546Y72312D01*
X364639Y72262D01*
X364691Y72249D01*
X364741Y72227D01*
X364846Y72211D01*
X364948Y72185D01*
X365002Y72186D01*
X365055Y72178D01*
X365160Y72187D01*
X365266Y72188D01*
X365350Y72205D01*
X365372Y72207D01*
X365386Y72213D01*
X365424Y72220D01*
X366061Y72391D01*
X368047Y72391D01*
X368047Y64833D01*
X362649Y64833D01*
X362630Y64821D01*
X362607Y64817D01*
X362600Y64802D01*
X362591Y64796D01*
X362593Y64786D01*
X362586Y64770D01*
X362586Y62230D01*
X362598Y62211D01*
X362601Y62189D01*
X362617Y62182D01*
X362623Y62173D01*
X362633Y62174D01*
X362649Y62167D01*
X369252Y62167D01*
X369331Y62093D01*
X369366Y62073D01*
X369398Y62048D01*
X369505Y61997D01*
X369610Y61939D01*
X369649Y61929D01*
X369685Y61912D01*
X369802Y61890D01*
X369918Y61860D01*
X369978Y61856D01*
X369998Y61852D01*
X370018Y61854D01*
X370078Y61850D01*
X375540Y61850D01*
X375540Y56815D01*
X375367Y56169D01*
X375032Y55590D01*
X374559Y55117D01*
X373980Y54782D01*
X373333Y54609D01*
X372033Y54609D01*
X371896Y54592D01*
X371757Y54579D01*
X371738Y54572D01*
X371718Y54569D01*
X371589Y54518D01*
X371458Y54471D01*
X371441Y54460D01*
X371422Y54452D01*
X371310Y54371D01*
X371195Y54293D01*
X371181Y54277D01*
X371165Y54266D01*
X371076Y54158D01*
X370984Y54054D01*
X370975Y54036D01*
X370962Y54021D01*
X370903Y53895D01*
X370840Y53771D01*
X370835Y53751D01*
X370826Y53733D01*
X370800Y53597D01*
X370770Y53461D01*
X370771Y53440D01*
X370767Y53420D01*
X370775Y53282D01*
X370780Y53143D01*
X370785Y53123D01*
X370786Y53103D01*
X370829Y52971D01*
X370868Y52837D01*
X370878Y52820D01*
X370884Y52801D01*
X370959Y52683D01*
X371030Y52563D01*
X371048Y52542D01*
X371055Y52532D01*
X371070Y52518D01*
X371136Y52442D01*
X373635Y49944D01*
X373635Y48652D01*
X373647Y48553D01*
X373650Y48454D01*
X373667Y48396D01*
X373675Y48336D01*
X373711Y48244D01*
X373739Y48149D01*
X373769Y48097D01*
X373792Y48040D01*
X373850Y47960D01*
X373900Y47875D01*
X373966Y47800D01*
X373978Y47783D01*
X373988Y47775D01*
X374006Y47754D01*
X376048Y45713D01*
X376048Y30487D01*
X374262Y28701D01*
X365001Y28701D01*
X364921Y28742D01*
X364881Y28751D01*
X364844Y28767D01*
X364727Y28786D01*
X364610Y28812D01*
X364570Y28811D01*
X364530Y28817D01*
X364412Y28806D01*
X364293Y28802D01*
X364254Y28791D01*
X364214Y28787D01*
X364101Y28747D01*
X363987Y28714D01*
X363966Y28701D01*
X354718Y28701D01*
X352932Y30487D01*
X352932Y32766D01*
X352917Y32884D01*
X352910Y33003D01*
X352897Y33041D01*
X352892Y33082D01*
X352849Y33192D01*
X352812Y33305D01*
X352790Y33340D01*
X352775Y33377D01*
X352706Y33473D01*
X352642Y33574D01*
X352612Y33602D01*
X352589Y33635D01*
X352497Y33711D01*
X352410Y33792D01*
X352375Y33812D01*
X352344Y33837D01*
X352236Y33888D01*
X352132Y33946D01*
X352092Y33956D01*
X352056Y33973D01*
X351939Y33995D01*
X351824Y34025D01*
X351764Y34029D01*
X351744Y34033D01*
X351723Y34031D01*
X351663Y34035D01*
X317086Y34035D01*
X251418Y99704D01*
X251340Y99764D01*
X251268Y99832D01*
X251215Y99861D01*
X251167Y99898D01*
X251076Y99938D01*
X250989Y99986D01*
X250931Y100001D01*
X250875Y100025D01*
X250777Y100040D01*
X250681Y100065D01*
X250581Y100071D01*
X250561Y100075D01*
X250549Y100073D01*
X250521Y100075D01*
X225056Y100075D01*
X224958Y100063D01*
X224859Y100060D01*
X224801Y100043D01*
X224741Y100035D01*
X224649Y99999D01*
X224553Y99971D01*
X224501Y99941D01*
X224445Y99918D01*
X224365Y99860D01*
X224279Y99810D01*
X224204Y99744D01*
X224188Y99732D01*
X224180Y99722D01*
X224159Y99704D01*
X222888Y98433D01*
X220414Y97408D01*
X217736Y97408D01*
X215262Y98433D01*
X214107Y99588D01*
X214013Y99661D01*
X213924Y99740D01*
X213888Y99758D01*
X213856Y99783D01*
X213746Y99830D01*
X213640Y99884D01*
X213601Y99893D01*
X213564Y99909D01*
X213446Y99928D01*
X213330Y99954D01*
X213290Y99953D01*
X213250Y99959D01*
X213131Y99948D01*
X213012Y99944D01*
X212973Y99933D01*
X212933Y99929D01*
X212821Y99889D01*
X212707Y99856D01*
X212672Y99835D01*
X212634Y99822D01*
X212535Y99755D01*
X212433Y99694D01*
X212388Y99654D01*
X212371Y99643D01*
X212357Y99628D01*
X212312Y99588D01*
X211792Y99068D01*
X209318Y98043D01*
X206640Y98043D01*
X204166Y99068D01*
X204133Y99101D01*
X204039Y99174D01*
X203950Y99253D01*
X203914Y99271D01*
X203882Y99296D01*
X203773Y99343D01*
X203667Y99397D01*
X203627Y99406D01*
X203590Y99422D01*
X203472Y99441D01*
X203356Y99467D01*
X203316Y99466D01*
X203276Y99472D01*
X203158Y99461D01*
X203038Y99457D01*
X202999Y99446D01*
X202959Y99442D01*
X202848Y99402D01*
X202733Y99369D01*
X202698Y99348D01*
X202660Y99335D01*
X202562Y99268D01*
X202459Y99207D01*
X202414Y99167D01*
X202397Y99156D01*
X202383Y99141D01*
X202338Y99101D01*
X202043Y98805D01*
X201052Y98805D01*
X200953Y98793D01*
X200854Y98790D01*
X200796Y98773D01*
X200736Y98765D01*
X200644Y98729D01*
X200549Y98701D01*
X200497Y98671D01*
X200440Y98648D01*
X200360Y98590D01*
X200275Y98540D01*
X200200Y98474D01*
X200183Y98462D01*
X200175Y98452D01*
X200154Y98434D01*
X198113Y96392D01*
X182887Y96392D01*
X181101Y98178D01*
X181101Y107439D01*
X181142Y107519D01*
X181151Y107559D01*
X181167Y107596D01*
X181186Y107713D01*
X181212Y107830D01*
X181211Y107870D01*
X181217Y107910D01*
X181206Y108028D01*
X181202Y108147D01*
X181191Y108186D01*
X181187Y108226D01*
X181147Y108339D01*
X181114Y108453D01*
X181101Y108474D01*
X181101Y115316D01*
X181086Y115434D01*
X181079Y115553D01*
X181066Y115591D01*
X181061Y115632D01*
X181018Y115742D01*
X180981Y115855D01*
X180959Y115890D01*
X180944Y115927D01*
X180875Y116023D01*
X180811Y116124D01*
X180781Y116152D01*
X180758Y116185D01*
X180666Y116261D01*
X180579Y116342D01*
X180544Y116362D01*
X180513Y116387D01*
X180405Y116438D01*
X180301Y116496D01*
X180261Y116506D01*
X180225Y116523D01*
X180108Y116545D01*
X179993Y116575D01*
X179933Y116579D01*
X179913Y116583D01*
X179892Y116581D01*
X179832Y116585D01*
X140379Y116585D01*
X140350Y116582D01*
X140321Y116584D01*
X140193Y116562D01*
X140064Y116545D01*
X140037Y116535D01*
X140007Y116530D01*
X139889Y116476D01*
X139768Y116428D01*
X139744Y116411D01*
X139717Y116399D01*
X139616Y116318D01*
X139511Y116242D01*
X139492Y116219D01*
X139469Y116200D01*
X139391Y116097D01*
X139308Y115997D01*
X139295Y115970D01*
X139278Y115946D01*
X139207Y115802D01*
X139057Y115440D01*
X137163Y113546D01*
X134689Y112521D01*
X132011Y112521D01*
X129537Y113546D01*
X127643Y115440D01*
X126618Y117914D01*
X126618Y120592D01*
X127643Y123066D01*
X129537Y124960D01*
X132011Y125985D01*
X134689Y125985D01*
X137242Y124927D01*
X137288Y124892D01*
X137378Y124852D01*
X137465Y124804D01*
X137524Y124789D01*
X137579Y124765D01*
X137677Y124750D01*
X137773Y124725D01*
X137873Y124719D01*
X137893Y124715D01*
X137906Y124717D01*
X137934Y124715D01*
G37*
%LPD*%
%LPC*%
G36*
X281961Y228601D02*
X281961Y228601D01*
X274960Y231501D01*
X269601Y236860D01*
X266701Y243861D01*
X266701Y251439D01*
X269601Y258440D01*
X274960Y263799D01*
X281961Y266699D01*
X289539Y266699D01*
X296540Y263799D01*
X301899Y258440D01*
X304799Y251439D01*
X304799Y243861D01*
X301899Y236860D01*
X296540Y231501D01*
X289539Y228601D01*
X281961Y228601D01*
G37*
%LPD*%
%LPC*%
G36*
X281961Y11431D02*
X281961Y11431D01*
X274960Y14331D01*
X269601Y19690D01*
X266701Y26691D01*
X266701Y34269D01*
X269601Y41270D01*
X274960Y46629D01*
X281961Y49529D01*
X289539Y49529D01*
X296540Y46629D01*
X301899Y41270D01*
X304799Y34269D01*
X304799Y26691D01*
X301899Y19690D01*
X296540Y14331D01*
X289539Y11431D01*
X281961Y11431D01*
G37*
%LPD*%
%LPC*%
G36*
X396261Y11431D02*
X396261Y11431D01*
X389260Y14331D01*
X383901Y19690D01*
X381001Y26691D01*
X381001Y34269D01*
X383901Y41270D01*
X389260Y46629D01*
X396261Y49529D01*
X403839Y49529D01*
X410840Y46629D01*
X416199Y41270D01*
X419099Y34269D01*
X419099Y26691D01*
X416199Y19690D01*
X410840Y14331D01*
X403839Y11431D01*
X396261Y11431D01*
G37*
%LPD*%
%LPC*%
G36*
X208963Y204506D02*
X208963Y204506D01*
X216278Y204506D01*
X219031Y201753D01*
X220514Y200270D01*
X220592Y200210D01*
X220664Y200142D01*
X220717Y200113D01*
X220765Y200076D01*
X220856Y200036D01*
X220943Y199988D01*
X221001Y199973D01*
X221057Y199949D01*
X221155Y199934D01*
X221251Y199909D01*
X221351Y199903D01*
X221371Y199899D01*
X221383Y199901D01*
X221411Y199899D01*
X235789Y199899D01*
X235887Y199911D01*
X235986Y199914D01*
X236044Y199931D01*
X236104Y199939D01*
X236196Y199975D01*
X236291Y200003D01*
X236343Y200033D01*
X236400Y200056D01*
X236480Y200114D01*
X236565Y200164D01*
X236641Y200230D01*
X236657Y200242D01*
X236665Y200252D01*
X236686Y200270D01*
X240604Y204189D01*
X241570Y204189D01*
X241668Y204201D01*
X241767Y204204D01*
X241825Y204221D01*
X241885Y204229D01*
X241977Y204265D01*
X242073Y204293D01*
X242125Y204323D01*
X242181Y204346D01*
X242261Y204404D01*
X242347Y204454D01*
X242422Y204520D01*
X242438Y204532D01*
X242446Y204542D01*
X242467Y204560D01*
X243738Y205831D01*
X246212Y206856D01*
X248890Y206856D01*
X251364Y205831D01*
X253258Y203937D01*
X254283Y201463D01*
X254283Y198785D01*
X253258Y196311D01*
X251364Y194417D01*
X248890Y193392D01*
X246212Y193392D01*
X243526Y194505D01*
X243497Y194513D01*
X243471Y194526D01*
X243344Y194555D01*
X243219Y194589D01*
X243189Y194589D01*
X243160Y194596D01*
X243031Y194592D01*
X242901Y194594D01*
X242872Y194587D01*
X242843Y194586D01*
X242718Y194550D01*
X242592Y194520D01*
X242565Y194506D01*
X242537Y194498D01*
X242425Y194432D01*
X242310Y194371D01*
X242289Y194351D01*
X242263Y194336D01*
X242142Y194230D01*
X239259Y191347D01*
X239199Y191269D01*
X239131Y191197D01*
X239102Y191144D01*
X239065Y191096D01*
X239025Y191005D01*
X238977Y190918D01*
X238962Y190860D01*
X238938Y190804D01*
X238923Y190706D01*
X238898Y190610D01*
X238892Y190510D01*
X238888Y190490D01*
X238890Y190478D01*
X238888Y190450D01*
X238888Y182887D01*
X237102Y181101D01*
X220098Y181101D01*
X218312Y182887D01*
X218312Y190450D01*
X218300Y190548D01*
X218297Y190647D01*
X218280Y190705D01*
X218272Y190765D01*
X218236Y190857D01*
X218208Y190952D01*
X218178Y191004D01*
X218155Y191061D01*
X218097Y191141D01*
X218047Y191226D01*
X217981Y191302D01*
X217969Y191318D01*
X217959Y191326D01*
X217941Y191347D01*
X213283Y196005D01*
X213204Y196066D01*
X213132Y196134D01*
X213079Y196163D01*
X213031Y196200D01*
X212940Y196239D01*
X212854Y196287D01*
X212795Y196302D01*
X212739Y196326D01*
X212641Y196342D01*
X212546Y196367D01*
X212446Y196373D01*
X212425Y196376D01*
X212413Y196375D01*
X212385Y196377D01*
X208963Y196377D01*
X208864Y196364D01*
X208765Y196361D01*
X208707Y196345D01*
X208647Y196337D01*
X208555Y196300D01*
X208460Y196273D01*
X208408Y196242D01*
X208351Y196220D01*
X208271Y196162D01*
X208186Y196111D01*
X208111Y196045D01*
X208094Y196033D01*
X208086Y196024D01*
X208065Y196005D01*
X206795Y194735D01*
X204321Y193710D01*
X201642Y193710D01*
X199168Y194735D01*
X197275Y196628D01*
X196250Y199102D01*
X196250Y201781D01*
X197275Y204255D01*
X199168Y206148D01*
X201642Y207173D01*
X204321Y207173D01*
X206795Y206148D01*
X208065Y204878D01*
X208143Y204817D01*
X208216Y204749D01*
X208269Y204720D01*
X208316Y204683D01*
X208407Y204644D01*
X208494Y204596D01*
X208553Y204581D01*
X208608Y204557D01*
X208706Y204541D01*
X208802Y204516D01*
X208902Y204510D01*
X208922Y204507D01*
X208935Y204508D01*
X208963Y204506D01*
G37*
%LPD*%
%LPC*%
G36*
X15239Y205739D02*
X15239Y205739D01*
X15239Y214885D01*
X15496Y214845D01*
X17283Y214264D01*
X18957Y213411D01*
X20478Y212306D01*
X21806Y210978D01*
X22911Y209457D01*
X23764Y207783D01*
X24345Y205996D01*
X24385Y205739D01*
X15239Y205739D01*
G37*
%LPD*%
%LPC*%
G36*
X353440Y218185D02*
X353440Y218185D01*
X353440Y223219D01*
X353613Y223866D01*
X353948Y224445D01*
X354421Y224918D01*
X355000Y225253D01*
X355646Y225426D01*
X357633Y225426D01*
X357633Y218185D01*
X353440Y218185D01*
G37*
%LPD*%
%LPC*%
G36*
X371347Y65150D02*
X371347Y65150D01*
X371347Y72391D01*
X373333Y72391D01*
X373980Y72218D01*
X374559Y71883D01*
X375032Y71410D01*
X375367Y70831D01*
X375540Y70184D01*
X375540Y65150D01*
X371347Y65150D01*
G37*
%LPD*%
G36*
X366350Y240614D02*
X366350Y240614D01*
X366373Y240618D01*
X366380Y240633D01*
X366389Y240639D01*
X366387Y240649D01*
X366394Y240665D01*
X366394Y243205D01*
X366382Y243224D01*
X366379Y243246D01*
X366363Y243253D01*
X366357Y243262D01*
X366347Y243261D01*
X366332Y243268D01*
X357505Y243268D01*
X357486Y243256D01*
X357464Y243252D01*
X357457Y243237D01*
X357448Y243231D01*
X357449Y243221D01*
X357442Y243205D01*
X357442Y240665D01*
X357454Y240646D01*
X357458Y240624D01*
X357473Y240617D01*
X357479Y240608D01*
X357489Y240609D01*
X357505Y240602D01*
X366332Y240602D01*
X366350Y240614D01*
G37*
G36*
X191789Y106058D02*
X191789Y106058D01*
X191811Y106061D01*
X191818Y106077D01*
X191827Y106083D01*
X191826Y106093D01*
X191833Y106109D01*
X191833Y114935D01*
X191821Y114954D01*
X191817Y114976D01*
X191802Y114983D01*
X191796Y114992D01*
X191786Y114991D01*
X191770Y114998D01*
X189230Y114998D01*
X189211Y114986D01*
X189189Y114982D01*
X189182Y114967D01*
X189173Y114961D01*
X189174Y114951D01*
X189167Y114935D01*
X189167Y106109D01*
X189179Y106090D01*
X189183Y106067D01*
X189198Y106060D01*
X189204Y106051D01*
X189214Y106053D01*
X189230Y106046D01*
X191770Y106046D01*
X191789Y106058D01*
G37*
G36*
X366350Y36779D02*
X366350Y36779D01*
X366373Y36783D01*
X366380Y36798D01*
X366389Y36804D01*
X366387Y36814D01*
X366394Y36830D01*
X366394Y39370D01*
X366382Y39389D01*
X366379Y39411D01*
X366363Y39418D01*
X366357Y39427D01*
X366347Y39426D01*
X366332Y39433D01*
X357505Y39433D01*
X357486Y39421D01*
X357464Y39417D01*
X357457Y39402D01*
X357448Y39396D01*
X357449Y39386D01*
X357442Y39370D01*
X357442Y36830D01*
X357454Y36811D01*
X357458Y36789D01*
X357473Y36782D01*
X357479Y36773D01*
X357489Y36774D01*
X357505Y36767D01*
X366332Y36767D01*
X366350Y36779D01*
G37*
D10*
X364363Y15206D02*
X359363Y5207D01*
X354364Y15206D01*
X347991Y15206D02*
X342992Y20206D01*
X342992Y5207D01*
X347991Y5207D02*
X337992Y5207D01*
X331620Y7707D02*
X331620Y17706D01*
X329120Y20206D01*
X324120Y20206D01*
X321621Y17706D01*
X321621Y7707D01*
X324120Y5207D01*
X329120Y5207D01*
X331620Y7707D01*
X321621Y17706D01*
D11*
X298450Y158750D03*
X311150Y184150D03*
X323850Y158750D03*
X349250Y158750D03*
X374650Y158750D03*
X336550Y184150D03*
X361950Y184150D03*
D12*
X387350Y184150D03*
D11*
X12700Y76200D03*
X12700Y101600D03*
D13*
X359283Y241935D03*
X369697Y241935D03*
X359283Y216535D03*
X369697Y216535D03*
D14*
X50800Y50800D03*
X425450Y247650D03*
D11*
X387350Y119380D03*
X374650Y93980D03*
X361950Y119380D03*
X336550Y119380D03*
X311150Y119380D03*
X349250Y93980D03*
X323850Y93980D03*
D12*
X298450Y93980D03*
D13*
X359283Y38100D03*
X369697Y38100D03*
X369697Y63500D03*
X359283Y63500D03*
D15*
X190500Y113157D03*
X190500Y102743D03*
D16*
X224536Y190500D03*
X232664Y190500D03*
D11*
X12700Y203200D03*
X12700Y177800D03*
X12700Y152400D03*
X12700Y127000D03*
D17*
X101600Y152400D03*
D18*
X101600Y76200D01*
D17*
X101600Y76200D03*
D18*
X101600Y152400D02*
X88900Y165100D01*
X25400Y165100D01*
X12700Y152400D01*
D17*
X114300Y81280D03*
X177800Y182880D03*
X190500Y80010D03*
X180340Y128270D03*
X177800Y44450D03*
X88900Y95250D03*
X132080Y149860D03*
X170180Y95885D03*
X177800Y208280D03*
X255905Y54610D03*
X232410Y87630D03*
D18*
X133350Y87630D01*
X127000Y81280D01*
D17*
X127000Y81280D03*
D18*
X224536Y190500D02*
X214595Y200442D01*
X202982Y200442D01*
D17*
X202982Y200442D03*
D18*
X127000Y81280D02*
X71120Y25400D01*
X55245Y25400D01*
D17*
X55245Y25400D03*
X339090Y241935D03*
D18*
X359283Y241935D01*
X359283Y38100D02*
X318770Y38100D01*
D17*
X236855Y156845D03*
D18*
X236855Y153035D01*
X204470Y120650D01*
X252730Y104140D02*
X318770Y38100D01*
X252730Y104140D02*
X219075Y104140D01*
X219075Y106045D01*
X204470Y120650D01*
D17*
X219075Y104140D03*
X133350Y119253D03*
D18*
X134747Y120650D01*
X190500Y120650D01*
X204470Y120650D01*
X232664Y190500D02*
X242288Y200124D01*
X247551Y200124D01*
D17*
X247551Y200124D03*
D18*
X190500Y120650D02*
X190500Y113157D01*
X88900Y139700D02*
X76200Y139700D01*
X12700Y76200D01*
D17*
X88900Y139700D03*
X281914Y138398D03*
D18*
X281914Y142214D01*
X298450Y158750D01*
X302468Y128062D02*
X311150Y119380D01*
X302468Y128062D02*
X302468Y131345D01*
X309958Y138835D01*
X351966Y138835D01*
X361573Y148442D01*
X364342Y148442D01*
X374650Y158750D01*
X298450Y132715D02*
X298450Y93980D01*
X298450Y132715D02*
X308380Y142645D01*
X350388Y142645D01*
X362458Y154716D01*
X362458Y163800D01*
X382808Y184150D01*
X387350Y184150D01*
X349758Y159258D02*
X349250Y158750D01*
X372110Y198755D02*
X381000Y207645D01*
X381000Y227330D01*
X369697Y238633D02*
X369697Y241935D01*
X349758Y192913D02*
X349758Y159258D01*
X349758Y192913D02*
X355600Y198755D01*
X372110Y198755D01*
X381000Y227330D02*
X369697Y238633D01*
X369697Y216535D02*
X369697Y212217D01*
X360680Y203200D02*
X342900Y203200D01*
X336550Y196850D01*
X360680Y203200D02*
X369697Y212217D01*
X336550Y196850D02*
X336550Y184150D01*
X336550Y119380D02*
X336550Y57150D01*
X342900Y50800D01*
X367030Y50800D01*
X369570Y48260D01*
X369570Y38227D02*
X369697Y38100D01*
X369570Y38227D02*
X369570Y48260D01*
X349250Y67310D02*
X349250Y93980D01*
X353060Y63500D02*
X359283Y63500D01*
X353060Y63500D02*
X349250Y67310D01*
X207979Y104775D02*
X202264Y104775D01*
X200359Y102870D01*
X190627Y102870D01*
X190500Y102743D01*
D17*
X207979Y104775D03*
M02*
