G04 EAGLE Gerber RS-274X export*
G75*
%MOMM*%
%FSLAX34Y34*%
%LPD*%
%INSoldermask Top*%
%IPPOS*%
%AMOC8*
5,1,8,0,0,1.08239X$1,22.5*%
G01*
%ADD10R,1.403200X2.203200*%
%ADD11R,0.803200X1.553200*%
%ADD12R,1.303200X0.453200*%
%ADD13R,1.303200X1.203200*%
%ADD14C,2.082800*%
%ADD15R,2.082800X2.082800*%
%ADD16C,3.403200*%
%ADD17R,1.203200X1.303200*%
%ADD18R,0.863600X1.473200*%
%ADD19C,3.505200*%
%ADD20C,0.838200*%
%ADD21R,0.753200X1.403200*%
%ADD22C,0.505344*%

G36*
X123890Y99707D02*
X123890Y99707D01*
X123956Y99709D01*
X123999Y99727D01*
X124046Y99735D01*
X124103Y99769D01*
X124163Y99794D01*
X124198Y99825D01*
X124239Y99850D01*
X124281Y99901D01*
X124329Y99945D01*
X124351Y99987D01*
X124380Y100024D01*
X124401Y100086D01*
X124432Y100145D01*
X124440Y100199D01*
X124452Y100236D01*
X124451Y100276D01*
X124459Y100330D01*
X124459Y102870D01*
X124448Y102935D01*
X124446Y103001D01*
X124428Y103044D01*
X124420Y103091D01*
X124386Y103148D01*
X124361Y103208D01*
X124330Y103243D01*
X124305Y103284D01*
X124254Y103326D01*
X124210Y103374D01*
X124168Y103396D01*
X124131Y103425D01*
X124069Y103446D01*
X124010Y103477D01*
X123956Y103485D01*
X123919Y103497D01*
X123879Y103496D01*
X123825Y103504D01*
X120015Y103504D01*
X119950Y103493D01*
X119884Y103491D01*
X119841Y103473D01*
X119794Y103465D01*
X119737Y103431D01*
X119677Y103406D01*
X119642Y103375D01*
X119601Y103350D01*
X119560Y103299D01*
X119511Y103255D01*
X119489Y103213D01*
X119460Y103176D01*
X119439Y103114D01*
X119408Y103055D01*
X119400Y103001D01*
X119388Y102964D01*
X119388Y102961D01*
X119389Y102924D01*
X119381Y102870D01*
X119381Y100330D01*
X119392Y100265D01*
X119394Y100199D01*
X119412Y100156D01*
X119420Y100109D01*
X119454Y100052D01*
X119479Y99992D01*
X119510Y99957D01*
X119535Y99916D01*
X119586Y99875D01*
X119630Y99826D01*
X119672Y99804D01*
X119709Y99775D01*
X119771Y99754D01*
X119830Y99723D01*
X119884Y99715D01*
X119921Y99703D01*
X119961Y99704D01*
X120015Y99696D01*
X123825Y99696D01*
X123890Y99707D01*
G37*
G36*
X134050Y99707D02*
X134050Y99707D01*
X134116Y99709D01*
X134159Y99727D01*
X134206Y99735D01*
X134263Y99769D01*
X134323Y99794D01*
X134358Y99825D01*
X134399Y99850D01*
X134441Y99901D01*
X134489Y99945D01*
X134511Y99987D01*
X134540Y100024D01*
X134561Y100086D01*
X134592Y100145D01*
X134600Y100199D01*
X134612Y100236D01*
X134611Y100276D01*
X134619Y100330D01*
X134619Y102870D01*
X134608Y102935D01*
X134606Y103001D01*
X134588Y103044D01*
X134580Y103091D01*
X134546Y103148D01*
X134521Y103208D01*
X134490Y103243D01*
X134465Y103284D01*
X134414Y103326D01*
X134370Y103374D01*
X134328Y103396D01*
X134291Y103425D01*
X134229Y103446D01*
X134170Y103477D01*
X134116Y103485D01*
X134079Y103497D01*
X134039Y103496D01*
X133985Y103504D01*
X130175Y103504D01*
X130110Y103493D01*
X130044Y103491D01*
X130001Y103473D01*
X129954Y103465D01*
X129897Y103431D01*
X129837Y103406D01*
X129802Y103375D01*
X129761Y103350D01*
X129720Y103299D01*
X129671Y103255D01*
X129649Y103213D01*
X129620Y103176D01*
X129599Y103114D01*
X129568Y103055D01*
X129560Y103001D01*
X129548Y102964D01*
X129548Y102961D01*
X129549Y102924D01*
X129541Y102870D01*
X129541Y100330D01*
X129552Y100265D01*
X129554Y100199D01*
X129572Y100156D01*
X129580Y100109D01*
X129614Y100052D01*
X129639Y99992D01*
X129670Y99957D01*
X129695Y99916D01*
X129746Y99875D01*
X129790Y99826D01*
X129832Y99804D01*
X129869Y99775D01*
X129931Y99754D01*
X129990Y99723D01*
X130044Y99715D01*
X130081Y99703D01*
X130121Y99704D01*
X130175Y99696D01*
X133985Y99696D01*
X134050Y99707D01*
G37*
G36*
X78170Y61607D02*
X78170Y61607D01*
X78236Y61609D01*
X78279Y61627D01*
X78326Y61635D01*
X78383Y61669D01*
X78443Y61694D01*
X78478Y61725D01*
X78519Y61750D01*
X78561Y61801D01*
X78609Y61845D01*
X78631Y61887D01*
X78660Y61924D01*
X78681Y61986D01*
X78712Y62045D01*
X78720Y62099D01*
X78732Y62136D01*
X78731Y62176D01*
X78739Y62230D01*
X78739Y64770D01*
X78728Y64835D01*
X78726Y64901D01*
X78708Y64944D01*
X78700Y64991D01*
X78666Y65048D01*
X78641Y65108D01*
X78610Y65143D01*
X78585Y65184D01*
X78534Y65226D01*
X78490Y65274D01*
X78448Y65296D01*
X78411Y65325D01*
X78349Y65346D01*
X78290Y65377D01*
X78236Y65385D01*
X78199Y65397D01*
X78159Y65396D01*
X78105Y65404D01*
X74295Y65404D01*
X74230Y65393D01*
X74164Y65391D01*
X74121Y65373D01*
X74074Y65365D01*
X74017Y65331D01*
X73957Y65306D01*
X73922Y65275D01*
X73881Y65250D01*
X73840Y65199D01*
X73791Y65155D01*
X73769Y65113D01*
X73740Y65076D01*
X73719Y65014D01*
X73688Y64955D01*
X73680Y64901D01*
X73668Y64864D01*
X73668Y64861D01*
X73669Y64824D01*
X73661Y64770D01*
X73661Y62230D01*
X73672Y62165D01*
X73674Y62099D01*
X73692Y62056D01*
X73700Y62009D01*
X73734Y61952D01*
X73759Y61892D01*
X73790Y61857D01*
X73815Y61816D01*
X73866Y61775D01*
X73910Y61726D01*
X73952Y61704D01*
X73989Y61675D01*
X74051Y61654D01*
X74110Y61623D01*
X74164Y61615D01*
X74201Y61603D01*
X74241Y61604D01*
X74295Y61596D01*
X78105Y61596D01*
X78170Y61607D01*
G37*
D10*
X99000Y26750D03*
X155000Y26750D03*
D11*
X112000Y63500D03*
X122000Y63500D03*
X132000Y63500D03*
X142000Y63500D03*
D12*
X206010Y134875D03*
X206010Y139875D03*
X206010Y144875D03*
X206010Y149875D03*
X206010Y129825D03*
X252260Y134875D03*
X252260Y139875D03*
X252260Y144875D03*
X252260Y149875D03*
X252260Y129825D03*
D10*
X155000Y252650D03*
X99000Y252650D03*
D11*
X142000Y215900D03*
X132000Y215900D03*
X122000Y215900D03*
X112000Y215900D03*
D13*
X211700Y190500D03*
X194700Y190500D03*
X239150Y171450D03*
X256150Y171450D03*
X211700Y171450D03*
X194700Y171450D03*
X239150Y190500D03*
X256150Y190500D03*
D14*
X298450Y158750D03*
X311150Y184150D03*
X323850Y158750D03*
X349250Y158750D03*
X374650Y158750D03*
X336550Y184150D03*
X361950Y184150D03*
D15*
X387350Y184150D03*
D16*
X400050Y247650D03*
X285750Y247650D03*
D17*
X152400Y93100D03*
X152400Y110100D03*
X101600Y93100D03*
X101600Y110100D03*
D18*
X116586Y101600D03*
X127000Y101600D03*
X137414Y101600D03*
D19*
X228600Y38100D03*
X228600Y241300D03*
X25400Y38100D03*
X25400Y241300D03*
D14*
X12700Y76200D03*
X12700Y101600D03*
D20*
X50800Y50800D03*
X425450Y247650D03*
D14*
X387350Y119380D03*
X374650Y93980D03*
X361950Y119380D03*
X336550Y119380D03*
X311150Y119380D03*
X349250Y93980D03*
X323850Y93980D03*
D15*
X298450Y93980D03*
D16*
X285750Y30480D03*
X400050Y30480D03*
D21*
X200000Y95551D03*
X190500Y95551D03*
X181000Y95551D03*
X181000Y69549D03*
X200000Y69549D03*
D13*
X199000Y114300D03*
X182000Y114300D03*
D17*
X215900Y74685D03*
X215900Y91685D03*
X247650Y74685D03*
X247650Y91685D03*
D13*
X84700Y44450D03*
X67700Y44450D03*
D22*
X81480Y28890D02*
X81480Y21910D01*
X81480Y28890D02*
X88460Y28890D01*
X88460Y21910D01*
X81480Y21910D01*
X81480Y26710D02*
X88460Y26710D01*
X63940Y28890D02*
X63940Y21910D01*
X63940Y28890D02*
X70920Y28890D01*
X70920Y21910D01*
X63940Y21910D01*
X63940Y26710D02*
X70920Y26710D01*
D18*
X81407Y63500D03*
X70993Y63500D03*
D14*
X12700Y203200D03*
X12700Y177800D03*
X12700Y152400D03*
X12700Y127000D03*
M02*
