G04 EAGLE Gerber RS-274X export*
G75*
%MOMM*%
%FSLAX34Y34*%
%LPD*%
%INSoldermask Bottom*%
%IPPOS*%
%AMOC8*
5,1,8,0,0,1.08239X$1,22.5*%
G01*
%ADD10C,2.082800*%
%ADD11R,2.082800X2.082800*%
%ADD12C,3.403200*%
%ADD13C,3.505200*%
%ADD14R,0.863600X1.473200*%
%ADD15C,0.838200*%
%ADD16R,1.473200X0.863600*%
%ADD17R,0.838200X1.473200*%

G36*
X191835Y105422D02*
X191835Y105422D01*
X191901Y105424D01*
X191944Y105442D01*
X191991Y105450D01*
X192048Y105484D01*
X192108Y105509D01*
X192143Y105540D01*
X192184Y105565D01*
X192226Y105616D01*
X192274Y105660D01*
X192296Y105702D01*
X192325Y105739D01*
X192346Y105801D01*
X192377Y105860D01*
X192385Y105914D01*
X192397Y105951D01*
X192396Y105991D01*
X192404Y106045D01*
X192404Y109855D01*
X192393Y109920D01*
X192391Y109986D01*
X192373Y110029D01*
X192365Y110076D01*
X192331Y110133D01*
X192306Y110193D01*
X192275Y110228D01*
X192250Y110269D01*
X192199Y110311D01*
X192155Y110359D01*
X192113Y110381D01*
X192076Y110410D01*
X192014Y110431D01*
X191955Y110462D01*
X191901Y110470D01*
X191864Y110482D01*
X191824Y110481D01*
X191770Y110489D01*
X189230Y110489D01*
X189165Y110478D01*
X189099Y110476D01*
X189056Y110458D01*
X189009Y110450D01*
X188952Y110416D01*
X188892Y110391D01*
X188857Y110360D01*
X188816Y110335D01*
X188775Y110284D01*
X188726Y110240D01*
X188704Y110198D01*
X188675Y110161D01*
X188654Y110099D01*
X188623Y110040D01*
X188615Y109986D01*
X188603Y109949D01*
X188603Y109945D01*
X188603Y109944D01*
X188604Y109909D01*
X188596Y109855D01*
X188596Y106045D01*
X188607Y105980D01*
X188609Y105914D01*
X188627Y105871D01*
X188635Y105824D01*
X188669Y105767D01*
X188694Y105707D01*
X188725Y105672D01*
X188750Y105631D01*
X188801Y105590D01*
X188845Y105541D01*
X188887Y105519D01*
X188924Y105490D01*
X188986Y105469D01*
X189045Y105438D01*
X189099Y105430D01*
X189136Y105418D01*
X189176Y105419D01*
X189230Y105411D01*
X191770Y105411D01*
X191835Y105422D01*
G37*
G36*
X366460Y240042D02*
X366460Y240042D01*
X366526Y240044D01*
X366569Y240062D01*
X366616Y240070D01*
X366673Y240104D01*
X366733Y240129D01*
X366768Y240160D01*
X366809Y240185D01*
X366851Y240236D01*
X366899Y240280D01*
X366921Y240322D01*
X366950Y240359D01*
X366971Y240421D01*
X367002Y240480D01*
X367010Y240534D01*
X367022Y240571D01*
X367021Y240611D01*
X367029Y240665D01*
X367029Y243205D01*
X367018Y243270D01*
X367016Y243336D01*
X366998Y243379D01*
X366990Y243426D01*
X366956Y243483D01*
X366931Y243543D01*
X366900Y243578D01*
X366875Y243619D01*
X366824Y243661D01*
X366780Y243709D01*
X366738Y243731D01*
X366701Y243760D01*
X366639Y243781D01*
X366580Y243812D01*
X366526Y243820D01*
X366489Y243832D01*
X366449Y243831D01*
X366395Y243839D01*
X362585Y243839D01*
X362520Y243828D01*
X362454Y243826D01*
X362411Y243808D01*
X362364Y243800D01*
X362307Y243766D01*
X362247Y243741D01*
X362212Y243710D01*
X362171Y243685D01*
X362130Y243634D01*
X362081Y243590D01*
X362059Y243548D01*
X362030Y243511D01*
X362009Y243449D01*
X361978Y243390D01*
X361970Y243336D01*
X361958Y243299D01*
X361958Y243296D01*
X361959Y243259D01*
X361951Y243205D01*
X361951Y240665D01*
X361962Y240600D01*
X361964Y240534D01*
X361982Y240491D01*
X361990Y240444D01*
X362024Y240387D01*
X362049Y240327D01*
X362080Y240292D01*
X362105Y240251D01*
X362156Y240210D01*
X362200Y240161D01*
X362242Y240139D01*
X362279Y240110D01*
X362341Y240089D01*
X362400Y240058D01*
X362454Y240050D01*
X362491Y240038D01*
X362531Y240039D01*
X362585Y240031D01*
X366395Y240031D01*
X366460Y240042D01*
G37*
G36*
X366460Y214642D02*
X366460Y214642D01*
X366526Y214644D01*
X366569Y214662D01*
X366616Y214670D01*
X366673Y214704D01*
X366733Y214729D01*
X366768Y214760D01*
X366809Y214785D01*
X366851Y214836D01*
X366899Y214880D01*
X366921Y214922D01*
X366950Y214959D01*
X366971Y215021D01*
X367002Y215080D01*
X367010Y215134D01*
X367022Y215171D01*
X367021Y215211D01*
X367029Y215265D01*
X367029Y217805D01*
X367018Y217870D01*
X367016Y217936D01*
X366998Y217979D01*
X366990Y218026D01*
X366956Y218083D01*
X366931Y218143D01*
X366900Y218178D01*
X366875Y218219D01*
X366824Y218261D01*
X366780Y218309D01*
X366738Y218331D01*
X366701Y218360D01*
X366639Y218381D01*
X366580Y218412D01*
X366526Y218420D01*
X366489Y218432D01*
X366449Y218431D01*
X366395Y218439D01*
X362585Y218439D01*
X362520Y218428D01*
X362454Y218426D01*
X362411Y218408D01*
X362364Y218400D01*
X362307Y218366D01*
X362247Y218341D01*
X362212Y218310D01*
X362171Y218285D01*
X362130Y218234D01*
X362081Y218190D01*
X362059Y218148D01*
X362030Y218111D01*
X362009Y218049D01*
X361978Y217990D01*
X361970Y217936D01*
X361958Y217899D01*
X361958Y217896D01*
X361959Y217859D01*
X361951Y217805D01*
X361951Y215265D01*
X361962Y215200D01*
X361964Y215134D01*
X361982Y215091D01*
X361990Y215044D01*
X362024Y214987D01*
X362049Y214927D01*
X362080Y214892D01*
X362105Y214851D01*
X362156Y214810D01*
X362200Y214761D01*
X362242Y214739D01*
X362279Y214710D01*
X362341Y214689D01*
X362400Y214658D01*
X362454Y214650D01*
X362491Y214638D01*
X362531Y214639D01*
X362585Y214631D01*
X366395Y214631D01*
X366460Y214642D01*
G37*
G36*
X366460Y61607D02*
X366460Y61607D01*
X366526Y61609D01*
X366569Y61627D01*
X366616Y61635D01*
X366673Y61669D01*
X366733Y61694D01*
X366768Y61725D01*
X366809Y61750D01*
X366851Y61801D01*
X366899Y61845D01*
X366921Y61887D01*
X366950Y61924D01*
X366971Y61986D01*
X367002Y62045D01*
X367010Y62099D01*
X367022Y62136D01*
X367021Y62176D01*
X367029Y62230D01*
X367029Y64770D01*
X367018Y64835D01*
X367016Y64901D01*
X366998Y64944D01*
X366990Y64991D01*
X366956Y65048D01*
X366931Y65108D01*
X366900Y65143D01*
X366875Y65184D01*
X366824Y65226D01*
X366780Y65274D01*
X366738Y65296D01*
X366701Y65325D01*
X366639Y65346D01*
X366580Y65377D01*
X366526Y65385D01*
X366489Y65397D01*
X366449Y65396D01*
X366395Y65404D01*
X362585Y65404D01*
X362520Y65393D01*
X362454Y65391D01*
X362411Y65373D01*
X362364Y65365D01*
X362307Y65331D01*
X362247Y65306D01*
X362212Y65275D01*
X362171Y65250D01*
X362130Y65199D01*
X362081Y65155D01*
X362059Y65113D01*
X362030Y65076D01*
X362009Y65014D01*
X361978Y64955D01*
X361970Y64901D01*
X361958Y64864D01*
X361958Y64861D01*
X361959Y64824D01*
X361951Y64770D01*
X361951Y62230D01*
X361962Y62165D01*
X361964Y62099D01*
X361982Y62056D01*
X361990Y62009D01*
X362024Y61952D01*
X362049Y61892D01*
X362080Y61857D01*
X362105Y61816D01*
X362156Y61775D01*
X362200Y61726D01*
X362242Y61704D01*
X362279Y61675D01*
X362341Y61654D01*
X362400Y61623D01*
X362454Y61615D01*
X362491Y61603D01*
X362531Y61604D01*
X362585Y61596D01*
X366395Y61596D01*
X366460Y61607D01*
G37*
G36*
X366460Y36207D02*
X366460Y36207D01*
X366526Y36209D01*
X366569Y36227D01*
X366616Y36235D01*
X366673Y36269D01*
X366733Y36294D01*
X366768Y36325D01*
X366809Y36350D01*
X366851Y36401D01*
X366899Y36445D01*
X366921Y36487D01*
X366950Y36524D01*
X366971Y36586D01*
X367002Y36645D01*
X367010Y36699D01*
X367022Y36736D01*
X367021Y36776D01*
X367029Y36830D01*
X367029Y39370D01*
X367018Y39435D01*
X367016Y39501D01*
X366998Y39544D01*
X366990Y39591D01*
X366956Y39648D01*
X366931Y39708D01*
X366900Y39743D01*
X366875Y39784D01*
X366824Y39826D01*
X366780Y39874D01*
X366738Y39896D01*
X366701Y39925D01*
X366639Y39946D01*
X366580Y39977D01*
X366526Y39985D01*
X366489Y39997D01*
X366449Y39996D01*
X366395Y40004D01*
X362585Y40004D01*
X362520Y39993D01*
X362454Y39991D01*
X362411Y39973D01*
X362364Y39965D01*
X362307Y39931D01*
X362247Y39906D01*
X362212Y39875D01*
X362171Y39850D01*
X362130Y39799D01*
X362081Y39755D01*
X362059Y39713D01*
X362030Y39676D01*
X362009Y39614D01*
X361978Y39555D01*
X361970Y39501D01*
X361958Y39464D01*
X361958Y39461D01*
X361959Y39424D01*
X361951Y39370D01*
X361951Y36830D01*
X361962Y36765D01*
X361964Y36699D01*
X361982Y36656D01*
X361990Y36609D01*
X362024Y36552D01*
X362049Y36492D01*
X362080Y36457D01*
X362105Y36416D01*
X362156Y36375D01*
X362200Y36326D01*
X362242Y36304D01*
X362279Y36275D01*
X362341Y36254D01*
X362400Y36223D01*
X362454Y36215D01*
X362491Y36203D01*
X362531Y36204D01*
X362585Y36196D01*
X366395Y36196D01*
X366460Y36207D01*
G37*
D10*
X298450Y158750D03*
X311150Y184150D03*
X323850Y158750D03*
X349250Y158750D03*
X374650Y158750D03*
X336550Y184150D03*
X361950Y184150D03*
D11*
X387350Y184150D03*
D12*
X400050Y247650D03*
X285750Y247650D03*
D13*
X228600Y38100D03*
X228600Y241300D03*
X25400Y38100D03*
X25400Y241300D03*
D10*
X12700Y76200D03*
X12700Y101600D03*
D14*
X359283Y241935D03*
X369697Y241935D03*
X359283Y216535D03*
X369697Y216535D03*
D15*
X50800Y50800D03*
X425450Y247650D03*
D10*
X387350Y119380D03*
X374650Y93980D03*
X361950Y119380D03*
X336550Y119380D03*
X311150Y119380D03*
X349250Y93980D03*
X323850Y93980D03*
D11*
X298450Y93980D03*
D12*
X285750Y30480D03*
X400050Y30480D03*
D14*
X359283Y38100D03*
X369697Y38100D03*
X369697Y63500D03*
X359283Y63500D03*
D16*
X190500Y113157D03*
X190500Y102743D03*
D17*
X224536Y190500D03*
X232664Y190500D03*
D10*
X12700Y203200D03*
X12700Y177800D03*
X12700Y152400D03*
X12700Y127000D03*
M02*
