G04 EAGLE Gerber RS-274X export*
G75*
%MOMM*%
%FSLAX34Y34*%
%LPD*%
%INSolderpaste Top*%
%IPPOS*%
%AMOC8*
5,1,8,0,0,1.08239X$1,22.5*%
G01*
%ADD10R,1.200000X2.000000*%
%ADD11R,0.600000X1.350000*%
%ADD12R,1.100000X0.250000*%
%ADD13R,1.100000X1.000000*%
%ADD14R,1.000000X1.100000*%
%ADD15C,0.300000*%
%ADD16R,1.350000X0.550000*%
%ADD17R,1.143000X4.089400*%
%ADD18R,1.600000X1.800000*%
%ADD19R,1.270000X2.060000*%
%ADD20R,1.000000X0.800000*%
%ADD21R,0.700000X1.500000*%


D10*
X99000Y26750D03*
X155000Y26750D03*
D11*
X112000Y63500D03*
X122000Y63500D03*
X132000Y63500D03*
X142000Y63500D03*
D12*
X218710Y134875D03*
X218710Y139875D03*
X218710Y144875D03*
X218710Y149875D03*
X218710Y129825D03*
X264960Y134875D03*
X264960Y139875D03*
X264960Y144875D03*
X264960Y149875D03*
X264960Y129825D03*
D10*
X155000Y252650D03*
X99000Y252650D03*
D11*
X142000Y215900D03*
X132000Y215900D03*
X122000Y215900D03*
X112000Y215900D03*
D13*
X224400Y190500D03*
X207400Y190500D03*
X258200Y171450D03*
X275200Y171450D03*
X224400Y171450D03*
X207400Y171450D03*
X258200Y190500D03*
X275200Y190500D03*
D14*
X215900Y115180D03*
X215900Y98180D03*
X269240Y115180D03*
X269240Y98180D03*
D13*
X80890Y40640D03*
X63890Y40640D03*
D15*
X77660Y28900D02*
X77660Y21900D01*
X77660Y28900D02*
X84660Y28900D01*
X84660Y21900D01*
X77660Y21900D01*
X77660Y24750D02*
X84660Y24750D01*
X84660Y27600D02*
X77660Y27600D01*
X60120Y28900D02*
X60120Y21900D01*
X60120Y28900D02*
X67120Y28900D01*
X67120Y21900D01*
X60120Y21900D01*
X60120Y24750D02*
X67120Y24750D01*
X67120Y27600D02*
X60120Y27600D01*
D16*
X160436Y111150D03*
X160436Y120650D03*
X160436Y130150D03*
X132934Y130150D03*
X132934Y120650D03*
X132934Y111150D03*
D17*
X116332Y121285D03*
X86868Y121285D03*
D13*
X135500Y90805D03*
X118500Y90805D03*
D18*
X88870Y184150D03*
X116870Y184150D03*
X88870Y158750D03*
X116870Y158750D03*
D19*
X136755Y151765D03*
X171855Y151765D03*
D20*
X274385Y42750D03*
X274385Y20750D03*
X171385Y20750D03*
X171385Y42750D03*
D21*
X237885Y49250D03*
X207885Y49250D03*
X192885Y49250D03*
X252885Y49250D03*
M02*
