M48
;GenerationSoftware,Autodesk,EAGLE,9.6.0*%
;CreationDate,2020-07-06T17:09:09Z*%
FMAT,2
ICI,OFF
METRIC,TZ,000.000
T5C0.381
T4C1.000
T3C1.016
T2C3.200
T1C3.302
%
G90
M71
T1
X22860Y24130
X2540Y24130
X2540Y3810
X22860Y3810
T2
X40005Y3048
X28575Y3048
X40005Y24765
X28575Y24765
T3
X1270Y15240
X1270Y17780
X1270Y20320
X1270Y10160
X1270Y7620
X1270Y12700
T4
X34925Y15875
X37465Y15875
X33655Y18415
X36195Y18415
X38735Y18415
X38735Y11938
X37465Y9398
X36195Y11938
X33655Y11938
X31115Y11938
X32385Y9398
X29845Y9398
X34925Y9398
X31115Y18415
X29845Y15875
X32385Y15875
T5
X10160Y15240
X10160Y7620
X11430Y8128
X17780Y18288
X19050Y8001
X18034Y12827
X8890Y9525
X13208Y14986
X17018Y9589
X17780Y20828
X25590Y5461
X23241Y8763
X12700Y8128
X13335Y11925
X20798Y10478
X8890Y13970
X28191Y13840
X17780Y4445
X21907Y10414
X23685Y15684
X33909Y24193
X5524Y2540
X20298Y20044
X24755Y20012
M30