G04 EAGLE Gerber RS-274X export*
G75*
%MOMM*%
%FSLAX34Y34*%
%LPD*%
%INSoldermask Bottom*%
%IPPOS*%
%AMOC8*
5,1,8,0,0,1.08239X$1,22.5*%
G01*
%ADD10C,2.082800*%
%ADD11R,2.082800X2.082800*%
%ADD12C,3.403200*%
%ADD13C,3.505200*%
%ADD14R,0.863600X1.473200*%
%ADD15C,0.838200*%
%ADD16C,1.103200*%
%ADD17R,0.838200X1.473200*%

G36*
X370270Y61607D02*
X370270Y61607D01*
X370336Y61609D01*
X370379Y61627D01*
X370426Y61635D01*
X370483Y61669D01*
X370543Y61694D01*
X370578Y61725D01*
X370619Y61750D01*
X370661Y61801D01*
X370709Y61845D01*
X370731Y61887D01*
X370760Y61924D01*
X370781Y61986D01*
X370812Y62045D01*
X370820Y62099D01*
X370832Y62136D01*
X370831Y62176D01*
X370839Y62230D01*
X370839Y64770D01*
X370828Y64835D01*
X370826Y64901D01*
X370808Y64944D01*
X370800Y64991D01*
X370766Y65048D01*
X370741Y65108D01*
X370710Y65143D01*
X370685Y65184D01*
X370634Y65226D01*
X370590Y65274D01*
X370548Y65296D01*
X370511Y65325D01*
X370449Y65346D01*
X370390Y65377D01*
X370336Y65385D01*
X370299Y65397D01*
X370259Y65396D01*
X370205Y65404D01*
X366395Y65404D01*
X366330Y65393D01*
X366264Y65391D01*
X366221Y65373D01*
X366174Y65365D01*
X366117Y65331D01*
X366057Y65306D01*
X366022Y65275D01*
X365981Y65250D01*
X365940Y65199D01*
X365891Y65155D01*
X365869Y65113D01*
X365840Y65076D01*
X365819Y65014D01*
X365788Y64955D01*
X365780Y64901D01*
X365768Y64864D01*
X365768Y64861D01*
X365769Y64824D01*
X365761Y64770D01*
X365761Y62230D01*
X365772Y62165D01*
X365774Y62099D01*
X365792Y62056D01*
X365800Y62009D01*
X365834Y61952D01*
X365859Y61892D01*
X365890Y61857D01*
X365915Y61816D01*
X365966Y61775D01*
X366010Y61726D01*
X366052Y61704D01*
X366089Y61675D01*
X366151Y61654D01*
X366210Y61623D01*
X366264Y61615D01*
X366301Y61603D01*
X366341Y61604D01*
X366395Y61596D01*
X370205Y61596D01*
X370270Y61607D01*
G37*
G36*
X395670Y61607D02*
X395670Y61607D01*
X395736Y61609D01*
X395779Y61627D01*
X395826Y61635D01*
X395883Y61669D01*
X395943Y61694D01*
X395978Y61725D01*
X396019Y61750D01*
X396061Y61801D01*
X396109Y61845D01*
X396131Y61887D01*
X396160Y61924D01*
X396181Y61986D01*
X396212Y62045D01*
X396220Y62099D01*
X396232Y62136D01*
X396231Y62176D01*
X396239Y62230D01*
X396239Y64770D01*
X396228Y64835D01*
X396226Y64901D01*
X396208Y64944D01*
X396200Y64991D01*
X396166Y65048D01*
X396141Y65108D01*
X396110Y65143D01*
X396085Y65184D01*
X396034Y65226D01*
X395990Y65274D01*
X395948Y65296D01*
X395911Y65325D01*
X395849Y65346D01*
X395790Y65377D01*
X395736Y65385D01*
X395699Y65397D01*
X395659Y65396D01*
X395605Y65404D01*
X391795Y65404D01*
X391730Y65393D01*
X391664Y65391D01*
X391621Y65373D01*
X391574Y65365D01*
X391517Y65331D01*
X391457Y65306D01*
X391422Y65275D01*
X391381Y65250D01*
X391340Y65199D01*
X391291Y65155D01*
X391269Y65113D01*
X391240Y65076D01*
X391219Y65014D01*
X391188Y64955D01*
X391180Y64901D01*
X391168Y64864D01*
X391168Y64861D01*
X391169Y64824D01*
X391161Y64770D01*
X391161Y62230D01*
X391172Y62165D01*
X391174Y62099D01*
X391192Y62056D01*
X391200Y62009D01*
X391234Y61952D01*
X391259Y61892D01*
X391290Y61857D01*
X391315Y61816D01*
X391366Y61775D01*
X391410Y61726D01*
X391452Y61704D01*
X391489Y61675D01*
X391551Y61654D01*
X391610Y61623D01*
X391664Y61615D01*
X391701Y61603D01*
X391741Y61604D01*
X391795Y61596D01*
X395605Y61596D01*
X395670Y61607D01*
G37*
D10*
X323850Y158750D03*
X336550Y184150D03*
X349250Y158750D03*
X374650Y158750D03*
X400050Y158750D03*
X361950Y184150D03*
X387350Y184150D03*
D11*
X412750Y184150D03*
D12*
X425450Y247650D03*
X311150Y247650D03*
D13*
X228600Y241300D03*
X25400Y38100D03*
X25400Y241300D03*
D14*
X398907Y63500D03*
X388493Y63500D03*
X373507Y63500D03*
X363093Y63500D03*
D15*
X50800Y50800D03*
X450850Y247650D03*
D10*
X412750Y119380D03*
X400050Y93980D03*
X387350Y119380D03*
X361950Y119380D03*
X336550Y119380D03*
X374650Y93980D03*
X349250Y93980D03*
D11*
X323850Y93980D03*
D12*
X311150Y30480D03*
X425450Y30480D03*
D10*
X12700Y190500D03*
X12700Y165100D03*
X12700Y139700D03*
X12700Y114300D03*
X469900Y127000D03*
X469900Y152400D03*
D16*
X197885Y31750D03*
X247885Y31750D03*
D17*
X338836Y215900D03*
X346964Y215900D03*
X346964Y63500D03*
X338836Y63500D03*
D10*
X12700Y88900D03*
M02*
