G04 EAGLE Gerber RS-274X export*
G75*
%MOMM*%
%FSLAX34Y34*%
%LPD*%
%INSilkscreen Bottom*%
%IPPOS*%
%AMOC8*
5,1,8,0,0,1.08239X$1,22.5*%
G01*
%ADD10C,0.203200*%
%ADD11R,5.790000X0.040000*%
%ADD12R,8.590000X0.040000*%
%ADD13R,9.200000X0.030000*%
%ADD14R,9.570000X0.040000*%
%ADD15R,9.870000X0.040000*%
%ADD16R,10.060000X0.040000*%
%ADD17R,10.210000X0.030000*%
%ADD18R,10.130000X0.040000*%
%ADD19R,10.210000X0.040000*%
%ADD20R,10.240000X0.040000*%
%ADD21R,10.320000X0.040000*%
%ADD22R,10.400000X0.030000*%
%ADD23R,10.430000X0.040000*%
%ADD24R,10.470000X0.030000*%
%ADD25R,10.500000X0.040000*%
%ADD26R,10.540000X0.040000*%
%ADD27R,10.580000X0.030000*%
%ADD28R,10.580000X0.040000*%
%ADD29R,10.650000X0.040000*%
%ADD30R,10.690000X0.040000*%
%ADD31R,10.690000X0.030000*%
%ADD32R,10.730000X0.040000*%
%ADD33R,1.010000X0.040000*%
%ADD34R,0.300000X0.040000*%
%ADD35R,0.080000X0.040000*%
%ADD36R,0.600000X0.040000*%
%ADD37R,0.560000X0.040000*%
%ADD38R,0.120000X0.040000*%
%ADD39R,0.670000X0.040000*%
%ADD40R,0.190000X0.040000*%
%ADD41R,2.960000X0.040000*%
%ADD42R,0.900000X0.030000*%
%ADD43R,0.190000X0.030000*%
%ADD44R,0.080000X0.030000*%
%ADD45R,0.560000X0.030000*%
%ADD46R,0.040000X0.030000*%
%ADD47R,0.150000X0.030000*%
%ADD48R,2.840000X0.030000*%
%ADD49R,0.830000X0.040000*%
%ADD50R,0.150000X0.040000*%
%ADD51R,0.520000X0.040000*%
%ADD52R,0.490000X0.040000*%
%ADD53R,2.840000X0.040000*%
%ADD54R,0.750000X0.040000*%
%ADD55R,0.410000X0.040000*%
%ADD56R,2.800000X0.040000*%
%ADD57R,0.710000X0.040000*%
%ADD58R,0.040000X0.040000*%
%ADD59R,0.480000X0.040000*%
%ADD60R,0.110000X0.040000*%
%ADD61R,0.340000X0.040000*%
%ADD62R,2.770000X0.040000*%
%ADD63R,0.680000X0.030000*%
%ADD64R,0.440000X0.030000*%
%ADD65R,0.490000X0.030000*%
%ADD66R,0.110000X0.030000*%
%ADD67R,0.300000X0.030000*%
%ADD68R,0.410000X0.030000*%
%ADD69R,2.810000X0.030000*%
%ADD70R,0.640000X0.040000*%
%ADD71R,0.440000X0.040000*%
%ADD72R,0.230000X0.040000*%
%ADD73R,0.630000X0.030000*%
%ADD74R,0.230000X0.030000*%
%ADD75R,0.590000X0.040000*%
%ADD76R,0.380000X0.040000*%
%ADD77R,0.330000X0.040000*%
%ADD78R,1.650000X0.040000*%
%ADD79R,0.780000X0.040000*%
%ADD80R,0.290000X0.040000*%
%ADD81R,0.340000X0.030000*%
%ADD82R,0.330000X0.030000*%
%ADD83R,0.600000X0.030000*%
%ADD84R,0.260000X0.030000*%
%ADD85R,0.420000X0.040000*%
%ADD86R,0.270000X0.040000*%
%ADD87R,0.260000X0.040000*%
%ADD88R,0.450000X0.040000*%
%ADD89R,0.220000X0.040000*%
%ADD90R,0.180000X0.040000*%
%ADD91R,0.520000X0.030000*%
%ADD92R,0.220000X0.030000*%
%ADD93R,0.670000X0.030000*%
%ADD94R,1.310000X0.040000*%
%ADD95R,0.070000X0.040000*%
%ADD96R,0.370000X0.040000*%
%ADD97R,0.640000X0.030000*%
%ADD98R,0.070000X0.030000*%
%ADD99R,1.350000X0.030000*%
%ADD100R,1.280000X0.040000*%
%ADD101R,1.160000X0.040000*%
%ADD102R,0.030000X0.040000*%
%ADD103R,0.980000X0.040000*%
%ADD104R,0.030000X0.030000*%
%ADD105R,0.380000X0.030000*%
%ADD106R,0.890000X0.030000*%
%ADD107R,0.630000X0.040000*%
%ADD108R,0.420000X0.030000*%
%ADD109R,0.450000X0.030000*%
%ADD110R,0.270000X0.030000*%
%ADD111R,0.710000X0.030000*%
%ADD112R,0.860000X0.040000*%
%ADD113R,0.930000X0.030000*%
%ADD114R,0.930000X0.040000*%
%ADD115R,0.530000X0.040000*%
%ADD116R,0.750000X0.030000*%
%ADD117R,0.530000X0.030000*%
%ADD118R,0.370000X0.030000*%
%ADD119R,0.820000X0.040000*%
%ADD120R,0.900000X0.040000*%
%ADD121R,0.970000X0.030000*%
%ADD122R,0.180000X0.030000*%
%ADD123R,1.050000X0.040000*%
%ADD124R,4.640000X0.040000*%
%ADD125R,1.040000X0.040000*%
%ADD126R,1.760000X0.040000*%
%ADD127R,9.160000X0.040000*%
%ADD128R,1.760000X0.030000*%
%ADD129R,9.160000X0.030000*%
%ADD130R,11.400000X0.040000*%
%ADD131R,11.400000X0.030000*%
%ADD132R,8.900000X0.040000*%
%ADD133R,1.380000X0.040000*%
%ADD134R,8.670000X0.030000*%
%ADD135R,1.230000X0.030000*%
%ADD136R,8.600000X0.040000*%
%ADD137R,8.560000X0.040000*%
%ADD138R,1.120000X0.040000*%
%ADD139R,8.520000X0.040000*%
%ADD140R,1.080000X0.040000*%
%ADD141R,8.480000X0.030000*%
%ADD142R,1.270000X0.030000*%
%ADD143R,1.040000X0.030000*%
%ADD144R,8.450000X0.040000*%
%ADD145R,1.420000X0.040000*%
%ADD146R,1.500000X0.040000*%
%ADD147R,2.170000X0.040000*%
%ADD148R,5.570000X0.040000*%
%ADD149R,1.570000X0.040000*%
%ADD150R,0.970000X0.040000*%
%ADD151R,1.420000X0.030000*%
%ADD152R,5.160000X0.030000*%
%ADD153R,1.230000X0.040000*%
%ADD154R,5.010000X0.040000*%
%ADD155R,4.930000X0.040000*%
%ADD156R,0.890000X0.040000*%
%ADD157R,1.080000X0.030000*%
%ADD158R,4.860000X0.030000*%
%ADD159R,4.820000X0.040000*%
%ADD160R,4.750000X0.040000*%
%ADD161R,4.710000X0.040000*%
%ADD162R,4.640000X0.030000*%
%ADD163R,0.480000X0.030000*%
%ADD164R,0.820000X0.030000*%
%ADD165R,4.600000X0.040000*%
%ADD166R,4.520000X0.040000*%
%ADD167R,4.480000X0.040000*%
%ADD168R,0.740000X0.030000*%
%ADD169R,4.410000X0.030000*%
%ADD170R,0.740000X0.040000*%
%ADD171R,4.330000X0.040000*%
%ADD172R,4.290000X0.040000*%
%ADD173R,4.110000X0.040000*%
%ADD174R,0.570000X0.030000*%
%ADD175R,0.570000X0.040000*%
%ADD176R,1.190000X0.040000*%
%ADD177R,1.190000X0.030000*%
%ADD178R,0.940000X0.030000*%
%ADD179R,1.130000X0.040000*%
%ADD180R,0.590000X0.030000*%
%ADD181R,0.680000X0.040000*%
%ADD182R,1.830000X0.040000*%
%ADD183R,1.870000X0.040000*%
%ADD184R,1.800000X0.040000*%
%ADD185R,1.840000X0.040000*%
%ADD186R,1.720000X0.030000*%
%ADD187R,1.640000X0.040000*%
%ADD188R,1.540000X0.040000*%
%ADD189R,1.340000X0.040000*%
%ADD190R,1.270000X0.040000*%
%ADD191C,0.152400*%

G36*
X142425Y18030D02*
X142425Y18030D01*
X142481Y18030D01*
X142509Y18045D01*
X142541Y18050D01*
X142600Y18090D01*
X142636Y18108D01*
X142645Y18120D01*
X142661Y18131D01*
X146969Y22439D01*
X146986Y22466D01*
X147010Y22487D01*
X147031Y22539D01*
X147060Y22586D01*
X147063Y22618D01*
X147075Y22648D01*
X147072Y22703D01*
X147077Y22759D01*
X147065Y22789D01*
X147063Y22821D01*
X147029Y22884D01*
X147015Y22921D01*
X147004Y22931D01*
X146995Y22948D01*
X142028Y29039D01*
X143217Y31349D01*
X143224Y31375D01*
X143241Y31407D01*
X144033Y33881D01*
X151852Y34675D01*
X151883Y34685D01*
X151915Y34686D01*
X151964Y34713D01*
X152016Y34731D01*
X152039Y34754D01*
X152067Y34769D01*
X152099Y34815D01*
X152138Y34854D01*
X152148Y34885D01*
X152167Y34911D01*
X152180Y34981D01*
X152193Y35019D01*
X152191Y35034D01*
X152194Y35053D01*
X152194Y41147D01*
X152187Y41178D01*
X152189Y41210D01*
X152167Y41261D01*
X152155Y41316D01*
X152134Y41340D01*
X152122Y41370D01*
X152080Y41406D01*
X152045Y41449D01*
X152015Y41462D01*
X151991Y41483D01*
X151922Y41504D01*
X151886Y41520D01*
X151871Y41520D01*
X151852Y41525D01*
X144033Y42319D01*
X143241Y44793D01*
X143228Y44816D01*
X143217Y44851D01*
X142028Y47161D01*
X146995Y53252D01*
X147009Y53280D01*
X147030Y53304D01*
X147046Y53357D01*
X147071Y53407D01*
X147071Y53439D01*
X147080Y53470D01*
X147070Y53525D01*
X147070Y53581D01*
X147055Y53609D01*
X147050Y53641D01*
X147010Y53700D01*
X146992Y53736D01*
X146980Y53745D01*
X146969Y53761D01*
X142661Y58069D01*
X142634Y58086D01*
X142613Y58110D01*
X142561Y58131D01*
X142514Y58160D01*
X142482Y58163D01*
X142452Y58175D01*
X142397Y58172D01*
X142341Y58177D01*
X142311Y58165D01*
X142279Y58163D01*
X142216Y58129D01*
X142179Y58115D01*
X142169Y58104D01*
X142152Y58095D01*
X136061Y53128D01*
X133751Y54317D01*
X133725Y54324D01*
X133693Y54341D01*
X131219Y55133D01*
X130425Y62952D01*
X130417Y62978D01*
X130416Y62990D01*
X130415Y62993D01*
X130414Y63015D01*
X130387Y63064D01*
X130369Y63116D01*
X130346Y63139D01*
X130331Y63167D01*
X130285Y63199D01*
X130246Y63238D01*
X130215Y63248D01*
X130189Y63267D01*
X130119Y63280D01*
X130081Y63293D01*
X130066Y63291D01*
X130047Y63294D01*
X123953Y63294D01*
X123922Y63287D01*
X123890Y63289D01*
X123839Y63267D01*
X123784Y63255D01*
X123760Y63234D01*
X123730Y63222D01*
X123694Y63180D01*
X123651Y63145D01*
X123638Y63115D01*
X123617Y63091D01*
X123596Y63022D01*
X123580Y62986D01*
X123580Y62971D01*
X123578Y62964D01*
X123577Y62962D01*
X123577Y62961D01*
X123575Y62952D01*
X122781Y55133D01*
X120307Y54341D01*
X120284Y54328D01*
X120249Y54317D01*
X117939Y53128D01*
X111848Y58095D01*
X111820Y58109D01*
X111796Y58130D01*
X111743Y58146D01*
X111693Y58171D01*
X111661Y58171D01*
X111630Y58180D01*
X111575Y58170D01*
X111519Y58170D01*
X111491Y58155D01*
X111459Y58150D01*
X111400Y58110D01*
X111365Y58092D01*
X111355Y58080D01*
X111339Y58069D01*
X107031Y53761D01*
X107014Y53734D01*
X106990Y53713D01*
X106969Y53661D01*
X106940Y53614D01*
X106937Y53582D01*
X106925Y53552D01*
X106929Y53497D01*
X106923Y53441D01*
X106935Y53411D01*
X106937Y53379D01*
X106971Y53316D01*
X106985Y53279D01*
X106996Y53269D01*
X107005Y53252D01*
X111972Y47161D01*
X110783Y44851D01*
X110776Y44825D01*
X110759Y44793D01*
X109967Y42319D01*
X102148Y41525D01*
X102117Y41515D01*
X102085Y41514D01*
X102036Y41487D01*
X101984Y41469D01*
X101961Y41446D01*
X101933Y41431D01*
X101901Y41385D01*
X101862Y41346D01*
X101852Y41315D01*
X101833Y41289D01*
X101820Y41219D01*
X101807Y41181D01*
X101809Y41166D01*
X101806Y41147D01*
X101806Y35053D01*
X101813Y35022D01*
X101811Y34990D01*
X101833Y34939D01*
X101845Y34884D01*
X101866Y34860D01*
X101878Y34830D01*
X101920Y34794D01*
X101955Y34751D01*
X101985Y34738D01*
X102009Y34717D01*
X102078Y34696D01*
X102114Y34680D01*
X102129Y34680D01*
X102148Y34675D01*
X109967Y33881D01*
X110759Y31407D01*
X110772Y31384D01*
X110783Y31349D01*
X111972Y29039D01*
X107005Y22948D01*
X106991Y22920D01*
X106970Y22896D01*
X106954Y22843D01*
X106929Y22793D01*
X106929Y22761D01*
X106920Y22730D01*
X106930Y22675D01*
X106930Y22619D01*
X106945Y22591D01*
X106950Y22559D01*
X106990Y22500D01*
X107008Y22465D01*
X107020Y22455D01*
X107031Y22439D01*
X111339Y18131D01*
X111366Y18114D01*
X111387Y18090D01*
X111439Y18069D01*
X111486Y18040D01*
X111518Y18037D01*
X111548Y18025D01*
X111603Y18029D01*
X111659Y18023D01*
X111689Y18035D01*
X111721Y18037D01*
X111784Y18071D01*
X111821Y18085D01*
X111831Y18096D01*
X111848Y18105D01*
X117939Y23072D01*
X120248Y21882D01*
X120312Y21866D01*
X120375Y21843D01*
X120396Y21845D01*
X120416Y21840D01*
X120481Y21854D01*
X120547Y21861D01*
X120565Y21872D01*
X120585Y21877D01*
X120637Y21918D01*
X120693Y21954D01*
X120706Y21973D01*
X120721Y21985D01*
X120737Y22020D01*
X120773Y22074D01*
X124361Y30736D01*
X124366Y30768D01*
X124380Y30796D01*
X124380Y30852D01*
X124389Y30907D01*
X124380Y30938D01*
X124380Y30969D01*
X124355Y31020D01*
X124339Y31073D01*
X124317Y31096D01*
X124303Y31125D01*
X124247Y31171D01*
X124220Y31199D01*
X124206Y31204D01*
X124191Y31217D01*
X122814Y31961D01*
X121648Y32945D01*
X120708Y34147D01*
X120034Y35515D01*
X119653Y36993D01*
X119581Y38517D01*
X119823Y40023D01*
X120367Y41449D01*
X121191Y42733D01*
X122260Y43822D01*
X123528Y44670D01*
X124943Y45240D01*
X126445Y45510D01*
X127970Y45467D01*
X129454Y45114D01*
X130835Y44464D01*
X132054Y43547D01*
X133060Y42400D01*
X133811Y41071D01*
X134274Y39618D01*
X134431Y38099D01*
X134288Y36650D01*
X133865Y35256D01*
X133179Y33972D01*
X132255Y32846D01*
X131129Y31922D01*
X129811Y31217D01*
X129786Y31196D01*
X129757Y31182D01*
X129722Y31139D01*
X129681Y31103D01*
X129668Y31073D01*
X129648Y31048D01*
X129636Y30994D01*
X129615Y30943D01*
X129617Y30910D01*
X129610Y30878D01*
X129624Y30809D01*
X129627Y30770D01*
X129635Y30756D01*
X129639Y30736D01*
X133227Y22074D01*
X133266Y22020D01*
X133298Y21963D01*
X133315Y21951D01*
X133328Y21934D01*
X133386Y21903D01*
X133441Y21865D01*
X133462Y21862D01*
X133481Y21852D01*
X133547Y21851D01*
X133613Y21841D01*
X133636Y21848D01*
X133654Y21847D01*
X133689Y21864D01*
X133752Y21882D01*
X136061Y23072D01*
X142152Y18105D01*
X142180Y18091D01*
X142204Y18070D01*
X142257Y18054D01*
X142307Y18029D01*
X142339Y18029D01*
X142370Y18020D01*
X142425Y18030D01*
G37*
G36*
X470909Y53708D02*
X470909Y53708D01*
X470916Y53703D01*
X471515Y53903D01*
X472214Y54103D01*
X472215Y54104D01*
X472216Y54103D01*
X472816Y54303D01*
X472821Y54311D01*
X472827Y54309D01*
X473425Y54707D01*
X474022Y55006D01*
X474027Y55016D01*
X474035Y55015D01*
X474533Y55513D01*
X475031Y55912D01*
X475033Y55922D01*
X475041Y55923D01*
X475441Y56523D01*
X475441Y56525D01*
X475442Y56525D01*
X475742Y57024D01*
X476141Y57623D01*
X476141Y57627D01*
X476141Y57628D01*
X476140Y57634D01*
X476147Y57636D01*
X476187Y57775D01*
X476229Y57923D01*
X476243Y57972D01*
X476285Y58120D01*
X476286Y58120D01*
X476285Y58120D01*
X476328Y58268D01*
X476342Y58317D01*
X476347Y58335D01*
X476547Y58934D01*
X476545Y58941D01*
X476549Y58943D01*
X476749Y60343D01*
X476746Y60348D01*
X476749Y60350D01*
X476749Y113750D01*
X476746Y113754D01*
X476749Y113757D01*
X476649Y114453D01*
X476649Y115150D01*
X476642Y115159D01*
X476647Y115166D01*
X476447Y115765D01*
X476247Y116464D01*
X476242Y116468D01*
X476244Y116472D01*
X475944Y117072D01*
X475940Y117074D01*
X475941Y117077D01*
X475541Y117677D01*
X475538Y117678D01*
X475538Y117681D01*
X474738Y118681D01*
X474734Y118682D01*
X474735Y118685D01*
X474235Y119185D01*
X474228Y119186D01*
X474227Y119191D01*
X473627Y119591D01*
X473626Y119591D01*
X473625Y119592D01*
X473125Y119892D01*
X473122Y119892D01*
X473122Y119894D01*
X472522Y120194D01*
X472515Y120193D01*
X472514Y120197D01*
X471815Y120397D01*
X471216Y120597D01*
X471209Y120595D01*
X471207Y120599D01*
X470507Y120699D01*
X470502Y120696D01*
X470500Y120699D01*
X469100Y120699D01*
X469091Y120692D01*
X469084Y120697D01*
X468489Y120498D01*
X467793Y120399D01*
X467785Y120391D01*
X467778Y120394D01*
X465978Y119494D01*
X465975Y119487D01*
X465969Y119488D01*
X465469Y119088D01*
X465468Y119084D01*
X465465Y119085D01*
X464465Y118085D01*
X464464Y118073D01*
X464456Y118072D01*
X464157Y117475D01*
X463759Y116877D01*
X463760Y116868D01*
X463753Y116866D01*
X463353Y115666D01*
X463354Y115664D01*
X463353Y115664D01*
X463327Y115572D01*
X463284Y115424D01*
X463270Y115375D01*
X463228Y115227D01*
X463186Y115080D01*
X463172Y115030D01*
X463153Y114964D01*
X463155Y114959D01*
X463151Y114957D01*
X463051Y114257D01*
X463054Y114252D01*
X463051Y114250D01*
X463051Y60450D01*
X463054Y60446D01*
X463051Y60443D01*
X463251Y59043D01*
X463256Y59038D01*
X463253Y59034D01*
X463453Y58435D01*
X463653Y57736D01*
X463658Y57732D01*
X463656Y57728D01*
X463956Y57128D01*
X463963Y57125D01*
X463962Y57119D01*
X464360Y56621D01*
X464759Y56023D01*
X464762Y56022D01*
X464762Y56019D01*
X465162Y55519D01*
X465172Y55517D01*
X465173Y55509D01*
X465771Y55110D01*
X466269Y54712D01*
X466277Y54711D01*
X466278Y54706D01*
X467478Y54106D01*
X467485Y54107D01*
X467486Y54103D01*
X468186Y53903D01*
X468190Y53904D01*
X468192Y53901D01*
X468792Y53801D01*
X468793Y53802D01*
X468793Y53801D01*
X469493Y53701D01*
X469498Y53704D01*
X469500Y53701D01*
X470900Y53701D01*
X470909Y53708D01*
G37*
G36*
X55842Y132755D02*
X55842Y132755D01*
X55851Y132752D01*
X56551Y132852D01*
X56562Y132858D01*
X56571Y132857D01*
X57271Y133057D01*
X57274Y133059D01*
X57277Y133058D01*
X58477Y133458D01*
X58496Y133474D01*
X58513Y133476D01*
X59105Y133871D01*
X59697Y134167D01*
X59717Y134188D01*
X59736Y134194D01*
X60736Y135194D01*
X60740Y135204D01*
X60747Y135207D01*
X61147Y135707D01*
X61152Y135725D01*
X61164Y135733D01*
X62064Y137533D01*
X62066Y137562D01*
X62078Y137579D01*
X62176Y138269D01*
X62374Y138959D01*
X62371Y138984D01*
X62379Y139000D01*
X62379Y140300D01*
X62375Y140312D01*
X62378Y140321D01*
X62278Y141021D01*
X62270Y141035D01*
X62272Y141047D01*
X62073Y141644D01*
X61874Y142341D01*
X61863Y142354D01*
X61864Y142367D01*
X61264Y143567D01*
X61254Y143575D01*
X61252Y143586D01*
X61248Y143588D01*
X61247Y143593D01*
X60847Y144093D01*
X60838Y144098D01*
X60836Y144106D01*
X59836Y145106D01*
X59819Y145113D01*
X59813Y145124D01*
X59213Y145524D01*
X59209Y145525D01*
X59207Y145528D01*
X58707Y145828D01*
X58695Y145830D01*
X58689Y145837D01*
X57989Y146137D01*
X57981Y146137D01*
X57977Y146142D01*
X57377Y146342D01*
X57373Y146341D01*
X57371Y146344D01*
X56671Y146544D01*
X56661Y146543D01*
X56655Y146547D01*
X56055Y146647D01*
X56040Y146644D01*
X56030Y146649D01*
X55530Y146649D01*
X55524Y146647D01*
X55518Y146649D01*
X55500Y146638D01*
X55481Y146630D01*
X55449Y146640D01*
X55430Y146649D01*
X24330Y146649D01*
X24318Y146645D01*
X24309Y146648D01*
X22909Y146448D01*
X22895Y146440D01*
X22883Y146442D01*
X22283Y146242D01*
X22273Y146233D01*
X22263Y146234D01*
X21063Y145634D01*
X21056Y145625D01*
X21047Y145624D01*
X20447Y145224D01*
X20443Y145218D01*
X20437Y145217D01*
X19937Y144817D01*
X19932Y144808D01*
X19924Y144806D01*
X19424Y144306D01*
X19417Y144289D01*
X19406Y144283D01*
X19009Y143688D01*
X18613Y143193D01*
X18608Y143175D01*
X18597Y143167D01*
X18297Y142567D01*
X18295Y142550D01*
X18287Y142541D01*
X18087Y141844D01*
X17888Y141247D01*
X17889Y141231D01*
X17882Y141221D01*
X17682Y139821D01*
X17689Y139794D01*
X17683Y139775D01*
X17781Y139188D01*
X17781Y138500D01*
X17790Y138476D01*
X17787Y138459D01*
X17987Y137759D01*
X17989Y137756D01*
X17988Y137753D01*
X18188Y137153D01*
X18197Y137143D01*
X18197Y137133D01*
X18797Y135933D01*
X18805Y135926D01*
X18806Y135917D01*
X19206Y135317D01*
X19220Y135307D01*
X19224Y135294D01*
X19724Y134794D01*
X19734Y134790D01*
X19737Y134783D01*
X20737Y133983D01*
X20744Y133981D01*
X20747Y133976D01*
X21347Y133576D01*
X21358Y133573D01*
X21363Y133567D01*
X21963Y133267D01*
X21980Y133265D01*
X21989Y133257D01*
X22686Y133057D01*
X23283Y132858D01*
X23312Y132860D01*
X23330Y132851D01*
X24019Y132851D01*
X24709Y132752D01*
X24721Y132755D01*
X24730Y132751D01*
X55830Y132751D01*
X55842Y132755D01*
G37*
G36*
X470304Y158084D02*
X470304Y158084D01*
X470307Y158081D01*
X471707Y158281D01*
X471712Y158286D01*
X471716Y158283D01*
X472316Y158483D01*
X472319Y158488D01*
X472322Y158486D01*
X473522Y159086D01*
X473524Y159090D01*
X473527Y159089D01*
X474127Y159489D01*
X474130Y159496D01*
X474135Y159495D01*
X475135Y160495D01*
X475135Y160499D01*
X475138Y160499D01*
X475538Y160999D01*
X475539Y161007D01*
X475544Y161008D01*
X476444Y162808D01*
X476442Y162819D01*
X476449Y162823D01*
X476549Y163522D01*
X476649Y164122D01*
X476648Y164123D01*
X476649Y164123D01*
X476749Y164823D01*
X476746Y164828D01*
X476749Y164830D01*
X476749Y195330D01*
X476746Y195334D01*
X476749Y195337D01*
X476549Y196737D01*
X476544Y196742D01*
X476547Y196746D01*
X476147Y197946D01*
X476139Y197951D01*
X476141Y197957D01*
X475743Y198555D01*
X475444Y199152D01*
X475437Y199155D01*
X475438Y199161D01*
X475038Y199661D01*
X475034Y199662D01*
X475035Y199665D01*
X474035Y200665D01*
X474023Y200666D01*
X474022Y200674D01*
X472222Y201574D01*
X472215Y201573D01*
X472214Y201577D01*
X471514Y201777D01*
X471510Y201776D01*
X471508Y201779D01*
X470908Y201879D01*
X470907Y201878D01*
X470907Y201879D01*
X470207Y201979D01*
X470202Y201976D01*
X470200Y201979D01*
X469500Y201979D01*
X469496Y201976D01*
X469493Y201979D01*
X468793Y201879D01*
X468792Y201878D01*
X468792Y201879D01*
X468192Y201779D01*
X468189Y201775D01*
X468186Y201777D01*
X467486Y201577D01*
X467482Y201572D01*
X467478Y201574D01*
X466278Y200974D01*
X466275Y200967D01*
X466269Y200968D01*
X465769Y200568D01*
X465768Y200568D01*
X465168Y200068D01*
X465167Y200061D01*
X465162Y200061D01*
X464362Y199061D01*
X464361Y199057D01*
X464359Y199057D01*
X463959Y198457D01*
X463959Y198453D01*
X463956Y198452D01*
X463656Y197852D01*
X463657Y197847D01*
X463653Y197846D01*
X463453Y197246D01*
X463454Y197244D01*
X463453Y197244D01*
X463440Y197199D01*
X463426Y197149D01*
X463384Y197002D01*
X463341Y196854D01*
X463327Y196805D01*
X463285Y196657D01*
X463253Y196544D01*
X463254Y196540D01*
X463251Y196538D01*
X463151Y195938D01*
X463152Y195937D01*
X463151Y195937D01*
X463051Y195237D01*
X463054Y195232D01*
X463051Y195230D01*
X463051Y164630D01*
X463054Y164626D01*
X463051Y164623D01*
X463151Y163923D01*
X463152Y163922D01*
X463151Y163922D01*
X463251Y163322D01*
X463255Y163319D01*
X463253Y163316D01*
X463453Y162616D01*
X463458Y162612D01*
X463456Y162608D01*
X464356Y160808D01*
X464366Y160803D01*
X464365Y160795D01*
X465365Y159795D01*
X465369Y159795D01*
X465369Y159792D01*
X466369Y158992D01*
X466377Y158991D01*
X466378Y158986D01*
X466978Y158686D01*
X466985Y158687D01*
X466986Y158683D01*
X467685Y158483D01*
X468284Y158283D01*
X468286Y158284D01*
X468286Y158283D01*
X468986Y158083D01*
X468996Y158086D01*
X469000Y158081D01*
X470300Y158081D01*
X470304Y158084D01*
G37*
G36*
X52802Y107355D02*
X52802Y107355D01*
X52811Y107352D01*
X53501Y107451D01*
X54190Y107451D01*
X54217Y107461D01*
X54237Y107458D01*
X54834Y107657D01*
X55531Y107857D01*
X55544Y107867D01*
X55557Y107867D01*
X56157Y108167D01*
X56164Y108175D01*
X56173Y108176D01*
X56773Y108576D01*
X56777Y108582D01*
X56779Y108583D01*
X56783Y108583D01*
X57783Y109383D01*
X57788Y109392D01*
X57796Y109394D01*
X58296Y109894D01*
X58303Y109911D01*
X58314Y109917D01*
X58714Y110517D01*
X58715Y110521D01*
X58718Y110523D01*
X59018Y111023D01*
X59019Y111030D01*
X59024Y111033D01*
X59324Y111633D01*
X59325Y111650D01*
X59334Y111659D01*
X59532Y112355D01*
X59732Y112953D01*
X59731Y112969D01*
X59738Y112979D01*
X59838Y113679D01*
X59835Y113691D01*
X59839Y113700D01*
X59839Y115100D01*
X59829Y115127D01*
X59832Y115147D01*
X59636Y115734D01*
X59538Y116421D01*
X59523Y116447D01*
X59524Y116467D01*
X58624Y118267D01*
X58609Y118280D01*
X58607Y118293D01*
X58207Y118793D01*
X58198Y118798D01*
X58196Y118806D01*
X57196Y119806D01*
X57169Y119817D01*
X57157Y119834D01*
X56565Y120129D01*
X55973Y120524D01*
X55949Y120529D01*
X55937Y120542D01*
X54737Y120942D01*
X54733Y120941D01*
X54731Y120944D01*
X54031Y121144D01*
X54019Y121142D01*
X54011Y121148D01*
X53311Y121248D01*
X53299Y121245D01*
X53290Y121249D01*
X52990Y121249D01*
X52983Y121246D01*
X52975Y121249D01*
X52956Y121236D01*
X52942Y121231D01*
X52913Y121238D01*
X52890Y121249D01*
X24490Y121249D01*
X24478Y121245D01*
X24469Y121248D01*
X23769Y121148D01*
X23755Y121140D01*
X23743Y121142D01*
X23146Y120943D01*
X22449Y120744D01*
X22446Y120741D01*
X22443Y120742D01*
X21843Y120542D01*
X21824Y120526D01*
X21807Y120524D01*
X21207Y120124D01*
X21203Y120118D01*
X21197Y120117D01*
X20197Y119317D01*
X20192Y119308D01*
X20184Y119306D01*
X19684Y118806D01*
X19680Y118796D01*
X19673Y118793D01*
X19273Y118293D01*
X19271Y118286D01*
X19266Y118283D01*
X18866Y117683D01*
X18863Y117672D01*
X18857Y117667D01*
X18557Y117067D01*
X18555Y117050D01*
X18547Y117041D01*
X18347Y116344D01*
X18148Y115747D01*
X18149Y115733D01*
X18146Y115726D01*
X18142Y115721D01*
X18042Y115021D01*
X18045Y115009D01*
X18041Y115000D01*
X18041Y113700D01*
X18045Y113688D01*
X18042Y113679D01*
X18142Y112979D01*
X18148Y112968D01*
X18147Y112959D01*
X18347Y112259D01*
X18349Y112256D01*
X18348Y112253D01*
X18548Y111653D01*
X18557Y111643D01*
X18557Y111633D01*
X19157Y110433D01*
X19171Y110420D01*
X19173Y110407D01*
X19573Y109907D01*
X19582Y109902D01*
X19584Y109894D01*
X20584Y108894D01*
X20594Y108890D01*
X20597Y108883D01*
X21097Y108483D01*
X21115Y108478D01*
X21123Y108467D01*
X22323Y107867D01*
X22340Y107865D01*
X22349Y107857D01*
X23046Y107657D01*
X23643Y107458D01*
X23659Y107459D01*
X23669Y107452D01*
X24369Y107352D01*
X24381Y107355D01*
X24390Y107351D01*
X52790Y107351D01*
X52802Y107355D01*
G37*
G36*
X58244Y183556D02*
X58244Y183556D01*
X58255Y183553D01*
X58855Y183653D01*
X58885Y183671D01*
X58919Y183680D01*
X58927Y183695D01*
X58947Y183707D01*
X58970Y183782D01*
X58979Y183800D01*
X58979Y197300D01*
X58962Y197344D01*
X58950Y197389D01*
X58944Y197392D01*
X58941Y197400D01*
X58845Y197449D01*
X58836Y197446D01*
X58830Y197449D01*
X55530Y197449D01*
X55529Y197449D01*
X55528Y197449D01*
X55523Y197447D01*
X55480Y197430D01*
X55442Y197443D01*
X55430Y197449D01*
X21630Y197449D01*
X21616Y197444D01*
X21605Y197447D01*
X21005Y197347D01*
X20975Y197329D01*
X20941Y197320D01*
X20933Y197305D01*
X20913Y197293D01*
X20890Y197218D01*
X20881Y197200D01*
X20881Y183700D01*
X20898Y183656D01*
X20910Y183611D01*
X20916Y183608D01*
X20919Y183600D01*
X21015Y183551D01*
X21024Y183554D01*
X21030Y183551D01*
X58230Y183551D01*
X58244Y183556D01*
G37*
G36*
X368906Y4235D02*
X368906Y4235D01*
X368910Y4232D01*
X369410Y4332D01*
X369414Y4337D01*
X369418Y4334D01*
X370918Y4934D01*
X370921Y4939D01*
X370925Y4938D01*
X371425Y5238D01*
X371427Y5241D01*
X371430Y5241D01*
X371830Y5541D01*
X371831Y5546D01*
X371835Y5545D01*
X372635Y6345D01*
X372636Y6350D01*
X372639Y6350D01*
X372939Y6750D01*
X372939Y6760D01*
X372946Y6762D01*
X373144Y7258D01*
X373442Y7755D01*
X373442Y7761D01*
X373445Y7763D01*
X373442Y7768D01*
X373448Y7770D01*
X373648Y8770D01*
X373648Y8771D01*
X373649Y8772D01*
X373749Y9372D01*
X373746Y9377D01*
X373749Y9380D01*
X373749Y53180D01*
X373713Y53227D01*
X373706Y53222D01*
X373700Y53229D01*
X363400Y53229D01*
X363394Y53225D01*
X363390Y53228D01*
X362890Y53128D01*
X362851Y53084D01*
X362853Y53082D01*
X362851Y53080D01*
X362851Y9280D01*
X362855Y9274D01*
X362852Y9270D01*
X363052Y8270D01*
X363055Y8267D01*
X363053Y8264D01*
X363253Y7664D01*
X363258Y7661D01*
X363256Y7658D01*
X363456Y7258D01*
X363459Y7257D01*
X363458Y7255D01*
X364058Y6255D01*
X364061Y6253D01*
X364061Y6250D01*
X364361Y5850D01*
X364370Y5848D01*
X364370Y5841D01*
X364770Y5541D01*
X365269Y5142D01*
X365277Y5141D01*
X365278Y5136D01*
X365677Y4937D01*
X366175Y4638D01*
X366181Y4638D01*
X366182Y4634D01*
X366682Y4434D01*
X366688Y4436D01*
X366690Y4432D01*
X367190Y4332D01*
X367191Y4332D01*
X367192Y4331D01*
X367792Y4231D01*
X367797Y4234D01*
X367800Y4231D01*
X368900Y4231D01*
X368906Y4235D01*
G37*
G36*
X394306Y4235D02*
X394306Y4235D01*
X394310Y4232D01*
X394810Y4332D01*
X394814Y4337D01*
X394818Y4334D01*
X396318Y4934D01*
X396321Y4939D01*
X396325Y4938D01*
X396825Y5238D01*
X396827Y5241D01*
X396830Y5241D01*
X397230Y5541D01*
X397231Y5546D01*
X397235Y5545D01*
X398035Y6345D01*
X398036Y6350D01*
X398039Y6350D01*
X398339Y6750D01*
X398339Y6760D01*
X398346Y6762D01*
X398544Y7258D01*
X398842Y7755D01*
X398842Y7761D01*
X398845Y7763D01*
X398842Y7768D01*
X398848Y7770D01*
X399048Y8770D01*
X399048Y8771D01*
X399049Y8772D01*
X399149Y9372D01*
X399146Y9377D01*
X399149Y9380D01*
X399149Y53180D01*
X399113Y53227D01*
X399106Y53222D01*
X399100Y53229D01*
X388800Y53229D01*
X388794Y53225D01*
X388790Y53228D01*
X388290Y53128D01*
X388251Y53084D01*
X388253Y53082D01*
X388251Y53080D01*
X388251Y9280D01*
X388255Y9274D01*
X388252Y9270D01*
X388452Y8270D01*
X388455Y8267D01*
X388453Y8264D01*
X388653Y7664D01*
X388658Y7661D01*
X388656Y7658D01*
X388856Y7258D01*
X388859Y7257D01*
X388858Y7255D01*
X389458Y6255D01*
X389461Y6253D01*
X389461Y6250D01*
X389761Y5850D01*
X389770Y5848D01*
X389770Y5841D01*
X390170Y5541D01*
X390669Y5142D01*
X390677Y5141D01*
X390678Y5136D01*
X391077Y4937D01*
X391575Y4638D01*
X391581Y4638D01*
X391582Y4634D01*
X392082Y4434D01*
X392088Y4436D01*
X392090Y4432D01*
X392590Y4332D01*
X392591Y4332D01*
X392592Y4331D01*
X393192Y4231D01*
X393197Y4234D01*
X393200Y4231D01*
X394300Y4231D01*
X394306Y4235D01*
G37*
G36*
X58363Y158163D02*
X58363Y158163D01*
X58385Y158161D01*
X58885Y158361D01*
X58900Y158375D01*
X58919Y158380D01*
X58931Y158403D01*
X58964Y158435D01*
X58968Y158477D01*
X58979Y158500D01*
X58979Y171400D01*
X58967Y171433D01*
X58969Y171455D01*
X58769Y171955D01*
X58758Y171966D01*
X58757Y171971D01*
X58755Y171972D01*
X58750Y171989D01*
X58727Y172001D01*
X58695Y172034D01*
X58653Y172038D01*
X58630Y172049D01*
X55530Y172049D01*
X55524Y172047D01*
X55517Y172049D01*
X55498Y172037D01*
X55481Y172031D01*
X55452Y172038D01*
X55430Y172049D01*
X22330Y172049D01*
X22316Y172044D01*
X22305Y172047D01*
X21705Y171947D01*
X21675Y171929D01*
X21641Y171920D01*
X21633Y171905D01*
X21613Y171893D01*
X21590Y171818D01*
X21581Y171800D01*
X21581Y158900D01*
X21586Y158886D01*
X21583Y158875D01*
X21683Y158275D01*
X21701Y158245D01*
X21710Y158211D01*
X21725Y158203D01*
X21737Y158183D01*
X21812Y158160D01*
X21830Y158151D01*
X58330Y158151D01*
X58363Y158163D01*
G37*
G36*
X46814Y81956D02*
X46814Y81956D01*
X46825Y81953D01*
X47425Y82053D01*
X47517Y82107D01*
X47522Y82124D01*
X47533Y82132D01*
X50933Y88732D01*
X50933Y88733D01*
X50933Y88736D01*
X50940Y88801D01*
X50940Y88802D01*
X50944Y88838D01*
X50933Y88853D01*
X50934Y88867D01*
X50634Y89466D01*
X47634Y95566D01*
X47555Y95639D01*
X47550Y95639D01*
X47547Y95642D01*
X46947Y95842D01*
X46918Y95840D01*
X46900Y95849D01*
X44100Y95849D01*
X44082Y95842D01*
X44063Y95845D01*
X44053Y95836D01*
X44023Y95838D01*
X44000Y95849D01*
X21000Y95849D01*
X20900Y95811D01*
X20893Y95798D01*
X20883Y95793D01*
X20483Y95293D01*
X20478Y95276D01*
X20467Y95269D01*
X17367Y89269D01*
X17360Y89198D01*
X17353Y89175D01*
X17453Y88575D01*
X17466Y88553D01*
X17466Y88534D01*
X20466Y82434D01*
X20488Y82414D01*
X20494Y82394D01*
X20894Y81994D01*
X20993Y81951D01*
X20997Y81952D01*
X21000Y81951D01*
X46800Y81951D01*
X46814Y81956D01*
G37*
G36*
X348247Y226207D02*
X348247Y226207D01*
X348247Y226208D01*
X348248Y226208D01*
X348348Y226608D01*
X348344Y226616D01*
X348349Y226620D01*
X348349Y253820D01*
X348342Y253829D01*
X348347Y253836D01*
X348148Y254433D01*
X348048Y254930D01*
X348043Y254934D01*
X348046Y254938D01*
X347846Y255438D01*
X347838Y255443D01*
X347839Y255450D01*
X347541Y255848D01*
X347242Y256345D01*
X347234Y256349D01*
X347235Y256355D01*
X346435Y257155D01*
X346430Y257156D01*
X346430Y257159D01*
X345630Y257759D01*
X345620Y257759D01*
X345618Y257766D01*
X344618Y258166D01*
X344616Y258165D01*
X344616Y258167D01*
X344016Y258367D01*
X344011Y258365D01*
X344010Y258368D01*
X343510Y258468D01*
X343503Y258465D01*
X343500Y258469D01*
X342400Y258469D01*
X342394Y258465D01*
X342390Y258468D01*
X341390Y258268D01*
X341386Y258263D01*
X341382Y258266D01*
X340382Y257866D01*
X340379Y257861D01*
X340375Y257862D01*
X339875Y257562D01*
X339873Y257559D01*
X339870Y257559D01*
X339470Y257259D01*
X339469Y257254D01*
X339465Y257255D01*
X338665Y256455D01*
X338664Y256450D01*
X338661Y256450D01*
X338361Y256050D01*
X338361Y256046D01*
X338358Y256045D01*
X338058Y255545D01*
X338058Y255540D01*
X338058Y255539D01*
X338054Y255538D01*
X337654Y254538D01*
X337656Y254532D01*
X337652Y254530D01*
X337552Y254030D01*
X337552Y254029D01*
X337551Y254028D01*
X337451Y253428D01*
X337454Y253423D01*
X337451Y253420D01*
X337451Y226320D01*
X337487Y226273D01*
X337488Y226273D01*
X337488Y226272D01*
X337888Y226172D01*
X337896Y226176D01*
X337900Y226171D01*
X348200Y226171D01*
X348247Y226207D01*
G37*
G36*
X343406Y20935D02*
X343406Y20935D01*
X343410Y20932D01*
X344410Y21132D01*
X344414Y21137D01*
X344418Y21134D01*
X345418Y21534D01*
X345421Y21539D01*
X345425Y21538D01*
X345925Y21838D01*
X345927Y21841D01*
X345930Y21841D01*
X346330Y22141D01*
X346331Y22146D01*
X346335Y22145D01*
X347135Y22945D01*
X347136Y22950D01*
X347139Y22950D01*
X347439Y23350D01*
X347439Y23354D01*
X347442Y23355D01*
X347742Y23855D01*
X347742Y23861D01*
X347746Y23862D01*
X348146Y24862D01*
X348144Y24868D01*
X348148Y24870D01*
X348248Y25370D01*
X348248Y25371D01*
X348249Y25372D01*
X348349Y25972D01*
X348346Y25977D01*
X348349Y25980D01*
X348349Y53080D01*
X348313Y53127D01*
X348312Y53127D01*
X348312Y53128D01*
X347912Y53228D01*
X347904Y53224D01*
X347900Y53229D01*
X337600Y53229D01*
X337553Y53193D01*
X337553Y53192D01*
X337552Y53192D01*
X337452Y52792D01*
X337456Y52784D01*
X337451Y52780D01*
X337451Y25580D01*
X337458Y25571D01*
X337453Y25564D01*
X337652Y24967D01*
X337752Y24470D01*
X337757Y24466D01*
X337754Y24462D01*
X337954Y23962D01*
X337962Y23957D01*
X337961Y23950D01*
X338259Y23552D01*
X338558Y23055D01*
X338566Y23051D01*
X338565Y23045D01*
X339365Y22245D01*
X339370Y22244D01*
X339370Y22241D01*
X340170Y21641D01*
X340180Y21641D01*
X340182Y21634D01*
X341182Y21234D01*
X341184Y21235D01*
X341184Y21233D01*
X341784Y21033D01*
X341789Y21035D01*
X341790Y21032D01*
X342290Y20932D01*
X342297Y20935D01*
X342300Y20931D01*
X343400Y20931D01*
X343406Y20935D01*
G37*
G36*
X118140Y214091D02*
X118140Y214091D01*
X118191Y214093D01*
X118223Y214111D01*
X118259Y214119D01*
X118298Y214152D01*
X118343Y214176D01*
X118364Y214206D01*
X118392Y214229D01*
X118413Y214276D01*
X118443Y214318D01*
X118451Y214360D01*
X118463Y214388D01*
X118462Y214418D01*
X118470Y214460D01*
X118470Y227260D01*
X118466Y227278D01*
X118468Y227302D01*
X118268Y229102D01*
X118257Y229133D01*
X118251Y229180D01*
X118051Y229780D01*
X118038Y229800D01*
X118030Y229830D01*
X117730Y230430D01*
X117722Y230440D01*
X117716Y230456D01*
X117416Y230956D01*
X117402Y230970D01*
X117393Y230989D01*
X117316Y231059D01*
X117295Y231080D01*
X117290Y231082D01*
X117286Y231086D01*
X116802Y231376D01*
X116418Y231664D01*
X116383Y231679D01*
X116331Y231713D01*
X115331Y232113D01*
X115298Y232118D01*
X115253Y232135D01*
X114653Y232235D01*
X114626Y232233D01*
X114590Y232240D01*
X113790Y232240D01*
X113754Y232232D01*
X113698Y232229D01*
X113343Y232140D01*
X113190Y232140D01*
X113175Y232137D01*
X113160Y232139D01*
X113028Y232102D01*
X113021Y232101D01*
X113021Y232100D01*
X113020Y232100D01*
X112820Y232000D01*
X112801Y231984D01*
X112777Y231975D01*
X112735Y231929D01*
X112687Y231889D01*
X112677Y231867D01*
X112660Y231848D01*
X112642Y231788D01*
X112616Y231731D01*
X112618Y231706D01*
X112610Y231682D01*
X112621Y231620D01*
X112624Y231558D01*
X112636Y231536D01*
X112640Y231511D01*
X112689Y231438D01*
X112707Y231406D01*
X112715Y231401D01*
X112721Y231391D01*
X112821Y231291D01*
X112853Y231271D01*
X112920Y231220D01*
X113320Y231020D01*
X113343Y231014D01*
X113370Y230999D01*
X113585Y230928D01*
X113895Y230618D01*
X114045Y230392D01*
X114110Y230198D01*
X114110Y230022D01*
X114038Y229806D01*
X113878Y229485D01*
X113648Y229256D01*
X113412Y229098D01*
X112981Y228926D01*
X112552Y228840D01*
X111837Y228840D01*
X111146Y229013D01*
X110650Y229344D01*
X110329Y229745D01*
X110170Y230222D01*
X110170Y230782D01*
X110416Y231355D01*
X111076Y232109D01*
X111874Y233007D01*
X111875Y233009D01*
X111876Y233010D01*
X112576Y233810D01*
X112592Y233839D01*
X112622Y233875D01*
X113122Y234775D01*
X113133Y234813D01*
X113161Y234878D01*
X113361Y235778D01*
X113361Y235811D01*
X113370Y235860D01*
X113370Y236660D01*
X113362Y236697D01*
X113351Y236780D01*
X113051Y237680D01*
X113030Y237714D01*
X112999Y237781D01*
X112499Y238481D01*
X112473Y238504D01*
X112443Y238544D01*
X111543Y239344D01*
X111512Y239361D01*
X111472Y239394D01*
X110372Y239994D01*
X110336Y240004D01*
X110258Y240034D01*
X109158Y240234D01*
X109129Y240233D01*
X109090Y240240D01*
X108090Y240240D01*
X108053Y240232D01*
X107970Y240221D01*
X107070Y239921D01*
X107064Y239917D01*
X107057Y239916D01*
X106257Y239616D01*
X106242Y239606D01*
X106220Y239600D01*
X106054Y239517D01*
X105620Y239300D01*
X105598Y239282D01*
X105562Y239264D01*
X105162Y238964D01*
X105147Y238946D01*
X105121Y238929D01*
X105021Y238829D01*
X105008Y238807D01*
X104988Y238791D01*
X104962Y238734D01*
X104930Y238682D01*
X104927Y238656D01*
X104917Y238632D01*
X104919Y238571D01*
X104913Y238509D01*
X104922Y238485D01*
X104923Y238459D01*
X104953Y238405D01*
X104975Y238347D01*
X104994Y238330D01*
X105006Y238307D01*
X105057Y238272D01*
X105102Y238230D01*
X105127Y238222D01*
X105148Y238207D01*
X105232Y238191D01*
X105268Y238180D01*
X105278Y238182D01*
X105290Y238180D01*
X105590Y238180D01*
X105627Y238188D01*
X105710Y238199D01*
X105952Y238280D01*
X106143Y238280D01*
X106498Y238191D01*
X106506Y238191D01*
X106515Y238187D01*
X106966Y238097D01*
X107289Y237935D01*
X107610Y237695D01*
X107745Y237492D01*
X107829Y237240D01*
X107842Y237220D01*
X107850Y237190D01*
X107938Y237014D01*
X107989Y236860D01*
X107929Y236680D01*
X107928Y236667D01*
X107921Y236652D01*
X107837Y236316D01*
X107674Y236071D01*
X107666Y236051D01*
X107650Y236030D01*
X107478Y235685D01*
X107248Y235456D01*
X106979Y235276D01*
X106972Y235269D01*
X106962Y235264D01*
X106570Y234971D01*
X106299Y234790D01*
X105867Y234574D01*
X105600Y234440D01*
X105052Y234440D01*
X104859Y234505D01*
X104710Y234604D01*
X104570Y235022D01*
X104570Y235760D01*
X104558Y235810D01*
X104558Y235831D01*
X104557Y235855D01*
X104556Y235862D01*
X104539Y235894D01*
X104531Y235929D01*
X104498Y235969D01*
X104473Y236014D01*
X104443Y236035D01*
X104421Y236062D01*
X104373Y236084D01*
X104331Y236113D01*
X104295Y236119D01*
X104262Y236133D01*
X104211Y236131D01*
X104160Y236139D01*
X104119Y236128D01*
X104089Y236127D01*
X104062Y236112D01*
X104020Y236100D01*
X104009Y236095D01*
X103249Y235715D01*
X103220Y235700D01*
X103216Y235697D01*
X103106Y235613D01*
X102306Y234713D01*
X102291Y234685D01*
X102262Y234652D01*
X101562Y233452D01*
X101553Y233423D01*
X101532Y233388D01*
X101032Y231988D01*
X101029Y231962D01*
X101016Y231930D01*
X100716Y230330D01*
X100718Y230294D01*
X100710Y230239D01*
X100810Y228439D01*
X100820Y228407D01*
X100824Y228358D01*
X101324Y226558D01*
X101341Y226527D01*
X101358Y226475D01*
X102358Y224675D01*
X102375Y224657D01*
X102390Y224627D01*
X103090Y223727D01*
X103097Y223721D01*
X103101Y223713D01*
X103111Y223707D01*
X103121Y223691D01*
X103921Y222891D01*
X103931Y222885D01*
X103940Y222874D01*
X104740Y222174D01*
X104765Y222160D01*
X104794Y222134D01*
X105794Y221534D01*
X105819Y221526D01*
X105849Y221507D01*
X106849Y221107D01*
X106868Y221104D01*
X106890Y221093D01*
X107990Y220793D01*
X108007Y220793D01*
X108028Y220785D01*
X109228Y220585D01*
X109254Y220587D01*
X109290Y220580D01*
X111159Y220580D01*
X111656Y220497D01*
X112072Y220247D01*
X113022Y219487D01*
X113498Y218917D01*
X113510Y218907D01*
X113521Y218891D01*
X114799Y217614D01*
X115281Y216939D01*
X115301Y216921D01*
X115321Y216891D01*
X115909Y216303D01*
X116398Y215717D01*
X116410Y215707D01*
X116421Y215691D01*
X116902Y215210D01*
X117186Y214832D01*
X117204Y214817D01*
X117221Y214791D01*
X117495Y214518D01*
X117674Y214249D01*
X117693Y214231D01*
X117706Y214207D01*
X117756Y214172D01*
X117800Y214131D01*
X117826Y214123D01*
X117848Y214107D01*
X117929Y214092D01*
X117966Y214081D01*
X117977Y214082D01*
X117990Y214080D01*
X118090Y214080D01*
X118140Y214091D01*
G37*
G36*
X163829Y188591D02*
X163829Y188591D01*
X163891Y188593D01*
X163913Y188606D01*
X163939Y188610D01*
X164010Y188658D01*
X164043Y188676D01*
X164049Y188684D01*
X164059Y188691D01*
X164944Y189576D01*
X166428Y190763D01*
X166439Y190778D01*
X166459Y190791D01*
X167344Y191676D01*
X167828Y192063D01*
X167834Y192071D01*
X167843Y192076D01*
X167887Y192139D01*
X167935Y192199D01*
X167937Y192209D01*
X167943Y192218D01*
X167958Y192299D01*
X167963Y192310D01*
X167963Y192322D01*
X167970Y192360D01*
X167970Y210860D01*
X167969Y210864D01*
X167970Y210869D01*
X167950Y210949D01*
X167931Y211029D01*
X167928Y211032D01*
X167927Y211037D01*
X167873Y211099D01*
X167821Y211162D01*
X167816Y211164D01*
X167814Y211168D01*
X167682Y211229D01*
X167282Y211329D01*
X167274Y211329D01*
X167265Y211333D01*
X166765Y211433D01*
X166733Y211432D01*
X166690Y211440D01*
X166237Y211440D01*
X165882Y211529D01*
X165874Y211529D01*
X165865Y211533D01*
X165373Y211631D01*
X164982Y211729D01*
X164974Y211729D01*
X164965Y211733D01*
X163965Y211933D01*
X163963Y211933D01*
X163962Y211933D01*
X163878Y211930D01*
X163791Y211927D01*
X163790Y211927D01*
X163789Y211927D01*
X163715Y211886D01*
X163639Y211845D01*
X163638Y211844D01*
X163637Y211844D01*
X163589Y211775D01*
X163538Y211704D01*
X163538Y211703D01*
X163537Y211702D01*
X163510Y211560D01*
X163510Y210778D01*
X163359Y210929D01*
X163343Y210939D01*
X163328Y210957D01*
X162828Y211357D01*
X162807Y211367D01*
X162786Y211386D01*
X161786Y211986D01*
X161773Y211990D01*
X161653Y212035D01*
X160453Y212235D01*
X160426Y212233D01*
X160390Y212240D01*
X159690Y212240D01*
X159679Y212238D01*
X159665Y212239D01*
X158165Y212139D01*
X158128Y212128D01*
X158062Y212118D01*
X156662Y211618D01*
X156633Y211599D01*
X156586Y211581D01*
X155486Y210881D01*
X155459Y210853D01*
X155407Y210814D01*
X154507Y209814D01*
X154494Y209791D01*
X154469Y209764D01*
X153769Y208664D01*
X153757Y208628D01*
X153727Y208572D01*
X153327Y207272D01*
X153326Y207257D01*
X153318Y207240D01*
X153018Y205840D01*
X153019Y205816D01*
X153011Y205785D01*
X152911Y204285D01*
X152914Y204263D01*
X152911Y204233D01*
X153011Y202833D01*
X153018Y202809D01*
X153020Y202775D01*
X153320Y201475D01*
X153332Y201450D01*
X153339Y201414D01*
X153839Y200214D01*
X153849Y200199D01*
X153856Y200178D01*
X154456Y199078D01*
X154482Y199049D01*
X154521Y198991D01*
X155421Y198091D01*
X155443Y198078D01*
X155466Y198052D01*
X156566Y197252D01*
X156602Y197237D01*
X156670Y197199D01*
X157870Y196799D01*
X157900Y196796D01*
X157940Y196783D01*
X159440Y196583D01*
X159479Y196587D01*
X159553Y196585D01*
X161353Y196885D01*
X161389Y196900D01*
X161460Y196920D01*
X161590Y196985D01*
X162060Y197220D01*
X162070Y197228D01*
X162086Y197234D01*
X163086Y197834D01*
X163106Y197854D01*
X163187Y197922D01*
X163410Y198201D01*
X163410Y188960D01*
X163416Y188935D01*
X163413Y188909D01*
X163435Y188852D01*
X163449Y188791D01*
X163466Y188771D01*
X163475Y188747D01*
X163520Y188705D01*
X163559Y188658D01*
X163583Y188647D01*
X163602Y188630D01*
X163661Y188612D01*
X163718Y188587D01*
X163743Y188588D01*
X163768Y188580D01*
X163829Y188591D01*
G37*
G36*
X147820Y196587D02*
X147820Y196587D01*
X147865Y196587D01*
X148328Y196680D01*
X148790Y196680D01*
X148826Y196688D01*
X148882Y196691D01*
X149282Y196791D01*
X149302Y196801D01*
X149331Y196807D01*
X149831Y197007D01*
X149843Y197015D01*
X149860Y197020D01*
X150260Y197220D01*
X150276Y197233D01*
X150301Y197244D01*
X150581Y197431D01*
X150960Y197620D01*
X150989Y197644D01*
X151059Y197691D01*
X151359Y197991D01*
X151375Y198018D01*
X151406Y198049D01*
X151601Y198340D01*
X151894Y198732D01*
X151898Y198741D01*
X151906Y198749D01*
X152106Y199049D01*
X152107Y199050D01*
X152108Y199051D01*
X152163Y199185D01*
X152253Y199636D01*
X152430Y199990D01*
X152434Y200005D01*
X152443Y200018D01*
X152469Y200152D01*
X152470Y200159D01*
X152470Y200160D01*
X152470Y200622D01*
X152563Y201085D01*
X152563Y201095D01*
X152564Y201228D01*
X152364Y202328D01*
X152355Y202350D01*
X152351Y202380D01*
X152051Y203280D01*
X152034Y203307D01*
X152020Y203349D01*
X151620Y204049D01*
X151597Y204073D01*
X151537Y204149D01*
X150837Y204749D01*
X150811Y204763D01*
X150779Y204790D01*
X150079Y205190D01*
X150053Y205198D01*
X150024Y205216D01*
X149224Y205516D01*
X149205Y205519D01*
X149182Y205529D01*
X148382Y205729D01*
X148360Y205729D01*
X148332Y205738D01*
X147432Y205838D01*
X145638Y206037D01*
X144969Y206133D01*
X144303Y206323D01*
X143750Y206508D01*
X143350Y206748D01*
X143170Y206987D01*
X143170Y207870D01*
X143403Y208335D01*
X143459Y208391D01*
X143479Y208423D01*
X143530Y208490D01*
X143573Y208577D01*
X143980Y208780D01*
X144090Y208780D01*
X144105Y208783D01*
X144120Y208781D01*
X144252Y208818D01*
X144259Y208819D01*
X144259Y208820D01*
X144260Y208820D01*
X144380Y208880D01*
X146000Y208880D01*
X146865Y208448D01*
X147178Y208135D01*
X147238Y208014D01*
X147329Y207740D01*
X147342Y207720D01*
X147350Y207690D01*
X147410Y207570D01*
X147410Y207160D01*
X147421Y207110D01*
X147423Y207059D01*
X147441Y207027D01*
X147449Y206991D01*
X147482Y206952D01*
X147506Y206907D01*
X147536Y206886D01*
X147559Y206858D01*
X147606Y206837D01*
X147648Y206807D01*
X147690Y206799D01*
X147718Y206787D01*
X147748Y206788D01*
X147790Y206780D01*
X151690Y206780D01*
X151770Y206798D01*
X151850Y206815D01*
X151854Y206818D01*
X151859Y206819D01*
X151922Y206872D01*
X151986Y206922D01*
X151988Y206926D01*
X151992Y206929D01*
X152026Y207004D01*
X152061Y207078D01*
X152061Y207083D01*
X152063Y207088D01*
X152062Y207115D01*
X152065Y207223D01*
X151865Y208423D01*
X151855Y208446D01*
X151855Y208448D01*
X151854Y208468D01*
X151852Y208473D01*
X151851Y208480D01*
X151651Y209080D01*
X151631Y209112D01*
X151594Y209188D01*
X151306Y209572D01*
X151016Y210056D01*
X151004Y210068D01*
X150994Y210088D01*
X150694Y210488D01*
X150669Y210509D01*
X150662Y210522D01*
X150647Y210533D01*
X150618Y210564D01*
X150218Y210864D01*
X150202Y210871D01*
X150186Y210886D01*
X149186Y211486D01*
X149161Y211494D01*
X149131Y211513D01*
X148631Y211713D01*
X148602Y211717D01*
X148565Y211733D01*
X148088Y211828D01*
X147510Y212021D01*
X147485Y212023D01*
X147453Y212035D01*
X146859Y212134D01*
X146365Y212233D01*
X146333Y212232D01*
X146290Y212240D01*
X143990Y212240D01*
X143960Y212233D01*
X143915Y212233D01*
X143452Y212140D01*
X142890Y212140D01*
X142860Y212133D01*
X142815Y212133D01*
X142315Y212033D01*
X142289Y212021D01*
X142249Y212013D01*
X141781Y211826D01*
X141315Y211733D01*
X141289Y211721D01*
X141249Y211713D01*
X140749Y211513D01*
X140718Y211491D01*
X140662Y211464D01*
X139462Y210564D01*
X139437Y210534D01*
X139386Y210488D01*
X139086Y210088D01*
X139074Y210062D01*
X139050Y210030D01*
X138850Y209630D01*
X138847Y209616D01*
X138837Y209601D01*
X138637Y209101D01*
X138633Y209072D01*
X138617Y209035D01*
X138517Y208535D01*
X138518Y208503D01*
X138510Y208460D01*
X138510Y199850D01*
X138450Y199730D01*
X138446Y199715D01*
X138437Y199702D01*
X138411Y199568D01*
X138410Y199562D01*
X138410Y199561D01*
X138410Y199560D01*
X138410Y198750D01*
X138350Y198630D01*
X138346Y198615D01*
X138337Y198602D01*
X138328Y198556D01*
X138327Y198553D01*
X138327Y198551D01*
X138311Y198468D01*
X138310Y198462D01*
X138310Y198461D01*
X138310Y198460D01*
X138310Y198350D01*
X138250Y198230D01*
X138246Y198215D01*
X138237Y198202D01*
X138211Y198068D01*
X138210Y198062D01*
X138210Y198061D01*
X138210Y198060D01*
X138210Y197850D01*
X138178Y197785D01*
X138121Y197729D01*
X138081Y197664D01*
X138037Y197602D01*
X138035Y197590D01*
X138030Y197582D01*
X138026Y197545D01*
X138010Y197460D01*
X138010Y197360D01*
X138021Y197310D01*
X138023Y197259D01*
X138041Y197227D01*
X138049Y197191D01*
X138082Y197152D01*
X138106Y197107D01*
X138136Y197086D01*
X138159Y197058D01*
X138206Y197037D01*
X138248Y197007D01*
X138290Y196999D01*
X138318Y196987D01*
X138348Y196988D01*
X138390Y196980D01*
X142290Y196980D01*
X142340Y196991D01*
X142391Y196993D01*
X142423Y197011D01*
X142459Y197019D01*
X142498Y197052D01*
X142543Y197076D01*
X142564Y197106D01*
X142592Y197129D01*
X142613Y197176D01*
X142643Y197218D01*
X142651Y197260D01*
X142663Y197288D01*
X142663Y197298D01*
X142699Y197356D01*
X142743Y197418D01*
X142745Y197430D01*
X142750Y197438D01*
X142754Y197475D01*
X142756Y197489D01*
X142759Y197491D01*
X142799Y197556D01*
X142843Y197618D01*
X142845Y197630D01*
X142850Y197638D01*
X142854Y197675D01*
X142870Y197760D01*
X142870Y197909D01*
X142883Y197930D01*
X143021Y197791D01*
X143048Y197775D01*
X143079Y197744D01*
X143379Y197544D01*
X143415Y197530D01*
X143470Y197499D01*
X143722Y197415D01*
X143979Y197244D01*
X144015Y197230D01*
X144070Y197199D01*
X145270Y196799D01*
X145307Y196796D01*
X145390Y196780D01*
X145628Y196780D01*
X145870Y196699D01*
X145907Y196696D01*
X145990Y196680D01*
X146328Y196680D01*
X146570Y196599D01*
X146607Y196596D01*
X146690Y196580D01*
X147790Y196580D01*
X147820Y196587D01*
G37*
G36*
X116822Y196987D02*
X116822Y196987D01*
X116856Y196985D01*
X116906Y197007D01*
X116959Y197019D01*
X116984Y197040D01*
X117015Y197053D01*
X117062Y197105D01*
X117092Y197129D01*
X117099Y197145D01*
X117113Y197160D01*
X120769Y203066D01*
X121810Y202095D01*
X121810Y197360D01*
X121821Y197310D01*
X121823Y197259D01*
X121841Y197227D01*
X121849Y197191D01*
X121882Y197152D01*
X121906Y197107D01*
X121936Y197086D01*
X121959Y197058D01*
X122006Y197037D01*
X122048Y197007D01*
X122090Y196999D01*
X122118Y196987D01*
X122148Y196988D01*
X122190Y196980D01*
X126090Y196980D01*
X126140Y196991D01*
X126191Y196993D01*
X126223Y197011D01*
X126259Y197019D01*
X126298Y197052D01*
X126343Y197076D01*
X126364Y197106D01*
X126392Y197129D01*
X126413Y197176D01*
X126443Y197218D01*
X126451Y197260D01*
X126463Y197288D01*
X126462Y197318D01*
X126470Y197360D01*
X126470Y214760D01*
X126460Y214803D01*
X126460Y214848D01*
X126441Y214887D01*
X126431Y214929D01*
X126402Y214963D01*
X126382Y215003D01*
X126343Y215036D01*
X126321Y215062D01*
X126297Y215073D01*
X126270Y215095D01*
X122370Y217195D01*
X122315Y217210D01*
X122262Y217233D01*
X122232Y217232D01*
X122203Y217240D01*
X122147Y217229D01*
X122089Y217227D01*
X122063Y217212D01*
X122033Y217206D01*
X121988Y217171D01*
X121937Y217144D01*
X121920Y217119D01*
X121896Y217101D01*
X121870Y217049D01*
X121837Y217002D01*
X121831Y216968D01*
X121819Y216945D01*
X121820Y216910D01*
X121810Y216860D01*
X121810Y207405D01*
X117564Y211823D01*
X117497Y211867D01*
X117432Y211913D01*
X117424Y211914D01*
X117419Y211918D01*
X117386Y211922D01*
X117290Y211940D01*
X112690Y211940D01*
X112663Y211934D01*
X112636Y211936D01*
X112580Y211914D01*
X112521Y211901D01*
X112500Y211883D01*
X112474Y211873D01*
X112434Y211829D01*
X112388Y211791D01*
X112376Y211765D01*
X112358Y211745D01*
X112341Y211687D01*
X112317Y211632D01*
X112318Y211605D01*
X112310Y211578D01*
X112321Y211519D01*
X112323Y211459D01*
X112337Y211435D01*
X112342Y211408D01*
X112388Y211341D01*
X112406Y211307D01*
X112416Y211300D01*
X112424Y211289D01*
X117501Y206307D01*
X111772Y197568D01*
X111747Y197499D01*
X111717Y197432D01*
X111717Y197419D01*
X111713Y197406D01*
X111721Y197333D01*
X111723Y197259D01*
X111730Y197247D01*
X111731Y197234D01*
X111771Y197172D01*
X111806Y197107D01*
X111817Y197099D01*
X111825Y197088D01*
X111888Y197050D01*
X111948Y197007D01*
X111963Y197004D01*
X111973Y196998D01*
X112012Y196995D01*
X112090Y196980D01*
X116790Y196980D01*
X116822Y196987D01*
G37*
G36*
X77340Y196991D02*
X77340Y196991D01*
X77391Y196993D01*
X77423Y197011D01*
X77459Y197019D01*
X77498Y197052D01*
X77543Y197076D01*
X77564Y197106D01*
X77592Y197129D01*
X77613Y197176D01*
X77643Y197218D01*
X77651Y197260D01*
X77663Y197288D01*
X77662Y197318D01*
X77670Y197360D01*
X77670Y205336D01*
X77767Y206109D01*
X77866Y206803D01*
X77953Y207326D01*
X78206Y207748D01*
X78450Y208072D01*
X78829Y208300D01*
X79259Y208386D01*
X79798Y208476D01*
X80535Y208384D01*
X81056Y208297D01*
X81436Y208069D01*
X81777Y207642D01*
X82051Y207187D01*
X82318Y206562D01*
X82410Y205739D01*
X82410Y197360D01*
X82421Y197310D01*
X82423Y197259D01*
X82441Y197227D01*
X82449Y197191D01*
X82482Y197152D01*
X82506Y197107D01*
X82536Y197086D01*
X82559Y197058D01*
X82606Y197037D01*
X82648Y197007D01*
X82690Y196999D01*
X82718Y196987D01*
X82748Y196988D01*
X82790Y196980D01*
X86690Y196980D01*
X86740Y196991D01*
X86791Y196993D01*
X86823Y197011D01*
X86859Y197019D01*
X86898Y197052D01*
X86943Y197076D01*
X86964Y197106D01*
X86992Y197129D01*
X87013Y197176D01*
X87043Y197218D01*
X87051Y197260D01*
X87063Y197288D01*
X87062Y197318D01*
X87070Y197360D01*
X87070Y211560D01*
X87059Y211610D01*
X87057Y211661D01*
X87039Y211693D01*
X87031Y211729D01*
X86998Y211768D01*
X86974Y211813D01*
X86944Y211834D01*
X86921Y211862D01*
X86874Y211883D01*
X86832Y211913D01*
X86790Y211921D01*
X86762Y211933D01*
X86732Y211932D01*
X86690Y211940D01*
X82990Y211940D01*
X82940Y211929D01*
X82889Y211927D01*
X82857Y211909D01*
X82821Y211901D01*
X82782Y211868D01*
X82737Y211844D01*
X82716Y211814D01*
X82688Y211791D01*
X82667Y211744D01*
X82637Y211702D01*
X82629Y211660D01*
X82617Y211632D01*
X82618Y211602D01*
X82610Y211560D01*
X82610Y210578D01*
X82359Y210829D01*
X82343Y210839D01*
X82328Y210857D01*
X81828Y211257D01*
X81814Y211263D01*
X81801Y211276D01*
X81201Y211676D01*
X81165Y211690D01*
X81110Y211721D01*
X79910Y212121D01*
X79885Y212123D01*
X79853Y212135D01*
X79253Y212235D01*
X79226Y212233D01*
X79190Y212240D01*
X78590Y212240D01*
X78578Y212237D01*
X78563Y212239D01*
X77163Y212139D01*
X77133Y212130D01*
X77090Y212127D01*
X75990Y211827D01*
X75958Y211810D01*
X75905Y211792D01*
X75005Y211292D01*
X74977Y211266D01*
X74921Y211229D01*
X74221Y210529D01*
X74203Y210499D01*
X74168Y210462D01*
X73668Y209662D01*
X73655Y209625D01*
X73626Y209569D01*
X73326Y208569D01*
X73325Y208550D01*
X73316Y208528D01*
X73116Y207428D01*
X73117Y207411D01*
X73111Y207389D01*
X73011Y206089D01*
X73013Y206076D01*
X73010Y206060D01*
X73010Y197360D01*
X73021Y197310D01*
X73023Y197259D01*
X73041Y197227D01*
X73049Y197191D01*
X73082Y197152D01*
X73106Y197107D01*
X73136Y197086D01*
X73159Y197058D01*
X73206Y197037D01*
X73248Y197007D01*
X73290Y196999D01*
X73318Y196987D01*
X73348Y196988D01*
X73390Y196980D01*
X77290Y196980D01*
X77340Y196991D01*
G37*
G36*
X98317Y196681D02*
X98317Y196681D01*
X98354Y196692D01*
X98420Y196703D01*
X99520Y197103D01*
X99542Y197117D01*
X99575Y197128D01*
X100475Y197628D01*
X100498Y197649D01*
X100537Y197671D01*
X101237Y198271D01*
X101254Y198294D01*
X101322Y198375D01*
X101822Y199275D01*
X101832Y199308D01*
X101854Y199351D01*
X102154Y200351D01*
X102155Y200370D01*
X102164Y200392D01*
X102364Y201492D01*
X102363Y201521D01*
X102370Y201560D01*
X102370Y211560D01*
X102359Y211610D01*
X102357Y211661D01*
X102339Y211693D01*
X102331Y211729D01*
X102298Y211768D01*
X102274Y211813D01*
X102244Y211834D01*
X102221Y211862D01*
X102174Y211883D01*
X102132Y211913D01*
X102090Y211921D01*
X102062Y211933D01*
X102032Y211932D01*
X101990Y211940D01*
X98190Y211940D01*
X98140Y211929D01*
X98089Y211927D01*
X98057Y211909D01*
X98021Y211901D01*
X97982Y211868D01*
X97937Y211844D01*
X97916Y211814D01*
X97888Y211791D01*
X97867Y211744D01*
X97837Y211702D01*
X97829Y211660D01*
X97817Y211632D01*
X97818Y211602D01*
X97810Y211560D01*
X97810Y203584D01*
X97614Y202015D01*
X97530Y201514D01*
X97031Y200848D01*
X96651Y200620D01*
X96221Y200534D01*
X95682Y200444D01*
X94945Y200536D01*
X94424Y200623D01*
X94026Y200862D01*
X93703Y201185D01*
X93435Y201720D01*
X93161Y202360D01*
X93070Y203084D01*
X93070Y211560D01*
X93059Y211610D01*
X93057Y211661D01*
X93039Y211693D01*
X93031Y211729D01*
X92998Y211768D01*
X92974Y211813D01*
X92944Y211834D01*
X92921Y211862D01*
X92874Y211883D01*
X92832Y211913D01*
X92790Y211921D01*
X92762Y211933D01*
X92732Y211932D01*
X92690Y211940D01*
X88790Y211940D01*
X88740Y211929D01*
X88689Y211927D01*
X88657Y211909D01*
X88621Y211901D01*
X88582Y211868D01*
X88537Y211844D01*
X88516Y211814D01*
X88488Y211791D01*
X88467Y211744D01*
X88437Y211702D01*
X88429Y211660D01*
X88417Y211632D01*
X88418Y211602D01*
X88410Y211560D01*
X88410Y197360D01*
X88421Y197310D01*
X88423Y197259D01*
X88441Y197227D01*
X88449Y197191D01*
X88482Y197152D01*
X88506Y197107D01*
X88536Y197086D01*
X88559Y197058D01*
X88606Y197037D01*
X88648Y197007D01*
X88690Y196999D01*
X88718Y196987D01*
X88748Y196988D01*
X88790Y196980D01*
X92490Y196980D01*
X92540Y196991D01*
X92591Y196993D01*
X92623Y197011D01*
X92659Y197019D01*
X92698Y197052D01*
X92743Y197076D01*
X92764Y197106D01*
X92792Y197129D01*
X92813Y197176D01*
X92843Y197218D01*
X92851Y197260D01*
X92863Y197288D01*
X92862Y197318D01*
X92870Y197360D01*
X92870Y198301D01*
X93093Y198022D01*
X93120Y198001D01*
X93152Y197963D01*
X93652Y197563D01*
X93682Y197549D01*
X93720Y197520D01*
X94320Y197220D01*
X94334Y197217D01*
X94349Y197207D01*
X94849Y197007D01*
X94859Y197005D01*
X94870Y196999D01*
X95470Y196799D01*
X95499Y196797D01*
X95536Y196784D01*
X96233Y196684D01*
X96828Y196585D01*
X96863Y196587D01*
X96917Y196581D01*
X98317Y196681D01*
G37*
G36*
X176922Y196681D02*
X176922Y196681D01*
X176935Y196685D01*
X176953Y196685D01*
X178153Y196885D01*
X178168Y196892D01*
X178190Y196893D01*
X179290Y197193D01*
X179318Y197208D01*
X179360Y197220D01*
X179680Y197380D01*
X180360Y197720D01*
X180389Y197744D01*
X180440Y197774D01*
X181240Y198474D01*
X181258Y198499D01*
X181290Y198527D01*
X181990Y199427D01*
X182006Y199462D01*
X182043Y199519D01*
X182443Y200519D01*
X182448Y200553D01*
X182466Y200602D01*
X182666Y201902D01*
X182660Y201982D01*
X182657Y202061D01*
X182653Y202067D01*
X182652Y202075D01*
X182612Y202143D01*
X182574Y202213D01*
X182568Y202217D01*
X182564Y202224D01*
X182497Y202267D01*
X182432Y202313D01*
X182424Y202314D01*
X182418Y202318D01*
X182385Y202322D01*
X182290Y202340D01*
X178590Y202340D01*
X178540Y202329D01*
X178489Y202327D01*
X178457Y202309D01*
X178421Y202301D01*
X178382Y202268D01*
X178337Y202244D01*
X178316Y202214D01*
X178288Y202191D01*
X178267Y202144D01*
X178237Y202102D01*
X178229Y202060D01*
X178217Y202032D01*
X178218Y202002D01*
X178210Y201960D01*
X178210Y201433D01*
X178056Y201048D01*
X177818Y200732D01*
X177136Y200220D01*
X176628Y200135D01*
X176622Y200133D01*
X176615Y200133D01*
X176121Y200034D01*
X175606Y199948D01*
X175282Y200029D01*
X175246Y200029D01*
X175190Y200040D01*
X174837Y200040D01*
X174523Y200119D01*
X174191Y200285D01*
X173840Y200548D01*
X173633Y200754D01*
X173482Y201360D01*
X173549Y201627D01*
X173690Y201910D01*
X174002Y202144D01*
X174450Y202412D01*
X174996Y202595D01*
X176573Y202989D01*
X177565Y203187D01*
X177568Y203189D01*
X177573Y203189D01*
X178473Y203389D01*
X178493Y203399D01*
X178524Y203404D01*
X179324Y203704D01*
X179330Y203708D01*
X179340Y203711D01*
X180040Y204011D01*
X180055Y204022D01*
X180079Y204030D01*
X180779Y204430D01*
X180787Y204438D01*
X180801Y204444D01*
X181401Y204844D01*
X181402Y204845D01*
X181405Y204846D01*
X181506Y204949D01*
X181906Y205549D01*
X181917Y205577D01*
X181940Y205610D01*
X182240Y206310D01*
X182246Y206349D01*
X182252Y206368D01*
X182264Y206394D01*
X182264Y206404D01*
X182268Y206418D01*
X182368Y207318D01*
X182364Y207349D01*
X182369Y207392D01*
X182269Y208592D01*
X182257Y208629D01*
X182243Y208701D01*
X181843Y209701D01*
X181823Y209730D01*
X181776Y209810D01*
X181076Y210610D01*
X181057Y210624D01*
X181037Y210649D01*
X180337Y211249D01*
X180305Y211266D01*
X180260Y211300D01*
X179260Y211800D01*
X179223Y211809D01*
X179165Y211833D01*
X178165Y212033D01*
X178162Y212033D01*
X178158Y212034D01*
X177058Y212234D01*
X177029Y212233D01*
X176990Y212240D01*
X174690Y212240D01*
X174662Y212234D01*
X174622Y212234D01*
X173522Y212034D01*
X173505Y212027D01*
X173481Y212024D01*
X172481Y211724D01*
X172462Y211714D01*
X172436Y211707D01*
X171536Y211307D01*
X171508Y211287D01*
X171462Y211264D01*
X170662Y210664D01*
X170637Y210634D01*
X170586Y210588D01*
X169986Y209788D01*
X169974Y209762D01*
X169950Y209730D01*
X169450Y208730D01*
X169441Y208692D01*
X169415Y208623D01*
X169215Y207423D01*
X169220Y207341D01*
X169223Y207259D01*
X169226Y207255D01*
X169226Y207250D01*
X169267Y207179D01*
X169306Y207107D01*
X169310Y207104D01*
X169313Y207100D01*
X169381Y207054D01*
X169448Y207007D01*
X169453Y207006D01*
X169457Y207004D01*
X169485Y207000D01*
X169590Y206980D01*
X173290Y206980D01*
X173303Y206983D01*
X173317Y206981D01*
X173387Y207002D01*
X173459Y207019D01*
X173469Y207028D01*
X173482Y207032D01*
X173536Y207083D01*
X173592Y207129D01*
X173598Y207142D01*
X173608Y207151D01*
X173663Y207285D01*
X173756Y207751D01*
X173928Y208182D01*
X174064Y208386D01*
X174281Y208531D01*
X174646Y208713D01*
X175063Y208880D01*
X176628Y208880D01*
X176870Y208799D01*
X176883Y208798D01*
X176898Y208791D01*
X177284Y208695D01*
X177446Y208641D01*
X177710Y208245D01*
X177710Y208007D01*
X177640Y207727D01*
X177418Y207432D01*
X177089Y207185D01*
X176544Y206912D01*
X176005Y206733D01*
X175243Y206637D01*
X175224Y206630D01*
X175198Y206629D01*
X172802Y206030D01*
X171908Y205831D01*
X171872Y205814D01*
X171801Y205790D01*
X170401Y204990D01*
X170381Y204971D01*
X170347Y204952D01*
X169747Y204452D01*
X169723Y204421D01*
X169718Y204416D01*
X169717Y204415D01*
X169674Y204371D01*
X169274Y203771D01*
X169263Y203743D01*
X169241Y203710D01*
X168941Y203010D01*
X168934Y202971D01*
X168912Y202902D01*
X168812Y202002D01*
X168817Y201964D01*
X168814Y201902D01*
X169014Y200602D01*
X169026Y200573D01*
X169033Y200530D01*
X169433Y199430D01*
X169454Y199397D01*
X169486Y199332D01*
X170086Y198532D01*
X170111Y198511D01*
X170140Y198474D01*
X170940Y197774D01*
X170973Y197756D01*
X171020Y197720D01*
X172020Y197220D01*
X172050Y197213D01*
X172090Y197193D01*
X173190Y196893D01*
X173207Y196893D01*
X173228Y196885D01*
X174428Y196685D01*
X174442Y196686D01*
X174458Y196681D01*
X175658Y196581D01*
X175685Y196585D01*
X175722Y196581D01*
X176922Y196681D01*
G37*
G36*
X157419Y116048D02*
X157419Y116048D01*
X157426Y116043D01*
X158326Y116343D01*
X158341Y116365D01*
X158354Y116368D01*
X158754Y117168D01*
X158751Y117184D01*
X158759Y117190D01*
X158759Y124240D01*
X161170Y120961D01*
X161670Y120261D01*
X161685Y120257D01*
X161686Y120247D01*
X162586Y119747D01*
X162607Y119750D01*
X162615Y119741D01*
X163615Y119841D01*
X163629Y119854D01*
X163640Y119851D01*
X164440Y120451D01*
X164443Y120461D01*
X164450Y120461D01*
X167041Y124048D01*
X167261Y124122D01*
X167261Y117090D01*
X167272Y117076D01*
X167267Y117066D01*
X167667Y116366D01*
X167691Y116355D01*
X167696Y116343D01*
X168696Y116043D01*
X168708Y116047D01*
X168714Y116041D01*
X169914Y116141D01*
X169930Y116155D01*
X169942Y116153D01*
X170642Y116753D01*
X170645Y116766D01*
X170648Y116782D01*
X170659Y116790D01*
X170659Y128990D01*
X170655Y128996D01*
X170658Y129000D01*
X170458Y130000D01*
X170435Y130021D01*
X170432Y130034D01*
X169632Y130434D01*
X169616Y130431D01*
X169610Y130439D01*
X168410Y130439D01*
X168398Y130430D01*
X168390Y130435D01*
X167490Y130035D01*
X167482Y130020D01*
X167471Y130020D01*
X166871Y129220D01*
X163197Y124354D01*
X162543Y124728D01*
X160249Y127720D01*
X159149Y129120D01*
X159148Y129121D01*
X158348Y130121D01*
X158329Y130126D01*
X158326Y130137D01*
X157426Y130437D01*
X157412Y130432D01*
X157406Y130439D01*
X156106Y130339D01*
X156090Y130325D01*
X156078Y130328D01*
X155478Y129828D01*
X155473Y129806D01*
X155462Y129801D01*
X155262Y128901D01*
X155265Y128893D01*
X155261Y128890D01*
X155261Y117590D01*
X155267Y117582D01*
X155263Y117576D01*
X155563Y116576D01*
X155581Y116563D01*
X155581Y116550D01*
X156281Y116050D01*
X156303Y116051D01*
X156310Y116041D01*
X157410Y116041D01*
X157419Y116048D01*
G37*
G36*
X131117Y116048D02*
X131117Y116048D01*
X131124Y116043D01*
X132124Y116343D01*
X132140Y116364D01*
X132153Y116366D01*
X132553Y117066D01*
X132550Y117083D01*
X132559Y117090D01*
X132559Y129290D01*
X132552Y129300D01*
X132556Y129307D01*
X132256Y130107D01*
X132230Y130124D01*
X132226Y130137D01*
X131326Y130437D01*
X131315Y130433D01*
X131310Y130439D01*
X126110Y130439D01*
X126104Y130434D01*
X126099Y130438D01*
X125199Y130238D01*
X125195Y130232D01*
X125190Y130235D01*
X124290Y129835D01*
X124287Y129830D01*
X124283Y129831D01*
X123383Y129231D01*
X123381Y129226D01*
X123378Y129227D01*
X122578Y128527D01*
X122575Y128515D01*
X122567Y128514D01*
X121567Y126714D01*
X121567Y126712D01*
X121566Y126712D01*
X121466Y126512D01*
X121468Y126499D01*
X121463Y126495D01*
X121464Y126493D01*
X121461Y126490D01*
X121461Y124390D01*
X121465Y124384D01*
X121462Y124380D01*
X121662Y123380D01*
X121670Y123373D01*
X121667Y123366D01*
X122167Y122466D01*
X122172Y122464D01*
X122171Y122460D01*
X122771Y121660D01*
X122780Y121658D01*
X122780Y121651D01*
X123580Y121051D01*
X123583Y121051D01*
X123583Y121049D01*
X124483Y120449D01*
X124492Y120450D01*
X124494Y120443D01*
X125394Y120143D01*
X125402Y120146D01*
X125405Y120141D01*
X126405Y120041D01*
X126408Y120043D01*
X126410Y120041D01*
X128397Y120041D01*
X129061Y119661D01*
X129061Y117690D01*
X129063Y117687D01*
X129061Y117685D01*
X129161Y116685D01*
X129181Y116664D01*
X129181Y116650D01*
X129881Y116150D01*
X129900Y116150D01*
X129906Y116141D01*
X131106Y116041D01*
X131117Y116048D01*
G37*
G36*
X109740Y196991D02*
X109740Y196991D01*
X109791Y196993D01*
X109823Y197011D01*
X109859Y197019D01*
X109898Y197052D01*
X109943Y197076D01*
X109964Y197106D01*
X109992Y197129D01*
X110013Y197176D01*
X110043Y197218D01*
X110051Y197260D01*
X110063Y197288D01*
X110062Y197318D01*
X110070Y197360D01*
X110070Y208580D01*
X113590Y208580D01*
X113641Y208592D01*
X113694Y208594D01*
X113724Y208611D01*
X113759Y208619D01*
X113799Y208653D01*
X113845Y208678D01*
X113865Y208707D01*
X113892Y208729D01*
X113914Y208777D01*
X113944Y208821D01*
X113949Y208855D01*
X113963Y208888D01*
X113961Y208940D01*
X113969Y208992D01*
X113958Y209025D01*
X113957Y209061D01*
X113932Y209107D01*
X113915Y209157D01*
X113888Y209187D01*
X113874Y209213D01*
X113848Y209231D01*
X113818Y209264D01*
X113440Y209548D01*
X111859Y211129D01*
X111839Y211141D01*
X111818Y211164D01*
X111462Y211432D01*
X111194Y211788D01*
X111182Y211799D01*
X111174Y211813D01*
X111116Y211854D01*
X111061Y211899D01*
X111046Y211903D01*
X111032Y211913D01*
X110905Y211937D01*
X110893Y211940D01*
X110892Y211940D01*
X110890Y211940D01*
X110070Y211940D01*
X110070Y213560D01*
X110064Y213586D01*
X110046Y213694D01*
X109746Y214494D01*
X109742Y214500D01*
X109740Y214510D01*
X109440Y215210D01*
X109416Y215241D01*
X109382Y215303D01*
X108882Y215903D01*
X108852Y215926D01*
X108811Y215969D01*
X108111Y216469D01*
X108087Y216479D01*
X108060Y216500D01*
X107260Y216900D01*
X107233Y216907D01*
X107199Y216924D01*
X106199Y217224D01*
X106160Y217227D01*
X106090Y217240D01*
X103190Y217240D01*
X103175Y217237D01*
X103160Y217239D01*
X103028Y217202D01*
X103021Y217201D01*
X103021Y217200D01*
X103020Y217200D01*
X102820Y217100D01*
X102781Y217068D01*
X102737Y217044D01*
X102716Y217013D01*
X102687Y216989D01*
X102666Y216943D01*
X102637Y216902D01*
X102629Y216859D01*
X102616Y216831D01*
X102617Y216815D01*
X102618Y216801D01*
X102610Y216760D01*
X102610Y213960D01*
X102621Y213910D01*
X102623Y213859D01*
X102641Y213827D01*
X102649Y213791D01*
X102682Y213752D01*
X102706Y213707D01*
X102736Y213686D01*
X102759Y213658D01*
X102806Y213637D01*
X102848Y213607D01*
X102890Y213599D01*
X102918Y213587D01*
X102948Y213588D01*
X102990Y213580D01*
X104643Y213580D01*
X104957Y213501D01*
X105230Y213365D01*
X105361Y213169D01*
X105410Y213070D01*
X105410Y212760D01*
X105418Y212724D01*
X105421Y212668D01*
X105510Y212313D01*
X105510Y211940D01*
X103190Y211940D01*
X103140Y211929D01*
X103089Y211927D01*
X103057Y211909D01*
X103021Y211901D01*
X102982Y211868D01*
X102937Y211844D01*
X102916Y211814D01*
X102888Y211791D01*
X102867Y211744D01*
X102837Y211702D01*
X102829Y211660D01*
X102817Y211632D01*
X102818Y211602D01*
X102810Y211560D01*
X102810Y208960D01*
X102821Y208910D01*
X102823Y208859D01*
X102841Y208827D01*
X102849Y208791D01*
X102882Y208752D01*
X102906Y208707D01*
X102936Y208686D01*
X102959Y208658D01*
X103006Y208637D01*
X103048Y208607D01*
X103090Y208599D01*
X103118Y208587D01*
X103148Y208588D01*
X103190Y208580D01*
X105510Y208580D01*
X105510Y197360D01*
X105521Y197310D01*
X105523Y197259D01*
X105541Y197227D01*
X105549Y197191D01*
X105582Y197152D01*
X105606Y197107D01*
X105636Y197086D01*
X105659Y197058D01*
X105706Y197037D01*
X105748Y197007D01*
X105790Y196999D01*
X105818Y196987D01*
X105848Y196988D01*
X105890Y196980D01*
X109690Y196980D01*
X109740Y196991D01*
G37*
G36*
X138021Y116050D02*
X138021Y116050D01*
X138030Y116045D01*
X138930Y116445D01*
X138936Y116456D01*
X138945Y116455D01*
X139345Y116855D01*
X139347Y116874D01*
X139358Y116878D01*
X139363Y116898D01*
X139379Y116865D01*
X139378Y116853D01*
X140078Y116253D01*
X140096Y116252D01*
X140100Y116242D01*
X141100Y116042D01*
X141110Y116046D01*
X141114Y116041D01*
X142214Y116141D01*
X142221Y116147D01*
X142226Y116143D01*
X143126Y116443D01*
X143130Y116450D01*
X143136Y116448D01*
X143936Y116948D01*
X143939Y116956D01*
X143945Y116955D01*
X144745Y117755D01*
X144746Y117760D01*
X144749Y117760D01*
X145349Y118560D01*
X145349Y118569D01*
X145355Y118570D01*
X145755Y119470D01*
X145754Y119473D01*
X145757Y119475D01*
X145756Y119476D01*
X145757Y119476D01*
X146057Y120476D01*
X146054Y120486D01*
X146059Y120490D01*
X146059Y121490D01*
X146057Y121493D01*
X146059Y121495D01*
X145959Y122495D01*
X145954Y122501D01*
X145957Y122506D01*
X145657Y123406D01*
X145649Y123411D01*
X145651Y123417D01*
X145051Y124317D01*
X145046Y124319D01*
X145047Y124322D01*
X144347Y125122D01*
X144342Y125123D01*
X144342Y125127D01*
X143542Y125827D01*
X143532Y125828D01*
X143530Y125835D01*
X142630Y126235D01*
X142621Y126233D01*
X142618Y126236D01*
X142617Y126236D01*
X142615Y126239D01*
X141615Y126339D01*
X141612Y126337D01*
X141610Y126339D01*
X140610Y126339D01*
X140603Y126334D01*
X140598Y126334D01*
X140596Y126332D01*
X140590Y126335D01*
X139690Y125935D01*
X139687Y125930D01*
X139683Y125931D01*
X139159Y125582D01*
X139159Y129590D01*
X139157Y129593D01*
X139159Y129595D01*
X139059Y130595D01*
X139048Y130607D01*
X139051Y130617D01*
X138851Y130917D01*
X138826Y130926D01*
X138821Y130938D01*
X137921Y131138D01*
X137913Y131135D01*
X137910Y131139D01*
X136810Y131139D01*
X136796Y131129D01*
X136786Y131133D01*
X135886Y130633D01*
X135873Y130602D01*
X135861Y130595D01*
X135761Y129695D01*
X135763Y129692D01*
X135761Y129690D01*
X135761Y117390D01*
X135766Y117384D01*
X135762Y117379D01*
X135962Y116479D01*
X135987Y116458D01*
X135991Y116445D01*
X136691Y116145D01*
X136702Y116148D01*
X136706Y116141D01*
X138006Y116041D01*
X138021Y116050D01*
G37*
G36*
X113716Y116045D02*
X113716Y116045D01*
X113720Y116042D01*
X114720Y116242D01*
X114724Y116247D01*
X114728Y116244D01*
X115728Y116644D01*
X115731Y116648D01*
X115734Y116647D01*
X116634Y117147D01*
X116638Y117156D01*
X116645Y117155D01*
X117345Y117855D01*
X117346Y117860D01*
X117349Y117860D01*
X117949Y118660D01*
X117949Y118666D01*
X117953Y118666D01*
X118453Y119566D01*
X118452Y119571D01*
X118456Y119573D01*
X118455Y119575D01*
X118457Y119576D01*
X118757Y120576D01*
X118754Y120586D01*
X118759Y120590D01*
X118759Y123790D01*
X118742Y123812D01*
X118744Y123826D01*
X117244Y125226D01*
X117240Y125226D01*
X117240Y125229D01*
X116440Y125829D01*
X116434Y125829D01*
X116434Y125833D01*
X115534Y126333D01*
X115526Y126332D01*
X115524Y126337D01*
X114524Y126637D01*
X114521Y126636D01*
X114520Y126638D01*
X113520Y126838D01*
X113510Y126834D01*
X113505Y126839D01*
X112505Y126739D01*
X112502Y126736D01*
X112500Y126738D01*
X111500Y126538D01*
X111493Y126530D01*
X111486Y126533D01*
X110586Y126033D01*
X110584Y126028D01*
X110580Y126029D01*
X109780Y125429D01*
X109779Y125424D01*
X109775Y125425D01*
X109075Y124725D01*
X109074Y124717D01*
X109068Y124716D01*
X108568Y123916D01*
X108569Y123910D01*
X108564Y123908D01*
X108164Y122908D01*
X108166Y122903D01*
X108162Y122900D01*
X108164Y122897D01*
X108161Y122895D01*
X108061Y121895D01*
X108063Y121892D01*
X108061Y121890D01*
X108061Y120790D01*
X108065Y120784D01*
X108062Y120780D01*
X108262Y119780D01*
X108268Y119775D01*
X108265Y119770D01*
X108665Y118870D01*
X108671Y118867D01*
X108669Y118863D01*
X109269Y117963D01*
X109276Y117960D01*
X109275Y117955D01*
X109975Y117255D01*
X109980Y117254D01*
X109980Y117251D01*
X110780Y116651D01*
X110790Y116651D01*
X110792Y116644D01*
X111792Y116244D01*
X111798Y116246D01*
X111799Y116242D01*
X112699Y116042D01*
X112707Y116045D01*
X112710Y116041D01*
X113710Y116041D01*
X113716Y116045D01*
G37*
G36*
X136740Y196991D02*
X136740Y196991D01*
X136791Y196993D01*
X136823Y197011D01*
X136859Y197019D01*
X136898Y197052D01*
X136943Y197076D01*
X136964Y197106D01*
X136992Y197129D01*
X137013Y197176D01*
X137043Y197218D01*
X137051Y197260D01*
X137063Y197288D01*
X137062Y197318D01*
X137070Y197360D01*
X137070Y210860D01*
X137067Y210873D01*
X137069Y210887D01*
X137048Y210957D01*
X137031Y211029D01*
X137022Y211039D01*
X137018Y211052D01*
X136967Y211106D01*
X136921Y211162D01*
X136908Y211168D01*
X136899Y211178D01*
X136765Y211233D01*
X136273Y211331D01*
X135882Y211429D01*
X135846Y211429D01*
X135790Y211440D01*
X135328Y211440D01*
X134873Y211531D01*
X134482Y211629D01*
X134474Y211629D01*
X134465Y211633D01*
X133473Y211831D01*
X133082Y211929D01*
X133072Y211929D01*
X133062Y211933D01*
X132986Y211930D01*
X132909Y211932D01*
X132900Y211927D01*
X132889Y211927D01*
X132822Y211890D01*
X132753Y211857D01*
X132746Y211849D01*
X132737Y211844D01*
X132693Y211781D01*
X132645Y211721D01*
X132643Y211711D01*
X132637Y211702D01*
X132610Y211560D01*
X132610Y210144D01*
X132487Y210298D01*
X132484Y210300D01*
X132482Y210303D01*
X131982Y210903D01*
X131967Y210915D01*
X131963Y210922D01*
X131949Y210931D01*
X131928Y210957D01*
X131428Y211357D01*
X131404Y211368D01*
X131379Y211390D01*
X130679Y211790D01*
X130649Y211799D01*
X130610Y211821D01*
X130010Y212021D01*
X130003Y212021D01*
X129994Y212026D01*
X129294Y212226D01*
X129256Y212228D01*
X129190Y212240D01*
X127790Y212240D01*
X127716Y212223D01*
X127641Y212210D01*
X127631Y212203D01*
X127621Y212201D01*
X127592Y212177D01*
X127521Y212129D01*
X127520Y212128D01*
X127489Y212127D01*
X127457Y212109D01*
X127421Y212101D01*
X127382Y212068D01*
X127337Y212044D01*
X127316Y212014D01*
X127288Y211991D01*
X127267Y211944D01*
X127237Y211902D01*
X127229Y211860D01*
X127217Y211832D01*
X127218Y211802D01*
X127210Y211760D01*
X127210Y208160D01*
X127221Y208110D01*
X127223Y208059D01*
X127241Y208027D01*
X127249Y207991D01*
X127282Y207952D01*
X127306Y207907D01*
X127336Y207886D01*
X127359Y207858D01*
X127406Y207837D01*
X127448Y207807D01*
X127490Y207799D01*
X127518Y207787D01*
X127548Y207788D01*
X127590Y207780D01*
X127690Y207780D01*
X127705Y207783D01*
X127720Y207781D01*
X127852Y207818D01*
X127859Y207819D01*
X127859Y207820D01*
X127860Y207820D01*
X127980Y207880D01*
X128971Y207880D01*
X129925Y207784D01*
X130647Y207604D01*
X131242Y207264D01*
X131676Y206742D01*
X132037Y206111D01*
X132221Y205466D01*
X132410Y204618D01*
X132410Y197360D01*
X132421Y197310D01*
X132423Y197259D01*
X132441Y197227D01*
X132449Y197191D01*
X132482Y197152D01*
X132506Y197107D01*
X132536Y197086D01*
X132559Y197058D01*
X132606Y197037D01*
X132648Y197007D01*
X132690Y196999D01*
X132718Y196987D01*
X132748Y196988D01*
X132790Y196980D01*
X136690Y196980D01*
X136740Y196991D01*
G37*
G36*
X97222Y116051D02*
X97222Y116051D01*
X97232Y116046D01*
X98032Y116446D01*
X98044Y116469D01*
X98045Y116471D01*
X98057Y116474D01*
X98357Y117374D01*
X98353Y117385D01*
X98359Y117390D01*
X98359Y125490D01*
X98345Y125509D01*
X98347Y125522D01*
X97747Y126222D01*
X97722Y126228D01*
X97714Y126239D01*
X96614Y126339D01*
X96609Y126336D01*
X96606Y126339D01*
X95406Y126239D01*
X95380Y126216D01*
X95367Y126214D01*
X94984Y125544D01*
X94430Y125637D01*
X93640Y126229D01*
X93621Y126229D01*
X93615Y126239D01*
X92615Y126339D01*
X92609Y126335D01*
X92605Y126339D01*
X91605Y126239D01*
X91601Y126236D01*
X91598Y126236D01*
X91596Y126237D01*
X90596Y125937D01*
X90588Y125927D01*
X90580Y125929D01*
X89780Y125329D01*
X89779Y125324D01*
X89775Y125325D01*
X89075Y124625D01*
X89074Y124615D01*
X89067Y124614D01*
X88567Y123714D01*
X88567Y123711D01*
X88565Y123710D01*
X88165Y122810D01*
X88166Y122804D01*
X88162Y122801D01*
X88163Y122800D01*
X88162Y122800D01*
X87962Y121800D01*
X87965Y121793D01*
X87961Y121790D01*
X87961Y117590D01*
X87966Y117584D01*
X87962Y117579D01*
X88162Y116679D01*
X88181Y116663D01*
X88181Y116650D01*
X88881Y116150D01*
X88900Y116150D01*
X88906Y116141D01*
X90206Y116041D01*
X90218Y116048D01*
X90226Y116043D01*
X91126Y116343D01*
X91143Y116369D01*
X91156Y116373D01*
X91456Y117173D01*
X91453Y117182D01*
X91459Y117185D01*
X91559Y118185D01*
X91557Y118188D01*
X91559Y118190D01*
X91559Y121285D01*
X91755Y122262D01*
X92529Y122842D01*
X93500Y122939D01*
X94374Y122454D01*
X94861Y121577D01*
X94861Y117490D01*
X94866Y117484D01*
X94862Y117479D01*
X95062Y116579D01*
X95084Y116561D01*
X95086Y116547D01*
X95786Y116147D01*
X95801Y116149D01*
X95807Y116141D01*
X97207Y116041D01*
X97222Y116051D01*
G37*
G36*
X80814Y116141D02*
X80814Y116141D01*
X80820Y116146D01*
X80824Y116143D01*
X81824Y116443D01*
X81828Y116448D01*
X81832Y116446D01*
X82632Y116846D01*
X82640Y116861D01*
X82650Y116861D01*
X83150Y117561D01*
X83150Y117567D01*
X83154Y117568D01*
X83554Y118368D01*
X83552Y118381D01*
X83559Y118386D01*
X83759Y120586D01*
X83757Y120588D01*
X83759Y120590D01*
X83759Y122655D01*
X85226Y123143D01*
X85244Y123170D01*
X85257Y123174D01*
X85557Y124074D01*
X85552Y124088D01*
X85559Y124094D01*
X85459Y125294D01*
X85450Y125304D01*
X85454Y125312D01*
X85054Y126112D01*
X85026Y126126D01*
X85021Y126138D01*
X84138Y126334D01*
X83759Y126807D01*
X83759Y128790D01*
X83750Y128803D01*
X83754Y128812D01*
X83354Y129612D01*
X83329Y129624D01*
X83324Y129637D01*
X82324Y129937D01*
X82312Y129933D01*
X82306Y129939D01*
X81106Y129839D01*
X81090Y129825D01*
X81078Y129827D01*
X80378Y129227D01*
X80375Y129213D01*
X80363Y129204D01*
X80367Y129199D01*
X80361Y129195D01*
X80261Y128295D01*
X80263Y128292D01*
X80261Y128290D01*
X80261Y126244D01*
X79214Y126339D01*
X79212Y126337D01*
X79210Y126339D01*
X78310Y126339D01*
X78303Y126334D01*
X78293Y126327D01*
X78281Y126330D01*
X77581Y125830D01*
X77576Y125814D01*
X77566Y125806D01*
X77568Y125803D01*
X77562Y125800D01*
X77362Y124800D01*
X77366Y124791D01*
X77361Y124786D01*
X77461Y123586D01*
X77477Y123568D01*
X77475Y123555D01*
X78075Y122955D01*
X78098Y122952D01*
X78105Y122941D01*
X79105Y122841D01*
X79111Y122845D01*
X79115Y122841D01*
X80073Y122937D01*
X80261Y122184D01*
X80261Y120202D01*
X79878Y119436D01*
X78905Y119339D01*
X78896Y119330D01*
X78888Y119334D01*
X78088Y118934D01*
X78074Y118905D01*
X78062Y118899D01*
X77862Y117799D01*
X77866Y117790D01*
X77861Y117786D01*
X77961Y116686D01*
X77981Y116664D01*
X77981Y116650D01*
X78681Y116150D01*
X78699Y116150D01*
X78705Y116141D01*
X79705Y116041D01*
X79711Y116045D01*
X79714Y116041D01*
X80814Y116141D01*
G37*
%LPC*%
G36*
X465635Y62587D02*
X465635Y62587D01*
X465245Y63270D01*
X465149Y63558D01*
X465149Y64126D01*
X465624Y64506D01*
X466216Y64703D01*
X470116Y66003D01*
X470123Y66014D01*
X470136Y66017D01*
X470134Y66030D01*
X470149Y66052D01*
X470127Y66068D01*
X470122Y66094D01*
X469722Y66294D01*
X469717Y66293D01*
X469716Y66297D01*
X465922Y67595D01*
X465341Y67982D01*
X465152Y68550D01*
X465344Y69126D01*
X465731Y69610D01*
X466417Y69904D01*
X470215Y71103D01*
X470223Y71114D01*
X470236Y71117D01*
X470234Y71130D01*
X470249Y71152D01*
X470227Y71167D01*
X470222Y71194D01*
X469622Y71494D01*
X469616Y71493D01*
X469614Y71497D01*
X465720Y72695D01*
X465242Y72982D01*
X465052Y73647D01*
X465343Y74324D01*
X465727Y74805D01*
X466195Y74899D01*
X466881Y74605D01*
X466884Y74605D01*
X466884Y74603D01*
X473973Y72207D01*
X474454Y71726D01*
X474549Y71154D01*
X474358Y70579D01*
X473876Y70194D01*
X472984Y69897D01*
X472984Y69896D01*
X472983Y69896D01*
X470483Y68996D01*
X470482Y68994D01*
X470480Y68995D01*
X469580Y68595D01*
X469573Y68582D01*
X469559Y68577D01*
X469563Y68564D01*
X469551Y68543D01*
X469576Y68529D01*
X469586Y68503D01*
X473481Y67304D01*
X474068Y67011D01*
X474453Y66530D01*
X474549Y65858D01*
X474263Y65287D01*
X473681Y64995D01*
X466688Y62498D01*
X466008Y62401D01*
X465635Y62587D01*
G37*
%LPD*%
%LPC*%
G36*
X466703Y166379D02*
X466703Y166379D01*
X466008Y166479D01*
X465433Y166574D01*
X465149Y167142D01*
X465149Y167822D01*
X465341Y168398D01*
X465615Y168581D01*
X470400Y168581D01*
X470447Y168617D01*
X470442Y168624D01*
X470449Y168630D01*
X470449Y168830D01*
X470430Y168856D01*
X470430Y168869D01*
X468730Y170169D01*
X468729Y170169D01*
X468729Y170170D01*
X466031Y172169D01*
X465439Y172661D01*
X465149Y173242D01*
X465149Y173918D01*
X465436Y174491D01*
X465909Y174681D01*
X473400Y174681D01*
X473447Y174717D01*
X473446Y174719D01*
X473448Y174720D01*
X473452Y174737D01*
X473480Y174685D01*
X473488Y174689D01*
X473492Y174681D01*
X474080Y174583D01*
X474453Y174303D01*
X474550Y173431D01*
X474455Y172760D01*
X473986Y172479D01*
X469300Y172479D01*
X469289Y172471D01*
X469276Y172473D01*
X469274Y172460D01*
X469253Y172443D01*
X469269Y172422D01*
X469265Y172395D01*
X469465Y172195D01*
X469472Y172194D01*
X469473Y172189D01*
X469771Y171990D01*
X473868Y168893D01*
X474454Y168306D01*
X474550Y167729D01*
X474453Y166853D01*
X474174Y166574D01*
X473493Y166379D01*
X466703Y166379D01*
G37*
%LPD*%
%LPC*%
G36*
X466603Y85099D02*
X466603Y85099D01*
X465911Y85198D01*
X465339Y85389D01*
X465149Y85958D01*
X465149Y86630D01*
X465820Y87301D01*
X470600Y87301D01*
X470607Y87306D01*
X470615Y87303D01*
X470620Y87316D01*
X470647Y87337D01*
X470633Y87355D01*
X470641Y87377D01*
X470441Y87677D01*
X470428Y87682D01*
X470428Y87691D01*
X469129Y88590D01*
X465832Y90988D01*
X465343Y91477D01*
X465149Y92058D01*
X465149Y92833D01*
X465526Y93304D01*
X466203Y93401D01*
X473600Y93401D01*
X473647Y93437D01*
X473642Y93444D01*
X473649Y93450D01*
X473649Y93479D01*
X473651Y93448D01*
X473689Y93402D01*
X473691Y93403D01*
X473692Y93401D01*
X474270Y93305D01*
X474551Y92836D01*
X474551Y91958D01*
X474361Y91387D01*
X473891Y91199D01*
X469300Y91199D01*
X469287Y91189D01*
X469271Y91190D01*
X469270Y91177D01*
X469253Y91163D01*
X469270Y91140D01*
X469270Y91111D01*
X474067Y87413D01*
X474551Y86930D01*
X474551Y86253D01*
X474454Y85480D01*
X473983Y85197D01*
X473396Y85099D01*
X466603Y85099D01*
G37*
%LPD*%
%LPC*%
G36*
X469704Y105199D02*
X469704Y105199D01*
X469131Y105295D01*
X468848Y105766D01*
X468749Y106553D01*
X468749Y107847D01*
X468847Y108731D01*
X469127Y109104D01*
X469800Y109200D01*
X470457Y109106D01*
X470551Y108546D01*
X470551Y107850D01*
X470564Y107832D01*
X470561Y107820D01*
X470861Y107420D01*
X470892Y107412D01*
X470900Y107401D01*
X471600Y107401D01*
X471611Y107409D01*
X471618Y107404D01*
X472118Y107604D01*
X472134Y107630D01*
X472147Y107634D01*
X472347Y108234D01*
X472343Y108245D01*
X472349Y108250D01*
X472349Y108950D01*
X472346Y108955D01*
X472349Y108958D01*
X472249Y109558D01*
X472238Y109568D01*
X472241Y109577D01*
X471841Y110177D01*
X471834Y110180D01*
X471835Y110185D01*
X471335Y110685D01*
X471331Y110685D01*
X471331Y110688D01*
X470831Y111088D01*
X470812Y111089D01*
X470807Y111099D01*
X469407Y111299D01*
X469394Y111292D01*
X469386Y111297D01*
X468686Y111097D01*
X468682Y111092D01*
X468678Y111094D01*
X468078Y110794D01*
X468073Y110784D01*
X468065Y110785D01*
X467665Y110385D01*
X467664Y110378D01*
X467659Y110377D01*
X467259Y109777D01*
X467260Y109768D01*
X467253Y109766D01*
X467053Y109166D01*
X467057Y109155D01*
X467051Y109150D01*
X467051Y108450D01*
X467057Y108442D01*
X467053Y108436D01*
X467253Y107736D01*
X467260Y107731D01*
X467257Y107726D01*
X467653Y107033D01*
X467748Y106559D01*
X467462Y106083D01*
X466879Y105596D01*
X466311Y105502D01*
X465738Y105884D01*
X465444Y106472D01*
X465146Y107068D01*
X464948Y107761D01*
X464849Y108354D01*
X464849Y109047D01*
X464948Y109739D01*
X465146Y110331D01*
X465744Y111528D01*
X465743Y111534D01*
X465768Y111513D01*
X465827Y111509D01*
X465828Y111520D01*
X465838Y111519D01*
X466237Y112017D01*
X466733Y112513D01*
X467227Y112908D01*
X467818Y113204D01*
X468511Y113402D01*
X469104Y113501D01*
X469896Y113501D01*
X470492Y113401D01*
X470493Y113402D01*
X470493Y113401D01*
X471185Y113302D01*
X471778Y113006D01*
X472373Y112708D01*
X472867Y112313D01*
X473859Y111321D01*
X474154Y110731D01*
X474353Y110135D01*
X474551Y109443D01*
X474551Y108053D01*
X474452Y107360D01*
X474448Y107347D01*
X474406Y107200D01*
X474392Y107150D01*
X474350Y107003D01*
X474307Y106855D01*
X474293Y106806D01*
X474254Y106670D01*
X473960Y106178D01*
X473565Y105685D01*
X473079Y105296D01*
X472496Y105199D01*
X469704Y105199D01*
G37*
%LPD*%
%LPC*%
G36*
X469346Y186479D02*
X469346Y186479D01*
X469349Y186527D01*
X469330Y186556D01*
X469330Y186569D01*
X468943Y186860D01*
X468749Y187537D01*
X468749Y189523D01*
X468782Y189637D01*
X468796Y189686D01*
X468838Y189834D01*
X468880Y189981D01*
X468894Y190031D01*
X468936Y190178D01*
X468937Y190178D01*
X468936Y190178D01*
X468942Y190198D01*
X469414Y190481D01*
X470086Y190481D01*
X470551Y190202D01*
X470551Y188830D01*
X470587Y188783D01*
X470591Y188786D01*
X470593Y188781D01*
X471293Y188681D01*
X471298Y188684D01*
X471300Y188681D01*
X471900Y188681D01*
X471930Y188703D01*
X471942Y188705D01*
X472242Y189205D01*
X472241Y189219D01*
X472249Y189223D01*
X472349Y189923D01*
X472346Y189928D01*
X472349Y189930D01*
X472349Y190530D01*
X472340Y190543D01*
X472344Y190552D01*
X472044Y191152D01*
X472040Y191154D01*
X472041Y191157D01*
X471641Y191757D01*
X471628Y191762D01*
X471627Y191771D01*
X471027Y192171D01*
X471023Y192171D01*
X471022Y192174D01*
X470422Y192474D01*
X470412Y192472D01*
X470408Y192479D01*
X469808Y192579D01*
X469799Y192574D01*
X469794Y192579D01*
X468994Y192479D01*
X468989Y192474D01*
X468984Y192477D01*
X468384Y192277D01*
X468377Y192266D01*
X468369Y192268D01*
X467869Y191868D01*
X467867Y191861D01*
X467862Y191861D01*
X467462Y191361D01*
X467461Y191353D01*
X467456Y191352D01*
X467156Y190752D01*
X467157Y190749D01*
X467154Y190747D01*
X467158Y190742D01*
X467158Y190741D01*
X467151Y190737D01*
X467051Y190037D01*
X467056Y190028D01*
X467051Y190023D01*
X467151Y189323D01*
X467159Y189315D01*
X467156Y189308D01*
X467455Y188709D01*
X467748Y188026D01*
X467655Y187653D01*
X467170Y187071D01*
X466495Y186781D01*
X466027Y186875D01*
X465542Y187457D01*
X465246Y188048D01*
X465048Y188741D01*
X464949Y189338D01*
X464850Y190030D01*
X464949Y190722D01*
X465048Y191318D01*
X465245Y191908D01*
X465641Y192503D01*
X466038Y193099D01*
X466533Y193593D01*
X467027Y193988D01*
X468215Y194583D01*
X468808Y194681D01*
X469503Y194781D01*
X470193Y194781D01*
X470885Y194583D01*
X471484Y194383D01*
X472078Y194185D01*
X472669Y193792D01*
X473662Y192799D01*
X474055Y192208D01*
X474253Y191614D01*
X474452Y191019D01*
X474551Y190327D01*
X474551Y188838D01*
X474354Y188249D01*
X474057Y187653D01*
X473760Y187158D01*
X473371Y186672D01*
X472792Y186479D01*
X469346Y186479D01*
G37*
%LPD*%
%LPC*%
G36*
X37341Y185949D02*
X37341Y185949D01*
X36700Y186041D01*
X36369Y186372D01*
X36277Y186925D01*
X36261Y186952D01*
X36279Y186993D01*
X36278Y186997D01*
X36279Y187000D01*
X36279Y193700D01*
X36276Y193709D01*
X36278Y193719D01*
X36262Y193750D01*
X36267Y193776D01*
X36279Y193800D01*
X36279Y194459D01*
X36539Y194891D01*
X36971Y195151D01*
X37668Y195151D01*
X38281Y194538D01*
X38281Y189800D01*
X38299Y189753D01*
X38315Y189705D01*
X38318Y189703D01*
X38319Y189700D01*
X38364Y189677D01*
X38408Y189652D01*
X38411Y189653D01*
X38415Y189651D01*
X38519Y189680D01*
X38524Y189691D01*
X38536Y189694D01*
X38736Y189894D01*
X38741Y189906D01*
X38749Y189910D01*
X39349Y190710D01*
X39349Y190711D01*
X42147Y194407D01*
X42618Y194972D01*
X43154Y195151D01*
X43778Y195151D01*
X44202Y194811D01*
X44381Y194276D01*
X44381Y186941D01*
X44363Y186926D01*
X44341Y186920D01*
X44330Y186898D01*
X44299Y186872D01*
X44293Y186824D01*
X44281Y186800D01*
X44281Y186262D01*
X43968Y185949D01*
X43151Y185949D01*
X42541Y186123D01*
X42379Y186529D01*
X42379Y191200D01*
X42377Y191207D01*
X42379Y191214D01*
X42358Y191256D01*
X42341Y191300D01*
X42334Y191304D01*
X42331Y191310D01*
X42287Y191327D01*
X42245Y191349D01*
X42238Y191347D01*
X42231Y191349D01*
X42210Y191339D01*
X42141Y191320D01*
X42131Y191300D01*
X42111Y191290D01*
X38517Y186498D01*
X37968Y185949D01*
X37341Y185949D01*
G37*
%LPD*%
%LPC*%
G36*
X32191Y84438D02*
X32191Y84438D01*
X31949Y84841D01*
X31949Y89500D01*
X31931Y89547D01*
X31915Y89595D01*
X31912Y89597D01*
X31911Y89600D01*
X31866Y89623D01*
X31822Y89648D01*
X31819Y89647D01*
X31815Y89649D01*
X31711Y89620D01*
X31706Y89609D01*
X31694Y89606D01*
X31494Y89406D01*
X31492Y89399D01*
X31487Y89397D01*
X30887Y88697D01*
X30885Y88692D01*
X30881Y88690D01*
X28087Y84998D01*
X27528Y84439D01*
X26997Y84351D01*
X26258Y84443D01*
X25939Y84682D01*
X25849Y85311D01*
X25849Y92776D01*
X26024Y93300D01*
X26441Y93551D01*
X27079Y93551D01*
X27683Y93378D01*
X27754Y93167D01*
X27851Y92391D01*
X27851Y88400D01*
X27868Y88356D01*
X27880Y88311D01*
X27886Y88308D01*
X27889Y88300D01*
X27985Y88251D01*
X27994Y88254D01*
X28000Y88251D01*
X28100Y88251D01*
X28200Y88289D01*
X28208Y88304D01*
X28219Y88309D01*
X29519Y90009D01*
X29519Y90011D01*
X29520Y90011D01*
X31513Y92702D01*
X32093Y93282D01*
X32541Y93551D01*
X33165Y93551D01*
X33678Y93294D01*
X33851Y92776D01*
X33851Y85400D01*
X33852Y85397D01*
X33851Y85394D01*
X33870Y85351D01*
X33861Y85320D01*
X33851Y85300D01*
X33851Y84762D01*
X33531Y84442D01*
X32801Y84351D01*
X32191Y84438D01*
G37*
%LPD*%
%LPC*%
G36*
X37012Y84349D02*
X37012Y84349D01*
X36493Y84436D01*
X36249Y84841D01*
X36249Y85676D01*
X36413Y86168D01*
X36923Y86253D01*
X37611Y86351D01*
X41000Y86351D01*
X41013Y86356D01*
X41026Y86353D01*
X41047Y86369D01*
X41100Y86389D01*
X41116Y86420D01*
X41134Y86433D01*
X41334Y86833D01*
X41336Y86861D01*
X41337Y86861D01*
X41336Y86862D01*
X41338Y86877D01*
X41349Y86900D01*
X41349Y87600D01*
X41337Y87633D01*
X41333Y87668D01*
X41319Y87678D01*
X41311Y87700D01*
X41241Y87735D01*
X41225Y87747D01*
X40625Y87847D01*
X40614Y87845D01*
X40607Y87849D01*
X38614Y87949D01*
X37970Y88041D01*
X37649Y88362D01*
X37649Y89079D01*
X37827Y89702D01*
X38241Y89951D01*
X40900Y89951D01*
X41000Y89989D01*
X41002Y89993D01*
X41006Y89994D01*
X41306Y90294D01*
X41349Y90393D01*
X41348Y90397D01*
X41349Y90400D01*
X41349Y91100D01*
X41311Y91200D01*
X41295Y91208D01*
X41290Y91219D01*
X40890Y91519D01*
X40821Y91539D01*
X40800Y91549D01*
X36741Y91549D01*
X36327Y91798D01*
X36152Y92412D01*
X36242Y93131D01*
X36572Y93461D01*
X37112Y93551D01*
X42576Y93551D01*
X43100Y93376D01*
X43351Y92959D01*
X43351Y85509D01*
X43255Y84744D01*
X43102Y84438D01*
X42391Y84349D01*
X37012Y84349D01*
G37*
%LPD*%
%LPC*%
G36*
X30142Y185949D02*
X30142Y185949D01*
X29563Y186046D01*
X28884Y186240D01*
X28311Y186526D01*
X27823Y186917D01*
X27335Y187307D01*
X26852Y187887D01*
X26561Y188372D01*
X26270Y188954D01*
X26076Y189633D01*
X25979Y190212D01*
X25979Y190889D01*
X26076Y191569D01*
X26270Y192246D01*
X26556Y192819D01*
X26947Y193307D01*
X27337Y193795D01*
X27917Y194278D01*
X28402Y194569D01*
X28984Y194860D01*
X29663Y195054D01*
X30242Y195151D01*
X33480Y195151D01*
X33803Y194909D01*
X33981Y194376D01*
X33981Y193404D01*
X31862Y192862D01*
X31520Y193119D01*
X31451Y193139D01*
X31430Y193149D01*
X30030Y193149D01*
X29989Y193133D01*
X29963Y193134D01*
X29363Y192834D01*
X29350Y192819D01*
X29337Y192817D01*
X28837Y192417D01*
X28827Y192399D01*
X28813Y192393D01*
X28413Y191893D01*
X28408Y191875D01*
X28397Y191867D01*
X28097Y191267D01*
X28094Y191238D01*
X28082Y191221D01*
X27982Y190521D01*
X27988Y190496D01*
X27982Y190479D01*
X28082Y189779D01*
X28097Y189753D01*
X28097Y189733D01*
X28397Y189133D01*
X28411Y189120D01*
X28413Y189107D01*
X28813Y188607D01*
X28822Y188602D01*
X28824Y188594D01*
X29324Y188094D01*
X29365Y188077D01*
X29383Y188058D01*
X29683Y187958D01*
X29712Y187960D01*
X29730Y187951D01*
X31730Y187951D01*
X31763Y187963D01*
X31798Y187967D01*
X31808Y187981D01*
X31830Y187989D01*
X31865Y188059D01*
X31877Y188075D01*
X31977Y188675D01*
X31974Y188690D01*
X31979Y188700D01*
X31979Y192581D01*
X33981Y193047D01*
X33981Y186911D01*
X33891Y186282D01*
X33571Y186042D01*
X32919Y185949D01*
X30142Y185949D01*
G37*
%LPD*%
%LPC*%
G36*
X49939Y185949D02*
X49939Y185949D01*
X49152Y186048D01*
X48577Y186144D01*
X48002Y186431D01*
X47523Y186719D01*
X47057Y187184D01*
X46869Y187655D01*
X46866Y187658D01*
X46868Y187677D01*
X46879Y187700D01*
X46879Y190389D01*
X46972Y191041D01*
X47219Y191370D01*
X47851Y191551D01*
X50006Y191551D01*
X50512Y191382D01*
X50681Y190876D01*
X50681Y190262D01*
X50364Y189945D01*
X49019Y189849D01*
X48981Y189831D01*
X48941Y189820D01*
X48936Y189810D01*
X48922Y189803D01*
X48881Y189704D01*
X48882Y189702D01*
X48881Y189700D01*
X48881Y188400D01*
X48886Y188387D01*
X48883Y188374D01*
X48899Y188353D01*
X48919Y188300D01*
X48950Y188284D01*
X48963Y188267D01*
X49563Y187967D01*
X49607Y187962D01*
X49630Y187951D01*
X50330Y187951D01*
X50344Y187956D01*
X50355Y187953D01*
X50955Y188053D01*
X50967Y188060D01*
X50977Y188058D01*
X51577Y188258D01*
X51604Y188280D01*
X51626Y188285D01*
X52226Y188785D01*
X52234Y188801D01*
X52247Y188807D01*
X52647Y189307D01*
X52656Y189338D01*
X52672Y189353D01*
X52872Y189953D01*
X52871Y189969D01*
X52878Y189979D01*
X52978Y190679D01*
X52974Y190695D01*
X52976Y190700D01*
X52974Y190709D01*
X52978Y190721D01*
X52878Y191421D01*
X52872Y191432D01*
X52874Y191441D01*
X52674Y192141D01*
X52651Y192170D01*
X52647Y192193D01*
X52247Y192693D01*
X52222Y192707D01*
X52213Y192724D01*
X51613Y193124D01*
X51589Y193129D01*
X51577Y193142D01*
X50977Y193342D01*
X50961Y193341D01*
X50951Y193348D01*
X50251Y193448D01*
X50226Y193442D01*
X50209Y193448D01*
X49509Y193348D01*
X49483Y193333D01*
X49463Y193334D01*
X48309Y192756D01*
X47904Y192838D01*
X47360Y193381D01*
X47187Y193900D01*
X47355Y194404D01*
X47905Y194771D01*
X48487Y195062D01*
X49064Y195254D01*
X49751Y195352D01*
X49753Y195353D01*
X49755Y195353D01*
X50332Y195449D01*
X51009Y195352D01*
X51685Y195256D01*
X52263Y194967D01*
X52849Y194674D01*
X53330Y194289D01*
X53819Y193800D01*
X54209Y193312D01*
X54595Y192734D01*
X54784Y192166D01*
X54981Y190789D01*
X54981Y190124D01*
X54788Y189547D01*
X54789Y189543D01*
X54787Y189541D01*
X54590Y188854D01*
X54299Y188272D01*
X54012Y187793D01*
X53035Y186816D01*
X52455Y186429D01*
X51883Y186144D01*
X51307Y186048D01*
X50619Y185949D01*
X49939Y185949D01*
G37*
%LPD*%
%LPC*%
G36*
X159760Y200434D02*
X159760Y200434D01*
X159067Y200608D01*
X158563Y201028D01*
X158219Y201457D01*
X157943Y202102D01*
X157662Y202852D01*
X157570Y203584D01*
X157570Y205236D01*
X157662Y205968D01*
X157943Y206718D01*
X158218Y207359D01*
X158647Y207874D01*
X159172Y208224D01*
X159788Y208488D01*
X160587Y208577D01*
X161298Y208488D01*
X162000Y208225D01*
X162422Y207887D01*
X162862Y207359D01*
X163137Y206718D01*
X163418Y205968D01*
X163510Y205236D01*
X163510Y203607D01*
X163128Y202082D01*
X162869Y201477D01*
X162433Y201041D01*
X161908Y200604D01*
X161316Y200434D01*
X160493Y200343D01*
X159760Y200434D01*
G37*
%LPD*%
%LPC*%
G36*
X29751Y160549D02*
X29751Y160549D01*
X29074Y160743D01*
X28502Y160933D01*
X28030Y161311D01*
X27541Y161800D01*
X27165Y162270D01*
X26979Y162921D01*
X26979Y163588D01*
X27074Y164153D01*
X27353Y164712D01*
X27836Y165194D01*
X27857Y165243D01*
X27875Y165264D01*
X27975Y165664D01*
X27973Y165680D01*
X27979Y165695D01*
X27968Y165719D01*
X27962Y165770D01*
X27933Y165795D01*
X27923Y165817D01*
X27449Y166196D01*
X27179Y166735D01*
X27179Y167389D01*
X27274Y168055D01*
X27556Y168619D01*
X27941Y169100D01*
X28892Y170051D01*
X30719Y170051D01*
X31385Y169956D01*
X32542Y169377D01*
X33014Y168905D01*
X33389Y168342D01*
X33484Y167871D01*
X33484Y167870D01*
X33495Y167853D01*
X33488Y167847D01*
X33305Y167296D01*
X32774Y166942D01*
X32260Y166856D01*
X31830Y167114D01*
X31447Y167593D01*
X31422Y167607D01*
X31413Y167624D01*
X30813Y168024D01*
X30753Y168037D01*
X30730Y168049D01*
X30030Y168049D01*
X29989Y168033D01*
X29963Y168034D01*
X29363Y167734D01*
X29363Y167733D01*
X29362Y167733D01*
X29359Y167729D01*
X29291Y167654D01*
X29291Y167636D01*
X29283Y167625D01*
X29183Y167025D01*
X29187Y167005D01*
X29181Y166985D01*
X29195Y166964D01*
X29204Y166919D01*
X29240Y166894D01*
X29253Y166872D01*
X29753Y166572D01*
X29793Y166565D01*
X29814Y166552D01*
X30707Y166452D01*
X31116Y166371D01*
X31281Y165876D01*
X31281Y165041D01*
X31038Y164636D01*
X30507Y164548D01*
X29809Y164448D01*
X29772Y164427D01*
X29747Y164424D01*
X29147Y164024D01*
X29085Y163936D01*
X29086Y163929D01*
X29083Y163925D01*
X28983Y163325D01*
X29004Y163219D01*
X29012Y163214D01*
X29013Y163207D01*
X29413Y162707D01*
X29464Y162677D01*
X29483Y162658D01*
X30083Y162458D01*
X30112Y162460D01*
X30130Y162451D01*
X30930Y162451D01*
X30987Y162473D01*
X31013Y162476D01*
X31613Y162876D01*
X31642Y162917D01*
X31664Y162933D01*
X31953Y163512D01*
X32300Y163859D01*
X32922Y163948D01*
X33642Y163768D01*
X33881Y163450D01*
X33881Y162921D01*
X33693Y162263D01*
X33319Y161702D01*
X32837Y161317D01*
X32358Y160933D01*
X31786Y160743D01*
X31109Y160549D01*
X29751Y160549D01*
G37*
%LPD*%
%LPC*%
G36*
X51141Y160549D02*
X51141Y160549D01*
X50464Y160646D01*
X49887Y160838D01*
X49311Y161126D01*
X48836Y161506D01*
X48456Y161981D01*
X48174Y162545D01*
X48079Y163211D01*
X48079Y163876D01*
X48263Y164428D01*
X48641Y164900D01*
X49136Y165394D01*
X49155Y165437D01*
X49178Y165478D01*
X49175Y165485D01*
X49179Y165493D01*
X49145Y165595D01*
X49138Y165599D01*
X49136Y165606D01*
X48741Y166000D01*
X48365Y166470D01*
X48183Y167109D01*
X48277Y167675D01*
X48271Y167706D01*
X48275Y167737D01*
X48268Y167744D01*
X48269Y167745D01*
X48463Y168230D01*
X48851Y168812D01*
X49241Y169300D01*
X49728Y169787D01*
X50080Y170051D01*
X51419Y170051D01*
X52107Y169953D01*
X52688Y169856D01*
X53353Y169571D01*
X53825Y169193D01*
X54297Y168626D01*
X54481Y168076D01*
X54481Y167552D01*
X54134Y167119D01*
X53595Y166849D01*
X53100Y166849D01*
X52645Y167395D01*
X52247Y167893D01*
X52154Y167947D01*
X52152Y167947D01*
X52151Y167948D01*
X51451Y168048D01*
X51424Y168042D01*
X51405Y168047D01*
X50805Y167947D01*
X50716Y167895D01*
X50713Y167893D01*
X50313Y167393D01*
X50281Y167291D01*
X50286Y167280D01*
X50284Y167271D01*
X50384Y166771D01*
X50397Y166750D01*
X50400Y166727D01*
X50408Y166721D01*
X50409Y166718D01*
X50421Y166712D01*
X50441Y166680D01*
X50489Y166667D01*
X50512Y166652D01*
X51310Y166552D01*
X51971Y166458D01*
X52289Y166219D01*
X52380Y165402D01*
X52292Y164791D01*
X51889Y164549D01*
X51230Y164549D01*
X51203Y164539D01*
X51183Y164542D01*
X50583Y164342D01*
X50524Y164293D01*
X50506Y164283D01*
X50106Y163683D01*
X50082Y163578D01*
X50083Y163577D01*
X50083Y163575D01*
X50183Y162975D01*
X50237Y162883D01*
X50248Y162880D01*
X50253Y162872D01*
X50753Y162572D01*
X50791Y162565D01*
X50812Y162552D01*
X51612Y162452D01*
X51648Y162461D01*
X51671Y162457D01*
X52371Y162657D01*
X52410Y162686D01*
X52436Y162694D01*
X52836Y163094D01*
X52847Y163121D01*
X52864Y163133D01*
X53144Y163694D01*
X53564Y163946D01*
X54393Y163854D01*
X54810Y163687D01*
X54977Y163188D01*
X54886Y162642D01*
X54604Y161985D01*
X53742Y161123D01*
X53173Y160838D01*
X52596Y160646D01*
X51919Y160549D01*
X51141Y160549D01*
G37*
%LPD*%
%LPC*%
G36*
X51054Y135149D02*
X51054Y135149D01*
X50477Y135342D01*
X49896Y135535D01*
X49325Y135916D01*
X48853Y136388D01*
X48568Y136957D01*
X48379Y137524D01*
X48379Y138189D01*
X48476Y138866D01*
X48665Y139434D01*
X49032Y139984D01*
X49587Y140262D01*
X50177Y140458D01*
X50183Y140463D01*
X50189Y140463D01*
X50872Y140756D01*
X51455Y140853D01*
X51463Y140858D01*
X51471Y140857D01*
X52171Y141057D01*
X52200Y141079D01*
X52223Y141083D01*
X52723Y141483D01*
X52777Y141576D01*
X52774Y141590D01*
X52779Y141600D01*
X52779Y142300D01*
X52776Y142307D01*
X52779Y142315D01*
X52766Y142334D01*
X52749Y142379D01*
X52745Y142392D01*
X52744Y142393D01*
X52741Y142400D01*
X52717Y142412D01*
X52707Y142428D01*
X52207Y142728D01*
X52154Y142737D01*
X52130Y142749D01*
X51330Y142749D01*
X51280Y142730D01*
X51253Y142728D01*
X50758Y142431D01*
X50195Y142149D01*
X49692Y142149D01*
X49250Y142591D01*
X48895Y143212D01*
X49055Y143610D01*
X49617Y144078D01*
X50090Y144362D01*
X50763Y144554D01*
X51342Y144651D01*
X52119Y144651D01*
X52785Y144556D01*
X53358Y144269D01*
X53853Y143972D01*
X53898Y143964D01*
X53942Y143951D01*
X53949Y143955D01*
X53956Y143954D01*
X54304Y143519D01*
X54592Y142943D01*
X54781Y142376D01*
X54781Y141711D01*
X54684Y141034D01*
X54500Y140481D01*
X54030Y140011D01*
X53558Y139633D01*
X52983Y139442D01*
X52977Y139437D01*
X52971Y139437D01*
X52289Y139145D01*
X51609Y139048D01*
X51595Y139040D01*
X51583Y139042D01*
X50983Y138842D01*
X50958Y138821D01*
X50937Y138817D01*
X50437Y138417D01*
X50433Y138409D01*
X50425Y138406D01*
X50417Y138383D01*
X50383Y138324D01*
X50388Y138297D01*
X50382Y138279D01*
X50482Y137579D01*
X50517Y137516D01*
X50524Y137494D01*
X50924Y137094D01*
X50994Y137064D01*
X51012Y137052D01*
X51812Y136952D01*
X51870Y136967D01*
X51897Y136967D01*
X52497Y137267D01*
X52504Y137275D01*
X52513Y137276D01*
X53113Y137676D01*
X53118Y137684D01*
X53126Y137685D01*
X53684Y138151D01*
X54085Y138151D01*
X54622Y137792D01*
X54972Y137269D01*
X54890Y136863D01*
X54612Y136491D01*
X54231Y136016D01*
X53556Y135630D01*
X53555Y135628D01*
X53553Y135628D01*
X53070Y135338D01*
X52409Y135149D01*
X51054Y135149D01*
G37*
%LPD*%
%LPC*%
G36*
X48411Y109749D02*
X48411Y109749D01*
X47744Y109940D01*
X47171Y110226D01*
X46696Y110606D01*
X46316Y111081D01*
X46028Y111657D01*
X45839Y112224D01*
X45839Y112900D01*
X45831Y112922D01*
X45832Y112946D01*
X45827Y112951D01*
X45827Y112962D01*
X45837Y112975D01*
X45934Y113553D01*
X46219Y114125D01*
X46592Y114684D01*
X47147Y114962D01*
X47734Y115157D01*
X48421Y115354D01*
X49111Y115452D01*
X49137Y115467D01*
X49157Y115467D01*
X49757Y115767D01*
X49777Y115788D01*
X49796Y115794D01*
X50195Y116194D01*
X50196Y116194D01*
X50239Y116293D01*
X50234Y116309D01*
X50238Y116321D01*
X50138Y117021D01*
X50137Y117023D01*
X50137Y117026D01*
X50129Y117036D01*
X50085Y117115D01*
X50066Y117121D01*
X50057Y117134D01*
X49457Y117434D01*
X49393Y117440D01*
X49369Y117448D01*
X48669Y117348D01*
X48623Y117322D01*
X48597Y117317D01*
X48113Y116929D01*
X47488Y116662D01*
X47081Y116825D01*
X46616Y117382D01*
X46360Y117894D01*
X46604Y118300D01*
X47071Y118674D01*
X47644Y118960D01*
X48321Y119154D01*
X49001Y119251D01*
X49669Y119251D01*
X50346Y119057D01*
X50918Y118867D01*
X51390Y118489D01*
X51867Y118012D01*
X52146Y117453D01*
X52241Y116888D01*
X52241Y116211D01*
X52146Y115545D01*
X51867Y114988D01*
X51397Y114519D01*
X50922Y114233D01*
X50237Y113940D01*
X49656Y113746D01*
X48969Y113648D01*
X48955Y113640D01*
X48943Y113642D01*
X48343Y113442D01*
X48298Y113404D01*
X48273Y113393D01*
X47873Y112893D01*
X47841Y112791D01*
X47844Y112784D01*
X47842Y112779D01*
X47942Y112079D01*
X47995Y111985D01*
X48008Y111981D01*
X48013Y111972D01*
X48513Y111672D01*
X48551Y111665D01*
X48572Y111652D01*
X49372Y111552D01*
X49463Y111575D01*
X49473Y111576D01*
X50673Y112376D01*
X50677Y112382D01*
X50683Y112383D01*
X51142Y112751D01*
X51636Y112751D01*
X52175Y112301D01*
X52427Y111882D01*
X52256Y111370D01*
X51977Y110998D01*
X51495Y110516D01*
X50915Y110129D01*
X50343Y109844D01*
X49778Y109749D01*
X48411Y109749D01*
G37*
%LPD*%
%LPC*%
G36*
X40493Y135536D02*
X40493Y135536D01*
X40010Y135826D01*
X39425Y136216D01*
X38946Y136695D01*
X38559Y137275D01*
X38268Y137857D01*
X38073Y138444D01*
X37879Y139121D01*
X37879Y139700D01*
X37879Y139702D01*
X37879Y139704D01*
X37860Y139750D01*
X37875Y139791D01*
X37879Y139800D01*
X37879Y140379D01*
X38073Y141056D01*
X38268Y141643D01*
X38556Y142219D01*
X38941Y142700D01*
X39431Y143190D01*
X40017Y143678D01*
X40490Y143962D01*
X41171Y144157D01*
X41174Y144159D01*
X41177Y144158D01*
X41754Y144351D01*
X44821Y144351D01*
X45539Y144261D01*
X45781Y143859D01*
X45781Y137649D01*
X43779Y137649D01*
X43779Y142200D01*
X43762Y142244D01*
X43750Y142289D01*
X43744Y142292D01*
X43741Y142300D01*
X43645Y142349D01*
X43636Y142346D01*
X43630Y142349D01*
X42330Y142349D01*
X42318Y142345D01*
X42309Y142348D01*
X41609Y142248D01*
X41583Y142233D01*
X41563Y142234D01*
X40963Y141934D01*
X40944Y141912D01*
X40924Y141906D01*
X40424Y141406D01*
X40416Y141385D01*
X40402Y141377D01*
X40102Y140877D01*
X40098Y140853D01*
X40087Y140841D01*
X39887Y140141D01*
X39889Y140116D01*
X39881Y140100D01*
X39881Y139400D01*
X39891Y139373D01*
X39888Y139353D01*
X40088Y138753D01*
X40097Y138743D01*
X40097Y138733D01*
X40397Y138133D01*
X40418Y138114D01*
X40424Y138094D01*
X40924Y137594D01*
X40951Y137583D01*
X40963Y137567D01*
X41642Y137227D01*
X40941Y135387D01*
X40493Y135536D01*
G37*
%LPD*%
%LPC*%
G36*
X38301Y109749D02*
X38301Y109749D01*
X37627Y109845D01*
X36843Y110139D01*
X36366Y110330D01*
X35909Y110696D01*
X35657Y111200D01*
X35918Y111723D01*
X36380Y112369D01*
X36677Y112443D01*
X37315Y112170D01*
X37700Y111881D01*
X37747Y111867D01*
X37769Y111852D01*
X38469Y111752D01*
X38481Y111755D01*
X38490Y111751D01*
X39190Y111751D01*
X39217Y111761D01*
X39237Y111758D01*
X39837Y111958D01*
X39847Y111967D01*
X39857Y111967D01*
X40457Y112267D01*
X40477Y112288D01*
X40496Y112294D01*
X40996Y112794D01*
X41007Y112821D01*
X41024Y112833D01*
X41324Y113433D01*
X41326Y113460D01*
X41337Y113475D01*
X41437Y114075D01*
X41434Y114090D01*
X41439Y114100D01*
X41439Y114900D01*
X41434Y114914D01*
X41437Y114925D01*
X41337Y115525D01*
X41317Y115559D01*
X41314Y115583D01*
X40914Y116183D01*
X40891Y116199D01*
X40883Y116217D01*
X40383Y116617D01*
X40365Y116622D01*
X40357Y116634D01*
X39757Y116934D01*
X39740Y116935D01*
X39731Y116944D01*
X39031Y117144D01*
X39006Y117141D01*
X38990Y117149D01*
X38290Y117149D01*
X38263Y117139D01*
X38243Y117142D01*
X37643Y116942D01*
X37624Y116926D01*
X37607Y116924D01*
X37032Y116541D01*
X36617Y116458D01*
X36189Y116715D01*
X35731Y117264D01*
X35637Y117825D01*
X35630Y117836D01*
X35992Y118289D01*
X36560Y118667D01*
X37038Y118859D01*
X37721Y119054D01*
X38401Y119151D01*
X39078Y119151D01*
X39657Y119054D01*
X40346Y118857D01*
X40924Y118665D01*
X41502Y118279D01*
X41990Y117889D01*
X42479Y117400D01*
X42864Y116919D01*
X43150Y116346D01*
X43344Y115667D01*
X43441Y115088D01*
X43441Y113700D01*
X43449Y113678D01*
X43448Y113654D01*
X43451Y113650D01*
X43448Y113647D01*
X43052Y112457D01*
X42764Y111881D01*
X42379Y111400D01*
X41895Y110916D01*
X41315Y110529D01*
X40133Y109938D01*
X39566Y109749D01*
X38301Y109749D01*
G37*
%LPD*%
%LPC*%
G36*
X473313Y176878D02*
X473313Y176878D01*
X472718Y177076D01*
X470920Y177875D01*
X470872Y177864D01*
X470865Y177865D01*
X470371Y177371D01*
X469781Y177076D01*
X469192Y176879D01*
X467808Y176879D01*
X467220Y177075D01*
X466528Y177471D01*
X466037Y177864D01*
X465670Y178414D01*
X467588Y179566D01*
X467962Y179099D01*
X467992Y179092D01*
X468000Y179081D01*
X468800Y179081D01*
X468815Y179092D01*
X468825Y179088D01*
X469325Y179388D01*
X469333Y179406D01*
X469344Y179408D01*
X469644Y180008D01*
X469641Y180024D01*
X469649Y180030D01*
X469649Y181430D01*
X469630Y181455D01*
X469631Y181468D01*
X469150Y181853D01*
X469250Y184140D01*
X473696Y184081D01*
X474265Y183986D01*
X474451Y183521D01*
X474451Y182638D01*
X474263Y182074D01*
X473696Y181979D01*
X472300Y181979D01*
X472284Y181967D01*
X472282Y181966D01*
X472270Y181969D01*
X471870Y181669D01*
X471863Y181643D01*
X471853Y181636D01*
X471855Y181633D01*
X471851Y181630D01*
X471851Y180230D01*
X471865Y180211D01*
X471862Y180198D01*
X472362Y179598D01*
X472378Y179595D01*
X472380Y179585D01*
X474175Y178787D01*
X474551Y178505D01*
X474551Y177939D01*
X474259Y177160D01*
X473787Y176783D01*
X473313Y176878D01*
G37*
%LPD*%
G36*
X104014Y116141D02*
X104014Y116141D01*
X104032Y116157D01*
X104045Y116155D01*
X104645Y116755D01*
X104646Y116766D01*
X104647Y116766D01*
X104646Y116767D01*
X104648Y116778D01*
X104659Y116785D01*
X104759Y117685D01*
X104757Y117688D01*
X104759Y117690D01*
X104759Y124590D01*
X104757Y124593D01*
X104759Y124595D01*
X104659Y125595D01*
X104645Y125610D01*
X104648Y125622D01*
X104148Y126222D01*
X104121Y126228D01*
X104114Y126239D01*
X102814Y126339D01*
X102806Y126334D01*
X102805Y126334D01*
X102800Y126338D01*
X101800Y126138D01*
X101783Y126119D01*
X101770Y126119D01*
X101270Y125419D01*
X101270Y125413D01*
X101268Y125412D01*
X101270Y125409D01*
X101271Y125397D01*
X101261Y125390D01*
X101261Y117090D01*
X101272Y117076D01*
X101267Y117066D01*
X101667Y116366D01*
X101691Y116355D01*
X101696Y116343D01*
X102696Y116043D01*
X102708Y116047D01*
X102714Y116041D01*
X104014Y116141D01*
G37*
%LPC*%
G36*
X40765Y160549D02*
X40765Y160549D01*
X40241Y160811D01*
X39964Y161367D01*
X39963Y161367D01*
X36664Y168066D01*
X36664Y168067D01*
X36367Y168659D01*
X36376Y168671D01*
X36468Y169126D01*
X36914Y169573D01*
X37359Y169751D01*
X37868Y169751D01*
X38207Y169412D01*
X38496Y168835D01*
X40794Y163838D01*
X40805Y163828D01*
X40806Y163817D01*
X41006Y163517D01*
X41032Y163499D01*
X41050Y163474D01*
X41074Y163469D01*
X41094Y163455D01*
X41125Y163459D01*
X41156Y163453D01*
X41172Y163465D01*
X41200Y163468D01*
X41243Y163518D01*
X41264Y163533D01*
X41564Y164133D01*
X41564Y164136D01*
X41566Y164138D01*
X43666Y168738D01*
X43666Y168748D01*
X43672Y168753D01*
X43860Y169319D01*
X44211Y169670D01*
X44723Y169840D01*
X45345Y169574D01*
X45781Y169138D01*
X45781Y168700D01*
X45788Y168682D01*
X45785Y168663D01*
X45791Y168656D01*
X45497Y168067D01*
X45496Y168066D01*
X42197Y161367D01*
X41919Y160811D01*
X41395Y160549D01*
X40765Y160549D01*
G37*
%LPD*%
G36*
X151514Y116141D02*
X151514Y116141D01*
X151530Y116155D01*
X151542Y116153D01*
X152242Y116753D01*
X152245Y116766D01*
X152248Y116782D01*
X152259Y116790D01*
X152259Y125590D01*
X152243Y125611D01*
X152245Y125625D01*
X151645Y126225D01*
X151621Y126228D01*
X151614Y126239D01*
X150414Y126339D01*
X150406Y126334D01*
X150401Y126338D01*
X149301Y126138D01*
X149281Y126116D01*
X149267Y126114D01*
X148867Y125414D01*
X148868Y125412D01*
X148867Y125412D01*
X148868Y125411D01*
X148870Y125397D01*
X148861Y125390D01*
X148861Y117090D01*
X148872Y117076D01*
X148867Y117066D01*
X149267Y116366D01*
X149290Y116356D01*
X149294Y116343D01*
X150194Y116043D01*
X150208Y116048D01*
X150214Y116041D01*
X151514Y116141D01*
G37*
%LPC*%
G36*
X472419Y95896D02*
X472419Y95896D01*
X471222Y96494D01*
X471206Y96491D01*
X471201Y96499D01*
X471199Y96499D01*
X471194Y96495D01*
X471190Y96498D01*
X470690Y96398D01*
X470679Y96386D01*
X470669Y96388D01*
X470173Y95992D01*
X469585Y95698D01*
X468897Y95599D01*
X468203Y95599D01*
X467511Y95698D01*
X466922Y95895D01*
X466334Y96287D01*
X465971Y96740D01*
X467708Y97995D01*
X468284Y97803D01*
X468300Y97808D01*
X468307Y97801D01*
X469007Y97901D01*
X469020Y97914D01*
X469031Y97912D01*
X469531Y98312D01*
X469537Y98337D01*
X469549Y98343D01*
X469649Y99043D01*
X469647Y99046D01*
X469647Y99047D01*
X469646Y99048D01*
X469649Y99050D01*
X469649Y100350D01*
X469640Y100363D01*
X469644Y100372D01*
X469550Y100561D01*
X469652Y102901D01*
X473197Y102901D01*
X473887Y102802D01*
X474359Y102613D01*
X474550Y101946D01*
X474453Y101173D01*
X474076Y100796D01*
X473496Y100699D01*
X472100Y100699D01*
X472062Y100670D01*
X472054Y100668D01*
X471854Y100168D01*
X471857Y100160D01*
X471853Y100157D01*
X471855Y100153D01*
X471851Y100150D01*
X471851Y98750D01*
X471873Y98721D01*
X471874Y98708D01*
X472674Y98208D01*
X472679Y98209D01*
X472680Y98205D01*
X474266Y97511D01*
X474548Y97040D01*
X474453Y96467D01*
X474064Y95786D01*
X473594Y95504D01*
X472419Y95896D01*
G37*
%LPD*%
%LPC*%
G36*
X27481Y135243D02*
X27481Y135243D01*
X26838Y135610D01*
X26593Y136018D01*
X26769Y136544D01*
X30357Y143920D01*
X30711Y144362D01*
X31221Y144447D01*
X31843Y144270D01*
X32203Y143819D01*
X34316Y139531D01*
X32126Y139262D01*
X31969Y139655D01*
X31963Y139661D01*
X31964Y139667D01*
X31664Y140267D01*
X31642Y140287D01*
X31636Y140306D01*
X31236Y140706D01*
X31220Y140713D01*
X31210Y140726D01*
X31172Y140734D01*
X31137Y140749D01*
X31121Y140744D01*
X31104Y140747D01*
X31083Y140731D01*
X31035Y140715D01*
X31016Y140681D01*
X30997Y140667D01*
X30397Y139467D01*
X30386Y139360D01*
X30397Y139346D01*
X30397Y139333D01*
X30597Y138933D01*
X30607Y138924D01*
X30610Y138911D01*
X30634Y138899D01*
X30676Y138861D01*
X30710Y138861D01*
X30730Y138851D01*
X31931Y138851D01*
X32605Y137249D01*
X29530Y137249D01*
X29430Y137211D01*
X29423Y137198D01*
X29413Y137193D01*
X29013Y136693D01*
X29007Y136672D01*
X28995Y136663D01*
X28414Y135404D01*
X28000Y135156D01*
X27481Y135243D01*
G37*
%LPD*%
%LPC*%
G36*
X339615Y229469D02*
X339615Y229469D01*
X339340Y229653D01*
X339151Y230126D01*
X339246Y230797D01*
X339524Y231075D01*
X340005Y231171D01*
X342100Y231171D01*
X342147Y231207D01*
X342142Y231214D01*
X342149Y231220D01*
X342149Y233920D01*
X342113Y233967D01*
X342111Y233966D01*
X342110Y233968D01*
X341610Y234068D01*
X341603Y234065D01*
X341600Y234069D01*
X339520Y234069D01*
X339246Y234343D01*
X339150Y235015D01*
X339340Y235585D01*
X339712Y235771D01*
X346184Y235771D01*
X346555Y235492D01*
X346651Y235015D01*
X346651Y234444D01*
X346183Y234069D01*
X344100Y234069D01*
X344087Y234060D01*
X344078Y234064D01*
X343678Y233864D01*
X343660Y233827D01*
X343651Y233820D01*
X343651Y231620D01*
X343656Y231613D01*
X343652Y231608D01*
X343752Y231208D01*
X343799Y231171D01*
X343799Y231172D01*
X343800Y231171D01*
X345895Y231171D01*
X346372Y231075D01*
X346651Y230704D01*
X346651Y230025D01*
X346558Y229560D01*
X346194Y229469D01*
X339615Y229469D01*
G37*
%LPD*%
%LPC*%
G36*
X339616Y43629D02*
X339616Y43629D01*
X339245Y43908D01*
X339149Y44385D01*
X339149Y44956D01*
X339617Y45331D01*
X341700Y45331D01*
X341713Y45340D01*
X341722Y45336D01*
X342122Y45536D01*
X342141Y45573D01*
X342149Y45580D01*
X342149Y47780D01*
X342144Y47787D01*
X342148Y47792D01*
X342048Y48192D01*
X342001Y48229D01*
X342001Y48228D01*
X342000Y48229D01*
X339905Y48229D01*
X339428Y48325D01*
X339149Y48696D01*
X339149Y49375D01*
X339242Y49840D01*
X339606Y49931D01*
X346185Y49931D01*
X346460Y49748D01*
X346649Y49274D01*
X346554Y48603D01*
X346276Y48325D01*
X345795Y48229D01*
X343700Y48229D01*
X343653Y48193D01*
X343658Y48186D01*
X343651Y48180D01*
X343651Y45480D01*
X343687Y45433D01*
X343689Y45434D01*
X343690Y45432D01*
X344190Y45332D01*
X344197Y45335D01*
X344200Y45331D01*
X346280Y45331D01*
X346554Y45057D01*
X346650Y44385D01*
X346460Y43815D01*
X346088Y43629D01*
X339616Y43629D01*
G37*
%LPD*%
%LPC*%
G36*
X27402Y109749D02*
X27402Y109749D01*
X26883Y109836D01*
X26639Y110241D01*
X26639Y110859D01*
X26881Y111262D01*
X27501Y111351D01*
X30890Y111351D01*
X30934Y111368D01*
X30979Y111380D01*
X30982Y111386D01*
X30990Y111389D01*
X31039Y111485D01*
X31036Y111494D01*
X31039Y111500D01*
X31039Y118088D01*
X31128Y118619D01*
X31542Y118951D01*
X32366Y118951D01*
X32877Y118780D01*
X33050Y118348D01*
X33048Y118346D01*
X33050Y118318D01*
X33041Y118300D01*
X33041Y110241D01*
X32799Y109838D01*
X32179Y109749D01*
X27402Y109749D01*
G37*
%LPD*%
%LPC*%
G36*
X345809Y237269D02*
X345809Y237269D01*
X345320Y237465D01*
X339922Y240164D01*
X339919Y240163D01*
X339918Y240166D01*
X339434Y240360D01*
X339149Y240834D01*
X339149Y241306D01*
X339437Y241786D01*
X339826Y242078D01*
X345220Y244675D01*
X345709Y244871D01*
X346080Y244871D01*
X346462Y244489D01*
X346654Y244201D01*
X346747Y243732D01*
X346469Y243361D01*
X345982Y243166D01*
X345980Y243164D01*
X345979Y243165D01*
X341979Y241265D01*
X341976Y241260D01*
X341973Y241261D01*
X341673Y241061D01*
X341670Y241054D01*
X341664Y241053D01*
X341666Y241041D01*
X341653Y241005D01*
X341674Y240998D01*
X341678Y240976D01*
X342078Y240776D01*
X342080Y240776D01*
X342080Y240775D01*
X345778Y239176D01*
X346274Y238878D01*
X346560Y238688D01*
X346747Y238220D01*
X346557Y237745D01*
X346176Y237269D01*
X345809Y237269D01*
G37*
%LPD*%
%LPC*%
G36*
X339720Y34529D02*
X339720Y34529D01*
X339338Y34911D01*
X339146Y35199D01*
X339053Y35668D01*
X339331Y36039D01*
X339818Y36234D01*
X339820Y36236D01*
X339821Y36236D01*
X343821Y38136D01*
X343824Y38140D01*
X343827Y38139D01*
X344127Y38339D01*
X344130Y38346D01*
X344136Y38347D01*
X344134Y38359D01*
X344147Y38395D01*
X344126Y38402D01*
X344122Y38424D01*
X343722Y38624D01*
X343720Y38624D01*
X343720Y38625D01*
X340022Y40224D01*
X339526Y40522D01*
X339240Y40713D01*
X339053Y41180D01*
X339243Y41655D01*
X339624Y42131D01*
X339991Y42131D01*
X340480Y41935D01*
X345878Y39236D01*
X345881Y39237D01*
X345882Y39234D01*
X346366Y39040D01*
X346651Y38566D01*
X346651Y38094D01*
X346363Y37614D01*
X345974Y37322D01*
X340580Y34725D01*
X340091Y34529D01*
X339720Y34529D01*
G37*
%LPD*%
%LPC*%
G36*
X364835Y42815D02*
X364835Y42815D01*
X364546Y43201D01*
X364452Y43673D01*
X364638Y44045D01*
X365123Y44336D01*
X369520Y46335D01*
X369524Y46342D01*
X369532Y46343D01*
X369531Y46355D01*
X369549Y46388D01*
X369529Y46398D01*
X369527Y46421D01*
X369227Y46621D01*
X369221Y46621D01*
X369220Y46625D01*
X365024Y48523D01*
X364734Y48716D01*
X364453Y49092D01*
X364546Y49561D01*
X364930Y50137D01*
X365297Y50228D01*
X365780Y50035D01*
X371571Y47139D01*
X371955Y46756D01*
X372049Y46285D01*
X371859Y45811D01*
X371474Y45522D01*
X366180Y42825D01*
X365682Y42626D01*
X365651Y42575D01*
X365648Y42589D01*
X365605Y42629D01*
X365597Y42621D01*
X365588Y42628D01*
X365211Y42533D01*
X364835Y42815D01*
G37*
%LPD*%
%LPC*%
G36*
X390235Y42815D02*
X390235Y42815D01*
X389946Y43201D01*
X389852Y43673D01*
X390038Y44045D01*
X390523Y44336D01*
X394920Y46335D01*
X394924Y46342D01*
X394932Y46343D01*
X394931Y46355D01*
X394949Y46388D01*
X394929Y46398D01*
X394927Y46421D01*
X394627Y46621D01*
X394621Y46621D01*
X394620Y46625D01*
X390424Y48523D01*
X390134Y48716D01*
X389853Y49092D01*
X389946Y49561D01*
X390330Y50137D01*
X390697Y50228D01*
X391180Y50035D01*
X396971Y47139D01*
X397355Y46756D01*
X397449Y46285D01*
X397259Y45811D01*
X396874Y45522D01*
X391580Y42825D01*
X391082Y42626D01*
X391051Y42575D01*
X391048Y42589D01*
X391005Y42629D01*
X390997Y42621D01*
X390988Y42628D01*
X390611Y42533D01*
X390235Y42815D01*
G37*
%LPD*%
%LPC*%
G36*
X464236Y77286D02*
X464236Y77286D01*
X463849Y77963D01*
X463849Y78530D01*
X464230Y78911D01*
X464923Y79306D01*
X472818Y83104D01*
X473503Y83300D01*
X474070Y83205D01*
X474354Y82730D01*
X474548Y82051D01*
X474361Y81487D01*
X473882Y81296D01*
X473880Y81294D01*
X473879Y81294D01*
X465281Y77196D01*
X464706Y77004D01*
X464236Y77286D01*
G37*
%LPD*%
%LPC*%
G36*
X368349Y25785D02*
X368349Y25785D01*
X368308Y25829D01*
X368304Y25824D01*
X368300Y25829D01*
X367804Y25829D01*
X367213Y25928D01*
X366720Y26125D01*
X366323Y26323D01*
X365831Y26619D01*
X365439Y27011D01*
X365142Y27505D01*
X365139Y27507D01*
X365139Y27510D01*
X364843Y27904D01*
X364647Y28394D01*
X364549Y28885D01*
X364549Y32055D01*
X364916Y32331D01*
X366761Y32331D01*
X366352Y30492D01*
X366252Y30092D01*
X366256Y30084D01*
X366251Y30080D01*
X366251Y29480D01*
X366255Y29474D01*
X366252Y29470D01*
X366352Y28970D01*
X366357Y28966D01*
X366354Y28962D01*
X366554Y28462D01*
X366566Y28454D01*
X366565Y28445D01*
X366965Y28045D01*
X366970Y28044D01*
X366970Y28041D01*
X367370Y27741D01*
X367380Y27741D01*
X367382Y27734D01*
X367882Y27534D01*
X367895Y27538D01*
X367900Y27531D01*
X368500Y27531D01*
X368506Y27535D01*
X368510Y27532D01*
X369010Y27632D01*
X369018Y27641D01*
X369025Y27638D01*
X369525Y27938D01*
X369530Y27950D01*
X369539Y27950D01*
X369837Y28348D01*
X370210Y28720D01*
X371725Y27962D01*
X371461Y27610D01*
X371461Y27606D01*
X371458Y27605D01*
X371161Y27111D01*
X370768Y26717D01*
X370372Y26421D01*
X369878Y26124D01*
X369386Y25927D01*
X368895Y25829D01*
X368400Y25829D01*
X368353Y25793D01*
X368360Y25784D01*
X368351Y25776D01*
X368355Y25733D01*
X368349Y25785D01*
G37*
%LPD*%
%LPC*%
G36*
X393749Y25785D02*
X393749Y25785D01*
X393708Y25829D01*
X393704Y25824D01*
X393700Y25829D01*
X393204Y25829D01*
X392613Y25928D01*
X392120Y26125D01*
X391723Y26323D01*
X391231Y26619D01*
X390839Y27011D01*
X390542Y27505D01*
X390539Y27507D01*
X390539Y27510D01*
X390243Y27904D01*
X390047Y28394D01*
X389949Y28885D01*
X389949Y32055D01*
X390316Y32331D01*
X392161Y32331D01*
X391752Y30492D01*
X391652Y30092D01*
X391656Y30084D01*
X391651Y30080D01*
X391651Y29480D01*
X391655Y29474D01*
X391652Y29470D01*
X391752Y28970D01*
X391757Y28966D01*
X391754Y28962D01*
X391954Y28462D01*
X391966Y28454D01*
X391965Y28445D01*
X392365Y28045D01*
X392370Y28044D01*
X392370Y28041D01*
X392770Y27741D01*
X392780Y27741D01*
X392782Y27734D01*
X393282Y27534D01*
X393295Y27538D01*
X393300Y27531D01*
X393900Y27531D01*
X393906Y27535D01*
X393910Y27532D01*
X394410Y27632D01*
X394418Y27641D01*
X394425Y27638D01*
X394925Y27938D01*
X394930Y27950D01*
X394939Y27950D01*
X395237Y28348D01*
X395610Y28720D01*
X397125Y27962D01*
X396861Y27610D01*
X396861Y27606D01*
X396858Y27605D01*
X396561Y27111D01*
X396168Y26717D01*
X395772Y26421D01*
X395278Y26124D01*
X394786Y25927D01*
X394295Y25829D01*
X393800Y25829D01*
X393753Y25793D01*
X393760Y25784D01*
X393751Y25776D01*
X393755Y25733D01*
X393749Y25785D01*
G37*
%LPD*%
%LPC*%
G36*
X396314Y16927D02*
X396314Y16927D01*
X395719Y17126D01*
X390427Y19722D01*
X389939Y20112D01*
X389753Y20484D01*
X389942Y21050D01*
X390326Y21338D01*
X393937Y23143D01*
X394146Y21217D01*
X393788Y21128D01*
X393785Y21124D01*
X393782Y21126D01*
X392782Y20726D01*
X392780Y20722D01*
X392776Y20723D01*
X392775Y20714D01*
X392770Y20706D01*
X392753Y20694D01*
X392758Y20687D01*
X392751Y20675D01*
X392768Y20665D01*
X392765Y20645D01*
X392865Y20545D01*
X392877Y20544D01*
X392878Y20536D01*
X393878Y20036D01*
X393894Y20039D01*
X393900Y20031D01*
X394188Y20031D01*
X395771Y19239D01*
X396065Y18945D01*
X396077Y18944D01*
X396078Y18936D01*
X397071Y18439D01*
X397447Y18064D01*
X397353Y17598D01*
X397063Y17114D01*
X396689Y16833D01*
X396314Y16927D01*
G37*
%LPD*%
%LPC*%
G36*
X370914Y16927D02*
X370914Y16927D01*
X370319Y17126D01*
X365027Y19722D01*
X364539Y20112D01*
X364353Y20484D01*
X364542Y21050D01*
X364926Y21338D01*
X368537Y23143D01*
X368746Y21217D01*
X368388Y21128D01*
X368385Y21124D01*
X368382Y21126D01*
X367382Y20726D01*
X367380Y20722D01*
X367376Y20723D01*
X367375Y20714D01*
X367370Y20706D01*
X367353Y20694D01*
X367358Y20687D01*
X367351Y20675D01*
X367368Y20665D01*
X367365Y20645D01*
X367465Y20545D01*
X367477Y20544D01*
X367478Y20536D01*
X368478Y20036D01*
X368494Y20039D01*
X368500Y20031D01*
X368788Y20031D01*
X370371Y19239D01*
X370665Y18945D01*
X370677Y18944D01*
X370678Y18936D01*
X371671Y18439D01*
X372047Y18064D01*
X371953Y17598D01*
X371663Y17114D01*
X371289Y16833D01*
X370914Y16927D01*
G37*
%LPD*%
%LPC*%
G36*
X393105Y34029D02*
X393105Y34029D01*
X392614Y34127D01*
X392122Y34324D01*
X391628Y34621D01*
X391232Y34917D01*
X390837Y35312D01*
X390541Y35708D01*
X390244Y36202D01*
X390047Y36694D01*
X389949Y37185D01*
X389949Y40255D01*
X390316Y40531D01*
X391327Y40531D01*
X391651Y38775D01*
X391651Y37680D01*
X391655Y37674D01*
X391652Y37670D01*
X391752Y37170D01*
X391757Y37166D01*
X391754Y37162D01*
X391954Y36662D01*
X391966Y36654D01*
X391965Y36645D01*
X392365Y36245D01*
X392370Y36244D01*
X392370Y36241D01*
X392770Y35941D01*
X392786Y35941D01*
X392790Y35932D01*
X393290Y35832D01*
X393297Y35835D01*
X393300Y35831D01*
X393900Y35831D01*
X393906Y35835D01*
X393910Y35832D01*
X394410Y35932D01*
X394418Y35941D01*
X394425Y35938D01*
X394925Y36238D01*
X394929Y36246D01*
X394935Y36245D01*
X395610Y36920D01*
X397125Y36162D01*
X396861Y35810D01*
X396861Y35806D01*
X396858Y35805D01*
X396561Y35311D01*
X396170Y34919D01*
X395677Y34623D01*
X395280Y34425D01*
X394786Y34227D01*
X394292Y34129D01*
X393696Y34029D01*
X393105Y34029D01*
G37*
%LPD*%
%LPC*%
G36*
X367705Y34029D02*
X367705Y34029D01*
X367214Y34127D01*
X366722Y34324D01*
X366228Y34621D01*
X365832Y34917D01*
X365437Y35312D01*
X365141Y35708D01*
X364844Y36202D01*
X364647Y36694D01*
X364549Y37185D01*
X364549Y40255D01*
X364916Y40531D01*
X365927Y40531D01*
X366251Y38775D01*
X366251Y37680D01*
X366255Y37674D01*
X366252Y37670D01*
X366352Y37170D01*
X366357Y37166D01*
X366354Y37162D01*
X366554Y36662D01*
X366566Y36654D01*
X366565Y36645D01*
X366965Y36245D01*
X366970Y36244D01*
X366970Y36241D01*
X367370Y35941D01*
X367386Y35941D01*
X367390Y35932D01*
X367890Y35832D01*
X367897Y35835D01*
X367900Y35831D01*
X368500Y35831D01*
X368506Y35835D01*
X368510Y35832D01*
X369010Y35932D01*
X369018Y35941D01*
X369025Y35938D01*
X369525Y36238D01*
X369529Y36246D01*
X369535Y36245D01*
X370210Y36920D01*
X371725Y36162D01*
X371461Y35810D01*
X371461Y35806D01*
X371458Y35805D01*
X371161Y35311D01*
X370770Y34919D01*
X370277Y34623D01*
X369880Y34425D01*
X369386Y34227D01*
X368892Y34129D01*
X368296Y34029D01*
X367705Y34029D01*
G37*
%LPD*%
%LPC*%
G36*
X465543Y97375D02*
X465543Y97375D01*
X465246Y97969D01*
X465049Y98558D01*
X465049Y102042D01*
X465240Y102615D01*
X465812Y102901D01*
X469501Y102901D01*
X469354Y100699D01*
X467400Y100699D01*
X467353Y100663D01*
X467355Y100660D01*
X467351Y100658D01*
X467251Y100058D01*
X467254Y100053D01*
X467251Y100050D01*
X467251Y99350D01*
X467254Y99346D01*
X467251Y99343D01*
X467351Y98643D01*
X467361Y98633D01*
X467358Y98625D01*
X467635Y98162D01*
X465912Y96821D01*
X465543Y97375D01*
G37*
%LPD*%
%LPC*%
G36*
X465346Y179049D02*
X465346Y179049D01*
X465148Y179642D01*
X465049Y180234D01*
X465049Y183027D01*
X465146Y183803D01*
X465520Y184083D01*
X466203Y184181D01*
X469095Y184142D01*
X468954Y181979D01*
X467700Y181979D01*
X467679Y181963D01*
X467665Y181965D01*
X467265Y181565D01*
X467262Y181545D01*
X467253Y181537D01*
X467255Y181533D01*
X467251Y181530D01*
X467251Y180230D01*
X467258Y180221D01*
X467253Y180214D01*
X467441Y179651D01*
X465620Y178501D01*
X465346Y179049D01*
G37*
%LPD*%
%LPC*%
G36*
X370261Y37007D02*
X370261Y37007D01*
X370347Y37264D01*
X370343Y37275D01*
X370349Y37280D01*
X370349Y38380D01*
X370340Y38393D01*
X370344Y38402D01*
X370144Y38802D01*
X370107Y38821D01*
X370100Y38829D01*
X366342Y38829D01*
X366073Y40531D01*
X371395Y40531D01*
X371867Y40436D01*
X372051Y40068D01*
X372051Y37288D01*
X371853Y36696D01*
X371854Y36693D01*
X371852Y36692D01*
X371766Y36349D01*
X370261Y37007D01*
G37*
%LPD*%
%LPC*%
G36*
X395661Y37007D02*
X395661Y37007D01*
X395747Y37264D01*
X395743Y37275D01*
X395749Y37280D01*
X395749Y38380D01*
X395740Y38393D01*
X395744Y38402D01*
X395544Y38802D01*
X395507Y38821D01*
X395500Y38829D01*
X391742Y38829D01*
X391473Y40531D01*
X396795Y40531D01*
X397267Y40436D01*
X397451Y40068D01*
X397451Y37288D01*
X397253Y36696D01*
X397254Y36693D01*
X397252Y36692D01*
X397166Y36349D01*
X395661Y37007D01*
G37*
%LPD*%
%LPC*%
G36*
X370266Y28802D02*
X370266Y28802D01*
X370344Y28958D01*
X370341Y28974D01*
X370349Y28980D01*
X370349Y30080D01*
X370344Y30087D01*
X370348Y30092D01*
X370248Y30492D01*
X370201Y30529D01*
X370201Y30528D01*
X370200Y30529D01*
X366461Y30529D01*
X366862Y32331D01*
X371394Y32331D01*
X371771Y32236D01*
X372051Y31864D01*
X372051Y29084D01*
X371952Y28493D01*
X371774Y28048D01*
X370266Y28802D01*
G37*
%LPD*%
%LPC*%
G36*
X395666Y28802D02*
X395666Y28802D01*
X395744Y28958D01*
X395741Y28974D01*
X395749Y28980D01*
X395749Y30080D01*
X395744Y30087D01*
X395748Y30092D01*
X395648Y30492D01*
X395601Y30529D01*
X395601Y30528D01*
X395600Y30529D01*
X391861Y30529D01*
X392262Y32331D01*
X396794Y32331D01*
X397171Y32236D01*
X397451Y31864D01*
X397451Y29084D01*
X397352Y28493D01*
X397174Y28048D01*
X395666Y28802D01*
G37*
%LPD*%
%LPC*%
G36*
X145928Y199940D02*
X145928Y199940D01*
X145465Y200033D01*
X145433Y200032D01*
X145390Y200040D01*
X144980Y200040D01*
X144660Y200200D01*
X144627Y200208D01*
X144582Y200229D01*
X144246Y200313D01*
X144032Y200456D01*
X143886Y200602D01*
X143706Y200871D01*
X143684Y200892D01*
X143659Y200929D01*
X143522Y201065D01*
X143351Y201580D01*
X143338Y201600D01*
X143330Y201630D01*
X143242Y201806D01*
X143170Y202022D01*
X143170Y203645D01*
X143420Y203520D01*
X143435Y203516D01*
X143448Y203507D01*
X143582Y203481D01*
X143589Y203480D01*
X143590Y203480D01*
X143700Y203480D01*
X143820Y203420D01*
X143835Y203416D01*
X143848Y203407D01*
X143982Y203381D01*
X143989Y203380D01*
X143990Y203380D01*
X144300Y203380D01*
X144420Y203320D01*
X144435Y203316D01*
X144448Y203307D01*
X144582Y203281D01*
X144589Y203280D01*
X144590Y203280D01*
X144728Y203280D01*
X144970Y203199D01*
X145007Y203196D01*
X145090Y203180D01*
X145428Y203180D01*
X145670Y203099D01*
X145707Y203096D01*
X145790Y203080D01*
X146100Y203080D01*
X146220Y203020D01*
X146235Y203016D01*
X146248Y203007D01*
X146382Y202981D01*
X146389Y202980D01*
X146390Y202980D01*
X146528Y202980D01*
X146744Y202908D01*
X146865Y202848D01*
X146921Y202791D01*
X146953Y202771D01*
X147020Y202720D01*
X147365Y202548D01*
X147421Y202491D01*
X147453Y202471D01*
X147520Y202420D01*
X147607Y202377D01*
X147810Y201970D01*
X147810Y201860D01*
X147813Y201845D01*
X147811Y201830D01*
X147848Y201698D01*
X147849Y201691D01*
X147850Y201691D01*
X147850Y201690D01*
X147910Y201570D01*
X147910Y201222D01*
X147829Y200980D01*
X147826Y200943D01*
X147810Y200860D01*
X147810Y200750D01*
X147778Y200685D01*
X147721Y200629D01*
X147713Y200615D01*
X147710Y200613D01*
X147707Y200605D01*
X147701Y200597D01*
X147650Y200530D01*
X147607Y200443D01*
X147520Y200400D01*
X147491Y200376D01*
X147421Y200329D01*
X147365Y200273D01*
X147100Y200140D01*
X146990Y200140D01*
X146975Y200137D01*
X146960Y200139D01*
X146828Y200102D01*
X146821Y200101D01*
X146821Y200100D01*
X146820Y200100D01*
X146700Y200040D01*
X146590Y200040D01*
X146575Y200037D01*
X146560Y200039D01*
X146428Y200002D01*
X146421Y200001D01*
X146421Y200000D01*
X146420Y200000D01*
X146345Y199963D01*
X146300Y199940D01*
X145928Y199940D01*
G37*
%LPD*%
%LPC*%
G36*
X126027Y123539D02*
X126027Y123539D01*
X125547Y123923D01*
X125059Y124704D01*
X125059Y125774D01*
X125642Y126550D01*
X126520Y126941D01*
X128492Y126941D01*
X129061Y126467D01*
X129061Y123539D01*
X126027Y123539D01*
G37*
%LPD*%
%LPC*%
G36*
X342709Y246769D02*
X342709Y246769D01*
X342243Y246956D01*
X342149Y247425D01*
X342149Y248020D01*
X342140Y248033D01*
X342144Y248042D01*
X341944Y248442D01*
X341907Y248461D01*
X341900Y248469D01*
X340820Y248469D01*
X340549Y248740D01*
X340549Y249315D01*
X340643Y249784D01*
X341109Y249971D01*
X341600Y249971D01*
X341606Y249975D01*
X341610Y249972D01*
X342110Y250072D01*
X342149Y250116D01*
X342147Y250118D01*
X342149Y250120D01*
X342149Y251204D01*
X342425Y251571D01*
X342995Y251571D01*
X343467Y251476D01*
X343652Y251106D01*
X343751Y250016D01*
X343791Y249972D01*
X343796Y249976D01*
X343800Y249971D01*
X344695Y249971D01*
X345164Y249877D01*
X345351Y249411D01*
X345351Y248836D01*
X345075Y248469D01*
X344000Y248469D01*
X343967Y248444D01*
X343956Y248442D01*
X343756Y248042D01*
X343759Y248026D01*
X343751Y248020D01*
X343751Y247525D01*
X343655Y247048D01*
X343284Y246769D01*
X342709Y246769D01*
G37*
%LPD*%
%LPC*%
G36*
X342805Y27829D02*
X342805Y27829D01*
X342333Y27924D01*
X342148Y28294D01*
X342049Y29384D01*
X342009Y29428D01*
X342004Y29424D01*
X342000Y29429D01*
X341105Y29429D01*
X340636Y29523D01*
X340449Y29989D01*
X340449Y30564D01*
X340725Y30931D01*
X341800Y30931D01*
X341833Y30956D01*
X341844Y30958D01*
X342044Y31358D01*
X342041Y31374D01*
X342049Y31380D01*
X342049Y31875D01*
X342145Y32352D01*
X342516Y32631D01*
X343091Y32631D01*
X343557Y32444D01*
X343651Y31975D01*
X343651Y31380D01*
X343660Y31367D01*
X343656Y31358D01*
X343856Y30958D01*
X343893Y30940D01*
X343900Y30931D01*
X344980Y30931D01*
X345251Y30660D01*
X345251Y30085D01*
X345157Y29616D01*
X344691Y29429D01*
X344200Y29429D01*
X344194Y29425D01*
X344190Y29428D01*
X343690Y29328D01*
X343651Y29284D01*
X343653Y29282D01*
X343651Y29280D01*
X343651Y28196D01*
X343375Y27829D01*
X342805Y27829D01*
G37*
%LPD*%
%LPC*%
G36*
X113221Y119638D02*
X113221Y119638D01*
X112338Y119932D01*
X111658Y120710D01*
X111560Y121782D01*
X111950Y122658D01*
X112729Y123242D01*
X113700Y123339D01*
X114576Y122852D01*
X115062Y122172D01*
X115160Y121000D01*
X114771Y120222D01*
X113980Y119629D01*
X113974Y119607D01*
X113965Y119600D01*
X113970Y119593D01*
X113964Y119572D01*
X113970Y119571D01*
X113968Y119565D01*
X113980Y119543D01*
X113221Y119638D01*
G37*
%LPD*%
G36*
X104014Y127841D02*
X104014Y127841D01*
X104032Y127857D01*
X104045Y127855D01*
X104745Y128555D01*
X104749Y128582D01*
X104759Y128590D01*
X104759Y129590D01*
X104757Y129593D01*
X104759Y129595D01*
X104659Y130495D01*
X104639Y130516D01*
X104639Y130530D01*
X103939Y131030D01*
X103920Y131030D01*
X103914Y131039D01*
X102614Y131139D01*
X102613Y131139D01*
X102609Y131139D01*
X102601Y131132D01*
X102594Y131137D01*
X101694Y130837D01*
X101679Y130815D01*
X101666Y130812D01*
X101266Y130012D01*
X101269Y129996D01*
X101261Y129990D01*
X101261Y128890D01*
X101268Y128881D01*
X101263Y128874D01*
X101563Y127974D01*
X101590Y127956D01*
X101594Y127943D01*
X101894Y127843D01*
X101902Y127846D01*
X101905Y127841D01*
X102905Y127741D01*
X102911Y127745D01*
X102914Y127741D01*
X104014Y127841D01*
G37*
G36*
X151515Y127841D02*
X151515Y127841D01*
X151532Y127857D01*
X151545Y127855D01*
X152245Y128555D01*
X152249Y128582D01*
X152259Y128590D01*
X152259Y129590D01*
X152257Y129593D01*
X152259Y129595D01*
X152159Y130495D01*
X152141Y130514D01*
X152142Y130528D01*
X151542Y131028D01*
X151520Y131029D01*
X151514Y131039D01*
X150114Y131139D01*
X150113Y131139D01*
X150109Y131139D01*
X150101Y131132D01*
X150094Y131137D01*
X149194Y130837D01*
X149177Y130811D01*
X149164Y130807D01*
X148864Y130007D01*
X148868Y129995D01*
X148861Y129990D01*
X148861Y128890D01*
X148868Y128881D01*
X148863Y128874D01*
X149163Y127974D01*
X149190Y127956D01*
X149194Y127943D01*
X149494Y127843D01*
X149502Y127846D01*
X149505Y127841D01*
X150505Y127741D01*
X150511Y127745D01*
X150515Y127741D01*
X151515Y127841D01*
G37*
%LPC*%
G36*
X368849Y20110D02*
X368849Y20110D01*
X368849Y21180D01*
X368847Y21183D01*
X368849Y21184D01*
X368673Y23211D01*
X370716Y24233D01*
X371193Y24328D01*
X371566Y24142D01*
X371954Y23560D01*
X372047Y23188D01*
X371766Y22720D01*
X370782Y22326D01*
X370777Y22318D01*
X370770Y22319D01*
X370370Y22019D01*
X370362Y21988D01*
X370351Y21980D01*
X370351Y19360D01*
X368849Y20110D01*
G37*
%LPD*%
%LPC*%
G36*
X394249Y20110D02*
X394249Y20110D01*
X394249Y21180D01*
X394247Y21183D01*
X394249Y21184D01*
X394073Y23211D01*
X396116Y24233D01*
X396593Y24328D01*
X396966Y24142D01*
X397354Y23560D01*
X397447Y23188D01*
X397166Y22720D01*
X396182Y22326D01*
X396177Y22318D01*
X396170Y22319D01*
X395770Y22019D01*
X395762Y21988D01*
X395751Y21980D01*
X395751Y19360D01*
X394249Y20110D01*
G37*
%LPD*%
%LPC*%
G36*
X41742Y135149D02*
X41742Y135149D01*
X41324Y135219D01*
X41939Y137151D01*
X43130Y137151D01*
X43147Y137157D01*
X43159Y137154D01*
X43646Y137251D01*
X45781Y137297D01*
X45781Y135812D01*
X45698Y135313D01*
X45206Y135149D01*
X41742Y135149D01*
G37*
%LPD*%
%LPC*%
G36*
X141017Y119539D02*
X141017Y119539D01*
X140038Y119833D01*
X139457Y120510D01*
X139360Y121482D01*
X139748Y122355D01*
X140620Y122839D01*
X141591Y122742D01*
X142367Y122160D01*
X142658Y121191D01*
X142366Y120315D01*
X141688Y119539D01*
X141017Y119539D01*
G37*
%LPD*%
%LPC*%
G36*
X33949Y135496D02*
X33949Y135496D01*
X33364Y136667D01*
X33358Y136671D01*
X33358Y136677D01*
X33062Y137170D01*
X32253Y138877D01*
X34502Y139153D01*
X35494Y137138D01*
X35787Y136455D01*
X35870Y136039D01*
X35531Y135616D01*
X34879Y135243D01*
X34371Y135158D01*
X33949Y135496D01*
G37*
%LPD*%
%LPC*%
G36*
X368106Y11129D02*
X368106Y11129D01*
X367738Y11221D01*
X367549Y11788D01*
X367549Y14468D01*
X367733Y14836D01*
X368304Y14931D01*
X368775Y14931D01*
X369051Y14564D01*
X369051Y11405D01*
X368684Y11129D01*
X368106Y11129D01*
G37*
%LPD*%
%LPC*%
G36*
X393506Y11129D02*
X393506Y11129D01*
X393138Y11221D01*
X392949Y11788D01*
X392949Y14468D01*
X393133Y14836D01*
X393704Y14931D01*
X394175Y14931D01*
X394451Y14564D01*
X394451Y11405D01*
X394084Y11129D01*
X393506Y11129D01*
G37*
%LPD*%
%LPC*%
G36*
X391051Y42575D02*
X391051Y42575D01*
X391053Y42574D01*
X391051Y42572D01*
X391051Y42575D01*
G37*
%LPD*%
%LPC*%
G36*
X365651Y42575D02*
X365651Y42575D01*
X365653Y42574D01*
X365651Y42572D01*
X365651Y42575D01*
G37*
%LPD*%
D10*
X386080Y53340D02*
X401320Y53340D01*
X381508Y69088D02*
X381510Y69221D01*
X381516Y69354D01*
X381525Y69486D01*
X381539Y69619D01*
X381556Y69751D01*
X381577Y69882D01*
X381602Y70013D01*
X381631Y70142D01*
X381664Y70271D01*
X381700Y70399D01*
X381740Y70526D01*
X381784Y70652D01*
X381831Y70776D01*
X381882Y70899D01*
X381936Y71020D01*
X381994Y71140D01*
X382056Y71258D01*
X382121Y71374D01*
X382189Y71488D01*
X382260Y71600D01*
X382335Y71710D01*
X382413Y71818D01*
X382494Y71924D01*
X382578Y72027D01*
X382665Y72127D01*
X382754Y72225D01*
X382847Y72321D01*
X382943Y72414D01*
X383041Y72503D01*
X383141Y72590D01*
X383244Y72674D01*
X383350Y72755D01*
X383458Y72833D01*
X383568Y72908D01*
X383680Y72979D01*
X383794Y73047D01*
X383910Y73112D01*
X384028Y73174D01*
X384148Y73232D01*
X384269Y73286D01*
X384392Y73337D01*
X384516Y73384D01*
X384642Y73428D01*
X384769Y73468D01*
X384897Y73504D01*
X385026Y73537D01*
X385155Y73566D01*
X385286Y73591D01*
X385417Y73612D01*
X385549Y73629D01*
X385682Y73643D01*
X385814Y73652D01*
X385947Y73658D01*
X386080Y73660D01*
X401320Y73660D02*
X401453Y73658D01*
X401586Y73652D01*
X401718Y73643D01*
X401851Y73629D01*
X401983Y73612D01*
X402114Y73591D01*
X402245Y73566D01*
X402374Y73537D01*
X402503Y73504D01*
X402631Y73468D01*
X402758Y73428D01*
X402884Y73384D01*
X403008Y73337D01*
X403131Y73286D01*
X403252Y73232D01*
X403372Y73174D01*
X403490Y73112D01*
X403606Y73047D01*
X403720Y72979D01*
X403832Y72908D01*
X403942Y72833D01*
X404050Y72755D01*
X404156Y72674D01*
X404259Y72590D01*
X404359Y72503D01*
X404457Y72414D01*
X404553Y72321D01*
X404646Y72225D01*
X404735Y72127D01*
X404822Y72027D01*
X404906Y71924D01*
X404987Y71818D01*
X405065Y71710D01*
X405140Y71600D01*
X405211Y71488D01*
X405279Y71374D01*
X405344Y71258D01*
X405406Y71140D01*
X405464Y71020D01*
X405518Y70899D01*
X405569Y70776D01*
X405616Y70652D01*
X405660Y70526D01*
X405700Y70399D01*
X405736Y70271D01*
X405769Y70142D01*
X405798Y70013D01*
X405823Y69882D01*
X405844Y69751D01*
X405861Y69619D01*
X405875Y69486D01*
X405884Y69354D01*
X405890Y69221D01*
X405892Y69088D01*
X405892Y57912D02*
X405890Y57779D01*
X405884Y57646D01*
X405875Y57514D01*
X405861Y57381D01*
X405844Y57249D01*
X405823Y57118D01*
X405798Y56987D01*
X405769Y56858D01*
X405736Y56729D01*
X405700Y56601D01*
X405660Y56474D01*
X405616Y56348D01*
X405569Y56224D01*
X405518Y56101D01*
X405464Y55980D01*
X405406Y55860D01*
X405344Y55742D01*
X405279Y55626D01*
X405211Y55512D01*
X405140Y55400D01*
X405065Y55290D01*
X404987Y55182D01*
X404906Y55076D01*
X404822Y54973D01*
X404735Y54873D01*
X404646Y54775D01*
X404553Y54679D01*
X404457Y54586D01*
X404359Y54497D01*
X404259Y54410D01*
X404156Y54326D01*
X404050Y54245D01*
X403942Y54167D01*
X403832Y54092D01*
X403720Y54021D01*
X403606Y53953D01*
X403490Y53888D01*
X403372Y53826D01*
X403252Y53768D01*
X403131Y53714D01*
X403008Y53663D01*
X402884Y53616D01*
X402758Y53572D01*
X402631Y53532D01*
X402503Y53496D01*
X402374Y53463D01*
X402245Y53434D01*
X402114Y53409D01*
X401983Y53388D01*
X401851Y53371D01*
X401718Y53357D01*
X401586Y53348D01*
X401453Y53342D01*
X401320Y53340D01*
X386080Y53340D02*
X385947Y53342D01*
X385814Y53348D01*
X385682Y53357D01*
X385549Y53371D01*
X385417Y53388D01*
X385286Y53409D01*
X385155Y53434D01*
X385026Y53463D01*
X384897Y53496D01*
X384769Y53532D01*
X384642Y53572D01*
X384516Y53616D01*
X384392Y53663D01*
X384269Y53714D01*
X384148Y53768D01*
X384028Y53826D01*
X383910Y53888D01*
X383794Y53953D01*
X383680Y54021D01*
X383568Y54092D01*
X383458Y54167D01*
X383350Y54245D01*
X383244Y54326D01*
X383141Y54410D01*
X383041Y54497D01*
X382943Y54586D01*
X382847Y54679D01*
X382754Y54775D01*
X382665Y54873D01*
X382578Y54973D01*
X382494Y55076D01*
X382413Y55182D01*
X382335Y55290D01*
X382260Y55400D01*
X382189Y55512D01*
X382121Y55626D01*
X382056Y55742D01*
X381994Y55860D01*
X381936Y55980D01*
X381882Y56101D01*
X381831Y56224D01*
X381784Y56348D01*
X381740Y56474D01*
X381700Y56601D01*
X381664Y56729D01*
X381631Y56858D01*
X381602Y56987D01*
X381577Y57118D01*
X381556Y57249D01*
X381539Y57381D01*
X381525Y57514D01*
X381516Y57646D01*
X381510Y57779D01*
X381508Y57912D01*
X381508Y69088D01*
X405892Y69088D02*
X405892Y57912D01*
X401320Y73660D02*
X386080Y73660D01*
X375920Y53340D02*
X360680Y53340D01*
X356108Y69088D02*
X356110Y69221D01*
X356116Y69354D01*
X356125Y69486D01*
X356139Y69619D01*
X356156Y69751D01*
X356177Y69882D01*
X356202Y70013D01*
X356231Y70142D01*
X356264Y70271D01*
X356300Y70399D01*
X356340Y70526D01*
X356384Y70652D01*
X356431Y70776D01*
X356482Y70899D01*
X356536Y71020D01*
X356594Y71140D01*
X356656Y71258D01*
X356721Y71374D01*
X356789Y71488D01*
X356860Y71600D01*
X356935Y71710D01*
X357013Y71818D01*
X357094Y71924D01*
X357178Y72027D01*
X357265Y72127D01*
X357354Y72225D01*
X357447Y72321D01*
X357543Y72414D01*
X357641Y72503D01*
X357741Y72590D01*
X357844Y72674D01*
X357950Y72755D01*
X358058Y72833D01*
X358168Y72908D01*
X358280Y72979D01*
X358394Y73047D01*
X358510Y73112D01*
X358628Y73174D01*
X358748Y73232D01*
X358869Y73286D01*
X358992Y73337D01*
X359116Y73384D01*
X359242Y73428D01*
X359369Y73468D01*
X359497Y73504D01*
X359626Y73537D01*
X359755Y73566D01*
X359886Y73591D01*
X360017Y73612D01*
X360149Y73629D01*
X360282Y73643D01*
X360414Y73652D01*
X360547Y73658D01*
X360680Y73660D01*
X375920Y73660D02*
X376053Y73658D01*
X376186Y73652D01*
X376318Y73643D01*
X376451Y73629D01*
X376583Y73612D01*
X376714Y73591D01*
X376845Y73566D01*
X376974Y73537D01*
X377103Y73504D01*
X377231Y73468D01*
X377358Y73428D01*
X377484Y73384D01*
X377608Y73337D01*
X377731Y73286D01*
X377852Y73232D01*
X377972Y73174D01*
X378090Y73112D01*
X378206Y73047D01*
X378320Y72979D01*
X378432Y72908D01*
X378542Y72833D01*
X378650Y72755D01*
X378756Y72674D01*
X378859Y72590D01*
X378959Y72503D01*
X379057Y72414D01*
X379153Y72321D01*
X379246Y72225D01*
X379335Y72127D01*
X379422Y72027D01*
X379506Y71924D01*
X379587Y71818D01*
X379665Y71710D01*
X379740Y71600D01*
X379811Y71488D01*
X379879Y71374D01*
X379944Y71258D01*
X380006Y71140D01*
X380064Y71020D01*
X380118Y70899D01*
X380169Y70776D01*
X380216Y70652D01*
X380260Y70526D01*
X380300Y70399D01*
X380336Y70271D01*
X380369Y70142D01*
X380398Y70013D01*
X380423Y69882D01*
X380444Y69751D01*
X380461Y69619D01*
X380475Y69486D01*
X380484Y69354D01*
X380490Y69221D01*
X380492Y69088D01*
X380492Y57912D02*
X380490Y57779D01*
X380484Y57646D01*
X380475Y57514D01*
X380461Y57381D01*
X380444Y57249D01*
X380423Y57118D01*
X380398Y56987D01*
X380369Y56858D01*
X380336Y56729D01*
X380300Y56601D01*
X380260Y56474D01*
X380216Y56348D01*
X380169Y56224D01*
X380118Y56101D01*
X380064Y55980D01*
X380006Y55860D01*
X379944Y55742D01*
X379879Y55626D01*
X379811Y55512D01*
X379740Y55400D01*
X379665Y55290D01*
X379587Y55182D01*
X379506Y55076D01*
X379422Y54973D01*
X379335Y54873D01*
X379246Y54775D01*
X379153Y54679D01*
X379057Y54586D01*
X378959Y54497D01*
X378859Y54410D01*
X378756Y54326D01*
X378650Y54245D01*
X378542Y54167D01*
X378432Y54092D01*
X378320Y54021D01*
X378206Y53953D01*
X378090Y53888D01*
X377972Y53826D01*
X377852Y53768D01*
X377731Y53714D01*
X377608Y53663D01*
X377484Y53616D01*
X377358Y53572D01*
X377231Y53532D01*
X377103Y53496D01*
X376974Y53463D01*
X376845Y53434D01*
X376714Y53409D01*
X376583Y53388D01*
X376451Y53371D01*
X376318Y53357D01*
X376186Y53348D01*
X376053Y53342D01*
X375920Y53340D01*
X360680Y53340D02*
X360547Y53342D01*
X360414Y53348D01*
X360282Y53357D01*
X360149Y53371D01*
X360017Y53388D01*
X359886Y53409D01*
X359755Y53434D01*
X359626Y53463D01*
X359497Y53496D01*
X359369Y53532D01*
X359242Y53572D01*
X359116Y53616D01*
X358992Y53663D01*
X358869Y53714D01*
X358748Y53768D01*
X358628Y53826D01*
X358510Y53888D01*
X358394Y53953D01*
X358280Y54021D01*
X358168Y54092D01*
X358058Y54167D01*
X357950Y54245D01*
X357844Y54326D01*
X357741Y54410D01*
X357641Y54497D01*
X357543Y54586D01*
X357447Y54679D01*
X357354Y54775D01*
X357265Y54873D01*
X357178Y54973D01*
X357094Y55076D01*
X357013Y55182D01*
X356935Y55290D01*
X356860Y55400D01*
X356789Y55512D01*
X356721Y55626D01*
X356656Y55742D01*
X356594Y55860D01*
X356536Y55980D01*
X356482Y56101D01*
X356431Y56224D01*
X356384Y56348D01*
X356340Y56474D01*
X356300Y56601D01*
X356264Y56729D01*
X356231Y56858D01*
X356202Y56987D01*
X356177Y57118D01*
X356156Y57249D01*
X356139Y57381D01*
X356125Y57514D01*
X356116Y57646D01*
X356110Y57779D01*
X356108Y57912D01*
X356108Y69088D01*
X380492Y69088D02*
X380492Y57912D01*
X375920Y73660D02*
X360680Y73660D01*
D11*
X130870Y185560D03*
D12*
X125470Y185160D03*
D13*
X126620Y184810D03*
D14*
X127670Y184460D03*
D15*
X128470Y184060D03*
D16*
X128620Y183660D03*
D17*
X128670Y183310D03*
D18*
X129370Y181460D03*
X129370Y181060D03*
D19*
X129370Y180660D03*
D17*
X129370Y180310D03*
D20*
X129220Y179960D03*
D21*
X129220Y179560D03*
X129220Y179160D03*
D22*
X129220Y178810D03*
D23*
X129070Y178460D03*
X129070Y178060D03*
D24*
X128870Y177710D03*
D25*
X129020Y177360D03*
D26*
X128820Y176960D03*
X128820Y176560D03*
D27*
X128620Y176210D03*
D28*
X128620Y175860D03*
D29*
X128670Y175460D03*
D30*
X128470Y175060D03*
D31*
X128470Y174710D03*
D32*
X128270Y174360D03*
X128270Y173960D03*
D33*
X177270Y173560D03*
D34*
X167320Y173560D03*
D35*
X160620Y173560D03*
D36*
X152020Y173560D03*
D37*
X141320Y173560D03*
D35*
X133320Y173560D03*
D38*
X127520Y173560D03*
D39*
X118770Y173560D03*
D40*
X111470Y173560D03*
D41*
X89020Y173560D03*
D42*
X177820Y173210D03*
D43*
X166770Y173210D03*
D44*
X160620Y173210D03*
D45*
X152220Y173210D03*
X141320Y173210D03*
D46*
X133120Y173210D03*
D44*
X127320Y173210D03*
D45*
X119320Y173210D03*
D47*
X111270Y173210D03*
D48*
X88420Y173210D03*
D49*
X178170Y172860D03*
D50*
X166570Y172860D03*
D38*
X160420Y172860D03*
D51*
X152020Y172860D03*
D37*
X141320Y172860D03*
D35*
X133320Y172860D03*
X127320Y172860D03*
D52*
X119670Y172860D03*
D40*
X111470Y172860D03*
D53*
X88120Y172860D03*
D54*
X178570Y172460D03*
D35*
X166220Y172460D03*
D38*
X160420Y172460D03*
D51*
X152020Y172460D03*
D52*
X141370Y172460D03*
D35*
X133320Y172460D03*
X127320Y172460D03*
D55*
X120070Y172460D03*
D40*
X111470Y172460D03*
D56*
X87520Y172460D03*
D57*
X178770Y172060D03*
D58*
X166020Y172060D03*
D38*
X160420Y172060D03*
D59*
X152220Y172060D03*
D52*
X141370Y172060D03*
D60*
X133470Y172060D03*
D35*
X127320Y172060D03*
D61*
X120420Y172060D03*
D40*
X111470Y172060D03*
D62*
X87370Y172060D03*
D63*
X178920Y171710D03*
D47*
X160270Y171710D03*
D64*
X152020Y171710D03*
D65*
X141370Y171710D03*
D66*
X133470Y171710D03*
D44*
X127320Y171710D03*
D67*
X120620Y171710D03*
D43*
X111470Y171710D03*
D68*
X106570Y171710D03*
D69*
X87170Y171710D03*
D70*
X179120Y171360D03*
D50*
X160270Y171360D03*
D71*
X152020Y171360D03*
D52*
X141370Y171360D03*
D60*
X133470Y171360D03*
D35*
X127320Y171360D03*
D34*
X120620Y171360D03*
D40*
X111470Y171360D03*
D59*
X106220Y171360D03*
D62*
X86970Y171360D03*
D36*
X179320Y170960D03*
D40*
X160070Y170960D03*
D71*
X152020Y170960D03*
D55*
X141370Y170960D03*
D50*
X133670Y170960D03*
D35*
X127320Y170960D03*
D72*
X120970Y170960D03*
D40*
X111470Y170960D03*
D51*
X106020Y170960D03*
D62*
X86970Y170960D03*
D73*
X179470Y170610D03*
D43*
X160070Y170610D03*
D68*
X152170Y170610D03*
X141370Y170610D03*
D47*
X133670Y170610D03*
D44*
X127320Y170610D03*
D74*
X120970Y170610D03*
D43*
X111470Y170610D03*
D45*
X105820Y170610D03*
D69*
X86770Y170610D03*
D75*
X179670Y170260D03*
D40*
X160070Y170260D03*
D76*
X152020Y170260D03*
D55*
X141370Y170260D03*
D50*
X133670Y170260D03*
D35*
X127320Y170260D03*
D40*
X121170Y170260D03*
X111470Y170260D03*
D37*
X105820Y170260D03*
D53*
X86620Y170260D03*
D75*
X179670Y169860D03*
D72*
X159870Y169860D03*
D76*
X152020Y169860D03*
D77*
X141370Y169860D03*
D40*
X133870Y169860D03*
D35*
X127320Y169860D03*
D40*
X121170Y169860D03*
X111470Y169860D03*
D37*
X105820Y169860D03*
D78*
X92570Y169860D03*
D79*
X76320Y169860D03*
D75*
X179670Y169460D03*
D38*
X169020Y169460D03*
D72*
X159870Y169460D03*
D61*
X152220Y169460D03*
D77*
X141370Y169460D03*
D40*
X133870Y169460D03*
D35*
X127320Y169460D03*
D50*
X121370Y169460D03*
D40*
X111470Y169460D03*
D37*
X105820Y169460D03*
D40*
X99870Y169460D03*
D36*
X93720Y169460D03*
D80*
X86970Y169460D03*
D39*
X75770Y169460D03*
D45*
X179820Y169110D03*
D81*
X169020Y169110D03*
D74*
X159870Y169110D03*
D67*
X152020Y169110D03*
D82*
X141370Y169110D03*
D43*
X133870Y169110D03*
D44*
X127320Y169110D03*
D47*
X121370Y169110D03*
D68*
X112570Y169110D03*
D45*
X105820Y169110D03*
D43*
X99870Y169110D03*
D83*
X93720Y169110D03*
D84*
X87120Y169110D03*
D73*
X75170Y169110D03*
D37*
X179820Y168760D03*
D85*
X169020Y168760D03*
D86*
X159670Y168760D03*
D34*
X152020Y168760D03*
D87*
X141320Y168760D03*
D72*
X134070Y168760D03*
D35*
X127320Y168760D03*
D60*
X121570Y168760D03*
D88*
X112770Y168760D03*
D37*
X105820Y168760D03*
D40*
X99870Y168760D03*
D36*
X93720Y168760D03*
D89*
X87320Y168760D03*
D37*
X74820Y168760D03*
D51*
X180020Y168360D03*
D59*
X169020Y168360D03*
D86*
X159670Y168360D03*
D87*
X152220Y168360D03*
X141320Y168360D03*
D72*
X134070Y168360D03*
D35*
X127320Y168360D03*
D60*
X121570Y168360D03*
D52*
X112970Y168360D03*
D51*
X106020Y168360D03*
D72*
X100070Y168360D03*
D36*
X93720Y168360D03*
D90*
X87520Y168360D03*
D37*
X74820Y168360D03*
D51*
X180020Y167960D03*
X169220Y167960D03*
D86*
X159670Y167960D03*
D89*
X152020Y167960D03*
D87*
X141320Y167960D03*
X134220Y167960D03*
D35*
X127320Y167960D03*
D60*
X121570Y167960D03*
D51*
X113120Y167960D03*
D59*
X106220Y167960D03*
D72*
X100070Y167960D03*
D36*
X93720Y167960D03*
D50*
X87670Y167960D03*
D55*
X82270Y167960D03*
D70*
X74820Y167960D03*
D91*
X180020Y167610D03*
D45*
X169020Y167610D03*
D67*
X159520Y167610D03*
D92*
X152020Y167610D03*
X141520Y167610D03*
D84*
X134220Y167610D03*
D44*
X127320Y167610D03*
X121720Y167610D03*
D91*
X113120Y167610D03*
D68*
X106570Y167610D03*
D84*
X100220Y167610D03*
D83*
X93720Y167610D03*
D47*
X87670Y167610D03*
D45*
X81920Y167610D03*
D93*
X74970Y167610D03*
D51*
X180020Y167260D03*
D36*
X169220Y167260D03*
D34*
X159520Y167260D03*
D89*
X152020Y167260D03*
D40*
X141370Y167260D03*
D87*
X134220Y167260D03*
D35*
X127320Y167260D03*
X121720Y167260D03*
D51*
X113120Y167260D03*
D34*
X100420Y167260D03*
D36*
X93720Y167260D03*
D50*
X87670Y167260D03*
D94*
X78170Y167260D03*
D51*
X180020Y166860D03*
D36*
X169220Y166860D03*
D34*
X159520Y166860D03*
D40*
X152170Y166860D03*
X141370Y166860D03*
D34*
X134420Y166860D03*
D35*
X127320Y166860D03*
X121720Y166860D03*
D37*
X113320Y166860D03*
D61*
X100620Y166860D03*
D36*
X93720Y166860D03*
D50*
X87670Y166860D03*
D94*
X78170Y166860D03*
D37*
X180220Y166460D03*
D70*
X169020Y166460D03*
D61*
X159320Y166460D03*
D50*
X151970Y166460D03*
D95*
X146770Y166460D03*
D40*
X141370Y166460D03*
D34*
X134420Y166460D03*
D35*
X127320Y166460D03*
X121720Y166460D03*
D37*
X113320Y166460D03*
D96*
X100770Y166460D03*
D36*
X93720Y166460D03*
D50*
X87670Y166460D03*
D94*
X78170Y166460D03*
D45*
X180220Y166110D03*
D97*
X169020Y166110D03*
D81*
X159320Y166110D03*
D47*
X151970Y166110D03*
D98*
X146770Y166110D03*
D47*
X141570Y166110D03*
D67*
X134420Y166110D03*
D44*
X127320Y166110D03*
X121720Y166110D03*
D45*
X113320Y166110D03*
D67*
X100420Y166110D03*
D83*
X93720Y166110D03*
D47*
X87670Y166110D03*
D99*
X77970Y166110D03*
D37*
X180220Y165760D03*
D70*
X169020Y165760D03*
D61*
X159320Y165760D03*
D50*
X151970Y165760D03*
D60*
X146970Y165760D03*
X141370Y165760D03*
D61*
X134620Y165760D03*
D35*
X127320Y165760D03*
X121720Y165760D03*
D37*
X113320Y165760D03*
D72*
X100070Y165760D03*
D36*
X93720Y165760D03*
D50*
X87670Y165760D03*
D100*
X77620Y165760D03*
D37*
X180220Y165360D03*
D70*
X169020Y165360D03*
D76*
X159120Y165360D03*
D35*
X152020Y165360D03*
D50*
X146770Y165360D03*
D60*
X141370Y165360D03*
D61*
X134620Y165360D03*
D35*
X127320Y165360D03*
X121720Y165360D03*
D37*
X113320Y165360D03*
D61*
X106620Y165360D03*
D40*
X99870Y165360D03*
D36*
X93720Y165360D03*
D90*
X87520Y165360D03*
D101*
X77020Y165360D03*
D37*
X180220Y164960D03*
D36*
X169220Y164960D03*
D76*
X159120Y164960D03*
D35*
X152020Y164960D03*
D50*
X146770Y164960D03*
D102*
X141370Y164960D03*
D76*
X134820Y164960D03*
D35*
X127320Y164960D03*
X121720Y164960D03*
D37*
X113320Y164960D03*
X105820Y164960D03*
D50*
X99670Y164960D03*
D36*
X93720Y164960D03*
D89*
X87320Y164960D03*
D103*
X76120Y164960D03*
D45*
X180220Y164610D03*
D83*
X169220Y164610D03*
D68*
X158970Y164610D03*
D46*
X152220Y164610D03*
D47*
X146770Y164610D03*
D104*
X141370Y164610D03*
D105*
X134820Y164610D03*
D44*
X127320Y164610D03*
X121720Y164610D03*
D91*
X113120Y164610D03*
D83*
X105620Y164610D03*
D47*
X99670Y164610D03*
D83*
X93720Y164610D03*
D84*
X87120Y164610D03*
D106*
X75370Y164610D03*
D37*
X180220Y164260D03*
X169020Y164260D03*
D55*
X158970Y164260D03*
D72*
X146770Y164260D03*
D102*
X141370Y164260D03*
D76*
X134820Y164260D03*
D35*
X127320Y164260D03*
X121720Y164260D03*
D51*
X113120Y164260D03*
D107*
X105470Y164260D03*
D60*
X99470Y164260D03*
D36*
X93720Y164260D03*
D80*
X86970Y164260D03*
D79*
X74820Y164260D03*
D37*
X180220Y163860D03*
D51*
X169220Y163860D03*
D55*
X158970Y163860D03*
D72*
X146770Y163860D03*
D55*
X134970Y163860D03*
D35*
X127320Y163860D03*
D60*
X121570Y163860D03*
D51*
X113120Y163860D03*
D107*
X105470Y163860D03*
D60*
X99470Y163860D03*
D36*
X93720Y163860D03*
D96*
X86570Y163860D03*
D54*
X74270Y163860D03*
D36*
X180020Y163460D03*
D59*
X169020Y163460D03*
D88*
X158770Y163460D03*
D72*
X146770Y163460D03*
D55*
X134970Y163460D03*
D35*
X127320Y163460D03*
D60*
X121570Y163460D03*
D52*
X112970Y163460D03*
D107*
X105470Y163460D03*
D60*
X99470Y163460D03*
D36*
X93720Y163460D03*
D51*
X85820Y163460D03*
D57*
X74070Y163460D03*
D83*
X180020Y163110D03*
D108*
X169020Y163110D03*
D109*
X158770Y163110D03*
D110*
X146970Y163110D03*
D68*
X134970Y163110D03*
D44*
X127320Y163110D03*
D66*
X121570Y163110D03*
D109*
X112770Y163110D03*
D73*
X105470Y163110D03*
D44*
X99320Y163110D03*
D83*
X93720Y163110D03*
D93*
X85070Y163110D03*
D111*
X73670Y163110D03*
D36*
X180020Y162760D03*
D61*
X169020Y162760D03*
D88*
X158770Y162760D03*
D34*
X146820Y162760D03*
D88*
X135170Y162760D03*
D35*
X127320Y162760D03*
D50*
X121370Y162760D03*
D96*
X112370Y162760D03*
D107*
X105470Y162760D03*
D35*
X99320Y162760D03*
D36*
X93720Y162760D03*
D79*
X84520Y162760D03*
D57*
X73670Y162760D03*
D107*
X179870Y162360D03*
D38*
X169020Y162360D03*
D52*
X158570Y162360D03*
D34*
X146820Y162360D03*
D88*
X135170Y162360D03*
D35*
X127320Y162360D03*
D50*
X121370Y162360D03*
D40*
X111470Y162360D03*
D107*
X105470Y162360D03*
D35*
X99320Y162360D03*
D36*
X93720Y162360D03*
D112*
X84120Y162360D03*
D57*
X73370Y162360D03*
D73*
X179870Y162010D03*
D65*
X158570Y162010D03*
D82*
X146970Y162010D03*
D109*
X135170Y162010D03*
D44*
X127320Y162010D03*
D43*
X121170Y162010D03*
D47*
X111270Y162010D03*
D73*
X105470Y162010D03*
D66*
X99470Y162010D03*
D83*
X93720Y162010D03*
D113*
X83770Y162010D03*
D111*
X73370Y162010D03*
D39*
X179670Y161660D03*
D52*
X158570Y161660D03*
D96*
X146770Y161660D03*
D52*
X135370Y161660D03*
D35*
X127320Y161660D03*
D40*
X121170Y161660D03*
X111470Y161660D03*
D107*
X105470Y161660D03*
D60*
X99470Y161660D03*
D37*
X93920Y161660D03*
D114*
X83770Y161660D03*
D54*
X73170Y161660D03*
D39*
X179670Y161260D03*
D115*
X158370Y161260D03*
D96*
X146770Y161260D03*
D52*
X135370Y161260D03*
D35*
X127320Y161260D03*
D72*
X120970Y161260D03*
D40*
X111470Y161260D03*
D36*
X105620Y161260D03*
D60*
X99470Y161260D03*
D115*
X94070Y161260D03*
D114*
X83770Y161260D03*
D54*
X73170Y161260D03*
D57*
X179470Y160860D03*
D115*
X158370Y160860D03*
D55*
X146970Y160860D03*
D115*
X135570Y160860D03*
D35*
X127320Y160860D03*
D72*
X120970Y160860D03*
D40*
X111470Y160860D03*
D37*
X105820Y160860D03*
D50*
X99670Y160860D03*
D88*
X94070Y160860D03*
D50*
X87670Y160860D03*
D57*
X82670Y160860D03*
D54*
X73170Y160860D03*
D116*
X179270Y160510D03*
D45*
X158220Y160510D03*
D109*
X146770Y160510D03*
D117*
X135570Y160510D03*
D44*
X127320Y160510D03*
D67*
X120620Y160510D03*
D43*
X111470Y160510D03*
D91*
X106020Y160510D03*
D43*
X99470Y160510D03*
D118*
X94070Y160510D03*
D66*
X87870Y160510D03*
D83*
X82520Y160510D03*
D116*
X73170Y160510D03*
D119*
X179320Y160160D03*
D37*
X158220Y160160D03*
D88*
X146770Y160160D03*
D115*
X135570Y160160D03*
D35*
X127320Y160160D03*
D34*
X120620Y160160D03*
D40*
X111470Y160160D03*
D72*
X99670Y160160D03*
D87*
X94220Y160160D03*
D95*
X88070Y160160D03*
D52*
X82270Y160160D03*
D79*
X73320Y160160D03*
D112*
X179120Y159760D03*
D58*
X166020Y159760D03*
D37*
X158220Y159760D03*
D88*
X146770Y159760D03*
D37*
X135720Y159760D03*
D35*
X127320Y159760D03*
D76*
X120220Y159760D03*
D40*
X111470Y159760D03*
D86*
X99870Y159760D03*
D58*
X90920Y159760D03*
D95*
X88070Y159760D03*
D79*
X73320Y159760D03*
D120*
X178920Y159360D03*
D35*
X166220Y159360D03*
D36*
X158020Y159360D03*
D115*
X146770Y159360D03*
D37*
X135720Y159360D03*
D35*
X127320Y159360D03*
D55*
X120070Y159360D03*
D40*
X111470Y159360D03*
D77*
X99870Y159360D03*
D95*
X91070Y159360D03*
D50*
X87670Y159360D03*
D112*
X73720Y159360D03*
D121*
X178570Y159010D03*
D47*
X166570Y159010D03*
D83*
X158020Y159010D03*
D117*
X146770Y159010D03*
D45*
X135720Y159010D03*
D44*
X127320Y159010D03*
D65*
X119670Y159010D03*
D43*
X111470Y159010D03*
D109*
X100070Y159010D03*
D66*
X91270Y159010D03*
D122*
X87520Y159010D03*
D106*
X73870Y159010D03*
D123*
X178170Y158660D03*
D40*
X166770Y158660D03*
D36*
X158020Y158660D03*
D115*
X146770Y158660D03*
D36*
X135920Y158660D03*
D35*
X127320Y158660D03*
D37*
X119320Y158660D03*
D50*
X111270Y158660D03*
D37*
X100220Y158660D03*
D50*
X91470Y158660D03*
D87*
X87120Y158660D03*
D114*
X74070Y158660D03*
D35*
X67520Y158660D03*
D101*
X177620Y158260D03*
D61*
X167520Y158260D03*
D124*
X137820Y158260D03*
D40*
X111470Y158260D03*
D119*
X100820Y158260D03*
D34*
X91820Y158260D03*
D88*
X86570Y158260D03*
D125*
X74620Y158260D03*
D60*
X67370Y158260D03*
D126*
X174620Y157860D03*
D127*
X115220Y157860D03*
D50*
X67170Y157860D03*
D128*
X174620Y157510D03*
D129*
X115220Y157510D03*
D47*
X67170Y157510D03*
D126*
X174620Y157160D03*
D127*
X115220Y157160D03*
D50*
X67170Y157160D03*
D126*
X174620Y156760D03*
D127*
X115220Y156760D03*
D50*
X67170Y156760D03*
D126*
X174620Y156360D03*
D127*
X115220Y156360D03*
D50*
X67170Y156360D03*
D128*
X174620Y156010D03*
D129*
X115220Y156010D03*
D47*
X67170Y156010D03*
D126*
X174620Y155660D03*
D127*
X115220Y155660D03*
D50*
X67170Y155660D03*
D126*
X174620Y155260D03*
D127*
X115220Y155260D03*
D50*
X67170Y155260D03*
D126*
X174620Y154860D03*
D127*
X115220Y154860D03*
D50*
X67170Y154860D03*
D128*
X174620Y154510D03*
D129*
X115220Y154510D03*
D47*
X67170Y154510D03*
D126*
X174620Y154160D03*
D127*
X115220Y154160D03*
D50*
X67170Y154160D03*
D126*
X174620Y153760D03*
D127*
X115220Y153760D03*
D50*
X67170Y153760D03*
D128*
X174620Y153410D03*
D129*
X115220Y153410D03*
D47*
X67170Y153410D03*
D126*
X174620Y153060D03*
D127*
X115220Y153060D03*
D50*
X67170Y153060D03*
D130*
X126420Y152660D03*
D50*
X67170Y152660D03*
D130*
X126420Y152260D03*
D50*
X67170Y152260D03*
D131*
X126420Y151910D03*
D66*
X67370Y151910D03*
D130*
X126420Y151560D03*
X126420Y151160D03*
D132*
X138920Y150760D03*
D133*
X76320Y150760D03*
D134*
X139670Y150410D03*
D135*
X75570Y150410D03*
D136*
X140020Y150060D03*
D101*
X75220Y150060D03*
D137*
X140220Y149660D03*
D138*
X75020Y149660D03*
D139*
X140420Y149260D03*
D95*
X92970Y149260D03*
D76*
X90320Y149260D03*
D140*
X74820Y149260D03*
D141*
X140620Y148910D03*
D142*
X88870Y148910D03*
D143*
X74620Y148910D03*
D144*
X140770Y148560D03*
D145*
X88820Y148560D03*
D33*
X74470Y148560D03*
D144*
X140770Y148160D03*
D146*
X88820Y148160D03*
D33*
X74470Y148160D03*
D147*
X172170Y147760D03*
D148*
X126770Y147760D03*
D149*
X88870Y147760D03*
D150*
X74270Y147760D03*
D151*
X175920Y147410D03*
D152*
X124720Y147410D03*
D73*
X93870Y147410D03*
X84170Y147410D03*
D113*
X74070Y147410D03*
D43*
X66970Y147410D03*
D60*
X185470Y147060D03*
D153*
X176870Y147060D03*
D154*
X124370Y147060D03*
D36*
X94420Y147060D03*
D37*
X83420Y147060D03*
D114*
X74070Y147060D03*
D40*
X66970Y147060D03*
D60*
X185470Y146660D03*
D101*
X177220Y146660D03*
D155*
X124370Y146660D03*
D37*
X94620Y146660D03*
X83020Y146660D03*
D156*
X73870Y146660D03*
D40*
X66970Y146660D03*
D47*
X185270Y146310D03*
D157*
X177620Y146310D03*
D158*
X124020Y146310D03*
D45*
X95020Y146310D03*
D117*
X82870Y146310D03*
D106*
X73870Y146310D03*
D43*
X66970Y146310D03*
D50*
X185270Y145960D03*
D33*
X177970Y145960D03*
D60*
X155570Y145960D03*
D159*
X123820Y145960D03*
D52*
X95370Y145960D03*
D115*
X82470Y145960D03*
D112*
X73720Y145960D03*
D40*
X66970Y145960D03*
D50*
X185270Y145560D03*
D150*
X178170Y145560D03*
D115*
X166970Y145560D03*
D51*
X153520Y145560D03*
D160*
X123770Y145560D03*
D115*
X95570Y145560D03*
D52*
X82270Y145560D03*
D112*
X73720Y145560D03*
D40*
X66970Y145560D03*
D50*
X185270Y145160D03*
D114*
X178370Y145160D03*
D37*
X167520Y145160D03*
X152920Y145160D03*
D161*
X123570Y145160D03*
D52*
X95770Y145160D03*
D59*
X81920Y145160D03*
D112*
X73720Y145160D03*
D40*
X66970Y145160D03*
D47*
X185270Y144810D03*
D42*
X178520Y144810D03*
D45*
X167520Y144810D03*
X152620Y144810D03*
D162*
X123620Y144810D03*
D163*
X96120Y144810D03*
X81920Y144810D03*
D164*
X73520Y144810D03*
D43*
X66970Y144810D03*
D50*
X185270Y144460D03*
D119*
X178520Y144460D03*
D37*
X167920Y144460D03*
X152620Y144460D03*
D165*
X123420Y144460D03*
D59*
X96120Y144460D03*
D88*
X81770Y144460D03*
D79*
X73320Y144460D03*
D40*
X66970Y144460D03*
D50*
X185270Y144060D03*
D79*
X178720Y144060D03*
D37*
X167920Y144060D03*
X152620Y144060D03*
D166*
X123420Y144060D03*
D59*
X96120Y144060D03*
D52*
X81570Y144060D03*
D79*
X73320Y144060D03*
D40*
X66970Y144060D03*
D50*
X185270Y143660D03*
D79*
X178720Y143660D03*
D37*
X167920Y143660D03*
D51*
X152420Y143660D03*
D167*
X123220Y143660D03*
D52*
X96470Y143660D03*
X81570Y143660D03*
D79*
X73320Y143660D03*
D40*
X66970Y143660D03*
D47*
X185270Y143310D03*
D168*
X178920Y143310D03*
D91*
X168120Y143310D03*
X152420Y143310D03*
D169*
X123270Y143310D03*
D65*
X96470Y143310D03*
X81170Y143310D03*
D116*
X73170Y143310D03*
D43*
X66970Y143310D03*
D50*
X185270Y142960D03*
D170*
X178920Y142960D03*
D51*
X168120Y142960D03*
X152420Y142960D03*
D171*
X122870Y142960D03*
D115*
X96670Y142960D03*
D52*
X81170Y142960D03*
D54*
X73170Y142960D03*
D40*
X66970Y142960D03*
D50*
X185270Y142560D03*
D51*
X168120Y142560D03*
X152420Y142560D03*
D172*
X122670Y142560D03*
D115*
X96670Y142560D03*
X80970Y142560D03*
D40*
X66970Y142560D03*
X185070Y142160D03*
D51*
X168120Y142160D03*
X152420Y142160D03*
D173*
X122070Y142160D03*
D115*
X96670Y142160D03*
X80970Y142160D03*
D40*
X66970Y142160D03*
D43*
X185070Y141810D03*
D91*
X168120Y141810D03*
X152420Y141810D03*
D174*
X96870Y141810D03*
D117*
X80970Y141810D03*
D47*
X67170Y141810D03*
D87*
X184720Y141460D03*
D51*
X168120Y141460D03*
X152420Y141460D03*
D175*
X96870Y141460D03*
D115*
X80970Y141460D03*
D40*
X67370Y141460D03*
D34*
X184520Y141060D03*
D37*
X167920Y141060D03*
D51*
X152420Y141060D03*
D37*
X96520Y141060D03*
D175*
X81170Y141060D03*
D33*
X71470Y141060D03*
D176*
X179670Y140660D03*
D37*
X167920Y140660D03*
X152620Y140660D03*
X96520Y140660D03*
D175*
X81170Y140660D03*
D150*
X71670Y140660D03*
D177*
X179670Y140310D03*
D45*
X167520Y140310D03*
X152620Y140310D03*
X96520Y140310D03*
D83*
X81320Y140310D03*
D178*
X71820Y140310D03*
D179*
X179670Y139960D03*
D37*
X167520Y139960D03*
D75*
X152770Y139960D03*
D36*
X96320Y139960D03*
D37*
X81520Y139960D03*
D120*
X72020Y139960D03*
D123*
X179670Y139560D03*
D36*
X167320Y139560D03*
D37*
X152920Y139560D03*
D36*
X96320Y139560D03*
X81720Y139560D03*
D119*
X72420Y139560D03*
D36*
X167320Y139160D03*
X153120Y139160D03*
X95920Y139160D03*
X81720Y139160D03*
D180*
X166970Y138810D03*
D97*
X153320Y138810D03*
D73*
X95770Y138810D03*
D97*
X81920Y138810D03*
D39*
X166570Y138460D03*
D70*
X153720Y138460D03*
D107*
X95370Y138460D03*
D39*
X82470Y138460D03*
D181*
X166220Y138060D03*
D39*
X153870Y138060D03*
X95170Y138060D03*
D57*
X82670Y138060D03*
D116*
X165870Y137710D03*
D111*
X154470Y137710D03*
X94670Y137710D03*
D168*
X83220Y137710D03*
D182*
X160070Y137360D03*
D183*
X88870Y137360D03*
D184*
X160220Y136960D03*
D185*
X89020Y136960D03*
D126*
X160020Y136560D03*
X89020Y136560D03*
D186*
X160220Y136210D03*
X88820Y136210D03*
D187*
X160220Y135860D03*
X88820Y135860D03*
D149*
X160270Y135460D03*
X88870Y135460D03*
D146*
X160220Y135060D03*
D188*
X89020Y135060D03*
D151*
X160220Y134710D03*
X88820Y134710D03*
D189*
X160220Y134360D03*
X88820Y134360D03*
D153*
X160070Y133960D03*
D190*
X88870Y133960D03*
D138*
X160220Y133560D03*
X88820Y133560D03*
D121*
X160270Y133210D03*
D143*
X88820Y133210D03*
D112*
X160020Y132860D03*
D120*
X88820Y132860D03*
D107*
X160070Y132460D03*
D39*
X88870Y132460D03*
D89*
X160220Y132060D03*
D76*
X88820Y132060D03*
D191*
X334264Y226060D02*
X351536Y226060D01*
X354076Y208280D02*
X354074Y208180D01*
X354068Y208081D01*
X354058Y207981D01*
X354045Y207883D01*
X354027Y207784D01*
X354006Y207687D01*
X353981Y207591D01*
X353952Y207495D01*
X353919Y207401D01*
X353883Y207308D01*
X353843Y207217D01*
X353799Y207127D01*
X353752Y207039D01*
X353702Y206953D01*
X353648Y206869D01*
X353591Y206787D01*
X353531Y206708D01*
X353467Y206630D01*
X353401Y206556D01*
X353332Y206484D01*
X353260Y206415D01*
X353186Y206349D01*
X353108Y206285D01*
X353029Y206225D01*
X352947Y206168D01*
X352863Y206114D01*
X352777Y206064D01*
X352689Y206017D01*
X352599Y205973D01*
X352508Y205933D01*
X352415Y205897D01*
X352321Y205864D01*
X352225Y205835D01*
X352129Y205810D01*
X352032Y205789D01*
X351933Y205771D01*
X351835Y205758D01*
X351735Y205748D01*
X351636Y205742D01*
X351536Y205740D01*
X334264Y205740D02*
X334164Y205742D01*
X334065Y205748D01*
X333965Y205758D01*
X333867Y205771D01*
X333768Y205789D01*
X333671Y205810D01*
X333575Y205835D01*
X333479Y205864D01*
X333385Y205897D01*
X333292Y205933D01*
X333201Y205973D01*
X333111Y206017D01*
X333023Y206064D01*
X332937Y206114D01*
X332853Y206168D01*
X332771Y206225D01*
X332692Y206285D01*
X332614Y206349D01*
X332540Y206415D01*
X332468Y206484D01*
X332399Y206556D01*
X332333Y206630D01*
X332269Y206708D01*
X332209Y206787D01*
X332152Y206869D01*
X332098Y206953D01*
X332048Y207039D01*
X332001Y207127D01*
X331957Y207217D01*
X331917Y207308D01*
X331881Y207401D01*
X331848Y207495D01*
X331819Y207591D01*
X331794Y207687D01*
X331773Y207784D01*
X331755Y207883D01*
X331742Y207981D01*
X331732Y208081D01*
X331726Y208180D01*
X331724Y208280D01*
X331724Y223520D02*
X331726Y223620D01*
X331732Y223719D01*
X331742Y223819D01*
X331755Y223917D01*
X331773Y224016D01*
X331794Y224113D01*
X331819Y224209D01*
X331848Y224305D01*
X331881Y224399D01*
X331917Y224492D01*
X331957Y224583D01*
X332001Y224673D01*
X332048Y224761D01*
X332098Y224847D01*
X332152Y224931D01*
X332209Y225013D01*
X332269Y225092D01*
X332333Y225170D01*
X332399Y225244D01*
X332468Y225316D01*
X332540Y225385D01*
X332614Y225451D01*
X332692Y225515D01*
X332771Y225575D01*
X332853Y225632D01*
X332937Y225686D01*
X333023Y225736D01*
X333111Y225783D01*
X333201Y225827D01*
X333292Y225867D01*
X333385Y225903D01*
X333479Y225936D01*
X333575Y225965D01*
X333671Y225990D01*
X333768Y226011D01*
X333867Y226029D01*
X333965Y226042D01*
X334065Y226052D01*
X334164Y226058D01*
X334264Y226060D01*
X351536Y226060D02*
X351636Y226058D01*
X351735Y226052D01*
X351835Y226042D01*
X351933Y226029D01*
X352032Y226011D01*
X352129Y225990D01*
X352225Y225965D01*
X352321Y225936D01*
X352415Y225903D01*
X352508Y225867D01*
X352599Y225827D01*
X352689Y225783D01*
X352777Y225736D01*
X352863Y225686D01*
X352947Y225632D01*
X353029Y225575D01*
X353108Y225515D01*
X353186Y225451D01*
X353260Y225385D01*
X353332Y225316D01*
X353401Y225244D01*
X353467Y225170D01*
X353531Y225092D01*
X353591Y225013D01*
X353648Y224931D01*
X353702Y224847D01*
X353752Y224761D01*
X353799Y224673D01*
X353843Y224583D01*
X353883Y224492D01*
X353919Y224399D01*
X353952Y224305D01*
X353981Y224209D01*
X354006Y224113D01*
X354027Y224016D01*
X354045Y223917D01*
X354058Y223819D01*
X354068Y223719D01*
X354074Y223620D01*
X354076Y223520D01*
X354076Y208280D01*
X331724Y208280D02*
X331724Y223520D01*
X334264Y205740D02*
X351536Y205740D01*
X351536Y53340D02*
X334264Y53340D01*
X331724Y71120D02*
X331726Y71220D01*
X331732Y71319D01*
X331742Y71419D01*
X331755Y71517D01*
X331773Y71616D01*
X331794Y71713D01*
X331819Y71809D01*
X331848Y71905D01*
X331881Y71999D01*
X331917Y72092D01*
X331957Y72183D01*
X332001Y72273D01*
X332048Y72361D01*
X332098Y72447D01*
X332152Y72531D01*
X332209Y72613D01*
X332269Y72692D01*
X332333Y72770D01*
X332399Y72844D01*
X332468Y72916D01*
X332540Y72985D01*
X332614Y73051D01*
X332692Y73115D01*
X332771Y73175D01*
X332853Y73232D01*
X332937Y73286D01*
X333023Y73336D01*
X333111Y73383D01*
X333201Y73427D01*
X333292Y73467D01*
X333385Y73503D01*
X333479Y73536D01*
X333575Y73565D01*
X333671Y73590D01*
X333768Y73611D01*
X333867Y73629D01*
X333965Y73642D01*
X334065Y73652D01*
X334164Y73658D01*
X334264Y73660D01*
X351536Y73660D02*
X351636Y73658D01*
X351735Y73652D01*
X351835Y73642D01*
X351933Y73629D01*
X352032Y73611D01*
X352129Y73590D01*
X352225Y73565D01*
X352321Y73536D01*
X352415Y73503D01*
X352508Y73467D01*
X352599Y73427D01*
X352689Y73383D01*
X352777Y73336D01*
X352863Y73286D01*
X352947Y73232D01*
X353029Y73175D01*
X353108Y73115D01*
X353186Y73051D01*
X353260Y72985D01*
X353332Y72916D01*
X353401Y72844D01*
X353467Y72770D01*
X353531Y72692D01*
X353591Y72613D01*
X353648Y72531D01*
X353702Y72447D01*
X353752Y72361D01*
X353799Y72273D01*
X353843Y72183D01*
X353883Y72092D01*
X353919Y71999D01*
X353952Y71905D01*
X353981Y71809D01*
X354006Y71713D01*
X354027Y71616D01*
X354045Y71517D01*
X354058Y71419D01*
X354068Y71319D01*
X354074Y71220D01*
X354076Y71120D01*
X354076Y55880D02*
X354074Y55780D01*
X354068Y55681D01*
X354058Y55581D01*
X354045Y55483D01*
X354027Y55384D01*
X354006Y55287D01*
X353981Y55191D01*
X353952Y55095D01*
X353919Y55001D01*
X353883Y54908D01*
X353843Y54817D01*
X353799Y54727D01*
X353752Y54639D01*
X353702Y54553D01*
X353648Y54469D01*
X353591Y54387D01*
X353531Y54308D01*
X353467Y54230D01*
X353401Y54156D01*
X353332Y54084D01*
X353260Y54015D01*
X353186Y53949D01*
X353108Y53885D01*
X353029Y53825D01*
X352947Y53768D01*
X352863Y53714D01*
X352777Y53664D01*
X352689Y53617D01*
X352599Y53573D01*
X352508Y53533D01*
X352415Y53497D01*
X352321Y53464D01*
X352225Y53435D01*
X352129Y53410D01*
X352032Y53389D01*
X351933Y53371D01*
X351835Y53358D01*
X351735Y53348D01*
X351636Y53342D01*
X351536Y53340D01*
X334264Y53340D02*
X334164Y53342D01*
X334065Y53348D01*
X333965Y53358D01*
X333867Y53371D01*
X333768Y53389D01*
X333671Y53410D01*
X333575Y53435D01*
X333479Y53464D01*
X333385Y53497D01*
X333292Y53533D01*
X333201Y53573D01*
X333111Y53617D01*
X333023Y53664D01*
X332937Y53714D01*
X332853Y53768D01*
X332771Y53825D01*
X332692Y53885D01*
X332614Y53949D01*
X332540Y54015D01*
X332468Y54084D01*
X332399Y54156D01*
X332333Y54230D01*
X332269Y54308D01*
X332209Y54387D01*
X332152Y54469D01*
X332098Y54553D01*
X332048Y54639D01*
X332001Y54727D01*
X331957Y54817D01*
X331917Y54908D01*
X331881Y55001D01*
X331848Y55095D01*
X331819Y55191D01*
X331794Y55287D01*
X331773Y55384D01*
X331755Y55483D01*
X331742Y55581D01*
X331732Y55681D01*
X331726Y55780D01*
X331724Y55880D01*
X331724Y71120D01*
X354076Y71120D02*
X354076Y55880D01*
X351536Y73660D02*
X334264Y73660D01*
M02*
