M48
;GenerationSoftware,Autodesk,EAGLE,9.6.0*%
;CreationDate,2020-10-22T18:10:40Z*%
FMAT,2
ICI,OFF
METRIC,TZ,000.000
T7C0.330
T6C0.350
T5C0.381
T4C1.000
T3C1.016
T2C3.200
T1C3.302
%
G90
M71
T1
X22860Y3810
X2540Y3810
X2540Y24130
T2
X42545Y3048
X42545Y24765
X31115Y24765
X31115Y3048
T3
X21590Y25400
X1270Y8890
X24130Y25400
X1270Y11430
X1270Y13970
X1270Y16510
X1270Y19050
T4
X37465Y15875
X32385Y15875
X33655Y18415
X34925Y15875
X36195Y11938
X40005Y15875
X36195Y18415
X38735Y18415
X41275Y18415
X41275Y11938
X40005Y9398
X38735Y11938
X33655Y11938
X37465Y9398
X34925Y9398
X32385Y9398
T5
X8128Y25273
X7366Y24511
X26289Y9525
T6
X18225Y3810
X29210Y7620
X13398Y2350
X18225Y2350
T7
X18606Y16319
X12636Y9271
X13398Y9017
X4445Y7302
X7874Y8319
X10732Y9398
X14287Y10541
X17399Y10224
X20066Y9144
X20066Y7747
X29718Y18796
X8382Y17907
X23749Y11811
X5080Y21590
X29210Y15240
X22669Y20511
X20752Y8636
X30731Y13840
X34925Y20193
X18923Y11938
X19685Y11938
X14859Y12128
X10478Y12128
X5271Y2540
X12700Y3810
X24423Y6707
X24765Y13208
X11938Y22860
X15240Y5969
X5080Y20320
X25908Y4509
X16447Y6540
X18161Y6477
X9017Y5969
X30670Y5905
X42482Y7366
X27495Y24257
X23749Y10287
X20066Y25908
X2540Y20828
X19685Y23495
X6223Y11684
X5969Y9271
X2794Y10097
X5080Y6223
X6223Y13335
X16891Y17844
X6223Y14224
X6731Y15875
X6731Y16764
X5969Y16256
X10668Y14224
X10795Y13462
X14605Y13335
X14732Y14097
X18225Y17780
X15240Y17463
X18733Y17145
M30