G04 EAGLE Gerber RS-274X export*
G75*
%MOMM*%
%FSLAX34Y34*%
%LPD*%
%INSoldermask Top*%
%IPPOS*%
%AMOC8*
5,1,8,0,0,1.08239X$1,22.5*%
G01*
%ADD10R,1.403200X2.203200*%
%ADD11R,0.803200X1.553200*%
%ADD12R,1.303200X0.453200*%
%ADD13R,1.303200X1.203200*%
%ADD14R,1.203200X1.303200*%
%ADD15C,2.082800*%
%ADD16R,2.082800X2.082800*%
%ADD17C,3.403200*%
%ADD18R,0.863600X1.473200*%
%ADD19C,3.505200*%
%ADD20C,0.838200*%
%ADD21C,0.505344*%
%ADD22R,1.473200X0.863600*%
%ADD23R,2.003200X2.203200*%
%ADD24R,0.803200X0.453200*%
%ADD25R,0.453200X0.803200*%
%ADD26R,0.453200X2.027200*%
%ADD27R,2.263200X1.473200*%
%ADD28R,1.403200X1.003200*%
%ADD29C,0.965200*%
%ADD30R,3.103200X1.103200*%

G36*
X73725Y58432D02*
X73725Y58432D01*
X73791Y58434D01*
X73834Y58452D01*
X73881Y58460D01*
X73938Y58494D01*
X73998Y58519D01*
X74033Y58550D01*
X74074Y58575D01*
X74116Y58626D01*
X74164Y58670D01*
X74186Y58712D01*
X74215Y58749D01*
X74236Y58811D01*
X74267Y58870D01*
X74275Y58924D01*
X74287Y58961D01*
X74286Y59001D01*
X74294Y59055D01*
X74294Y62865D01*
X74283Y62930D01*
X74281Y62996D01*
X74263Y63039D01*
X74255Y63086D01*
X74221Y63143D01*
X74196Y63203D01*
X74165Y63238D01*
X74140Y63279D01*
X74089Y63321D01*
X74045Y63369D01*
X74003Y63391D01*
X73966Y63420D01*
X73904Y63441D01*
X73845Y63472D01*
X73791Y63480D01*
X73754Y63492D01*
X73714Y63491D01*
X73660Y63499D01*
X71120Y63499D01*
X71055Y63488D01*
X70989Y63486D01*
X70946Y63468D01*
X70899Y63460D01*
X70842Y63426D01*
X70782Y63401D01*
X70747Y63370D01*
X70706Y63345D01*
X70665Y63294D01*
X70616Y63250D01*
X70594Y63208D01*
X70565Y63171D01*
X70544Y63109D01*
X70513Y63050D01*
X70505Y62996D01*
X70493Y62959D01*
X70493Y62955D01*
X70493Y62954D01*
X70494Y62919D01*
X70486Y62865D01*
X70486Y59055D01*
X70497Y58990D01*
X70499Y58924D01*
X70517Y58881D01*
X70525Y58834D01*
X70559Y58777D01*
X70584Y58717D01*
X70615Y58682D01*
X70640Y58641D01*
X70691Y58600D01*
X70735Y58551D01*
X70777Y58529D01*
X70814Y58500D01*
X70876Y58479D01*
X70935Y58448D01*
X70989Y58440D01*
X71026Y58428D01*
X71066Y58429D01*
X71120Y58421D01*
X73660Y58421D01*
X73725Y58432D01*
G37*
G36*
X254700Y80657D02*
X254700Y80657D01*
X254766Y80659D01*
X254809Y80677D01*
X254856Y80685D01*
X254913Y80719D01*
X254973Y80744D01*
X255008Y80775D01*
X255049Y80800D01*
X255091Y80851D01*
X255139Y80895D01*
X255161Y80937D01*
X255190Y80974D01*
X255211Y81036D01*
X255242Y81095D01*
X255250Y81149D01*
X255262Y81186D01*
X255261Y81226D01*
X255269Y81280D01*
X255269Y83820D01*
X255258Y83885D01*
X255256Y83951D01*
X255238Y83994D01*
X255230Y84041D01*
X255196Y84098D01*
X255171Y84158D01*
X255140Y84193D01*
X255115Y84234D01*
X255064Y84276D01*
X255020Y84324D01*
X254978Y84346D01*
X254941Y84375D01*
X254879Y84396D01*
X254820Y84427D01*
X254766Y84435D01*
X254729Y84447D01*
X254689Y84446D01*
X254635Y84454D01*
X250825Y84454D01*
X250760Y84443D01*
X250694Y84441D01*
X250651Y84423D01*
X250604Y84415D01*
X250547Y84381D01*
X250487Y84356D01*
X250452Y84325D01*
X250411Y84300D01*
X250370Y84249D01*
X250321Y84205D01*
X250299Y84163D01*
X250270Y84126D01*
X250249Y84064D01*
X250218Y84005D01*
X250210Y83951D01*
X250198Y83914D01*
X250198Y83911D01*
X250199Y83874D01*
X250191Y83820D01*
X250191Y81280D01*
X250202Y81215D01*
X250204Y81149D01*
X250222Y81106D01*
X250230Y81059D01*
X250264Y81002D01*
X250289Y80942D01*
X250320Y80907D01*
X250345Y80866D01*
X250396Y80825D01*
X250440Y80776D01*
X250482Y80754D01*
X250519Y80725D01*
X250581Y80704D01*
X250640Y80673D01*
X250694Y80665D01*
X250731Y80653D01*
X250771Y80654D01*
X250825Y80646D01*
X254635Y80646D01*
X254700Y80657D01*
G37*
G36*
X244540Y80657D02*
X244540Y80657D01*
X244606Y80659D01*
X244649Y80677D01*
X244696Y80685D01*
X244753Y80719D01*
X244813Y80744D01*
X244848Y80775D01*
X244889Y80800D01*
X244931Y80851D01*
X244979Y80895D01*
X245001Y80937D01*
X245030Y80974D01*
X245051Y81036D01*
X245082Y81095D01*
X245090Y81149D01*
X245102Y81186D01*
X245101Y81226D01*
X245109Y81280D01*
X245109Y83820D01*
X245098Y83885D01*
X245096Y83951D01*
X245078Y83994D01*
X245070Y84041D01*
X245036Y84098D01*
X245011Y84158D01*
X244980Y84193D01*
X244955Y84234D01*
X244904Y84276D01*
X244860Y84324D01*
X244818Y84346D01*
X244781Y84375D01*
X244719Y84396D01*
X244660Y84427D01*
X244606Y84435D01*
X244569Y84447D01*
X244529Y84446D01*
X244475Y84454D01*
X240665Y84454D01*
X240600Y84443D01*
X240534Y84441D01*
X240491Y84423D01*
X240444Y84415D01*
X240387Y84381D01*
X240327Y84356D01*
X240292Y84325D01*
X240251Y84300D01*
X240210Y84249D01*
X240161Y84205D01*
X240139Y84163D01*
X240110Y84126D01*
X240089Y84064D01*
X240058Y84005D01*
X240050Y83951D01*
X240038Y83914D01*
X240038Y83911D01*
X240039Y83874D01*
X240031Y83820D01*
X240031Y81280D01*
X240042Y81215D01*
X240044Y81149D01*
X240062Y81106D01*
X240070Y81059D01*
X240104Y81002D01*
X240129Y80942D01*
X240160Y80907D01*
X240185Y80866D01*
X240236Y80825D01*
X240280Y80776D01*
X240322Y80754D01*
X240359Y80725D01*
X240421Y80704D01*
X240480Y80673D01*
X240534Y80665D01*
X240571Y80653D01*
X240611Y80654D01*
X240665Y80646D01*
X244475Y80646D01*
X244540Y80657D01*
G37*
D10*
X99000Y26750D03*
X155000Y26750D03*
D11*
X112000Y63500D03*
X122000Y63500D03*
X132000Y63500D03*
X142000Y63500D03*
D12*
X225060Y109475D03*
X225060Y114475D03*
X225060Y119475D03*
X225060Y124475D03*
X225060Y104425D03*
X271310Y109475D03*
X271310Y114475D03*
X271310Y119475D03*
X271310Y124475D03*
X271310Y104425D03*
D10*
X155000Y252650D03*
X99000Y252650D03*
D11*
X142000Y215900D03*
X132000Y215900D03*
X122000Y215900D03*
X112000Y215900D03*
D13*
X224400Y140970D03*
X207400Y140970D03*
X258200Y140970D03*
X275200Y140970D03*
D14*
X172720Y39615D03*
X172720Y22615D03*
X191770Y39615D03*
X191770Y22615D03*
D15*
X323850Y158750D03*
X336550Y184150D03*
X349250Y158750D03*
X374650Y158750D03*
X400050Y158750D03*
X361950Y184150D03*
X387350Y184150D03*
D16*
X412750Y184150D03*
D17*
X425450Y247650D03*
X311150Y247650D03*
D14*
X221615Y92320D03*
X221615Y75320D03*
X275590Y89780D03*
X275590Y72780D03*
D18*
X258064Y82550D03*
X247650Y82550D03*
X237236Y82550D03*
D19*
X228600Y38100D03*
X25400Y38100D03*
X25400Y241300D03*
D20*
X12700Y63500D03*
X406400Y266700D03*
D15*
X412750Y119380D03*
X400050Y93980D03*
X387350Y119380D03*
X361950Y119380D03*
X336550Y119380D03*
X374650Y93980D03*
X349250Y93980D03*
D16*
X323850Y93980D03*
D17*
X311150Y30480D03*
X425450Y30480D03*
D13*
X80890Y40640D03*
X63890Y40640D03*
D21*
X77670Y28890D02*
X77670Y21910D01*
X77670Y28890D02*
X84650Y28890D01*
X84650Y21910D01*
X77670Y21910D01*
X77670Y26710D02*
X84650Y26710D01*
X60130Y28890D02*
X60130Y21910D01*
X60130Y28890D02*
X67110Y28890D01*
X67110Y21910D01*
X60130Y21910D01*
X60130Y26710D02*
X67110Y26710D01*
D22*
X72390Y66167D03*
X72390Y55753D03*
D15*
X12700Y190500D03*
X12700Y165100D03*
X12700Y139700D03*
X12700Y114300D03*
X241300Y254000D03*
X215900Y254000D03*
X12700Y88900D03*
D23*
X127000Y150855D03*
X127000Y195855D03*
D13*
X92955Y100965D03*
X75955Y100965D03*
D24*
X118000Y130630D03*
X136000Y130630D03*
X136000Y124130D03*
X118000Y124130D03*
X118000Y117630D03*
X118000Y112630D03*
X136000Y117630D03*
X136000Y112630D03*
D25*
X132000Y105380D03*
X127000Y105380D03*
X122000Y105380D03*
D26*
X127000Y127260D03*
D27*
X167640Y199160D03*
X167640Y164060D03*
X86360Y199160D03*
X86360Y164060D03*
D14*
X177800Y220100D03*
X177800Y237100D03*
X154940Y91685D03*
X154940Y74685D03*
X173355Y74685D03*
X173355Y91685D03*
X190500Y91685D03*
X190500Y74685D03*
D13*
X114545Y83185D03*
X97545Y83185D03*
D28*
X177800Y118000D03*
X177800Y136000D03*
X76200Y118000D03*
X76200Y136000D03*
D14*
X158750Y118500D03*
X158750Y135500D03*
X95250Y118500D03*
X95250Y135500D03*
D29*
X266700Y38100D03*
D30*
X210780Y190500D03*
X271780Y190500D03*
M02*
