G04 EAGLE Gerber RS-274X export*
G75*
%MOMM*%
%FSLAX34Y34*%
%LPD*%
%INBottom Copper*%
%IPPOS*%
%AMOC8*
5,1,8,0,0,1.08239X$1,22.5*%
G01*
%ADD10C,0.279400*%
%ADD11C,1.879600*%
%ADD12R,1.879600X1.879600*%
%ADD13R,0.660400X1.270000*%
%ADD14C,0.635000*%
%ADD15R,1.270000X0.660400*%
%ADD16R,1.270000X0.635000*%
%ADD17C,0.203200*%
%ADD18C,0.584200*%
%ADD19C,0.604000*%
%ADD20C,0.304800*%
%ADD21C,0.406400*%
%ADD22C,0.609600*%
%ADD23C,0.711200*%
%ADD24C,0.254000*%

G36*
X451984Y4080D02*
X451984Y4080D01*
X452103Y4087D01*
X452141Y4100D01*
X452182Y4105D01*
X452292Y4148D01*
X452405Y4185D01*
X452440Y4207D01*
X452477Y4222D01*
X452573Y4291D01*
X452674Y4355D01*
X452702Y4385D01*
X452735Y4408D01*
X452811Y4500D01*
X452892Y4587D01*
X452912Y4622D01*
X452937Y4653D01*
X452988Y4761D01*
X453046Y4865D01*
X453056Y4905D01*
X453073Y4941D01*
X453095Y5058D01*
X453125Y5173D01*
X453129Y5233D01*
X453133Y5253D01*
X453131Y5274D01*
X453135Y5334D01*
X453135Y51116D01*
X453118Y51256D01*
X453104Y51396D01*
X453098Y51414D01*
X453095Y51432D01*
X453044Y51563D01*
X452996Y51695D01*
X452985Y51710D01*
X452978Y51728D01*
X452896Y51842D01*
X452816Y51958D01*
X452802Y51970D01*
X452792Y51985D01*
X452683Y52075D01*
X452577Y52168D01*
X452561Y52176D01*
X452547Y52188D01*
X452420Y52248D01*
X452294Y52311D01*
X452275Y52315D01*
X452259Y52323D01*
X452121Y52350D01*
X451983Y52380D01*
X451965Y52380D01*
X451947Y52383D01*
X451879Y52379D01*
X451860Y52380D01*
X445038Y52380D01*
X445031Y52383D01*
X444924Y52437D01*
X444885Y52446D01*
X444848Y52462D01*
X444731Y52481D01*
X444614Y52507D01*
X444574Y52506D01*
X444534Y52512D01*
X444416Y52501D01*
X444296Y52497D01*
X444258Y52486D01*
X444217Y52482D01*
X444105Y52442D01*
X443991Y52409D01*
X443956Y52388D01*
X443933Y52380D01*
X437653Y52380D01*
X436047Y53986D01*
X435524Y54508D01*
X434154Y55878D01*
X432548Y57484D01*
X432548Y66167D01*
X434098Y67716D01*
X435524Y69143D01*
X437966Y71584D01*
X438051Y71694D01*
X438140Y71801D01*
X438149Y71820D01*
X438161Y71836D01*
X438216Y71963D01*
X438276Y72089D01*
X438280Y72109D01*
X438288Y72127D01*
X438310Y72265D01*
X438336Y72401D01*
X438334Y72421D01*
X438337Y72442D01*
X438324Y72581D01*
X438316Y72719D01*
X438310Y72738D01*
X438308Y72758D01*
X438260Y72889D01*
X438218Y73021D01*
X438207Y73038D01*
X438200Y73057D01*
X438122Y73173D01*
X438048Y73290D01*
X438033Y73304D01*
X438021Y73321D01*
X437918Y73412D01*
X437816Y73508D01*
X437798Y73518D01*
X437783Y73531D01*
X437659Y73594D01*
X437537Y73661D01*
X437518Y73666D01*
X437500Y73676D01*
X437364Y73706D01*
X437230Y73741D01*
X437201Y73743D01*
X437189Y73745D01*
X437169Y73745D01*
X437069Y73751D01*
X435153Y73751D01*
X433875Y75029D01*
X432548Y76355D01*
X432548Y80038D01*
X434919Y82409D01*
X435524Y83014D01*
X438062Y85551D01*
X438107Y85610D01*
X438160Y85663D01*
X438204Y85735D01*
X438257Y85803D01*
X438286Y85871D01*
X438325Y85935D01*
X438349Y86016D01*
X438383Y86095D01*
X438395Y86168D01*
X438416Y86240D01*
X438419Y86324D01*
X438433Y86409D01*
X438426Y86483D01*
X438429Y86557D01*
X438411Y86641D01*
X438403Y86725D01*
X438378Y86796D01*
X438362Y86868D01*
X438299Y87017D01*
X437194Y89228D01*
X438359Y92722D01*
X439782Y93433D01*
X439823Y93461D01*
X439868Y93481D01*
X439954Y93549D01*
X440046Y93610D01*
X440079Y93647D01*
X440118Y93677D01*
X440185Y93765D01*
X440258Y93847D01*
X440281Y93891D01*
X440311Y93930D01*
X440354Y94031D01*
X440405Y94129D01*
X440416Y94177D01*
X440435Y94223D01*
X440452Y94332D01*
X440477Y94439D01*
X440475Y94488D01*
X440483Y94537D01*
X440472Y94647D01*
X440469Y94757D01*
X440456Y94804D01*
X440451Y94854D01*
X440413Y94957D01*
X440383Y95063D01*
X440358Y95106D01*
X440341Y95152D01*
X440278Y95243D01*
X440223Y95338D01*
X440189Y95373D01*
X440161Y95414D01*
X440078Y95486D01*
X440000Y95565D01*
X439958Y95590D01*
X439921Y95623D01*
X439782Y95704D01*
X438359Y96415D01*
X437194Y99909D01*
X438841Y103203D01*
X442335Y104368D01*
X451298Y99886D01*
X451388Y99855D01*
X451473Y99815D01*
X451537Y99802D01*
X451598Y99781D01*
X451693Y99773D01*
X451786Y99755D01*
X451850Y99759D01*
X451915Y99753D01*
X452009Y99769D01*
X452103Y99774D01*
X452165Y99795D01*
X452229Y99805D01*
X452316Y99843D01*
X452405Y99873D01*
X452460Y99907D01*
X452520Y99934D01*
X452594Y99992D01*
X452674Y100043D01*
X452719Y100090D01*
X452770Y100130D01*
X452827Y100205D01*
X452892Y100274D01*
X452923Y100331D01*
X452963Y100383D01*
X453000Y100470D01*
X453046Y100553D01*
X453062Y100616D01*
X453087Y100676D01*
X453101Y100769D01*
X453125Y100861D01*
X453132Y100972D01*
X453135Y100990D01*
X453134Y101000D01*
X453135Y101021D01*
X453135Y274066D01*
X453120Y274184D01*
X453113Y274303D01*
X453100Y274341D01*
X453095Y274382D01*
X453052Y274492D01*
X453015Y274605D01*
X452993Y274640D01*
X452978Y274677D01*
X452909Y274773D01*
X452845Y274874D01*
X452815Y274902D01*
X452792Y274935D01*
X452700Y275011D01*
X452613Y275092D01*
X452578Y275112D01*
X452547Y275137D01*
X452439Y275188D01*
X452335Y275246D01*
X452295Y275256D01*
X452259Y275273D01*
X452142Y275295D01*
X452027Y275325D01*
X451967Y275329D01*
X451947Y275333D01*
X451926Y275331D01*
X451866Y275335D01*
X408197Y275335D01*
X408128Y275327D01*
X408058Y275328D01*
X407970Y275307D01*
X407881Y275295D01*
X407816Y275270D01*
X407749Y275253D01*
X407669Y275211D01*
X407586Y275178D01*
X407529Y275137D01*
X407467Y275105D01*
X407401Y275044D01*
X407328Y274992D01*
X407284Y274938D01*
X407232Y274891D01*
X407183Y274816D01*
X407126Y274747D01*
X407096Y274683D01*
X407057Y274625D01*
X407028Y274540D01*
X406990Y274459D01*
X406977Y274390D01*
X406954Y274324D01*
X406947Y274235D01*
X406930Y274147D01*
X406935Y274077D01*
X406929Y274007D01*
X406944Y273919D01*
X406950Y273829D01*
X406971Y273763D01*
X406983Y273694D01*
X407020Y273612D01*
X407048Y273527D01*
X407085Y273468D01*
X407114Y273404D01*
X407170Y273334D01*
X407218Y273258D01*
X407269Y273210D01*
X407313Y273156D01*
X407384Y273101D01*
X407450Y273040D01*
X407511Y273006D01*
X407567Y272964D01*
X407711Y272893D01*
X409925Y271976D01*
X411676Y270225D01*
X412624Y267938D01*
X412624Y265462D01*
X412450Y265042D01*
X412431Y264975D01*
X412404Y264911D01*
X412390Y264822D01*
X412366Y264735D01*
X412365Y264666D01*
X412354Y264597D01*
X412362Y264507D01*
X412361Y264417D01*
X412377Y264350D01*
X412384Y264280D01*
X412414Y264195D01*
X412435Y264108D01*
X412468Y264047D01*
X412491Y263981D01*
X412542Y263906D01*
X412584Y263827D01*
X412631Y263775D01*
X412670Y263718D01*
X412737Y263658D01*
X412798Y263592D01*
X412856Y263553D01*
X412908Y263507D01*
X412988Y263466D01*
X413063Y263417D01*
X413129Y263394D01*
X413191Y263363D01*
X413279Y263343D01*
X413364Y263314D01*
X413434Y263308D01*
X413502Y263293D01*
X413591Y263296D01*
X413681Y263289D01*
X413750Y263300D01*
X413820Y263303D01*
X413906Y263328D01*
X413994Y263343D01*
X414058Y263372D01*
X414125Y263391D01*
X414203Y263437D01*
X414284Y263473D01*
X414339Y263517D01*
X414399Y263553D01*
X414520Y263659D01*
X414660Y263799D01*
X421661Y266699D01*
X429239Y266699D01*
X436240Y263799D01*
X441599Y258440D01*
X444499Y251439D01*
X444499Y243861D01*
X441599Y236860D01*
X436240Y231501D01*
X429239Y228601D01*
X421661Y228601D01*
X414660Y231501D01*
X409301Y236860D01*
X406401Y243861D01*
X406401Y251439D01*
X409301Y258440D01*
X409441Y258580D01*
X409484Y258635D01*
X409534Y258684D01*
X409581Y258760D01*
X409636Y258831D01*
X409664Y258895D01*
X409700Y258955D01*
X409727Y259041D01*
X409762Y259123D01*
X409773Y259192D01*
X409794Y259259D01*
X409798Y259349D01*
X409812Y259437D01*
X409806Y259507D01*
X409809Y259577D01*
X409791Y259664D01*
X409782Y259754D01*
X409759Y259820D01*
X409745Y259888D01*
X409705Y259969D01*
X409675Y260053D01*
X409636Y260111D01*
X409605Y260174D01*
X409547Y260242D01*
X409496Y260316D01*
X409444Y260363D01*
X409399Y260416D01*
X409325Y260467D01*
X409258Y260527D01*
X409196Y260559D01*
X409139Y260599D01*
X409055Y260631D01*
X408975Y260671D01*
X408906Y260687D01*
X408841Y260711D01*
X408752Y260721D01*
X408664Y260741D01*
X408595Y260739D01*
X408525Y260747D01*
X408436Y260734D01*
X408346Y260731D01*
X408279Y260712D01*
X408210Y260702D01*
X408058Y260650D01*
X407638Y260476D01*
X405162Y260476D01*
X402875Y261424D01*
X401124Y263175D01*
X400176Y265462D01*
X400176Y267938D01*
X401124Y270225D01*
X402875Y271976D01*
X405089Y272893D01*
X405149Y272928D01*
X405214Y272954D01*
X405287Y273006D01*
X405365Y273051D01*
X405415Y273099D01*
X405472Y273140D01*
X405529Y273210D01*
X405593Y273272D01*
X405630Y273332D01*
X405674Y273385D01*
X405713Y273467D01*
X405760Y273543D01*
X405780Y273610D01*
X405810Y273673D01*
X405827Y273761D01*
X405853Y273847D01*
X405857Y273917D01*
X405870Y273986D01*
X405864Y274075D01*
X405869Y274165D01*
X405854Y274233D01*
X405850Y274303D01*
X405822Y274388D01*
X405804Y274476D01*
X405774Y274539D01*
X405752Y274605D01*
X405704Y274681D01*
X405664Y274762D01*
X405619Y274815D01*
X405582Y274874D01*
X405516Y274936D01*
X405458Y275004D01*
X405401Y275044D01*
X405350Y275092D01*
X405272Y275135D01*
X405198Y275187D01*
X405133Y275212D01*
X405072Y275246D01*
X404985Y275268D01*
X404901Y275300D01*
X404831Y275308D01*
X404764Y275325D01*
X404603Y275335D01*
X294309Y275335D01*
X294211Y275323D01*
X294112Y275320D01*
X294054Y275303D01*
X293994Y275295D01*
X293902Y275259D01*
X293807Y275231D01*
X293755Y275201D01*
X293698Y275178D01*
X293618Y275120D01*
X293533Y275070D01*
X293457Y275004D01*
X293441Y274992D01*
X293433Y274982D01*
X293412Y274964D01*
X281084Y262635D01*
X253095Y262635D01*
X253046Y262629D01*
X252996Y262631D01*
X252889Y262609D01*
X252779Y262595D01*
X252733Y262577D01*
X252685Y262567D01*
X252586Y262519D01*
X252484Y262478D01*
X252444Y262449D01*
X252399Y262427D01*
X252315Y262356D01*
X252226Y262292D01*
X252195Y262253D01*
X252157Y262221D01*
X252094Y262131D01*
X252024Y262047D01*
X252002Y262002D01*
X251974Y261961D01*
X251935Y261858D01*
X251888Y261759D01*
X251879Y261710D01*
X251861Y261664D01*
X251849Y261554D01*
X251828Y261447D01*
X251831Y261397D01*
X251826Y261348D01*
X251841Y261239D01*
X251848Y261129D01*
X251863Y261082D01*
X251870Y261033D01*
X251922Y260880D01*
X253747Y256476D01*
X253747Y251524D01*
X251852Y246950D01*
X248350Y243448D01*
X247164Y242957D01*
X247139Y242942D01*
X247111Y242933D01*
X247001Y242864D01*
X246888Y242799D01*
X246867Y242779D01*
X246842Y242763D01*
X246753Y242668D01*
X246660Y242578D01*
X246644Y242553D01*
X246624Y242531D01*
X246561Y242417D01*
X246493Y242307D01*
X246485Y242279D01*
X246470Y242253D01*
X246438Y242127D01*
X246400Y242003D01*
X246398Y241973D01*
X246391Y241945D01*
X246381Y241784D01*
X246381Y202189D01*
X245607Y200322D01*
X221352Y176067D01*
X221292Y175989D01*
X221224Y175917D01*
X221195Y175864D01*
X221158Y175816D01*
X221118Y175725D01*
X221070Y175638D01*
X221055Y175580D01*
X221031Y175524D01*
X221016Y175426D01*
X220991Y175330D01*
X220985Y175230D01*
X220981Y175210D01*
X220983Y175198D01*
X220981Y175170D01*
X220981Y126497D01*
X220207Y124630D01*
X218778Y123201D01*
X216911Y122427D01*
X203949Y122427D01*
X203900Y122421D01*
X203850Y122423D01*
X203742Y122401D01*
X203633Y122387D01*
X203587Y122369D01*
X203538Y122359D01*
X203440Y122311D01*
X203338Y122270D01*
X203298Y122241D01*
X203253Y122219D01*
X203169Y122148D01*
X203080Y122084D01*
X203049Y122045D01*
X203011Y122013D01*
X202948Y121923D01*
X202878Y121839D01*
X202856Y121794D01*
X202828Y121753D01*
X202789Y121650D01*
X202742Y121551D01*
X202733Y121502D01*
X202715Y121456D01*
X202703Y121346D01*
X202682Y121239D01*
X202685Y121189D01*
X202680Y121139D01*
X202695Y121030D01*
X202702Y120921D01*
X202717Y120874D01*
X202724Y120825D01*
X202776Y120672D01*
X202820Y120567D01*
X202820Y118193D01*
X202535Y117506D01*
X202533Y117497D01*
X202528Y117489D01*
X202519Y117452D01*
X202504Y117421D01*
X202486Y117326D01*
X202451Y117199D01*
X202451Y117190D01*
X202449Y117181D01*
X202439Y117020D01*
X202439Y109564D01*
X202451Y109466D01*
X202454Y109367D01*
X202471Y109309D01*
X202479Y109249D01*
X202515Y109157D01*
X202543Y109062D01*
X202573Y109009D01*
X202596Y108953D01*
X202654Y108873D01*
X202704Y108788D01*
X202770Y108712D01*
X202782Y108696D01*
X202792Y108688D01*
X202810Y108667D01*
X210013Y101464D01*
X210091Y101404D01*
X210163Y101336D01*
X210216Y101307D01*
X210264Y101270D01*
X210355Y101230D01*
X210442Y101182D01*
X210500Y101167D01*
X210556Y101143D01*
X210654Y101128D01*
X210750Y101103D01*
X210850Y101097D01*
X210870Y101093D01*
X210882Y101095D01*
X210910Y101093D01*
X235199Y101093D01*
X237066Y100319D01*
X255733Y81652D01*
X255811Y81592D01*
X255883Y81524D01*
X255936Y81495D01*
X255984Y81458D01*
X256075Y81418D01*
X256162Y81370D01*
X256220Y81355D01*
X256276Y81331D01*
X256374Y81316D01*
X256470Y81291D01*
X256570Y81285D01*
X256590Y81281D01*
X256602Y81283D01*
X256630Y81281D01*
X273050Y81281D01*
X273168Y81296D01*
X273287Y81303D01*
X273325Y81316D01*
X273366Y81321D01*
X273476Y81364D01*
X273589Y81401D01*
X273624Y81423D01*
X273661Y81438D01*
X273757Y81507D01*
X273858Y81571D01*
X273886Y81601D01*
X273919Y81624D01*
X273995Y81716D01*
X274076Y81803D01*
X274096Y81838D01*
X274121Y81869D01*
X274172Y81977D01*
X274230Y82081D01*
X274240Y82121D01*
X274257Y82157D01*
X274279Y82274D01*
X274309Y82389D01*
X274313Y82449D01*
X274317Y82469D01*
X274315Y82490D01*
X274319Y82550D01*
X274319Y114173D01*
X274304Y114291D01*
X274297Y114410D01*
X274284Y114448D01*
X274279Y114489D01*
X274236Y114599D01*
X274199Y114712D01*
X274177Y114747D01*
X274162Y114784D01*
X274093Y114880D01*
X274029Y114981D01*
X273999Y115009D01*
X273976Y115042D01*
X273884Y115118D01*
X273797Y115199D01*
X273762Y115219D01*
X273731Y115244D01*
X273623Y115295D01*
X273519Y115353D01*
X273479Y115363D01*
X273443Y115380D01*
X273326Y115402D01*
X273211Y115432D01*
X273151Y115436D01*
X273131Y115440D01*
X273110Y115438D01*
X273050Y115442D01*
X271787Y115442D01*
X270001Y117228D01*
X270001Y126619D01*
X269986Y126737D01*
X269979Y126856D01*
X269966Y126894D01*
X269961Y126935D01*
X269918Y127045D01*
X269881Y127158D01*
X269859Y127193D01*
X269844Y127230D01*
X269775Y127326D01*
X269711Y127427D01*
X269681Y127455D01*
X269658Y127488D01*
X269566Y127564D01*
X269479Y127645D01*
X269444Y127665D01*
X269413Y127690D01*
X269305Y127741D01*
X269201Y127799D01*
X269161Y127809D01*
X269125Y127826D01*
X269008Y127848D01*
X268893Y127878D01*
X268833Y127882D01*
X268813Y127886D01*
X268792Y127884D01*
X268732Y127888D01*
X252426Y127888D01*
X252328Y127876D01*
X252229Y127873D01*
X252171Y127856D01*
X252111Y127848D01*
X252019Y127812D01*
X251924Y127784D01*
X251872Y127754D01*
X251815Y127731D01*
X251735Y127673D01*
X251650Y127623D01*
X251574Y127557D01*
X251558Y127545D01*
X251550Y127535D01*
X251529Y127517D01*
X251032Y127019D01*
X248837Y126110D01*
X246463Y126110D01*
X244268Y127019D01*
X242589Y128698D01*
X241680Y130893D01*
X241680Y133267D01*
X242589Y135462D01*
X244268Y137141D01*
X246463Y138050D01*
X248837Y138050D01*
X251032Y137141D01*
X251275Y136897D01*
X251353Y136837D01*
X251425Y136769D01*
X251478Y136740D01*
X251526Y136703D01*
X251617Y136663D01*
X251704Y136615D01*
X251762Y136600D01*
X251818Y136576D01*
X251916Y136561D01*
X252012Y136536D01*
X252112Y136530D01*
X252132Y136526D01*
X252144Y136528D01*
X252172Y136526D01*
X269229Y136526D01*
X269328Y136538D01*
X269427Y136541D01*
X269485Y136558D01*
X269545Y136566D01*
X269637Y136602D01*
X269732Y136630D01*
X269784Y136660D01*
X269841Y136683D01*
X269921Y136741D01*
X270006Y136791D01*
X270081Y136857D01*
X270098Y136869D01*
X270106Y136879D01*
X270127Y136897D01*
X271787Y138558D01*
X286766Y138558D01*
X286884Y138573D01*
X287003Y138580D01*
X287041Y138593D01*
X287082Y138598D01*
X287192Y138641D01*
X287305Y138678D01*
X287340Y138700D01*
X287377Y138715D01*
X287473Y138784D01*
X287574Y138848D01*
X287602Y138878D01*
X287635Y138901D01*
X287711Y138993D01*
X287792Y139080D01*
X287812Y139115D01*
X287837Y139146D01*
X287888Y139254D01*
X287946Y139358D01*
X287956Y139398D01*
X287973Y139434D01*
X287995Y139551D01*
X288025Y139666D01*
X288029Y139726D01*
X288033Y139746D01*
X288031Y139767D01*
X288035Y139827D01*
X288035Y147497D01*
X288023Y147595D01*
X288020Y147694D01*
X288014Y147715D01*
X288013Y147727D01*
X288002Y147761D01*
X287995Y147812D01*
X287959Y147904D01*
X287931Y147999D01*
X287916Y148025D01*
X287915Y148029D01*
X287900Y148053D01*
X287878Y148108D01*
X287820Y148188D01*
X287770Y148273D01*
X287704Y148349D01*
X287692Y148365D01*
X287682Y148373D01*
X287664Y148394D01*
X287039Y149018D01*
X286130Y151213D01*
X286130Y153587D01*
X287039Y155782D01*
X288718Y157461D01*
X290913Y158370D01*
X293287Y158370D01*
X295482Y157461D01*
X297161Y155782D01*
X298070Y153587D01*
X298070Y151213D01*
X297161Y149018D01*
X296536Y148394D01*
X296476Y148316D01*
X296408Y148244D01*
X296379Y148191D01*
X296371Y148180D01*
X296363Y148171D01*
X296362Y148169D01*
X296342Y148143D01*
X296302Y148052D01*
X296254Y147965D01*
X296241Y147911D01*
X296227Y147883D01*
X296226Y147875D01*
X296215Y147851D01*
X296200Y147753D01*
X296175Y147657D01*
X296171Y147587D01*
X296167Y147570D01*
X296168Y147555D01*
X296165Y147537D01*
X296167Y147525D01*
X296165Y147497D01*
X296165Y123411D01*
X290482Y117728D01*
X289825Y117728D01*
X289726Y117716D01*
X289627Y117713D01*
X289569Y117696D01*
X289509Y117688D01*
X289417Y117652D01*
X289322Y117624D01*
X289270Y117594D01*
X289213Y117571D01*
X289133Y117513D01*
X289048Y117463D01*
X288973Y117397D01*
X288956Y117385D01*
X288948Y117375D01*
X288927Y117357D01*
X287013Y115442D01*
X285750Y115442D01*
X285632Y115427D01*
X285513Y115420D01*
X285475Y115407D01*
X285434Y115402D01*
X285324Y115359D01*
X285211Y115322D01*
X285176Y115300D01*
X285139Y115285D01*
X285043Y115216D01*
X284942Y115152D01*
X284914Y115122D01*
X284881Y115099D01*
X284805Y115007D01*
X284724Y114920D01*
X284704Y114885D01*
X284679Y114854D01*
X284628Y114746D01*
X284570Y114642D01*
X284560Y114602D01*
X284543Y114566D01*
X284521Y114449D01*
X284491Y114334D01*
X284487Y114274D01*
X284483Y114254D01*
X284485Y114233D01*
X284481Y114173D01*
X284481Y82550D01*
X284496Y82432D01*
X284503Y82313D01*
X284516Y82275D01*
X284521Y82234D01*
X284564Y82124D01*
X284601Y82011D01*
X284623Y81976D01*
X284638Y81939D01*
X284707Y81843D01*
X284771Y81742D01*
X284801Y81714D01*
X284824Y81681D01*
X284916Y81605D01*
X285003Y81524D01*
X285038Y81504D01*
X285069Y81479D01*
X285177Y81428D01*
X285281Y81370D01*
X285321Y81360D01*
X285357Y81343D01*
X285474Y81321D01*
X285589Y81291D01*
X285649Y81287D01*
X285669Y81283D01*
X285690Y81285D01*
X285750Y81281D01*
X288255Y81281D01*
X288264Y81282D01*
X288274Y81281D01*
X288422Y81302D01*
X288571Y81321D01*
X288579Y81324D01*
X288588Y81325D01*
X288741Y81377D01*
X290893Y82269D01*
X293307Y82269D01*
X295459Y81377D01*
X295468Y81375D01*
X295476Y81370D01*
X295621Y81333D01*
X295766Y81293D01*
X295775Y81293D01*
X295784Y81291D01*
X295945Y81281D01*
X310377Y81281D01*
X310515Y81298D01*
X310654Y81311D01*
X310673Y81318D01*
X310693Y81321D01*
X310822Y81372D01*
X310953Y81419D01*
X310970Y81430D01*
X310989Y81438D01*
X311101Y81519D01*
X311216Y81597D01*
X311230Y81613D01*
X311246Y81624D01*
X311335Y81732D01*
X311427Y81836D01*
X311436Y81854D01*
X311449Y81869D01*
X311508Y81995D01*
X311571Y82119D01*
X311576Y82139D01*
X311584Y82157D01*
X311610Y82293D01*
X311641Y82429D01*
X311640Y82450D01*
X311644Y82469D01*
X311636Y82608D01*
X311631Y82747D01*
X311626Y82767D01*
X311624Y82787D01*
X311582Y82919D01*
X311543Y83053D01*
X311533Y83070D01*
X311526Y83089D01*
X311452Y83207D01*
X311403Y83290D01*
X311403Y104641D01*
X313189Y106427D01*
X318516Y106427D01*
X318634Y106442D01*
X318753Y106449D01*
X318791Y106462D01*
X318832Y106467D01*
X318942Y106510D01*
X319055Y106547D01*
X319090Y106569D01*
X319127Y106584D01*
X319223Y106653D01*
X319324Y106717D01*
X319352Y106747D01*
X319385Y106770D01*
X319461Y106862D01*
X319542Y106949D01*
X319562Y106984D01*
X319587Y107015D01*
X319638Y107123D01*
X319696Y107227D01*
X319706Y107267D01*
X319723Y107303D01*
X319745Y107420D01*
X319775Y107535D01*
X319779Y107595D01*
X319783Y107615D01*
X319781Y107636D01*
X319785Y107696D01*
X319785Y134399D01*
X327017Y141630D01*
X368498Y141630D01*
X368596Y141642D01*
X368695Y141645D01*
X368754Y141662D01*
X368814Y141670D01*
X368906Y141706D01*
X369001Y141734D01*
X369053Y141765D01*
X369109Y141787D01*
X369189Y141845D01*
X369275Y141895D01*
X369350Y141962D01*
X369367Y141974D01*
X369374Y141983D01*
X369396Y142002D01*
X371908Y144514D01*
X371938Y144553D01*
X371975Y144587D01*
X372035Y144678D01*
X372103Y144765D01*
X372123Y144811D01*
X372150Y144852D01*
X372185Y144956D01*
X372229Y145057D01*
X372237Y145106D01*
X372253Y145153D01*
X372262Y145263D01*
X372279Y145371D01*
X372274Y145421D01*
X372278Y145470D01*
X372259Y145578D01*
X372249Y145688D01*
X372232Y145735D01*
X372224Y145784D01*
X372179Y145884D01*
X372142Y145987D01*
X372114Y146028D01*
X372093Y146074D01*
X372025Y146159D01*
X371963Y146250D01*
X371926Y146283D01*
X371895Y146322D01*
X371807Y146388D01*
X371725Y146461D01*
X371680Y146483D01*
X371641Y146513D01*
X371496Y146584D01*
X367600Y148198D01*
X364098Y151700D01*
X363123Y154055D01*
X363054Y154175D01*
X362989Y154298D01*
X362975Y154313D01*
X362965Y154331D01*
X362868Y154431D01*
X362775Y154534D01*
X362758Y154545D01*
X362744Y154559D01*
X362625Y154632D01*
X362509Y154708D01*
X362490Y154715D01*
X362473Y154726D01*
X362340Y154766D01*
X362208Y154812D01*
X362188Y154813D01*
X362169Y154819D01*
X362030Y154826D01*
X361891Y154837D01*
X361871Y154833D01*
X361851Y154834D01*
X361715Y154806D01*
X361578Y154782D01*
X361559Y154774D01*
X361540Y154770D01*
X361414Y154709D01*
X361288Y154652D01*
X361272Y154639D01*
X361254Y154630D01*
X361148Y154540D01*
X361040Y154453D01*
X361027Y154437D01*
X361012Y154424D01*
X360932Y154310D01*
X360848Y154199D01*
X360836Y154174D01*
X360829Y154164D01*
X360822Y154145D01*
X360777Y154055D01*
X359802Y151700D01*
X356300Y148198D01*
X351726Y146303D01*
X346774Y146303D01*
X342200Y148198D01*
X338698Y151700D01*
X337723Y154055D01*
X337654Y154175D01*
X337589Y154298D01*
X337575Y154313D01*
X337565Y154331D01*
X337468Y154431D01*
X337375Y154534D01*
X337358Y154545D01*
X337344Y154559D01*
X337225Y154632D01*
X337109Y154708D01*
X337090Y154715D01*
X337073Y154726D01*
X336940Y154766D01*
X336808Y154812D01*
X336788Y154813D01*
X336769Y154819D01*
X336630Y154826D01*
X336491Y154837D01*
X336471Y154833D01*
X336451Y154834D01*
X336315Y154806D01*
X336178Y154782D01*
X336159Y154774D01*
X336140Y154770D01*
X336014Y154709D01*
X335888Y154652D01*
X335872Y154639D01*
X335854Y154630D01*
X335748Y154540D01*
X335640Y154453D01*
X335627Y154437D01*
X335612Y154424D01*
X335532Y154310D01*
X335448Y154199D01*
X335436Y154174D01*
X335429Y154164D01*
X335422Y154145D01*
X335377Y154055D01*
X334402Y151700D01*
X330900Y148198D01*
X326326Y146303D01*
X321374Y146303D01*
X319172Y147215D01*
X319144Y147223D01*
X319117Y147237D01*
X318990Y147265D01*
X318865Y147299D01*
X318836Y147300D01*
X318807Y147306D01*
X318677Y147302D01*
X318547Y147304D01*
X318519Y147298D01*
X318489Y147297D01*
X318364Y147261D01*
X318238Y147230D01*
X318212Y147216D01*
X318184Y147208D01*
X318072Y147142D01*
X317957Y147082D01*
X317935Y147062D01*
X317910Y147047D01*
X317789Y146940D01*
X313049Y142200D01*
X313031Y142177D01*
X313008Y142158D01*
X312933Y142052D01*
X312854Y141949D01*
X312842Y141922D01*
X312825Y141898D01*
X312779Y141776D01*
X312728Y141657D01*
X312723Y141628D01*
X312713Y141601D01*
X312698Y141472D01*
X312678Y141343D01*
X312681Y141314D01*
X312677Y141285D01*
X312695Y141156D01*
X312708Y141027D01*
X312718Y140999D01*
X312722Y140970D01*
X312774Y140817D01*
X313284Y139585D01*
X313284Y137211D01*
X312375Y135016D01*
X310696Y133337D01*
X308502Y132428D01*
X306127Y132428D01*
X303933Y133337D01*
X302253Y135016D01*
X301345Y137211D01*
X301345Y139585D01*
X302253Y141780D01*
X302878Y142404D01*
X302938Y142482D01*
X303006Y142554D01*
X303036Y142607D01*
X303073Y142655D01*
X303112Y142746D01*
X303160Y142833D01*
X303175Y142891D01*
X303199Y142947D01*
X303215Y143045D01*
X303239Y143141D01*
X303246Y143241D01*
X303249Y143261D01*
X303248Y143273D01*
X303250Y143301D01*
X303250Y143898D01*
X312040Y152689D01*
X312058Y152712D01*
X312081Y152731D01*
X312156Y152837D01*
X312235Y152940D01*
X312247Y152967D01*
X312264Y152991D01*
X312310Y153113D01*
X312362Y153232D01*
X312366Y153261D01*
X312377Y153289D01*
X312391Y153418D01*
X312411Y153546D01*
X312409Y153575D01*
X312412Y153605D01*
X312394Y153733D01*
X312382Y153863D01*
X312372Y153890D01*
X312368Y153920D01*
X312315Y154072D01*
X311403Y156274D01*
X311403Y161226D01*
X313298Y165800D01*
X316800Y169302D01*
X321374Y171197D01*
X326326Y171197D01*
X330900Y169302D01*
X334402Y165800D01*
X335377Y163445D01*
X335446Y163325D01*
X335511Y163202D01*
X335525Y163187D01*
X335535Y163169D01*
X335632Y163069D01*
X335725Y162966D01*
X335742Y162955D01*
X335756Y162941D01*
X335874Y162868D01*
X335991Y162792D01*
X336010Y162785D01*
X336027Y162774D01*
X336160Y162734D01*
X336292Y162688D01*
X336312Y162687D01*
X336331Y162681D01*
X336470Y162674D01*
X336609Y162663D01*
X336629Y162667D01*
X336649Y162666D01*
X336785Y162694D01*
X336922Y162718D01*
X336941Y162726D01*
X336960Y162730D01*
X337085Y162791D01*
X337212Y162848D01*
X337228Y162861D01*
X337246Y162870D01*
X337352Y162960D01*
X337460Y163047D01*
X337473Y163063D01*
X337488Y163076D01*
X337568Y163190D01*
X337652Y163301D01*
X337664Y163326D01*
X337671Y163336D01*
X337678Y163355D01*
X337723Y163445D01*
X338698Y165800D01*
X342200Y169302D01*
X343894Y170004D01*
X343919Y170018D01*
X343947Y170027D01*
X344057Y170097D01*
X344170Y170161D01*
X344191Y170182D01*
X344216Y170197D01*
X344305Y170292D01*
X344398Y170382D01*
X344414Y170408D01*
X344434Y170429D01*
X344497Y170543D01*
X344565Y170654D01*
X344573Y170682D01*
X344588Y170708D01*
X344620Y170833D01*
X344658Y170957D01*
X344660Y170987D01*
X344667Y171016D01*
X344677Y171176D01*
X344677Y172145D01*
X344671Y172194D01*
X344673Y172244D01*
X344651Y172351D01*
X344637Y172460D01*
X344619Y172506D01*
X344609Y172555D01*
X344561Y172654D01*
X344520Y172756D01*
X344491Y172796D01*
X344469Y172841D01*
X344398Y172924D01*
X344334Y173013D01*
X344295Y173045D01*
X344263Y173083D01*
X344173Y173146D01*
X344089Y173216D01*
X344044Y173237D01*
X344003Y173266D01*
X343900Y173305D01*
X343801Y173352D01*
X343752Y173361D01*
X343706Y173378D01*
X343596Y173391D01*
X343489Y173411D01*
X343439Y173408D01*
X343390Y173414D01*
X343281Y173398D01*
X343171Y173392D01*
X343124Y173376D01*
X343075Y173369D01*
X342922Y173317D01*
X339026Y171703D01*
X334074Y171703D01*
X329500Y173598D01*
X325998Y177100D01*
X324103Y181674D01*
X324103Y186626D01*
X325998Y191200D01*
X329500Y194702D01*
X334074Y196597D01*
X339026Y196597D01*
X342922Y194983D01*
X342970Y194970D01*
X343015Y194948D01*
X343123Y194928D01*
X343229Y194899D01*
X343279Y194898D01*
X343328Y194889D01*
X343437Y194896D01*
X343547Y194894D01*
X343595Y194905D01*
X343645Y194908D01*
X343749Y194942D01*
X343856Y194968D01*
X343900Y194991D01*
X343947Y195006D01*
X344040Y195065D01*
X344137Y195117D01*
X344174Y195150D01*
X344216Y195177D01*
X344291Y195257D01*
X344373Y195331D01*
X344400Y195372D01*
X344434Y195408D01*
X344487Y195504D01*
X344547Y195596D01*
X344564Y195643D01*
X344588Y195687D01*
X344615Y195793D01*
X344651Y195897D01*
X344655Y195947D01*
X344667Y195995D01*
X344677Y196155D01*
X344677Y197535D01*
X344665Y197633D01*
X344662Y197732D01*
X344645Y197790D01*
X344637Y197850D01*
X344601Y197942D01*
X344573Y198037D01*
X344543Y198089D01*
X344520Y198146D01*
X344462Y198226D01*
X344412Y198311D01*
X344346Y198387D01*
X344334Y198403D01*
X344324Y198411D01*
X344306Y198432D01*
X344189Y198548D01*
X343280Y200743D01*
X343280Y203117D01*
X344189Y205312D01*
X344306Y205428D01*
X344366Y205506D01*
X344434Y205578D01*
X344463Y205631D01*
X344500Y205679D01*
X344540Y205770D01*
X344588Y205857D01*
X344603Y205915D01*
X344627Y205971D01*
X344642Y206069D01*
X344667Y206165D01*
X344673Y206265D01*
X344677Y206285D01*
X344675Y206297D01*
X344677Y206325D01*
X344677Y211444D01*
X353706Y220473D01*
X355473Y220473D01*
X355591Y220488D01*
X355710Y220495D01*
X355748Y220508D01*
X355789Y220513D01*
X355899Y220556D01*
X356012Y220593D01*
X356047Y220615D01*
X356084Y220630D01*
X356180Y220699D01*
X356281Y220763D01*
X356309Y220793D01*
X356342Y220816D01*
X356418Y220908D01*
X356499Y220995D01*
X356519Y221030D01*
X356544Y221061D01*
X356595Y221169D01*
X356653Y221273D01*
X356663Y221313D01*
X356680Y221349D01*
X356702Y221466D01*
X356732Y221581D01*
X356736Y221641D01*
X356740Y221661D01*
X356738Y221682D01*
X356742Y221742D01*
X356742Y223513D01*
X358528Y225299D01*
X367658Y225299D01*
X368008Y224949D01*
X368091Y224884D01*
X368169Y224812D01*
X368217Y224787D01*
X368259Y224754D01*
X368356Y224712D01*
X368449Y224662D01*
X368501Y224649D01*
X368551Y224627D01*
X368656Y224611D01*
X368758Y224585D01*
X368812Y224586D01*
X368865Y224578D01*
X368970Y224587D01*
X369076Y224588D01*
X369160Y224605D01*
X369182Y224607D01*
X369196Y224613D01*
X369234Y224620D01*
X369871Y224791D01*
X371857Y224791D01*
X371857Y217233D01*
X366459Y217233D01*
X366440Y217221D01*
X366417Y217217D01*
X366410Y217202D01*
X366401Y217196D01*
X366403Y217186D01*
X366396Y217170D01*
X366396Y214630D01*
X366408Y214611D01*
X366411Y214589D01*
X366427Y214582D01*
X366433Y214573D01*
X366443Y214574D01*
X366459Y214567D01*
X373062Y214567D01*
X373141Y214493D01*
X373176Y214473D01*
X373208Y214448D01*
X373315Y214397D01*
X373420Y214339D01*
X373459Y214329D01*
X373495Y214312D01*
X373612Y214290D01*
X373728Y214260D01*
X373788Y214256D01*
X373808Y214252D01*
X373828Y214254D01*
X373888Y214250D01*
X379350Y214250D01*
X379350Y209215D01*
X379221Y208736D01*
X379204Y208611D01*
X379180Y208487D01*
X379183Y208454D01*
X379178Y208420D01*
X379192Y208295D01*
X379200Y208170D01*
X379211Y208138D01*
X379214Y208105D01*
X379260Y207987D01*
X379298Y207868D01*
X379316Y207839D01*
X379328Y207808D01*
X379401Y207705D01*
X379468Y207599D01*
X379493Y207576D01*
X379512Y207548D01*
X379608Y207467D01*
X379700Y207381D01*
X379730Y207365D01*
X379755Y207343D01*
X379868Y207288D01*
X379978Y207227D01*
X380011Y207219D01*
X380041Y207204D01*
X380165Y207179D01*
X380286Y207148D01*
X380335Y207145D01*
X380353Y207141D01*
X380375Y207142D01*
X380447Y207138D01*
X425029Y207138D01*
X434595Y197572D01*
X434595Y162473D01*
X400772Y128650D01*
X398746Y128650D01*
X398608Y128633D01*
X398470Y128620D01*
X398451Y128613D01*
X398431Y128610D01*
X398302Y128559D01*
X398171Y128512D01*
X398154Y128501D01*
X398135Y128493D01*
X398023Y128412D01*
X397907Y128334D01*
X397894Y128318D01*
X397878Y128307D01*
X397789Y128199D01*
X397697Y128095D01*
X397688Y128077D01*
X397675Y128062D01*
X397616Y127936D01*
X397552Y127812D01*
X397548Y127792D01*
X397539Y127774D01*
X397513Y127637D01*
X397483Y127502D01*
X397483Y127481D01*
X397480Y127462D01*
X397488Y127323D01*
X397492Y127184D01*
X397498Y127164D01*
X397499Y127144D01*
X397542Y127012D01*
X397581Y126878D01*
X397591Y126861D01*
X397597Y126842D01*
X397672Y126724D01*
X397742Y126604D01*
X397761Y126583D01*
X397768Y126573D01*
X397782Y126559D01*
X397849Y126483D01*
X397902Y126430D01*
X398877Y124075D01*
X398946Y123955D01*
X399011Y123832D01*
X399025Y123817D01*
X399035Y123799D01*
X399132Y123699D01*
X399225Y123596D01*
X399242Y123585D01*
X399256Y123571D01*
X399375Y123498D01*
X399491Y123422D01*
X399510Y123415D01*
X399527Y123404D01*
X399660Y123363D01*
X399792Y123318D01*
X399812Y123317D01*
X399831Y123311D01*
X399970Y123304D01*
X400109Y123293D01*
X400129Y123297D01*
X400149Y123296D01*
X400285Y123324D01*
X400422Y123348D01*
X400441Y123356D01*
X400460Y123360D01*
X400586Y123421D01*
X400712Y123478D01*
X400728Y123491D01*
X400746Y123500D01*
X400852Y123590D01*
X400960Y123677D01*
X400973Y123693D01*
X400988Y123706D01*
X401068Y123820D01*
X401152Y123931D01*
X401164Y123956D01*
X401171Y123966D01*
X401178Y123985D01*
X401223Y124075D01*
X402198Y126431D01*
X405700Y129932D01*
X410274Y131827D01*
X415226Y131827D01*
X419800Y129932D01*
X423302Y126430D01*
X425197Y121856D01*
X425197Y116904D01*
X423302Y112330D01*
X419800Y108828D01*
X415226Y106933D01*
X410274Y106933D01*
X405700Y108828D01*
X402198Y112329D01*
X401223Y114685D01*
X401154Y114806D01*
X401089Y114928D01*
X401075Y114943D01*
X401065Y114961D01*
X400968Y115061D01*
X400875Y115164D01*
X400858Y115175D01*
X400844Y115189D01*
X400726Y115262D01*
X400609Y115338D01*
X400590Y115345D01*
X400573Y115356D01*
X400440Y115396D01*
X400308Y115442D01*
X400288Y115443D01*
X400269Y115449D01*
X400130Y115456D01*
X399991Y115467D01*
X399971Y115463D01*
X399951Y115464D01*
X399815Y115436D01*
X399678Y115412D01*
X399659Y115404D01*
X399640Y115400D01*
X399515Y115339D01*
X399388Y115282D01*
X399372Y115269D01*
X399354Y115260D01*
X399248Y115170D01*
X399140Y115083D01*
X399127Y115067D01*
X399112Y115054D01*
X399032Y114940D01*
X398948Y114829D01*
X398936Y114804D01*
X398929Y114794D01*
X398922Y114775D01*
X398877Y114685D01*
X397902Y112330D01*
X394400Y108828D01*
X389826Y106933D01*
X384874Y106933D01*
X380343Y108810D01*
X380295Y108823D01*
X380250Y108845D01*
X380142Y108865D01*
X380036Y108894D01*
X379986Y108895D01*
X379937Y108904D01*
X379828Y108898D01*
X379718Y108899D01*
X379670Y108888D01*
X379620Y108885D01*
X379516Y108851D01*
X379409Y108825D01*
X379365Y108802D01*
X379318Y108787D01*
X379225Y108728D01*
X379128Y108676D01*
X379091Y108643D01*
X379049Y108616D01*
X378974Y108536D01*
X378892Y108462D01*
X378865Y108421D01*
X378831Y108385D01*
X378778Y108289D01*
X378718Y108197D01*
X378701Y108150D01*
X378677Y108106D01*
X378650Y108000D01*
X378614Y107896D01*
X378610Y107846D01*
X378598Y107798D01*
X378588Y107638D01*
X378588Y106669D01*
X378591Y106640D01*
X378589Y106611D01*
X378611Y106482D01*
X378628Y106354D01*
X378638Y106326D01*
X378643Y106297D01*
X378697Y106179D01*
X378745Y106058D01*
X378762Y106034D01*
X378774Y106007D01*
X378855Y105906D01*
X378931Y105801D01*
X378954Y105782D01*
X378973Y105759D01*
X379076Y105681D01*
X379176Y105598D01*
X379203Y105585D01*
X379227Y105568D01*
X379371Y105497D01*
X381700Y104532D01*
X385202Y101030D01*
X386177Y98675D01*
X386246Y98555D01*
X386311Y98432D01*
X386325Y98417D01*
X386335Y98399D01*
X386432Y98299D01*
X386525Y98196D01*
X386542Y98185D01*
X386556Y98171D01*
X386675Y98098D01*
X386791Y98022D01*
X386810Y98015D01*
X386827Y98004D01*
X386960Y97964D01*
X387092Y97918D01*
X387112Y97917D01*
X387131Y97911D01*
X387270Y97904D01*
X387409Y97893D01*
X387429Y97897D01*
X387449Y97896D01*
X387585Y97924D01*
X387722Y97948D01*
X387741Y97956D01*
X387760Y97960D01*
X387886Y98021D01*
X388012Y98078D01*
X388028Y98091D01*
X388046Y98100D01*
X388152Y98190D01*
X388260Y98277D01*
X388273Y98293D01*
X388288Y98306D01*
X388368Y98420D01*
X388452Y98531D01*
X388464Y98556D01*
X388471Y98566D01*
X388478Y98585D01*
X388523Y98675D01*
X389498Y101030D01*
X393000Y104532D01*
X397574Y106427D01*
X402526Y106427D01*
X407100Y104532D01*
X410602Y101030D01*
X412497Y96456D01*
X412497Y91504D01*
X410602Y86930D01*
X407100Y83428D01*
X402526Y81533D01*
X397574Y81533D01*
X393000Y83428D01*
X389498Y86930D01*
X388523Y89285D01*
X388454Y89405D01*
X388389Y89528D01*
X388375Y89543D01*
X388365Y89561D01*
X388268Y89661D01*
X388175Y89764D01*
X388158Y89775D01*
X388144Y89789D01*
X388026Y89862D01*
X387909Y89938D01*
X387890Y89945D01*
X387873Y89956D01*
X387740Y89996D01*
X387608Y90042D01*
X387588Y90043D01*
X387569Y90049D01*
X387430Y90056D01*
X387291Y90067D01*
X387271Y90063D01*
X387251Y90064D01*
X387115Y90036D01*
X386978Y90012D01*
X386959Y90004D01*
X386940Y90000D01*
X386815Y89939D01*
X386688Y89882D01*
X386672Y89869D01*
X386654Y89860D01*
X386548Y89770D01*
X386440Y89683D01*
X386427Y89667D01*
X386412Y89654D01*
X386332Y89540D01*
X386248Y89429D01*
X386236Y89404D01*
X386229Y89394D01*
X386222Y89375D01*
X386177Y89285D01*
X385202Y86930D01*
X381701Y83428D01*
X381403Y83305D01*
X381378Y83290D01*
X381350Y83281D01*
X381240Y83212D01*
X381127Y83148D01*
X381106Y83127D01*
X381081Y83111D01*
X380992Y83017D01*
X380899Y82926D01*
X380883Y82901D01*
X380863Y82880D01*
X380800Y82766D01*
X380732Y82655D01*
X380724Y82627D01*
X380709Y82601D01*
X380677Y82475D01*
X380639Y82351D01*
X380637Y82322D01*
X380630Y82293D01*
X380620Y82132D01*
X380620Y69018D01*
X379700Y66799D01*
X379698Y66790D01*
X379693Y66782D01*
X379656Y66636D01*
X379616Y66492D01*
X379616Y66483D01*
X379614Y66474D01*
X379604Y66313D01*
X379604Y66178D01*
X379616Y66079D01*
X379619Y65980D01*
X379636Y65922D01*
X379644Y65862D01*
X379680Y65770D01*
X379708Y65675D01*
X379738Y65623D01*
X379761Y65566D01*
X379819Y65486D01*
X379858Y65420D01*
X379858Y50172D01*
X378072Y48386D01*
X368942Y48386D01*
X368592Y48736D01*
X368508Y48801D01*
X368431Y48873D01*
X368383Y48898D01*
X368341Y48931D01*
X368244Y48973D01*
X368151Y49023D01*
X368098Y49036D01*
X368049Y49058D01*
X367944Y49074D01*
X367842Y49099D01*
X367788Y49099D01*
X367735Y49107D01*
X367629Y49098D01*
X367524Y49097D01*
X367440Y49080D01*
X367418Y49078D01*
X367404Y49072D01*
X367366Y49065D01*
X366729Y48894D01*
X364743Y48894D01*
X364743Y56452D01*
X370142Y56452D01*
X370160Y56464D01*
X370183Y56468D01*
X370190Y56483D01*
X370199Y56489D01*
X370197Y56499D01*
X370204Y56515D01*
X370204Y59055D01*
X370192Y59074D01*
X370189Y59096D01*
X370173Y59103D01*
X370167Y59112D01*
X370157Y59111D01*
X370142Y59118D01*
X364743Y59118D01*
X364743Y66676D01*
X366141Y66676D01*
X366259Y66691D01*
X366378Y66698D01*
X366416Y66711D01*
X366457Y66716D01*
X366567Y66759D01*
X366680Y66796D01*
X366715Y66818D01*
X366752Y66833D01*
X366848Y66902D01*
X366949Y66966D01*
X366977Y66996D01*
X367010Y67019D01*
X367086Y67111D01*
X367167Y67198D01*
X367187Y67233D01*
X367212Y67264D01*
X367263Y67372D01*
X367321Y67476D01*
X367331Y67516D01*
X367348Y67552D01*
X367370Y67669D01*
X367400Y67784D01*
X367404Y67844D01*
X367408Y67864D01*
X367406Y67885D01*
X367410Y67945D01*
X367410Y70428D01*
X368330Y72647D01*
X368332Y72656D01*
X368337Y72664D01*
X368374Y72810D01*
X368414Y72954D01*
X368414Y72963D01*
X368416Y72972D01*
X368426Y73133D01*
X368426Y80174D01*
X368409Y80311D01*
X368396Y80450D01*
X368389Y80469D01*
X368386Y80489D01*
X368335Y80618D01*
X368288Y80749D01*
X368277Y80766D01*
X368269Y80785D01*
X368188Y80897D01*
X368110Y81013D01*
X368094Y81026D01*
X368083Y81042D01*
X367975Y81131D01*
X367871Y81223D01*
X367853Y81232D01*
X367838Y81245D01*
X367712Y81304D01*
X367588Y81368D01*
X367568Y81372D01*
X367550Y81381D01*
X367414Y81407D01*
X367278Y81437D01*
X367257Y81437D01*
X367238Y81440D01*
X367099Y81432D01*
X366960Y81428D01*
X366940Y81422D01*
X366920Y81421D01*
X366788Y81378D01*
X366654Y81339D01*
X366637Y81329D01*
X366618Y81323D01*
X366500Y81248D01*
X366380Y81178D01*
X366359Y81159D01*
X366349Y81153D01*
X366335Y81138D01*
X366260Y81071D01*
X358689Y73501D01*
X357081Y71893D01*
X355214Y71119D01*
X295945Y71119D01*
X295936Y71118D01*
X295926Y71119D01*
X295778Y71098D01*
X295629Y71079D01*
X295621Y71076D01*
X295612Y71075D01*
X295459Y71023D01*
X293307Y70131D01*
X290893Y70131D01*
X288741Y71023D01*
X288732Y71025D01*
X288724Y71030D01*
X288579Y71067D01*
X288434Y71107D01*
X288425Y71107D01*
X288416Y71109D01*
X288255Y71119D01*
X252989Y71119D01*
X251858Y71588D01*
X251723Y71625D01*
X251591Y71666D01*
X251571Y71667D01*
X251551Y71672D01*
X251412Y71674D01*
X251273Y71681D01*
X251253Y71677D01*
X251233Y71677D01*
X251097Y71644D01*
X250962Y71616D01*
X250944Y71608D01*
X250924Y71603D01*
X250800Y71538D01*
X250676Y71477D01*
X250661Y71464D01*
X250643Y71454D01*
X250540Y71360D01*
X250434Y71270D01*
X250422Y71254D01*
X250407Y71240D01*
X250331Y71124D01*
X250251Y71010D01*
X250244Y70991D01*
X250233Y70975D01*
X250187Y70843D01*
X250138Y70713D01*
X250136Y70693D01*
X250129Y70674D01*
X250118Y70535D01*
X250103Y70397D01*
X250106Y70377D01*
X250104Y70357D01*
X250128Y70220D01*
X250147Y70082D01*
X250156Y70055D01*
X250159Y70043D01*
X250167Y70025D01*
X250199Y69930D01*
X250840Y68384D01*
X250840Y65756D01*
X249834Y63329D01*
X247976Y61471D01*
X245549Y60465D01*
X239813Y60465D01*
X239668Y60447D01*
X239523Y60432D01*
X239510Y60427D01*
X239497Y60425D01*
X239362Y60372D01*
X239225Y60321D01*
X239214Y60313D01*
X239201Y60308D01*
X239084Y60223D01*
X238964Y60140D01*
X238955Y60129D01*
X238944Y60122D01*
X238851Y60010D01*
X238756Y59899D01*
X238750Y59887D01*
X238741Y59877D01*
X238679Y59745D01*
X238614Y59614D01*
X238611Y59601D01*
X238606Y59589D01*
X238578Y59447D01*
X238548Y59303D01*
X238548Y59290D01*
X238546Y59277D01*
X238555Y59131D01*
X238561Y58986D01*
X238565Y58972D01*
X238566Y58959D01*
X238610Y58821D01*
X238652Y58681D01*
X238659Y58669D01*
X238664Y58657D01*
X238741Y58534D01*
X238817Y58409D01*
X238827Y58399D01*
X238834Y58388D01*
X238940Y58288D01*
X239044Y58186D01*
X239059Y58176D01*
X239065Y58170D01*
X239080Y58162D01*
X239178Y58097D01*
X243355Y55685D01*
X248480Y49578D01*
X251207Y42086D01*
X251207Y34114D01*
X248480Y26622D01*
X243356Y20515D01*
X240962Y19133D01*
X240846Y19045D01*
X240728Y18960D01*
X240719Y18949D01*
X240709Y18941D01*
X240618Y18827D01*
X240525Y18715D01*
X240519Y18702D01*
X240511Y18692D01*
X240451Y18558D01*
X240390Y18427D01*
X240387Y18414D01*
X240382Y18401D01*
X240357Y18257D01*
X240330Y18114D01*
X240331Y18101D01*
X240328Y18088D01*
X240341Y17942D01*
X240350Y17797D01*
X240354Y17784D01*
X240355Y17771D01*
X240403Y17633D01*
X240448Y17495D01*
X240455Y17483D01*
X240459Y17470D01*
X240540Y17349D01*
X240618Y17226D01*
X240628Y17217D01*
X240635Y17205D01*
X240743Y17108D01*
X240849Y17008D01*
X240861Y17001D01*
X240871Y16992D01*
X241001Y16925D01*
X241128Y16854D01*
X241141Y16851D01*
X241153Y16845D01*
X241295Y16811D01*
X241436Y16775D01*
X241454Y16774D01*
X241463Y16772D01*
X241480Y16772D01*
X241597Y16765D01*
X281084Y16765D01*
X283836Y14012D01*
X293412Y4436D01*
X293490Y4376D01*
X293562Y4308D01*
X293615Y4279D01*
X293663Y4242D01*
X293754Y4202D01*
X293841Y4154D01*
X293899Y4139D01*
X293955Y4115D01*
X294053Y4100D01*
X294149Y4075D01*
X294249Y4069D01*
X294269Y4065D01*
X294281Y4067D01*
X294309Y4065D01*
X451866Y4065D01*
X451984Y4080D01*
G37*
G36*
X179372Y53607D02*
X179372Y53607D01*
X179471Y53610D01*
X179529Y53627D01*
X179589Y53635D01*
X179681Y53671D01*
X179776Y53699D01*
X179828Y53729D01*
X179885Y53752D01*
X179965Y53810D01*
X180050Y53860D01*
X180126Y53926D01*
X180142Y53938D01*
X180150Y53948D01*
X180171Y53966D01*
X203082Y76877D01*
X203142Y76955D01*
X203210Y77027D01*
X203239Y77080D01*
X203276Y77128D01*
X203316Y77219D01*
X203364Y77306D01*
X203379Y77364D01*
X203403Y77420D01*
X203418Y77518D01*
X203443Y77614D01*
X203449Y77714D01*
X203453Y77734D01*
X203451Y77746D01*
X203453Y77774D01*
X203453Y81457D01*
X203441Y81555D01*
X203438Y81654D01*
X203421Y81712D01*
X203413Y81772D01*
X203377Y81864D01*
X203349Y81959D01*
X203319Y82011D01*
X203296Y82068D01*
X203238Y82148D01*
X203188Y82233D01*
X203122Y82309D01*
X203110Y82325D01*
X203100Y82333D01*
X203082Y82354D01*
X202457Y82978D01*
X201548Y85173D01*
X201548Y87547D01*
X202457Y89742D01*
X204014Y91298D01*
X204087Y91392D01*
X204165Y91481D01*
X204184Y91517D01*
X204209Y91549D01*
X204256Y91659D01*
X204310Y91765D01*
X204319Y91804D01*
X204335Y91841D01*
X204354Y91959D01*
X204380Y92075D01*
X204378Y92115D01*
X204385Y92155D01*
X204374Y92274D01*
X204370Y92393D01*
X204359Y92432D01*
X204355Y92472D01*
X204315Y92584D01*
X204282Y92698D01*
X204261Y92733D01*
X204247Y92771D01*
X204181Y92870D01*
X204120Y92972D01*
X204080Y93018D01*
X204069Y93034D01*
X204054Y93048D01*
X204014Y93093D01*
X203794Y93312D01*
X203794Y93313D01*
X192450Y104657D01*
X192372Y104717D01*
X192300Y104785D01*
X192247Y104814D01*
X192199Y104851D01*
X192108Y104891D01*
X192021Y104939D01*
X191963Y104954D01*
X191907Y104978D01*
X191809Y104993D01*
X191713Y105018D01*
X191613Y105024D01*
X191593Y105028D01*
X191581Y105026D01*
X191553Y105028D01*
X185427Y105028D01*
X183641Y106814D01*
X183641Y117020D01*
X183640Y117029D01*
X183641Y117039D01*
X183621Y117182D01*
X183616Y117265D01*
X183607Y117292D01*
X183601Y117336D01*
X183598Y117344D01*
X183597Y117354D01*
X183545Y117506D01*
X183260Y118193D01*
X183260Y120567D01*
X183545Y121254D01*
X183547Y121263D01*
X183552Y121271D01*
X183589Y121416D01*
X183629Y121561D01*
X183629Y121570D01*
X183631Y121579D01*
X183641Y121740D01*
X183641Y131946D01*
X185427Y133732D01*
X200653Y133732D01*
X201424Y132961D01*
X201502Y132900D01*
X201574Y132832D01*
X201628Y132803D01*
X201675Y132766D01*
X201766Y132726D01*
X201853Y132678D01*
X201912Y132663D01*
X201967Y132639D01*
X202065Y132624D01*
X202161Y132599D01*
X202261Y132593D01*
X202281Y132589D01*
X202294Y132591D01*
X202322Y132589D01*
X209550Y132589D01*
X209668Y132604D01*
X209787Y132611D01*
X209825Y132624D01*
X209866Y132629D01*
X209976Y132672D01*
X210089Y132709D01*
X210124Y132731D01*
X210161Y132746D01*
X210257Y132815D01*
X210358Y132879D01*
X210386Y132909D01*
X210419Y132932D01*
X210495Y133024D01*
X210576Y133111D01*
X210596Y133146D01*
X210621Y133177D01*
X210672Y133285D01*
X210730Y133389D01*
X210740Y133429D01*
X210757Y133465D01*
X210779Y133582D01*
X210809Y133697D01*
X210813Y133757D01*
X210817Y133777D01*
X210815Y133798D01*
X210819Y133858D01*
X210819Y178811D01*
X211593Y180678D01*
X213201Y182286D01*
X227883Y196969D01*
X227969Y197078D01*
X228057Y197185D01*
X228066Y197204D01*
X228078Y197220D01*
X228134Y197348D01*
X228193Y197473D01*
X228196Y197493D01*
X228205Y197512D01*
X228226Y197650D01*
X228252Y197786D01*
X228251Y197806D01*
X228254Y197826D01*
X228241Y197965D01*
X228233Y198103D01*
X228227Y198122D01*
X228225Y198142D01*
X228177Y198274D01*
X228135Y198405D01*
X228124Y198423D01*
X228117Y198442D01*
X228039Y198557D01*
X227965Y198674D01*
X227950Y198688D01*
X227938Y198705D01*
X227834Y198797D01*
X227733Y198892D01*
X227715Y198902D01*
X227700Y198915D01*
X227576Y198978D01*
X227454Y199046D01*
X227435Y199051D01*
X227417Y199060D01*
X227281Y199090D01*
X227146Y199125D01*
X227118Y199127D01*
X227106Y199130D01*
X227086Y199129D01*
X226986Y199135D01*
X225508Y199135D01*
X223313Y200044D01*
X221634Y201723D01*
X220725Y203918D01*
X220725Y204801D01*
X220713Y204899D01*
X220710Y204998D01*
X220693Y205056D01*
X220685Y205116D01*
X220649Y205208D01*
X220621Y205303D01*
X220591Y205355D01*
X220568Y205412D01*
X220510Y205492D01*
X220460Y205577D01*
X220394Y205653D01*
X220382Y205669D01*
X220372Y205677D01*
X220354Y205698D01*
X201888Y224164D01*
X201810Y224224D01*
X201738Y224292D01*
X201685Y224321D01*
X201637Y224358D01*
X201546Y224398D01*
X201459Y224446D01*
X201401Y224461D01*
X201345Y224485D01*
X201247Y224500D01*
X201151Y224525D01*
X201051Y224531D01*
X201031Y224535D01*
X201019Y224533D01*
X200991Y224535D01*
X124283Y224535D01*
X124185Y224523D01*
X124086Y224520D01*
X124028Y224503D01*
X123968Y224495D01*
X123876Y224459D01*
X123781Y224431D01*
X123729Y224401D01*
X123672Y224378D01*
X123592Y224320D01*
X123507Y224270D01*
X123431Y224204D01*
X123415Y224192D01*
X123407Y224182D01*
X123386Y224164D01*
X122762Y223539D01*
X120567Y222630D01*
X118193Y222630D01*
X115998Y223539D01*
X114319Y225218D01*
X113410Y227413D01*
X113410Y229787D01*
X114319Y231982D01*
X115998Y233661D01*
X118193Y234570D01*
X120567Y234570D01*
X122762Y233661D01*
X123386Y233036D01*
X123464Y232976D01*
X123536Y232908D01*
X123589Y232879D01*
X123637Y232842D01*
X123728Y232802D01*
X123815Y232754D01*
X123873Y232739D01*
X123929Y232715D01*
X124027Y232700D01*
X124123Y232675D01*
X124223Y232669D01*
X124243Y232665D01*
X124255Y232667D01*
X124283Y232665D01*
X204884Y232665D01*
X226102Y211446D01*
X226180Y211386D01*
X226252Y211318D01*
X226305Y211289D01*
X226353Y211252D01*
X226444Y211212D01*
X226531Y211164D01*
X226589Y211149D01*
X226645Y211125D01*
X226743Y211110D01*
X226839Y211085D01*
X226939Y211079D01*
X226959Y211075D01*
X226971Y211077D01*
X226999Y211075D01*
X227882Y211075D01*
X230077Y210166D01*
X231756Y208487D01*
X232665Y206292D01*
X232665Y204814D01*
X232682Y204676D01*
X232695Y204538D01*
X232702Y204519D01*
X232705Y204499D01*
X232756Y204369D01*
X232803Y204239D01*
X232814Y204222D01*
X232822Y204203D01*
X232903Y204091D01*
X232981Y203975D01*
X232997Y203962D01*
X233008Y203946D01*
X233116Y203857D01*
X233220Y203765D01*
X233238Y203756D01*
X233253Y203743D01*
X233379Y203684D01*
X233503Y203620D01*
X233523Y203616D01*
X233541Y203607D01*
X233678Y203581D01*
X233813Y203551D01*
X233834Y203551D01*
X233853Y203548D01*
X233992Y203556D01*
X234131Y203560D01*
X234151Y203566D01*
X234171Y203567D01*
X234303Y203610D01*
X234437Y203649D01*
X234454Y203659D01*
X234473Y203665D01*
X234591Y203740D01*
X234711Y203810D01*
X234732Y203829D01*
X234742Y203835D01*
X234756Y203850D01*
X234831Y203917D01*
X235848Y204933D01*
X235908Y205011D01*
X235976Y205083D01*
X236005Y205136D01*
X236042Y205184D01*
X236082Y205275D01*
X236130Y205362D01*
X236145Y205420D01*
X236169Y205476D01*
X236184Y205574D01*
X236209Y205670D01*
X236215Y205770D01*
X236219Y205790D01*
X236217Y205802D01*
X236219Y205830D01*
X236219Y241784D01*
X236216Y241813D01*
X236218Y241843D01*
X236196Y241971D01*
X236179Y242100D01*
X236169Y242127D01*
X236164Y242156D01*
X236110Y242275D01*
X236062Y242395D01*
X236045Y242419D01*
X236033Y242446D01*
X235952Y242548D01*
X235876Y242653D01*
X235853Y242672D01*
X235834Y242695D01*
X235731Y242773D01*
X235631Y242856D01*
X235604Y242868D01*
X235580Y242886D01*
X235436Y242957D01*
X234250Y243448D01*
X230748Y246950D01*
X229773Y249305D01*
X229704Y249425D01*
X229639Y249548D01*
X229625Y249563D01*
X229615Y249581D01*
X229518Y249681D01*
X229425Y249784D01*
X229408Y249795D01*
X229394Y249809D01*
X229276Y249882D01*
X229159Y249958D01*
X229140Y249965D01*
X229123Y249976D01*
X228990Y250016D01*
X228858Y250062D01*
X228838Y250063D01*
X228819Y250069D01*
X228680Y250076D01*
X228541Y250087D01*
X228521Y250083D01*
X228501Y250084D01*
X228365Y250056D01*
X228228Y250032D01*
X228209Y250024D01*
X228190Y250020D01*
X228065Y249959D01*
X227938Y249902D01*
X227922Y249889D01*
X227904Y249880D01*
X227798Y249790D01*
X227690Y249703D01*
X227677Y249687D01*
X227662Y249674D01*
X227582Y249560D01*
X227498Y249449D01*
X227486Y249424D01*
X227479Y249414D01*
X227472Y249395D01*
X227427Y249305D01*
X226452Y246950D01*
X222950Y243448D01*
X218376Y241553D01*
X213424Y241553D01*
X208850Y243448D01*
X205348Y246950D01*
X203453Y251524D01*
X203453Y256476D01*
X205278Y260880D01*
X205291Y260928D01*
X205312Y260973D01*
X205333Y261081D01*
X205362Y261187D01*
X205362Y261237D01*
X205372Y261286D01*
X205365Y261395D01*
X205367Y261505D01*
X205355Y261553D01*
X205352Y261603D01*
X205318Y261707D01*
X205293Y261814D01*
X205269Y261858D01*
X205254Y261905D01*
X205195Y261998D01*
X205144Y262095D01*
X205110Y262132D01*
X205084Y262174D01*
X205004Y262249D01*
X204930Y262331D01*
X204888Y262358D01*
X204852Y262392D01*
X204756Y262445D01*
X204664Y262505D01*
X204617Y262522D01*
X204574Y262546D01*
X204467Y262573D01*
X204363Y262609D01*
X204314Y262613D01*
X204266Y262625D01*
X204105Y262635D01*
X38397Y262635D01*
X38252Y262617D01*
X38107Y262602D01*
X38094Y262597D01*
X38081Y262595D01*
X37946Y262542D01*
X37809Y262491D01*
X37798Y262483D01*
X37785Y262478D01*
X37668Y262393D01*
X37548Y262310D01*
X37539Y262299D01*
X37528Y262292D01*
X37435Y262180D01*
X37340Y262069D01*
X37334Y262057D01*
X37325Y262047D01*
X37263Y261915D01*
X37198Y261784D01*
X37195Y261771D01*
X37190Y261759D01*
X37162Y261617D01*
X37132Y261473D01*
X37132Y261460D01*
X37130Y261447D01*
X37139Y261302D01*
X37145Y261156D01*
X37149Y261142D01*
X37150Y261129D01*
X37194Y260991D01*
X37237Y260851D01*
X37244Y260839D01*
X37248Y260827D01*
X37325Y260704D01*
X37401Y260579D01*
X37411Y260569D01*
X37418Y260558D01*
X37524Y260458D01*
X37628Y260356D01*
X37643Y260346D01*
X37649Y260340D01*
X37664Y260332D01*
X37762Y260267D01*
X40155Y258885D01*
X45280Y252778D01*
X48007Y245286D01*
X48007Y237314D01*
X45280Y229822D01*
X40156Y223715D01*
X33251Y219729D01*
X25400Y218345D01*
X17549Y219729D01*
X10645Y223715D01*
X6306Y228885D01*
X6280Y228909D01*
X6260Y228938D01*
X6164Y229017D01*
X6073Y229101D01*
X6042Y229118D01*
X6015Y229141D01*
X5902Y229194D01*
X5793Y229253D01*
X5759Y229261D01*
X5727Y229276D01*
X5605Y229299D01*
X5485Y229330D01*
X5449Y229329D01*
X5414Y229336D01*
X5291Y229328D01*
X5167Y229327D01*
X5132Y229318D01*
X5097Y229316D01*
X4979Y229278D01*
X4859Y229246D01*
X4828Y229229D01*
X4795Y229218D01*
X4690Y229152D01*
X4581Y229091D01*
X4556Y229067D01*
X4526Y229048D01*
X4441Y228958D01*
X4351Y228872D01*
X4332Y228842D01*
X4308Y228816D01*
X4248Y228708D01*
X4182Y228603D01*
X4171Y228569D01*
X4154Y228538D01*
X4123Y228418D01*
X4086Y228300D01*
X4084Y228264D01*
X4075Y228230D01*
X4065Y228069D01*
X4065Y201474D01*
X4070Y201435D01*
X4067Y201395D01*
X4090Y201277D01*
X4105Y201159D01*
X4119Y201122D01*
X4127Y201083D01*
X4178Y200974D01*
X4222Y200863D01*
X4245Y200831D01*
X4262Y200795D01*
X4338Y200703D01*
X4408Y200606D01*
X4439Y200580D01*
X4464Y200550D01*
X4561Y200479D01*
X4653Y200403D01*
X4689Y200386D01*
X4722Y200362D01*
X4833Y200318D01*
X4941Y200267D01*
X4980Y200260D01*
X5017Y200245D01*
X5136Y200230D01*
X5253Y200208D01*
X5293Y200210D01*
X5333Y200205D01*
X5452Y200220D01*
X5571Y200227D01*
X5609Y200240D01*
X5648Y200245D01*
X5760Y200288D01*
X5873Y200325D01*
X5907Y200347D01*
X5944Y200361D01*
X6080Y200447D01*
X6443Y200711D01*
X8117Y201564D01*
X9904Y202145D01*
X10161Y202185D01*
X10161Y191770D01*
X10176Y191652D01*
X10183Y191533D01*
X10196Y191495D01*
X10201Y191455D01*
X10244Y191344D01*
X10281Y191231D01*
X10303Y191197D01*
X10318Y191159D01*
X10388Y191063D01*
X10451Y190962D01*
X10481Y190934D01*
X10504Y190902D01*
X10596Y190826D01*
X10683Y190744D01*
X10718Y190725D01*
X10749Y190699D01*
X10857Y190648D01*
X10961Y190591D01*
X11001Y190580D01*
X11037Y190563D01*
X11154Y190541D01*
X11269Y190511D01*
X11330Y190507D01*
X11350Y190503D01*
X11370Y190505D01*
X11430Y190501D01*
X12701Y190501D01*
X12701Y189230D01*
X12716Y189112D01*
X12723Y188993D01*
X12736Y188955D01*
X12741Y188914D01*
X12785Y188804D01*
X12821Y188691D01*
X12843Y188656D01*
X12858Y188619D01*
X12928Y188523D01*
X12991Y188422D01*
X13021Y188394D01*
X13045Y188361D01*
X13136Y188286D01*
X13223Y188204D01*
X13258Y188184D01*
X13290Y188159D01*
X13397Y188108D01*
X13502Y188050D01*
X13541Y188040D01*
X13577Y188023D01*
X13694Y188001D01*
X13809Y187971D01*
X13870Y187967D01*
X13890Y187963D01*
X13910Y187965D01*
X13970Y187961D01*
X24385Y187961D01*
X24345Y187704D01*
X23764Y185917D01*
X22911Y184243D01*
X21806Y182722D01*
X20478Y181394D01*
X18957Y180289D01*
X17283Y179436D01*
X16818Y179285D01*
X16791Y179272D01*
X16762Y179265D01*
X16648Y179205D01*
X16530Y179150D01*
X16507Y179131D01*
X16481Y179117D01*
X16385Y179030D01*
X16285Y178947D01*
X16268Y178923D01*
X16246Y178903D01*
X16174Y178794D01*
X16098Y178690D01*
X16087Y178662D01*
X16071Y178637D01*
X16029Y178514D01*
X15981Y178394D01*
X15977Y178364D01*
X15968Y178336D01*
X15957Y178207D01*
X15941Y178079D01*
X15945Y178049D01*
X15942Y178019D01*
X15965Y177891D01*
X15981Y177763D01*
X15992Y177735D01*
X15997Y177706D01*
X16050Y177588D01*
X16098Y177467D01*
X16115Y177443D01*
X16127Y177416D01*
X16208Y177315D01*
X16284Y177210D01*
X16307Y177191D01*
X16326Y177167D01*
X16430Y177089D01*
X16529Y177007D01*
X16556Y176994D01*
X16580Y176976D01*
X16725Y176905D01*
X19750Y175652D01*
X23252Y172150D01*
X25147Y167576D01*
X25147Y162624D01*
X23252Y158050D01*
X19750Y154548D01*
X17395Y153573D01*
X17275Y153504D01*
X17152Y153439D01*
X17137Y153425D01*
X17119Y153415D01*
X17019Y153318D01*
X16916Y153225D01*
X16905Y153208D01*
X16891Y153194D01*
X16818Y153076D01*
X16742Y152959D01*
X16735Y152940D01*
X16724Y152923D01*
X16684Y152790D01*
X16638Y152658D01*
X16637Y152638D01*
X16631Y152619D01*
X16624Y152480D01*
X16613Y152341D01*
X16617Y152321D01*
X16616Y152301D01*
X16644Y152165D01*
X16668Y152028D01*
X16676Y152009D01*
X16680Y151990D01*
X16741Y151865D01*
X16798Y151738D01*
X16811Y151722D01*
X16820Y151704D01*
X16910Y151598D01*
X16997Y151490D01*
X17013Y151477D01*
X17026Y151462D01*
X17140Y151382D01*
X17251Y151298D01*
X17276Y151286D01*
X17286Y151279D01*
X17305Y151272D01*
X17395Y151227D01*
X19750Y150252D01*
X23252Y146750D01*
X23535Y146066D01*
X23560Y146023D01*
X23577Y145976D01*
X23639Y145885D01*
X23693Y145790D01*
X23728Y145754D01*
X23755Y145713D01*
X23838Y145640D01*
X23914Y145561D01*
X23957Y145535D01*
X23994Y145502D01*
X24092Y145452D01*
X24185Y145395D01*
X24233Y145380D01*
X24277Y145358D01*
X24384Y145334D01*
X24489Y145301D01*
X24539Y145299D01*
X24587Y145288D01*
X24697Y145291D01*
X24807Y145286D01*
X24856Y145296D01*
X24905Y145298D01*
X25011Y145328D01*
X25118Y145350D01*
X25163Y145372D01*
X25211Y145386D01*
X25305Y145442D01*
X25404Y145490D01*
X25442Y145522D01*
X25485Y145548D01*
X25606Y145654D01*
X33664Y153712D01*
X33724Y153790D01*
X33792Y153862D01*
X33821Y153915D01*
X33858Y153963D01*
X33898Y154054D01*
X33946Y154141D01*
X33961Y154199D01*
X33985Y154255D01*
X34000Y154353D01*
X34025Y154449D01*
X34031Y154549D01*
X34035Y154569D01*
X34033Y154581D01*
X34035Y154609D01*
X34035Y204884D01*
X44459Y215307D01*
X44519Y215385D01*
X44587Y215457D01*
X44616Y215510D01*
X44653Y215558D01*
X44693Y215649D01*
X44741Y215736D01*
X44756Y215794D01*
X44780Y215850D01*
X44795Y215948D01*
X44820Y216044D01*
X44826Y216144D01*
X44830Y216164D01*
X44828Y216176D01*
X44830Y216204D01*
X44830Y217087D01*
X45739Y219282D01*
X47418Y220961D01*
X49613Y221870D01*
X51987Y221870D01*
X54182Y220961D01*
X55861Y219282D01*
X56770Y217087D01*
X56770Y214713D01*
X55861Y212518D01*
X54182Y210839D01*
X53900Y210723D01*
X53779Y210654D01*
X53657Y210589D01*
X53642Y210575D01*
X53624Y210565D01*
X53524Y210468D01*
X53421Y210375D01*
X53410Y210358D01*
X53396Y210344D01*
X53323Y210225D01*
X53247Y210109D01*
X53240Y210090D01*
X53229Y210073D01*
X53189Y209940D01*
X53143Y209808D01*
X53142Y209788D01*
X53136Y209769D01*
X53129Y209630D01*
X53118Y209491D01*
X53122Y209471D01*
X53121Y209451D01*
X53149Y209315D01*
X53173Y209178D01*
X53181Y209160D01*
X53185Y209140D01*
X53246Y209015D01*
X53303Y208888D01*
X53316Y208872D01*
X53325Y208854D01*
X53415Y208748D01*
X53502Y208640D01*
X53518Y208627D01*
X53531Y208612D01*
X53645Y208532D01*
X53756Y208448D01*
X53781Y208436D01*
X53791Y208429D01*
X53810Y208422D01*
X53900Y208377D01*
X54182Y208261D01*
X55861Y206582D01*
X56770Y204387D01*
X56770Y202013D01*
X55861Y199818D01*
X55236Y199194D01*
X55176Y199116D01*
X55108Y199044D01*
X55079Y198991D01*
X55042Y198943D01*
X55002Y198852D01*
X54954Y198765D01*
X54939Y198707D01*
X54915Y198651D01*
X54900Y198553D01*
X54875Y198457D01*
X54869Y198357D01*
X54865Y198337D01*
X54867Y198325D01*
X54865Y198297D01*
X54865Y88569D01*
X54877Y88471D01*
X54880Y88372D01*
X54897Y88314D01*
X54905Y88254D01*
X54941Y88162D01*
X54969Y88067D01*
X54999Y88015D01*
X55022Y87958D01*
X55080Y87878D01*
X55130Y87793D01*
X55196Y87717D01*
X55208Y87701D01*
X55218Y87693D01*
X55236Y87672D01*
X68622Y74286D01*
X68700Y74226D01*
X68772Y74158D01*
X68825Y74129D01*
X68873Y74092D01*
X68964Y74052D01*
X69051Y74004D01*
X69109Y73989D01*
X69165Y73965D01*
X69263Y73950D01*
X69359Y73925D01*
X69459Y73919D01*
X69479Y73915D01*
X69491Y73917D01*
X69519Y73915D01*
X101379Y73915D01*
X111167Y64126D01*
X111245Y64066D01*
X111317Y63998D01*
X111370Y63969D01*
X111418Y63932D01*
X111509Y63892D01*
X111596Y63844D01*
X111654Y63829D01*
X111710Y63805D01*
X111808Y63790D01*
X111904Y63765D01*
X112004Y63759D01*
X112024Y63755D01*
X112036Y63757D01*
X112064Y63755D01*
X147497Y63755D01*
X147595Y63767D01*
X147694Y63770D01*
X147752Y63787D01*
X147812Y63795D01*
X147904Y63831D01*
X147999Y63859D01*
X148051Y63889D01*
X148108Y63912D01*
X148188Y63970D01*
X148273Y64020D01*
X148349Y64086D01*
X148365Y64098D01*
X148373Y64108D01*
X148394Y64126D01*
X149018Y64751D01*
X151213Y65660D01*
X153587Y65660D01*
X155782Y64751D01*
X157461Y63072D01*
X158370Y60877D01*
X158370Y58503D01*
X157461Y56308D01*
X156914Y55761D01*
X156829Y55652D01*
X156740Y55545D01*
X156731Y55526D01*
X156719Y55510D01*
X156664Y55382D01*
X156605Y55257D01*
X156601Y55237D01*
X156593Y55218D01*
X156571Y55080D01*
X156545Y54944D01*
X156546Y54924D01*
X156543Y54904D01*
X156556Y54765D01*
X156564Y54627D01*
X156571Y54608D01*
X156573Y54588D01*
X156620Y54457D01*
X156663Y54325D01*
X156673Y54307D01*
X156680Y54288D01*
X156758Y54174D01*
X156833Y54056D01*
X156847Y54042D01*
X156859Y54025D01*
X156963Y53933D01*
X157064Y53838D01*
X157082Y53828D01*
X157097Y53815D01*
X157221Y53752D01*
X157343Y53684D01*
X157362Y53679D01*
X157380Y53670D01*
X157516Y53640D01*
X157651Y53605D01*
X157679Y53603D01*
X157691Y53600D01*
X157711Y53601D01*
X157811Y53595D01*
X179274Y53595D01*
X179372Y53607D01*
G37*
G36*
X215748Y16783D02*
X215748Y16783D01*
X215893Y16798D01*
X215906Y16803D01*
X215919Y16805D01*
X216054Y16858D01*
X216191Y16909D01*
X216202Y16917D01*
X216215Y16922D01*
X216332Y17007D01*
X216452Y17090D01*
X216461Y17101D01*
X216472Y17108D01*
X216565Y17220D01*
X216660Y17331D01*
X216666Y17343D01*
X216675Y17353D01*
X216737Y17485D01*
X216802Y17616D01*
X216805Y17629D01*
X216810Y17641D01*
X216838Y17783D01*
X216868Y17927D01*
X216868Y17940D01*
X216870Y17953D01*
X216861Y18098D01*
X216855Y18244D01*
X216851Y18258D01*
X216850Y18271D01*
X216806Y18409D01*
X216763Y18549D01*
X216756Y18561D01*
X216752Y18573D01*
X216675Y18696D01*
X216599Y18821D01*
X216589Y18831D01*
X216582Y18842D01*
X216476Y18942D01*
X216372Y19044D01*
X216357Y19054D01*
X216351Y19060D01*
X216336Y19068D01*
X216238Y19133D01*
X213845Y20515D01*
X208720Y26622D01*
X205993Y34114D01*
X205993Y39284D01*
X205976Y39421D01*
X205963Y39560D01*
X205956Y39579D01*
X205953Y39599D01*
X205902Y39728D01*
X205855Y39859D01*
X205844Y39876D01*
X205836Y39895D01*
X205755Y40007D01*
X205677Y40122D01*
X205661Y40136D01*
X205650Y40152D01*
X205542Y40241D01*
X205438Y40333D01*
X205420Y40342D01*
X205405Y40355D01*
X205279Y40414D01*
X205155Y40477D01*
X205135Y40482D01*
X205117Y40490D01*
X204981Y40517D01*
X204845Y40547D01*
X204824Y40546D01*
X204805Y40550D01*
X204666Y40542D01*
X204527Y40537D01*
X204507Y40532D01*
X204487Y40530D01*
X204355Y40488D01*
X204221Y40449D01*
X204204Y40439D01*
X204185Y40432D01*
X204067Y40358D01*
X203947Y40287D01*
X203926Y40269D01*
X203916Y40262D01*
X203902Y40247D01*
X203827Y40181D01*
X196146Y32501D01*
X193719Y31495D01*
X125686Y31495D01*
X123259Y32501D01*
X122096Y33664D01*
X122018Y33724D01*
X121946Y33792D01*
X121893Y33821D01*
X121845Y33858D01*
X121754Y33898D01*
X121667Y33946D01*
X121609Y33961D01*
X121553Y33985D01*
X121455Y34000D01*
X121359Y34025D01*
X121259Y34031D01*
X121239Y34035D01*
X121226Y34033D01*
X121198Y34035D01*
X67614Y34035D01*
X67516Y34023D01*
X67417Y34020D01*
X67359Y34003D01*
X67299Y33995D01*
X67207Y33959D01*
X67112Y33931D01*
X67059Y33901D01*
X67003Y33878D01*
X66923Y33820D01*
X66838Y33770D01*
X66762Y33704D01*
X66746Y33692D01*
X66738Y33682D01*
X66717Y33664D01*
X59046Y25993D01*
X58986Y25915D01*
X58918Y25843D01*
X58889Y25790D01*
X58852Y25742D01*
X58812Y25651D01*
X58764Y25564D01*
X58749Y25506D01*
X58725Y25450D01*
X58710Y25352D01*
X58685Y25256D01*
X58679Y25156D01*
X58675Y25136D01*
X58677Y25124D01*
X58675Y25096D01*
X58675Y24213D01*
X57766Y22018D01*
X56087Y20339D01*
X53892Y19430D01*
X51518Y19430D01*
X49323Y20339D01*
X47644Y22018D01*
X46735Y24213D01*
X46735Y24869D01*
X46731Y24904D01*
X46733Y24940D01*
X46711Y25062D01*
X46695Y25185D01*
X46682Y25218D01*
X46676Y25253D01*
X46624Y25365D01*
X46578Y25481D01*
X46558Y25509D01*
X46543Y25541D01*
X46464Y25638D01*
X46392Y25738D01*
X46364Y25760D01*
X46342Y25788D01*
X46242Y25861D01*
X46147Y25941D01*
X46115Y25956D01*
X46086Y25977D01*
X45971Y26023D01*
X45859Y26076D01*
X45824Y26083D01*
X45791Y26096D01*
X45668Y26113D01*
X45547Y26136D01*
X45511Y26134D01*
X45476Y26139D01*
X45353Y26124D01*
X45229Y26116D01*
X45195Y26105D01*
X45160Y26101D01*
X45045Y26056D01*
X44927Y26018D01*
X44897Y25999D01*
X44864Y25986D01*
X44763Y25915D01*
X44658Y25848D01*
X44634Y25822D01*
X44605Y25802D01*
X44494Y25685D01*
X40156Y20515D01*
X37762Y19133D01*
X37646Y19045D01*
X37528Y18960D01*
X37519Y18949D01*
X37509Y18941D01*
X37418Y18827D01*
X37325Y18715D01*
X37319Y18702D01*
X37311Y18692D01*
X37251Y18558D01*
X37190Y18427D01*
X37187Y18414D01*
X37182Y18401D01*
X37157Y18257D01*
X37130Y18114D01*
X37131Y18101D01*
X37128Y18088D01*
X37141Y17942D01*
X37150Y17797D01*
X37154Y17784D01*
X37155Y17771D01*
X37203Y17633D01*
X37248Y17495D01*
X37255Y17483D01*
X37259Y17470D01*
X37340Y17349D01*
X37418Y17226D01*
X37428Y17217D01*
X37435Y17205D01*
X37543Y17108D01*
X37649Y17008D01*
X37661Y17001D01*
X37671Y16992D01*
X37801Y16925D01*
X37928Y16854D01*
X37941Y16851D01*
X37953Y16845D01*
X38095Y16811D01*
X38236Y16775D01*
X38254Y16774D01*
X38263Y16772D01*
X38280Y16772D01*
X38397Y16765D01*
X215603Y16765D01*
X215748Y16783D01*
G37*
G36*
X107275Y53612D02*
X107275Y53612D01*
X107414Y53625D01*
X107433Y53632D01*
X107453Y53635D01*
X107582Y53686D01*
X107713Y53733D01*
X107730Y53744D01*
X107749Y53752D01*
X107861Y53833D01*
X107976Y53911D01*
X107990Y53927D01*
X108006Y53938D01*
X108095Y54046D01*
X108187Y54150D01*
X108196Y54168D01*
X108209Y54183D01*
X108268Y54309D01*
X108331Y54433D01*
X108336Y54453D01*
X108345Y54471D01*
X108371Y54607D01*
X108401Y54743D01*
X108401Y54764D01*
X108404Y54783D01*
X108396Y54922D01*
X108391Y55061D01*
X108386Y55081D01*
X108385Y55101D01*
X108342Y55233D01*
X108303Y55367D01*
X108293Y55384D01*
X108287Y55403D01*
X108212Y55521D01*
X108142Y55641D01*
X108123Y55662D01*
X108116Y55672D01*
X108101Y55686D01*
X108035Y55761D01*
X98383Y65414D01*
X98305Y65474D01*
X98233Y65542D01*
X98180Y65571D01*
X98132Y65608D01*
X98041Y65648D01*
X97954Y65696D01*
X97896Y65711D01*
X97840Y65735D01*
X97742Y65750D01*
X97646Y65775D01*
X97546Y65781D01*
X97526Y65785D01*
X97514Y65783D01*
X97486Y65785D01*
X65626Y65785D01*
X46735Y84676D01*
X46735Y108966D01*
X46720Y109084D01*
X46713Y109203D01*
X46700Y109241D01*
X46695Y109282D01*
X46652Y109392D01*
X46615Y109505D01*
X46593Y109540D01*
X46578Y109577D01*
X46509Y109673D01*
X46445Y109774D01*
X46415Y109802D01*
X46392Y109835D01*
X46300Y109911D01*
X46213Y109992D01*
X46178Y110012D01*
X46147Y110037D01*
X46039Y110088D01*
X45935Y110146D01*
X45895Y110156D01*
X45859Y110173D01*
X45742Y110195D01*
X45627Y110225D01*
X45567Y110229D01*
X45547Y110233D01*
X45526Y110231D01*
X45466Y110235D01*
X25337Y110235D01*
X25307Y110232D01*
X25278Y110234D01*
X25150Y110212D01*
X25021Y110195D01*
X24994Y110185D01*
X24965Y110180D01*
X24846Y110126D01*
X24725Y110078D01*
X24702Y110061D01*
X24675Y110049D01*
X24573Y109968D01*
X24468Y109892D01*
X24449Y109869D01*
X24426Y109850D01*
X24348Y109747D01*
X24265Y109647D01*
X24253Y109620D01*
X24235Y109596D01*
X24164Y109452D01*
X23252Y107250D01*
X19750Y103748D01*
X17395Y102773D01*
X17275Y102704D01*
X17152Y102639D01*
X17137Y102625D01*
X17119Y102615D01*
X17019Y102518D01*
X16916Y102425D01*
X16905Y102408D01*
X16891Y102394D01*
X16818Y102275D01*
X16742Y102159D01*
X16735Y102140D01*
X16724Y102123D01*
X16684Y101990D01*
X16638Y101858D01*
X16637Y101838D01*
X16631Y101819D01*
X16624Y101680D01*
X16613Y101541D01*
X16617Y101521D01*
X16616Y101501D01*
X16644Y101365D01*
X16668Y101228D01*
X16676Y101209D01*
X16680Y101190D01*
X16741Y101064D01*
X16798Y100938D01*
X16811Y100922D01*
X16820Y100904D01*
X16910Y100798D01*
X16997Y100690D01*
X17013Y100677D01*
X17026Y100662D01*
X17140Y100582D01*
X17251Y100498D01*
X17276Y100486D01*
X17286Y100479D01*
X17305Y100472D01*
X17395Y100427D01*
X19750Y99452D01*
X23252Y95950D01*
X25147Y91376D01*
X25147Y86424D01*
X24235Y84222D01*
X24227Y84194D01*
X24213Y84167D01*
X24185Y84040D01*
X24151Y83915D01*
X24150Y83886D01*
X24144Y83857D01*
X24148Y83727D01*
X24146Y83597D01*
X24152Y83569D01*
X24153Y83539D01*
X24189Y83414D01*
X24220Y83288D01*
X24234Y83262D01*
X24242Y83234D01*
X24308Y83122D01*
X24368Y83007D01*
X24388Y82985D01*
X24403Y82960D01*
X24510Y82839D01*
X53382Y53966D01*
X53460Y53906D01*
X53532Y53838D01*
X53585Y53809D01*
X53633Y53772D01*
X53724Y53732D01*
X53811Y53684D01*
X53869Y53669D01*
X53925Y53645D01*
X54023Y53630D01*
X54119Y53605D01*
X54219Y53599D01*
X54239Y53595D01*
X54251Y53597D01*
X54279Y53595D01*
X107138Y53595D01*
X107275Y53612D01*
G37*
%LPC*%
G36*
X98011Y109600D02*
X98011Y109600D01*
X95630Y111981D01*
X95630Y126779D01*
X98011Y129160D01*
X155989Y129160D01*
X158370Y126779D01*
X158370Y111981D01*
X155989Y109600D01*
X98011Y109600D01*
G37*
%LPD*%
%LPC*%
G36*
X307361Y228601D02*
X307361Y228601D01*
X300360Y231501D01*
X295001Y236860D01*
X292101Y243861D01*
X292101Y251439D01*
X295001Y258440D01*
X300360Y263799D01*
X307361Y266699D01*
X314939Y266699D01*
X321940Y263799D01*
X327299Y258440D01*
X330199Y251439D01*
X330199Y243861D01*
X327299Y236860D01*
X321940Y231501D01*
X314939Y228601D01*
X307361Y228601D01*
G37*
%LPD*%
%LPC*%
G36*
X421661Y11431D02*
X421661Y11431D01*
X414660Y14331D01*
X409301Y19690D01*
X406401Y26691D01*
X406401Y34269D01*
X409301Y41270D01*
X414660Y46629D01*
X421661Y49529D01*
X429239Y49529D01*
X436240Y46629D01*
X441599Y41270D01*
X444499Y34269D01*
X444499Y26691D01*
X441599Y19690D01*
X436240Y14331D01*
X429239Y11431D01*
X421661Y11431D01*
G37*
%LPD*%
%LPC*%
G36*
X307361Y11431D02*
X307361Y11431D01*
X300360Y14331D01*
X295001Y19690D01*
X292101Y26691D01*
X292101Y34269D01*
X295001Y41270D01*
X300360Y46629D01*
X307361Y49529D01*
X314939Y49529D01*
X321940Y46629D01*
X327299Y41270D01*
X330199Y34269D01*
X330199Y26691D01*
X327299Y19690D01*
X321940Y14331D01*
X314939Y11431D01*
X307361Y11431D01*
G37*
%LPD*%
G36*
X154363Y112658D02*
X154363Y112658D01*
X154421Y112656D01*
X154503Y112678D01*
X154587Y112690D01*
X154640Y112714D01*
X154696Y112728D01*
X154769Y112771D01*
X154846Y112806D01*
X154891Y112844D01*
X154941Y112874D01*
X154999Y112935D01*
X155063Y112990D01*
X155095Y113038D01*
X155135Y113081D01*
X155174Y113156D01*
X155221Y113226D01*
X155238Y113282D01*
X155265Y113334D01*
X155276Y113402D01*
X155306Y113497D01*
X155309Y113597D01*
X155320Y113665D01*
X155320Y125095D01*
X155312Y125153D01*
X155314Y125211D01*
X155292Y125293D01*
X155280Y125377D01*
X155257Y125430D01*
X155242Y125486D01*
X155199Y125559D01*
X155164Y125636D01*
X155126Y125681D01*
X155097Y125731D01*
X155035Y125789D01*
X154981Y125853D01*
X154932Y125885D01*
X154889Y125925D01*
X154814Y125964D01*
X154744Y126011D01*
X154688Y126028D01*
X154636Y126055D01*
X154568Y126066D01*
X154473Y126096D01*
X154373Y126099D01*
X154305Y126110D01*
X99695Y126110D01*
X99637Y126102D01*
X99579Y126104D01*
X99497Y126082D01*
X99414Y126070D01*
X99360Y126047D01*
X99304Y126032D01*
X99231Y125989D01*
X99154Y125954D01*
X99109Y125916D01*
X99059Y125887D01*
X99001Y125825D01*
X98937Y125771D01*
X98905Y125722D01*
X98865Y125679D01*
X98826Y125604D01*
X98780Y125534D01*
X98762Y125478D01*
X98735Y125426D01*
X98724Y125358D01*
X98694Y125263D01*
X98691Y125163D01*
X98680Y125095D01*
X98680Y113665D01*
X98688Y113607D01*
X98686Y113549D01*
X98708Y113467D01*
X98720Y113384D01*
X98744Y113330D01*
X98758Y113274D01*
X98801Y113201D01*
X98836Y113124D01*
X98874Y113079D01*
X98904Y113029D01*
X98965Y112971D01*
X99020Y112907D01*
X99068Y112875D01*
X99111Y112835D01*
X99186Y112796D01*
X99256Y112750D01*
X99312Y112732D01*
X99364Y112705D01*
X99432Y112694D01*
X99527Y112664D01*
X99627Y112661D01*
X99695Y112650D01*
X154305Y112650D01*
X154363Y112658D01*
G37*
%LPC*%
G36*
X261652Y89026D02*
X261652Y89026D01*
X259365Y89974D01*
X257614Y91725D01*
X256666Y94012D01*
X256666Y95200D01*
X256654Y95298D01*
X256651Y95397D01*
X256634Y95455D01*
X256626Y95515D01*
X256590Y95607D01*
X256562Y95702D01*
X256532Y95754D01*
X256509Y95811D01*
X256451Y95891D01*
X256401Y95976D01*
X256335Y96052D01*
X256323Y96068D01*
X256313Y96076D01*
X256295Y96097D01*
X240390Y112002D01*
X240367Y112020D01*
X240348Y112042D01*
X240242Y112117D01*
X240139Y112197D01*
X240112Y112208D01*
X240088Y112225D01*
X239966Y112271D01*
X239847Y112323D01*
X239818Y112327D01*
X239790Y112338D01*
X239661Y112352D01*
X239533Y112373D01*
X239503Y112370D01*
X239474Y112373D01*
X239346Y112355D01*
X239216Y112343D01*
X239188Y112333D01*
X239159Y112329D01*
X239007Y112277D01*
X238677Y112140D01*
X236303Y112140D01*
X234108Y113049D01*
X232429Y114728D01*
X231520Y116923D01*
X231520Y119297D01*
X232429Y121492D01*
X234108Y123171D01*
X236303Y124080D01*
X238677Y124080D01*
X240872Y123171D01*
X242551Y121492D01*
X242563Y121462D01*
X242568Y121454D01*
X242570Y121445D01*
X242647Y121316D01*
X242721Y121186D01*
X242727Y121179D01*
X242732Y121171D01*
X242838Y121050D01*
X262043Y101845D01*
X262121Y101785D01*
X262193Y101717D01*
X262246Y101688D01*
X262294Y101651D01*
X262385Y101611D01*
X262472Y101563D01*
X262530Y101548D01*
X262586Y101524D01*
X262684Y101509D01*
X262780Y101484D01*
X262880Y101478D01*
X262900Y101474D01*
X262912Y101476D01*
X262940Y101474D01*
X264128Y101474D01*
X266415Y100526D01*
X268166Y98775D01*
X269114Y96488D01*
X269114Y94012D01*
X268166Y91725D01*
X266415Y89974D01*
X264128Y89026D01*
X261652Y89026D01*
G37*
%LPD*%
%LPC*%
G36*
X15239Y193039D02*
X15239Y193039D01*
X15239Y202185D01*
X15496Y202145D01*
X17283Y201564D01*
X18957Y200711D01*
X20478Y199606D01*
X21806Y198278D01*
X22911Y196757D01*
X23764Y195083D01*
X24345Y193296D01*
X24385Y193039D01*
X15239Y193039D01*
G37*
%LPD*%
%LPC*%
G36*
X357250Y59435D02*
X357250Y59435D01*
X357250Y64469D01*
X357423Y65116D01*
X357758Y65695D01*
X358231Y66168D01*
X358810Y66503D01*
X359456Y66676D01*
X361443Y66676D01*
X361443Y59435D01*
X357250Y59435D01*
G37*
%LPD*%
%LPC*%
G36*
X359456Y48894D02*
X359456Y48894D01*
X358810Y49067D01*
X358231Y49402D01*
X357758Y49875D01*
X357423Y50454D01*
X357250Y51100D01*
X357250Y56135D01*
X361443Y56135D01*
X361443Y48894D01*
X359456Y48894D01*
G37*
%LPD*%
%LPC*%
G36*
X375157Y217550D02*
X375157Y217550D01*
X375157Y224791D01*
X377143Y224791D01*
X377790Y224618D01*
X378369Y224283D01*
X378842Y223810D01*
X379177Y223231D01*
X379350Y222584D01*
X379350Y217550D01*
X375157Y217550D01*
G37*
%LPD*%
G36*
X280689Y125108D02*
X280689Y125108D01*
X280711Y125111D01*
X280718Y125127D01*
X280727Y125133D01*
X280726Y125143D01*
X280733Y125159D01*
X280733Y133985D01*
X280721Y134004D01*
X280717Y134026D01*
X280702Y134033D01*
X280696Y134042D01*
X280686Y134041D01*
X280670Y134048D01*
X278130Y134048D01*
X278111Y134036D01*
X278089Y134032D01*
X278082Y134017D01*
X278073Y134011D01*
X278074Y134001D01*
X278067Y133985D01*
X278067Y125159D01*
X278079Y125140D01*
X278083Y125117D01*
X278098Y125110D01*
X278104Y125101D01*
X278114Y125103D01*
X278130Y125096D01*
X280670Y125096D01*
X280689Y125108D01*
G37*
D10*
X441994Y99568D02*
X451993Y94568D01*
X441994Y89569D01*
X441994Y83196D02*
X436994Y78197D01*
X451993Y78197D01*
X451993Y83196D02*
X451993Y73197D01*
X439494Y66825D02*
X436994Y64325D01*
X436994Y59325D01*
X439494Y56826D01*
X441994Y56826D01*
X444494Y59325D01*
X444494Y61825D01*
X444494Y59325D02*
X446993Y56826D01*
X449493Y56826D01*
X451993Y59325D01*
X451993Y64325D01*
X449493Y66825D01*
D11*
X323850Y158750D03*
X336550Y184150D03*
X349250Y158750D03*
X374650Y158750D03*
X400050Y158750D03*
X361950Y184150D03*
X387350Y184150D03*
D12*
X412750Y184150D03*
D13*
X363093Y57785D03*
X373507Y57785D03*
D14*
X12700Y63500D03*
X406400Y266700D03*
D11*
X412750Y119380D03*
X400050Y93980D03*
X387350Y119380D03*
X361950Y119380D03*
X336550Y119380D03*
X374650Y93980D03*
X349250Y93980D03*
D12*
X323850Y93980D03*
D11*
X12700Y190500D03*
X12700Y165100D03*
X12700Y139700D03*
X12700Y114300D03*
X241300Y254000D03*
X215900Y254000D03*
D13*
X373507Y215900D03*
X363093Y215900D03*
D11*
X12700Y88900D03*
D15*
X279400Y132207D03*
X279400Y121793D03*
D16*
X193040Y127508D03*
X193040Y119380D03*
X193040Y111252D03*
D17*
X240030Y118110D02*
X262890Y95250D01*
D14*
X262890Y95250D03*
D17*
X240030Y118110D02*
X237490Y118110D01*
D18*
X237490Y118110D03*
D17*
X25400Y139700D02*
X12700Y139700D01*
X25400Y139700D02*
X38100Y152400D01*
X38100Y203200D01*
X50800Y215900D01*
D18*
X50800Y215900D03*
X226695Y205105D03*
D17*
X203200Y228600D01*
X119380Y228600D01*
D18*
X119380Y228600D03*
D17*
X50800Y86360D02*
X67310Y69850D01*
X109855Y59690D02*
X152400Y59690D01*
X109855Y59690D02*
X99695Y69850D01*
D18*
X152400Y59690D03*
D17*
X99695Y69850D02*
X67310Y69850D01*
D18*
X50800Y203200D03*
D17*
X50800Y114300D01*
X50800Y86360D01*
X50800Y114300D02*
X12700Y114300D01*
D18*
X259080Y45085D03*
X164465Y65405D03*
X181610Y64770D03*
X90170Y59690D03*
X297180Y187960D03*
X306705Y59055D03*
X424815Y73660D03*
X274955Y242570D03*
X237490Y102870D03*
X200660Y259080D03*
D14*
X73660Y245110D03*
X81280Y252730D03*
D18*
X25400Y208280D03*
X196850Y234950D03*
X62230Y116840D03*
X59690Y92710D03*
X27940Y100965D03*
X50800Y62230D03*
X62230Y133350D03*
X62230Y142240D03*
X67310Y158750D03*
X67310Y167640D03*
X59690Y162560D03*
X106680Y142240D03*
X107950Y134620D03*
X146050Y133350D03*
X147320Y140970D03*
X182245Y177800D03*
X152400Y174625D03*
X187325Y171450D03*
X186055Y163195D03*
X126365Y92710D03*
X133985Y90170D03*
X44450Y73025D03*
X78740Y83185D03*
X107315Y93980D03*
X142875Y105410D03*
X173990Y102235D03*
X200660Y91440D03*
X200660Y77470D03*
X168910Y178435D03*
X83820Y179070D03*
D19*
X182245Y23495D03*
D17*
X133985Y23495D01*
D19*
X133985Y23495D03*
D17*
X381635Y136525D02*
X397510Y136525D01*
X426720Y165735D01*
X426720Y194310D02*
X422275Y198755D01*
X384713Y198755D01*
X426720Y194310D02*
X426720Y165735D01*
X364490Y119380D02*
X361950Y119380D01*
X364490Y119380D02*
X381635Y136525D01*
X374523Y188565D02*
X374650Y188692D01*
D20*
X361950Y119380D02*
X361950Y83947D01*
D21*
X354203Y76200D01*
X292100Y76200D01*
X208280Y96012D02*
X193040Y111252D01*
X279400Y121793D02*
X279400Y76200D01*
D17*
X288798Y121793D02*
X292100Y125095D01*
X288798Y121793D02*
X279400Y121793D01*
X292100Y125095D02*
X292100Y152400D01*
D18*
X292100Y152400D03*
D17*
X374650Y158750D02*
X374650Y188692D01*
X384713Y198755D01*
D19*
X292100Y76200D03*
D21*
X254000Y76200D02*
X234188Y96012D01*
X254000Y76200D02*
X279400Y76200D01*
X234188Y96012D02*
X208280Y96012D01*
X279400Y76200D02*
X292100Y76200D01*
D17*
X52070Y49530D02*
X12700Y88900D01*
X52070Y49530D02*
X181483Y49530D01*
X207518Y75565D02*
X207518Y86360D01*
X207518Y75565D02*
X181483Y49530D01*
D18*
X207518Y86360D03*
X307314Y138398D03*
D17*
X307314Y142214D01*
X323850Y158750D01*
X327868Y128062D02*
X336550Y119380D01*
X327868Y128062D02*
X327868Y131345D01*
X330278Y133755D01*
X372286Y133755D01*
X389513Y150982D01*
X392282Y150982D01*
X400050Y158750D01*
X323850Y132715D02*
X323850Y93980D01*
X323850Y132715D02*
X328700Y137565D01*
X370708Y137565D01*
X387858Y154716D01*
X387858Y163800D01*
X408208Y184150D01*
X412750Y184150D01*
X374523Y123795D02*
X374523Y94107D01*
X374650Y93980D01*
X399088Y132715D02*
X430530Y164157D01*
X399088Y132715D02*
X383443Y132715D01*
X430530Y164157D02*
X430530Y195888D01*
X383443Y132715D02*
X374523Y123795D01*
X375793Y203073D02*
X423345Y203073D01*
X430530Y195888D01*
D22*
X374523Y94107D02*
X374523Y70231D01*
X373507Y69215D01*
X373507Y57785D01*
D17*
X361950Y189230D02*
X375793Y203073D01*
X361950Y189230D02*
X361950Y184150D01*
D20*
X349250Y201930D02*
X349250Y158750D01*
D18*
X349250Y201930D03*
D20*
X349250Y209550D01*
X355600Y215900D01*
X363093Y215900D01*
D17*
X193040Y119380D02*
X189230Y119380D01*
D18*
X189230Y119380D03*
X196850Y119380D03*
X148590Y121285D03*
X104775Y121285D03*
X52705Y25400D03*
X127000Y38100D03*
D17*
X65405Y38100D02*
X52705Y25400D01*
X65405Y38100D02*
X127000Y38100D01*
D23*
X221375Y67070D02*
X244235Y67070D01*
D18*
X244235Y67070D03*
D23*
X182245Y38100D02*
X127000Y38100D01*
X182245Y38100D02*
X192405Y38100D01*
X221375Y67070D01*
D24*
X247777Y132207D02*
X279400Y132207D01*
D17*
X247777Y132207D02*
X247650Y132080D01*
D18*
X247650Y132080D03*
D19*
X182245Y38100D03*
D21*
X241300Y203200D02*
X241300Y254000D01*
X215900Y127508D02*
X193040Y127508D01*
X215900Y177800D02*
X241300Y203200D01*
X215900Y177800D02*
X215900Y127508D01*
M02*
