G04 EAGLE Gerber RS-274X export*
G75*
%MOMM*%
%FSLAX34Y34*%
%LPD*%
%INSilkscreen Top*%
%IPPOS*%
%AMOC8*
5,1,8,0,0,1.08239X$1,22.5*%
G01*
%ADD10C,0.203200*%
%ADD11C,0.127000*%

G36*
X53045Y205530D02*
X53045Y205530D01*
X53129Y205533D01*
X53130Y205533D01*
X53131Y205533D01*
X53209Y205576D01*
X53282Y205615D01*
X53282Y205616D01*
X53283Y205616D01*
X53287Y205622D01*
X53370Y205730D01*
X53443Y205875D01*
X53799Y206231D01*
X53806Y206242D01*
X53819Y206253D01*
X54419Y206953D01*
X54423Y206960D01*
X54430Y206967D01*
X55122Y207856D01*
X56013Y208846D01*
X56016Y208851D01*
X56022Y208857D01*
X57017Y210050D01*
X58110Y211243D01*
X59309Y212541D01*
X60609Y213941D01*
X60613Y213948D01*
X60620Y213954D01*
X61710Y215242D01*
X62792Y216324D01*
X63767Y217202D01*
X64719Y217868D01*
X65760Y218341D01*
X66781Y218620D01*
X70630Y218620D01*
X70650Y218625D01*
X70677Y218623D01*
X73077Y218923D01*
X73099Y218931D01*
X73130Y218933D01*
X75330Y219533D01*
X75353Y219545D01*
X75386Y219553D01*
X77386Y220453D01*
X77405Y220467D01*
X77433Y220479D01*
X79333Y221679D01*
X79344Y221689D01*
X79361Y221698D01*
X81061Y222998D01*
X81078Y223019D01*
X81107Y223040D01*
X82607Y224640D01*
X82615Y224654D01*
X82630Y224667D01*
X84030Y226467D01*
X84043Y226494D01*
X84068Y226526D01*
X85968Y230226D01*
X85976Y230257D01*
X85996Y230298D01*
X86996Y233898D01*
X86998Y233932D01*
X87010Y233978D01*
X87210Y237478D01*
X87204Y237510D01*
X87206Y237557D01*
X86706Y240857D01*
X86695Y240886D01*
X86688Y240928D01*
X85688Y243728D01*
X85674Y243749D01*
X85664Y243781D01*
X84364Y246181D01*
X84338Y246210D01*
X84299Y246269D01*
X82599Y247969D01*
X82569Y247987D01*
X82532Y248022D01*
X80932Y249022D01*
X80866Y249045D01*
X80802Y249073D01*
X80785Y249073D01*
X80768Y249078D01*
X80699Y249069D01*
X80629Y249067D01*
X80614Y249058D01*
X80596Y249056D01*
X80538Y249017D01*
X80477Y248984D01*
X80467Y248969D01*
X80452Y248959D01*
X80417Y248899D01*
X80377Y248842D01*
X80374Y248823D01*
X80366Y248809D01*
X80363Y248770D01*
X80350Y248700D01*
X80350Y248100D01*
X80357Y248070D01*
X80357Y248025D01*
X80443Y247594D01*
X80267Y246534D01*
X80028Y246136D01*
X79613Y245721D01*
X79052Y245480D01*
X78483Y245480D01*
X77168Y245856D01*
X76427Y246227D01*
X75065Y247200D01*
X74388Y247779D01*
X73929Y248238D01*
X73452Y249002D01*
X73449Y249005D01*
X73446Y249011D01*
X73079Y249562D01*
X72902Y250184D01*
X72815Y250700D01*
X72898Y251197D01*
X73077Y251644D01*
X73352Y252194D01*
X73706Y252636D01*
X74444Y253282D01*
X74822Y253471D01*
X75163Y253641D01*
X75897Y253825D01*
X76751Y253920D01*
X77983Y253920D01*
X78338Y253831D01*
X78374Y253831D01*
X78430Y253820D01*
X78530Y253820D01*
X78591Y253834D01*
X78654Y253840D01*
X78675Y253854D01*
X78699Y253859D01*
X78747Y253899D01*
X78800Y253933D01*
X78813Y253954D01*
X78832Y253969D01*
X78858Y254027D01*
X78891Y254080D01*
X78893Y254105D01*
X78903Y254128D01*
X78901Y254190D01*
X78907Y254253D01*
X78898Y254276D01*
X78897Y254301D01*
X78867Y254356D01*
X78844Y254415D01*
X78824Y254434D01*
X78814Y254453D01*
X78783Y254474D01*
X78741Y254516D01*
X78447Y254713D01*
X77751Y255209D01*
X77736Y255215D01*
X77722Y255228D01*
X76522Y255928D01*
X76498Y255936D01*
X76471Y255953D01*
X74971Y256553D01*
X74953Y256556D01*
X74932Y256566D01*
X73132Y257066D01*
X73098Y257068D01*
X73049Y257080D01*
X71049Y257180D01*
X71011Y257173D01*
X70946Y257171D01*
X68746Y256671D01*
X68712Y256654D01*
X68654Y256637D01*
X66354Y255437D01*
X66329Y255416D01*
X66288Y255394D01*
X64588Y253994D01*
X64565Y253963D01*
X64517Y253915D01*
X63417Y252315D01*
X63403Y252280D01*
X63371Y252227D01*
X62771Y250527D01*
X62768Y250492D01*
X62766Y250481D01*
X62757Y250462D01*
X62758Y250440D01*
X62750Y250400D01*
X62750Y248700D01*
X62759Y248662D01*
X62765Y248593D01*
X63265Y246893D01*
X63279Y246868D01*
X63290Y246830D01*
X64190Y245030D01*
X64209Y245007D01*
X64228Y244969D01*
X65528Y243269D01*
X65545Y243255D01*
X65561Y243231D01*
X67252Y241541D01*
X68508Y240091D01*
X69150Y238716D01*
X69150Y237457D01*
X68791Y236292D01*
X67979Y235390D01*
X66869Y234649D01*
X65577Y234280D01*
X64081Y234280D01*
X63041Y234564D01*
X62221Y234837D01*
X61588Y235379D01*
X61043Y235925D01*
X60786Y236438D01*
X60610Y237053D01*
X60610Y237638D01*
X60771Y238121D01*
X61018Y238450D01*
X61384Y238816D01*
X61863Y239199D01*
X62218Y239466D01*
X62671Y239647D01*
X62683Y239655D01*
X62700Y239660D01*
X62944Y239782D01*
X63300Y239960D01*
X63329Y239984D01*
X63399Y240031D01*
X63499Y240131D01*
X63512Y240153D01*
X63532Y240169D01*
X63558Y240226D01*
X63590Y240278D01*
X63593Y240304D01*
X63603Y240328D01*
X63601Y240389D01*
X63607Y240451D01*
X63598Y240475D01*
X63597Y240501D01*
X63567Y240555D01*
X63545Y240613D01*
X63526Y240630D01*
X63514Y240653D01*
X63464Y240688D01*
X63418Y240730D01*
X63393Y240738D01*
X63372Y240753D01*
X63288Y240769D01*
X63252Y240780D01*
X63242Y240778D01*
X63230Y240780D01*
X63192Y240780D01*
X62961Y240857D01*
X62471Y241053D01*
X62436Y241058D01*
X62384Y241076D01*
X61684Y241176D01*
X61660Y241174D01*
X61630Y241180D01*
X59830Y241180D01*
X59800Y241173D01*
X59755Y241173D01*
X58755Y240973D01*
X58745Y240968D01*
X58730Y240967D01*
X57630Y240667D01*
X57613Y240658D01*
X57589Y240653D01*
X56589Y240253D01*
X56562Y240234D01*
X56519Y240216D01*
X55619Y239616D01*
X55598Y239594D01*
X55561Y239569D01*
X54761Y238769D01*
X54750Y238751D01*
X54730Y238733D01*
X54030Y237833D01*
X54019Y237809D01*
X53996Y237782D01*
X53396Y236682D01*
X53387Y236649D01*
X53364Y236604D01*
X52964Y235204D01*
X52963Y235179D01*
X52953Y235147D01*
X52753Y233547D01*
X52754Y233535D01*
X52750Y233520D01*
X52650Y231620D01*
X52652Y231611D01*
X52650Y231600D01*
X52650Y205900D01*
X52670Y205815D01*
X52689Y205733D01*
X52689Y205732D01*
X52689Y205731D01*
X52746Y205663D01*
X52798Y205599D01*
X52799Y205598D01*
X52877Y205563D01*
X52956Y205527D01*
X52957Y205527D01*
X52958Y205527D01*
X53045Y205530D01*
G37*
G36*
X55292Y132755D02*
X55292Y132755D01*
X55301Y132752D01*
X55991Y132851D01*
X56680Y132851D01*
X56707Y132861D01*
X56727Y132858D01*
X57324Y133057D01*
X58021Y133257D01*
X58034Y133267D01*
X58047Y133267D01*
X58647Y133567D01*
X58654Y133575D01*
X58663Y133576D01*
X59263Y133976D01*
X59267Y133982D01*
X59269Y133983D01*
X59273Y133983D01*
X60273Y134783D01*
X60278Y134792D01*
X60286Y134794D01*
X60786Y135294D01*
X60793Y135311D01*
X60804Y135317D01*
X61204Y135917D01*
X61207Y135928D01*
X61214Y135933D01*
X61814Y137133D01*
X61815Y137146D01*
X61822Y137153D01*
X62022Y137753D01*
X62021Y137757D01*
X62024Y137759D01*
X62224Y138459D01*
X62221Y138484D01*
X62229Y138500D01*
X62229Y139188D01*
X62327Y139775D01*
X62322Y139803D01*
X62328Y139821D01*
X62128Y141221D01*
X62120Y141235D01*
X62122Y141247D01*
X61923Y141844D01*
X61724Y142541D01*
X61713Y142554D01*
X61714Y142567D01*
X61414Y143167D01*
X61399Y143180D01*
X61397Y143193D01*
X61001Y143688D01*
X60604Y144283D01*
X60590Y144293D01*
X60586Y144306D01*
X60086Y144806D01*
X60076Y144810D01*
X60073Y144817D01*
X59573Y145217D01*
X59566Y145219D01*
X59563Y145224D01*
X58963Y145624D01*
X58952Y145627D01*
X58947Y145634D01*
X57747Y146234D01*
X57734Y146235D01*
X57727Y146242D01*
X57127Y146442D01*
X57111Y146441D01*
X57101Y146448D01*
X55701Y146648D01*
X55689Y146645D01*
X55680Y146649D01*
X24580Y146649D01*
X24548Y146637D01*
X24532Y146635D01*
X24521Y146644D01*
X24496Y146641D01*
X24480Y146649D01*
X23980Y146649D01*
X23966Y146644D01*
X23955Y146647D01*
X23355Y146547D01*
X23347Y146542D01*
X23339Y146544D01*
X22639Y146344D01*
X22636Y146341D01*
X22633Y146342D01*
X22033Y146142D01*
X22027Y146137D01*
X22021Y146137D01*
X21321Y145837D01*
X21312Y145829D01*
X21303Y145828D01*
X20803Y145528D01*
X20801Y145525D01*
X20797Y145524D01*
X20197Y145124D01*
X20187Y145110D01*
X20174Y145106D01*
X19174Y144106D01*
X19170Y144096D01*
X19163Y144093D01*
X18763Y143593D01*
X18758Y143575D01*
X18747Y143567D01*
X18147Y142367D01*
X18145Y142350D01*
X18137Y142341D01*
X17937Y141644D01*
X17738Y141047D01*
X17739Y141031D01*
X17732Y141021D01*
X17632Y140321D01*
X17635Y140309D01*
X17631Y140300D01*
X17631Y139000D01*
X17640Y138976D01*
X17637Y138959D01*
X17834Y138269D01*
X17932Y137579D01*
X17947Y137553D01*
X17947Y137533D01*
X18847Y135733D01*
X18861Y135720D01*
X18863Y135707D01*
X19263Y135207D01*
X19271Y135202D01*
X19272Y135199D01*
X19273Y135199D01*
X19274Y135194D01*
X20274Y134194D01*
X20301Y134183D01*
X20313Y134167D01*
X20905Y133871D01*
X21497Y133476D01*
X21521Y133471D01*
X21533Y133458D01*
X22733Y133058D01*
X22737Y133059D01*
X22739Y133057D01*
X23439Y132857D01*
X23451Y132858D01*
X23459Y132852D01*
X24159Y132752D01*
X24171Y132755D01*
X24180Y132751D01*
X55280Y132751D01*
X55292Y132755D01*
G37*
G36*
X53092Y107355D02*
X53092Y107355D01*
X53101Y107352D01*
X53801Y107452D01*
X53815Y107460D01*
X53827Y107458D01*
X54424Y107657D01*
X55121Y107857D01*
X55134Y107867D01*
X55147Y107867D01*
X56347Y108467D01*
X56360Y108481D01*
X56373Y108483D01*
X56873Y108883D01*
X56878Y108892D01*
X56886Y108894D01*
X57886Y109894D01*
X57890Y109904D01*
X57897Y109907D01*
X58297Y110407D01*
X58302Y110425D01*
X58314Y110433D01*
X58914Y111633D01*
X58915Y111646D01*
X58922Y111653D01*
X59122Y112253D01*
X59121Y112257D01*
X59124Y112259D01*
X59324Y112959D01*
X59322Y112971D01*
X59328Y112979D01*
X59428Y113679D01*
X59425Y113691D01*
X59429Y113700D01*
X59429Y115000D01*
X59425Y115012D01*
X59428Y115021D01*
X59328Y115721D01*
X59320Y115735D01*
X59322Y115747D01*
X59123Y116344D01*
X58924Y117041D01*
X58913Y117054D01*
X58914Y117067D01*
X58614Y117667D01*
X58605Y117674D01*
X58604Y117683D01*
X58204Y118283D01*
X58198Y118287D01*
X58197Y118293D01*
X57797Y118793D01*
X57788Y118798D01*
X57786Y118806D01*
X57286Y119306D01*
X57276Y119310D01*
X57273Y119317D01*
X56273Y120117D01*
X56266Y120119D01*
X56263Y120124D01*
X55663Y120524D01*
X55639Y120529D01*
X55627Y120542D01*
X55027Y120742D01*
X55023Y120741D01*
X55021Y120744D01*
X54324Y120943D01*
X53727Y121142D01*
X53711Y121141D01*
X53701Y121148D01*
X53001Y121248D01*
X52989Y121245D01*
X52980Y121249D01*
X24580Y121249D01*
X24551Y121238D01*
X24530Y121237D01*
X24523Y121243D01*
X24497Y121241D01*
X24480Y121249D01*
X24180Y121249D01*
X24168Y121245D01*
X24159Y121248D01*
X23459Y121148D01*
X23448Y121142D01*
X23439Y121144D01*
X22739Y120944D01*
X22736Y120941D01*
X22733Y120942D01*
X21533Y120542D01*
X21514Y120526D01*
X21497Y120524D01*
X20905Y120129D01*
X20313Y119834D01*
X20294Y119812D01*
X20274Y119806D01*
X19274Y118806D01*
X19270Y118796D01*
X19263Y118793D01*
X18863Y118293D01*
X18858Y118275D01*
X18847Y118267D01*
X17947Y116467D01*
X17944Y116438D01*
X17932Y116421D01*
X17834Y115734D01*
X17638Y115147D01*
X17639Y115134D01*
X17635Y115126D01*
X17638Y115115D01*
X17631Y115100D01*
X17631Y113700D01*
X17635Y113688D01*
X17632Y113679D01*
X17732Y112979D01*
X17740Y112965D01*
X17738Y112953D01*
X17938Y112355D01*
X18137Y111659D01*
X18147Y111646D01*
X18147Y111633D01*
X18447Y111033D01*
X18452Y111029D01*
X18452Y111023D01*
X18752Y110523D01*
X18755Y110521D01*
X18756Y110517D01*
X19156Y109917D01*
X19170Y109907D01*
X19174Y109894D01*
X19674Y109394D01*
X19684Y109390D01*
X19687Y109383D01*
X20687Y108583D01*
X20694Y108581D01*
X20697Y108576D01*
X21297Y108176D01*
X21308Y108173D01*
X21313Y108167D01*
X21913Y107867D01*
X21930Y107865D01*
X21939Y107857D01*
X22636Y107657D01*
X23233Y107458D01*
X23262Y107460D01*
X23280Y107451D01*
X23969Y107451D01*
X24659Y107352D01*
X24671Y107355D01*
X24680Y107351D01*
X53080Y107351D01*
X53092Y107355D01*
G37*
G36*
X59024Y183568D02*
X59024Y183568D01*
X59069Y183580D01*
X59072Y183586D01*
X59080Y183589D01*
X59129Y183685D01*
X59126Y183694D01*
X59129Y183700D01*
X59129Y197200D01*
X59117Y197233D01*
X59113Y197268D01*
X59099Y197278D01*
X59091Y197300D01*
X59021Y197335D01*
X59005Y197347D01*
X58405Y197447D01*
X58390Y197444D01*
X58380Y197449D01*
X24580Y197449D01*
X24545Y197436D01*
X24530Y197434D01*
X24511Y197446D01*
X24492Y197443D01*
X24480Y197449D01*
X21180Y197449D01*
X21136Y197432D01*
X21091Y197420D01*
X21088Y197414D01*
X21080Y197411D01*
X21031Y197315D01*
X21034Y197306D01*
X21031Y197300D01*
X21031Y183800D01*
X21043Y183767D01*
X21047Y183732D01*
X21061Y183722D01*
X21069Y183700D01*
X21139Y183665D01*
X21155Y183653D01*
X21755Y183553D01*
X21770Y183556D01*
X21780Y183551D01*
X58980Y183551D01*
X59024Y183568D01*
G37*
G36*
X58213Y158163D02*
X58213Y158163D01*
X58248Y158167D01*
X58258Y158181D01*
X58280Y158189D01*
X58315Y158259D01*
X58327Y158275D01*
X58427Y158875D01*
X58426Y158879D01*
X58428Y158882D01*
X58425Y158892D01*
X58429Y158900D01*
X58429Y171800D01*
X58417Y171833D01*
X58413Y171868D01*
X58399Y171878D01*
X58391Y171900D01*
X58321Y171935D01*
X58305Y171947D01*
X57705Y172047D01*
X57690Y172044D01*
X57680Y172049D01*
X24580Y172049D01*
X24550Y172038D01*
X24530Y172037D01*
X24522Y172043D01*
X24496Y172041D01*
X24480Y172049D01*
X21380Y172049D01*
X21362Y172042D01*
X21342Y172044D01*
X21323Y172027D01*
X21280Y172011D01*
X21261Y171972D01*
X21241Y171955D01*
X21041Y171455D01*
X21041Y171420D01*
X21031Y171400D01*
X21031Y158500D01*
X21038Y158482D01*
X21036Y158462D01*
X21053Y158443D01*
X21069Y158400D01*
X21108Y158381D01*
X21125Y158361D01*
X21625Y158161D01*
X21660Y158161D01*
X21680Y158151D01*
X58180Y158151D01*
X58213Y158163D01*
G37*
G36*
X259940Y57924D02*
X259940Y57924D01*
X259943Y57921D01*
X260539Y58021D01*
X261235Y58021D01*
X261243Y58027D01*
X261249Y58023D01*
X261949Y58223D01*
X261950Y58224D01*
X261951Y58223D01*
X262551Y58423D01*
X262554Y58428D01*
X262557Y58426D01*
X263157Y58726D01*
X263159Y58730D01*
X263162Y58729D01*
X263762Y59129D01*
X263763Y59132D01*
X263766Y59132D01*
X264766Y59932D01*
X264767Y59936D01*
X264770Y59935D01*
X265270Y60435D01*
X265271Y60442D01*
X265276Y60443D01*
X265676Y61043D01*
X265676Y61045D01*
X265677Y61045D01*
X265977Y61545D01*
X265977Y61550D01*
X265980Y61551D01*
X266280Y62251D01*
X266280Y62254D01*
X266282Y62254D01*
X266682Y63454D01*
X266680Y63461D01*
X266684Y63463D01*
X266784Y64163D01*
X266781Y64168D01*
X266784Y64170D01*
X266784Y65570D01*
X266781Y65575D01*
X266784Y65578D01*
X266684Y66178D01*
X266680Y66181D01*
X266682Y66184D01*
X266482Y66884D01*
X266481Y66885D01*
X266482Y66886D01*
X266282Y67486D01*
X266274Y67491D01*
X266276Y67497D01*
X265878Y68095D01*
X265579Y68692D01*
X265572Y68695D01*
X265573Y68701D01*
X265173Y69201D01*
X265169Y69202D01*
X265170Y69205D01*
X264170Y70205D01*
X264158Y70206D01*
X264157Y70214D01*
X263560Y70513D01*
X262962Y70911D01*
X262953Y70910D01*
X262951Y70917D01*
X262354Y71116D01*
X261757Y71414D01*
X261746Y71412D01*
X261742Y71419D01*
X260342Y71619D01*
X260337Y71616D01*
X260335Y71619D01*
X235535Y71619D01*
X235531Y71616D01*
X235528Y71619D01*
X234828Y71519D01*
X234823Y71514D01*
X234819Y71517D01*
X234220Y71317D01*
X233521Y71117D01*
X233517Y71112D01*
X233513Y71114D01*
X232313Y70514D01*
X232310Y70507D01*
X232304Y70508D01*
X231304Y69708D01*
X231303Y69704D01*
X231300Y69705D01*
X230800Y69205D01*
X230799Y69198D01*
X230794Y69197D01*
X229994Y67997D01*
X229994Y67993D01*
X229991Y67992D01*
X229691Y67392D01*
X229691Y67390D01*
X229691Y67389D01*
X229692Y67387D01*
X229688Y67386D01*
X229488Y66786D01*
X229489Y66784D01*
X229488Y66784D01*
X229288Y66084D01*
X229289Y66080D01*
X229286Y66078D01*
X229186Y65478D01*
X229189Y65473D01*
X229186Y65470D01*
X229186Y64070D01*
X229189Y64065D01*
X229186Y64062D01*
X229286Y63462D01*
X229290Y63459D01*
X229288Y63456D01*
X229488Y62756D01*
X229489Y62755D01*
X229488Y62754D01*
X229688Y62154D01*
X229693Y62151D01*
X229691Y62148D01*
X229991Y61548D01*
X229995Y61546D01*
X229994Y61543D01*
X230794Y60343D01*
X230801Y60340D01*
X230800Y60335D01*
X231300Y59835D01*
X231304Y59835D01*
X231304Y59832D01*
X232304Y59032D01*
X232312Y59031D01*
X232313Y59026D01*
X233513Y58426D01*
X233520Y58427D01*
X233521Y58423D01*
X234220Y58223D01*
X234819Y58023D01*
X234826Y58025D01*
X234828Y58021D01*
X235528Y57921D01*
X235533Y57924D01*
X235535Y57921D01*
X259935Y57921D01*
X259940Y57924D01*
G37*
G36*
X171320Y50103D02*
X171320Y50103D01*
X171342Y50106D01*
X171350Y50123D01*
X171359Y50128D01*
X171357Y50138D01*
X171364Y50153D01*
X171376Y50569D01*
X171376Y50570D01*
X171376Y53749D01*
X171370Y53758D01*
X171373Y53769D01*
X171353Y53785D01*
X171340Y53806D01*
X171329Y53804D01*
X171320Y53811D01*
X171277Y53797D01*
X171272Y53796D01*
X171272Y53795D01*
X171271Y53795D01*
X170954Y53497D01*
X170543Y53182D01*
X170078Y52960D01*
X169575Y52840D01*
X169058Y52806D01*
X168540Y52854D01*
X168035Y52972D01*
X167551Y53157D01*
X167102Y53414D01*
X166716Y53759D01*
X166391Y54163D01*
X166126Y54609D01*
X165919Y55085D01*
X165794Y55591D01*
X165721Y56109D01*
X165685Y56630D01*
X165725Y57151D01*
X165808Y57667D01*
X165940Y58171D01*
X166156Y58643D01*
X166438Y59078D01*
X166780Y59466D01*
X167180Y59793D01*
X167633Y60045D01*
X168126Y60204D01*
X168638Y60292D01*
X169157Y60325D01*
X169672Y60269D01*
X170167Y60120D01*
X170625Y59883D01*
X171030Y59554D01*
X171031Y59553D01*
X171032Y59552D01*
X171276Y59367D01*
X171284Y59367D01*
X171288Y59360D01*
X171316Y59364D01*
X171344Y59362D01*
X171347Y59369D01*
X171355Y59370D01*
X171376Y59417D01*
X171376Y60022D01*
X171387Y60248D01*
X173687Y60248D01*
X173683Y60002D01*
X173691Y59990D01*
X173711Y50344D01*
X173711Y50343D01*
X173711Y50341D01*
X173720Y50151D01*
X173732Y50134D01*
X173735Y50113D01*
X173753Y50105D01*
X173760Y50096D01*
X173769Y50098D01*
X173783Y50092D01*
X196361Y50094D01*
X196363Y50095D01*
X196367Y50094D01*
X197421Y50200D01*
X197424Y50202D01*
X197428Y50201D01*
X197943Y50313D01*
X197946Y50315D01*
X197950Y50314D01*
X198955Y50643D01*
X198959Y50647D01*
X198966Y50648D01*
X199897Y51153D01*
X199899Y51157D01*
X199906Y51159D01*
X200735Y51815D01*
X200736Y51818D01*
X200740Y51820D01*
X201117Y52188D01*
X201118Y52191D01*
X201122Y52193D01*
X201789Y53016D01*
X201789Y53021D01*
X201795Y53025D01*
X202301Y53956D01*
X202300Y53961D01*
X202304Y53965D01*
X202488Y54459D01*
X202487Y54461D01*
X202489Y54463D01*
X202646Y54968D01*
X202645Y54970D01*
X202647Y54972D01*
X202771Y55485D01*
X202769Y55489D01*
X202772Y55493D01*
X202879Y56547D01*
X202876Y56552D01*
X202879Y56559D01*
X202789Y57613D01*
X202788Y57615D01*
X202789Y57619D01*
X202698Y58138D01*
X202696Y58141D01*
X202696Y58146D01*
X202382Y59158D01*
X202378Y59161D01*
X202378Y59169D01*
X201877Y60102D01*
X201874Y60103D01*
X201873Y60108D01*
X201570Y60540D01*
X201568Y60541D01*
X201567Y60544D01*
X201230Y60953D01*
X201229Y60953D01*
X201228Y60955D01*
X201198Y60989D01*
X201141Y61051D01*
X201141Y61052D01*
X201084Y61114D01*
X201027Y61177D01*
X200914Y61302D01*
X200914Y61303D01*
X200874Y61346D01*
X200870Y61347D01*
X200867Y61353D01*
X200050Y62027D01*
X200045Y62027D01*
X200041Y62033D01*
X199116Y62548D01*
X199113Y62548D01*
X199109Y62551D01*
X198623Y62753D01*
X198620Y62753D01*
X198616Y62756D01*
X197602Y63057D01*
X197597Y63056D01*
X197591Y63059D01*
X196536Y63166D01*
X196347Y63185D01*
X196344Y63183D01*
X196341Y63185D01*
X169325Y63185D01*
X169323Y63183D01*
X169319Y63185D01*
X168265Y63080D01*
X168262Y63078D01*
X168259Y63079D01*
X167742Y62975D01*
X167740Y62973D01*
X167735Y62974D01*
X166727Y62651D01*
X166723Y62647D01*
X166716Y62647D01*
X165785Y62141D01*
X165783Y62138D01*
X165777Y62137D01*
X165353Y61823D01*
X165352Y61822D01*
X165350Y61821D01*
X164941Y61484D01*
X164941Y61482D01*
X164938Y61481D01*
X164556Y61118D01*
X164555Y61114D01*
X164551Y61112D01*
X163878Y60294D01*
X163878Y60289D01*
X163872Y60284D01*
X163366Y59353D01*
X163366Y59349D01*
X163363Y59345D01*
X163173Y58854D01*
X163173Y58852D01*
X163171Y58849D01*
X163014Y58344D01*
X163015Y58342D01*
X163013Y58341D01*
X162882Y57829D01*
X162884Y57825D01*
X162881Y57820D01*
X162774Y56766D01*
X162776Y56762D01*
X162774Y56756D01*
X162803Y56229D01*
X162804Y56228D01*
X162803Y56226D01*
X162856Y55699D01*
X162857Y55698D01*
X162857Y55696D01*
X162940Y55175D01*
X162943Y55172D01*
X162942Y55166D01*
X163256Y54154D01*
X163260Y54151D01*
X163261Y54144D01*
X163755Y53208D01*
X163758Y53206D01*
X163758Y53202D01*
X164055Y52766D01*
X164058Y52765D01*
X164059Y52760D01*
X164176Y52623D01*
X164230Y52560D01*
X164283Y52498D01*
X164444Y52309D01*
X164497Y52247D01*
X164551Y52184D01*
X164604Y52121D01*
X164746Y51955D01*
X164750Y51954D01*
X164753Y51948D01*
X165571Y51273D01*
X165575Y51273D01*
X165580Y51267D01*
X166501Y50747D01*
X166504Y50747D01*
X166507Y50744D01*
X166991Y50535D01*
X166994Y50535D01*
X166997Y50532D01*
X168010Y50223D01*
X168015Y50225D01*
X168022Y50221D01*
X169076Y50115D01*
X169078Y50116D01*
X169080Y50115D01*
X169608Y50092D01*
X169609Y50092D01*
X169611Y50092D01*
X171302Y50092D01*
X171320Y50103D01*
G37*
G36*
X47680Y81989D02*
X47680Y81989D01*
X47682Y81993D01*
X47686Y81994D01*
X48086Y82394D01*
X48098Y82422D01*
X48114Y82434D01*
X51114Y88534D01*
X51116Y88561D01*
X51127Y88575D01*
X51227Y89175D01*
X51213Y89245D01*
X51213Y89269D01*
X48113Y95269D01*
X48099Y95280D01*
X48097Y95293D01*
X47697Y95793D01*
X47604Y95847D01*
X47590Y95844D01*
X47580Y95849D01*
X24580Y95849D01*
X24562Y95842D01*
X24543Y95845D01*
X24531Y95836D01*
X24503Y95838D01*
X24480Y95849D01*
X21680Y95849D01*
X21653Y95839D01*
X21633Y95842D01*
X21033Y95642D01*
X20950Y95573D01*
X20949Y95568D01*
X20946Y95566D01*
X17946Y89466D01*
X17647Y88867D01*
X17646Y88866D01*
X17646Y88863D01*
X17644Y88839D01*
X17640Y88831D01*
X17642Y88822D01*
X17636Y88760D01*
X17647Y88745D01*
X17647Y88732D01*
X21047Y82132D01*
X21128Y82060D01*
X21145Y82060D01*
X21155Y82053D01*
X21755Y81953D01*
X21770Y81956D01*
X21780Y81951D01*
X47580Y81951D01*
X47680Y81989D01*
G37*
G36*
X74971Y75812D02*
X74971Y75812D01*
X74997Y75812D01*
X75597Y76112D01*
X75610Y76126D01*
X75627Y76133D01*
X75634Y76146D01*
X75647Y76152D01*
X76047Y76652D01*
X76056Y76682D01*
X76071Y76697D01*
X78471Y83797D01*
X78471Y83802D01*
X78474Y83804D01*
X78674Y84504D01*
X78664Y84611D01*
X78664Y84612D01*
X78464Y85012D01*
X78419Y85053D01*
X78404Y85075D01*
X77704Y85475D01*
X77683Y85478D01*
X77671Y85489D01*
X76971Y85689D01*
X76969Y85688D01*
X76968Y85689D01*
X76959Y85687D01*
X76864Y85679D01*
X76851Y85665D01*
X76837Y85662D01*
X76337Y85262D01*
X76309Y85214D01*
X76290Y85196D01*
X74701Y80827D01*
X74695Y80821D01*
X73472Y84492D01*
X73272Y85092D01*
X73248Y85120D01*
X73244Y85138D01*
X73227Y85147D01*
X73223Y85151D01*
X73213Y85169D01*
X72613Y85569D01*
X72512Y85592D01*
X72509Y85593D01*
X72508Y85593D01*
X71809Y85493D01*
X71777Y85475D01*
X71753Y85473D01*
X71253Y85173D01*
X71246Y85163D01*
X71237Y85160D01*
X71226Y85138D01*
X71212Y85120D01*
X71193Y85104D01*
X70893Y84404D01*
X70893Y84397D01*
X70889Y84393D01*
X69666Y80820D01*
X69660Y80826D01*
X68372Y84692D01*
X68363Y84702D01*
X68364Y84712D01*
X68064Y85312D01*
X68021Y85350D01*
X68007Y85373D01*
X67507Y85673D01*
X67401Y85691D01*
X67395Y85687D01*
X67389Y85689D01*
X66689Y85489D01*
X66672Y85475D01*
X66656Y85475D01*
X65956Y85075D01*
X65888Y84991D01*
X65889Y84981D01*
X65884Y84974D01*
X65784Y84474D01*
X65784Y84470D01*
X65783Y84467D01*
X65788Y84448D01*
X65791Y84430D01*
X65787Y84404D01*
X65987Y83704D01*
X65989Y83701D01*
X65989Y83697D01*
X68389Y76597D01*
X68409Y76573D01*
X68413Y76552D01*
X68813Y76052D01*
X68871Y76018D01*
X68889Y76002D01*
X69589Y75802D01*
X69631Y75805D01*
X69655Y75798D01*
X70255Y75898D01*
X70335Y75945D01*
X70345Y75949D01*
X70845Y76549D01*
X70855Y76581D01*
X70871Y76596D01*
X71671Y78896D01*
X71671Y78897D01*
X71672Y78898D01*
X72230Y80573D01*
X73588Y76498D01*
X73607Y76475D01*
X73613Y76453D01*
X73621Y76449D01*
X73624Y76439D01*
X74124Y75939D01*
X74190Y75910D01*
X74209Y75897D01*
X74909Y75797D01*
X74971Y75812D01*
G37*
G36*
X82649Y75897D02*
X82649Y75897D01*
X82697Y75923D01*
X82723Y75928D01*
X83223Y76328D01*
X83276Y76418D01*
X83277Y76420D01*
X83377Y77020D01*
X83374Y77035D01*
X83379Y77045D01*
X83379Y78344D01*
X83759Y78496D01*
X84947Y78496D01*
X85398Y77775D01*
X86093Y76185D01*
X86108Y76170D01*
X86113Y76155D01*
X86134Y76144D01*
X86140Y76138D01*
X86153Y76117D01*
X86653Y75817D01*
X86734Y75803D01*
X86751Y75797D01*
X87451Y75897D01*
X87481Y75914D01*
X87504Y75915D01*
X88204Y76315D01*
X88254Y76377D01*
X88269Y76390D01*
X88469Y76890D01*
X88470Y76965D01*
X88474Y76986D01*
X88274Y77686D01*
X88271Y77689D01*
X88272Y77692D01*
X88172Y77992D01*
X88165Y78000D01*
X88166Y78008D01*
X87573Y79292D01*
X87492Y79696D01*
X87936Y80139D01*
X87953Y80180D01*
X87972Y80198D01*
X88172Y80798D01*
X88171Y80802D01*
X88174Y80804D01*
X88374Y81504D01*
X88371Y81529D01*
X88379Y81545D01*
X88379Y82245D01*
X88375Y82257D01*
X88378Y82266D01*
X88278Y82966D01*
X88270Y82980D01*
X88272Y82992D01*
X88072Y83592D01*
X88063Y83602D01*
X88064Y83612D01*
X87764Y84212D01*
X87742Y84231D01*
X87739Y84243D01*
X87730Y84247D01*
X87723Y84262D01*
X87271Y84623D01*
X87279Y84642D01*
X87277Y84647D01*
X87279Y84652D01*
X87269Y84670D01*
X87242Y84743D01*
X87221Y84754D01*
X87213Y84769D01*
X86613Y85169D01*
X86602Y85172D01*
X86597Y85179D01*
X85997Y85479D01*
X85968Y85481D01*
X85951Y85493D01*
X85253Y85593D01*
X84655Y85692D01*
X84640Y85689D01*
X84630Y85694D01*
X81830Y85694D01*
X81806Y85685D01*
X81789Y85689D01*
X81089Y85489D01*
X81059Y85466D01*
X81039Y85458D01*
X81034Y85447D01*
X81003Y85424D01*
X81000Y85408D01*
X80991Y85400D01*
X80791Y84900D01*
X80791Y84865D01*
X80781Y84845D01*
X80781Y76645D01*
X80793Y76612D01*
X80791Y76590D01*
X80991Y76090D01*
X81065Y76011D01*
X81080Y76010D01*
X81089Y76002D01*
X81789Y75802D01*
X81826Y75805D01*
X81849Y75797D01*
X82649Y75897D01*
G37*
G36*
X58730Y75834D02*
X58730Y75834D01*
X58732Y75838D01*
X58736Y75839D01*
X59136Y76239D01*
X59163Y76300D01*
X59177Y76320D01*
X59277Y76920D01*
X59274Y76935D01*
X59279Y76945D01*
X59279Y78244D01*
X59659Y78396D01*
X60930Y78396D01*
X60942Y78400D01*
X60951Y78397D01*
X61651Y78497D01*
X61670Y78508D01*
X61685Y78506D01*
X62181Y78705D01*
X62190Y78706D01*
X62283Y78706D01*
X62298Y78719D01*
X62313Y78721D01*
X62913Y79121D01*
X62917Y79127D01*
X62923Y79128D01*
X63423Y79528D01*
X63433Y79546D01*
X63447Y79552D01*
X63847Y80052D01*
X63854Y80075D01*
X63867Y80086D01*
X64167Y80786D01*
X64167Y80794D01*
X64172Y80798D01*
X64372Y81398D01*
X64370Y81427D01*
X64379Y81445D01*
X64379Y82845D01*
X64363Y82886D01*
X64364Y82912D01*
X63964Y83712D01*
X63949Y83725D01*
X63947Y83738D01*
X63547Y84238D01*
X63542Y84241D01*
X63541Y84243D01*
X63538Y84244D01*
X63536Y84251D01*
X63036Y84751D01*
X63019Y84758D01*
X63013Y84769D01*
X62413Y85169D01*
X62402Y85172D01*
X62397Y85179D01*
X61797Y85479D01*
X61770Y85481D01*
X61755Y85492D01*
X61155Y85592D01*
X61140Y85589D01*
X61130Y85594D01*
X57630Y85594D01*
X57603Y85584D01*
X57583Y85587D01*
X56983Y85387D01*
X56900Y85318D01*
X56898Y85306D01*
X56891Y85300D01*
X56691Y84800D01*
X56691Y84780D01*
X56684Y84765D01*
X56686Y84756D01*
X56681Y84745D01*
X56681Y76545D01*
X56703Y76488D01*
X56709Y76467D01*
X56711Y76455D01*
X57011Y76055D01*
X57073Y76017D01*
X57089Y76002D01*
X57789Y75802D01*
X57814Y75804D01*
X57830Y75796D01*
X58630Y75796D01*
X58730Y75834D01*
G37*
%LPC*%
G36*
X177299Y52898D02*
X177299Y52898D01*
X176938Y52903D01*
X174350Y60021D01*
X174349Y60023D01*
X174351Y60057D01*
X174279Y60248D01*
X176615Y60248D01*
X176672Y60052D01*
X178021Y55479D01*
X178035Y55467D01*
X178041Y55449D01*
X178064Y55442D01*
X178073Y55435D01*
X178080Y55438D01*
X178090Y55435D01*
X178239Y55456D01*
X178247Y55463D01*
X178257Y55462D01*
X178289Y55500D01*
X178290Y55501D01*
X179630Y60239D01*
X179927Y60248D01*
X181515Y60248D01*
X181917Y60250D01*
X183267Y55643D01*
X183364Y55287D01*
X183378Y55275D01*
X183383Y55257D01*
X183401Y55254D01*
X183415Y55242D01*
X183432Y55249D01*
X183451Y55247D01*
X183466Y55264D01*
X183477Y55269D01*
X183479Y55278D01*
X183485Y55286D01*
X184885Y59909D01*
X184987Y60248D01*
X187061Y60248D01*
X187245Y60242D01*
X187155Y59980D01*
X184595Y52905D01*
X184266Y52898D01*
X182680Y52898D01*
X182214Y52921D01*
X180822Y57434D01*
X180809Y57445D01*
X180806Y57461D01*
X180786Y57465D01*
X180770Y57478D01*
X180755Y57471D01*
X180739Y57474D01*
X180719Y57454D01*
X180709Y57449D01*
X180708Y57442D01*
X180703Y57437D01*
X180546Y57000D01*
X180546Y56999D01*
X180545Y56998D01*
X179272Y52917D01*
X178886Y52898D01*
X177299Y52898D01*
G37*
%LPD*%
%LPC*%
G36*
X36042Y185949D02*
X36042Y185949D01*
X35729Y186262D01*
X35729Y186800D01*
X35721Y186822D01*
X35722Y186845D01*
X35705Y186862D01*
X35691Y186900D01*
X35648Y186922D01*
X35629Y186941D01*
X35629Y194276D01*
X35808Y194811D01*
X36232Y195151D01*
X36856Y195151D01*
X37393Y194972D01*
X37863Y194407D01*
X37901Y194357D01*
X38014Y194208D01*
X38353Y193760D01*
X38692Y193312D01*
X38805Y193163D01*
X39143Y192715D01*
X39256Y192566D01*
X39595Y192118D01*
X39934Y191671D01*
X40047Y191521D01*
X40386Y191074D01*
X40499Y190924D01*
X40661Y190711D01*
X40661Y190710D01*
X41261Y189910D01*
X41271Y189904D01*
X41274Y189894D01*
X41474Y189694D01*
X41520Y189674D01*
X41565Y189651D01*
X41569Y189653D01*
X41573Y189651D01*
X41620Y189667D01*
X41669Y189680D01*
X41670Y189683D01*
X41675Y189685D01*
X41728Y189778D01*
X41724Y189789D01*
X41729Y189800D01*
X41729Y194538D01*
X42342Y195151D01*
X43039Y195151D01*
X43471Y194891D01*
X43731Y194459D01*
X43731Y193800D01*
X43741Y193773D01*
X43742Y193752D01*
X43739Y193748D01*
X43739Y193730D01*
X43731Y193714D01*
X43734Y193706D01*
X43731Y193700D01*
X43731Y187000D01*
X43746Y186960D01*
X43749Y186949D01*
X43745Y186941D01*
X43733Y186925D01*
X43641Y186372D01*
X43310Y186041D01*
X42669Y185949D01*
X42042Y185949D01*
X41493Y186498D01*
X37899Y191290D01*
X37893Y191293D01*
X37891Y191300D01*
X37849Y191321D01*
X37808Y191347D01*
X37801Y191345D01*
X37795Y191349D01*
X37749Y191336D01*
X37703Y191328D01*
X37698Y191322D01*
X37691Y191320D01*
X37681Y191299D01*
X37637Y191243D01*
X37641Y191220D01*
X37631Y191200D01*
X37631Y186529D01*
X37469Y186123D01*
X36859Y185949D01*
X36042Y185949D01*
G37*
%LPD*%
%LPC*%
G36*
X35049Y84442D02*
X35049Y84442D01*
X34729Y84762D01*
X34729Y85300D01*
X34717Y85331D01*
X34716Y85351D01*
X34725Y85365D01*
X34722Y85386D01*
X34729Y85400D01*
X34729Y92776D01*
X34902Y93294D01*
X35415Y93551D01*
X36039Y93551D01*
X36487Y93282D01*
X37067Y92702D01*
X39060Y90011D01*
X39061Y90010D01*
X39061Y90009D01*
X40361Y88309D01*
X40453Y88253D01*
X40469Y88256D01*
X40480Y88251D01*
X40580Y88251D01*
X40624Y88268D01*
X40669Y88280D01*
X40672Y88286D01*
X40680Y88289D01*
X40729Y88385D01*
X40726Y88394D01*
X40729Y88400D01*
X40729Y92391D01*
X40826Y93167D01*
X40897Y93378D01*
X41501Y93551D01*
X42139Y93551D01*
X42556Y93300D01*
X42731Y92776D01*
X42731Y85311D01*
X42641Y84682D01*
X42322Y84443D01*
X41583Y84351D01*
X41052Y84439D01*
X40493Y84998D01*
X40473Y85025D01*
X40134Y85472D01*
X40021Y85622D01*
X39682Y86069D01*
X39569Y86219D01*
X39230Y86666D01*
X39118Y86816D01*
X39117Y86816D01*
X38892Y87114D01*
X38779Y87263D01*
X38440Y87711D01*
X38327Y87860D01*
X37988Y88308D01*
X37875Y88457D01*
X37699Y88690D01*
X37694Y88693D01*
X37693Y88697D01*
X37093Y89397D01*
X37087Y89400D01*
X37086Y89406D01*
X36886Y89606D01*
X36840Y89626D01*
X36795Y89649D01*
X36791Y89648D01*
X36787Y89649D01*
X36740Y89633D01*
X36691Y89620D01*
X36690Y89617D01*
X36685Y89615D01*
X36632Y89522D01*
X36636Y89511D01*
X36631Y89500D01*
X36631Y84841D01*
X36389Y84438D01*
X35779Y84351D01*
X35049Y84442D01*
G37*
%LPD*%
%LPC*%
G36*
X241839Y60119D02*
X241839Y60119D01*
X241261Y60216D01*
X240784Y60788D01*
X240784Y61366D01*
X240882Y61952D01*
X241273Y62539D01*
X241766Y63032D01*
X242361Y63428D01*
X243459Y64127D01*
X244057Y64426D01*
X244062Y64436D01*
X244070Y64435D01*
X245070Y65435D01*
X245071Y65447D01*
X245079Y65448D01*
X245379Y66048D01*
X245375Y66069D01*
X245384Y66078D01*
X245284Y66678D01*
X245271Y66690D01*
X245273Y66701D01*
X244873Y67201D01*
X244854Y67206D01*
X244851Y67217D01*
X244251Y67417D01*
X244235Y67412D01*
X244228Y67419D01*
X243528Y67319D01*
X243510Y67300D01*
X243497Y67301D01*
X243097Y66801D01*
X243096Y66788D01*
X243088Y66786D01*
X242888Y66186D01*
X242890Y66179D01*
X242886Y66177D01*
X242789Y65493D01*
X242415Y65119D01*
X241642Y65119D01*
X240969Y65311D01*
X240784Y65682D01*
X240784Y66466D01*
X240883Y67058D01*
X241081Y67651D01*
X241377Y68243D01*
X241870Y68835D01*
X242359Y69226D01*
X242951Y69423D01*
X243543Y69621D01*
X245027Y69621D01*
X245613Y69425D01*
X246206Y69030D01*
X246698Y68636D01*
X247092Y68045D01*
X247389Y67451D01*
X247586Y66862D01*
X247586Y65478D01*
X247390Y64892D01*
X246995Y64299D01*
X246600Y63805D01*
X246004Y63308D01*
X245508Y62912D01*
X244913Y62614D01*
X244911Y62610D01*
X244908Y62611D01*
X244608Y62411D01*
X244602Y62394D01*
X244588Y62383D01*
X244595Y62374D01*
X244588Y62355D01*
X244617Y62345D01*
X244635Y62321D01*
X247127Y62321D01*
X247702Y62129D01*
X247986Y61656D01*
X247986Y60878D01*
X247796Y60307D01*
X247326Y60119D01*
X241839Y60119D01*
G37*
%LPD*%
%LPC*%
G36*
X26189Y84349D02*
X26189Y84349D01*
X25478Y84438D01*
X25325Y84744D01*
X25229Y85509D01*
X25229Y92959D01*
X25480Y93376D01*
X26004Y93551D01*
X31468Y93551D01*
X32008Y93461D01*
X32338Y93131D01*
X32428Y92412D01*
X32253Y91798D01*
X31839Y91549D01*
X27780Y91549D01*
X27713Y91523D01*
X27690Y91519D01*
X27290Y91219D01*
X27233Y91128D01*
X27237Y91111D01*
X27231Y91100D01*
X27231Y90400D01*
X27269Y90300D01*
X27273Y90298D01*
X27274Y90294D01*
X27574Y89994D01*
X27673Y89951D01*
X27677Y89952D01*
X27680Y89951D01*
X30339Y89951D01*
X30753Y89702D01*
X30931Y89079D01*
X30931Y88362D01*
X30610Y88041D01*
X29966Y87949D01*
X27973Y87849D01*
X27963Y87845D01*
X27955Y87847D01*
X27355Y87747D01*
X27325Y87729D01*
X27291Y87720D01*
X27283Y87705D01*
X27263Y87693D01*
X27240Y87618D01*
X27231Y87600D01*
X27231Y86900D01*
X27247Y86859D01*
X27247Y86833D01*
X27447Y86433D01*
X27457Y86424D01*
X27460Y86411D01*
X27484Y86399D01*
X27526Y86361D01*
X27560Y86361D01*
X27580Y86351D01*
X30969Y86351D01*
X31657Y86253D01*
X32167Y86168D01*
X32331Y85676D01*
X32331Y84841D01*
X32088Y84436D01*
X31568Y84349D01*
X26189Y84349D01*
G37*
%LPD*%
%LPC*%
G36*
X47091Y185949D02*
X47091Y185949D01*
X46439Y186042D01*
X46119Y186282D01*
X46029Y186911D01*
X46029Y193047D01*
X48031Y192581D01*
X48031Y188700D01*
X48036Y188686D01*
X48033Y188675D01*
X48133Y188075D01*
X48151Y188045D01*
X48160Y188011D01*
X48175Y188003D01*
X48187Y187983D01*
X48262Y187960D01*
X48280Y187951D01*
X50280Y187951D01*
X50307Y187961D01*
X50327Y187958D01*
X50627Y188058D01*
X50661Y188086D01*
X50686Y188094D01*
X51186Y188594D01*
X51190Y188604D01*
X51197Y188607D01*
X51597Y189107D01*
X51602Y189125D01*
X51614Y189133D01*
X51914Y189733D01*
X51916Y189762D01*
X51928Y189779D01*
X52028Y190479D01*
X52022Y190504D01*
X52028Y190521D01*
X51928Y191221D01*
X51913Y191247D01*
X51914Y191267D01*
X51614Y191867D01*
X51599Y191880D01*
X51597Y191893D01*
X51197Y192393D01*
X51179Y192403D01*
X51173Y192417D01*
X50673Y192817D01*
X50655Y192822D01*
X50647Y192834D01*
X50047Y193134D01*
X50003Y193138D01*
X49980Y193149D01*
X48580Y193149D01*
X48513Y193123D01*
X48490Y193119D01*
X48148Y192862D01*
X46029Y193404D01*
X46029Y194376D01*
X46207Y194909D01*
X46530Y195151D01*
X49768Y195151D01*
X50347Y195054D01*
X51026Y194860D01*
X51608Y194569D01*
X52093Y194278D01*
X52673Y193795D01*
X53063Y193307D01*
X53454Y192819D01*
X53740Y192246D01*
X53934Y191569D01*
X54031Y190889D01*
X54031Y190212D01*
X53934Y189633D01*
X53740Y188954D01*
X53449Y188372D01*
X53158Y187887D01*
X52675Y187307D01*
X52187Y186917D01*
X51699Y186526D01*
X51126Y186240D01*
X50447Y186046D01*
X49868Y185949D01*
X47091Y185949D01*
G37*
%LPD*%
%LPC*%
G36*
X29391Y185949D02*
X29391Y185949D01*
X28703Y186048D01*
X28127Y186144D01*
X27555Y186429D01*
X26975Y186816D01*
X25999Y187793D01*
X25711Y188272D01*
X25420Y188854D01*
X25224Y189541D01*
X25221Y189544D01*
X25222Y189547D01*
X25029Y190124D01*
X25029Y190789D01*
X25226Y192166D01*
X25415Y192734D01*
X25801Y193312D01*
X26191Y193800D01*
X26680Y194289D01*
X27161Y194674D01*
X27747Y194967D01*
X28325Y195256D01*
X29001Y195352D01*
X29678Y195449D01*
X30255Y195353D01*
X30258Y195353D01*
X30259Y195352D01*
X30946Y195254D01*
X31523Y195062D01*
X32105Y194771D01*
X32655Y194404D01*
X32823Y193900D01*
X32650Y193381D01*
X32106Y192838D01*
X31701Y192756D01*
X30547Y193334D01*
X30518Y193336D01*
X30501Y193348D01*
X29801Y193448D01*
X29776Y193442D01*
X29759Y193448D01*
X29059Y193348D01*
X29045Y193340D01*
X29033Y193342D01*
X28433Y193142D01*
X28414Y193126D01*
X28397Y193124D01*
X27797Y192724D01*
X27781Y192701D01*
X27763Y192693D01*
X27363Y192193D01*
X27352Y192158D01*
X27337Y192141D01*
X27137Y191441D01*
X27138Y191429D01*
X27132Y191421D01*
X27032Y190721D01*
X27038Y190696D01*
X27032Y190679D01*
X27132Y189979D01*
X27140Y189965D01*
X27138Y189953D01*
X27338Y189353D01*
X27359Y189328D01*
X27363Y189307D01*
X27763Y188807D01*
X27779Y188798D01*
X27784Y188785D01*
X28384Y188285D01*
X28417Y188274D01*
X28433Y188258D01*
X29033Y188058D01*
X29047Y188059D01*
X29055Y188053D01*
X29655Y187953D01*
X29670Y187956D01*
X29680Y187951D01*
X30380Y187951D01*
X30421Y187967D01*
X30447Y187967D01*
X31047Y188267D01*
X31056Y188277D01*
X31069Y188280D01*
X31081Y188304D01*
X31119Y188346D01*
X31119Y188380D01*
X31129Y188400D01*
X31129Y189700D01*
X31114Y189739D01*
X31106Y189780D01*
X31096Y189786D01*
X31091Y189800D01*
X30995Y189849D01*
X30992Y189848D01*
X30991Y189849D01*
X29646Y189945D01*
X29329Y190262D01*
X29329Y190876D01*
X29498Y191382D01*
X30004Y191551D01*
X32159Y191551D01*
X32791Y191370D01*
X33038Y191041D01*
X33131Y190389D01*
X33131Y187700D01*
X33138Y187682D01*
X33135Y187663D01*
X33142Y187656D01*
X33141Y187655D01*
X32953Y187184D01*
X32487Y186719D01*
X32008Y186431D01*
X31433Y186144D01*
X30858Y186048D01*
X30071Y185949D01*
X29391Y185949D01*
G37*
%LPD*%
%LPC*%
G36*
X254243Y60119D02*
X254243Y60119D01*
X253651Y60317D01*
X253053Y60516D01*
X252361Y60813D01*
X251868Y61207D01*
X251372Y61703D01*
X250977Y62197D01*
X250679Y62792D01*
X250381Y63388D01*
X250184Y64077D01*
X250184Y65466D01*
X250283Y66059D01*
X250481Y66752D01*
X250779Y67348D01*
X251074Y67938D01*
X251566Y68332D01*
X251567Y68336D01*
X251570Y68335D01*
X252064Y68829D01*
X252656Y69125D01*
X253353Y69424D01*
X253946Y69622D01*
X254638Y69721D01*
X255232Y69721D01*
X255925Y69622D01*
X256620Y69423D01*
X257213Y69225D01*
X257801Y68833D01*
X258186Y68353D01*
X258186Y67788D01*
X257700Y67205D01*
X257222Y66823D01*
X256754Y66916D01*
X256162Y67311D01*
X256153Y67310D01*
X256151Y67317D01*
X255551Y67517D01*
X255540Y67513D01*
X255535Y67519D01*
X254835Y67519D01*
X254831Y67516D01*
X254828Y67519D01*
X254128Y67419D01*
X254120Y67411D01*
X254113Y67414D01*
X253513Y67114D01*
X253510Y67107D01*
X253504Y67108D01*
X253004Y66708D01*
X253002Y66698D01*
X252994Y66697D01*
X252594Y66097D01*
X252595Y66088D01*
X252588Y66086D01*
X252388Y65486D01*
X252392Y65475D01*
X252386Y65470D01*
X252386Y64670D01*
X252389Y64665D01*
X252386Y64662D01*
X252486Y64062D01*
X252494Y64055D01*
X252491Y64048D01*
X252791Y63448D01*
X252798Y63445D01*
X252797Y63439D01*
X253197Y62939D01*
X253207Y62937D01*
X253208Y62929D01*
X253808Y62529D01*
X253819Y62530D01*
X253821Y62523D01*
X254521Y62323D01*
X254531Y62326D01*
X254535Y62321D01*
X255135Y62321D01*
X255139Y62324D01*
X255142Y62321D01*
X255842Y62421D01*
X255850Y62429D01*
X255857Y62426D01*
X256257Y62626D01*
X256258Y62628D01*
X256259Y62627D01*
X256942Y63017D01*
X257312Y62925D01*
X257894Y62440D01*
X258182Y61768D01*
X257993Y61199D01*
X257507Y60810D01*
X257014Y60515D01*
X256222Y60218D01*
X255631Y60119D01*
X254243Y60119D01*
G37*
%LPD*%
%LPC*%
G36*
X48901Y160549D02*
X48901Y160549D01*
X48224Y160743D01*
X47652Y160933D01*
X47173Y161317D01*
X46691Y161702D01*
X46317Y162263D01*
X46129Y162921D01*
X46129Y163450D01*
X46368Y163768D01*
X47088Y163948D01*
X47710Y163859D01*
X48057Y163512D01*
X48347Y162933D01*
X48384Y162899D01*
X48397Y162876D01*
X48997Y162476D01*
X49057Y162463D01*
X49080Y162451D01*
X49880Y162451D01*
X49907Y162461D01*
X49927Y162458D01*
X50527Y162658D01*
X50572Y162696D01*
X50597Y162707D01*
X50997Y163207D01*
X51029Y163309D01*
X51025Y163318D01*
X51027Y163325D01*
X50927Y163925D01*
X50873Y164017D01*
X50866Y164019D01*
X50863Y164024D01*
X50263Y164424D01*
X50222Y164433D01*
X50201Y164448D01*
X49503Y164548D01*
X48973Y164636D01*
X48729Y165041D01*
X48729Y165876D01*
X48894Y166371D01*
X49303Y166452D01*
X50196Y166552D01*
X50232Y166570D01*
X50257Y166572D01*
X50757Y166872D01*
X50769Y166888D01*
X50787Y166896D01*
X50795Y166921D01*
X50823Y166957D01*
X50820Y167000D01*
X50827Y167025D01*
X50727Y167625D01*
X50727Y167626D01*
X50724Y167630D01*
X50673Y167717D01*
X50655Y167723D01*
X50647Y167734D01*
X50047Y168034D01*
X50003Y168038D01*
X49980Y168049D01*
X49280Y168049D01*
X49223Y168027D01*
X49197Y168024D01*
X48597Y167624D01*
X48581Y167601D01*
X48563Y167593D01*
X48180Y167114D01*
X47750Y166856D01*
X47236Y166942D01*
X46705Y167296D01*
X46522Y167847D01*
X46521Y167848D01*
X46521Y167850D01*
X46518Y167852D01*
X46518Y167860D01*
X46526Y167871D01*
X46621Y168342D01*
X46996Y168905D01*
X47468Y169377D01*
X48625Y169956D01*
X49291Y170051D01*
X51118Y170051D01*
X52069Y169100D01*
X52454Y168619D01*
X52736Y168055D01*
X52831Y167389D01*
X52831Y166735D01*
X52561Y166196D01*
X52087Y165817D01*
X52079Y165803D01*
X52065Y165795D01*
X52059Y165769D01*
X52033Y165724D01*
X52040Y165687D01*
X52035Y165664D01*
X52135Y165264D01*
X52153Y165239D01*
X52156Y165226D01*
X52165Y165222D01*
X52166Y165220D01*
X52174Y165194D01*
X52657Y164712D01*
X52936Y164153D01*
X53031Y163588D01*
X53031Y162921D01*
X52845Y162270D01*
X52469Y161800D01*
X51980Y161311D01*
X51508Y160933D01*
X50936Y160743D01*
X50259Y160549D01*
X48901Y160549D01*
G37*
%LPD*%
%LPC*%
G36*
X28091Y160549D02*
X28091Y160549D01*
X27414Y160646D01*
X26837Y160838D01*
X26268Y161123D01*
X25406Y161985D01*
X25124Y162642D01*
X25033Y163188D01*
X25200Y163687D01*
X25617Y163854D01*
X26446Y163946D01*
X26866Y163694D01*
X27147Y163133D01*
X27168Y163114D01*
X27174Y163094D01*
X27574Y162694D01*
X27619Y162675D01*
X27639Y162657D01*
X28339Y162457D01*
X28376Y162460D01*
X28399Y162452D01*
X29199Y162552D01*
X29233Y162570D01*
X29257Y162572D01*
X29757Y162872D01*
X29823Y162957D01*
X29822Y162968D01*
X29827Y162975D01*
X29927Y163575D01*
X29906Y163681D01*
X29904Y163682D01*
X29904Y163683D01*
X29504Y164283D01*
X29442Y164327D01*
X29427Y164342D01*
X28827Y164542D01*
X28798Y164540D01*
X28780Y164549D01*
X28121Y164549D01*
X27718Y164791D01*
X27630Y165402D01*
X27721Y166219D01*
X28039Y166458D01*
X28700Y166552D01*
X29499Y166652D01*
X29520Y166663D01*
X29544Y166665D01*
X29559Y166684D01*
X29593Y166703D01*
X29610Y166750D01*
X29626Y166771D01*
X29726Y167271D01*
X29708Y167377D01*
X29698Y167384D01*
X29697Y167393D01*
X29297Y167893D01*
X29207Y167946D01*
X29205Y167947D01*
X28605Y168047D01*
X28577Y168042D01*
X28559Y168048D01*
X27859Y167948D01*
X27765Y167895D01*
X27765Y167894D01*
X27763Y167893D01*
X27365Y167395D01*
X26910Y166849D01*
X26415Y166849D01*
X25876Y167119D01*
X25529Y167552D01*
X25529Y168076D01*
X25713Y168626D01*
X26185Y169193D01*
X26657Y169571D01*
X27322Y169856D01*
X27903Y169953D01*
X28591Y170051D01*
X29930Y170051D01*
X30282Y169787D01*
X30769Y169300D01*
X31159Y168812D01*
X31547Y168230D01*
X31741Y167745D01*
X31744Y167742D01*
X31742Y167726D01*
X31738Y167717D01*
X31741Y167707D01*
X31740Y167700D01*
X31733Y167675D01*
X31827Y167109D01*
X31645Y166470D01*
X31269Y166000D01*
X30874Y165606D01*
X30856Y165563D01*
X30832Y165522D01*
X30835Y165515D01*
X30831Y165507D01*
X30865Y165405D01*
X30872Y165401D01*
X30874Y165394D01*
X31369Y164900D01*
X31747Y164428D01*
X31931Y163876D01*
X31931Y163211D01*
X31836Y162545D01*
X31554Y161981D01*
X31174Y161506D01*
X30699Y161126D01*
X30123Y160838D01*
X29546Y160646D01*
X28869Y160549D01*
X28091Y160549D01*
G37*
%LPD*%
%LPC*%
G36*
X27601Y135149D02*
X27601Y135149D01*
X26940Y135338D01*
X26457Y135628D01*
X26455Y135628D01*
X26454Y135630D01*
X25779Y136016D01*
X25398Y136491D01*
X25120Y136863D01*
X25038Y137269D01*
X25388Y137792D01*
X25925Y138151D01*
X26326Y138151D01*
X26884Y137685D01*
X26894Y137682D01*
X26897Y137676D01*
X27497Y137276D01*
X27508Y137273D01*
X27513Y137267D01*
X28113Y136967D01*
X28174Y136961D01*
X28199Y136952D01*
X28999Y137052D01*
X29066Y137088D01*
X29086Y137094D01*
X29486Y137494D01*
X29515Y137560D01*
X29528Y137579D01*
X29628Y138279D01*
X29626Y138287D01*
X29629Y138295D01*
X29619Y138316D01*
X29604Y138384D01*
X29581Y138399D01*
X29573Y138417D01*
X29073Y138817D01*
X29042Y138826D01*
X29027Y138842D01*
X28427Y139042D01*
X28411Y139041D01*
X28401Y139048D01*
X27721Y139145D01*
X27039Y139437D01*
X27031Y139437D01*
X27027Y139442D01*
X26452Y139633D01*
X25980Y140011D01*
X25510Y140481D01*
X25326Y141034D01*
X25229Y141711D01*
X25229Y142376D01*
X25418Y142943D01*
X25706Y143519D01*
X26058Y143958D01*
X26146Y143966D01*
X26151Y143972D01*
X26157Y143972D01*
X26652Y144269D01*
X27225Y144556D01*
X27891Y144651D01*
X28668Y144651D01*
X29247Y144554D01*
X29920Y144362D01*
X30393Y144078D01*
X30955Y143610D01*
X31115Y143212D01*
X30760Y142591D01*
X30318Y142149D01*
X29815Y142149D01*
X29252Y142431D01*
X28757Y142728D01*
X28704Y142737D01*
X28680Y142749D01*
X27880Y142749D01*
X27830Y142730D01*
X27803Y142728D01*
X27303Y142428D01*
X27299Y142422D01*
X27291Y142420D01*
X27289Y142415D01*
X27284Y142413D01*
X27271Y142386D01*
X27237Y142343D01*
X27239Y142323D01*
X27236Y142317D01*
X27237Y142313D01*
X27231Y142300D01*
X27231Y141600D01*
X27269Y141500D01*
X27282Y141493D01*
X27287Y141483D01*
X27787Y141083D01*
X27822Y141072D01*
X27839Y141057D01*
X28539Y140857D01*
X28549Y140857D01*
X28555Y140853D01*
X29138Y140756D01*
X29821Y140463D01*
X29829Y140463D01*
X29833Y140458D01*
X30423Y140262D01*
X30978Y139984D01*
X31345Y139434D01*
X31534Y138866D01*
X31631Y138189D01*
X31631Y137524D01*
X31442Y136957D01*
X31157Y136388D01*
X30685Y135916D01*
X30114Y135535D01*
X29533Y135342D01*
X28956Y135149D01*
X27601Y135149D01*
G37*
%LPD*%
%LPC*%
G36*
X27692Y109749D02*
X27692Y109749D01*
X27127Y109844D01*
X26555Y110129D01*
X25975Y110516D01*
X25493Y110998D01*
X25214Y111370D01*
X25043Y111882D01*
X25295Y112301D01*
X25834Y112751D01*
X26328Y112751D01*
X26787Y112383D01*
X26794Y112381D01*
X26797Y112376D01*
X27997Y111576D01*
X28089Y111555D01*
X28099Y111552D01*
X28899Y111652D01*
X28933Y111670D01*
X28957Y111672D01*
X29457Y111972D01*
X29523Y112057D01*
X29522Y112070D01*
X29528Y112079D01*
X29628Y112779D01*
X29604Y112884D01*
X29598Y112888D01*
X29597Y112893D01*
X29197Y113393D01*
X29146Y113423D01*
X29127Y113442D01*
X28527Y113642D01*
X28511Y113641D01*
X28501Y113648D01*
X27814Y113746D01*
X27233Y113940D01*
X26548Y114233D01*
X26073Y114519D01*
X25603Y114988D01*
X25324Y115545D01*
X25229Y116211D01*
X25229Y116888D01*
X25324Y117453D01*
X25603Y118012D01*
X26080Y118489D01*
X26552Y118867D01*
X27124Y119057D01*
X27801Y119251D01*
X28469Y119251D01*
X29149Y119154D01*
X29826Y118960D01*
X30399Y118674D01*
X30866Y118300D01*
X31110Y117894D01*
X30854Y117382D01*
X30390Y116825D01*
X29982Y116662D01*
X29357Y116929D01*
X28873Y117317D01*
X28823Y117332D01*
X28801Y117348D01*
X28101Y117448D01*
X28039Y117433D01*
X28013Y117434D01*
X27413Y117134D01*
X27412Y117132D01*
X27409Y117131D01*
X27402Y117121D01*
X27341Y117054D01*
X27341Y117033D01*
X27332Y117021D01*
X27232Y116321D01*
X27232Y116320D01*
X27233Y116318D01*
X27256Y116216D01*
X27270Y116207D01*
X27274Y116194D01*
X27674Y115794D01*
X27701Y115783D01*
X27713Y115767D01*
X28313Y115467D01*
X28342Y115464D01*
X28359Y115452D01*
X29049Y115354D01*
X29736Y115157D01*
X30323Y114962D01*
X30878Y114684D01*
X31251Y114125D01*
X31536Y113553D01*
X31633Y112975D01*
X31635Y112971D01*
X31634Y112967D01*
X31646Y112949D01*
X31643Y112924D01*
X31631Y112900D01*
X31631Y112224D01*
X31442Y111657D01*
X31154Y111081D01*
X30774Y110606D01*
X30299Y110226D01*
X29726Y109940D01*
X29059Y109749D01*
X27692Y109749D01*
G37*
%LPD*%
%LPC*%
G36*
X38368Y137227D02*
X38368Y137227D01*
X39047Y137567D01*
X39067Y137588D01*
X39086Y137594D01*
X39586Y138094D01*
X39597Y138121D01*
X39614Y138133D01*
X39914Y138733D01*
X39915Y138746D01*
X39922Y138753D01*
X40122Y139353D01*
X40120Y139382D01*
X40129Y139400D01*
X40129Y140100D01*
X40120Y140124D01*
X40124Y140141D01*
X39924Y140841D01*
X39909Y140860D01*
X39908Y140877D01*
X39608Y141377D01*
X39591Y141390D01*
X39586Y141406D01*
X39086Y141906D01*
X39059Y141917D01*
X39047Y141934D01*
X38447Y142234D01*
X38418Y142236D01*
X38401Y142248D01*
X37701Y142348D01*
X37689Y142345D01*
X37680Y142349D01*
X36380Y142349D01*
X36336Y142332D01*
X36291Y142320D01*
X36288Y142314D01*
X36280Y142311D01*
X36231Y142215D01*
X36234Y142206D01*
X36231Y142200D01*
X36231Y137649D01*
X34229Y137649D01*
X34229Y143859D01*
X34471Y144261D01*
X35189Y144351D01*
X38256Y144351D01*
X38833Y144158D01*
X38837Y144159D01*
X38839Y144157D01*
X39520Y143962D01*
X39993Y143678D01*
X40579Y143190D01*
X41069Y142700D01*
X41454Y142219D01*
X41742Y141643D01*
X41937Y141056D01*
X42131Y140379D01*
X42131Y139800D01*
X42145Y139764D01*
X42147Y139751D01*
X42134Y139733D01*
X42137Y139713D01*
X42131Y139700D01*
X42131Y139121D01*
X41937Y138444D01*
X41742Y137857D01*
X41451Y137275D01*
X41064Y136695D01*
X40585Y136216D01*
X40000Y135826D01*
X39517Y135536D01*
X39069Y135387D01*
X38368Y137227D01*
G37*
%LPD*%
%LPC*%
G36*
X37904Y109749D02*
X37904Y109749D01*
X37337Y109938D01*
X36155Y110529D01*
X35575Y110916D01*
X35091Y111400D01*
X34706Y111881D01*
X34418Y112457D01*
X34022Y113647D01*
X34014Y113656D01*
X34017Y113676D01*
X34029Y113700D01*
X34029Y115088D01*
X34126Y115667D01*
X34320Y116346D01*
X34606Y116919D01*
X34991Y117400D01*
X35480Y117889D01*
X35968Y118279D01*
X36546Y118665D01*
X37124Y118857D01*
X37813Y119054D01*
X38392Y119151D01*
X39069Y119151D01*
X39749Y119054D01*
X40432Y118859D01*
X40910Y118667D01*
X41478Y118289D01*
X41841Y117835D01*
X41833Y117825D01*
X41739Y117264D01*
X41281Y116715D01*
X40853Y116458D01*
X40438Y116541D01*
X39863Y116924D01*
X39839Y116929D01*
X39827Y116942D01*
X39227Y117142D01*
X39198Y117140D01*
X39180Y117149D01*
X38480Y117149D01*
X38456Y117140D01*
X38439Y117144D01*
X37739Y116944D01*
X37726Y116933D01*
X37713Y116934D01*
X37113Y116634D01*
X37100Y116619D01*
X37087Y116617D01*
X36587Y116217D01*
X36573Y116192D01*
X36556Y116183D01*
X36156Y115583D01*
X36147Y115544D01*
X36133Y115525D01*
X36033Y114925D01*
X36036Y114910D01*
X36031Y114900D01*
X36031Y114100D01*
X36036Y114086D01*
X36033Y114075D01*
X36133Y113475D01*
X36147Y113452D01*
X36147Y113433D01*
X36447Y112833D01*
X36468Y112814D01*
X36474Y112794D01*
X36974Y112294D01*
X37001Y112283D01*
X37013Y112267D01*
X37613Y111967D01*
X37626Y111965D01*
X37633Y111958D01*
X38233Y111758D01*
X38262Y111760D01*
X38280Y111751D01*
X38980Y111751D01*
X38992Y111755D01*
X39001Y111752D01*
X39701Y111852D01*
X39743Y111876D01*
X39770Y111881D01*
X40155Y112170D01*
X40793Y112443D01*
X41091Y112369D01*
X41552Y111723D01*
X41813Y111200D01*
X41561Y110696D01*
X41104Y110330D01*
X40627Y110139D01*
X39843Y109845D01*
X39169Y109749D01*
X37904Y109749D01*
G37*
%LPD*%
%LPC*%
G36*
X38615Y160549D02*
X38615Y160549D01*
X38091Y160811D01*
X37814Y161367D01*
X37813Y161367D01*
X34514Y168066D01*
X34514Y168067D01*
X34217Y168661D01*
X34218Y168677D01*
X34229Y168700D01*
X34229Y169138D01*
X34665Y169574D01*
X35287Y169840D01*
X35799Y169670D01*
X36150Y169319D01*
X36338Y168753D01*
X36345Y168745D01*
X36344Y168738D01*
X38444Y164138D01*
X38447Y164136D01*
X38447Y164133D01*
X38747Y163533D01*
X38770Y163512D01*
X38785Y163485D01*
X38808Y163477D01*
X38826Y163461D01*
X38857Y163461D01*
X38887Y163451D01*
X38905Y163461D01*
X38933Y163461D01*
X38982Y163505D01*
X39004Y163517D01*
X39204Y163817D01*
X39207Y163831D01*
X39216Y163838D01*
X41514Y168835D01*
X41803Y169412D01*
X42142Y169751D01*
X42651Y169751D01*
X43096Y169573D01*
X43543Y169126D01*
X43634Y168671D01*
X43640Y168661D01*
X43639Y168652D01*
X43347Y168067D01*
X43346Y168066D01*
X40047Y161367D01*
X39769Y160811D01*
X39245Y160549D01*
X38615Y160549D01*
G37*
%LPD*%
G36*
X229005Y130880D02*
X229005Y130880D01*
X229007Y130882D01*
X229008Y130881D01*
X229679Y131116D01*
X229680Y131117D01*
X229681Y131117D01*
X230283Y131495D01*
X230284Y131497D01*
X230286Y131497D01*
X230788Y131999D01*
X230788Y132001D01*
X230790Y132002D01*
X231168Y132604D01*
X231168Y132605D01*
X231169Y132606D01*
X231404Y133277D01*
X231404Y133279D01*
X231405Y133280D01*
X231484Y133986D01*
X231484Y133987D01*
X231483Y133988D01*
X231484Y133989D01*
X231405Y134695D01*
X231403Y134697D01*
X231404Y134698D01*
X231169Y135369D01*
X231168Y135370D01*
X231168Y135371D01*
X230790Y135973D01*
X230788Y135974D01*
X230788Y135976D01*
X230286Y136478D01*
X230284Y136478D01*
X230283Y136480D01*
X229681Y136858D01*
X229680Y136858D01*
X229679Y136859D01*
X229008Y137094D01*
X229006Y137094D01*
X229005Y137095D01*
X228299Y137174D01*
X228297Y137173D01*
X228296Y137174D01*
X227590Y137095D01*
X227588Y137093D01*
X227587Y137094D01*
X226916Y136859D01*
X226915Y136858D01*
X226914Y136858D01*
X226312Y136480D01*
X226311Y136478D01*
X226309Y136478D01*
X225807Y135976D01*
X225807Y135974D01*
X225805Y135973D01*
X225427Y135371D01*
X225427Y135370D01*
X225426Y135369D01*
X225191Y134698D01*
X225192Y134696D01*
X225190Y134695D01*
X225111Y133989D01*
X225112Y133987D01*
X225111Y133986D01*
X225190Y133280D01*
X225192Y133278D01*
X225191Y133277D01*
X225426Y132606D01*
X225427Y132605D01*
X225427Y132604D01*
X225805Y132002D01*
X225807Y132001D01*
X225807Y131999D01*
X226309Y131497D01*
X226311Y131497D01*
X226312Y131495D01*
X226914Y131117D01*
X226915Y131117D01*
X226916Y131116D01*
X227587Y130881D01*
X227589Y130882D01*
X227590Y130880D01*
X228296Y130801D01*
X228298Y130802D01*
X228299Y130801D01*
X229005Y130880D01*
G37*
%LPC*%
G36*
X51596Y135404D02*
X51596Y135404D01*
X51016Y136663D01*
X51000Y136678D01*
X50997Y136693D01*
X50597Y137193D01*
X50504Y137247D01*
X50490Y137244D01*
X50480Y137249D01*
X47405Y137249D01*
X48079Y138851D01*
X49280Y138851D01*
X49293Y138856D01*
X49306Y138853D01*
X49327Y138869D01*
X49380Y138889D01*
X49396Y138920D01*
X49414Y138933D01*
X49614Y139333D01*
X49624Y139440D01*
X49613Y139454D01*
X49614Y139467D01*
X49014Y140667D01*
X49001Y140678D01*
X48995Y140695D01*
X48962Y140713D01*
X48934Y140739D01*
X48917Y140739D01*
X48902Y140748D01*
X48877Y140739D01*
X48827Y140739D01*
X48798Y140713D01*
X48774Y140706D01*
X48374Y140306D01*
X48363Y140279D01*
X48347Y140267D01*
X48047Y139667D01*
X48046Y139659D01*
X48041Y139655D01*
X47884Y139262D01*
X45694Y139531D01*
X47807Y143819D01*
X48167Y144270D01*
X48789Y144447D01*
X49299Y144362D01*
X49653Y143920D01*
X53242Y136544D01*
X53417Y136018D01*
X53172Y135610D01*
X52529Y135243D01*
X52010Y135156D01*
X51596Y135404D01*
G37*
%LPD*%
%LPC*%
G36*
X45291Y109749D02*
X45291Y109749D01*
X44671Y109838D01*
X44429Y110241D01*
X44429Y118300D01*
X44426Y118308D01*
X44428Y118317D01*
X44415Y118342D01*
X44419Y118345D01*
X44593Y118780D01*
X45104Y118951D01*
X45928Y118951D01*
X46342Y118619D01*
X46431Y118088D01*
X46431Y111500D01*
X46448Y111456D01*
X46460Y111411D01*
X46466Y111408D01*
X46469Y111400D01*
X46565Y111351D01*
X46574Y111354D01*
X46580Y111351D01*
X49969Y111351D01*
X50589Y111262D01*
X50831Y110859D01*
X50831Y110241D01*
X50588Y109836D01*
X50068Y109749D01*
X45291Y109749D01*
G37*
%LPD*%
%LPC*%
G36*
X237442Y60119D02*
X237442Y60119D01*
X236772Y60311D01*
X236584Y60779D01*
X236584Y68856D01*
X236868Y69329D01*
X237440Y69520D01*
X238316Y69423D01*
X238689Y69143D01*
X238786Y68467D01*
X238786Y61070D01*
X238822Y61023D01*
X238831Y61029D01*
X238835Y61024D01*
X238840Y61024D01*
X238842Y61022D01*
X238825Y61018D01*
X238793Y60982D01*
X238786Y60978D01*
X238690Y60401D01*
X238221Y60119D01*
X237442Y60119D01*
G37*
%LPD*%
%LPC*%
G36*
X197458Y52818D02*
X197458Y52818D01*
X197457Y52818D01*
X197456Y52818D01*
X196933Y52877D01*
X195899Y53055D01*
X195440Y53273D01*
X194559Y53830D01*
X193986Y54700D01*
X193759Y55154D01*
X193576Y56185D01*
X193541Y56695D01*
X193722Y57728D01*
X193864Y58216D01*
X194516Y59172D01*
X194516Y59174D01*
X194794Y59441D01*
X195673Y60004D01*
X196168Y60129D01*
X197204Y60310D01*
X197739Y60311D01*
X197734Y59911D01*
X197734Y59910D01*
X197734Y58391D01*
X197403Y58421D01*
X197396Y58417D01*
X197384Y58420D01*
X196866Y58308D01*
X196859Y58301D01*
X196844Y58298D01*
X196413Y58000D01*
X196410Y57992D01*
X196397Y57984D01*
X196103Y57555D01*
X196102Y57547D01*
X196095Y57539D01*
X195933Y57042D01*
X195934Y57037D01*
X195930Y57030D01*
X195868Y56506D01*
X195871Y56500D01*
X195869Y56490D01*
X195945Y55966D01*
X195950Y55961D01*
X195949Y55951D01*
X196144Y55466D01*
X196151Y55462D01*
X196154Y55450D01*
X196481Y55048D01*
X196490Y55045D01*
X196499Y55033D01*
X196951Y54780D01*
X196959Y54780D01*
X196971Y54773D01*
X197491Y54682D01*
X197491Y54683D01*
X197492Y54682D01*
X197734Y54645D01*
X197734Y52777D01*
X197458Y52818D01*
G37*
%LPD*%
%LPC*%
G36*
X190775Y52898D02*
X190775Y52898D01*
X190624Y52908D01*
X190634Y60106D01*
X190635Y60107D01*
X190631Y60248D01*
X192953Y60248D01*
X192952Y59980D01*
X192945Y59964D01*
X192945Y52898D01*
X192891Y52898D01*
X190775Y52898D01*
G37*
%LPD*%
%LPC*%
G36*
X188118Y52898D02*
X188118Y52898D01*
X187681Y52926D01*
X187681Y60229D01*
X187742Y60228D01*
X187744Y60229D01*
X187747Y60228D01*
X188123Y60248D01*
X189997Y60248D01*
X189992Y60201D01*
X189992Y60200D01*
X189992Y60197D01*
X190002Y52904D01*
X189704Y52898D01*
X188118Y52898D01*
G37*
%LPD*%
G36*
X169853Y54644D02*
X169853Y54644D01*
X169865Y54641D01*
X170377Y54748D01*
X170385Y54756D01*
X170402Y54760D01*
X170820Y55075D01*
X170823Y55083D01*
X170834Y55090D01*
X171123Y55518D01*
X171123Y55525D01*
X171130Y55533D01*
X171297Y56020D01*
X171295Y56026D01*
X171299Y56032D01*
X171373Y56549D01*
X171370Y56556D01*
X171373Y56568D01*
X171294Y57085D01*
X171290Y57090D01*
X171291Y57097D01*
X171113Y57581D01*
X171107Y57586D01*
X171105Y57596D01*
X170805Y58014D01*
X170797Y58017D01*
X170790Y58029D01*
X170365Y58328D01*
X170354Y58329D01*
X170341Y58338D01*
X169828Y58444D01*
X169820Y58441D01*
X169808Y58445D01*
X169295Y58382D01*
X169289Y58377D01*
X169277Y58377D01*
X168812Y58166D01*
X168807Y58158D01*
X168794Y58154D01*
X168422Y57799D01*
X168421Y57791D01*
X168411Y57784D01*
X168156Y57327D01*
X168156Y57318D01*
X168149Y57306D01*
X168069Y56788D01*
X168071Y56784D01*
X168068Y56778D01*
X168074Y56261D01*
X168076Y56257D01*
X168075Y56250D01*
X168167Y55737D01*
X168173Y55731D01*
X168174Y55717D01*
X168429Y55260D01*
X168437Y55256D01*
X168442Y55244D01*
X168825Y54899D01*
X168834Y54898D01*
X168843Y54888D01*
X169315Y54691D01*
X169323Y54693D01*
X169334Y54687D01*
X169846Y54640D01*
X169853Y54644D01*
G37*
%LPC*%
G36*
X34804Y135149D02*
X34804Y135149D01*
X34312Y135313D01*
X34229Y135812D01*
X34229Y137297D01*
X36364Y137251D01*
X36851Y137154D01*
X36868Y137157D01*
X36880Y137151D01*
X38071Y137151D01*
X38686Y135219D01*
X38268Y135149D01*
X34804Y135149D01*
G37*
%LPD*%
%LPC*%
G36*
X45131Y135243D02*
X45131Y135243D01*
X44479Y135616D01*
X44140Y136039D01*
X44223Y136455D01*
X44516Y137138D01*
X45508Y139153D01*
X47757Y138877D01*
X46948Y137170D01*
X46652Y136677D01*
X46651Y136670D01*
X46647Y136667D01*
X46061Y135496D01*
X45639Y135158D01*
X45131Y135243D01*
G37*
%LPD*%
%LPC*%
G36*
X61150Y80984D02*
X61150Y80984D01*
X61130Y80994D01*
X59279Y80994D01*
X59279Y82770D01*
X59580Y82996D01*
X60809Y82996D01*
X61426Y82820D01*
X61686Y82300D01*
X61773Y81688D01*
X61419Y81245D01*
X61158Y80984D01*
X61150Y80984D01*
G37*
%LPD*%
%LPC*%
G36*
X83379Y81094D02*
X83379Y81094D01*
X83379Y82870D01*
X83680Y83096D01*
X84895Y83096D01*
X85463Y82812D01*
X85489Y82809D01*
X85513Y82797D01*
X85533Y82804D01*
X85781Y82310D01*
X85781Y81697D01*
X85441Y81273D01*
X84906Y81094D01*
X83379Y81094D01*
G37*
%LPD*%
D10*
X112000Y17500D02*
X142000Y17500D01*
X97000Y43500D02*
X97000Y60000D01*
X149500Y60000D02*
X157000Y60000D01*
X157000Y43500D01*
X104500Y60000D02*
X97000Y60000D01*
X100984Y66500D02*
X100986Y66563D01*
X100992Y66626D01*
X101002Y66689D01*
X101015Y66750D01*
X101033Y66811D01*
X101054Y66870D01*
X101079Y66929D01*
X101107Y66985D01*
X101139Y67040D01*
X101174Y67092D01*
X101213Y67142D01*
X101254Y67190D01*
X101299Y67235D01*
X101346Y67277D01*
X101395Y67316D01*
X101447Y67352D01*
X101501Y67385D01*
X101557Y67414D01*
X101615Y67440D01*
X101674Y67462D01*
X101734Y67481D01*
X101796Y67495D01*
X101858Y67506D01*
X101921Y67513D01*
X101984Y67516D01*
X102047Y67515D01*
X102110Y67510D01*
X102173Y67501D01*
X102235Y67488D01*
X102296Y67472D01*
X102356Y67452D01*
X102414Y67428D01*
X102471Y67400D01*
X102526Y67369D01*
X102579Y67335D01*
X102630Y67297D01*
X102678Y67256D01*
X102724Y67213D01*
X102767Y67166D01*
X102807Y67117D01*
X102844Y67066D01*
X102877Y67013D01*
X102907Y66957D01*
X102934Y66900D01*
X102957Y66841D01*
X102976Y66781D01*
X102992Y66719D01*
X103004Y66657D01*
X103012Y66595D01*
X103016Y66532D01*
X103016Y66468D01*
X103012Y66405D01*
X103004Y66343D01*
X102992Y66281D01*
X102976Y66219D01*
X102957Y66159D01*
X102934Y66100D01*
X102907Y66043D01*
X102877Y65987D01*
X102844Y65934D01*
X102807Y65883D01*
X102767Y65834D01*
X102724Y65787D01*
X102678Y65744D01*
X102630Y65703D01*
X102579Y65665D01*
X102526Y65631D01*
X102471Y65600D01*
X102414Y65572D01*
X102356Y65548D01*
X102296Y65528D01*
X102235Y65512D01*
X102173Y65499D01*
X102110Y65490D01*
X102047Y65485D01*
X101984Y65484D01*
X101921Y65487D01*
X101858Y65494D01*
X101796Y65505D01*
X101734Y65519D01*
X101674Y65538D01*
X101615Y65560D01*
X101557Y65586D01*
X101501Y65615D01*
X101447Y65648D01*
X101395Y65684D01*
X101346Y65723D01*
X101299Y65765D01*
X101254Y65810D01*
X101213Y65858D01*
X101174Y65908D01*
X101139Y65960D01*
X101107Y66015D01*
X101079Y66071D01*
X101054Y66130D01*
X101033Y66189D01*
X101015Y66250D01*
X101002Y66311D01*
X100992Y66374D01*
X100986Y66437D01*
X100984Y66500D01*
D11*
X234756Y124325D02*
X234758Y124441D01*
X234764Y124556D01*
X234774Y124672D01*
X234788Y124787D01*
X234806Y124901D01*
X234828Y125015D01*
X234853Y125128D01*
X234883Y125240D01*
X234917Y125350D01*
X234954Y125460D01*
X234995Y125568D01*
X235040Y125675D01*
X235088Y125780D01*
X235140Y125884D01*
X235196Y125985D01*
X235255Y126085D01*
X235317Y126182D01*
X235383Y126278D01*
X235452Y126371D01*
X235524Y126461D01*
X235599Y126549D01*
X235678Y126634D01*
X235759Y126717D01*
X235843Y126797D01*
X235930Y126874D01*
X236019Y126947D01*
X236111Y127018D01*
X236205Y127085D01*
X236301Y127149D01*
X236400Y127210D01*
X236500Y127267D01*
X236603Y127321D01*
X236707Y127372D01*
X236813Y127418D01*
X236921Y127461D01*
X237030Y127500D01*
X237140Y127536D01*
X237251Y127567D01*
X237364Y127595D01*
X237477Y127619D01*
X237591Y127639D01*
X237706Y127655D01*
X237821Y127667D01*
X237936Y127675D01*
X238052Y127679D01*
X238168Y127679D01*
X238284Y127675D01*
X238399Y127667D01*
X238514Y127655D01*
X238629Y127639D01*
X238743Y127619D01*
X238856Y127595D01*
X238969Y127567D01*
X239080Y127536D01*
X239190Y127500D01*
X239299Y127461D01*
X239407Y127418D01*
X239513Y127372D01*
X239617Y127321D01*
X239720Y127267D01*
X239820Y127210D01*
X239919Y127149D01*
X240015Y127085D01*
X240109Y127018D01*
X240201Y126947D01*
X240290Y126874D01*
X240377Y126797D01*
X240461Y126717D01*
X240542Y126634D01*
X240621Y126549D01*
X240696Y126461D01*
X240768Y126371D01*
X240837Y126278D01*
X240903Y126182D01*
X240965Y126085D01*
X241024Y125985D01*
X241080Y125884D01*
X241132Y125780D01*
X241180Y125675D01*
X241225Y125568D01*
X241266Y125460D01*
X241303Y125350D01*
X241337Y125240D01*
X241367Y125128D01*
X241392Y125015D01*
X241414Y124901D01*
X241432Y124787D01*
X241446Y124672D01*
X241456Y124556D01*
X241462Y124441D01*
X241464Y124325D01*
X241462Y124209D01*
X241456Y124094D01*
X241446Y123978D01*
X241432Y123863D01*
X241414Y123749D01*
X241392Y123635D01*
X241367Y123522D01*
X241337Y123410D01*
X241303Y123300D01*
X241266Y123190D01*
X241225Y123082D01*
X241180Y122975D01*
X241132Y122870D01*
X241080Y122766D01*
X241024Y122665D01*
X240965Y122565D01*
X240903Y122468D01*
X240837Y122372D01*
X240768Y122279D01*
X240696Y122189D01*
X240621Y122101D01*
X240542Y122016D01*
X240461Y121933D01*
X240377Y121853D01*
X240290Y121776D01*
X240201Y121703D01*
X240109Y121632D01*
X240015Y121565D01*
X239919Y121501D01*
X239820Y121440D01*
X239720Y121383D01*
X239617Y121329D01*
X239513Y121278D01*
X239407Y121232D01*
X239299Y121189D01*
X239190Y121150D01*
X239080Y121114D01*
X238969Y121083D01*
X238856Y121055D01*
X238743Y121031D01*
X238629Y121011D01*
X238514Y120995D01*
X238399Y120983D01*
X238284Y120975D01*
X238168Y120971D01*
X238052Y120971D01*
X237936Y120975D01*
X237821Y120983D01*
X237706Y120995D01*
X237591Y121011D01*
X237477Y121031D01*
X237364Y121055D01*
X237251Y121083D01*
X237140Y121114D01*
X237030Y121150D01*
X236921Y121189D01*
X236813Y121232D01*
X236707Y121278D01*
X236603Y121329D01*
X236500Y121383D01*
X236400Y121440D01*
X236301Y121501D01*
X236205Y121565D01*
X236111Y121632D01*
X236019Y121703D01*
X235930Y121776D01*
X235843Y121853D01*
X235759Y121933D01*
X235678Y122016D01*
X235599Y122101D01*
X235524Y122189D01*
X235452Y122279D01*
X235383Y122372D01*
X235317Y122468D01*
X235255Y122565D01*
X235196Y122665D01*
X235140Y122766D01*
X235088Y122870D01*
X235040Y122975D01*
X234995Y123082D01*
X234954Y123190D01*
X234917Y123300D01*
X234883Y123410D01*
X234853Y123522D01*
X234828Y123635D01*
X234806Y123749D01*
X234788Y123863D01*
X234774Y123978D01*
X234764Y124094D01*
X234758Y124209D01*
X234756Y124325D01*
X232410Y98425D02*
X263910Y98425D01*
X263910Y129925D01*
X232410Y129925D01*
X232410Y98425D01*
D10*
X142000Y261900D02*
X112000Y261900D01*
X157000Y235900D02*
X157000Y219400D01*
X104500Y219400D02*
X97000Y219400D01*
X97000Y235900D01*
X149500Y219400D02*
X157000Y219400D01*
X150984Y212900D02*
X150986Y212963D01*
X150992Y213026D01*
X151002Y213089D01*
X151015Y213150D01*
X151033Y213211D01*
X151054Y213270D01*
X151079Y213329D01*
X151107Y213385D01*
X151139Y213440D01*
X151174Y213492D01*
X151213Y213542D01*
X151254Y213590D01*
X151299Y213635D01*
X151346Y213677D01*
X151395Y213716D01*
X151447Y213752D01*
X151501Y213785D01*
X151557Y213814D01*
X151615Y213840D01*
X151674Y213862D01*
X151734Y213881D01*
X151796Y213895D01*
X151858Y213906D01*
X151921Y213913D01*
X151984Y213916D01*
X152047Y213915D01*
X152110Y213910D01*
X152173Y213901D01*
X152235Y213888D01*
X152296Y213872D01*
X152356Y213852D01*
X152414Y213828D01*
X152471Y213800D01*
X152526Y213769D01*
X152579Y213735D01*
X152630Y213697D01*
X152678Y213656D01*
X152724Y213613D01*
X152767Y213566D01*
X152807Y213517D01*
X152844Y213466D01*
X152877Y213413D01*
X152907Y213357D01*
X152934Y213300D01*
X152957Y213241D01*
X152976Y213181D01*
X152992Y213119D01*
X153004Y213057D01*
X153012Y212995D01*
X153016Y212932D01*
X153016Y212868D01*
X153012Y212805D01*
X153004Y212743D01*
X152992Y212681D01*
X152976Y212619D01*
X152957Y212559D01*
X152934Y212500D01*
X152907Y212443D01*
X152877Y212387D01*
X152844Y212334D01*
X152807Y212283D01*
X152767Y212234D01*
X152724Y212187D01*
X152678Y212144D01*
X152630Y212103D01*
X152579Y212065D01*
X152526Y212031D01*
X152471Y212000D01*
X152414Y211972D01*
X152356Y211948D01*
X152296Y211928D01*
X152235Y211912D01*
X152173Y211899D01*
X152110Y211890D01*
X152047Y211885D01*
X151984Y211884D01*
X151921Y211887D01*
X151858Y211894D01*
X151796Y211905D01*
X151734Y211919D01*
X151674Y211938D01*
X151615Y211960D01*
X151557Y211986D01*
X151501Y212015D01*
X151447Y212048D01*
X151395Y212084D01*
X151346Y212123D01*
X151299Y212165D01*
X151254Y212210D01*
X151213Y212258D01*
X151174Y212308D01*
X151139Y212360D01*
X151107Y212415D01*
X151079Y212471D01*
X151054Y212530D01*
X151033Y212589D01*
X151015Y212650D01*
X151002Y212711D01*
X150992Y212774D01*
X150986Y212837D01*
X150984Y212900D01*
X292100Y147650D02*
X444500Y147650D01*
X444500Y277650D01*
X292100Y277650D01*
X292100Y147650D01*
X260350Y92710D02*
X234950Y92710D01*
X230378Y76962D02*
X230380Y76829D01*
X230386Y76696D01*
X230395Y76564D01*
X230409Y76431D01*
X230426Y76299D01*
X230447Y76168D01*
X230472Y76037D01*
X230501Y75908D01*
X230534Y75779D01*
X230570Y75651D01*
X230610Y75524D01*
X230654Y75398D01*
X230701Y75274D01*
X230752Y75151D01*
X230806Y75030D01*
X230864Y74910D01*
X230926Y74792D01*
X230991Y74676D01*
X231059Y74562D01*
X231130Y74450D01*
X231205Y74340D01*
X231283Y74232D01*
X231364Y74126D01*
X231448Y74023D01*
X231535Y73923D01*
X231624Y73825D01*
X231717Y73729D01*
X231813Y73636D01*
X231911Y73547D01*
X232011Y73460D01*
X232114Y73376D01*
X232220Y73295D01*
X232328Y73217D01*
X232438Y73142D01*
X232550Y73071D01*
X232664Y73003D01*
X232780Y72938D01*
X232898Y72876D01*
X233018Y72818D01*
X233139Y72764D01*
X233262Y72713D01*
X233386Y72666D01*
X233512Y72622D01*
X233639Y72582D01*
X233767Y72546D01*
X233896Y72513D01*
X234025Y72484D01*
X234156Y72459D01*
X234287Y72438D01*
X234419Y72421D01*
X234552Y72407D01*
X234684Y72398D01*
X234817Y72392D01*
X234950Y72390D01*
X260350Y72390D02*
X260483Y72392D01*
X260616Y72398D01*
X260748Y72407D01*
X260881Y72421D01*
X261013Y72438D01*
X261144Y72459D01*
X261275Y72484D01*
X261404Y72513D01*
X261533Y72546D01*
X261661Y72582D01*
X261788Y72622D01*
X261914Y72666D01*
X262038Y72713D01*
X262161Y72764D01*
X262282Y72818D01*
X262402Y72876D01*
X262520Y72938D01*
X262636Y73003D01*
X262750Y73071D01*
X262862Y73142D01*
X262972Y73217D01*
X263080Y73295D01*
X263186Y73376D01*
X263289Y73460D01*
X263389Y73547D01*
X263487Y73636D01*
X263583Y73729D01*
X263676Y73825D01*
X263765Y73923D01*
X263852Y74023D01*
X263936Y74126D01*
X264017Y74232D01*
X264095Y74340D01*
X264170Y74450D01*
X264241Y74562D01*
X264309Y74676D01*
X264374Y74792D01*
X264436Y74910D01*
X264494Y75030D01*
X264548Y75151D01*
X264599Y75274D01*
X264646Y75398D01*
X264690Y75524D01*
X264730Y75651D01*
X264766Y75779D01*
X264799Y75908D01*
X264828Y76037D01*
X264853Y76168D01*
X264874Y76299D01*
X264891Y76431D01*
X264905Y76564D01*
X264914Y76696D01*
X264920Y76829D01*
X264922Y76962D01*
X264922Y88138D02*
X264920Y88271D01*
X264914Y88404D01*
X264905Y88536D01*
X264891Y88669D01*
X264874Y88801D01*
X264853Y88932D01*
X264828Y89063D01*
X264799Y89192D01*
X264766Y89321D01*
X264730Y89449D01*
X264690Y89576D01*
X264646Y89702D01*
X264599Y89826D01*
X264548Y89949D01*
X264494Y90070D01*
X264436Y90190D01*
X264374Y90308D01*
X264309Y90424D01*
X264241Y90538D01*
X264170Y90650D01*
X264095Y90760D01*
X264017Y90868D01*
X263936Y90974D01*
X263852Y91077D01*
X263765Y91177D01*
X263676Y91275D01*
X263583Y91371D01*
X263487Y91464D01*
X263389Y91553D01*
X263289Y91640D01*
X263186Y91724D01*
X263080Y91805D01*
X262972Y91883D01*
X262862Y91958D01*
X262750Y92029D01*
X262636Y92097D01*
X262520Y92162D01*
X262402Y92224D01*
X262282Y92282D01*
X262161Y92336D01*
X262038Y92387D01*
X261914Y92434D01*
X261788Y92478D01*
X261661Y92518D01*
X261533Y92554D01*
X261404Y92587D01*
X261275Y92616D01*
X261144Y92641D01*
X261013Y92662D01*
X260881Y92679D01*
X260748Y92693D01*
X260616Y92702D01*
X260483Y92708D01*
X260350Y92710D01*
X234950Y92710D02*
X234817Y92708D01*
X234684Y92702D01*
X234552Y92693D01*
X234419Y92679D01*
X234287Y92662D01*
X234156Y92641D01*
X234025Y92616D01*
X233896Y92587D01*
X233767Y92554D01*
X233639Y92518D01*
X233512Y92478D01*
X233386Y92434D01*
X233262Y92387D01*
X233139Y92336D01*
X233018Y92282D01*
X232898Y92224D01*
X232780Y92162D01*
X232664Y92097D01*
X232550Y92029D01*
X232438Y91958D01*
X232328Y91883D01*
X232220Y91805D01*
X232114Y91724D01*
X232011Y91640D01*
X231911Y91553D01*
X231813Y91464D01*
X231717Y91371D01*
X231624Y91275D01*
X231535Y91177D01*
X231448Y91077D01*
X231364Y90974D01*
X231283Y90868D01*
X231205Y90760D01*
X231130Y90650D01*
X231059Y90538D01*
X230991Y90424D01*
X230926Y90308D01*
X230864Y90190D01*
X230806Y90070D01*
X230752Y89949D01*
X230701Y89826D01*
X230654Y89702D01*
X230610Y89576D01*
X230570Y89449D01*
X230534Y89321D01*
X230501Y89192D01*
X230472Y89063D01*
X230447Y88932D01*
X230426Y88801D01*
X230409Y88669D01*
X230395Y88536D01*
X230386Y88404D01*
X230380Y88271D01*
X230378Y88138D01*
X230378Y76962D01*
X264922Y76962D02*
X264922Y88138D01*
X260350Y72390D02*
X234950Y72390D01*
X292100Y130480D02*
X444500Y130480D01*
X292100Y130480D02*
X292100Y480D01*
X444500Y480D01*
X444500Y130480D01*
X88265Y30163D02*
X88265Y20638D01*
X62230Y53340D02*
X62230Y68580D01*
X77978Y48768D02*
X78111Y48770D01*
X78244Y48776D01*
X78376Y48785D01*
X78509Y48799D01*
X78641Y48816D01*
X78772Y48837D01*
X78903Y48862D01*
X79032Y48891D01*
X79161Y48924D01*
X79289Y48960D01*
X79416Y49000D01*
X79542Y49044D01*
X79666Y49091D01*
X79789Y49142D01*
X79910Y49196D01*
X80030Y49254D01*
X80148Y49316D01*
X80264Y49381D01*
X80378Y49449D01*
X80490Y49520D01*
X80600Y49595D01*
X80708Y49673D01*
X80814Y49754D01*
X80917Y49838D01*
X81017Y49925D01*
X81115Y50014D01*
X81211Y50107D01*
X81304Y50203D01*
X81393Y50301D01*
X81480Y50401D01*
X81564Y50504D01*
X81645Y50610D01*
X81723Y50718D01*
X81798Y50828D01*
X81869Y50940D01*
X81937Y51054D01*
X82002Y51170D01*
X82064Y51288D01*
X82122Y51408D01*
X82176Y51529D01*
X82227Y51652D01*
X82274Y51776D01*
X82318Y51902D01*
X82358Y52029D01*
X82394Y52157D01*
X82427Y52286D01*
X82456Y52415D01*
X82481Y52546D01*
X82502Y52677D01*
X82519Y52809D01*
X82533Y52942D01*
X82542Y53074D01*
X82548Y53207D01*
X82550Y53340D01*
X82550Y68580D02*
X82548Y68713D01*
X82542Y68846D01*
X82533Y68978D01*
X82519Y69111D01*
X82502Y69243D01*
X82481Y69374D01*
X82456Y69505D01*
X82427Y69634D01*
X82394Y69763D01*
X82358Y69891D01*
X82318Y70018D01*
X82274Y70144D01*
X82227Y70268D01*
X82176Y70391D01*
X82122Y70512D01*
X82064Y70632D01*
X82002Y70750D01*
X81937Y70866D01*
X81869Y70980D01*
X81798Y71092D01*
X81723Y71202D01*
X81645Y71310D01*
X81564Y71416D01*
X81480Y71519D01*
X81393Y71619D01*
X81304Y71717D01*
X81211Y71813D01*
X81115Y71906D01*
X81017Y71995D01*
X80917Y72082D01*
X80814Y72166D01*
X80708Y72247D01*
X80600Y72325D01*
X80490Y72400D01*
X80378Y72471D01*
X80264Y72539D01*
X80148Y72604D01*
X80030Y72666D01*
X79910Y72724D01*
X79789Y72778D01*
X79666Y72829D01*
X79542Y72876D01*
X79416Y72920D01*
X79289Y72960D01*
X79161Y72996D01*
X79032Y73029D01*
X78903Y73058D01*
X78772Y73083D01*
X78641Y73104D01*
X78509Y73121D01*
X78376Y73135D01*
X78244Y73144D01*
X78111Y73150D01*
X77978Y73152D01*
X66802Y73152D02*
X66669Y73150D01*
X66536Y73144D01*
X66404Y73135D01*
X66271Y73121D01*
X66139Y73104D01*
X66008Y73083D01*
X65877Y73058D01*
X65748Y73029D01*
X65619Y72996D01*
X65491Y72960D01*
X65364Y72920D01*
X65238Y72876D01*
X65114Y72829D01*
X64991Y72778D01*
X64870Y72724D01*
X64750Y72666D01*
X64632Y72604D01*
X64516Y72539D01*
X64402Y72471D01*
X64290Y72400D01*
X64180Y72325D01*
X64072Y72247D01*
X63966Y72166D01*
X63863Y72082D01*
X63763Y71995D01*
X63665Y71906D01*
X63569Y71813D01*
X63476Y71717D01*
X63387Y71619D01*
X63300Y71519D01*
X63216Y71416D01*
X63135Y71310D01*
X63057Y71202D01*
X62982Y71092D01*
X62911Y70980D01*
X62843Y70866D01*
X62778Y70750D01*
X62716Y70632D01*
X62658Y70512D01*
X62604Y70391D01*
X62553Y70268D01*
X62506Y70144D01*
X62462Y70018D01*
X62422Y69891D01*
X62386Y69763D01*
X62353Y69634D01*
X62324Y69505D01*
X62299Y69374D01*
X62278Y69243D01*
X62261Y69111D01*
X62247Y68978D01*
X62238Y68846D01*
X62232Y68713D01*
X62230Y68580D01*
X62230Y53340D02*
X62232Y53207D01*
X62238Y53074D01*
X62247Y52942D01*
X62261Y52809D01*
X62278Y52677D01*
X62299Y52546D01*
X62324Y52415D01*
X62353Y52286D01*
X62386Y52157D01*
X62422Y52029D01*
X62462Y51902D01*
X62506Y51776D01*
X62553Y51652D01*
X62604Y51529D01*
X62658Y51408D01*
X62716Y51288D01*
X62778Y51170D01*
X62843Y51054D01*
X62911Y50940D01*
X62982Y50828D01*
X63057Y50718D01*
X63135Y50610D01*
X63216Y50504D01*
X63300Y50401D01*
X63387Y50301D01*
X63476Y50203D01*
X63569Y50107D01*
X63665Y50014D01*
X63763Y49925D01*
X63863Y49838D01*
X63966Y49754D01*
X64072Y49673D01*
X64180Y49595D01*
X64290Y49520D01*
X64402Y49449D01*
X64516Y49381D01*
X64632Y49316D01*
X64750Y49254D01*
X64870Y49196D01*
X64991Y49142D01*
X65114Y49091D01*
X65238Y49044D01*
X65364Y49000D01*
X65491Y48960D01*
X65619Y48924D01*
X65748Y48891D01*
X65877Y48862D01*
X66008Y48837D01*
X66139Y48816D01*
X66271Y48799D01*
X66404Y48785D01*
X66536Y48776D01*
X66669Y48770D01*
X66802Y48768D01*
X77978Y48768D01*
X77978Y73152D02*
X66802Y73152D01*
X82550Y68580D02*
X82550Y53340D01*
D11*
X101000Y144855D02*
X117000Y144855D01*
X101000Y144855D02*
X101000Y201855D01*
X117000Y201855D01*
X137000Y201855D02*
X153000Y201855D01*
X153000Y144855D01*
X137000Y144855D01*
D10*
X117000Y134380D02*
X117000Y133880D01*
X117000Y134380D02*
X123500Y134380D01*
X130500Y134380D02*
X137000Y134380D01*
X137000Y133880D01*
X137000Y108880D02*
X137000Y104380D01*
X135500Y104380D01*
X118500Y104380D02*
X117000Y104380D01*
X117000Y108880D01*
X112484Y136880D02*
X112486Y136943D01*
X112492Y137006D01*
X112502Y137069D01*
X112515Y137130D01*
X112533Y137191D01*
X112554Y137250D01*
X112579Y137309D01*
X112607Y137365D01*
X112639Y137420D01*
X112674Y137472D01*
X112713Y137522D01*
X112754Y137570D01*
X112799Y137615D01*
X112846Y137657D01*
X112895Y137696D01*
X112947Y137732D01*
X113001Y137765D01*
X113057Y137794D01*
X113115Y137820D01*
X113174Y137842D01*
X113234Y137861D01*
X113296Y137875D01*
X113358Y137886D01*
X113421Y137893D01*
X113484Y137896D01*
X113547Y137895D01*
X113610Y137890D01*
X113673Y137881D01*
X113735Y137868D01*
X113796Y137852D01*
X113856Y137832D01*
X113914Y137808D01*
X113971Y137780D01*
X114026Y137749D01*
X114079Y137715D01*
X114130Y137677D01*
X114178Y137636D01*
X114224Y137593D01*
X114267Y137546D01*
X114307Y137497D01*
X114344Y137446D01*
X114377Y137393D01*
X114407Y137337D01*
X114434Y137280D01*
X114457Y137221D01*
X114476Y137161D01*
X114492Y137099D01*
X114504Y137037D01*
X114512Y136975D01*
X114516Y136912D01*
X114516Y136848D01*
X114512Y136785D01*
X114504Y136723D01*
X114492Y136661D01*
X114476Y136599D01*
X114457Y136539D01*
X114434Y136480D01*
X114407Y136423D01*
X114377Y136367D01*
X114344Y136314D01*
X114307Y136263D01*
X114267Y136214D01*
X114224Y136167D01*
X114178Y136124D01*
X114130Y136083D01*
X114079Y136045D01*
X114026Y136011D01*
X113971Y135980D01*
X113914Y135952D01*
X113856Y135928D01*
X113796Y135908D01*
X113735Y135892D01*
X113673Y135879D01*
X113610Y135870D01*
X113547Y135865D01*
X113484Y135864D01*
X113421Y135867D01*
X113358Y135874D01*
X113296Y135885D01*
X113234Y135899D01*
X113174Y135918D01*
X113115Y135940D01*
X113057Y135966D01*
X113001Y135995D01*
X112947Y136028D01*
X112895Y136064D01*
X112846Y136103D01*
X112799Y136145D01*
X112754Y136190D01*
X112713Y136238D01*
X112674Y136288D01*
X112639Y136340D01*
X112607Y136395D01*
X112579Y136451D01*
X112554Y136510D01*
X112533Y136569D01*
X112515Y136630D01*
X112502Y136691D01*
X112492Y136754D01*
X112486Y136817D01*
X112484Y136880D01*
D11*
X219780Y232000D02*
X282780Y232000D01*
X282780Y149000D02*
X219780Y149000D01*
X201280Y195500D02*
X201280Y213500D01*
X201280Y185500D02*
X201280Y167500D01*
X219780Y149000D01*
X201280Y213500D02*
X219780Y232000D01*
X282780Y232000D02*
X282780Y196000D01*
X282780Y185000D02*
X282780Y149000D01*
M02*
