G04 EAGLE Gerber RS-274X export*
G75*
%MOMM*%
%FSLAX34Y34*%
%LPD*%
%INSilkscreen Bottom*%
%IPPOS*%
%AMOC8*
5,1,8,0,0,1.08239X$1,22.5*%
G01*
%ADD10C,0.203200*%
%ADD11R,5.790000X0.040000*%
%ADD12R,8.590000X0.040000*%
%ADD13R,9.200000X0.030000*%
%ADD14R,9.570000X0.040000*%
%ADD15R,9.870000X0.040000*%
%ADD16R,10.060000X0.040000*%
%ADD17R,10.210000X0.030000*%
%ADD18R,10.130000X0.040000*%
%ADD19R,10.210000X0.040000*%
%ADD20R,10.240000X0.040000*%
%ADD21R,10.320000X0.040000*%
%ADD22R,10.400000X0.030000*%
%ADD23R,10.430000X0.040000*%
%ADD24R,10.470000X0.030000*%
%ADD25R,10.500000X0.040000*%
%ADD26R,10.540000X0.040000*%
%ADD27R,10.580000X0.030000*%
%ADD28R,10.580000X0.040000*%
%ADD29R,10.650000X0.040000*%
%ADD30R,10.690000X0.040000*%
%ADD31R,10.690000X0.030000*%
%ADD32R,10.730000X0.040000*%
%ADD33R,1.010000X0.040000*%
%ADD34R,0.300000X0.040000*%
%ADD35R,0.080000X0.040000*%
%ADD36R,0.600000X0.040000*%
%ADD37R,0.560000X0.040000*%
%ADD38R,0.120000X0.040000*%
%ADD39R,0.670000X0.040000*%
%ADD40R,0.190000X0.040000*%
%ADD41R,2.960000X0.040000*%
%ADD42R,0.900000X0.030000*%
%ADD43R,0.190000X0.030000*%
%ADD44R,0.080000X0.030000*%
%ADD45R,0.560000X0.030000*%
%ADD46R,0.040000X0.030000*%
%ADD47R,0.150000X0.030000*%
%ADD48R,2.840000X0.030000*%
%ADD49R,0.830000X0.040000*%
%ADD50R,0.150000X0.040000*%
%ADD51R,0.520000X0.040000*%
%ADD52R,0.490000X0.040000*%
%ADD53R,2.840000X0.040000*%
%ADD54R,0.750000X0.040000*%
%ADD55R,0.410000X0.040000*%
%ADD56R,2.800000X0.040000*%
%ADD57R,0.710000X0.040000*%
%ADD58R,0.040000X0.040000*%
%ADD59R,0.480000X0.040000*%
%ADD60R,0.110000X0.040000*%
%ADD61R,0.340000X0.040000*%
%ADD62R,2.770000X0.040000*%
%ADD63R,0.680000X0.030000*%
%ADD64R,0.440000X0.030000*%
%ADD65R,0.490000X0.030000*%
%ADD66R,0.110000X0.030000*%
%ADD67R,0.300000X0.030000*%
%ADD68R,0.410000X0.030000*%
%ADD69R,2.810000X0.030000*%
%ADD70R,0.640000X0.040000*%
%ADD71R,0.440000X0.040000*%
%ADD72R,0.230000X0.040000*%
%ADD73R,0.630000X0.030000*%
%ADD74R,0.230000X0.030000*%
%ADD75R,0.590000X0.040000*%
%ADD76R,0.380000X0.040000*%
%ADD77R,0.330000X0.040000*%
%ADD78R,1.650000X0.040000*%
%ADD79R,0.780000X0.040000*%
%ADD80R,0.290000X0.040000*%
%ADD81R,0.340000X0.030000*%
%ADD82R,0.330000X0.030000*%
%ADD83R,0.600000X0.030000*%
%ADD84R,0.260000X0.030000*%
%ADD85R,0.420000X0.040000*%
%ADD86R,0.270000X0.040000*%
%ADD87R,0.260000X0.040000*%
%ADD88R,0.450000X0.040000*%
%ADD89R,0.220000X0.040000*%
%ADD90R,0.180000X0.040000*%
%ADD91R,0.520000X0.030000*%
%ADD92R,0.220000X0.030000*%
%ADD93R,0.670000X0.030000*%
%ADD94R,1.310000X0.040000*%
%ADD95R,0.070000X0.040000*%
%ADD96R,0.370000X0.040000*%
%ADD97R,0.640000X0.030000*%
%ADD98R,0.070000X0.030000*%
%ADD99R,1.350000X0.030000*%
%ADD100R,1.280000X0.040000*%
%ADD101R,1.160000X0.040000*%
%ADD102R,0.030000X0.040000*%
%ADD103R,0.980000X0.040000*%
%ADD104R,0.030000X0.030000*%
%ADD105R,0.380000X0.030000*%
%ADD106R,0.890000X0.030000*%
%ADD107R,0.630000X0.040000*%
%ADD108R,0.420000X0.030000*%
%ADD109R,0.450000X0.030000*%
%ADD110R,0.270000X0.030000*%
%ADD111R,0.710000X0.030000*%
%ADD112R,0.860000X0.040000*%
%ADD113R,0.930000X0.030000*%
%ADD114R,0.930000X0.040000*%
%ADD115R,0.530000X0.040000*%
%ADD116R,0.750000X0.030000*%
%ADD117R,0.530000X0.030000*%
%ADD118R,0.370000X0.030000*%
%ADD119R,0.820000X0.040000*%
%ADD120R,0.900000X0.040000*%
%ADD121R,0.970000X0.030000*%
%ADD122R,0.180000X0.030000*%
%ADD123R,1.050000X0.040000*%
%ADD124R,4.640000X0.040000*%
%ADD125R,1.040000X0.040000*%
%ADD126R,1.760000X0.040000*%
%ADD127R,9.160000X0.040000*%
%ADD128R,1.760000X0.030000*%
%ADD129R,9.160000X0.030000*%
%ADD130R,11.400000X0.040000*%
%ADD131R,11.400000X0.030000*%
%ADD132R,8.900000X0.040000*%
%ADD133R,1.380000X0.040000*%
%ADD134R,8.670000X0.030000*%
%ADD135R,1.230000X0.030000*%
%ADD136R,8.600000X0.040000*%
%ADD137R,8.560000X0.040000*%
%ADD138R,1.120000X0.040000*%
%ADD139R,8.520000X0.040000*%
%ADD140R,1.080000X0.040000*%
%ADD141R,8.480000X0.030000*%
%ADD142R,1.270000X0.030000*%
%ADD143R,1.040000X0.030000*%
%ADD144R,8.450000X0.040000*%
%ADD145R,1.420000X0.040000*%
%ADD146R,1.500000X0.040000*%
%ADD147R,2.170000X0.040000*%
%ADD148R,5.570000X0.040000*%
%ADD149R,1.570000X0.040000*%
%ADD150R,0.970000X0.040000*%
%ADD151R,1.420000X0.030000*%
%ADD152R,5.160000X0.030000*%
%ADD153R,1.230000X0.040000*%
%ADD154R,5.010000X0.040000*%
%ADD155R,4.930000X0.040000*%
%ADD156R,0.890000X0.040000*%
%ADD157R,1.080000X0.030000*%
%ADD158R,4.860000X0.030000*%
%ADD159R,4.820000X0.040000*%
%ADD160R,4.750000X0.040000*%
%ADD161R,4.710000X0.040000*%
%ADD162R,4.640000X0.030000*%
%ADD163R,0.480000X0.030000*%
%ADD164R,0.820000X0.030000*%
%ADD165R,4.600000X0.040000*%
%ADD166R,4.520000X0.040000*%
%ADD167R,4.480000X0.040000*%
%ADD168R,0.740000X0.030000*%
%ADD169R,4.410000X0.030000*%
%ADD170R,0.740000X0.040000*%
%ADD171R,4.330000X0.040000*%
%ADD172R,4.290000X0.040000*%
%ADD173R,4.110000X0.040000*%
%ADD174R,0.570000X0.030000*%
%ADD175R,0.570000X0.040000*%
%ADD176R,1.190000X0.040000*%
%ADD177R,1.190000X0.030000*%
%ADD178R,0.940000X0.030000*%
%ADD179R,1.130000X0.040000*%
%ADD180R,0.590000X0.030000*%
%ADD181R,0.680000X0.040000*%
%ADD182R,1.830000X0.040000*%
%ADD183R,1.870000X0.040000*%
%ADD184R,1.800000X0.040000*%
%ADD185R,1.840000X0.040000*%
%ADD186R,1.720000X0.030000*%
%ADD187R,1.640000X0.040000*%
%ADD188R,1.540000X0.040000*%
%ADD189R,1.340000X0.040000*%
%ADD190R,1.270000X0.040000*%
%ADD191C,0.152400*%

G36*
X142425Y18030D02*
X142425Y18030D01*
X142481Y18030D01*
X142509Y18045D01*
X142541Y18050D01*
X142600Y18090D01*
X142636Y18108D01*
X142645Y18120D01*
X142661Y18131D01*
X146969Y22439D01*
X146986Y22466D01*
X147010Y22487D01*
X147031Y22539D01*
X147060Y22586D01*
X147063Y22618D01*
X147075Y22648D01*
X147072Y22703D01*
X147077Y22759D01*
X147065Y22789D01*
X147063Y22821D01*
X147029Y22884D01*
X147015Y22921D01*
X147004Y22931D01*
X146995Y22948D01*
X142028Y29039D01*
X143217Y31349D01*
X143224Y31375D01*
X143241Y31407D01*
X144033Y33881D01*
X151852Y34675D01*
X151883Y34685D01*
X151915Y34686D01*
X151964Y34713D01*
X152016Y34731D01*
X152039Y34754D01*
X152067Y34769D01*
X152099Y34815D01*
X152138Y34854D01*
X152148Y34885D01*
X152167Y34911D01*
X152180Y34981D01*
X152193Y35019D01*
X152191Y35034D01*
X152194Y35053D01*
X152194Y41147D01*
X152187Y41178D01*
X152189Y41210D01*
X152167Y41261D01*
X152155Y41316D01*
X152134Y41340D01*
X152122Y41370D01*
X152080Y41406D01*
X152045Y41449D01*
X152015Y41462D01*
X151991Y41483D01*
X151922Y41504D01*
X151886Y41520D01*
X151871Y41520D01*
X151852Y41525D01*
X144033Y42319D01*
X143241Y44793D01*
X143228Y44816D01*
X143217Y44851D01*
X142028Y47161D01*
X146995Y53252D01*
X147009Y53280D01*
X147030Y53304D01*
X147046Y53357D01*
X147071Y53407D01*
X147071Y53439D01*
X147080Y53470D01*
X147070Y53525D01*
X147070Y53581D01*
X147055Y53609D01*
X147050Y53641D01*
X147010Y53700D01*
X146992Y53736D01*
X146980Y53745D01*
X146969Y53761D01*
X142661Y58069D01*
X142634Y58086D01*
X142613Y58110D01*
X142561Y58131D01*
X142514Y58160D01*
X142482Y58163D01*
X142452Y58175D01*
X142397Y58172D01*
X142341Y58177D01*
X142311Y58165D01*
X142279Y58163D01*
X142216Y58129D01*
X142179Y58115D01*
X142169Y58104D01*
X142152Y58095D01*
X136061Y53128D01*
X133751Y54317D01*
X133725Y54324D01*
X133693Y54341D01*
X131219Y55133D01*
X130425Y62952D01*
X130417Y62978D01*
X130416Y62990D01*
X130415Y62993D01*
X130414Y63015D01*
X130387Y63064D01*
X130369Y63116D01*
X130346Y63139D01*
X130331Y63167D01*
X130285Y63199D01*
X130246Y63238D01*
X130215Y63248D01*
X130189Y63267D01*
X130119Y63280D01*
X130081Y63293D01*
X130066Y63291D01*
X130047Y63294D01*
X123953Y63294D01*
X123922Y63287D01*
X123890Y63289D01*
X123839Y63267D01*
X123784Y63255D01*
X123760Y63234D01*
X123730Y63222D01*
X123694Y63180D01*
X123651Y63145D01*
X123638Y63115D01*
X123617Y63091D01*
X123596Y63022D01*
X123580Y62986D01*
X123580Y62971D01*
X123578Y62964D01*
X123577Y62962D01*
X123577Y62961D01*
X123575Y62952D01*
X122781Y55133D01*
X120307Y54341D01*
X120284Y54328D01*
X120249Y54317D01*
X117939Y53128D01*
X111848Y58095D01*
X111820Y58109D01*
X111796Y58130D01*
X111743Y58146D01*
X111693Y58171D01*
X111661Y58171D01*
X111630Y58180D01*
X111575Y58170D01*
X111519Y58170D01*
X111491Y58155D01*
X111459Y58150D01*
X111400Y58110D01*
X111365Y58092D01*
X111355Y58080D01*
X111339Y58069D01*
X107031Y53761D01*
X107014Y53734D01*
X106990Y53713D01*
X106969Y53661D01*
X106940Y53614D01*
X106937Y53582D01*
X106925Y53552D01*
X106929Y53497D01*
X106923Y53441D01*
X106935Y53411D01*
X106937Y53379D01*
X106971Y53316D01*
X106985Y53279D01*
X106996Y53269D01*
X107005Y53252D01*
X111972Y47161D01*
X110783Y44851D01*
X110776Y44825D01*
X110759Y44793D01*
X109967Y42319D01*
X102148Y41525D01*
X102117Y41515D01*
X102085Y41514D01*
X102036Y41487D01*
X101984Y41469D01*
X101961Y41446D01*
X101933Y41431D01*
X101901Y41385D01*
X101862Y41346D01*
X101852Y41315D01*
X101833Y41289D01*
X101820Y41219D01*
X101807Y41181D01*
X101809Y41166D01*
X101806Y41147D01*
X101806Y35053D01*
X101813Y35022D01*
X101811Y34990D01*
X101833Y34939D01*
X101845Y34884D01*
X101866Y34860D01*
X101878Y34830D01*
X101920Y34794D01*
X101955Y34751D01*
X101985Y34738D01*
X102009Y34717D01*
X102078Y34696D01*
X102114Y34680D01*
X102129Y34680D01*
X102148Y34675D01*
X109967Y33881D01*
X110759Y31407D01*
X110772Y31384D01*
X110783Y31349D01*
X111972Y29039D01*
X107005Y22948D01*
X106991Y22920D01*
X106970Y22896D01*
X106954Y22843D01*
X106929Y22793D01*
X106929Y22761D01*
X106920Y22730D01*
X106930Y22675D01*
X106930Y22619D01*
X106945Y22591D01*
X106950Y22559D01*
X106990Y22500D01*
X107008Y22465D01*
X107020Y22455D01*
X107031Y22439D01*
X111339Y18131D01*
X111366Y18114D01*
X111387Y18090D01*
X111439Y18069D01*
X111486Y18040D01*
X111518Y18037D01*
X111548Y18025D01*
X111603Y18029D01*
X111659Y18023D01*
X111689Y18035D01*
X111721Y18037D01*
X111784Y18071D01*
X111821Y18085D01*
X111831Y18096D01*
X111848Y18105D01*
X117939Y23072D01*
X120248Y21882D01*
X120312Y21866D01*
X120375Y21843D01*
X120396Y21845D01*
X120416Y21840D01*
X120481Y21854D01*
X120547Y21861D01*
X120565Y21872D01*
X120585Y21877D01*
X120637Y21918D01*
X120693Y21954D01*
X120706Y21973D01*
X120721Y21985D01*
X120737Y22020D01*
X120773Y22074D01*
X124361Y30736D01*
X124366Y30768D01*
X124380Y30796D01*
X124380Y30852D01*
X124389Y30907D01*
X124380Y30938D01*
X124380Y30969D01*
X124355Y31020D01*
X124339Y31073D01*
X124317Y31096D01*
X124303Y31125D01*
X124247Y31171D01*
X124220Y31199D01*
X124206Y31204D01*
X124191Y31217D01*
X122814Y31961D01*
X121648Y32945D01*
X120708Y34147D01*
X120034Y35515D01*
X119653Y36993D01*
X119581Y38517D01*
X119823Y40023D01*
X120367Y41449D01*
X121191Y42733D01*
X122260Y43822D01*
X123528Y44670D01*
X124943Y45240D01*
X126445Y45510D01*
X127970Y45467D01*
X129454Y45114D01*
X130835Y44464D01*
X132054Y43547D01*
X133060Y42400D01*
X133811Y41071D01*
X134274Y39618D01*
X134431Y38099D01*
X134288Y36650D01*
X133865Y35256D01*
X133179Y33972D01*
X132255Y32846D01*
X131129Y31922D01*
X129811Y31217D01*
X129786Y31196D01*
X129757Y31182D01*
X129722Y31139D01*
X129681Y31103D01*
X129668Y31073D01*
X129648Y31048D01*
X129636Y30994D01*
X129615Y30943D01*
X129617Y30910D01*
X129610Y30878D01*
X129624Y30809D01*
X129627Y30770D01*
X129635Y30756D01*
X129639Y30736D01*
X133227Y22074D01*
X133266Y22020D01*
X133298Y21963D01*
X133315Y21951D01*
X133328Y21934D01*
X133386Y21903D01*
X133441Y21865D01*
X133462Y21862D01*
X133481Y21852D01*
X133547Y21851D01*
X133613Y21841D01*
X133636Y21848D01*
X133654Y21847D01*
X133689Y21864D01*
X133752Y21882D01*
X136061Y23072D01*
X142152Y18105D01*
X142180Y18091D01*
X142204Y18070D01*
X142257Y18054D01*
X142307Y18029D01*
X142339Y18029D01*
X142370Y18020D01*
X142425Y18030D01*
G37*
G36*
X247718Y196449D02*
X247718Y196449D01*
X247730Y196446D01*
X248130Y196746D01*
X248134Y196762D01*
X248141Y196767D01*
X248137Y196773D01*
X248139Y196777D01*
X248149Y196785D01*
X248149Y244785D01*
X248113Y244832D01*
X248110Y244830D01*
X248108Y244834D01*
X247508Y244934D01*
X247503Y244931D01*
X247500Y244934D01*
X234600Y244934D01*
X234553Y244898D01*
X234554Y244896D01*
X234552Y244895D01*
X234452Y244395D01*
X234455Y244388D01*
X234451Y244385D01*
X234451Y196885D01*
X234464Y196867D01*
X234461Y196855D01*
X234761Y196455D01*
X234792Y196447D01*
X234800Y196436D01*
X247700Y196436D01*
X247718Y196449D01*
G37*
G36*
X374713Y226245D02*
X374713Y226245D01*
X374722Y226241D01*
X375122Y226441D01*
X375132Y226462D01*
X375141Y226469D01*
X375138Y226473D01*
X375141Y226478D01*
X375149Y226485D01*
X375149Y272985D01*
X375142Y272994D01*
X375147Y273001D01*
X374947Y273601D01*
X374903Y273631D01*
X374900Y273634D01*
X362100Y273634D01*
X362091Y273627D01*
X362084Y273632D01*
X361484Y273432D01*
X361454Y273388D01*
X361451Y273385D01*
X361451Y226685D01*
X361464Y226667D01*
X361461Y226655D01*
X361761Y226255D01*
X361792Y226247D01*
X361800Y226236D01*
X374700Y226236D01*
X374713Y226245D01*
G37*
G36*
X222109Y198178D02*
X222109Y198178D01*
X222116Y198173D01*
X222716Y198373D01*
X222734Y198401D01*
X222738Y198404D01*
X222737Y198405D01*
X222746Y198417D01*
X222749Y198420D01*
X222749Y245120D01*
X222736Y245138D01*
X222739Y245150D01*
X222439Y245550D01*
X222408Y245559D01*
X222400Y245569D01*
X209500Y245569D01*
X209487Y245560D01*
X209478Y245564D01*
X209078Y245364D01*
X209060Y245327D01*
X209051Y245320D01*
X209051Y198820D01*
X209058Y198811D01*
X209053Y198804D01*
X209253Y198204D01*
X209297Y198174D01*
X209300Y198171D01*
X222100Y198171D01*
X222109Y198178D01*
G37*
G36*
X209755Y95804D02*
X209755Y95804D01*
X209758Y95801D01*
X210358Y95901D01*
X211057Y96001D01*
X211061Y96005D01*
X211064Y96003D01*
X211764Y96203D01*
X211765Y96204D01*
X211766Y96203D01*
X212366Y96403D01*
X212369Y96408D01*
X212372Y96406D01*
X212972Y96706D01*
X212974Y96710D01*
X212977Y96709D01*
X213577Y97109D01*
X213578Y97112D01*
X213581Y97112D01*
X214081Y97512D01*
X214082Y97516D01*
X214085Y97515D01*
X214585Y98015D01*
X214585Y98019D01*
X214588Y98019D01*
X214988Y98519D01*
X214989Y98523D01*
X214991Y98523D01*
X215391Y99123D01*
X215391Y99127D01*
X215394Y99128D01*
X215994Y100328D01*
X215993Y100333D01*
X215997Y100334D01*
X216197Y100934D01*
X216195Y100941D01*
X216199Y100943D01*
X216399Y102343D01*
X216396Y102348D01*
X216399Y102350D01*
X216399Y139650D01*
X216396Y139655D01*
X216399Y139658D01*
X216299Y140258D01*
X216199Y140957D01*
X216195Y140961D01*
X216197Y140964D01*
X215997Y141664D01*
X215992Y141668D01*
X215994Y141672D01*
X215394Y142872D01*
X215387Y142875D01*
X215388Y142881D01*
X214988Y143381D01*
X214988Y143382D01*
X214488Y143982D01*
X214484Y143982D01*
X214485Y143985D01*
X214085Y144385D01*
X214078Y144386D01*
X214077Y144391D01*
X213479Y144790D01*
X212981Y145188D01*
X212973Y145189D01*
X212972Y145194D01*
X212372Y145494D01*
X212370Y145494D01*
X212369Y145495D01*
X211669Y145795D01*
X211661Y145793D01*
X211658Y145799D01*
X211061Y145898D01*
X210364Y146097D01*
X210354Y146094D01*
X210350Y146099D01*
X208950Y146099D01*
X208945Y146096D01*
X208942Y146099D01*
X208342Y145999D01*
X208339Y145995D01*
X208336Y145997D01*
X207636Y145797D01*
X207635Y145796D01*
X207634Y145797D01*
X207034Y145597D01*
X207031Y145592D01*
X207028Y145594D01*
X205828Y144994D01*
X205826Y144990D01*
X205823Y144991D01*
X205223Y144591D01*
X205220Y144584D01*
X205215Y144585D01*
X204715Y144085D01*
X204715Y144081D01*
X204712Y144081D01*
X203912Y143081D01*
X203911Y143077D01*
X203909Y143077D01*
X203509Y142477D01*
X203509Y142473D01*
X203506Y142472D01*
X203206Y141872D01*
X203207Y141867D01*
X203203Y141866D01*
X203003Y141266D01*
X203004Y141264D01*
X203003Y141264D01*
X202963Y141124D01*
X202949Y141075D01*
X202907Y140927D01*
X202864Y140779D01*
X202850Y140730D01*
X202808Y140582D01*
X202803Y140564D01*
X202806Y140554D01*
X202801Y140550D01*
X202801Y139854D01*
X202701Y139258D01*
X202704Y139254D01*
X202703Y139253D01*
X202703Y139252D01*
X202701Y139250D01*
X202701Y102650D01*
X202704Y102646D01*
X202701Y102643D01*
X202801Y101943D01*
X202802Y101942D01*
X202801Y101942D01*
X202901Y101342D01*
X203001Y100643D01*
X203006Y100638D01*
X203003Y100634D01*
X203203Y100034D01*
X203208Y100031D01*
X203206Y100028D01*
X203506Y99428D01*
X203510Y99426D01*
X203509Y99423D01*
X204309Y98223D01*
X204316Y98220D01*
X204315Y98215D01*
X204815Y97715D01*
X204819Y97715D01*
X204819Y97712D01*
X205819Y96912D01*
X205827Y96911D01*
X205828Y96906D01*
X207028Y96306D01*
X207035Y96307D01*
X207036Y96303D01*
X207735Y96103D01*
X208334Y95903D01*
X208341Y95905D01*
X208343Y95901D01*
X209043Y95801D01*
X209048Y95804D01*
X209050Y95801D01*
X209750Y95801D01*
X209755Y95804D01*
G37*
G36*
X374611Y2959D02*
X374611Y2959D01*
X374618Y2954D01*
X375118Y3154D01*
X375133Y3178D01*
X375140Y3184D01*
X375138Y3187D01*
X375143Y3195D01*
X375149Y3200D01*
X375149Y47200D01*
X375120Y47238D01*
X375118Y47246D01*
X374618Y47446D01*
X374605Y47442D01*
X374600Y47449D01*
X361700Y47449D01*
X361667Y47424D01*
X361656Y47422D01*
X361456Y47022D01*
X361459Y47006D01*
X361451Y47000D01*
X361451Y3400D01*
X361464Y3382D01*
X361461Y3370D01*
X361761Y2970D01*
X361792Y2962D01*
X361800Y2951D01*
X374600Y2951D01*
X374611Y2959D01*
G37*
G36*
X55842Y132755D02*
X55842Y132755D01*
X55851Y132752D01*
X56551Y132852D01*
X56562Y132858D01*
X56571Y132857D01*
X57271Y133057D01*
X57274Y133059D01*
X57277Y133058D01*
X58477Y133458D01*
X58496Y133474D01*
X58513Y133476D01*
X59105Y133871D01*
X59697Y134167D01*
X59717Y134188D01*
X59736Y134194D01*
X60736Y135194D01*
X60740Y135204D01*
X60747Y135207D01*
X61147Y135707D01*
X61152Y135725D01*
X61164Y135733D01*
X62064Y137533D01*
X62066Y137562D01*
X62078Y137579D01*
X62176Y138269D01*
X62374Y138959D01*
X62371Y138984D01*
X62379Y139000D01*
X62379Y140300D01*
X62375Y140312D01*
X62378Y140321D01*
X62278Y141021D01*
X62270Y141035D01*
X62272Y141047D01*
X62073Y141644D01*
X61874Y142341D01*
X61863Y142354D01*
X61864Y142367D01*
X61264Y143567D01*
X61254Y143575D01*
X61252Y143586D01*
X61248Y143588D01*
X61247Y143593D01*
X60847Y144093D01*
X60838Y144098D01*
X60836Y144106D01*
X59836Y145106D01*
X59819Y145113D01*
X59813Y145124D01*
X59213Y145524D01*
X59209Y145525D01*
X59207Y145528D01*
X58707Y145828D01*
X58695Y145830D01*
X58689Y145837D01*
X57989Y146137D01*
X57981Y146137D01*
X57977Y146142D01*
X57377Y146342D01*
X57373Y146341D01*
X57371Y146344D01*
X56671Y146544D01*
X56661Y146543D01*
X56655Y146547D01*
X56055Y146647D01*
X56040Y146644D01*
X56030Y146649D01*
X55530Y146649D01*
X55524Y146647D01*
X55518Y146649D01*
X55500Y146638D01*
X55481Y146630D01*
X55449Y146640D01*
X55430Y146649D01*
X24330Y146649D01*
X24318Y146645D01*
X24309Y146648D01*
X22909Y146448D01*
X22895Y146440D01*
X22883Y146442D01*
X22283Y146242D01*
X22273Y146233D01*
X22263Y146234D01*
X21063Y145634D01*
X21056Y145625D01*
X21047Y145624D01*
X20447Y145224D01*
X20443Y145218D01*
X20437Y145217D01*
X19937Y144817D01*
X19932Y144808D01*
X19924Y144806D01*
X19424Y144306D01*
X19417Y144289D01*
X19406Y144283D01*
X19009Y143688D01*
X18613Y143193D01*
X18608Y143175D01*
X18597Y143167D01*
X18297Y142567D01*
X18295Y142550D01*
X18287Y142541D01*
X18087Y141844D01*
X17888Y141247D01*
X17889Y141231D01*
X17882Y141221D01*
X17682Y139821D01*
X17689Y139794D01*
X17683Y139775D01*
X17781Y139188D01*
X17781Y138500D01*
X17790Y138476D01*
X17787Y138459D01*
X17987Y137759D01*
X17989Y137756D01*
X17988Y137753D01*
X18188Y137153D01*
X18197Y137143D01*
X18197Y137133D01*
X18797Y135933D01*
X18805Y135926D01*
X18806Y135917D01*
X19206Y135317D01*
X19220Y135307D01*
X19224Y135294D01*
X19724Y134794D01*
X19734Y134790D01*
X19737Y134783D01*
X20737Y133983D01*
X20744Y133981D01*
X20747Y133976D01*
X21347Y133576D01*
X21358Y133573D01*
X21363Y133567D01*
X21963Y133267D01*
X21980Y133265D01*
X21989Y133257D01*
X22686Y133057D01*
X23283Y132858D01*
X23312Y132860D01*
X23330Y132851D01*
X24019Y132851D01*
X24709Y132752D01*
X24721Y132755D01*
X24730Y132751D01*
X55830Y132751D01*
X55842Y132755D01*
G37*
G36*
X52802Y107355D02*
X52802Y107355D01*
X52811Y107352D01*
X53501Y107451D01*
X54190Y107451D01*
X54217Y107461D01*
X54237Y107458D01*
X54834Y107657D01*
X55531Y107857D01*
X55544Y107867D01*
X55557Y107867D01*
X56157Y108167D01*
X56164Y108175D01*
X56173Y108176D01*
X56773Y108576D01*
X56777Y108582D01*
X56779Y108583D01*
X56783Y108583D01*
X57783Y109383D01*
X57788Y109392D01*
X57796Y109394D01*
X58296Y109894D01*
X58303Y109911D01*
X58314Y109917D01*
X58714Y110517D01*
X58715Y110521D01*
X58718Y110523D01*
X59018Y111023D01*
X59019Y111030D01*
X59024Y111033D01*
X59324Y111633D01*
X59325Y111650D01*
X59334Y111659D01*
X59532Y112355D01*
X59732Y112953D01*
X59731Y112969D01*
X59738Y112979D01*
X59838Y113679D01*
X59835Y113691D01*
X59839Y113700D01*
X59839Y115100D01*
X59829Y115127D01*
X59832Y115147D01*
X59636Y115734D01*
X59538Y116421D01*
X59523Y116447D01*
X59524Y116467D01*
X58624Y118267D01*
X58609Y118280D01*
X58607Y118293D01*
X58207Y118793D01*
X58198Y118798D01*
X58196Y118806D01*
X57196Y119806D01*
X57169Y119817D01*
X57157Y119834D01*
X56565Y120129D01*
X55973Y120524D01*
X55949Y120529D01*
X55937Y120542D01*
X54737Y120942D01*
X54733Y120941D01*
X54731Y120944D01*
X54031Y121144D01*
X54019Y121142D01*
X54011Y121148D01*
X53311Y121248D01*
X53299Y121245D01*
X53290Y121249D01*
X52990Y121249D01*
X52983Y121246D01*
X52975Y121249D01*
X52956Y121236D01*
X52942Y121231D01*
X52913Y121238D01*
X52890Y121249D01*
X24490Y121249D01*
X24478Y121245D01*
X24469Y121248D01*
X23769Y121148D01*
X23755Y121140D01*
X23743Y121142D01*
X23146Y120943D01*
X22449Y120744D01*
X22446Y120741D01*
X22443Y120742D01*
X21843Y120542D01*
X21824Y120526D01*
X21807Y120524D01*
X21207Y120124D01*
X21203Y120118D01*
X21197Y120117D01*
X20197Y119317D01*
X20192Y119308D01*
X20184Y119306D01*
X19684Y118806D01*
X19680Y118796D01*
X19673Y118793D01*
X19273Y118293D01*
X19271Y118286D01*
X19266Y118283D01*
X18866Y117683D01*
X18863Y117672D01*
X18857Y117667D01*
X18557Y117067D01*
X18555Y117050D01*
X18547Y117041D01*
X18347Y116344D01*
X18148Y115747D01*
X18149Y115733D01*
X18146Y115726D01*
X18142Y115721D01*
X18042Y115021D01*
X18045Y115009D01*
X18041Y115000D01*
X18041Y113700D01*
X18045Y113688D01*
X18042Y113679D01*
X18142Y112979D01*
X18148Y112968D01*
X18147Y112959D01*
X18347Y112259D01*
X18349Y112256D01*
X18348Y112253D01*
X18548Y111653D01*
X18557Y111643D01*
X18557Y111633D01*
X19157Y110433D01*
X19171Y110420D01*
X19173Y110407D01*
X19573Y109907D01*
X19582Y109902D01*
X19584Y109894D01*
X20584Y108894D01*
X20594Y108890D01*
X20597Y108883D01*
X21097Y108483D01*
X21115Y108478D01*
X21123Y108467D01*
X22323Y107867D01*
X22340Y107865D01*
X22349Y107857D01*
X23046Y107657D01*
X23643Y107458D01*
X23659Y107459D01*
X23669Y107452D01*
X24369Y107352D01*
X24381Y107355D01*
X24390Y107351D01*
X52790Y107351D01*
X52802Y107355D01*
G37*
G36*
X58244Y183556D02*
X58244Y183556D01*
X58255Y183553D01*
X58855Y183653D01*
X58885Y183671D01*
X58919Y183680D01*
X58927Y183695D01*
X58947Y183707D01*
X58970Y183782D01*
X58979Y183800D01*
X58979Y197300D01*
X58962Y197344D01*
X58950Y197389D01*
X58944Y197392D01*
X58941Y197400D01*
X58845Y197449D01*
X58836Y197446D01*
X58830Y197449D01*
X55530Y197449D01*
X55529Y197449D01*
X55528Y197449D01*
X55523Y197447D01*
X55480Y197430D01*
X55442Y197443D01*
X55430Y197449D01*
X21630Y197449D01*
X21616Y197444D01*
X21605Y197447D01*
X21005Y197347D01*
X20975Y197329D01*
X20941Y197320D01*
X20933Y197305D01*
X20913Y197293D01*
X20890Y197218D01*
X20881Y197200D01*
X20881Y183700D01*
X20898Y183656D01*
X20910Y183611D01*
X20916Y183608D01*
X20919Y183600D01*
X21015Y183551D01*
X21024Y183554D01*
X21030Y183551D01*
X58230Y183551D01*
X58244Y183556D01*
G37*
G36*
X58363Y158163D02*
X58363Y158163D01*
X58385Y158161D01*
X58885Y158361D01*
X58900Y158375D01*
X58919Y158380D01*
X58931Y158403D01*
X58964Y158435D01*
X58968Y158477D01*
X58979Y158500D01*
X58979Y171400D01*
X58967Y171433D01*
X58969Y171455D01*
X58769Y171955D01*
X58758Y171966D01*
X58757Y171971D01*
X58755Y171972D01*
X58750Y171989D01*
X58727Y172001D01*
X58695Y172034D01*
X58653Y172038D01*
X58630Y172049D01*
X55530Y172049D01*
X55524Y172047D01*
X55517Y172049D01*
X55498Y172037D01*
X55481Y172031D01*
X55452Y172038D01*
X55430Y172049D01*
X22330Y172049D01*
X22316Y172044D01*
X22305Y172047D01*
X21705Y171947D01*
X21675Y171929D01*
X21641Y171920D01*
X21633Y171905D01*
X21613Y171893D01*
X21590Y171818D01*
X21581Y171800D01*
X21581Y158900D01*
X21586Y158886D01*
X21583Y158875D01*
X21683Y158275D01*
X21701Y158245D01*
X21710Y158211D01*
X21725Y158203D01*
X21737Y158183D01*
X21812Y158160D01*
X21830Y158151D01*
X58330Y158151D01*
X58363Y158163D01*
G37*
G36*
X46814Y81956D02*
X46814Y81956D01*
X46825Y81953D01*
X47425Y82053D01*
X47517Y82107D01*
X47522Y82124D01*
X47533Y82132D01*
X50933Y88732D01*
X50933Y88733D01*
X50933Y88736D01*
X50940Y88801D01*
X50940Y88802D01*
X50944Y88838D01*
X50933Y88853D01*
X50934Y88867D01*
X50634Y89466D01*
X47634Y95566D01*
X47555Y95639D01*
X47550Y95639D01*
X47547Y95642D01*
X46947Y95842D01*
X46918Y95840D01*
X46900Y95849D01*
X44100Y95849D01*
X44082Y95842D01*
X44063Y95845D01*
X44053Y95836D01*
X44023Y95838D01*
X44000Y95849D01*
X21000Y95849D01*
X20900Y95811D01*
X20893Y95798D01*
X20883Y95793D01*
X20483Y95293D01*
X20478Y95276D01*
X20467Y95269D01*
X17367Y89269D01*
X17360Y89198D01*
X17353Y89175D01*
X17453Y88575D01*
X17466Y88553D01*
X17466Y88534D01*
X20466Y82434D01*
X20488Y82414D01*
X20494Y82394D01*
X20894Y81994D01*
X20993Y81951D01*
X20997Y81952D01*
X21000Y81951D01*
X46800Y81951D01*
X46814Y81956D01*
G37*
G36*
X280208Y84932D02*
X280208Y84932D01*
X280214Y84928D01*
X280911Y85127D01*
X281508Y85226D01*
X281514Y85233D01*
X281519Y85230D01*
X282219Y85530D01*
X282221Y85532D01*
X282222Y85531D01*
X282822Y85831D01*
X282825Y85838D01*
X282831Y85837D01*
X283329Y86235D01*
X283927Y86634D01*
X283928Y86637D01*
X283931Y86637D01*
X284431Y87037D01*
X284433Y87047D01*
X284441Y87048D01*
X284840Y87646D01*
X285238Y88144D01*
X285239Y88152D01*
X285244Y88153D01*
X285844Y89353D01*
X285843Y89360D01*
X285847Y89361D01*
X285857Y89394D01*
X285871Y89443D01*
X285913Y89591D01*
X285955Y89739D01*
X285969Y89788D01*
X286011Y89936D01*
X286012Y89936D01*
X286011Y89936D01*
X286047Y90061D01*
X286046Y90065D01*
X286049Y90067D01*
X286149Y90667D01*
X286148Y90668D01*
X286149Y90668D01*
X286249Y91368D01*
X286246Y91373D01*
X286249Y91375D01*
X286249Y113675D01*
X286236Y113693D01*
X286239Y113705D01*
X285939Y114105D01*
X285908Y114114D01*
X285900Y114124D01*
X273000Y114124D01*
X272982Y114111D01*
X272970Y114114D01*
X272570Y113814D01*
X272562Y113783D01*
X272551Y113775D01*
X272551Y91775D01*
X272554Y91771D01*
X272551Y91768D01*
X272751Y90368D01*
X272752Y90367D01*
X272751Y90367D01*
X272851Y89767D01*
X272856Y89763D01*
X272853Y89759D01*
X273053Y89159D01*
X273056Y89158D01*
X273055Y89156D01*
X273355Y88456D01*
X273363Y88451D01*
X273362Y88444D01*
X273760Y87946D01*
X274159Y87348D01*
X274166Y87345D01*
X274165Y87340D01*
X274665Y86840D01*
X274669Y86840D01*
X274669Y86837D01*
X275669Y86037D01*
X275673Y86036D01*
X275673Y86034D01*
X276273Y85634D01*
X276282Y85635D01*
X276284Y85628D01*
X276881Y85429D01*
X277478Y85131D01*
X277489Y85133D01*
X277493Y85126D01*
X278893Y84926D01*
X278898Y84929D01*
X278900Y84926D01*
X280200Y84926D01*
X280208Y84932D01*
G37*
G36*
X118140Y226791D02*
X118140Y226791D01*
X118191Y226793D01*
X118223Y226811D01*
X118259Y226819D01*
X118298Y226852D01*
X118343Y226876D01*
X118364Y226906D01*
X118392Y226929D01*
X118413Y226976D01*
X118443Y227018D01*
X118451Y227060D01*
X118463Y227088D01*
X118462Y227118D01*
X118470Y227160D01*
X118470Y239960D01*
X118466Y239978D01*
X118468Y240002D01*
X118268Y241802D01*
X118257Y241833D01*
X118251Y241880D01*
X118051Y242480D01*
X118038Y242500D01*
X118030Y242530D01*
X117730Y243130D01*
X117722Y243140D01*
X117716Y243156D01*
X117416Y243656D01*
X117402Y243670D01*
X117393Y243689D01*
X117316Y243759D01*
X117295Y243780D01*
X117290Y243782D01*
X117286Y243786D01*
X116802Y244076D01*
X116418Y244364D01*
X116383Y244379D01*
X116331Y244413D01*
X115331Y244813D01*
X115298Y244818D01*
X115253Y244835D01*
X114653Y244935D01*
X114626Y244933D01*
X114590Y244940D01*
X113790Y244940D01*
X113754Y244932D01*
X113698Y244929D01*
X113343Y244840D01*
X113190Y244840D01*
X113175Y244837D01*
X113160Y244839D01*
X113028Y244802D01*
X113021Y244801D01*
X113021Y244800D01*
X113020Y244800D01*
X112820Y244700D01*
X112801Y244684D01*
X112777Y244675D01*
X112735Y244629D01*
X112687Y244589D01*
X112677Y244567D01*
X112660Y244548D01*
X112642Y244488D01*
X112616Y244431D01*
X112618Y244406D01*
X112610Y244382D01*
X112621Y244320D01*
X112624Y244258D01*
X112636Y244236D01*
X112640Y244211D01*
X112689Y244138D01*
X112707Y244106D01*
X112715Y244101D01*
X112721Y244091D01*
X112821Y243991D01*
X112853Y243971D01*
X112920Y243920D01*
X113320Y243720D01*
X113343Y243714D01*
X113370Y243699D01*
X113585Y243628D01*
X113895Y243318D01*
X114045Y243092D01*
X114110Y242898D01*
X114110Y242722D01*
X114038Y242506D01*
X113878Y242185D01*
X113648Y241956D01*
X113412Y241798D01*
X112981Y241626D01*
X112552Y241540D01*
X111837Y241540D01*
X111146Y241713D01*
X110650Y242044D01*
X110329Y242445D01*
X110170Y242922D01*
X110170Y243482D01*
X110416Y244055D01*
X111076Y244809D01*
X111874Y245707D01*
X111875Y245709D01*
X111876Y245710D01*
X112576Y246510D01*
X112592Y246539D01*
X112622Y246575D01*
X113122Y247475D01*
X113133Y247513D01*
X113161Y247578D01*
X113361Y248478D01*
X113361Y248511D01*
X113370Y248560D01*
X113370Y249360D01*
X113362Y249397D01*
X113351Y249480D01*
X113051Y250380D01*
X113030Y250414D01*
X112999Y250481D01*
X112499Y251181D01*
X112473Y251204D01*
X112443Y251244D01*
X111543Y252044D01*
X111512Y252061D01*
X111472Y252094D01*
X110372Y252694D01*
X110336Y252704D01*
X110258Y252734D01*
X109158Y252934D01*
X109129Y252933D01*
X109090Y252940D01*
X108090Y252940D01*
X108053Y252932D01*
X107970Y252921D01*
X107070Y252621D01*
X107064Y252617D01*
X107057Y252616D01*
X106257Y252316D01*
X106242Y252306D01*
X106220Y252300D01*
X106054Y252217D01*
X105620Y252000D01*
X105598Y251982D01*
X105562Y251964D01*
X105162Y251664D01*
X105147Y251646D01*
X105121Y251629D01*
X105021Y251529D01*
X105008Y251507D01*
X104988Y251491D01*
X104962Y251434D01*
X104930Y251382D01*
X104927Y251356D01*
X104917Y251332D01*
X104919Y251271D01*
X104913Y251209D01*
X104922Y251185D01*
X104923Y251159D01*
X104953Y251105D01*
X104975Y251047D01*
X104994Y251030D01*
X105006Y251007D01*
X105057Y250972D01*
X105102Y250930D01*
X105127Y250922D01*
X105148Y250907D01*
X105232Y250891D01*
X105268Y250880D01*
X105278Y250882D01*
X105290Y250880D01*
X105590Y250880D01*
X105627Y250888D01*
X105710Y250899D01*
X105952Y250980D01*
X106143Y250980D01*
X106498Y250891D01*
X106506Y250891D01*
X106515Y250887D01*
X106966Y250797D01*
X107289Y250635D01*
X107610Y250395D01*
X107745Y250192D01*
X107829Y249940D01*
X107842Y249920D01*
X107850Y249890D01*
X107938Y249714D01*
X107989Y249560D01*
X107929Y249380D01*
X107928Y249367D01*
X107921Y249352D01*
X107837Y249016D01*
X107674Y248771D01*
X107666Y248751D01*
X107650Y248730D01*
X107478Y248385D01*
X107248Y248156D01*
X106979Y247976D01*
X106972Y247969D01*
X106962Y247964D01*
X106570Y247671D01*
X106299Y247490D01*
X105867Y247274D01*
X105600Y247140D01*
X105052Y247140D01*
X104859Y247205D01*
X104710Y247304D01*
X104570Y247722D01*
X104570Y248460D01*
X104558Y248510D01*
X104558Y248531D01*
X104557Y248555D01*
X104556Y248562D01*
X104539Y248594D01*
X104531Y248629D01*
X104498Y248669D01*
X104473Y248714D01*
X104443Y248735D01*
X104421Y248762D01*
X104373Y248784D01*
X104331Y248813D01*
X104295Y248819D01*
X104262Y248833D01*
X104211Y248831D01*
X104160Y248839D01*
X104119Y248828D01*
X104089Y248827D01*
X104062Y248812D01*
X104020Y248800D01*
X104009Y248795D01*
X103249Y248415D01*
X103220Y248400D01*
X103216Y248397D01*
X103106Y248313D01*
X102306Y247413D01*
X102291Y247385D01*
X102262Y247352D01*
X101562Y246152D01*
X101553Y246123D01*
X101532Y246088D01*
X101032Y244688D01*
X101029Y244662D01*
X101016Y244630D01*
X100716Y243030D01*
X100718Y242994D01*
X100710Y242939D01*
X100810Y241139D01*
X100820Y241107D01*
X100824Y241058D01*
X101324Y239258D01*
X101341Y239227D01*
X101358Y239175D01*
X102358Y237375D01*
X102375Y237357D01*
X102390Y237327D01*
X103090Y236427D01*
X103097Y236421D01*
X103101Y236413D01*
X103111Y236407D01*
X103121Y236391D01*
X103921Y235591D01*
X103931Y235585D01*
X103940Y235574D01*
X104740Y234874D01*
X104765Y234860D01*
X104794Y234834D01*
X105794Y234234D01*
X105819Y234226D01*
X105849Y234207D01*
X106849Y233807D01*
X106868Y233804D01*
X106890Y233793D01*
X107990Y233493D01*
X108007Y233493D01*
X108028Y233485D01*
X109228Y233285D01*
X109254Y233287D01*
X109290Y233280D01*
X111159Y233280D01*
X111656Y233197D01*
X112072Y232947D01*
X113022Y232187D01*
X113498Y231617D01*
X113510Y231607D01*
X113521Y231591D01*
X114799Y230313D01*
X115281Y229639D01*
X115301Y229621D01*
X115321Y229591D01*
X115909Y229003D01*
X116398Y228417D01*
X116410Y228407D01*
X116421Y228391D01*
X116902Y227910D01*
X117186Y227532D01*
X117204Y227517D01*
X117221Y227491D01*
X117495Y227218D01*
X117674Y226949D01*
X117693Y226931D01*
X117706Y226907D01*
X117756Y226872D01*
X117800Y226831D01*
X117826Y226823D01*
X117848Y226807D01*
X117929Y226792D01*
X117966Y226781D01*
X117977Y226782D01*
X117990Y226780D01*
X118090Y226780D01*
X118140Y226791D01*
G37*
G36*
X163829Y201291D02*
X163829Y201291D01*
X163891Y201293D01*
X163913Y201306D01*
X163939Y201310D01*
X164010Y201358D01*
X164043Y201376D01*
X164049Y201384D01*
X164059Y201391D01*
X164944Y202276D01*
X166428Y203463D01*
X166439Y203478D01*
X166459Y203491D01*
X167344Y204376D01*
X167828Y204763D01*
X167834Y204771D01*
X167843Y204776D01*
X167887Y204839D01*
X167935Y204899D01*
X167937Y204909D01*
X167943Y204918D01*
X167958Y204999D01*
X167963Y205010D01*
X167963Y205022D01*
X167970Y205060D01*
X167970Y223560D01*
X167969Y223564D01*
X167970Y223569D01*
X167950Y223649D01*
X167931Y223729D01*
X167928Y223732D01*
X167927Y223737D01*
X167873Y223799D01*
X167821Y223862D01*
X167816Y223864D01*
X167814Y223868D01*
X167682Y223929D01*
X167282Y224029D01*
X167274Y224029D01*
X167265Y224033D01*
X166765Y224133D01*
X166733Y224132D01*
X166690Y224140D01*
X166237Y224140D01*
X165882Y224229D01*
X165874Y224229D01*
X165865Y224233D01*
X165373Y224331D01*
X164982Y224429D01*
X164974Y224429D01*
X164965Y224433D01*
X163965Y224633D01*
X163963Y224633D01*
X163962Y224633D01*
X163878Y224630D01*
X163791Y224627D01*
X163790Y224627D01*
X163789Y224627D01*
X163715Y224586D01*
X163639Y224545D01*
X163638Y224544D01*
X163637Y224544D01*
X163589Y224475D01*
X163538Y224404D01*
X163538Y224403D01*
X163537Y224402D01*
X163510Y224260D01*
X163510Y223478D01*
X163359Y223629D01*
X163343Y223639D01*
X163328Y223657D01*
X162828Y224057D01*
X162807Y224067D01*
X162786Y224086D01*
X161786Y224686D01*
X161773Y224690D01*
X161653Y224735D01*
X160453Y224935D01*
X160426Y224933D01*
X160390Y224940D01*
X159690Y224940D01*
X159679Y224938D01*
X159665Y224939D01*
X158165Y224839D01*
X158128Y224828D01*
X158062Y224818D01*
X156662Y224318D01*
X156633Y224299D01*
X156586Y224281D01*
X155486Y223581D01*
X155459Y223553D01*
X155407Y223514D01*
X154507Y222514D01*
X154494Y222491D01*
X154469Y222464D01*
X153769Y221364D01*
X153757Y221328D01*
X153727Y221272D01*
X153327Y219972D01*
X153326Y219957D01*
X153318Y219940D01*
X153018Y218540D01*
X153019Y218516D01*
X153011Y218485D01*
X152911Y216985D01*
X152914Y216963D01*
X152911Y216933D01*
X153011Y215533D01*
X153018Y215509D01*
X153020Y215475D01*
X153320Y214175D01*
X153332Y214150D01*
X153339Y214114D01*
X153839Y212914D01*
X153849Y212899D01*
X153856Y212878D01*
X154456Y211778D01*
X154482Y211749D01*
X154521Y211691D01*
X155421Y210791D01*
X155443Y210778D01*
X155466Y210752D01*
X156566Y209952D01*
X156602Y209937D01*
X156670Y209899D01*
X157870Y209499D01*
X157900Y209496D01*
X157940Y209483D01*
X159440Y209283D01*
X159479Y209287D01*
X159553Y209285D01*
X161353Y209585D01*
X161389Y209600D01*
X161460Y209620D01*
X161590Y209685D01*
X162060Y209920D01*
X162070Y209928D01*
X162086Y209934D01*
X163086Y210534D01*
X163106Y210554D01*
X163187Y210622D01*
X163410Y210901D01*
X163410Y201660D01*
X163416Y201635D01*
X163413Y201609D01*
X163435Y201552D01*
X163449Y201491D01*
X163466Y201471D01*
X163475Y201447D01*
X163520Y201405D01*
X163559Y201358D01*
X163583Y201347D01*
X163602Y201330D01*
X163661Y201312D01*
X163718Y201287D01*
X163743Y201288D01*
X163768Y201280D01*
X163829Y201291D01*
G37*
G36*
X147820Y209287D02*
X147820Y209287D01*
X147865Y209287D01*
X148328Y209380D01*
X148790Y209380D01*
X148826Y209388D01*
X148882Y209391D01*
X149282Y209491D01*
X149302Y209501D01*
X149331Y209507D01*
X149831Y209707D01*
X149843Y209715D01*
X149860Y209720D01*
X150260Y209920D01*
X150276Y209933D01*
X150301Y209944D01*
X150581Y210131D01*
X150960Y210320D01*
X150989Y210344D01*
X151059Y210391D01*
X151359Y210691D01*
X151375Y210718D01*
X151406Y210749D01*
X151601Y211040D01*
X151894Y211432D01*
X151898Y211441D01*
X151906Y211449D01*
X152106Y211749D01*
X152107Y211750D01*
X152108Y211751D01*
X152163Y211885D01*
X152253Y212336D01*
X152430Y212690D01*
X152434Y212705D01*
X152443Y212718D01*
X152469Y212852D01*
X152470Y212859D01*
X152470Y212860D01*
X152470Y213322D01*
X152563Y213785D01*
X152563Y213795D01*
X152564Y213928D01*
X152364Y215028D01*
X152355Y215050D01*
X152351Y215080D01*
X152051Y215980D01*
X152034Y216007D01*
X152020Y216049D01*
X151620Y216749D01*
X151597Y216773D01*
X151537Y216849D01*
X150837Y217449D01*
X150811Y217463D01*
X150779Y217490D01*
X150079Y217890D01*
X150053Y217898D01*
X150024Y217916D01*
X149224Y218216D01*
X149205Y218219D01*
X149182Y218229D01*
X148382Y218429D01*
X148360Y218429D01*
X148332Y218438D01*
X147432Y218538D01*
X145638Y218737D01*
X144969Y218833D01*
X144303Y219023D01*
X143750Y219208D01*
X143350Y219448D01*
X143170Y219687D01*
X143170Y220570D01*
X143403Y221035D01*
X143459Y221091D01*
X143479Y221123D01*
X143530Y221190D01*
X143573Y221277D01*
X143980Y221480D01*
X144090Y221480D01*
X144105Y221483D01*
X144120Y221481D01*
X144252Y221518D01*
X144259Y221519D01*
X144259Y221520D01*
X144260Y221520D01*
X144380Y221580D01*
X146000Y221580D01*
X146865Y221148D01*
X147178Y220835D01*
X147238Y220714D01*
X147329Y220440D01*
X147342Y220420D01*
X147350Y220390D01*
X147410Y220270D01*
X147410Y219860D01*
X147421Y219810D01*
X147423Y219759D01*
X147441Y219727D01*
X147449Y219691D01*
X147482Y219652D01*
X147506Y219607D01*
X147536Y219586D01*
X147559Y219558D01*
X147606Y219537D01*
X147648Y219507D01*
X147690Y219499D01*
X147718Y219487D01*
X147748Y219488D01*
X147790Y219480D01*
X151690Y219480D01*
X151770Y219498D01*
X151850Y219515D01*
X151854Y219518D01*
X151859Y219519D01*
X151922Y219572D01*
X151986Y219622D01*
X151988Y219626D01*
X151992Y219629D01*
X152026Y219704D01*
X152061Y219778D01*
X152061Y219783D01*
X152063Y219788D01*
X152062Y219815D01*
X152065Y219923D01*
X151865Y221123D01*
X151855Y221146D01*
X151855Y221148D01*
X151854Y221168D01*
X151852Y221173D01*
X151851Y221180D01*
X151651Y221780D01*
X151631Y221812D01*
X151594Y221888D01*
X151306Y222272D01*
X151016Y222756D01*
X151004Y222768D01*
X150994Y222788D01*
X150694Y223188D01*
X150669Y223209D01*
X150662Y223222D01*
X150647Y223233D01*
X150618Y223264D01*
X150218Y223564D01*
X150202Y223571D01*
X150186Y223586D01*
X149186Y224186D01*
X149161Y224194D01*
X149131Y224213D01*
X148631Y224413D01*
X148602Y224417D01*
X148565Y224433D01*
X148088Y224528D01*
X147510Y224721D01*
X147485Y224723D01*
X147453Y224735D01*
X146859Y224834D01*
X146365Y224933D01*
X146333Y224932D01*
X146290Y224940D01*
X143990Y224940D01*
X143960Y224933D01*
X143915Y224933D01*
X143452Y224840D01*
X142890Y224840D01*
X142860Y224833D01*
X142815Y224833D01*
X142315Y224733D01*
X142289Y224721D01*
X142249Y224713D01*
X141781Y224526D01*
X141315Y224433D01*
X141289Y224421D01*
X141249Y224413D01*
X140749Y224213D01*
X140718Y224191D01*
X140662Y224164D01*
X139462Y223264D01*
X139437Y223234D01*
X139386Y223188D01*
X139086Y222788D01*
X139074Y222762D01*
X139050Y222730D01*
X138850Y222330D01*
X138847Y222316D01*
X138837Y222301D01*
X138637Y221801D01*
X138633Y221772D01*
X138617Y221735D01*
X138517Y221235D01*
X138518Y221203D01*
X138510Y221160D01*
X138510Y212550D01*
X138450Y212430D01*
X138446Y212415D01*
X138437Y212402D01*
X138411Y212268D01*
X138410Y212262D01*
X138410Y212261D01*
X138410Y212260D01*
X138410Y211450D01*
X138350Y211330D01*
X138346Y211315D01*
X138337Y211302D01*
X138328Y211256D01*
X138327Y211253D01*
X138327Y211251D01*
X138311Y211168D01*
X138310Y211162D01*
X138310Y211161D01*
X138310Y211160D01*
X138310Y211050D01*
X138250Y210930D01*
X138246Y210915D01*
X138237Y210902D01*
X138211Y210768D01*
X138210Y210762D01*
X138210Y210761D01*
X138210Y210760D01*
X138210Y210550D01*
X138178Y210485D01*
X138121Y210429D01*
X138081Y210364D01*
X138037Y210302D01*
X138035Y210290D01*
X138030Y210282D01*
X138026Y210245D01*
X138010Y210160D01*
X138010Y210060D01*
X138021Y210010D01*
X138023Y209959D01*
X138041Y209927D01*
X138049Y209891D01*
X138082Y209852D01*
X138106Y209807D01*
X138136Y209786D01*
X138159Y209758D01*
X138206Y209737D01*
X138248Y209707D01*
X138290Y209699D01*
X138318Y209687D01*
X138348Y209688D01*
X138390Y209680D01*
X142290Y209680D01*
X142340Y209691D01*
X142391Y209693D01*
X142423Y209711D01*
X142459Y209719D01*
X142498Y209752D01*
X142543Y209776D01*
X142564Y209806D01*
X142592Y209829D01*
X142613Y209876D01*
X142643Y209918D01*
X142651Y209960D01*
X142663Y209988D01*
X142663Y209998D01*
X142699Y210056D01*
X142743Y210118D01*
X142745Y210130D01*
X142750Y210138D01*
X142754Y210175D01*
X142756Y210189D01*
X142759Y210191D01*
X142799Y210256D01*
X142843Y210318D01*
X142845Y210330D01*
X142850Y210338D01*
X142854Y210375D01*
X142870Y210460D01*
X142870Y210609D01*
X142883Y210630D01*
X143021Y210491D01*
X143048Y210475D01*
X143079Y210444D01*
X143379Y210244D01*
X143415Y210230D01*
X143470Y210199D01*
X143722Y210115D01*
X143979Y209944D01*
X144015Y209930D01*
X144070Y209899D01*
X145270Y209499D01*
X145307Y209496D01*
X145390Y209480D01*
X145628Y209480D01*
X145870Y209399D01*
X145907Y209396D01*
X145990Y209380D01*
X146328Y209380D01*
X146570Y209299D01*
X146607Y209296D01*
X146690Y209280D01*
X147790Y209280D01*
X147820Y209287D01*
G37*
G36*
X116822Y209687D02*
X116822Y209687D01*
X116856Y209685D01*
X116906Y209707D01*
X116959Y209719D01*
X116984Y209740D01*
X117015Y209753D01*
X117062Y209805D01*
X117092Y209829D01*
X117099Y209845D01*
X117113Y209860D01*
X120769Y215766D01*
X121810Y214795D01*
X121810Y210060D01*
X121821Y210010D01*
X121823Y209959D01*
X121841Y209927D01*
X121849Y209891D01*
X121882Y209852D01*
X121906Y209807D01*
X121936Y209786D01*
X121959Y209758D01*
X122006Y209737D01*
X122048Y209707D01*
X122090Y209699D01*
X122118Y209687D01*
X122148Y209688D01*
X122190Y209680D01*
X126090Y209680D01*
X126140Y209691D01*
X126191Y209693D01*
X126223Y209711D01*
X126259Y209719D01*
X126298Y209752D01*
X126343Y209776D01*
X126364Y209806D01*
X126392Y209829D01*
X126413Y209876D01*
X126443Y209918D01*
X126451Y209960D01*
X126463Y209988D01*
X126462Y210018D01*
X126470Y210060D01*
X126470Y227460D01*
X126460Y227503D01*
X126460Y227548D01*
X126441Y227587D01*
X126431Y227629D01*
X126402Y227663D01*
X126382Y227703D01*
X126343Y227736D01*
X126321Y227762D01*
X126297Y227773D01*
X126270Y227795D01*
X122370Y229895D01*
X122315Y229910D01*
X122262Y229933D01*
X122232Y229932D01*
X122203Y229940D01*
X122147Y229929D01*
X122089Y229927D01*
X122063Y229912D01*
X122033Y229906D01*
X121988Y229871D01*
X121937Y229844D01*
X121920Y229819D01*
X121896Y229801D01*
X121870Y229749D01*
X121837Y229702D01*
X121831Y229668D01*
X121819Y229645D01*
X121820Y229610D01*
X121810Y229560D01*
X121810Y220105D01*
X117564Y224523D01*
X117497Y224567D01*
X117432Y224613D01*
X117424Y224614D01*
X117419Y224618D01*
X117386Y224622D01*
X117290Y224640D01*
X112690Y224640D01*
X112663Y224634D01*
X112636Y224636D01*
X112580Y224614D01*
X112521Y224601D01*
X112500Y224583D01*
X112474Y224573D01*
X112434Y224529D01*
X112388Y224491D01*
X112376Y224465D01*
X112358Y224445D01*
X112341Y224387D01*
X112317Y224332D01*
X112318Y224305D01*
X112310Y224278D01*
X112321Y224219D01*
X112323Y224159D01*
X112337Y224135D01*
X112342Y224108D01*
X112388Y224041D01*
X112406Y224007D01*
X112416Y224000D01*
X112424Y223989D01*
X117501Y219007D01*
X111772Y210268D01*
X111747Y210199D01*
X111717Y210132D01*
X111717Y210119D01*
X111713Y210106D01*
X111721Y210033D01*
X111723Y209959D01*
X111730Y209947D01*
X111731Y209934D01*
X111771Y209872D01*
X111806Y209807D01*
X111817Y209799D01*
X111825Y209788D01*
X111888Y209750D01*
X111948Y209707D01*
X111963Y209704D01*
X111973Y209698D01*
X112012Y209695D01*
X112090Y209680D01*
X116790Y209680D01*
X116822Y209687D01*
G37*
G36*
X77340Y209691D02*
X77340Y209691D01*
X77391Y209693D01*
X77423Y209711D01*
X77459Y209719D01*
X77498Y209752D01*
X77543Y209776D01*
X77564Y209806D01*
X77592Y209829D01*
X77613Y209876D01*
X77643Y209918D01*
X77651Y209960D01*
X77663Y209988D01*
X77662Y210018D01*
X77670Y210060D01*
X77670Y218036D01*
X77767Y218809D01*
X77866Y219503D01*
X77953Y220026D01*
X78206Y220448D01*
X78450Y220772D01*
X78829Y221000D01*
X79259Y221086D01*
X79798Y221176D01*
X80535Y221084D01*
X81056Y220997D01*
X81436Y220769D01*
X81777Y220342D01*
X82051Y219887D01*
X82318Y219262D01*
X82410Y218439D01*
X82410Y210060D01*
X82421Y210010D01*
X82423Y209959D01*
X82441Y209927D01*
X82449Y209891D01*
X82482Y209852D01*
X82506Y209807D01*
X82536Y209786D01*
X82559Y209758D01*
X82606Y209737D01*
X82648Y209707D01*
X82690Y209699D01*
X82718Y209687D01*
X82748Y209688D01*
X82790Y209680D01*
X86690Y209680D01*
X86740Y209691D01*
X86791Y209693D01*
X86823Y209711D01*
X86859Y209719D01*
X86898Y209752D01*
X86943Y209776D01*
X86964Y209806D01*
X86992Y209829D01*
X87013Y209876D01*
X87043Y209918D01*
X87051Y209960D01*
X87063Y209988D01*
X87062Y210018D01*
X87070Y210060D01*
X87070Y224260D01*
X87059Y224310D01*
X87057Y224361D01*
X87039Y224393D01*
X87031Y224429D01*
X86998Y224468D01*
X86974Y224513D01*
X86944Y224534D01*
X86921Y224562D01*
X86874Y224583D01*
X86832Y224613D01*
X86790Y224621D01*
X86762Y224633D01*
X86732Y224632D01*
X86690Y224640D01*
X82990Y224640D01*
X82940Y224629D01*
X82889Y224627D01*
X82857Y224609D01*
X82821Y224601D01*
X82782Y224568D01*
X82737Y224544D01*
X82716Y224514D01*
X82688Y224491D01*
X82667Y224444D01*
X82637Y224402D01*
X82629Y224360D01*
X82617Y224332D01*
X82618Y224302D01*
X82610Y224260D01*
X82610Y223278D01*
X82359Y223529D01*
X82343Y223539D01*
X82328Y223557D01*
X81828Y223957D01*
X81814Y223963D01*
X81801Y223976D01*
X81201Y224376D01*
X81165Y224390D01*
X81110Y224421D01*
X79910Y224821D01*
X79885Y224823D01*
X79853Y224835D01*
X79253Y224935D01*
X79226Y224933D01*
X79190Y224940D01*
X78590Y224940D01*
X78578Y224937D01*
X78563Y224939D01*
X77163Y224839D01*
X77133Y224830D01*
X77090Y224827D01*
X75990Y224527D01*
X75958Y224510D01*
X75905Y224492D01*
X75005Y223992D01*
X74977Y223966D01*
X74921Y223929D01*
X74221Y223229D01*
X74203Y223199D01*
X74168Y223162D01*
X73668Y222362D01*
X73655Y222325D01*
X73626Y222269D01*
X73326Y221269D01*
X73325Y221250D01*
X73316Y221228D01*
X73116Y220128D01*
X73117Y220111D01*
X73111Y220089D01*
X73011Y218789D01*
X73013Y218776D01*
X73010Y218760D01*
X73010Y210060D01*
X73021Y210010D01*
X73023Y209959D01*
X73041Y209927D01*
X73049Y209891D01*
X73082Y209852D01*
X73106Y209807D01*
X73136Y209786D01*
X73159Y209758D01*
X73206Y209737D01*
X73248Y209707D01*
X73290Y209699D01*
X73318Y209687D01*
X73348Y209688D01*
X73390Y209680D01*
X77290Y209680D01*
X77340Y209691D01*
G37*
G36*
X98317Y209381D02*
X98317Y209381D01*
X98354Y209392D01*
X98420Y209403D01*
X99520Y209803D01*
X99542Y209817D01*
X99575Y209828D01*
X100475Y210328D01*
X100498Y210349D01*
X100537Y210371D01*
X101237Y210971D01*
X101254Y210994D01*
X101322Y211075D01*
X101822Y211975D01*
X101832Y212008D01*
X101854Y212051D01*
X102154Y213051D01*
X102155Y213070D01*
X102164Y213092D01*
X102364Y214192D01*
X102363Y214221D01*
X102370Y214260D01*
X102370Y224260D01*
X102359Y224310D01*
X102357Y224361D01*
X102339Y224393D01*
X102331Y224429D01*
X102298Y224468D01*
X102274Y224513D01*
X102244Y224534D01*
X102221Y224562D01*
X102174Y224583D01*
X102132Y224613D01*
X102090Y224621D01*
X102062Y224633D01*
X102032Y224632D01*
X101990Y224640D01*
X98190Y224640D01*
X98140Y224629D01*
X98089Y224627D01*
X98057Y224609D01*
X98021Y224601D01*
X97982Y224568D01*
X97937Y224544D01*
X97916Y224514D01*
X97888Y224491D01*
X97867Y224444D01*
X97837Y224402D01*
X97829Y224360D01*
X97817Y224332D01*
X97818Y224302D01*
X97810Y224260D01*
X97810Y216284D01*
X97614Y214715D01*
X97530Y214214D01*
X97031Y213548D01*
X96651Y213320D01*
X96221Y213234D01*
X95682Y213144D01*
X94945Y213236D01*
X94424Y213323D01*
X94026Y213562D01*
X93703Y213885D01*
X93435Y214420D01*
X93161Y215060D01*
X93070Y215784D01*
X93070Y224260D01*
X93059Y224310D01*
X93057Y224361D01*
X93039Y224393D01*
X93031Y224429D01*
X92998Y224468D01*
X92974Y224513D01*
X92944Y224534D01*
X92921Y224562D01*
X92874Y224583D01*
X92832Y224613D01*
X92790Y224621D01*
X92762Y224633D01*
X92732Y224632D01*
X92690Y224640D01*
X88790Y224640D01*
X88740Y224629D01*
X88689Y224627D01*
X88657Y224609D01*
X88621Y224601D01*
X88582Y224568D01*
X88537Y224544D01*
X88516Y224514D01*
X88488Y224491D01*
X88467Y224444D01*
X88437Y224402D01*
X88429Y224360D01*
X88417Y224332D01*
X88418Y224302D01*
X88410Y224260D01*
X88410Y210060D01*
X88421Y210010D01*
X88423Y209959D01*
X88441Y209927D01*
X88449Y209891D01*
X88482Y209852D01*
X88506Y209807D01*
X88536Y209786D01*
X88559Y209758D01*
X88606Y209737D01*
X88648Y209707D01*
X88690Y209699D01*
X88718Y209687D01*
X88748Y209688D01*
X88790Y209680D01*
X92490Y209680D01*
X92540Y209691D01*
X92591Y209693D01*
X92623Y209711D01*
X92659Y209719D01*
X92698Y209752D01*
X92743Y209776D01*
X92764Y209806D01*
X92792Y209829D01*
X92813Y209876D01*
X92843Y209918D01*
X92851Y209960D01*
X92863Y209988D01*
X92862Y210018D01*
X92870Y210060D01*
X92870Y211001D01*
X93093Y210722D01*
X93120Y210701D01*
X93152Y210663D01*
X93652Y210263D01*
X93682Y210249D01*
X93720Y210220D01*
X94320Y209920D01*
X94334Y209917D01*
X94349Y209907D01*
X94849Y209707D01*
X94859Y209705D01*
X94870Y209699D01*
X95470Y209499D01*
X95499Y209497D01*
X95536Y209484D01*
X96233Y209384D01*
X96828Y209285D01*
X96863Y209287D01*
X96917Y209281D01*
X98317Y209381D01*
G37*
G36*
X176922Y209381D02*
X176922Y209381D01*
X176935Y209385D01*
X176953Y209385D01*
X178153Y209585D01*
X178168Y209592D01*
X178190Y209593D01*
X179290Y209893D01*
X179318Y209908D01*
X179360Y209920D01*
X179680Y210080D01*
X180360Y210420D01*
X180389Y210444D01*
X180440Y210474D01*
X181240Y211174D01*
X181258Y211199D01*
X181290Y211227D01*
X181990Y212127D01*
X182006Y212162D01*
X182043Y212219D01*
X182443Y213219D01*
X182448Y213253D01*
X182466Y213302D01*
X182666Y214602D01*
X182660Y214682D01*
X182657Y214761D01*
X182653Y214767D01*
X182652Y214775D01*
X182612Y214843D01*
X182574Y214913D01*
X182568Y214917D01*
X182564Y214924D01*
X182497Y214967D01*
X182432Y215013D01*
X182424Y215014D01*
X182418Y215018D01*
X182385Y215022D01*
X182290Y215040D01*
X178590Y215040D01*
X178540Y215029D01*
X178489Y215027D01*
X178457Y215009D01*
X178421Y215001D01*
X178382Y214968D01*
X178337Y214944D01*
X178316Y214914D01*
X178288Y214891D01*
X178267Y214844D01*
X178237Y214802D01*
X178229Y214760D01*
X178217Y214732D01*
X178218Y214702D01*
X178210Y214660D01*
X178210Y214133D01*
X178056Y213748D01*
X177818Y213432D01*
X177136Y212920D01*
X176628Y212835D01*
X176622Y212833D01*
X176615Y212833D01*
X176121Y212734D01*
X175606Y212648D01*
X175282Y212729D01*
X175246Y212729D01*
X175190Y212740D01*
X174837Y212740D01*
X174523Y212819D01*
X174191Y212985D01*
X173840Y213248D01*
X173633Y213454D01*
X173482Y214060D01*
X173549Y214327D01*
X173690Y214610D01*
X174002Y214844D01*
X174450Y215112D01*
X174996Y215295D01*
X176573Y215689D01*
X177565Y215887D01*
X177568Y215889D01*
X177573Y215889D01*
X178473Y216089D01*
X178493Y216099D01*
X178524Y216104D01*
X179324Y216404D01*
X179330Y216408D01*
X179340Y216411D01*
X180040Y216711D01*
X180055Y216722D01*
X180079Y216730D01*
X180779Y217130D01*
X180787Y217138D01*
X180801Y217144D01*
X181401Y217544D01*
X181402Y217545D01*
X181405Y217546D01*
X181506Y217649D01*
X181906Y218249D01*
X181917Y218277D01*
X181940Y218310D01*
X182240Y219010D01*
X182246Y219049D01*
X182252Y219067D01*
X182264Y219094D01*
X182264Y219104D01*
X182268Y219118D01*
X182368Y220018D01*
X182364Y220049D01*
X182369Y220092D01*
X182269Y221292D01*
X182257Y221329D01*
X182243Y221401D01*
X181843Y222401D01*
X181823Y222430D01*
X181776Y222510D01*
X181076Y223310D01*
X181057Y223324D01*
X181037Y223349D01*
X180337Y223949D01*
X180305Y223966D01*
X180260Y224000D01*
X179260Y224500D01*
X179223Y224509D01*
X179165Y224533D01*
X178165Y224733D01*
X178162Y224733D01*
X178158Y224734D01*
X177058Y224934D01*
X177029Y224933D01*
X176990Y224940D01*
X174690Y224940D01*
X174662Y224934D01*
X174622Y224934D01*
X173522Y224734D01*
X173505Y224727D01*
X173481Y224724D01*
X172481Y224424D01*
X172462Y224414D01*
X172436Y224407D01*
X171536Y224007D01*
X171508Y223987D01*
X171462Y223964D01*
X170662Y223364D01*
X170637Y223334D01*
X170586Y223288D01*
X169986Y222488D01*
X169974Y222462D01*
X169950Y222430D01*
X169450Y221430D01*
X169441Y221392D01*
X169415Y221323D01*
X169215Y220123D01*
X169220Y220041D01*
X169223Y219959D01*
X169226Y219955D01*
X169226Y219950D01*
X169267Y219879D01*
X169306Y219807D01*
X169310Y219804D01*
X169313Y219800D01*
X169381Y219754D01*
X169448Y219707D01*
X169453Y219706D01*
X169457Y219704D01*
X169485Y219700D01*
X169590Y219680D01*
X173290Y219680D01*
X173303Y219683D01*
X173317Y219681D01*
X173387Y219702D01*
X173459Y219719D01*
X173469Y219728D01*
X173482Y219732D01*
X173536Y219783D01*
X173592Y219829D01*
X173598Y219842D01*
X173608Y219851D01*
X173663Y219985D01*
X173756Y220451D01*
X173928Y220882D01*
X174064Y221086D01*
X174281Y221231D01*
X174646Y221413D01*
X175063Y221580D01*
X176628Y221580D01*
X176870Y221499D01*
X176883Y221498D01*
X176898Y221491D01*
X177284Y221395D01*
X177446Y221341D01*
X177710Y220945D01*
X177710Y220707D01*
X177640Y220427D01*
X177418Y220132D01*
X177089Y219885D01*
X176544Y219612D01*
X176005Y219433D01*
X175243Y219337D01*
X175224Y219330D01*
X175198Y219329D01*
X172802Y218730D01*
X171908Y218531D01*
X171872Y218514D01*
X171801Y218490D01*
X170401Y217690D01*
X170381Y217671D01*
X170347Y217652D01*
X169747Y217152D01*
X169723Y217121D01*
X169718Y217116D01*
X169717Y217115D01*
X169674Y217071D01*
X169274Y216471D01*
X169263Y216443D01*
X169241Y216410D01*
X168941Y215710D01*
X168934Y215671D01*
X168912Y215602D01*
X168812Y214702D01*
X168817Y214664D01*
X168814Y214602D01*
X169014Y213302D01*
X169026Y213273D01*
X169033Y213230D01*
X169433Y212130D01*
X169454Y212097D01*
X169486Y212032D01*
X170086Y211232D01*
X170111Y211211D01*
X170140Y211174D01*
X170940Y210474D01*
X170973Y210456D01*
X171020Y210420D01*
X172020Y209920D01*
X172050Y209913D01*
X172090Y209893D01*
X173190Y209593D01*
X173207Y209593D01*
X173228Y209585D01*
X174428Y209385D01*
X174442Y209386D01*
X174458Y209381D01*
X175658Y209281D01*
X175685Y209285D01*
X175722Y209281D01*
X176922Y209381D01*
G37*
G36*
X157419Y118588D02*
X157419Y118588D01*
X157426Y118583D01*
X158326Y118883D01*
X158341Y118905D01*
X158354Y118908D01*
X158754Y119708D01*
X158751Y119724D01*
X158759Y119730D01*
X158759Y126780D01*
X161170Y123501D01*
X161670Y122801D01*
X161685Y122797D01*
X161686Y122787D01*
X162586Y122287D01*
X162607Y122290D01*
X162615Y122281D01*
X163615Y122381D01*
X163629Y122394D01*
X163640Y122391D01*
X164440Y122991D01*
X164443Y123001D01*
X164450Y123001D01*
X167041Y126588D01*
X167261Y126662D01*
X167261Y119630D01*
X167272Y119616D01*
X167267Y119606D01*
X167667Y118906D01*
X167691Y118895D01*
X167696Y118883D01*
X168696Y118583D01*
X168708Y118587D01*
X168714Y118581D01*
X169914Y118681D01*
X169930Y118695D01*
X169942Y118693D01*
X170642Y119293D01*
X170645Y119306D01*
X170648Y119322D01*
X170659Y119330D01*
X170659Y131530D01*
X170655Y131536D01*
X170658Y131540D01*
X170458Y132540D01*
X170435Y132561D01*
X170432Y132574D01*
X169632Y132974D01*
X169616Y132971D01*
X169610Y132979D01*
X168410Y132979D01*
X168398Y132970D01*
X168390Y132975D01*
X167490Y132575D01*
X167482Y132560D01*
X167471Y132560D01*
X166871Y131760D01*
X163197Y126894D01*
X162543Y127268D01*
X160249Y130260D01*
X159149Y131660D01*
X159148Y131661D01*
X158348Y132661D01*
X158329Y132666D01*
X158326Y132677D01*
X157426Y132977D01*
X157412Y132972D01*
X157406Y132979D01*
X156106Y132879D01*
X156090Y132865D01*
X156078Y132868D01*
X155478Y132368D01*
X155473Y132346D01*
X155462Y132341D01*
X155262Y131441D01*
X155265Y131433D01*
X155261Y131430D01*
X155261Y120130D01*
X155267Y120122D01*
X155263Y120116D01*
X155563Y119116D01*
X155581Y119103D01*
X155581Y119090D01*
X156281Y118590D01*
X156303Y118591D01*
X156310Y118581D01*
X157410Y118581D01*
X157419Y118588D01*
G37*
G36*
X131117Y118588D02*
X131117Y118588D01*
X131124Y118583D01*
X132124Y118883D01*
X132140Y118904D01*
X132153Y118906D01*
X132553Y119606D01*
X132550Y119623D01*
X132559Y119630D01*
X132559Y131830D01*
X132552Y131840D01*
X132556Y131847D01*
X132256Y132647D01*
X132230Y132664D01*
X132226Y132677D01*
X131326Y132977D01*
X131315Y132973D01*
X131310Y132979D01*
X126110Y132979D01*
X126104Y132974D01*
X126099Y132978D01*
X125199Y132778D01*
X125195Y132772D01*
X125190Y132775D01*
X124290Y132375D01*
X124287Y132370D01*
X124283Y132371D01*
X123383Y131771D01*
X123381Y131766D01*
X123378Y131767D01*
X122578Y131067D01*
X122575Y131055D01*
X122567Y131054D01*
X121567Y129254D01*
X121567Y129252D01*
X121566Y129252D01*
X121466Y129052D01*
X121468Y129039D01*
X121463Y129035D01*
X121464Y129033D01*
X121461Y129030D01*
X121461Y126930D01*
X121465Y126924D01*
X121462Y126920D01*
X121662Y125920D01*
X121670Y125913D01*
X121667Y125906D01*
X122167Y125006D01*
X122172Y125004D01*
X122171Y125000D01*
X122771Y124200D01*
X122780Y124198D01*
X122780Y124191D01*
X123580Y123591D01*
X123583Y123591D01*
X123583Y123589D01*
X124483Y122989D01*
X124492Y122990D01*
X124494Y122983D01*
X125394Y122683D01*
X125402Y122686D01*
X125405Y122681D01*
X126405Y122581D01*
X126408Y122583D01*
X126410Y122581D01*
X128397Y122581D01*
X129061Y122201D01*
X129061Y120230D01*
X129063Y120227D01*
X129061Y120225D01*
X129161Y119225D01*
X129181Y119204D01*
X129181Y119190D01*
X129881Y118690D01*
X129900Y118690D01*
X129906Y118681D01*
X131106Y118581D01*
X131117Y118588D01*
G37*
G36*
X109740Y209691D02*
X109740Y209691D01*
X109791Y209693D01*
X109823Y209711D01*
X109859Y209719D01*
X109898Y209752D01*
X109943Y209776D01*
X109964Y209806D01*
X109992Y209829D01*
X110013Y209876D01*
X110043Y209918D01*
X110051Y209960D01*
X110063Y209988D01*
X110062Y210018D01*
X110070Y210060D01*
X110070Y221280D01*
X113590Y221280D01*
X113641Y221292D01*
X113694Y221294D01*
X113724Y221311D01*
X113759Y221319D01*
X113799Y221353D01*
X113845Y221378D01*
X113865Y221407D01*
X113892Y221429D01*
X113914Y221477D01*
X113944Y221521D01*
X113949Y221555D01*
X113963Y221588D01*
X113961Y221640D01*
X113969Y221692D01*
X113958Y221725D01*
X113957Y221761D01*
X113932Y221807D01*
X113915Y221857D01*
X113888Y221887D01*
X113874Y221913D01*
X113848Y221931D01*
X113818Y221964D01*
X113440Y222248D01*
X111859Y223829D01*
X111839Y223841D01*
X111818Y223864D01*
X111462Y224132D01*
X111194Y224488D01*
X111182Y224499D01*
X111174Y224513D01*
X111116Y224554D01*
X111061Y224599D01*
X111046Y224603D01*
X111032Y224613D01*
X110905Y224637D01*
X110893Y224640D01*
X110892Y224640D01*
X110890Y224640D01*
X110070Y224640D01*
X110070Y226260D01*
X110064Y226286D01*
X110046Y226394D01*
X109746Y227194D01*
X109742Y227200D01*
X109740Y227210D01*
X109440Y227910D01*
X109416Y227941D01*
X109382Y228003D01*
X108882Y228603D01*
X108852Y228626D01*
X108811Y228669D01*
X108111Y229169D01*
X108087Y229179D01*
X108060Y229200D01*
X107260Y229600D01*
X107233Y229607D01*
X107199Y229624D01*
X106199Y229924D01*
X106160Y229927D01*
X106090Y229940D01*
X103190Y229940D01*
X103175Y229937D01*
X103160Y229939D01*
X103028Y229902D01*
X103021Y229901D01*
X103021Y229900D01*
X103020Y229900D01*
X102820Y229800D01*
X102781Y229768D01*
X102737Y229744D01*
X102716Y229713D01*
X102687Y229689D01*
X102666Y229643D01*
X102637Y229602D01*
X102629Y229559D01*
X102616Y229531D01*
X102617Y229515D01*
X102618Y229501D01*
X102610Y229460D01*
X102610Y226660D01*
X102621Y226610D01*
X102623Y226559D01*
X102641Y226527D01*
X102649Y226491D01*
X102682Y226452D01*
X102706Y226407D01*
X102736Y226386D01*
X102759Y226358D01*
X102806Y226337D01*
X102848Y226307D01*
X102890Y226299D01*
X102918Y226287D01*
X102948Y226288D01*
X102990Y226280D01*
X104643Y226280D01*
X104957Y226201D01*
X105230Y226065D01*
X105361Y225869D01*
X105410Y225770D01*
X105410Y225460D01*
X105418Y225424D01*
X105421Y225368D01*
X105510Y225013D01*
X105510Y224640D01*
X103190Y224640D01*
X103140Y224629D01*
X103089Y224627D01*
X103057Y224609D01*
X103021Y224601D01*
X102982Y224568D01*
X102937Y224544D01*
X102916Y224514D01*
X102888Y224491D01*
X102867Y224444D01*
X102837Y224402D01*
X102829Y224360D01*
X102817Y224332D01*
X102818Y224302D01*
X102810Y224260D01*
X102810Y221660D01*
X102821Y221610D01*
X102823Y221559D01*
X102841Y221527D01*
X102849Y221491D01*
X102882Y221452D01*
X102906Y221407D01*
X102936Y221386D01*
X102959Y221358D01*
X103006Y221337D01*
X103048Y221307D01*
X103090Y221299D01*
X103118Y221287D01*
X103148Y221288D01*
X103190Y221280D01*
X105510Y221280D01*
X105510Y210060D01*
X105521Y210010D01*
X105523Y209959D01*
X105541Y209927D01*
X105549Y209891D01*
X105582Y209852D01*
X105606Y209807D01*
X105636Y209786D01*
X105659Y209758D01*
X105706Y209737D01*
X105748Y209707D01*
X105790Y209699D01*
X105818Y209687D01*
X105848Y209688D01*
X105890Y209680D01*
X109690Y209680D01*
X109740Y209691D01*
G37*
G36*
X138021Y118590D02*
X138021Y118590D01*
X138030Y118585D01*
X138930Y118985D01*
X138936Y118996D01*
X138945Y118995D01*
X139345Y119395D01*
X139347Y119414D01*
X139358Y119418D01*
X139363Y119438D01*
X139379Y119405D01*
X139378Y119393D01*
X140078Y118793D01*
X140096Y118792D01*
X140100Y118782D01*
X141100Y118582D01*
X141110Y118586D01*
X141114Y118581D01*
X142214Y118681D01*
X142221Y118687D01*
X142226Y118683D01*
X143126Y118983D01*
X143130Y118990D01*
X143136Y118988D01*
X143936Y119488D01*
X143939Y119496D01*
X143945Y119495D01*
X144745Y120295D01*
X144746Y120300D01*
X144749Y120300D01*
X145349Y121100D01*
X145349Y121109D01*
X145355Y121110D01*
X145755Y122010D01*
X145754Y122013D01*
X145757Y122015D01*
X145756Y122015D01*
X145757Y122016D01*
X146057Y123016D01*
X146054Y123026D01*
X146059Y123030D01*
X146059Y124030D01*
X146057Y124033D01*
X146059Y124035D01*
X145959Y125035D01*
X145954Y125041D01*
X145957Y125046D01*
X145657Y125946D01*
X145649Y125951D01*
X145651Y125957D01*
X145051Y126857D01*
X145046Y126859D01*
X145047Y126862D01*
X144347Y127662D01*
X144342Y127663D01*
X144342Y127667D01*
X143542Y128367D01*
X143532Y128368D01*
X143530Y128375D01*
X142630Y128775D01*
X142621Y128773D01*
X142619Y128775D01*
X142617Y128775D01*
X142615Y128779D01*
X141615Y128879D01*
X141612Y128877D01*
X141610Y128879D01*
X140610Y128879D01*
X140603Y128874D01*
X140598Y128874D01*
X140595Y128872D01*
X140590Y128875D01*
X139690Y128475D01*
X139687Y128470D01*
X139683Y128471D01*
X139159Y128122D01*
X139159Y132130D01*
X139157Y132133D01*
X139159Y132135D01*
X139059Y133135D01*
X139048Y133147D01*
X139051Y133157D01*
X138851Y133457D01*
X138826Y133466D01*
X138821Y133478D01*
X137921Y133678D01*
X137913Y133675D01*
X137910Y133679D01*
X136810Y133679D01*
X136796Y133669D01*
X136786Y133673D01*
X135886Y133173D01*
X135873Y133142D01*
X135861Y133135D01*
X135761Y132235D01*
X135763Y132232D01*
X135761Y132230D01*
X135761Y119930D01*
X135766Y119924D01*
X135762Y119919D01*
X135962Y119019D01*
X135987Y118998D01*
X135991Y118985D01*
X136691Y118685D01*
X136702Y118688D01*
X136706Y118681D01*
X138006Y118581D01*
X138021Y118590D01*
G37*
G36*
X113716Y118585D02*
X113716Y118585D01*
X113720Y118582D01*
X114720Y118782D01*
X114724Y118787D01*
X114728Y118784D01*
X115728Y119184D01*
X115731Y119188D01*
X115734Y119187D01*
X116634Y119687D01*
X116638Y119696D01*
X116645Y119695D01*
X117345Y120395D01*
X117346Y120400D01*
X117349Y120400D01*
X117949Y121200D01*
X117949Y121206D01*
X117953Y121206D01*
X118453Y122106D01*
X118452Y122111D01*
X118456Y122113D01*
X118455Y122115D01*
X118457Y122116D01*
X118757Y123116D01*
X118754Y123126D01*
X118759Y123130D01*
X118759Y126330D01*
X118742Y126352D01*
X118744Y126366D01*
X117244Y127766D01*
X117240Y127766D01*
X117240Y127769D01*
X116440Y128369D01*
X116434Y128369D01*
X116434Y128373D01*
X115534Y128873D01*
X115526Y128872D01*
X115524Y128877D01*
X114524Y129177D01*
X114521Y129176D01*
X114520Y129178D01*
X113520Y129378D01*
X113510Y129374D01*
X113505Y129379D01*
X112505Y129279D01*
X112502Y129276D01*
X112500Y129278D01*
X111500Y129078D01*
X111493Y129070D01*
X111486Y129073D01*
X110586Y128573D01*
X110584Y128568D01*
X110580Y128569D01*
X109780Y127969D01*
X109779Y127964D01*
X109775Y127965D01*
X109075Y127265D01*
X109074Y127257D01*
X109068Y127256D01*
X108568Y126456D01*
X108569Y126450D01*
X108564Y126448D01*
X108164Y125448D01*
X108166Y125443D01*
X108162Y125440D01*
X108164Y125437D01*
X108161Y125435D01*
X108061Y124435D01*
X108063Y124432D01*
X108061Y124430D01*
X108061Y123330D01*
X108065Y123324D01*
X108062Y123320D01*
X108262Y122320D01*
X108268Y122315D01*
X108265Y122310D01*
X108665Y121410D01*
X108671Y121407D01*
X108669Y121403D01*
X109269Y120503D01*
X109276Y120500D01*
X109275Y120495D01*
X109975Y119795D01*
X109980Y119794D01*
X109980Y119791D01*
X110780Y119191D01*
X110790Y119191D01*
X110792Y119184D01*
X111792Y118784D01*
X111798Y118786D01*
X111799Y118782D01*
X112699Y118582D01*
X112707Y118585D01*
X112710Y118581D01*
X113710Y118581D01*
X113716Y118585D01*
G37*
G36*
X136740Y209691D02*
X136740Y209691D01*
X136791Y209693D01*
X136823Y209711D01*
X136859Y209719D01*
X136898Y209752D01*
X136943Y209776D01*
X136964Y209806D01*
X136992Y209829D01*
X137013Y209876D01*
X137043Y209918D01*
X137051Y209960D01*
X137063Y209988D01*
X137062Y210018D01*
X137070Y210060D01*
X137070Y223560D01*
X137067Y223573D01*
X137069Y223587D01*
X137048Y223657D01*
X137031Y223729D01*
X137022Y223739D01*
X137018Y223752D01*
X136967Y223806D01*
X136921Y223862D01*
X136908Y223868D01*
X136899Y223878D01*
X136765Y223933D01*
X136273Y224031D01*
X135882Y224129D01*
X135846Y224129D01*
X135790Y224140D01*
X135328Y224140D01*
X134873Y224231D01*
X134482Y224329D01*
X134474Y224329D01*
X134465Y224333D01*
X133473Y224531D01*
X133082Y224629D01*
X133072Y224629D01*
X133062Y224633D01*
X132986Y224630D01*
X132909Y224632D01*
X132900Y224627D01*
X132889Y224627D01*
X132822Y224590D01*
X132753Y224557D01*
X132746Y224549D01*
X132737Y224544D01*
X132693Y224481D01*
X132645Y224421D01*
X132643Y224411D01*
X132637Y224402D01*
X132610Y224260D01*
X132610Y222844D01*
X132487Y222998D01*
X132484Y223000D01*
X132482Y223003D01*
X131982Y223603D01*
X131967Y223615D01*
X131963Y223622D01*
X131949Y223631D01*
X131928Y223657D01*
X131428Y224057D01*
X131404Y224068D01*
X131379Y224090D01*
X130679Y224490D01*
X130649Y224499D01*
X130610Y224521D01*
X130010Y224721D01*
X130003Y224721D01*
X129994Y224726D01*
X129294Y224926D01*
X129256Y224928D01*
X129190Y224940D01*
X127790Y224940D01*
X127716Y224923D01*
X127641Y224910D01*
X127631Y224903D01*
X127621Y224901D01*
X127592Y224877D01*
X127521Y224829D01*
X127520Y224828D01*
X127489Y224827D01*
X127457Y224809D01*
X127421Y224801D01*
X127382Y224768D01*
X127337Y224744D01*
X127316Y224714D01*
X127288Y224691D01*
X127267Y224644D01*
X127237Y224602D01*
X127229Y224560D01*
X127217Y224532D01*
X127218Y224502D01*
X127210Y224460D01*
X127210Y220860D01*
X127221Y220810D01*
X127223Y220759D01*
X127241Y220727D01*
X127249Y220691D01*
X127282Y220652D01*
X127306Y220607D01*
X127336Y220586D01*
X127359Y220558D01*
X127406Y220537D01*
X127448Y220507D01*
X127490Y220499D01*
X127518Y220487D01*
X127548Y220488D01*
X127590Y220480D01*
X127690Y220480D01*
X127705Y220483D01*
X127720Y220481D01*
X127852Y220518D01*
X127859Y220519D01*
X127859Y220520D01*
X127860Y220520D01*
X127980Y220580D01*
X128971Y220580D01*
X129925Y220484D01*
X130647Y220304D01*
X131242Y219964D01*
X131676Y219442D01*
X132037Y218811D01*
X132221Y218166D01*
X132410Y217318D01*
X132410Y210060D01*
X132421Y210010D01*
X132423Y209959D01*
X132441Y209927D01*
X132449Y209891D01*
X132482Y209852D01*
X132506Y209807D01*
X132536Y209786D01*
X132559Y209758D01*
X132606Y209737D01*
X132648Y209707D01*
X132690Y209699D01*
X132718Y209687D01*
X132748Y209688D01*
X132790Y209680D01*
X136690Y209680D01*
X136740Y209691D01*
G37*
G36*
X97222Y118591D02*
X97222Y118591D01*
X97232Y118586D01*
X98032Y118986D01*
X98044Y119009D01*
X98045Y119011D01*
X98057Y119014D01*
X98357Y119914D01*
X98353Y119925D01*
X98359Y119930D01*
X98359Y128030D01*
X98345Y128049D01*
X98347Y128062D01*
X97747Y128762D01*
X97722Y128768D01*
X97714Y128779D01*
X96614Y128879D01*
X96609Y128876D01*
X96606Y128879D01*
X95406Y128779D01*
X95380Y128756D01*
X95367Y128754D01*
X94984Y128084D01*
X94430Y128177D01*
X93640Y128769D01*
X93621Y128769D01*
X93615Y128779D01*
X92615Y128879D01*
X92609Y128875D01*
X92605Y128879D01*
X91605Y128779D01*
X91601Y128775D01*
X91598Y128775D01*
X91596Y128777D01*
X90596Y128477D01*
X90588Y128467D01*
X90580Y128469D01*
X89780Y127869D01*
X89779Y127864D01*
X89775Y127865D01*
X89075Y127165D01*
X89074Y127155D01*
X89067Y127154D01*
X88567Y126254D01*
X88567Y126251D01*
X88565Y126250D01*
X88165Y125350D01*
X88166Y125344D01*
X88162Y125341D01*
X88163Y125340D01*
X88162Y125340D01*
X87962Y124340D01*
X87965Y124333D01*
X87961Y124330D01*
X87961Y120130D01*
X87966Y120124D01*
X87962Y120119D01*
X88162Y119219D01*
X88181Y119203D01*
X88181Y119190D01*
X88881Y118690D01*
X88900Y118690D01*
X88906Y118681D01*
X90206Y118581D01*
X90218Y118588D01*
X90226Y118583D01*
X91126Y118883D01*
X91143Y118909D01*
X91156Y118913D01*
X91456Y119713D01*
X91453Y119722D01*
X91459Y119725D01*
X91559Y120725D01*
X91557Y120728D01*
X91559Y120730D01*
X91559Y123825D01*
X91755Y124802D01*
X92529Y125382D01*
X93500Y125479D01*
X94374Y124994D01*
X94861Y124117D01*
X94861Y120030D01*
X94866Y120024D01*
X94862Y120019D01*
X95062Y119119D01*
X95084Y119101D01*
X95086Y119087D01*
X95786Y118687D01*
X95801Y118689D01*
X95807Y118681D01*
X97207Y118581D01*
X97222Y118591D01*
G37*
G36*
X80814Y118681D02*
X80814Y118681D01*
X80820Y118686D01*
X80824Y118683D01*
X81824Y118983D01*
X81828Y118988D01*
X81832Y118986D01*
X82632Y119386D01*
X82640Y119401D01*
X82650Y119401D01*
X83150Y120101D01*
X83150Y120107D01*
X83154Y120108D01*
X83554Y120908D01*
X83552Y120921D01*
X83559Y120926D01*
X83759Y123126D01*
X83757Y123128D01*
X83759Y123130D01*
X83759Y125195D01*
X85226Y125683D01*
X85244Y125710D01*
X85257Y125714D01*
X85557Y126614D01*
X85552Y126628D01*
X85559Y126634D01*
X85459Y127834D01*
X85450Y127844D01*
X85454Y127852D01*
X85054Y128652D01*
X85026Y128666D01*
X85021Y128678D01*
X84138Y128874D01*
X83759Y129347D01*
X83759Y131330D01*
X83750Y131343D01*
X83754Y131352D01*
X83354Y132152D01*
X83329Y132164D01*
X83324Y132177D01*
X82324Y132477D01*
X82312Y132473D01*
X82306Y132479D01*
X81106Y132379D01*
X81090Y132365D01*
X81078Y132367D01*
X80378Y131767D01*
X80375Y131753D01*
X80363Y131744D01*
X80367Y131739D01*
X80361Y131735D01*
X80261Y130835D01*
X80263Y130832D01*
X80261Y130830D01*
X80261Y128784D01*
X79214Y128879D01*
X79212Y128877D01*
X79210Y128879D01*
X78310Y128879D01*
X78303Y128874D01*
X78293Y128867D01*
X78281Y128870D01*
X77581Y128370D01*
X77576Y128354D01*
X77566Y128346D01*
X77568Y128343D01*
X77562Y128340D01*
X77362Y127340D01*
X77366Y127331D01*
X77361Y127326D01*
X77461Y126126D01*
X77477Y126108D01*
X77475Y126095D01*
X78075Y125495D01*
X78098Y125492D01*
X78105Y125481D01*
X79105Y125381D01*
X79111Y125385D01*
X79115Y125381D01*
X80073Y125477D01*
X80261Y124724D01*
X80261Y122742D01*
X79878Y121976D01*
X78905Y121879D01*
X78896Y121870D01*
X78888Y121874D01*
X78088Y121474D01*
X78074Y121445D01*
X78062Y121439D01*
X77862Y120339D01*
X77866Y120330D01*
X77861Y120326D01*
X77961Y119226D01*
X77981Y119204D01*
X77981Y119190D01*
X78681Y118690D01*
X78699Y118690D01*
X78705Y118681D01*
X79705Y118581D01*
X79711Y118585D01*
X79714Y118581D01*
X80814Y118681D01*
G37*
%LPC*%
G36*
X364607Y24749D02*
X364607Y24749D01*
X363930Y24943D01*
X363647Y25320D01*
X363550Y26000D01*
X363646Y26673D01*
X364016Y26951D01*
X368700Y26951D01*
X368713Y26960D01*
X368722Y26956D01*
X368922Y27056D01*
X368924Y27061D01*
X368930Y27061D01*
X368930Y27071D01*
X368948Y27109D01*
X368930Y27118D01*
X368930Y27139D01*
X367230Y28439D01*
X367229Y28439D01*
X367229Y28440D01*
X364531Y30438D01*
X363838Y31032D01*
X363549Y31514D01*
X363549Y32192D01*
X363740Y32763D01*
X364212Y32952D01*
X365003Y33051D01*
X371700Y33051D01*
X371747Y33087D01*
X371739Y33098D01*
X371748Y33109D01*
X371752Y33091D01*
X371789Y33057D01*
X371792Y33051D01*
X372383Y32953D01*
X372855Y32670D01*
X372950Y32000D01*
X372853Y31223D01*
X372480Y30849D01*
X367800Y30849D01*
X367753Y30813D01*
X367758Y30806D01*
X367751Y30800D01*
X367751Y30700D01*
X367770Y30674D01*
X367770Y30661D01*
X372169Y27362D01*
X372854Y26774D01*
X372951Y26196D01*
X372951Y25316D01*
X372670Y24942D01*
X372092Y24749D01*
X364607Y24749D01*
G37*
%LPD*%
%LPC*%
G36*
X212304Y222869D02*
X212304Y222869D01*
X211721Y222966D01*
X211246Y223346D01*
X211150Y224020D01*
X211246Y224697D01*
X211524Y224974D01*
X212104Y225071D01*
X216200Y225071D01*
X216207Y225076D01*
X216212Y225072D01*
X216612Y225172D01*
X216619Y225181D01*
X216631Y225182D01*
X216631Y225195D01*
X216649Y225219D01*
X216629Y225235D01*
X216628Y225260D01*
X214929Y226460D01*
X211537Y228954D01*
X211247Y229437D01*
X211150Y230120D01*
X211245Y230790D01*
X211717Y231073D01*
X212403Y231171D01*
X219831Y231171D01*
X219853Y231104D01*
X219878Y231087D01*
X219882Y231074D01*
X220361Y230883D01*
X220551Y230312D01*
X220551Y229440D01*
X220176Y229066D01*
X219596Y228969D01*
X215500Y228969D01*
X215479Y228953D01*
X215465Y228955D01*
X215365Y228855D01*
X215357Y228796D01*
X215370Y228794D01*
X215370Y228781D01*
X220359Y224989D01*
X220551Y224511D01*
X220551Y223629D01*
X220361Y223156D01*
X219788Y222869D01*
X212304Y222869D01*
G37*
%LPD*%
%LPC*%
G36*
X364369Y240634D02*
X364369Y240634D01*
X364347Y240701D01*
X364322Y240718D01*
X364318Y240731D01*
X363840Y240922D01*
X363649Y241493D01*
X363649Y242365D01*
X364024Y242739D01*
X364604Y242836D01*
X368700Y242836D01*
X368721Y242852D01*
X368735Y242850D01*
X368835Y242950D01*
X368837Y242962D01*
X368843Y242967D01*
X368838Y242974D01*
X368843Y243009D01*
X368830Y243011D01*
X368830Y243024D01*
X363841Y246816D01*
X363649Y247294D01*
X363649Y248176D01*
X363839Y248649D01*
X364412Y248936D01*
X371896Y248936D01*
X372479Y248839D01*
X372954Y248459D01*
X373050Y247785D01*
X372954Y247108D01*
X372676Y246831D01*
X372096Y246734D01*
X368000Y246734D01*
X367993Y246729D01*
X367988Y246733D01*
X367588Y246633D01*
X367581Y246624D01*
X367569Y246623D01*
X367569Y246610D01*
X367551Y246586D01*
X367571Y246570D01*
X367572Y246545D01*
X369271Y245345D01*
X372663Y242851D01*
X372953Y242368D01*
X373050Y241685D01*
X372955Y241015D01*
X372483Y240732D01*
X371797Y240634D01*
X364369Y240634D01*
G37*
%LPD*%
%LPC*%
G36*
X367407Y14549D02*
X367407Y14549D01*
X366744Y14643D01*
X366749Y14695D01*
X366718Y14746D01*
X366716Y14745D01*
X366716Y14747D01*
X366119Y14946D01*
X365529Y15241D01*
X364538Y16231D01*
X364142Y16826D01*
X363846Y17320D01*
X363648Y18011D01*
X363549Y18604D01*
X363549Y21892D01*
X363740Y22463D01*
X364209Y22651D01*
X365357Y22651D01*
X366236Y20428D01*
X365782Y20246D01*
X365757Y20205D01*
X365753Y20202D01*
X365753Y20201D01*
X365751Y20200D01*
X365751Y18800D01*
X365758Y18791D01*
X365753Y18784D01*
X365953Y18184D01*
X365958Y18181D01*
X365956Y18178D01*
X366256Y17578D01*
X366269Y17571D01*
X366269Y17562D01*
X366769Y17162D01*
X366777Y17161D01*
X366778Y17156D01*
X367378Y16856D01*
X367385Y16857D01*
X367386Y16853D01*
X368086Y16653D01*
X368100Y16658D01*
X368107Y16651D01*
X368807Y16751D01*
X368812Y16756D01*
X368816Y16753D01*
X369416Y16953D01*
X369423Y16964D01*
X369431Y16962D01*
X369931Y17362D01*
X369932Y17366D01*
X369935Y17365D01*
X370435Y17865D01*
X370437Y17880D01*
X370446Y17883D01*
X370746Y18683D01*
X370743Y18694D01*
X370747Y18697D01*
X370747Y18698D01*
X370749Y18700D01*
X370749Y20100D01*
X370730Y20126D01*
X370730Y20139D01*
X370330Y20439D01*
X370308Y20439D01*
X370300Y20449D01*
X366334Y20449D01*
X365463Y22651D01*
X371697Y22651D01*
X372387Y22552D01*
X372855Y22365D01*
X372951Y21697D01*
X372951Y18307D01*
X372943Y18281D01*
X372929Y18232D01*
X372887Y18084D01*
X372845Y17936D01*
X372831Y17887D01*
X372789Y17739D01*
X372754Y17618D01*
X372457Y17023D01*
X372160Y16529D01*
X371665Y15935D01*
X371169Y15538D01*
X370673Y15142D01*
X370082Y14846D01*
X369389Y14648D01*
X368792Y14549D01*
X368100Y14450D01*
X367407Y14549D01*
G37*
%LPD*%
%LPC*%
G36*
X215107Y212669D02*
X215107Y212669D01*
X214415Y212768D01*
X213822Y213064D01*
X213227Y213362D01*
X212733Y213757D01*
X212238Y214251D01*
X211843Y214845D01*
X211546Y215439D01*
X211149Y216628D01*
X211149Y219817D01*
X211245Y220490D01*
X211714Y220771D01*
X218573Y220771D01*
X218061Y218569D01*
X214000Y218569D01*
X213995Y218566D01*
X213992Y218569D01*
X213392Y218469D01*
X213351Y218425D01*
X213354Y218423D01*
X213351Y218420D01*
X213351Y217120D01*
X213354Y217116D01*
X213351Y217113D01*
X213451Y216413D01*
X213462Y216402D01*
X213459Y216393D01*
X213859Y215793D01*
X213862Y215792D01*
X213862Y215789D01*
X214262Y215289D01*
X214276Y215286D01*
X214278Y215276D01*
X214878Y214976D01*
X214885Y214977D01*
X214886Y214973D01*
X215586Y214773D01*
X215600Y214778D01*
X215607Y214771D01*
X216307Y214871D01*
X216308Y214872D01*
X216308Y214871D01*
X216908Y214971D01*
X216918Y214982D01*
X216927Y214979D01*
X217527Y215379D01*
X217531Y215389D01*
X217538Y215389D01*
X217938Y215889D01*
X217939Y215897D01*
X217944Y215898D01*
X218344Y216698D01*
X218341Y216714D01*
X218349Y216720D01*
X218349Y218120D01*
X218340Y218133D01*
X218344Y218142D01*
X218152Y218526D01*
X218674Y220771D01*
X219891Y220771D01*
X220361Y220583D01*
X220551Y220012D01*
X220551Y216527D01*
X220545Y216505D01*
X220502Y216357D01*
X220488Y216308D01*
X220446Y216160D01*
X220404Y216013D01*
X220390Y215963D01*
X220353Y215835D01*
X220155Y215242D01*
X219760Y214649D01*
X219363Y214153D01*
X218869Y213658D01*
X218274Y213262D01*
X217780Y212966D01*
X217089Y212768D01*
X216492Y212669D01*
X215800Y212570D01*
X215107Y212669D01*
G37*
%LPD*%
%LPC*%
G36*
X364309Y251034D02*
X364309Y251034D01*
X363840Y251222D01*
X363649Y251793D01*
X363649Y255278D01*
X363650Y255280D01*
X363664Y255329D01*
X363706Y255477D01*
X363748Y255625D01*
X363762Y255674D01*
X363805Y255822D01*
X363847Y255969D01*
X363847Y255970D01*
X364045Y256563D01*
X364440Y257156D01*
X364837Y257652D01*
X365331Y258147D01*
X365926Y258543D01*
X366420Y258839D01*
X367111Y259037D01*
X367708Y259136D01*
X368400Y259235D01*
X369093Y259136D01*
X369785Y259037D01*
X370378Y258741D01*
X370973Y258443D01*
X371467Y258048D01*
X371962Y257554D01*
X372357Y256960D01*
X372654Y256366D01*
X373051Y255177D01*
X373051Y251988D01*
X372955Y251315D01*
X372486Y251034D01*
X365627Y251034D01*
X366139Y253236D01*
X370200Y253236D01*
X370205Y253239D01*
X370208Y253236D01*
X370808Y253336D01*
X370849Y253380D01*
X370846Y253383D01*
X370849Y253385D01*
X370849Y254685D01*
X370846Y254689D01*
X370849Y254692D01*
X370749Y255392D01*
X370738Y255403D01*
X370741Y255412D01*
X370341Y256012D01*
X370338Y256013D01*
X370338Y256016D01*
X369938Y256516D01*
X369924Y256519D01*
X369922Y256529D01*
X369322Y256829D01*
X369315Y256828D01*
X369314Y256832D01*
X368614Y257032D01*
X368600Y257027D01*
X368593Y257034D01*
X367893Y256934D01*
X367892Y256933D01*
X367892Y256934D01*
X367292Y256834D01*
X367282Y256823D01*
X367273Y256826D01*
X366673Y256426D01*
X366669Y256416D01*
X366662Y256416D01*
X366262Y255916D01*
X366261Y255908D01*
X366256Y255907D01*
X365856Y255107D01*
X365859Y255091D01*
X365851Y255085D01*
X365851Y253685D01*
X365860Y253672D01*
X365856Y253663D01*
X366048Y253279D01*
X365526Y251034D01*
X364309Y251034D01*
G37*
%LPD*%
%LPC*%
G36*
X212699Y112957D02*
X212699Y112957D01*
X212677Y112979D01*
X212675Y112992D01*
X212191Y113283D01*
X211999Y113858D01*
X211999Y117950D01*
X211963Y117997D01*
X211961Y117996D01*
X211960Y117998D01*
X211460Y118098D01*
X211453Y118095D01*
X211450Y118099D01*
X210750Y118099D01*
X210703Y118063D01*
X210708Y118056D01*
X210701Y118050D01*
X210701Y117451D01*
X210601Y115455D01*
X210504Y114874D01*
X210127Y114497D01*
X209255Y114400D01*
X208685Y114590D01*
X208399Y115162D01*
X208399Y117850D01*
X208374Y117883D01*
X208372Y117894D01*
X207972Y118094D01*
X207956Y118091D01*
X207950Y118099D01*
X207250Y118099D01*
X207217Y118074D01*
X207206Y118072D01*
X207006Y117672D01*
X207009Y117656D01*
X207001Y117650D01*
X207001Y113566D01*
X206721Y113193D01*
X206046Y113000D01*
X205273Y113097D01*
X204896Y113474D01*
X204799Y114054D01*
X204799Y119542D01*
X204989Y120111D01*
X205558Y120301D01*
X213734Y120301D01*
X214104Y120023D01*
X214201Y119247D01*
X214201Y113755D01*
X214106Y113283D01*
X213538Y112999D01*
X212750Y112999D01*
X212703Y112963D01*
X212708Y112956D01*
X212704Y112953D01*
X212706Y112950D01*
X212701Y112945D01*
X212702Y112934D01*
X212699Y112957D01*
G37*
%LPD*%
G36*
X197378Y137222D02*
X197378Y137222D01*
X197383Y137216D01*
X197983Y137316D01*
X198000Y137335D01*
X198013Y137334D01*
X198413Y137834D01*
X198414Y137842D01*
X198415Y137843D01*
X198414Y137845D01*
X198414Y137857D01*
X198424Y137865D01*
X198424Y143965D01*
X198408Y143986D01*
X198410Y144000D01*
X197910Y144500D01*
X197894Y144502D01*
X197891Y144512D01*
X197291Y144712D01*
X197275Y144706D01*
X197267Y144714D01*
X196667Y144614D01*
X196660Y144606D01*
X196653Y144609D01*
X196053Y144309D01*
X196048Y144299D01*
X196040Y144300D01*
X195540Y143800D01*
X195540Y143796D01*
X195537Y143796D01*
X195137Y143296D01*
X195136Y143292D01*
X195134Y143292D01*
X194034Y141592D01*
X193635Y140994D01*
X193241Y140502D01*
X192657Y140112D01*
X192083Y140016D01*
X191507Y140304D01*
X191124Y140782D01*
X191124Y141450D01*
X191507Y142024D01*
X192087Y142217D01*
X192683Y142316D01*
X192692Y142326D01*
X192700Y142323D01*
X193200Y142623D01*
X193209Y142645D01*
X193222Y142649D01*
X193422Y143249D01*
X193419Y143258D01*
X193422Y143260D01*
X193421Y143262D01*
X193424Y143265D01*
X193424Y144165D01*
X193408Y144186D01*
X193410Y144200D01*
X193010Y144600D01*
X192989Y144603D01*
X192983Y144614D01*
X192383Y144714D01*
X192373Y144708D01*
X192368Y144714D01*
X191668Y144614D01*
X191667Y144613D01*
X191667Y144614D01*
X191067Y144514D01*
X191060Y144506D01*
X191053Y144509D01*
X190453Y144209D01*
X190451Y144205D01*
X190448Y144206D01*
X189848Y143806D01*
X189845Y143799D01*
X189840Y143800D01*
X189340Y143300D01*
X189339Y143291D01*
X189333Y143290D01*
X189033Y142790D01*
X189034Y142782D01*
X189028Y142781D01*
X188828Y142181D01*
X188830Y142174D01*
X188826Y142172D01*
X188726Y141472D01*
X188729Y141467D01*
X188726Y141465D01*
X188726Y140665D01*
X188729Y140660D01*
X188726Y140657D01*
X188826Y140057D01*
X188834Y140050D01*
X188831Y140043D01*
X189131Y139443D01*
X189135Y139441D01*
X189134Y139438D01*
X189534Y138838D01*
X189544Y138834D01*
X189544Y138827D01*
X190544Y138027D01*
X190557Y138026D01*
X190559Y138018D01*
X191159Y137818D01*
X191161Y137819D01*
X191161Y137818D01*
X191861Y137618D01*
X191871Y137621D01*
X191875Y137616D01*
X192575Y137616D01*
X192580Y137619D01*
X192583Y137616D01*
X193183Y137716D01*
X193189Y137723D01*
X193194Y137720D01*
X193894Y138020D01*
X193897Y138024D01*
X193900Y138023D01*
X194400Y138323D01*
X194404Y138331D01*
X194410Y138330D01*
X194910Y138830D01*
X194910Y138834D01*
X194913Y138833D01*
X195413Y139433D01*
X195413Y139442D01*
X195419Y139443D01*
X195718Y140042D01*
X195985Y140486D01*
X196026Y140445D01*
X196026Y138465D01*
X196029Y138461D01*
X196026Y138458D01*
X196126Y137758D01*
X196145Y137740D01*
X196144Y137727D01*
X196644Y137327D01*
X196663Y137326D01*
X196668Y137316D01*
X197368Y137216D01*
X197378Y137222D01*
G37*
%LPC*%
G36*
X371348Y35309D02*
X371348Y35309D01*
X371305Y35349D01*
X371302Y35346D01*
X371300Y35349D01*
X367909Y35349D01*
X367441Y35537D01*
X367249Y36208D01*
X367149Y38198D01*
X367246Y38974D01*
X367717Y39351D01*
X368392Y39351D01*
X368951Y39165D01*
X368951Y37800D01*
X368980Y37762D01*
X368982Y37754D01*
X369482Y37554D01*
X369495Y37558D01*
X369500Y37551D01*
X370200Y37551D01*
X370218Y37564D01*
X370230Y37561D01*
X370630Y37861D01*
X370637Y37887D01*
X370649Y37893D01*
X370749Y38593D01*
X370746Y38598D01*
X370749Y38600D01*
X370749Y39300D01*
X370742Y39309D01*
X370747Y39316D01*
X370547Y39916D01*
X370539Y39921D01*
X370541Y39927D01*
X370141Y40527D01*
X370131Y40531D01*
X370131Y40538D01*
X369631Y40938D01*
X369623Y40939D01*
X369622Y40944D01*
X369022Y41244D01*
X369015Y41243D01*
X369014Y41247D01*
X368314Y41447D01*
X368304Y41444D01*
X368300Y41449D01*
X367600Y41449D01*
X367591Y41442D01*
X367584Y41447D01*
X366984Y41247D01*
X366979Y41239D01*
X366973Y41241D01*
X366373Y40841D01*
X366369Y40831D01*
X366362Y40831D01*
X365962Y40331D01*
X365961Y40323D01*
X365956Y40322D01*
X365656Y39722D01*
X365657Y39717D01*
X365653Y39716D01*
X365453Y39116D01*
X365454Y39114D01*
X365453Y39114D01*
X365455Y39110D01*
X365458Y39100D01*
X365451Y39093D01*
X365551Y38393D01*
X365556Y38388D01*
X365553Y38384D01*
X365753Y37784D01*
X365756Y37783D01*
X365755Y37781D01*
X366053Y37085D01*
X366147Y36613D01*
X365766Y36136D01*
X365084Y35649D01*
X364523Y35649D01*
X364042Y36227D01*
X363744Y36822D01*
X363447Y37415D01*
X363349Y38008D01*
X363250Y38700D01*
X363349Y39392D01*
X363448Y39989D01*
X363458Y40023D01*
X363472Y40072D01*
X363514Y40220D01*
X363556Y40367D01*
X363570Y40417D01*
X363612Y40564D01*
X363613Y40564D01*
X363612Y40564D01*
X363646Y40682D01*
X363943Y41277D01*
X364242Y41775D01*
X364241Y41784D01*
X364270Y41761D01*
X364288Y41761D01*
X364289Y41760D01*
X364307Y41760D01*
X364308Y41761D01*
X364329Y41760D01*
X364329Y41769D01*
X364338Y41769D01*
X364737Y42267D01*
X365229Y42759D01*
X366419Y43354D01*
X367011Y43552D01*
X367703Y43651D01*
X368397Y43651D01*
X369090Y43552D01*
X369785Y43353D01*
X370376Y43156D01*
X370869Y42762D01*
X370873Y42761D01*
X370873Y42759D01*
X371469Y42362D01*
X371962Y41869D01*
X372357Y41275D01*
X372654Y40681D01*
X372852Y40088D01*
X372951Y39496D01*
X372951Y38007D01*
X372943Y37981D01*
X372929Y37932D01*
X372887Y37784D01*
X372845Y37636D01*
X372831Y37587D01*
X372789Y37439D01*
X372753Y37315D01*
X372554Y36719D01*
X372259Y36129D01*
X371867Y35737D01*
X371369Y35338D01*
X371365Y35323D01*
X371363Y35321D01*
X371364Y35319D01*
X371359Y35300D01*
X371352Y35291D01*
X371348Y35309D01*
G37*
%LPD*%
%LPC*%
G36*
X215704Y233469D02*
X215704Y233469D01*
X215133Y233564D01*
X214848Y234135D01*
X214749Y234823D01*
X214749Y236217D01*
X214847Y236903D01*
X215130Y237375D01*
X215799Y237470D01*
X216363Y237376D01*
X216551Y236812D01*
X216551Y236120D01*
X216564Y236102D01*
X216561Y236090D01*
X216861Y235690D01*
X216892Y235682D01*
X216900Y235671D01*
X217600Y235671D01*
X217611Y235679D01*
X217618Y235674D01*
X218118Y235874D01*
X218134Y235900D01*
X218147Y235904D01*
X218347Y236504D01*
X218343Y236515D01*
X218349Y236520D01*
X218349Y237220D01*
X218346Y237225D01*
X218349Y237228D01*
X218249Y237828D01*
X218238Y237838D01*
X218241Y237847D01*
X217841Y238447D01*
X217834Y238450D01*
X217835Y238455D01*
X217335Y238955D01*
X217331Y238955D01*
X217331Y238958D01*
X216831Y239358D01*
X216812Y239359D01*
X216807Y239369D01*
X215407Y239569D01*
X215394Y239562D01*
X215386Y239567D01*
X214686Y239367D01*
X214685Y239366D01*
X214684Y239367D01*
X214084Y239167D01*
X214073Y239150D01*
X214062Y239151D01*
X213662Y238651D01*
X213661Y238647D01*
X213659Y238647D01*
X213259Y238047D01*
X213260Y238038D01*
X213253Y238036D01*
X213053Y237436D01*
X213057Y237425D01*
X213051Y237420D01*
X213051Y236720D01*
X213057Y236712D01*
X213053Y236706D01*
X213253Y236006D01*
X213258Y236002D01*
X213256Y235998D01*
X213554Y235401D01*
X213746Y234826D01*
X213462Y234353D01*
X212879Y233866D01*
X212314Y233772D01*
X211837Y234154D01*
X211443Y234745D01*
X211146Y235338D01*
X210948Y236031D01*
X210849Y236624D01*
X210849Y237317D01*
X210948Y238009D01*
X211146Y238601D01*
X211741Y239791D01*
X212733Y240783D01*
X213227Y241178D01*
X213818Y241474D01*
X214511Y241672D01*
X215104Y241771D01*
X215797Y241771D01*
X216493Y241671D01*
X217185Y241572D01*
X217778Y241276D01*
X218373Y240978D01*
X218867Y240583D01*
X219859Y239591D01*
X220154Y239001D01*
X220353Y238405D01*
X220551Y237713D01*
X220551Y236323D01*
X220452Y235531D01*
X220255Y234941D01*
X219960Y234448D01*
X219565Y233955D01*
X219079Y233566D01*
X218496Y233469D01*
X215704Y233469D01*
G37*
%LPD*%
%LPC*%
G36*
X368403Y230034D02*
X368403Y230034D01*
X367707Y230134D01*
X367015Y230233D01*
X366422Y230529D01*
X365827Y230827D01*
X365333Y231222D01*
X364341Y232214D01*
X364046Y232804D01*
X363847Y233400D01*
X363649Y234092D01*
X363649Y235482D01*
X363748Y236274D01*
X363945Y236864D01*
X364240Y237357D01*
X364635Y237850D01*
X365121Y238239D01*
X365704Y238336D01*
X368496Y238336D01*
X369067Y238241D01*
X369352Y237670D01*
X369451Y236982D01*
X369451Y235588D01*
X369353Y234902D01*
X369070Y234430D01*
X368401Y234335D01*
X367837Y234429D01*
X367649Y234993D01*
X367649Y235685D01*
X367636Y235703D01*
X367639Y235715D01*
X367339Y236115D01*
X367308Y236124D01*
X367300Y236134D01*
X366600Y236134D01*
X366589Y236126D01*
X366582Y236131D01*
X366082Y235931D01*
X366067Y235906D01*
X366065Y235905D01*
X366053Y235901D01*
X365853Y235301D01*
X365857Y235290D01*
X365851Y235285D01*
X365851Y234585D01*
X365854Y234580D01*
X365851Y234577D01*
X365951Y233977D01*
X365962Y233967D01*
X365959Y233958D01*
X366359Y233358D01*
X366366Y233355D01*
X366365Y233350D01*
X366865Y232850D01*
X366869Y232850D01*
X366869Y232847D01*
X367369Y232447D01*
X367388Y232446D01*
X367393Y232436D01*
X368793Y232236D01*
X368806Y232243D01*
X368814Y232238D01*
X369514Y232438D01*
X369515Y232439D01*
X369516Y232438D01*
X370116Y232638D01*
X370127Y232655D01*
X370138Y232654D01*
X370538Y233154D01*
X370539Y233158D01*
X370541Y233158D01*
X370941Y233758D01*
X370940Y233767D01*
X370947Y233769D01*
X371147Y234369D01*
X371143Y234380D01*
X371149Y234385D01*
X371149Y235085D01*
X371143Y235093D01*
X371147Y235099D01*
X370947Y235799D01*
X370942Y235803D01*
X370944Y235807D01*
X370646Y236404D01*
X370454Y236979D01*
X370738Y237452D01*
X371321Y237939D01*
X371886Y238033D01*
X372363Y237651D01*
X372757Y237060D01*
X373054Y236467D01*
X373252Y235774D01*
X373351Y235181D01*
X373351Y234488D01*
X373252Y233796D01*
X373054Y233204D01*
X372459Y232014D01*
X371467Y231022D01*
X370973Y230627D01*
X370382Y230331D01*
X369689Y230133D01*
X369096Y230034D01*
X368403Y230034D01*
G37*
%LPD*%
%LPC*%
G36*
X37341Y185949D02*
X37341Y185949D01*
X36700Y186041D01*
X36369Y186372D01*
X36277Y186925D01*
X36261Y186952D01*
X36279Y186993D01*
X36278Y186997D01*
X36279Y187000D01*
X36279Y193700D01*
X36276Y193709D01*
X36278Y193719D01*
X36262Y193750D01*
X36267Y193776D01*
X36279Y193800D01*
X36279Y194459D01*
X36539Y194891D01*
X36971Y195151D01*
X37668Y195151D01*
X38281Y194538D01*
X38281Y189800D01*
X38299Y189753D01*
X38315Y189705D01*
X38318Y189703D01*
X38319Y189700D01*
X38364Y189677D01*
X38408Y189652D01*
X38411Y189653D01*
X38415Y189651D01*
X38519Y189680D01*
X38524Y189691D01*
X38536Y189694D01*
X38736Y189894D01*
X38741Y189906D01*
X38749Y189910D01*
X39349Y190710D01*
X39349Y190711D01*
X42147Y194407D01*
X42618Y194972D01*
X43154Y195151D01*
X43778Y195151D01*
X44202Y194811D01*
X44381Y194276D01*
X44381Y186941D01*
X44363Y186926D01*
X44341Y186920D01*
X44330Y186898D01*
X44299Y186872D01*
X44293Y186824D01*
X44281Y186800D01*
X44281Y186262D01*
X43968Y185949D01*
X43151Y185949D01*
X42541Y186123D01*
X42379Y186529D01*
X42379Y191200D01*
X42377Y191207D01*
X42379Y191214D01*
X42358Y191256D01*
X42341Y191300D01*
X42334Y191304D01*
X42331Y191310D01*
X42287Y191327D01*
X42245Y191349D01*
X42238Y191347D01*
X42231Y191349D01*
X42210Y191339D01*
X42141Y191320D01*
X42131Y191300D01*
X42111Y191290D01*
X38517Y186498D01*
X37968Y185949D01*
X37341Y185949D01*
G37*
%LPD*%
%LPC*%
G36*
X32191Y84438D02*
X32191Y84438D01*
X31949Y84841D01*
X31949Y89500D01*
X31931Y89547D01*
X31915Y89595D01*
X31912Y89597D01*
X31911Y89600D01*
X31866Y89623D01*
X31822Y89648D01*
X31819Y89647D01*
X31815Y89649D01*
X31711Y89620D01*
X31706Y89609D01*
X31694Y89606D01*
X31494Y89406D01*
X31492Y89399D01*
X31487Y89397D01*
X30887Y88697D01*
X30885Y88692D01*
X30881Y88690D01*
X28087Y84998D01*
X27528Y84439D01*
X26997Y84351D01*
X26258Y84443D01*
X25939Y84682D01*
X25849Y85311D01*
X25849Y92776D01*
X26024Y93300D01*
X26441Y93551D01*
X27079Y93551D01*
X27683Y93378D01*
X27754Y93167D01*
X27851Y92391D01*
X27851Y88400D01*
X27868Y88356D01*
X27880Y88311D01*
X27886Y88308D01*
X27889Y88300D01*
X27985Y88251D01*
X27994Y88254D01*
X28000Y88251D01*
X28100Y88251D01*
X28200Y88289D01*
X28208Y88304D01*
X28219Y88309D01*
X29519Y90009D01*
X29519Y90011D01*
X29520Y90011D01*
X31513Y92702D01*
X32093Y93282D01*
X32541Y93551D01*
X33165Y93551D01*
X33678Y93294D01*
X33851Y92776D01*
X33851Y85400D01*
X33852Y85397D01*
X33851Y85394D01*
X33870Y85351D01*
X33861Y85320D01*
X33851Y85300D01*
X33851Y84762D01*
X33531Y84442D01*
X32801Y84351D01*
X32191Y84438D01*
G37*
%LPD*%
%LPC*%
G36*
X218920Y203467D02*
X218920Y203467D01*
X218446Y203846D01*
X218349Y204523D01*
X218349Y206820D01*
X218338Y206835D01*
X218336Y206854D01*
X218325Y206853D01*
X218313Y206867D01*
X218289Y206849D01*
X218258Y206845D01*
X217958Y206345D01*
X217958Y206339D01*
X217954Y206338D01*
X217757Y205846D01*
X217262Y205252D01*
X216765Y204655D01*
X216273Y204262D01*
X215685Y203968D01*
X214993Y203869D01*
X214301Y203770D01*
X213711Y203868D01*
X213021Y204065D01*
X212429Y204460D01*
X211935Y204855D01*
X211542Y205347D01*
X211246Y205939D01*
X211049Y206528D01*
X211049Y208012D01*
X211246Y208601D01*
X211541Y209191D01*
X212033Y209683D01*
X212527Y210078D01*
X213119Y210374D01*
X213711Y210572D01*
X214400Y210670D01*
X215081Y210573D01*
X215454Y210293D01*
X215550Y209520D01*
X215454Y208843D01*
X215080Y208469D01*
X214400Y208469D01*
X214393Y208464D01*
X214388Y208464D01*
X214384Y208467D01*
X213784Y208267D01*
X213775Y208253D01*
X213765Y208255D01*
X213265Y207755D01*
X213264Y207743D01*
X213258Y207739D01*
X213262Y207733D01*
X213262Y207728D01*
X213251Y207720D01*
X213251Y207020D01*
X213260Y207007D01*
X213256Y206998D01*
X213556Y206398D01*
X213572Y206390D01*
X213573Y206379D01*
X214173Y205979D01*
X214198Y205981D01*
X214208Y205971D01*
X214808Y206071D01*
X214818Y206082D01*
X214827Y206079D01*
X215427Y206479D01*
X215428Y206482D01*
X215431Y206482D01*
X215931Y206882D01*
X215933Y206892D01*
X215941Y206893D01*
X216341Y207493D01*
X216341Y207495D01*
X216342Y207495D01*
X217342Y209194D01*
X217737Y209786D01*
X218229Y210180D01*
X218818Y210573D01*
X219495Y210670D01*
X220071Y210478D01*
X220454Y209999D01*
X220551Y209416D01*
X220551Y203934D01*
X220270Y203465D01*
X219600Y203370D01*
X218920Y203467D01*
G37*
%LPD*%
%LPC*%
G36*
X369120Y261232D02*
X369120Y261232D01*
X368746Y261512D01*
X368650Y262285D01*
X368746Y262962D01*
X369120Y263336D01*
X369800Y263336D01*
X369809Y263343D01*
X369816Y263338D01*
X370416Y263538D01*
X370425Y263552D01*
X370435Y263550D01*
X370935Y264050D01*
X370939Y264077D01*
X370949Y264085D01*
X370949Y264785D01*
X370940Y264798D01*
X370944Y264807D01*
X370644Y265407D01*
X370628Y265415D01*
X370627Y265426D01*
X370027Y265826D01*
X370008Y265825D01*
X370002Y265833D01*
X369993Y265833D01*
X369992Y265834D01*
X369392Y265734D01*
X369382Y265723D01*
X369373Y265726D01*
X368773Y265326D01*
X368772Y265323D01*
X368769Y265323D01*
X368269Y264923D01*
X368267Y264913D01*
X368259Y264912D01*
X367859Y264312D01*
X367859Y264310D01*
X367858Y264310D01*
X366858Y262611D01*
X366463Y262019D01*
X365971Y261625D01*
X365382Y261232D01*
X364705Y261135D01*
X364129Y261327D01*
X363746Y261806D01*
X363649Y262389D01*
X363649Y267871D01*
X363930Y268340D01*
X364600Y268435D01*
X365280Y268338D01*
X365754Y267959D01*
X365851Y267282D01*
X365851Y264985D01*
X365862Y264970D01*
X365864Y264951D01*
X365875Y264952D01*
X365887Y264938D01*
X365899Y264947D01*
X365900Y264946D01*
X365906Y264946D01*
X365921Y264957D01*
X365942Y264960D01*
X366242Y265460D01*
X366242Y265466D01*
X366246Y265467D01*
X366443Y265959D01*
X366938Y266553D01*
X367435Y267150D01*
X367927Y267543D01*
X368515Y267837D01*
X369207Y267936D01*
X369899Y268035D01*
X370489Y267937D01*
X371179Y267740D01*
X371771Y267345D01*
X372265Y266950D01*
X372658Y266458D01*
X372954Y265866D01*
X373151Y265277D01*
X373151Y263793D01*
X372954Y263204D01*
X372659Y262614D01*
X372167Y262122D01*
X371673Y261727D01*
X371081Y261431D01*
X370489Y261233D01*
X369800Y261135D01*
X369120Y261232D01*
G37*
%LPD*%
%LPC*%
G36*
X37012Y84349D02*
X37012Y84349D01*
X36493Y84436D01*
X36249Y84841D01*
X36249Y85676D01*
X36413Y86168D01*
X36923Y86253D01*
X37611Y86351D01*
X41000Y86351D01*
X41013Y86356D01*
X41026Y86353D01*
X41047Y86369D01*
X41100Y86389D01*
X41116Y86420D01*
X41134Y86433D01*
X41334Y86833D01*
X41336Y86861D01*
X41337Y86861D01*
X41336Y86862D01*
X41338Y86877D01*
X41349Y86900D01*
X41349Y87600D01*
X41337Y87633D01*
X41333Y87668D01*
X41319Y87678D01*
X41311Y87700D01*
X41241Y87735D01*
X41225Y87747D01*
X40625Y87847D01*
X40614Y87845D01*
X40607Y87849D01*
X38614Y87949D01*
X37970Y88041D01*
X37649Y88362D01*
X37649Y89079D01*
X37827Y89702D01*
X38241Y89951D01*
X40900Y89951D01*
X41000Y89989D01*
X41002Y89993D01*
X41006Y89994D01*
X41306Y90294D01*
X41349Y90393D01*
X41348Y90397D01*
X41349Y90400D01*
X41349Y91100D01*
X41311Y91200D01*
X41295Y91208D01*
X41290Y91219D01*
X40890Y91519D01*
X40821Y91539D01*
X40800Y91549D01*
X36741Y91549D01*
X36327Y91798D01*
X36152Y92412D01*
X36242Y93131D01*
X36572Y93461D01*
X37112Y93551D01*
X42576Y93551D01*
X43100Y93376D01*
X43351Y92959D01*
X43351Y85509D01*
X43255Y84744D01*
X43102Y84438D01*
X42391Y84349D01*
X37012Y84349D01*
G37*
%LPD*%
%LPC*%
G36*
X244317Y201634D02*
X244317Y201634D01*
X243846Y202011D01*
X243749Y202688D01*
X243749Y205085D01*
X243737Y205101D01*
X243733Y205121D01*
X243723Y205120D01*
X243713Y205132D01*
X243688Y205113D01*
X243656Y205107D01*
X243357Y204508D01*
X243058Y204011D01*
X242662Y203416D01*
X242167Y202922D01*
X241674Y202528D01*
X240982Y202231D01*
X240392Y202034D01*
X239703Y202034D01*
X239011Y202133D01*
X238419Y202331D01*
X237829Y202626D01*
X237337Y203118D01*
X236940Y203613D01*
X236646Y204105D01*
X236449Y204792D01*
X236449Y206178D01*
X236476Y206272D01*
X236490Y206322D01*
X236532Y206469D01*
X236533Y206469D01*
X236532Y206469D01*
X236575Y206617D01*
X236589Y206666D01*
X236631Y206814D01*
X236646Y206865D01*
X236939Y207355D01*
X237929Y208344D01*
X238518Y208639D01*
X239207Y208836D01*
X240484Y208836D01*
X240854Y208558D01*
X240950Y207785D01*
X240854Y207015D01*
X240383Y206732D01*
X239792Y206634D01*
X239789Y206631D01*
X239788Y206630D01*
X239784Y206632D01*
X239184Y206432D01*
X239175Y206418D01*
X239165Y206420D01*
X238665Y205920D01*
X238664Y205908D01*
X238659Y205905D01*
X238663Y205901D01*
X238662Y205893D01*
X238651Y205885D01*
X238651Y205185D01*
X238660Y205172D01*
X238656Y205163D01*
X238956Y204563D01*
X238976Y204553D01*
X238978Y204541D01*
X239578Y204241D01*
X239599Y204245D01*
X239608Y204236D01*
X240208Y204336D01*
X240215Y204344D01*
X240222Y204341D01*
X240822Y204641D01*
X240827Y204651D01*
X240835Y204650D01*
X241335Y205150D01*
X241335Y205154D01*
X241338Y205154D01*
X241738Y205654D01*
X241739Y205660D01*
X241743Y205661D01*
X242741Y207457D01*
X243137Y207952D01*
X243629Y208444D01*
X244215Y208738D01*
X244808Y208836D01*
X244849Y208880D01*
X244846Y208883D01*
X244843Y208886D01*
X244849Y208892D01*
X244852Y208876D01*
X244889Y208842D01*
X244892Y208836D01*
X245473Y208740D01*
X245853Y208265D01*
X245951Y207582D01*
X245951Y202199D01*
X245670Y201730D01*
X244997Y201634D01*
X244317Y201634D01*
G37*
%LPD*%
%LPC*%
G36*
X30142Y185949D02*
X30142Y185949D01*
X29563Y186046D01*
X28884Y186240D01*
X28311Y186526D01*
X27823Y186917D01*
X27335Y187307D01*
X26852Y187887D01*
X26561Y188372D01*
X26270Y188954D01*
X26076Y189633D01*
X25979Y190212D01*
X25979Y190889D01*
X26076Y191569D01*
X26270Y192246D01*
X26556Y192819D01*
X26947Y193307D01*
X27337Y193795D01*
X27917Y194278D01*
X28402Y194569D01*
X28984Y194860D01*
X29663Y195054D01*
X30242Y195151D01*
X33480Y195151D01*
X33803Y194909D01*
X33981Y194376D01*
X33981Y193404D01*
X31862Y192862D01*
X31520Y193119D01*
X31451Y193139D01*
X31430Y193149D01*
X30030Y193149D01*
X29989Y193133D01*
X29963Y193134D01*
X29363Y192834D01*
X29350Y192819D01*
X29337Y192817D01*
X28837Y192417D01*
X28827Y192399D01*
X28813Y192393D01*
X28413Y191893D01*
X28408Y191875D01*
X28397Y191867D01*
X28097Y191267D01*
X28094Y191238D01*
X28082Y191221D01*
X27982Y190521D01*
X27988Y190496D01*
X27982Y190479D01*
X28082Y189779D01*
X28097Y189753D01*
X28097Y189733D01*
X28397Y189133D01*
X28411Y189120D01*
X28413Y189107D01*
X28813Y188607D01*
X28822Y188602D01*
X28824Y188594D01*
X29324Y188094D01*
X29365Y188077D01*
X29383Y188058D01*
X29683Y187958D01*
X29712Y187960D01*
X29730Y187951D01*
X31730Y187951D01*
X31763Y187963D01*
X31798Y187967D01*
X31808Y187981D01*
X31830Y187989D01*
X31865Y188059D01*
X31877Y188075D01*
X31977Y188675D01*
X31974Y188690D01*
X31979Y188700D01*
X31979Y192581D01*
X33981Y193047D01*
X33981Y186911D01*
X33891Y186282D01*
X33571Y186042D01*
X32919Y185949D01*
X30142Y185949D01*
G37*
%LPD*%
%LPC*%
G36*
X49939Y185949D02*
X49939Y185949D01*
X49152Y186048D01*
X48577Y186144D01*
X48002Y186431D01*
X47523Y186719D01*
X47057Y187184D01*
X46869Y187655D01*
X46866Y187658D01*
X46868Y187677D01*
X46879Y187700D01*
X46879Y190389D01*
X46972Y191041D01*
X47219Y191370D01*
X47851Y191551D01*
X50006Y191551D01*
X50512Y191382D01*
X50681Y190876D01*
X50681Y190262D01*
X50364Y189945D01*
X49019Y189849D01*
X48981Y189831D01*
X48941Y189820D01*
X48936Y189810D01*
X48922Y189803D01*
X48881Y189704D01*
X48882Y189702D01*
X48881Y189700D01*
X48881Y188400D01*
X48886Y188387D01*
X48883Y188374D01*
X48899Y188353D01*
X48919Y188300D01*
X48950Y188284D01*
X48963Y188267D01*
X49563Y187967D01*
X49607Y187962D01*
X49630Y187951D01*
X50330Y187951D01*
X50344Y187956D01*
X50355Y187953D01*
X50955Y188053D01*
X50967Y188060D01*
X50977Y188058D01*
X51577Y188258D01*
X51604Y188280D01*
X51626Y188285D01*
X52226Y188785D01*
X52234Y188801D01*
X52247Y188807D01*
X52647Y189307D01*
X52656Y189338D01*
X52672Y189353D01*
X52872Y189953D01*
X52871Y189969D01*
X52878Y189979D01*
X52978Y190679D01*
X52974Y190695D01*
X52976Y190700D01*
X52974Y190709D01*
X52978Y190721D01*
X52878Y191421D01*
X52872Y191432D01*
X52874Y191441D01*
X52674Y192141D01*
X52651Y192170D01*
X52647Y192193D01*
X52247Y192693D01*
X52222Y192707D01*
X52213Y192724D01*
X51613Y193124D01*
X51589Y193129D01*
X51577Y193142D01*
X50977Y193342D01*
X50961Y193341D01*
X50951Y193348D01*
X50251Y193448D01*
X50226Y193442D01*
X50209Y193448D01*
X49509Y193348D01*
X49483Y193333D01*
X49463Y193334D01*
X48309Y192756D01*
X47904Y192838D01*
X47360Y193381D01*
X47187Y193900D01*
X47355Y194404D01*
X47905Y194771D01*
X48487Y195062D01*
X49064Y195254D01*
X49751Y195352D01*
X49753Y195353D01*
X49755Y195353D01*
X50332Y195449D01*
X51009Y195352D01*
X51685Y195256D01*
X52263Y194967D01*
X52849Y194674D01*
X53330Y194289D01*
X53819Y193800D01*
X54209Y193312D01*
X54595Y192734D01*
X54784Y192166D01*
X54981Y190789D01*
X54981Y190124D01*
X54788Y189547D01*
X54789Y189543D01*
X54787Y189541D01*
X54590Y188854D01*
X54299Y188272D01*
X54012Y187793D01*
X53035Y186816D01*
X52455Y186429D01*
X51883Y186144D01*
X51307Y186048D01*
X50619Y185949D01*
X49939Y185949D01*
G37*
%LPD*%
%LPC*%
G36*
X207757Y131399D02*
X207757Y131399D01*
X207068Y131596D01*
X206477Y131892D01*
X205983Y132287D01*
X205488Y132781D01*
X205095Y133372D01*
X204898Y133961D01*
X204799Y134653D01*
X204799Y137917D01*
X207189Y136430D01*
X207004Y135968D01*
X207008Y135957D01*
X207003Y135953D01*
X207003Y135952D01*
X207001Y135950D01*
X207001Y134550D01*
X207010Y134537D01*
X207006Y134528D01*
X207306Y133928D01*
X207326Y133918D01*
X207328Y133906D01*
X207928Y133606D01*
X207948Y133610D01*
X207957Y133601D01*
X208657Y133701D01*
X208670Y133714D01*
X208681Y133712D01*
X209181Y134112D01*
X209183Y134122D01*
X209191Y134123D01*
X209391Y134423D01*
X209390Y134443D01*
X209399Y134450D01*
X209399Y135850D01*
X209396Y135855D01*
X209399Y135858D01*
X209299Y136458D01*
X209255Y136499D01*
X209253Y136496D01*
X209250Y136499D01*
X207264Y136499D01*
X204799Y138033D01*
X204799Y138134D01*
X205080Y138508D01*
X205658Y138701D01*
X213147Y138701D01*
X213823Y138604D01*
X214103Y138231D01*
X214200Y137450D01*
X214105Y136780D01*
X213636Y136499D01*
X212250Y136499D01*
X212245Y136496D01*
X212242Y136499D01*
X211642Y136399D01*
X211601Y136355D01*
X211604Y136353D01*
X211601Y136350D01*
X211601Y134358D01*
X211404Y133769D01*
X211107Y133175D01*
X210710Y132579D01*
X210316Y132087D01*
X209728Y131695D01*
X209139Y131498D01*
X208447Y131399D01*
X207757Y131399D01*
G37*
%LPD*%
%LPC*%
G36*
X210853Y122699D02*
X210853Y122699D01*
X210165Y122798D01*
X209579Y123091D01*
X209089Y123581D01*
X208796Y124070D01*
X208597Y124764D01*
X208398Y125461D01*
X208299Y126058D01*
X208291Y126065D01*
X208294Y126072D01*
X207994Y126672D01*
X207981Y126679D01*
X207981Y126688D01*
X207481Y127088D01*
X207445Y127089D01*
X207434Y127097D01*
X206834Y126897D01*
X206821Y126877D01*
X206808Y126875D01*
X206508Y126375D01*
X206510Y126353D01*
X206504Y126349D01*
X206505Y126348D01*
X206501Y126344D01*
X206601Y125544D01*
X206614Y125530D01*
X206612Y125519D01*
X207008Y125023D01*
X207297Y124446D01*
X207108Y123879D01*
X206526Y123394D01*
X205956Y123204D01*
X205483Y123488D01*
X205093Y123976D01*
X204796Y124668D01*
X204598Y125261D01*
X204499Y125953D01*
X204499Y126743D01*
X204506Y126766D01*
X204520Y126815D01*
X204562Y126963D01*
X204604Y127110D01*
X204618Y127160D01*
X204660Y127307D01*
X204661Y127307D01*
X204660Y127307D01*
X204696Y127432D01*
X204993Y128027D01*
X205287Y128515D01*
X205875Y128907D01*
X206465Y129203D01*
X207054Y129301D01*
X207743Y129301D01*
X208432Y129104D01*
X209021Y128809D01*
X209412Y128419D01*
X209805Y127829D01*
X210003Y127136D01*
X210004Y127135D01*
X210003Y127134D01*
X210202Y126539D01*
X210301Y125843D01*
X210309Y125835D01*
X210306Y125828D01*
X210606Y125228D01*
X210623Y125219D01*
X210625Y125208D01*
X211125Y124908D01*
X211137Y124909D01*
X211139Y124908D01*
X211159Y124908D01*
X211166Y124903D01*
X211766Y125103D01*
X211779Y125123D01*
X211792Y125125D01*
X212092Y125625D01*
X212092Y125630D01*
X212095Y125633D01*
X212091Y125639D01*
X212090Y125643D01*
X212099Y125650D01*
X212099Y126350D01*
X212091Y126361D01*
X212095Y126369D01*
X211795Y127069D01*
X211784Y127076D01*
X211785Y127085D01*
X211291Y127579D01*
X211001Y128158D01*
X211096Y128729D01*
X211580Y129309D01*
X212048Y129496D01*
X212624Y129208D01*
X213018Y128913D01*
X213412Y128519D01*
X213807Y127925D01*
X214102Y127335D01*
X214201Y126647D01*
X214201Y125258D01*
X214004Y124669D01*
X213707Y124075D01*
X213313Y123484D01*
X212823Y123092D01*
X212235Y122798D01*
X211547Y122699D01*
X210853Y122699D01*
G37*
%LPD*%
%LPC*%
G36*
X159760Y213134D02*
X159760Y213134D01*
X159067Y213308D01*
X158563Y213728D01*
X158219Y214157D01*
X157943Y214802D01*
X157662Y215552D01*
X157570Y216284D01*
X157570Y217936D01*
X157662Y218668D01*
X157943Y219418D01*
X158218Y220059D01*
X158647Y220574D01*
X159172Y220924D01*
X159788Y221188D01*
X160587Y221277D01*
X161298Y221188D01*
X162000Y220925D01*
X162422Y220587D01*
X162862Y220059D01*
X163137Y219418D01*
X163418Y218668D01*
X163510Y217936D01*
X163510Y216307D01*
X163128Y214782D01*
X162869Y214177D01*
X162433Y213741D01*
X161908Y213304D01*
X161316Y213134D01*
X160493Y213043D01*
X159760Y213134D01*
G37*
%LPD*%
%LPC*%
G36*
X237432Y221426D02*
X237432Y221426D01*
X237042Y222011D01*
X236746Y222505D01*
X236547Y223199D01*
X236349Y223892D01*
X236349Y225177D01*
X236547Y225769D01*
X236546Y225771D01*
X236547Y225771D01*
X236548Y225775D01*
X236549Y225775D01*
X236548Y225775D01*
X236591Y225923D01*
X236605Y225972D01*
X236647Y226120D01*
X236689Y226268D01*
X236703Y226317D01*
X236745Y226465D01*
X236746Y226465D01*
X236745Y226465D01*
X236746Y226467D01*
X237043Y227060D01*
X237438Y227654D01*
X238329Y228544D01*
X238921Y228840D01*
X239614Y229137D01*
X240208Y229236D01*
X240903Y229336D01*
X241597Y229336D01*
X242289Y229237D01*
X242881Y229039D01*
X243475Y228742D01*
X244071Y228345D01*
X244565Y227950D01*
X244960Y227456D01*
X245357Y226860D01*
X245654Y226267D01*
X245852Y225574D01*
X245951Y224981D01*
X245951Y223691D01*
X245754Y222902D01*
X245457Y222308D01*
X245161Y221816D01*
X244683Y221338D01*
X244117Y221432D01*
X243433Y221823D01*
X243053Y222298D01*
X243147Y222767D01*
X243442Y223260D01*
X243442Y223263D01*
X243444Y223263D01*
X243744Y223863D01*
X243741Y223879D01*
X243749Y223885D01*
X243749Y224585D01*
X243746Y224589D01*
X243749Y224592D01*
X243649Y225292D01*
X243644Y225297D01*
X243647Y225301D01*
X243447Y225901D01*
X243433Y225910D01*
X243435Y225920D01*
X242935Y226420D01*
X242931Y226420D01*
X242931Y226423D01*
X242431Y226823D01*
X242418Y226824D01*
X242416Y226832D01*
X241816Y227032D01*
X241809Y227030D01*
X241807Y227034D01*
X241107Y227134D01*
X241098Y227129D01*
X241093Y227134D01*
X240393Y227034D01*
X240385Y227026D01*
X240378Y227029D01*
X239778Y226729D01*
X239775Y226722D01*
X239769Y226723D01*
X239269Y226323D01*
X239267Y226313D01*
X239259Y226312D01*
X238859Y225712D01*
X238859Y225706D01*
X238856Y225704D01*
X238857Y225702D01*
X238853Y225701D01*
X238653Y225101D01*
X238655Y225094D01*
X238651Y225092D01*
X238551Y224392D01*
X238556Y224383D01*
X238551Y224378D01*
X238651Y223678D01*
X238661Y223668D01*
X238658Y223660D01*
X238956Y223163D01*
X239248Y222481D01*
X239155Y222108D01*
X238670Y221526D01*
X237998Y221238D01*
X237432Y221426D01*
G37*
%LPD*%
%LPC*%
G36*
X237334Y211323D02*
X237334Y211323D01*
X236942Y211911D01*
X236646Y212405D01*
X236448Y213095D01*
X236349Y213788D01*
X236349Y214382D01*
X236449Y215077D01*
X236548Y215671D01*
X236845Y216364D01*
X237143Y216960D01*
X237537Y217551D01*
X238031Y217947D01*
X238529Y218345D01*
X239122Y218740D01*
X239711Y218937D01*
X240407Y219036D01*
X241100Y219135D01*
X241792Y219036D01*
X242389Y218937D01*
X243082Y218739D01*
X243673Y218443D01*
X244167Y218048D01*
X244663Y217552D01*
X245060Y217056D01*
X245455Y216463D01*
X245653Y215869D01*
X245852Y215274D01*
X245951Y214582D01*
X245951Y213889D01*
X245852Y213295D01*
X245653Y212500D01*
X245456Y212008D01*
X245066Y211423D01*
X244492Y211136D01*
X243919Y211232D01*
X243240Y211717D01*
X243052Y212187D01*
X243244Y212762D01*
X243539Y213155D01*
X243539Y213164D01*
X243544Y213167D01*
X243543Y213170D01*
X243547Y213171D01*
X243560Y213217D01*
X243602Y213364D01*
X243603Y213364D01*
X243602Y213364D01*
X243645Y213512D01*
X243659Y213561D01*
X243701Y213709D01*
X243743Y213857D01*
X243747Y213871D01*
X243744Y213881D01*
X243749Y213885D01*
X243749Y214485D01*
X243746Y214489D01*
X243749Y214492D01*
X243649Y215192D01*
X243641Y215200D01*
X243644Y215207D01*
X243344Y215807D01*
X243334Y215812D01*
X243335Y215820D01*
X242835Y216320D01*
X242831Y216320D01*
X242831Y216323D01*
X242331Y216723D01*
X242312Y216724D01*
X242307Y216734D01*
X240907Y216934D01*
X240894Y216927D01*
X240886Y216932D01*
X240186Y216732D01*
X240182Y216727D01*
X240178Y216729D01*
X239578Y216429D01*
X239573Y216419D01*
X239565Y216420D01*
X239165Y216020D01*
X239164Y216010D01*
X239157Y216009D01*
X238757Y215309D01*
X238758Y215302D01*
X238753Y215301D01*
X238553Y214701D01*
X238557Y214690D01*
X238551Y214685D01*
X238551Y213985D01*
X238554Y213980D01*
X238551Y213977D01*
X238651Y213377D01*
X238662Y213367D01*
X238659Y213358D01*
X239055Y212763D01*
X239248Y212187D01*
X239059Y211715D01*
X238476Y211229D01*
X237904Y211038D01*
X237334Y211323D01*
G37*
%LPD*%
%LPC*%
G36*
X29751Y160549D02*
X29751Y160549D01*
X29074Y160743D01*
X28502Y160933D01*
X28030Y161311D01*
X27541Y161800D01*
X27165Y162270D01*
X26979Y162921D01*
X26979Y163588D01*
X27074Y164153D01*
X27353Y164712D01*
X27836Y165194D01*
X27857Y165243D01*
X27875Y165264D01*
X27975Y165664D01*
X27973Y165680D01*
X27979Y165695D01*
X27968Y165719D01*
X27962Y165770D01*
X27933Y165795D01*
X27923Y165817D01*
X27449Y166196D01*
X27179Y166735D01*
X27179Y167389D01*
X27274Y168055D01*
X27556Y168619D01*
X27941Y169100D01*
X28892Y170051D01*
X30719Y170051D01*
X31385Y169956D01*
X32542Y169377D01*
X33014Y168905D01*
X33389Y168342D01*
X33484Y167871D01*
X33484Y167870D01*
X33495Y167853D01*
X33488Y167847D01*
X33305Y167296D01*
X32774Y166942D01*
X32260Y166856D01*
X31830Y167114D01*
X31447Y167593D01*
X31422Y167607D01*
X31413Y167624D01*
X30813Y168024D01*
X30753Y168037D01*
X30730Y168049D01*
X30030Y168049D01*
X29989Y168033D01*
X29963Y168034D01*
X29363Y167734D01*
X29363Y167733D01*
X29362Y167733D01*
X29359Y167729D01*
X29291Y167654D01*
X29291Y167636D01*
X29283Y167625D01*
X29183Y167025D01*
X29187Y167005D01*
X29181Y166985D01*
X29195Y166964D01*
X29204Y166919D01*
X29240Y166894D01*
X29253Y166872D01*
X29753Y166572D01*
X29793Y166565D01*
X29814Y166552D01*
X30707Y166452D01*
X31116Y166371D01*
X31281Y165876D01*
X31281Y165041D01*
X31038Y164636D01*
X30507Y164548D01*
X29809Y164448D01*
X29772Y164427D01*
X29747Y164424D01*
X29147Y164024D01*
X29085Y163936D01*
X29086Y163929D01*
X29083Y163925D01*
X28983Y163325D01*
X29004Y163219D01*
X29012Y163214D01*
X29013Y163207D01*
X29413Y162707D01*
X29464Y162677D01*
X29483Y162658D01*
X30083Y162458D01*
X30112Y162460D01*
X30130Y162451D01*
X30930Y162451D01*
X30987Y162473D01*
X31013Y162476D01*
X31613Y162876D01*
X31642Y162917D01*
X31664Y162933D01*
X31953Y163512D01*
X32300Y163859D01*
X32922Y163948D01*
X33642Y163768D01*
X33881Y163450D01*
X33881Y162921D01*
X33693Y162263D01*
X33319Y161702D01*
X32837Y161317D01*
X32358Y160933D01*
X31786Y160743D01*
X31109Y160549D01*
X29751Y160549D01*
G37*
%LPD*%
%LPC*%
G36*
X280410Y102724D02*
X280410Y102724D01*
X279722Y103019D01*
X279225Y103317D01*
X279200Y103315D01*
X279190Y103323D01*
X278731Y103231D01*
X277956Y105168D01*
X278239Y105545D01*
X278239Y105563D01*
X278249Y105569D01*
X278347Y106356D01*
X278627Y106729D01*
X279394Y106825D01*
X279859Y106638D01*
X280052Y105965D01*
X280151Y105268D01*
X280173Y105246D01*
X280175Y105233D01*
X280675Y104933D01*
X280693Y104935D01*
X280700Y104926D01*
X281300Y104926D01*
X281318Y104940D01*
X281331Y104937D01*
X281831Y105337D01*
X281838Y105367D01*
X281849Y105375D01*
X281849Y107375D01*
X281845Y107381D01*
X281848Y107385D01*
X281748Y107885D01*
X281704Y107924D01*
X281702Y107922D01*
X281700Y107924D01*
X276915Y107924D01*
X274649Y109399D01*
X274649Y109559D01*
X274930Y109933D01*
X275508Y110126D01*
X282997Y110126D01*
X283673Y110029D01*
X283953Y109656D01*
X284051Y108972D01*
X284051Y104887D01*
X283757Y104300D01*
X283363Y103709D01*
X282869Y103313D01*
X282377Y102920D01*
X281693Y102724D01*
X280410Y102724D01*
G37*
%LPD*%
%LPC*%
G36*
X51141Y160549D02*
X51141Y160549D01*
X50464Y160646D01*
X49887Y160838D01*
X49311Y161126D01*
X48836Y161506D01*
X48456Y161981D01*
X48174Y162545D01*
X48079Y163211D01*
X48079Y163876D01*
X48263Y164428D01*
X48641Y164900D01*
X49136Y165394D01*
X49155Y165437D01*
X49178Y165478D01*
X49175Y165485D01*
X49179Y165493D01*
X49145Y165595D01*
X49138Y165599D01*
X49136Y165606D01*
X48741Y166000D01*
X48365Y166470D01*
X48183Y167109D01*
X48277Y167675D01*
X48271Y167706D01*
X48275Y167737D01*
X48268Y167744D01*
X48269Y167745D01*
X48463Y168230D01*
X48851Y168812D01*
X49241Y169300D01*
X49728Y169787D01*
X50080Y170051D01*
X51419Y170051D01*
X52107Y169953D01*
X52688Y169856D01*
X53353Y169571D01*
X53825Y169193D01*
X54297Y168626D01*
X54481Y168076D01*
X54481Y167552D01*
X54134Y167119D01*
X53595Y166849D01*
X53100Y166849D01*
X52645Y167395D01*
X52247Y167893D01*
X52154Y167947D01*
X52152Y167947D01*
X52151Y167948D01*
X51451Y168048D01*
X51424Y168042D01*
X51405Y168047D01*
X50805Y167947D01*
X50716Y167895D01*
X50713Y167893D01*
X50313Y167393D01*
X50281Y167291D01*
X50286Y167280D01*
X50284Y167271D01*
X50384Y166771D01*
X50397Y166750D01*
X50400Y166727D01*
X50408Y166721D01*
X50409Y166718D01*
X50421Y166712D01*
X50441Y166680D01*
X50489Y166667D01*
X50512Y166652D01*
X51310Y166552D01*
X51971Y166458D01*
X52289Y166219D01*
X52380Y165402D01*
X52292Y164791D01*
X51889Y164549D01*
X51230Y164549D01*
X51203Y164539D01*
X51183Y164542D01*
X50583Y164342D01*
X50524Y164293D01*
X50506Y164283D01*
X50106Y163683D01*
X50082Y163578D01*
X50083Y163577D01*
X50083Y163575D01*
X50183Y162975D01*
X50237Y162883D01*
X50248Y162880D01*
X50253Y162872D01*
X50753Y162572D01*
X50791Y162565D01*
X50812Y162552D01*
X51612Y162452D01*
X51648Y162461D01*
X51671Y162457D01*
X52371Y162657D01*
X52410Y162686D01*
X52436Y162694D01*
X52836Y163094D01*
X52847Y163121D01*
X52864Y163133D01*
X53144Y163694D01*
X53564Y163946D01*
X54393Y163854D01*
X54810Y163687D01*
X54977Y163188D01*
X54886Y162642D01*
X54604Y161985D01*
X53742Y161123D01*
X53173Y160838D01*
X52596Y160646D01*
X51919Y160549D01*
X51141Y160549D01*
G37*
%LPD*%
%LPC*%
G36*
X237035Y231824D02*
X237035Y231824D01*
X236454Y232890D01*
X236641Y233452D01*
X237123Y233741D01*
X242721Y236340D01*
X242749Y236393D01*
X242739Y236398D01*
X242744Y236407D01*
X242644Y236607D01*
X242623Y236617D01*
X242620Y236630D01*
X237321Y239029D01*
X236932Y239224D01*
X236549Y239702D01*
X236549Y240185D01*
X236528Y240213D01*
X236527Y240226D01*
X236498Y240245D01*
X236534Y240249D01*
X236533Y240259D01*
X236543Y240261D01*
X236936Y240949D01*
X237410Y241233D01*
X237985Y241138D01*
X238578Y240841D01*
X245273Y237543D01*
X245757Y237156D01*
X245950Y236482D01*
X245854Y235906D01*
X245468Y235424D01*
X244878Y235129D01*
X238178Y231829D01*
X238152Y231776D01*
X238161Y231771D01*
X238157Y231762D01*
X238173Y231731D01*
X237506Y231636D01*
X237035Y231824D01*
G37*
%LPD*%
%LPC*%
G36*
X51054Y135149D02*
X51054Y135149D01*
X50477Y135342D01*
X49896Y135535D01*
X49325Y135916D01*
X48853Y136388D01*
X48568Y136957D01*
X48379Y137524D01*
X48379Y138189D01*
X48476Y138866D01*
X48665Y139434D01*
X49032Y139984D01*
X49587Y140262D01*
X50177Y140458D01*
X50183Y140463D01*
X50189Y140463D01*
X50872Y140756D01*
X51455Y140853D01*
X51463Y140858D01*
X51471Y140857D01*
X52171Y141057D01*
X52200Y141079D01*
X52223Y141083D01*
X52723Y141483D01*
X52777Y141576D01*
X52774Y141590D01*
X52779Y141600D01*
X52779Y142300D01*
X52776Y142307D01*
X52779Y142315D01*
X52766Y142334D01*
X52749Y142379D01*
X52745Y142392D01*
X52744Y142393D01*
X52741Y142400D01*
X52717Y142412D01*
X52707Y142428D01*
X52207Y142728D01*
X52154Y142737D01*
X52130Y142749D01*
X51330Y142749D01*
X51280Y142730D01*
X51253Y142728D01*
X50758Y142431D01*
X50195Y142149D01*
X49692Y142149D01*
X49250Y142591D01*
X48895Y143212D01*
X49055Y143610D01*
X49617Y144078D01*
X50090Y144362D01*
X50763Y144554D01*
X51342Y144651D01*
X52119Y144651D01*
X52785Y144556D01*
X53358Y144269D01*
X53853Y143972D01*
X53898Y143964D01*
X53942Y143951D01*
X53949Y143955D01*
X53956Y143954D01*
X54304Y143519D01*
X54592Y142943D01*
X54781Y142376D01*
X54781Y141711D01*
X54684Y141034D01*
X54500Y140481D01*
X54030Y140011D01*
X53558Y139633D01*
X52983Y139442D01*
X52977Y139437D01*
X52971Y139437D01*
X52289Y139145D01*
X51609Y139048D01*
X51595Y139040D01*
X51583Y139042D01*
X50983Y138842D01*
X50958Y138821D01*
X50937Y138817D01*
X50437Y138417D01*
X50433Y138409D01*
X50425Y138406D01*
X50417Y138383D01*
X50383Y138324D01*
X50388Y138297D01*
X50382Y138279D01*
X50482Y137579D01*
X50517Y137516D01*
X50524Y137494D01*
X50924Y137094D01*
X50994Y137064D01*
X51012Y137052D01*
X51812Y136952D01*
X51870Y136967D01*
X51897Y136967D01*
X52497Y137267D01*
X52504Y137275D01*
X52513Y137276D01*
X53113Y137676D01*
X53118Y137684D01*
X53126Y137685D01*
X53684Y138151D01*
X54085Y138151D01*
X54622Y137792D01*
X54972Y137269D01*
X54890Y136863D01*
X54612Y136491D01*
X54231Y136016D01*
X53556Y135630D01*
X53555Y135628D01*
X53553Y135628D01*
X53070Y135338D01*
X52409Y135149D01*
X51054Y135149D01*
G37*
%LPD*%
%LPC*%
G36*
X48411Y109749D02*
X48411Y109749D01*
X47744Y109940D01*
X47171Y110226D01*
X46696Y110606D01*
X46316Y111081D01*
X46028Y111657D01*
X45839Y112224D01*
X45839Y112900D01*
X45831Y112922D01*
X45832Y112946D01*
X45827Y112951D01*
X45827Y112962D01*
X45837Y112975D01*
X45934Y113553D01*
X46219Y114125D01*
X46592Y114684D01*
X47147Y114962D01*
X47734Y115157D01*
X48421Y115354D01*
X49111Y115452D01*
X49137Y115467D01*
X49157Y115467D01*
X49757Y115767D01*
X49777Y115788D01*
X49796Y115794D01*
X50195Y116194D01*
X50196Y116194D01*
X50239Y116293D01*
X50234Y116309D01*
X50238Y116321D01*
X50138Y117021D01*
X50137Y117023D01*
X50137Y117026D01*
X50129Y117036D01*
X50085Y117115D01*
X50066Y117121D01*
X50057Y117134D01*
X49457Y117434D01*
X49393Y117440D01*
X49369Y117448D01*
X48669Y117348D01*
X48623Y117322D01*
X48597Y117317D01*
X48113Y116929D01*
X47488Y116662D01*
X47081Y116825D01*
X46616Y117382D01*
X46360Y117894D01*
X46604Y118300D01*
X47071Y118674D01*
X47644Y118960D01*
X48321Y119154D01*
X49001Y119251D01*
X49669Y119251D01*
X50346Y119057D01*
X50918Y118867D01*
X51390Y118489D01*
X51867Y118012D01*
X52146Y117453D01*
X52241Y116888D01*
X52241Y116211D01*
X52146Y115545D01*
X51867Y114988D01*
X51397Y114519D01*
X50922Y114233D01*
X50237Y113940D01*
X49656Y113746D01*
X48969Y113648D01*
X48955Y113640D01*
X48943Y113642D01*
X48343Y113442D01*
X48298Y113404D01*
X48273Y113393D01*
X47873Y112893D01*
X47841Y112791D01*
X47844Y112784D01*
X47842Y112779D01*
X47942Y112079D01*
X47995Y111985D01*
X48008Y111981D01*
X48013Y111972D01*
X48513Y111672D01*
X48551Y111665D01*
X48572Y111652D01*
X49372Y111552D01*
X49463Y111575D01*
X49473Y111576D01*
X50673Y112376D01*
X50677Y112382D01*
X50683Y112383D01*
X51142Y112751D01*
X51636Y112751D01*
X52175Y112301D01*
X52427Y111882D01*
X52256Y111370D01*
X51977Y110998D01*
X51495Y110516D01*
X50915Y110129D01*
X50343Y109844D01*
X49778Y109749D01*
X48411Y109749D01*
G37*
%LPD*%
%LPC*%
G36*
X40493Y135536D02*
X40493Y135536D01*
X40010Y135826D01*
X39425Y136216D01*
X38946Y136695D01*
X38559Y137275D01*
X38268Y137857D01*
X38073Y138444D01*
X37879Y139121D01*
X37879Y139700D01*
X37879Y139702D01*
X37879Y139704D01*
X37860Y139750D01*
X37875Y139791D01*
X37879Y139800D01*
X37879Y140379D01*
X38073Y141056D01*
X38268Y141643D01*
X38556Y142219D01*
X38941Y142700D01*
X39431Y143190D01*
X40017Y143678D01*
X40490Y143962D01*
X41171Y144157D01*
X41174Y144159D01*
X41177Y144158D01*
X41754Y144351D01*
X44821Y144351D01*
X45539Y144261D01*
X45781Y143859D01*
X45781Y137649D01*
X43779Y137649D01*
X43779Y142200D01*
X43762Y142244D01*
X43750Y142289D01*
X43744Y142292D01*
X43741Y142300D01*
X43645Y142349D01*
X43636Y142346D01*
X43630Y142349D01*
X42330Y142349D01*
X42318Y142345D01*
X42309Y142348D01*
X41609Y142248D01*
X41583Y142233D01*
X41563Y142234D01*
X40963Y141934D01*
X40944Y141912D01*
X40924Y141906D01*
X40424Y141406D01*
X40416Y141385D01*
X40402Y141377D01*
X40102Y140877D01*
X40098Y140853D01*
X40087Y140841D01*
X39887Y140141D01*
X39889Y140116D01*
X39881Y140100D01*
X39881Y139400D01*
X39891Y139373D01*
X39888Y139353D01*
X40088Y138753D01*
X40097Y138743D01*
X40097Y138733D01*
X40397Y138133D01*
X40418Y138114D01*
X40424Y138094D01*
X40924Y137594D01*
X40951Y137583D01*
X40963Y137567D01*
X41642Y137227D01*
X40941Y135387D01*
X40493Y135536D01*
G37*
%LPD*%
%LPC*%
G36*
X38301Y109749D02*
X38301Y109749D01*
X37627Y109845D01*
X36843Y110139D01*
X36366Y110330D01*
X35909Y110696D01*
X35657Y111200D01*
X35918Y111723D01*
X36380Y112369D01*
X36677Y112443D01*
X37315Y112170D01*
X37700Y111881D01*
X37747Y111867D01*
X37769Y111852D01*
X38469Y111752D01*
X38481Y111755D01*
X38490Y111751D01*
X39190Y111751D01*
X39217Y111761D01*
X39237Y111758D01*
X39837Y111958D01*
X39847Y111967D01*
X39857Y111967D01*
X40457Y112267D01*
X40477Y112288D01*
X40496Y112294D01*
X40996Y112794D01*
X41007Y112821D01*
X41024Y112833D01*
X41324Y113433D01*
X41326Y113460D01*
X41337Y113475D01*
X41437Y114075D01*
X41434Y114090D01*
X41439Y114100D01*
X41439Y114900D01*
X41434Y114914D01*
X41437Y114925D01*
X41337Y115525D01*
X41317Y115559D01*
X41314Y115583D01*
X40914Y116183D01*
X40891Y116199D01*
X40883Y116217D01*
X40383Y116617D01*
X40365Y116622D01*
X40357Y116634D01*
X39757Y116934D01*
X39740Y116935D01*
X39731Y116944D01*
X39031Y117144D01*
X39006Y117141D01*
X38990Y117149D01*
X38290Y117149D01*
X38263Y117139D01*
X38243Y117142D01*
X37643Y116942D01*
X37624Y116926D01*
X37607Y116924D01*
X37032Y116541D01*
X36617Y116458D01*
X36189Y116715D01*
X35731Y117264D01*
X35637Y117825D01*
X35630Y117836D01*
X35992Y118289D01*
X36560Y118667D01*
X37038Y118859D01*
X37721Y119054D01*
X38401Y119151D01*
X39078Y119151D01*
X39657Y119054D01*
X40346Y118857D01*
X40924Y118665D01*
X41502Y118279D01*
X41990Y117889D01*
X42479Y117400D01*
X42864Y116919D01*
X43150Y116346D01*
X43344Y115667D01*
X43441Y115088D01*
X43441Y113700D01*
X43449Y113678D01*
X43448Y113654D01*
X43451Y113650D01*
X43448Y113647D01*
X43052Y112457D01*
X42764Y111881D01*
X42379Y111400D01*
X41895Y110916D01*
X41315Y110529D01*
X40133Y109938D01*
X39566Y109749D01*
X38301Y109749D01*
G37*
%LPD*%
G36*
X104014Y118681D02*
X104014Y118681D01*
X104032Y118697D01*
X104045Y118695D01*
X104645Y119295D01*
X104646Y119306D01*
X104647Y119306D01*
X104646Y119307D01*
X104648Y119318D01*
X104659Y119325D01*
X104759Y120225D01*
X104757Y120228D01*
X104759Y120230D01*
X104759Y127130D01*
X104757Y127133D01*
X104759Y127135D01*
X104659Y128135D01*
X104645Y128150D01*
X104648Y128162D01*
X104148Y128762D01*
X104121Y128768D01*
X104114Y128779D01*
X102814Y128879D01*
X102806Y128874D01*
X102805Y128874D01*
X102800Y128878D01*
X101800Y128678D01*
X101783Y128659D01*
X101770Y128659D01*
X101270Y127959D01*
X101270Y127953D01*
X101268Y127952D01*
X101270Y127949D01*
X101271Y127937D01*
X101261Y127930D01*
X101261Y119630D01*
X101272Y119616D01*
X101267Y119606D01*
X101667Y118906D01*
X101691Y118895D01*
X101696Y118883D01*
X102696Y118583D01*
X102708Y118587D01*
X102714Y118581D01*
X104014Y118681D01*
G37*
%LPC*%
G36*
X40765Y160549D02*
X40765Y160549D01*
X40241Y160811D01*
X39964Y161367D01*
X39963Y161367D01*
X36664Y168066D01*
X36664Y168067D01*
X36367Y168659D01*
X36376Y168671D01*
X36468Y169126D01*
X36914Y169573D01*
X37359Y169751D01*
X37868Y169751D01*
X38207Y169412D01*
X38496Y168835D01*
X40794Y163838D01*
X40805Y163828D01*
X40806Y163817D01*
X41006Y163517D01*
X41032Y163499D01*
X41050Y163474D01*
X41074Y163469D01*
X41094Y163455D01*
X41125Y163459D01*
X41156Y163453D01*
X41172Y163465D01*
X41200Y163468D01*
X41243Y163518D01*
X41264Y163533D01*
X41564Y164133D01*
X41564Y164136D01*
X41566Y164138D01*
X43666Y168738D01*
X43666Y168748D01*
X43672Y168753D01*
X43860Y169319D01*
X44211Y169670D01*
X44723Y169840D01*
X45345Y169574D01*
X45781Y169138D01*
X45781Y168700D01*
X45788Y168682D01*
X45785Y168663D01*
X45791Y168656D01*
X45497Y168067D01*
X45496Y168066D01*
X42197Y161367D01*
X41919Y160811D01*
X41395Y160549D01*
X40765Y160549D01*
G37*
%LPD*%
G36*
X151514Y118681D02*
X151514Y118681D01*
X151530Y118695D01*
X151542Y118693D01*
X152242Y119293D01*
X152245Y119306D01*
X152248Y119322D01*
X152259Y119330D01*
X152259Y128130D01*
X152243Y128151D01*
X152245Y128165D01*
X151645Y128765D01*
X151621Y128768D01*
X151614Y128779D01*
X150414Y128879D01*
X150406Y128874D01*
X150401Y128878D01*
X149301Y128678D01*
X149281Y128656D01*
X149267Y128654D01*
X148867Y127954D01*
X148868Y127952D01*
X148867Y127952D01*
X148868Y127951D01*
X148870Y127937D01*
X148861Y127930D01*
X148861Y119630D01*
X148872Y119616D01*
X148867Y119606D01*
X149267Y118906D01*
X149290Y118896D01*
X149294Y118883D01*
X150194Y118583D01*
X150208Y118588D01*
X150214Y118581D01*
X151514Y118681D01*
G37*
%LPC*%
G36*
X277112Y93324D02*
X277112Y93324D01*
X276525Y93618D01*
X275934Y94012D01*
X275538Y94506D01*
X275175Y94960D01*
X277091Y96014D01*
X277565Y95540D01*
X277592Y95537D01*
X277600Y95526D01*
X278300Y95526D01*
X278313Y95535D01*
X278322Y95531D01*
X278922Y95831D01*
X278934Y95856D01*
X278947Y95861D01*
X279247Y96861D01*
X279244Y96871D01*
X279249Y96875D01*
X279249Y98175D01*
X279213Y98222D01*
X279210Y98220D01*
X279208Y98224D01*
X278608Y98324D01*
X278605Y98322D01*
X278602Y98322D01*
X278600Y98324D01*
X277350Y98324D01*
X277398Y100526D01*
X283391Y100526D01*
X283859Y100338D01*
X284051Y99668D01*
X284051Y98892D01*
X283673Y98421D01*
X283096Y98324D01*
X281700Y98324D01*
X281667Y98299D01*
X281656Y98297D01*
X281456Y97897D01*
X281457Y97894D01*
X281454Y97892D01*
X281458Y97887D01*
X281459Y97881D01*
X281451Y97875D01*
X281451Y96479D01*
X281352Y95887D01*
X281155Y95297D01*
X280759Y94702D01*
X280363Y94109D01*
X279873Y93717D01*
X279285Y93423D01*
X278597Y93324D01*
X277112Y93324D01*
G37*
%LPD*%
%LPC*%
G36*
X27481Y135243D02*
X27481Y135243D01*
X26838Y135610D01*
X26593Y136018D01*
X26769Y136544D01*
X30357Y143920D01*
X30711Y144362D01*
X31221Y144447D01*
X31843Y144270D01*
X32203Y143819D01*
X34316Y139531D01*
X32126Y139262D01*
X31969Y139655D01*
X31963Y139661D01*
X31964Y139667D01*
X31664Y140267D01*
X31642Y140287D01*
X31636Y140306D01*
X31236Y140706D01*
X31220Y140713D01*
X31210Y140726D01*
X31172Y140734D01*
X31137Y140749D01*
X31121Y140744D01*
X31104Y140747D01*
X31083Y140731D01*
X31035Y140715D01*
X31016Y140681D01*
X30997Y140667D01*
X30397Y139467D01*
X30386Y139360D01*
X30397Y139346D01*
X30397Y139333D01*
X30597Y138933D01*
X30607Y138924D01*
X30610Y138911D01*
X30634Y138899D01*
X30676Y138861D01*
X30710Y138861D01*
X30730Y138851D01*
X31931Y138851D01*
X32605Y137249D01*
X29530Y137249D01*
X29430Y137211D01*
X29423Y137198D01*
X29413Y137193D01*
X29013Y136693D01*
X29007Y136672D01*
X28995Y136663D01*
X28414Y135404D01*
X28000Y135156D01*
X27481Y135243D01*
G37*
%LPD*%
%LPC*%
G36*
X212967Y104199D02*
X212967Y104199D01*
X212496Y104576D01*
X212399Y105253D01*
X212399Y108550D01*
X212363Y108597D01*
X212356Y108592D01*
X212350Y108599D01*
X205754Y108599D01*
X205181Y108695D01*
X204898Y109166D01*
X204800Y110045D01*
X204990Y110613D01*
X205459Y110801D01*
X213641Y110801D01*
X214105Y110615D01*
X214201Y109947D01*
X214201Y105153D01*
X214105Y104480D01*
X213636Y104199D01*
X212967Y104199D01*
G37*
%LPD*%
G36*
X197261Y97052D02*
X197261Y97052D01*
X197275Y97050D01*
X197675Y97450D01*
X197676Y97462D01*
X197681Y97466D01*
X197678Y97471D01*
X197678Y97473D01*
X197689Y97479D01*
X197789Y98279D01*
X197784Y98287D01*
X197789Y98292D01*
X197689Y98992D01*
X197667Y99014D01*
X197665Y99027D01*
X197165Y99327D01*
X197152Y99326D01*
X197148Y99334D01*
X196548Y99434D01*
X196543Y99431D01*
X196540Y99434D01*
X192448Y99434D01*
X192213Y99513D01*
X192583Y100161D01*
X192582Y100170D01*
X192587Y100174D01*
X192583Y100180D01*
X192589Y100185D01*
X192589Y100685D01*
X192575Y100704D01*
X192578Y100717D01*
X192078Y101317D01*
X192064Y101320D01*
X192062Y101329D01*
X191462Y101629D01*
X191440Y101625D01*
X191430Y101633D01*
X190930Y101533D01*
X190919Y101520D01*
X190908Y101523D01*
X190308Y101023D01*
X190307Y101018D01*
X190304Y101019D01*
X188904Y99519D01*
X188904Y99516D01*
X188902Y99516D01*
X188502Y99016D01*
X188501Y99008D01*
X188496Y99007D01*
X188196Y98407D01*
X188199Y98391D01*
X188191Y98385D01*
X188191Y97685D01*
X188202Y97670D01*
X188198Y97660D01*
X188498Y97160D01*
X188526Y97149D01*
X188532Y97136D01*
X189132Y97036D01*
X189137Y97039D01*
X189140Y97036D01*
X197240Y97036D01*
X197261Y97052D01*
G37*
%LPC*%
G36*
X364503Y8249D02*
X364503Y8249D01*
X363830Y8345D01*
X363549Y8814D01*
X363549Y9488D01*
X363842Y10074D01*
X364138Y10468D01*
X366028Y12458D01*
X366518Y12654D01*
X366532Y12677D01*
X366548Y12689D01*
X366545Y12693D01*
X366549Y12695D01*
X366552Y12725D01*
X366551Y12703D01*
X366580Y12659D01*
X366582Y12654D01*
X367074Y12457D01*
X367654Y11974D01*
X367749Y11408D01*
X367456Y10822D01*
X367461Y10796D01*
X367459Y10795D01*
X367460Y10794D01*
X367453Y10784D01*
X367553Y10484D01*
X367597Y10454D01*
X367600Y10451D01*
X372386Y10451D01*
X372855Y10170D01*
X372951Y9497D01*
X372951Y8720D01*
X372576Y8346D01*
X371996Y8249D01*
X364503Y8249D01*
G37*
%LPD*%
%LPC*%
G36*
X27402Y109749D02*
X27402Y109749D01*
X26883Y109836D01*
X26639Y110241D01*
X26639Y110859D01*
X26881Y111262D01*
X27501Y111351D01*
X30890Y111351D01*
X30934Y111368D01*
X30979Y111380D01*
X30982Y111386D01*
X30990Y111389D01*
X31039Y111485D01*
X31036Y111494D01*
X31039Y111500D01*
X31039Y118088D01*
X31128Y118619D01*
X31542Y118951D01*
X32366Y118951D01*
X32877Y118780D01*
X33050Y118348D01*
X33048Y118346D01*
X33050Y118318D01*
X33041Y118300D01*
X33041Y110241D01*
X32799Y109838D01*
X32179Y109749D01*
X27402Y109749D01*
G37*
%LPD*%
%LPC*%
G36*
X276715Y103023D02*
X276715Y103023D01*
X276122Y103319D01*
X275532Y103614D01*
X275142Y104102D01*
X274846Y104693D01*
X274649Y105382D01*
X274649Y109282D01*
X276851Y107848D01*
X276851Y105875D01*
X276860Y105862D01*
X276856Y105853D01*
X277156Y105253D01*
X277187Y105238D01*
X277193Y105226D01*
X277865Y105130D01*
X278635Y103205D01*
X278089Y103023D01*
X277400Y102925D01*
X276715Y103023D01*
G37*
%LPD*%
%LPC*%
G36*
X145928Y212640D02*
X145928Y212640D01*
X145465Y212733D01*
X145433Y212732D01*
X145390Y212740D01*
X144980Y212740D01*
X144660Y212900D01*
X144627Y212908D01*
X144582Y212929D01*
X144246Y213013D01*
X144032Y213156D01*
X143886Y213302D01*
X143706Y213571D01*
X143684Y213592D01*
X143659Y213629D01*
X143522Y213765D01*
X143351Y214280D01*
X143338Y214300D01*
X143330Y214330D01*
X143242Y214506D01*
X143170Y214722D01*
X143170Y216345D01*
X143420Y216220D01*
X143435Y216216D01*
X143448Y216207D01*
X143582Y216181D01*
X143589Y216180D01*
X143590Y216180D01*
X143700Y216180D01*
X143820Y216120D01*
X143835Y216116D01*
X143848Y216107D01*
X143982Y216081D01*
X143989Y216080D01*
X143990Y216080D01*
X144300Y216080D01*
X144420Y216020D01*
X144435Y216016D01*
X144448Y216007D01*
X144582Y215981D01*
X144589Y215980D01*
X144590Y215980D01*
X144728Y215980D01*
X144970Y215899D01*
X145007Y215896D01*
X145090Y215880D01*
X145428Y215880D01*
X145670Y215799D01*
X145707Y215796D01*
X145790Y215780D01*
X146100Y215780D01*
X146220Y215720D01*
X146235Y215716D01*
X146248Y215707D01*
X146382Y215681D01*
X146389Y215680D01*
X146390Y215680D01*
X146528Y215680D01*
X146744Y215608D01*
X146865Y215548D01*
X146921Y215491D01*
X146953Y215471D01*
X147020Y215420D01*
X147365Y215248D01*
X147421Y215191D01*
X147453Y215171D01*
X147520Y215120D01*
X147607Y215077D01*
X147810Y214670D01*
X147810Y214560D01*
X147813Y214545D01*
X147811Y214530D01*
X147848Y214398D01*
X147849Y214391D01*
X147850Y214391D01*
X147850Y214390D01*
X147910Y214270D01*
X147910Y213922D01*
X147829Y213680D01*
X147826Y213643D01*
X147810Y213560D01*
X147810Y213450D01*
X147778Y213385D01*
X147721Y213329D01*
X147713Y213315D01*
X147710Y213313D01*
X147706Y213305D01*
X147701Y213297D01*
X147650Y213230D01*
X147607Y213143D01*
X147520Y213100D01*
X147491Y213076D01*
X147421Y213029D01*
X147365Y212973D01*
X147100Y212840D01*
X146990Y212840D01*
X146975Y212837D01*
X146960Y212839D01*
X146828Y212802D01*
X146821Y212801D01*
X146821Y212800D01*
X146820Y212800D01*
X146700Y212740D01*
X146590Y212740D01*
X146575Y212737D01*
X146560Y212739D01*
X146428Y212702D01*
X146421Y212701D01*
X146421Y212700D01*
X146420Y212700D01*
X146345Y212663D01*
X146345Y212662D01*
X146300Y212640D01*
X145928Y212640D01*
G37*
%LPD*%
%LPC*%
G36*
X126027Y126079D02*
X126027Y126079D01*
X125547Y126463D01*
X125059Y127244D01*
X125059Y128314D01*
X125642Y129090D01*
X126520Y129481D01*
X128492Y129481D01*
X129061Y129007D01*
X129061Y126079D01*
X126027Y126079D01*
G37*
%LPD*%
%LPC*%
G36*
X274846Y95694D02*
X274846Y95694D01*
X274649Y96283D01*
X274649Y99668D01*
X274655Y99687D01*
X274697Y99835D01*
X274739Y99983D01*
X274753Y100032D01*
X274795Y100180D01*
X274796Y100180D01*
X274795Y100180D01*
X274838Y100328D01*
X274841Y100338D01*
X275309Y100526D01*
X277300Y100526D01*
X277251Y98306D01*
X276878Y98119D01*
X276869Y98100D01*
X276854Y98089D01*
X276859Y98081D01*
X276851Y98075D01*
X276851Y96675D01*
X276858Y96666D01*
X276853Y96659D01*
X277040Y96100D01*
X275122Y95141D01*
X274846Y95694D01*
G37*
%LPD*%
%LPC*%
G36*
X113221Y122178D02*
X113221Y122178D01*
X112338Y122472D01*
X111658Y123250D01*
X111560Y124322D01*
X111950Y125198D01*
X112729Y125782D01*
X113700Y125879D01*
X114576Y125392D01*
X115062Y124712D01*
X115160Y123540D01*
X114771Y122762D01*
X113980Y122169D01*
X113974Y122147D01*
X113965Y122140D01*
X113970Y122133D01*
X113964Y122112D01*
X113970Y122111D01*
X113968Y122105D01*
X113980Y122083D01*
X113221Y122178D01*
G37*
%LPD*%
G36*
X104014Y130381D02*
X104014Y130381D01*
X104032Y130397D01*
X104045Y130395D01*
X104745Y131095D01*
X104749Y131122D01*
X104759Y131130D01*
X104759Y132130D01*
X104757Y132133D01*
X104759Y132135D01*
X104659Y133035D01*
X104639Y133056D01*
X104639Y133070D01*
X103939Y133570D01*
X103920Y133570D01*
X103914Y133579D01*
X102614Y133679D01*
X102613Y133679D01*
X102609Y133679D01*
X102601Y133672D01*
X102594Y133677D01*
X101694Y133377D01*
X101679Y133355D01*
X101666Y133352D01*
X101266Y132552D01*
X101269Y132536D01*
X101261Y132530D01*
X101261Y131430D01*
X101268Y131421D01*
X101263Y131414D01*
X101563Y130514D01*
X101590Y130496D01*
X101594Y130483D01*
X101894Y130383D01*
X101902Y130386D01*
X101905Y130381D01*
X102905Y130281D01*
X102911Y130285D01*
X102914Y130281D01*
X104014Y130381D01*
G37*
G36*
X151515Y130381D02*
X151515Y130381D01*
X151532Y130397D01*
X151545Y130395D01*
X152245Y131095D01*
X152249Y131122D01*
X152259Y131130D01*
X152259Y132130D01*
X152257Y132133D01*
X152259Y132135D01*
X152159Y133035D01*
X152141Y133054D01*
X152142Y133068D01*
X151542Y133568D01*
X151520Y133569D01*
X151514Y133579D01*
X150114Y133679D01*
X150113Y133679D01*
X150109Y133679D01*
X150101Y133672D01*
X150094Y133677D01*
X149194Y133377D01*
X149177Y133351D01*
X149164Y133347D01*
X148864Y132547D01*
X148868Y132535D01*
X148861Y132530D01*
X148861Y131430D01*
X148868Y131421D01*
X148863Y131414D01*
X149163Y130514D01*
X149190Y130496D01*
X149194Y130483D01*
X149494Y130383D01*
X149502Y130386D01*
X149505Y130381D01*
X150505Y130281D01*
X150511Y130285D01*
X150515Y130281D01*
X151515Y130381D01*
G37*
%LPC*%
G36*
X41742Y135149D02*
X41742Y135149D01*
X41324Y135219D01*
X41939Y137151D01*
X43130Y137151D01*
X43147Y137157D01*
X43159Y137154D01*
X43646Y137251D01*
X45781Y137297D01*
X45781Y135812D01*
X45698Y135313D01*
X45206Y135149D01*
X41742Y135149D01*
G37*
%LPD*%
%LPC*%
G36*
X141017Y122079D02*
X141017Y122079D01*
X140038Y122373D01*
X139457Y123050D01*
X139360Y124022D01*
X139748Y124895D01*
X140620Y125379D01*
X141591Y125282D01*
X142367Y124700D01*
X142658Y123731D01*
X142366Y122855D01*
X141688Y122079D01*
X141017Y122079D01*
G37*
%LPD*%
%LPC*%
G36*
X33949Y135496D02*
X33949Y135496D01*
X33364Y136667D01*
X33358Y136671D01*
X33358Y136677D01*
X33062Y137170D01*
X32253Y138877D01*
X34502Y139153D01*
X35494Y137138D01*
X35787Y136455D01*
X35870Y136039D01*
X35531Y135616D01*
X34879Y135243D01*
X34371Y135158D01*
X33949Y135496D01*
G37*
%LPD*%
D10*
X375920Y67945D02*
X360680Y67945D01*
X380492Y52197D02*
X380490Y52064D01*
X380484Y51931D01*
X380475Y51799D01*
X380461Y51666D01*
X380444Y51534D01*
X380423Y51403D01*
X380398Y51272D01*
X380369Y51143D01*
X380336Y51014D01*
X380300Y50886D01*
X380260Y50759D01*
X380216Y50633D01*
X380169Y50509D01*
X380118Y50386D01*
X380064Y50265D01*
X380006Y50145D01*
X379944Y50027D01*
X379879Y49911D01*
X379811Y49797D01*
X379740Y49685D01*
X379665Y49575D01*
X379587Y49467D01*
X379506Y49361D01*
X379422Y49258D01*
X379335Y49158D01*
X379246Y49060D01*
X379153Y48964D01*
X379057Y48871D01*
X378959Y48782D01*
X378859Y48695D01*
X378756Y48611D01*
X378650Y48530D01*
X378542Y48452D01*
X378432Y48377D01*
X378320Y48306D01*
X378206Y48238D01*
X378090Y48173D01*
X377972Y48111D01*
X377852Y48053D01*
X377731Y47999D01*
X377608Y47948D01*
X377484Y47901D01*
X377358Y47857D01*
X377231Y47817D01*
X377103Y47781D01*
X376974Y47748D01*
X376845Y47719D01*
X376714Y47694D01*
X376583Y47673D01*
X376451Y47656D01*
X376318Y47642D01*
X376186Y47633D01*
X376053Y47627D01*
X375920Y47625D01*
X360680Y47625D02*
X360547Y47627D01*
X360414Y47633D01*
X360282Y47642D01*
X360149Y47656D01*
X360017Y47673D01*
X359886Y47694D01*
X359755Y47719D01*
X359626Y47748D01*
X359497Y47781D01*
X359369Y47817D01*
X359242Y47857D01*
X359116Y47901D01*
X358992Y47948D01*
X358869Y47999D01*
X358748Y48053D01*
X358628Y48111D01*
X358510Y48173D01*
X358394Y48238D01*
X358280Y48306D01*
X358168Y48377D01*
X358058Y48452D01*
X357950Y48530D01*
X357844Y48611D01*
X357741Y48695D01*
X357641Y48782D01*
X357543Y48871D01*
X357447Y48964D01*
X357354Y49060D01*
X357265Y49158D01*
X357178Y49258D01*
X357094Y49361D01*
X357013Y49467D01*
X356935Y49575D01*
X356860Y49685D01*
X356789Y49797D01*
X356721Y49911D01*
X356656Y50027D01*
X356594Y50145D01*
X356536Y50265D01*
X356482Y50386D01*
X356431Y50509D01*
X356384Y50633D01*
X356340Y50759D01*
X356300Y50886D01*
X356264Y51014D01*
X356231Y51143D01*
X356202Y51272D01*
X356177Y51403D01*
X356156Y51534D01*
X356139Y51666D01*
X356125Y51799D01*
X356116Y51931D01*
X356110Y52064D01*
X356108Y52197D01*
X356108Y63373D02*
X356110Y63506D01*
X356116Y63639D01*
X356125Y63771D01*
X356139Y63904D01*
X356156Y64036D01*
X356177Y64167D01*
X356202Y64298D01*
X356231Y64427D01*
X356264Y64556D01*
X356300Y64684D01*
X356340Y64811D01*
X356384Y64937D01*
X356431Y65061D01*
X356482Y65184D01*
X356536Y65305D01*
X356594Y65425D01*
X356656Y65543D01*
X356721Y65659D01*
X356789Y65773D01*
X356860Y65885D01*
X356935Y65995D01*
X357013Y66103D01*
X357094Y66209D01*
X357178Y66312D01*
X357265Y66412D01*
X357354Y66510D01*
X357447Y66606D01*
X357543Y66699D01*
X357641Y66788D01*
X357741Y66875D01*
X357844Y66959D01*
X357950Y67040D01*
X358058Y67118D01*
X358168Y67193D01*
X358280Y67264D01*
X358394Y67332D01*
X358510Y67397D01*
X358628Y67459D01*
X358748Y67517D01*
X358869Y67571D01*
X358992Y67622D01*
X359116Y67669D01*
X359242Y67713D01*
X359369Y67753D01*
X359497Y67789D01*
X359626Y67822D01*
X359755Y67851D01*
X359886Y67876D01*
X360017Y67897D01*
X360149Y67914D01*
X360282Y67928D01*
X360414Y67937D01*
X360547Y67943D01*
X360680Y67945D01*
X375920Y67945D02*
X376053Y67943D01*
X376186Y67937D01*
X376318Y67928D01*
X376451Y67914D01*
X376583Y67897D01*
X376714Y67876D01*
X376845Y67851D01*
X376974Y67822D01*
X377103Y67789D01*
X377231Y67753D01*
X377358Y67713D01*
X377484Y67669D01*
X377608Y67622D01*
X377731Y67571D01*
X377852Y67517D01*
X377972Y67459D01*
X378090Y67397D01*
X378206Y67332D01*
X378320Y67264D01*
X378432Y67193D01*
X378542Y67118D01*
X378650Y67040D01*
X378756Y66959D01*
X378859Y66875D01*
X378959Y66788D01*
X379057Y66699D01*
X379153Y66606D01*
X379246Y66510D01*
X379335Y66412D01*
X379422Y66312D01*
X379506Y66209D01*
X379587Y66103D01*
X379665Y65995D01*
X379740Y65885D01*
X379811Y65773D01*
X379879Y65659D01*
X379944Y65543D01*
X380006Y65425D01*
X380064Y65305D01*
X380118Y65184D01*
X380169Y65061D01*
X380216Y64937D01*
X380260Y64811D01*
X380300Y64684D01*
X380336Y64556D01*
X380369Y64427D01*
X380398Y64298D01*
X380423Y64167D01*
X380444Y64036D01*
X380461Y63904D01*
X380475Y63771D01*
X380484Y63639D01*
X380490Y63506D01*
X380492Y63373D01*
X380492Y52197D01*
X356108Y52197D02*
X356108Y63373D01*
X360680Y47625D02*
X375920Y47625D01*
D11*
X130870Y198260D03*
D12*
X125470Y197860D03*
D13*
X126620Y197510D03*
D14*
X127670Y197160D03*
D15*
X128470Y196760D03*
D16*
X128620Y196360D03*
D17*
X128670Y196010D03*
D18*
X129370Y194160D03*
X129370Y193760D03*
D19*
X129370Y193360D03*
D17*
X129370Y193010D03*
D20*
X129220Y192660D03*
D21*
X129220Y192260D03*
X129220Y191860D03*
D22*
X129220Y191510D03*
D23*
X129070Y191160D03*
X129070Y190760D03*
D24*
X128870Y190410D03*
D25*
X129020Y190060D03*
D26*
X128820Y189660D03*
X128820Y189260D03*
D27*
X128620Y188910D03*
D28*
X128620Y188560D03*
D29*
X128670Y188160D03*
D30*
X128470Y187760D03*
D31*
X128470Y187410D03*
D32*
X128270Y187060D03*
X128270Y186660D03*
D33*
X177270Y186260D03*
D34*
X167320Y186260D03*
D35*
X160620Y186260D03*
D36*
X152020Y186260D03*
D37*
X141320Y186260D03*
D35*
X133320Y186260D03*
D38*
X127520Y186260D03*
D39*
X118770Y186260D03*
D40*
X111470Y186260D03*
D41*
X89020Y186260D03*
D42*
X177820Y185910D03*
D43*
X166770Y185910D03*
D44*
X160620Y185910D03*
D45*
X152220Y185910D03*
X141320Y185910D03*
D46*
X133120Y185910D03*
D44*
X127320Y185910D03*
D45*
X119320Y185910D03*
D47*
X111270Y185910D03*
D48*
X88420Y185910D03*
D49*
X178170Y185560D03*
D50*
X166570Y185560D03*
D38*
X160420Y185560D03*
D51*
X152020Y185560D03*
D37*
X141320Y185560D03*
D35*
X133320Y185560D03*
X127320Y185560D03*
D52*
X119670Y185560D03*
D40*
X111470Y185560D03*
D53*
X88120Y185560D03*
D54*
X178570Y185160D03*
D35*
X166220Y185160D03*
D38*
X160420Y185160D03*
D51*
X152020Y185160D03*
D52*
X141370Y185160D03*
D35*
X133320Y185160D03*
X127320Y185160D03*
D55*
X120070Y185160D03*
D40*
X111470Y185160D03*
D56*
X87520Y185160D03*
D57*
X178770Y184760D03*
D58*
X166020Y184760D03*
D38*
X160420Y184760D03*
D59*
X152220Y184760D03*
D52*
X141370Y184760D03*
D60*
X133470Y184760D03*
D35*
X127320Y184760D03*
D61*
X120420Y184760D03*
D40*
X111470Y184760D03*
D62*
X87370Y184760D03*
D63*
X178920Y184410D03*
D47*
X160270Y184410D03*
D64*
X152020Y184410D03*
D65*
X141370Y184410D03*
D66*
X133470Y184410D03*
D44*
X127320Y184410D03*
D67*
X120620Y184410D03*
D43*
X111470Y184410D03*
D68*
X106570Y184410D03*
D69*
X87170Y184410D03*
D70*
X179120Y184060D03*
D50*
X160270Y184060D03*
D71*
X152020Y184060D03*
D52*
X141370Y184060D03*
D60*
X133470Y184060D03*
D35*
X127320Y184060D03*
D34*
X120620Y184060D03*
D40*
X111470Y184060D03*
D59*
X106220Y184060D03*
D62*
X86970Y184060D03*
D36*
X179320Y183660D03*
D40*
X160070Y183660D03*
D71*
X152020Y183660D03*
D55*
X141370Y183660D03*
D50*
X133670Y183660D03*
D35*
X127320Y183660D03*
D72*
X120970Y183660D03*
D40*
X111470Y183660D03*
D51*
X106020Y183660D03*
D62*
X86970Y183660D03*
D73*
X179470Y183310D03*
D43*
X160070Y183310D03*
D68*
X152170Y183310D03*
X141370Y183310D03*
D47*
X133670Y183310D03*
D44*
X127320Y183310D03*
D74*
X120970Y183310D03*
D43*
X111470Y183310D03*
D45*
X105820Y183310D03*
D69*
X86770Y183310D03*
D75*
X179670Y182960D03*
D40*
X160070Y182960D03*
D76*
X152020Y182960D03*
D55*
X141370Y182960D03*
D50*
X133670Y182960D03*
D35*
X127320Y182960D03*
D40*
X121170Y182960D03*
X111470Y182960D03*
D37*
X105820Y182960D03*
D53*
X86620Y182960D03*
D75*
X179670Y182560D03*
D72*
X159870Y182560D03*
D76*
X152020Y182560D03*
D77*
X141370Y182560D03*
D40*
X133870Y182560D03*
D35*
X127320Y182560D03*
D40*
X121170Y182560D03*
X111470Y182560D03*
D37*
X105820Y182560D03*
D78*
X92570Y182560D03*
D79*
X76320Y182560D03*
D75*
X179670Y182160D03*
D38*
X169020Y182160D03*
D72*
X159870Y182160D03*
D61*
X152220Y182160D03*
D77*
X141370Y182160D03*
D40*
X133870Y182160D03*
D35*
X127320Y182160D03*
D50*
X121370Y182160D03*
D40*
X111470Y182160D03*
D37*
X105820Y182160D03*
D40*
X99870Y182160D03*
D36*
X93720Y182160D03*
D80*
X86970Y182160D03*
D39*
X75770Y182160D03*
D45*
X179820Y181810D03*
D81*
X169020Y181810D03*
D74*
X159870Y181810D03*
D67*
X152020Y181810D03*
D82*
X141370Y181810D03*
D43*
X133870Y181810D03*
D44*
X127320Y181810D03*
D47*
X121370Y181810D03*
D68*
X112570Y181810D03*
D45*
X105820Y181810D03*
D43*
X99870Y181810D03*
D83*
X93720Y181810D03*
D84*
X87120Y181810D03*
D73*
X75170Y181810D03*
D37*
X179820Y181460D03*
D85*
X169020Y181460D03*
D86*
X159670Y181460D03*
D34*
X152020Y181460D03*
D87*
X141320Y181460D03*
D72*
X134070Y181460D03*
D35*
X127320Y181460D03*
D60*
X121570Y181460D03*
D88*
X112770Y181460D03*
D37*
X105820Y181460D03*
D40*
X99870Y181460D03*
D36*
X93720Y181460D03*
D89*
X87320Y181460D03*
D37*
X74820Y181460D03*
D51*
X180020Y181060D03*
D59*
X169020Y181060D03*
D86*
X159670Y181060D03*
D87*
X152220Y181060D03*
X141320Y181060D03*
D72*
X134070Y181060D03*
D35*
X127320Y181060D03*
D60*
X121570Y181060D03*
D52*
X112970Y181060D03*
D51*
X106020Y181060D03*
D72*
X100070Y181060D03*
D36*
X93720Y181060D03*
D90*
X87520Y181060D03*
D37*
X74820Y181060D03*
D51*
X180020Y180660D03*
X169220Y180660D03*
D86*
X159670Y180660D03*
D89*
X152020Y180660D03*
D87*
X141320Y180660D03*
X134220Y180660D03*
D35*
X127320Y180660D03*
D60*
X121570Y180660D03*
D51*
X113120Y180660D03*
D59*
X106220Y180660D03*
D72*
X100070Y180660D03*
D36*
X93720Y180660D03*
D50*
X87670Y180660D03*
D55*
X82270Y180660D03*
D70*
X74820Y180660D03*
D91*
X180020Y180310D03*
D45*
X169020Y180310D03*
D67*
X159520Y180310D03*
D92*
X152020Y180310D03*
X141520Y180310D03*
D84*
X134220Y180310D03*
D44*
X127320Y180310D03*
X121720Y180310D03*
D91*
X113120Y180310D03*
D68*
X106570Y180310D03*
D84*
X100220Y180310D03*
D83*
X93720Y180310D03*
D47*
X87670Y180310D03*
D45*
X81920Y180310D03*
D93*
X74970Y180310D03*
D51*
X180020Y179960D03*
D36*
X169220Y179960D03*
D34*
X159520Y179960D03*
D89*
X152020Y179960D03*
D40*
X141370Y179960D03*
D87*
X134220Y179960D03*
D35*
X127320Y179960D03*
X121720Y179960D03*
D51*
X113120Y179960D03*
D34*
X100420Y179960D03*
D36*
X93720Y179960D03*
D50*
X87670Y179960D03*
D94*
X78170Y179960D03*
D51*
X180020Y179560D03*
D36*
X169220Y179560D03*
D34*
X159520Y179560D03*
D40*
X152170Y179560D03*
X141370Y179560D03*
D34*
X134420Y179560D03*
D35*
X127320Y179560D03*
X121720Y179560D03*
D37*
X113320Y179560D03*
D61*
X100620Y179560D03*
D36*
X93720Y179560D03*
D50*
X87670Y179560D03*
D94*
X78170Y179560D03*
D37*
X180220Y179160D03*
D70*
X169020Y179160D03*
D61*
X159320Y179160D03*
D50*
X151970Y179160D03*
D95*
X146770Y179160D03*
D40*
X141370Y179160D03*
D34*
X134420Y179160D03*
D35*
X127320Y179160D03*
X121720Y179160D03*
D37*
X113320Y179160D03*
D96*
X100770Y179160D03*
D36*
X93720Y179160D03*
D50*
X87670Y179160D03*
D94*
X78170Y179160D03*
D45*
X180220Y178810D03*
D97*
X169020Y178810D03*
D81*
X159320Y178810D03*
D47*
X151970Y178810D03*
D98*
X146770Y178810D03*
D47*
X141570Y178810D03*
D67*
X134420Y178810D03*
D44*
X127320Y178810D03*
X121720Y178810D03*
D45*
X113320Y178810D03*
D67*
X100420Y178810D03*
D83*
X93720Y178810D03*
D47*
X87670Y178810D03*
D99*
X77970Y178810D03*
D37*
X180220Y178460D03*
D70*
X169020Y178460D03*
D61*
X159320Y178460D03*
D50*
X151970Y178460D03*
D60*
X146970Y178460D03*
X141370Y178460D03*
D61*
X134620Y178460D03*
D35*
X127320Y178460D03*
X121720Y178460D03*
D37*
X113320Y178460D03*
D72*
X100070Y178460D03*
D36*
X93720Y178460D03*
D50*
X87670Y178460D03*
D100*
X77620Y178460D03*
D37*
X180220Y178060D03*
D70*
X169020Y178060D03*
D76*
X159120Y178060D03*
D35*
X152020Y178060D03*
D50*
X146770Y178060D03*
D60*
X141370Y178060D03*
D61*
X134620Y178060D03*
D35*
X127320Y178060D03*
X121720Y178060D03*
D37*
X113320Y178060D03*
D61*
X106620Y178060D03*
D40*
X99870Y178060D03*
D36*
X93720Y178060D03*
D90*
X87520Y178060D03*
D101*
X77020Y178060D03*
D37*
X180220Y177660D03*
D36*
X169220Y177660D03*
D76*
X159120Y177660D03*
D35*
X152020Y177660D03*
D50*
X146770Y177660D03*
D102*
X141370Y177660D03*
D76*
X134820Y177660D03*
D35*
X127320Y177660D03*
X121720Y177660D03*
D37*
X113320Y177660D03*
X105820Y177660D03*
D50*
X99670Y177660D03*
D36*
X93720Y177660D03*
D89*
X87320Y177660D03*
D103*
X76120Y177660D03*
D45*
X180220Y177310D03*
D83*
X169220Y177310D03*
D68*
X158970Y177310D03*
D46*
X152220Y177310D03*
D47*
X146770Y177310D03*
D104*
X141370Y177310D03*
D105*
X134820Y177310D03*
D44*
X127320Y177310D03*
X121720Y177310D03*
D91*
X113120Y177310D03*
D83*
X105620Y177310D03*
D47*
X99670Y177310D03*
D83*
X93720Y177310D03*
D84*
X87120Y177310D03*
D106*
X75370Y177310D03*
D37*
X180220Y176960D03*
X169020Y176960D03*
D55*
X158970Y176960D03*
D72*
X146770Y176960D03*
D102*
X141370Y176960D03*
D76*
X134820Y176960D03*
D35*
X127320Y176960D03*
X121720Y176960D03*
D51*
X113120Y176960D03*
D107*
X105470Y176960D03*
D60*
X99470Y176960D03*
D36*
X93720Y176960D03*
D80*
X86970Y176960D03*
D79*
X74820Y176960D03*
D37*
X180220Y176560D03*
D51*
X169220Y176560D03*
D55*
X158970Y176560D03*
D72*
X146770Y176560D03*
D55*
X134970Y176560D03*
D35*
X127320Y176560D03*
D60*
X121570Y176560D03*
D51*
X113120Y176560D03*
D107*
X105470Y176560D03*
D60*
X99470Y176560D03*
D36*
X93720Y176560D03*
D96*
X86570Y176560D03*
D54*
X74270Y176560D03*
D36*
X180020Y176160D03*
D59*
X169020Y176160D03*
D88*
X158770Y176160D03*
D72*
X146770Y176160D03*
D55*
X134970Y176160D03*
D35*
X127320Y176160D03*
D60*
X121570Y176160D03*
D52*
X112970Y176160D03*
D107*
X105470Y176160D03*
D60*
X99470Y176160D03*
D36*
X93720Y176160D03*
D51*
X85820Y176160D03*
D57*
X74070Y176160D03*
D83*
X180020Y175810D03*
D108*
X169020Y175810D03*
D109*
X158770Y175810D03*
D110*
X146970Y175810D03*
D68*
X134970Y175810D03*
D44*
X127320Y175810D03*
D66*
X121570Y175810D03*
D109*
X112770Y175810D03*
D73*
X105470Y175810D03*
D44*
X99320Y175810D03*
D83*
X93720Y175810D03*
D93*
X85070Y175810D03*
D111*
X73670Y175810D03*
D36*
X180020Y175460D03*
D61*
X169020Y175460D03*
D88*
X158770Y175460D03*
D34*
X146820Y175460D03*
D88*
X135170Y175460D03*
D35*
X127320Y175460D03*
D50*
X121370Y175460D03*
D96*
X112370Y175460D03*
D107*
X105470Y175460D03*
D35*
X99320Y175460D03*
D36*
X93720Y175460D03*
D79*
X84520Y175460D03*
D57*
X73670Y175460D03*
D107*
X179870Y175060D03*
D38*
X169020Y175060D03*
D52*
X158570Y175060D03*
D34*
X146820Y175060D03*
D88*
X135170Y175060D03*
D35*
X127320Y175060D03*
D50*
X121370Y175060D03*
D40*
X111470Y175060D03*
D107*
X105470Y175060D03*
D35*
X99320Y175060D03*
D36*
X93720Y175060D03*
D112*
X84120Y175060D03*
D57*
X73370Y175060D03*
D73*
X179870Y174710D03*
D65*
X158570Y174710D03*
D82*
X146970Y174710D03*
D109*
X135170Y174710D03*
D44*
X127320Y174710D03*
D43*
X121170Y174710D03*
D47*
X111270Y174710D03*
D73*
X105470Y174710D03*
D66*
X99470Y174710D03*
D83*
X93720Y174710D03*
D113*
X83770Y174710D03*
D111*
X73370Y174710D03*
D39*
X179670Y174360D03*
D52*
X158570Y174360D03*
D96*
X146770Y174360D03*
D52*
X135370Y174360D03*
D35*
X127320Y174360D03*
D40*
X121170Y174360D03*
X111470Y174360D03*
D107*
X105470Y174360D03*
D60*
X99470Y174360D03*
D37*
X93920Y174360D03*
D114*
X83770Y174360D03*
D54*
X73170Y174360D03*
D39*
X179670Y173960D03*
D115*
X158370Y173960D03*
D96*
X146770Y173960D03*
D52*
X135370Y173960D03*
D35*
X127320Y173960D03*
D72*
X120970Y173960D03*
D40*
X111470Y173960D03*
D36*
X105620Y173960D03*
D60*
X99470Y173960D03*
D115*
X94070Y173960D03*
D114*
X83770Y173960D03*
D54*
X73170Y173960D03*
D57*
X179470Y173560D03*
D115*
X158370Y173560D03*
D55*
X146970Y173560D03*
D115*
X135570Y173560D03*
D35*
X127320Y173560D03*
D72*
X120970Y173560D03*
D40*
X111470Y173560D03*
D37*
X105820Y173560D03*
D50*
X99670Y173560D03*
D88*
X94070Y173560D03*
D50*
X87670Y173560D03*
D57*
X82670Y173560D03*
D54*
X73170Y173560D03*
D116*
X179270Y173210D03*
D45*
X158220Y173210D03*
D109*
X146770Y173210D03*
D117*
X135570Y173210D03*
D44*
X127320Y173210D03*
D67*
X120620Y173210D03*
D43*
X111470Y173210D03*
D91*
X106020Y173210D03*
D43*
X99470Y173210D03*
D118*
X94070Y173210D03*
D66*
X87870Y173210D03*
D83*
X82520Y173210D03*
D116*
X73170Y173210D03*
D119*
X179320Y172860D03*
D37*
X158220Y172860D03*
D88*
X146770Y172860D03*
D115*
X135570Y172860D03*
D35*
X127320Y172860D03*
D34*
X120620Y172860D03*
D40*
X111470Y172860D03*
D72*
X99670Y172860D03*
D87*
X94220Y172860D03*
D95*
X88070Y172860D03*
D52*
X82270Y172860D03*
D79*
X73320Y172860D03*
D112*
X179120Y172460D03*
D58*
X166020Y172460D03*
D37*
X158220Y172460D03*
D88*
X146770Y172460D03*
D37*
X135720Y172460D03*
D35*
X127320Y172460D03*
D76*
X120220Y172460D03*
D40*
X111470Y172460D03*
D86*
X99870Y172460D03*
D58*
X90920Y172460D03*
D95*
X88070Y172460D03*
D79*
X73320Y172460D03*
D120*
X178920Y172060D03*
D35*
X166220Y172060D03*
D36*
X158020Y172060D03*
D115*
X146770Y172060D03*
D37*
X135720Y172060D03*
D35*
X127320Y172060D03*
D55*
X120070Y172060D03*
D40*
X111470Y172060D03*
D77*
X99870Y172060D03*
D95*
X91070Y172060D03*
D50*
X87670Y172060D03*
D112*
X73720Y172060D03*
D121*
X178570Y171710D03*
D47*
X166570Y171710D03*
D83*
X158020Y171710D03*
D117*
X146770Y171710D03*
D45*
X135720Y171710D03*
D44*
X127320Y171710D03*
D65*
X119670Y171710D03*
D43*
X111470Y171710D03*
D109*
X100070Y171710D03*
D66*
X91270Y171710D03*
D122*
X87520Y171710D03*
D106*
X73870Y171710D03*
D123*
X178170Y171360D03*
D40*
X166770Y171360D03*
D36*
X158020Y171360D03*
D115*
X146770Y171360D03*
D36*
X135920Y171360D03*
D35*
X127320Y171360D03*
D37*
X119320Y171360D03*
D50*
X111270Y171360D03*
D37*
X100220Y171360D03*
D50*
X91470Y171360D03*
D87*
X87120Y171360D03*
D114*
X74070Y171360D03*
D35*
X67520Y171360D03*
D101*
X177620Y170960D03*
D61*
X167520Y170960D03*
D124*
X137820Y170960D03*
D40*
X111470Y170960D03*
D119*
X100820Y170960D03*
D34*
X91820Y170960D03*
D88*
X86570Y170960D03*
D125*
X74620Y170960D03*
D60*
X67370Y170960D03*
D126*
X174620Y170560D03*
D127*
X115220Y170560D03*
D50*
X67170Y170560D03*
D128*
X174620Y170210D03*
D129*
X115220Y170210D03*
D47*
X67170Y170210D03*
D126*
X174620Y169860D03*
D127*
X115220Y169860D03*
D50*
X67170Y169860D03*
D126*
X174620Y169460D03*
D127*
X115220Y169460D03*
D50*
X67170Y169460D03*
D126*
X174620Y169060D03*
D127*
X115220Y169060D03*
D50*
X67170Y169060D03*
D128*
X174620Y168710D03*
D129*
X115220Y168710D03*
D47*
X67170Y168710D03*
D126*
X174620Y168360D03*
D127*
X115220Y168360D03*
D50*
X67170Y168360D03*
D126*
X174620Y167960D03*
D127*
X115220Y167960D03*
D50*
X67170Y167960D03*
D126*
X174620Y167560D03*
D127*
X115220Y167560D03*
D50*
X67170Y167560D03*
D128*
X174620Y167210D03*
D129*
X115220Y167210D03*
D47*
X67170Y167210D03*
D126*
X174620Y166860D03*
D127*
X115220Y166860D03*
D50*
X67170Y166860D03*
D126*
X174620Y166460D03*
D127*
X115220Y166460D03*
D50*
X67170Y166460D03*
D128*
X174620Y166110D03*
D129*
X115220Y166110D03*
D47*
X67170Y166110D03*
D126*
X174620Y165760D03*
D127*
X115220Y165760D03*
D50*
X67170Y165760D03*
D130*
X126420Y165360D03*
D50*
X67170Y165360D03*
D130*
X126420Y164960D03*
D50*
X67170Y164960D03*
D131*
X126420Y164610D03*
D66*
X67370Y164610D03*
D130*
X126420Y164260D03*
X126420Y163860D03*
D132*
X138920Y163460D03*
D133*
X76320Y163460D03*
D134*
X139670Y163110D03*
D135*
X75570Y163110D03*
D136*
X140020Y162760D03*
D101*
X75220Y162760D03*
D137*
X140220Y162360D03*
D138*
X75020Y162360D03*
D139*
X140420Y161960D03*
D95*
X92970Y161960D03*
D76*
X90320Y161960D03*
D140*
X74820Y161960D03*
D141*
X140620Y161610D03*
D142*
X88870Y161610D03*
D143*
X74620Y161610D03*
D144*
X140770Y161260D03*
D145*
X88820Y161260D03*
D33*
X74470Y161260D03*
D144*
X140770Y160860D03*
D146*
X88820Y160860D03*
D33*
X74470Y160860D03*
D147*
X172170Y160460D03*
D148*
X126770Y160460D03*
D149*
X88870Y160460D03*
D150*
X74270Y160460D03*
D151*
X175920Y160110D03*
D152*
X124720Y160110D03*
D73*
X93870Y160110D03*
X84170Y160110D03*
D113*
X74070Y160110D03*
D43*
X66970Y160110D03*
D60*
X185470Y159760D03*
D153*
X176870Y159760D03*
D154*
X124370Y159760D03*
D36*
X94420Y159760D03*
D37*
X83420Y159760D03*
D114*
X74070Y159760D03*
D40*
X66970Y159760D03*
D60*
X185470Y159360D03*
D101*
X177220Y159360D03*
D155*
X124370Y159360D03*
D37*
X94620Y159360D03*
X83020Y159360D03*
D156*
X73870Y159360D03*
D40*
X66970Y159360D03*
D47*
X185270Y159010D03*
D157*
X177620Y159010D03*
D158*
X124020Y159010D03*
D45*
X95020Y159010D03*
D117*
X82870Y159010D03*
D106*
X73870Y159010D03*
D43*
X66970Y159010D03*
D50*
X185270Y158660D03*
D33*
X177970Y158660D03*
D60*
X155570Y158660D03*
D159*
X123820Y158660D03*
D52*
X95370Y158660D03*
D115*
X82470Y158660D03*
D112*
X73720Y158660D03*
D40*
X66970Y158660D03*
D50*
X185270Y158260D03*
D150*
X178170Y158260D03*
D115*
X166970Y158260D03*
D51*
X153520Y158260D03*
D160*
X123770Y158260D03*
D115*
X95570Y158260D03*
D52*
X82270Y158260D03*
D112*
X73720Y158260D03*
D40*
X66970Y158260D03*
D50*
X185270Y157860D03*
D114*
X178370Y157860D03*
D37*
X167520Y157860D03*
X152920Y157860D03*
D161*
X123570Y157860D03*
D52*
X95770Y157860D03*
D59*
X81920Y157860D03*
D112*
X73720Y157860D03*
D40*
X66970Y157860D03*
D47*
X185270Y157510D03*
D42*
X178520Y157510D03*
D45*
X167520Y157510D03*
X152620Y157510D03*
D162*
X123620Y157510D03*
D163*
X96120Y157510D03*
X81920Y157510D03*
D164*
X73520Y157510D03*
D43*
X66970Y157510D03*
D50*
X185270Y157160D03*
D119*
X178520Y157160D03*
D37*
X167920Y157160D03*
X152620Y157160D03*
D165*
X123420Y157160D03*
D59*
X96120Y157160D03*
D88*
X81770Y157160D03*
D79*
X73320Y157160D03*
D40*
X66970Y157160D03*
D50*
X185270Y156760D03*
D79*
X178720Y156760D03*
D37*
X167920Y156760D03*
X152620Y156760D03*
D166*
X123420Y156760D03*
D59*
X96120Y156760D03*
D52*
X81570Y156760D03*
D79*
X73320Y156760D03*
D40*
X66970Y156760D03*
D50*
X185270Y156360D03*
D79*
X178720Y156360D03*
D37*
X167920Y156360D03*
D51*
X152420Y156360D03*
D167*
X123220Y156360D03*
D52*
X96470Y156360D03*
X81570Y156360D03*
D79*
X73320Y156360D03*
D40*
X66970Y156360D03*
D47*
X185270Y156010D03*
D168*
X178920Y156010D03*
D91*
X168120Y156010D03*
X152420Y156010D03*
D169*
X123270Y156010D03*
D65*
X96470Y156010D03*
X81170Y156010D03*
D116*
X73170Y156010D03*
D43*
X66970Y156010D03*
D50*
X185270Y155660D03*
D170*
X178920Y155660D03*
D51*
X168120Y155660D03*
X152420Y155660D03*
D171*
X122870Y155660D03*
D115*
X96670Y155660D03*
D52*
X81170Y155660D03*
D54*
X73170Y155660D03*
D40*
X66970Y155660D03*
D50*
X185270Y155260D03*
D51*
X168120Y155260D03*
X152420Y155260D03*
D172*
X122670Y155260D03*
D115*
X96670Y155260D03*
X80970Y155260D03*
D40*
X66970Y155260D03*
X185070Y154860D03*
D51*
X168120Y154860D03*
X152420Y154860D03*
D173*
X122070Y154860D03*
D115*
X96670Y154860D03*
X80970Y154860D03*
D40*
X66970Y154860D03*
D43*
X185070Y154510D03*
D91*
X168120Y154510D03*
X152420Y154510D03*
D174*
X96870Y154510D03*
D117*
X80970Y154510D03*
D47*
X67170Y154510D03*
D87*
X184720Y154160D03*
D51*
X168120Y154160D03*
X152420Y154160D03*
D175*
X96870Y154160D03*
D115*
X80970Y154160D03*
D40*
X67370Y154160D03*
D34*
X184520Y153760D03*
D37*
X167920Y153760D03*
D51*
X152420Y153760D03*
D37*
X96520Y153760D03*
D175*
X81170Y153760D03*
D33*
X71470Y153760D03*
D176*
X179670Y153360D03*
D37*
X167920Y153360D03*
X152620Y153360D03*
X96520Y153360D03*
D175*
X81170Y153360D03*
D150*
X71670Y153360D03*
D177*
X179670Y153010D03*
D45*
X167520Y153010D03*
X152620Y153010D03*
X96520Y153010D03*
D83*
X81320Y153010D03*
D178*
X71820Y153010D03*
D179*
X179670Y152660D03*
D37*
X167520Y152660D03*
D75*
X152770Y152660D03*
D36*
X96320Y152660D03*
D37*
X81520Y152660D03*
D120*
X72020Y152660D03*
D123*
X179670Y152260D03*
D36*
X167320Y152260D03*
D37*
X152920Y152260D03*
D36*
X96320Y152260D03*
X81720Y152260D03*
D119*
X72420Y152260D03*
D36*
X167320Y151860D03*
X153120Y151860D03*
X95920Y151860D03*
X81720Y151860D03*
D180*
X166970Y151510D03*
D97*
X153320Y151510D03*
D73*
X95770Y151510D03*
D97*
X81920Y151510D03*
D39*
X166570Y151160D03*
D70*
X153720Y151160D03*
D107*
X95370Y151160D03*
D39*
X82470Y151160D03*
D181*
X166220Y150760D03*
D39*
X153870Y150760D03*
X95170Y150760D03*
D57*
X82670Y150760D03*
D116*
X165870Y150410D03*
D111*
X154470Y150410D03*
X94670Y150410D03*
D168*
X83220Y150410D03*
D182*
X160070Y150060D03*
D183*
X88870Y150060D03*
D184*
X160220Y149660D03*
D185*
X89020Y149660D03*
D126*
X160020Y149260D03*
X89020Y149260D03*
D186*
X160220Y148910D03*
X88820Y148910D03*
D187*
X160220Y148560D03*
X88820Y148560D03*
D149*
X160270Y148160D03*
X88870Y148160D03*
D146*
X160220Y147760D03*
D188*
X89020Y147760D03*
D151*
X160220Y147410D03*
X88820Y147410D03*
D189*
X160220Y147060D03*
X88820Y147060D03*
D153*
X160070Y146660D03*
D190*
X88870Y146660D03*
D138*
X160220Y146260D03*
X88820Y146260D03*
D121*
X160270Y145910D03*
D143*
X88820Y145910D03*
D112*
X160020Y145560D03*
D120*
X88820Y145560D03*
D107*
X160070Y145160D03*
D39*
X88870Y145160D03*
D89*
X160220Y144760D03*
D76*
X88820Y144760D03*
D10*
X360680Y205740D02*
X375920Y205740D01*
X356108Y221488D02*
X356110Y221621D01*
X356116Y221754D01*
X356125Y221886D01*
X356139Y222019D01*
X356156Y222151D01*
X356177Y222282D01*
X356202Y222413D01*
X356231Y222542D01*
X356264Y222671D01*
X356300Y222799D01*
X356340Y222926D01*
X356384Y223052D01*
X356431Y223176D01*
X356482Y223299D01*
X356536Y223420D01*
X356594Y223540D01*
X356656Y223658D01*
X356721Y223774D01*
X356789Y223888D01*
X356860Y224000D01*
X356935Y224110D01*
X357013Y224218D01*
X357094Y224324D01*
X357178Y224427D01*
X357265Y224527D01*
X357354Y224625D01*
X357447Y224721D01*
X357543Y224814D01*
X357641Y224903D01*
X357741Y224990D01*
X357844Y225074D01*
X357950Y225155D01*
X358058Y225233D01*
X358168Y225308D01*
X358280Y225379D01*
X358394Y225447D01*
X358510Y225512D01*
X358628Y225574D01*
X358748Y225632D01*
X358869Y225686D01*
X358992Y225737D01*
X359116Y225784D01*
X359242Y225828D01*
X359369Y225868D01*
X359497Y225904D01*
X359626Y225937D01*
X359755Y225966D01*
X359886Y225991D01*
X360017Y226012D01*
X360149Y226029D01*
X360282Y226043D01*
X360414Y226052D01*
X360547Y226058D01*
X360680Y226060D01*
X375920Y226060D02*
X376053Y226058D01*
X376186Y226052D01*
X376318Y226043D01*
X376451Y226029D01*
X376583Y226012D01*
X376714Y225991D01*
X376845Y225966D01*
X376974Y225937D01*
X377103Y225904D01*
X377231Y225868D01*
X377358Y225828D01*
X377484Y225784D01*
X377608Y225737D01*
X377731Y225686D01*
X377852Y225632D01*
X377972Y225574D01*
X378090Y225512D01*
X378206Y225447D01*
X378320Y225379D01*
X378432Y225308D01*
X378542Y225233D01*
X378650Y225155D01*
X378756Y225074D01*
X378859Y224990D01*
X378959Y224903D01*
X379057Y224814D01*
X379153Y224721D01*
X379246Y224625D01*
X379335Y224527D01*
X379422Y224427D01*
X379506Y224324D01*
X379587Y224218D01*
X379665Y224110D01*
X379740Y224000D01*
X379811Y223888D01*
X379879Y223774D01*
X379944Y223658D01*
X380006Y223540D01*
X380064Y223420D01*
X380118Y223299D01*
X380169Y223176D01*
X380216Y223052D01*
X380260Y222926D01*
X380300Y222799D01*
X380336Y222671D01*
X380369Y222542D01*
X380398Y222413D01*
X380423Y222282D01*
X380444Y222151D01*
X380461Y222019D01*
X380475Y221886D01*
X380484Y221754D01*
X380490Y221621D01*
X380492Y221488D01*
X380492Y210312D02*
X380490Y210179D01*
X380484Y210046D01*
X380475Y209914D01*
X380461Y209781D01*
X380444Y209649D01*
X380423Y209518D01*
X380398Y209387D01*
X380369Y209258D01*
X380336Y209129D01*
X380300Y209001D01*
X380260Y208874D01*
X380216Y208748D01*
X380169Y208624D01*
X380118Y208501D01*
X380064Y208380D01*
X380006Y208260D01*
X379944Y208142D01*
X379879Y208026D01*
X379811Y207912D01*
X379740Y207800D01*
X379665Y207690D01*
X379587Y207582D01*
X379506Y207476D01*
X379422Y207373D01*
X379335Y207273D01*
X379246Y207175D01*
X379153Y207079D01*
X379057Y206986D01*
X378959Y206897D01*
X378859Y206810D01*
X378756Y206726D01*
X378650Y206645D01*
X378542Y206567D01*
X378432Y206492D01*
X378320Y206421D01*
X378206Y206353D01*
X378090Y206288D01*
X377972Y206226D01*
X377852Y206168D01*
X377731Y206114D01*
X377608Y206063D01*
X377484Y206016D01*
X377358Y205972D01*
X377231Y205932D01*
X377103Y205896D01*
X376974Y205863D01*
X376845Y205834D01*
X376714Y205809D01*
X376583Y205788D01*
X376451Y205771D01*
X376318Y205757D01*
X376186Y205748D01*
X376053Y205742D01*
X375920Y205740D01*
X360680Y205740D02*
X360547Y205742D01*
X360414Y205748D01*
X360282Y205757D01*
X360149Y205771D01*
X360017Y205788D01*
X359886Y205809D01*
X359755Y205834D01*
X359626Y205863D01*
X359497Y205896D01*
X359369Y205932D01*
X359242Y205972D01*
X359116Y206016D01*
X358992Y206063D01*
X358869Y206114D01*
X358748Y206168D01*
X358628Y206226D01*
X358510Y206288D01*
X358394Y206353D01*
X358280Y206421D01*
X358168Y206492D01*
X358058Y206567D01*
X357950Y206645D01*
X357844Y206726D01*
X357741Y206810D01*
X357641Y206897D01*
X357543Y206986D01*
X357447Y207079D01*
X357354Y207175D01*
X357265Y207273D01*
X357178Y207373D01*
X357094Y207476D01*
X357013Y207582D01*
X356935Y207690D01*
X356860Y207800D01*
X356789Y207912D01*
X356721Y208026D01*
X356656Y208142D01*
X356594Y208260D01*
X356536Y208380D01*
X356482Y208501D01*
X356431Y208624D01*
X356384Y208748D01*
X356340Y208874D01*
X356300Y209001D01*
X356264Y209129D01*
X356231Y209258D01*
X356202Y209387D01*
X356177Y209518D01*
X356156Y209649D01*
X356139Y209781D01*
X356125Y209914D01*
X356116Y210046D01*
X356110Y210179D01*
X356108Y210312D01*
X356108Y221488D01*
X380492Y221488D02*
X380492Y210312D01*
X375920Y226060D02*
X360680Y226060D01*
X289560Y134620D02*
X289560Y119380D01*
X273812Y114808D02*
X273679Y114810D01*
X273546Y114816D01*
X273414Y114825D01*
X273281Y114839D01*
X273149Y114856D01*
X273018Y114877D01*
X272887Y114902D01*
X272758Y114931D01*
X272629Y114964D01*
X272501Y115000D01*
X272374Y115040D01*
X272248Y115084D01*
X272124Y115131D01*
X272001Y115182D01*
X271880Y115236D01*
X271760Y115294D01*
X271642Y115356D01*
X271526Y115421D01*
X271412Y115489D01*
X271300Y115560D01*
X271190Y115635D01*
X271082Y115713D01*
X270976Y115794D01*
X270873Y115878D01*
X270773Y115965D01*
X270675Y116054D01*
X270579Y116147D01*
X270486Y116243D01*
X270397Y116341D01*
X270310Y116441D01*
X270226Y116544D01*
X270145Y116650D01*
X270067Y116758D01*
X269992Y116868D01*
X269921Y116980D01*
X269853Y117094D01*
X269788Y117210D01*
X269726Y117328D01*
X269668Y117448D01*
X269614Y117569D01*
X269563Y117692D01*
X269516Y117816D01*
X269472Y117942D01*
X269432Y118069D01*
X269396Y118197D01*
X269363Y118326D01*
X269334Y118455D01*
X269309Y118586D01*
X269288Y118717D01*
X269271Y118849D01*
X269257Y118982D01*
X269248Y119114D01*
X269242Y119247D01*
X269240Y119380D01*
X269240Y134620D02*
X269242Y134753D01*
X269248Y134886D01*
X269257Y135018D01*
X269271Y135151D01*
X269288Y135283D01*
X269309Y135414D01*
X269334Y135545D01*
X269363Y135674D01*
X269396Y135803D01*
X269432Y135931D01*
X269472Y136058D01*
X269516Y136184D01*
X269563Y136308D01*
X269614Y136431D01*
X269668Y136552D01*
X269726Y136672D01*
X269788Y136790D01*
X269853Y136906D01*
X269921Y137020D01*
X269992Y137132D01*
X270067Y137242D01*
X270145Y137350D01*
X270226Y137456D01*
X270310Y137559D01*
X270397Y137659D01*
X270486Y137757D01*
X270579Y137853D01*
X270675Y137946D01*
X270773Y138035D01*
X270873Y138122D01*
X270976Y138206D01*
X271082Y138287D01*
X271190Y138365D01*
X271300Y138440D01*
X271412Y138511D01*
X271526Y138579D01*
X271642Y138644D01*
X271760Y138706D01*
X271880Y138764D01*
X272001Y138818D01*
X272124Y138869D01*
X272248Y138916D01*
X272374Y138960D01*
X272501Y139000D01*
X272629Y139036D01*
X272758Y139069D01*
X272887Y139098D01*
X273018Y139123D01*
X273149Y139144D01*
X273281Y139161D01*
X273414Y139175D01*
X273546Y139184D01*
X273679Y139190D01*
X273812Y139192D01*
X284988Y139192D02*
X285121Y139190D01*
X285254Y139184D01*
X285386Y139175D01*
X285519Y139161D01*
X285651Y139144D01*
X285782Y139123D01*
X285913Y139098D01*
X286042Y139069D01*
X286171Y139036D01*
X286299Y139000D01*
X286426Y138960D01*
X286552Y138916D01*
X286676Y138869D01*
X286799Y138818D01*
X286920Y138764D01*
X287040Y138706D01*
X287158Y138644D01*
X287274Y138579D01*
X287388Y138511D01*
X287500Y138440D01*
X287610Y138365D01*
X287718Y138287D01*
X287824Y138206D01*
X287927Y138122D01*
X288027Y138035D01*
X288125Y137946D01*
X288221Y137853D01*
X288314Y137757D01*
X288403Y137659D01*
X288490Y137559D01*
X288574Y137456D01*
X288655Y137350D01*
X288733Y137242D01*
X288808Y137132D01*
X288879Y137020D01*
X288947Y136906D01*
X289012Y136790D01*
X289074Y136672D01*
X289132Y136552D01*
X289186Y136431D01*
X289237Y136308D01*
X289284Y136184D01*
X289328Y136058D01*
X289368Y135931D01*
X289404Y135803D01*
X289437Y135674D01*
X289466Y135545D01*
X289491Y135414D01*
X289512Y135283D01*
X289529Y135151D01*
X289543Y135018D01*
X289552Y134886D01*
X289558Y134753D01*
X289560Y134620D01*
X289560Y119380D02*
X289558Y119247D01*
X289552Y119114D01*
X289543Y118982D01*
X289529Y118849D01*
X289512Y118717D01*
X289491Y118586D01*
X289466Y118455D01*
X289437Y118326D01*
X289404Y118197D01*
X289368Y118069D01*
X289328Y117942D01*
X289284Y117816D01*
X289237Y117692D01*
X289186Y117569D01*
X289132Y117448D01*
X289074Y117328D01*
X289012Y117210D01*
X288947Y117094D01*
X288879Y116980D01*
X288808Y116868D01*
X288733Y116758D01*
X288655Y116650D01*
X288574Y116544D01*
X288490Y116441D01*
X288403Y116341D01*
X288314Y116243D01*
X288221Y116147D01*
X288125Y116054D01*
X288027Y115965D01*
X287927Y115878D01*
X287824Y115794D01*
X287718Y115713D01*
X287610Y115635D01*
X287500Y115560D01*
X287388Y115489D01*
X287274Y115421D01*
X287158Y115356D01*
X287040Y115294D01*
X286920Y115236D01*
X286799Y115182D01*
X286676Y115131D01*
X286552Y115084D01*
X286426Y115040D01*
X286299Y115000D01*
X286171Y114964D01*
X286042Y114931D01*
X285913Y114902D01*
X285782Y114877D01*
X285651Y114856D01*
X285519Y114839D01*
X285386Y114825D01*
X285254Y114816D01*
X285121Y114810D01*
X284988Y114808D01*
X273812Y114808D01*
X273812Y139192D02*
X284988Y139192D01*
X269240Y134620D02*
X269240Y119380D01*
D191*
X203200Y106680D02*
X203200Y132080D01*
X182880Y106680D02*
X182882Y106580D01*
X182888Y106481D01*
X182898Y106381D01*
X182911Y106283D01*
X182929Y106184D01*
X182950Y106087D01*
X182975Y105991D01*
X183004Y105895D01*
X183037Y105801D01*
X183073Y105708D01*
X183113Y105617D01*
X183157Y105527D01*
X183204Y105439D01*
X183254Y105353D01*
X183308Y105269D01*
X183365Y105187D01*
X183425Y105108D01*
X183489Y105030D01*
X183555Y104956D01*
X183624Y104884D01*
X183696Y104815D01*
X183770Y104749D01*
X183848Y104685D01*
X183927Y104625D01*
X184009Y104568D01*
X184093Y104514D01*
X184179Y104464D01*
X184267Y104417D01*
X184357Y104373D01*
X184448Y104333D01*
X184541Y104297D01*
X184635Y104264D01*
X184731Y104235D01*
X184827Y104210D01*
X184924Y104189D01*
X185023Y104171D01*
X185121Y104158D01*
X185221Y104148D01*
X185320Y104142D01*
X185420Y104140D01*
X182880Y132080D02*
X182882Y132180D01*
X182888Y132279D01*
X182898Y132379D01*
X182911Y132477D01*
X182929Y132576D01*
X182950Y132673D01*
X182975Y132769D01*
X183004Y132865D01*
X183037Y132959D01*
X183073Y133052D01*
X183113Y133143D01*
X183157Y133233D01*
X183204Y133321D01*
X183254Y133407D01*
X183308Y133491D01*
X183365Y133573D01*
X183425Y133652D01*
X183489Y133730D01*
X183555Y133804D01*
X183624Y133876D01*
X183696Y133945D01*
X183770Y134011D01*
X183848Y134075D01*
X183927Y134135D01*
X184009Y134192D01*
X184093Y134246D01*
X184179Y134296D01*
X184267Y134343D01*
X184357Y134387D01*
X184448Y134427D01*
X184541Y134463D01*
X184635Y134496D01*
X184731Y134525D01*
X184827Y134550D01*
X184924Y134571D01*
X185023Y134589D01*
X185121Y134602D01*
X185221Y134612D01*
X185320Y134618D01*
X185420Y134620D01*
X200660Y134620D02*
X200760Y134618D01*
X200859Y134612D01*
X200959Y134602D01*
X201057Y134589D01*
X201156Y134571D01*
X201253Y134550D01*
X201349Y134525D01*
X201445Y134496D01*
X201539Y134463D01*
X201632Y134427D01*
X201723Y134387D01*
X201813Y134343D01*
X201901Y134296D01*
X201987Y134246D01*
X202071Y134192D01*
X202153Y134135D01*
X202232Y134075D01*
X202310Y134011D01*
X202384Y133945D01*
X202456Y133876D01*
X202525Y133804D01*
X202591Y133730D01*
X202655Y133652D01*
X202715Y133573D01*
X202772Y133491D01*
X202826Y133407D01*
X202876Y133321D01*
X202923Y133233D01*
X202967Y133143D01*
X203007Y133052D01*
X203043Y132959D01*
X203076Y132865D01*
X203105Y132769D01*
X203130Y132673D01*
X203151Y132576D01*
X203169Y132477D01*
X203182Y132379D01*
X203192Y132279D01*
X203198Y132180D01*
X203200Y132080D01*
X203200Y106680D02*
X203198Y106580D01*
X203192Y106481D01*
X203182Y106381D01*
X203169Y106283D01*
X203151Y106184D01*
X203130Y106087D01*
X203105Y105991D01*
X203076Y105895D01*
X203043Y105801D01*
X203007Y105708D01*
X202967Y105617D01*
X202923Y105527D01*
X202876Y105439D01*
X202826Y105353D01*
X202772Y105269D01*
X202715Y105187D01*
X202655Y105108D01*
X202591Y105030D01*
X202525Y104956D01*
X202456Y104884D01*
X202384Y104815D01*
X202310Y104749D01*
X202232Y104685D01*
X202153Y104625D01*
X202071Y104568D01*
X201987Y104514D01*
X201901Y104464D01*
X201813Y104417D01*
X201723Y104373D01*
X201632Y104333D01*
X201539Y104297D01*
X201445Y104264D01*
X201349Y104235D01*
X201253Y104210D01*
X201156Y104189D01*
X201057Y104171D01*
X200959Y104158D01*
X200859Y104148D01*
X200760Y104142D01*
X200660Y104140D01*
X185420Y104140D01*
X185420Y134620D02*
X200660Y134620D01*
X182880Y132080D02*
X182880Y106680D01*
M02*
