G04 EAGLE Gerber RS-274X export*
G75*
%MOMM*%
%FSLAX34Y34*%
%LPD*%
%INSoldermask Bottom*%
%IPPOS*%
%AMOC8*
5,1,8,0,0,1.08239X$1,22.5*%
G01*
%ADD10C,2.082800*%
%ADD11R,2.082800X2.082800*%
%ADD12C,3.403200*%
%ADD13C,3.505200*%
%ADD14R,0.863600X1.473200*%
%ADD15C,0.838200*%
%ADD16R,1.473200X0.863600*%
%ADD17R,1.473200X0.838200*%

G36*
X280735Y124472D02*
X280735Y124472D01*
X280801Y124474D01*
X280844Y124492D01*
X280891Y124500D01*
X280948Y124534D01*
X281008Y124559D01*
X281043Y124590D01*
X281084Y124615D01*
X281126Y124666D01*
X281174Y124710D01*
X281196Y124752D01*
X281225Y124789D01*
X281246Y124851D01*
X281277Y124910D01*
X281285Y124964D01*
X281297Y125001D01*
X281296Y125041D01*
X281304Y125095D01*
X281304Y128905D01*
X281293Y128970D01*
X281291Y129036D01*
X281273Y129079D01*
X281265Y129126D01*
X281231Y129183D01*
X281206Y129243D01*
X281175Y129278D01*
X281150Y129319D01*
X281099Y129361D01*
X281055Y129409D01*
X281013Y129431D01*
X280976Y129460D01*
X280914Y129481D01*
X280855Y129512D01*
X280801Y129520D01*
X280764Y129532D01*
X280724Y129531D01*
X280670Y129539D01*
X278130Y129539D01*
X278065Y129528D01*
X277999Y129526D01*
X277956Y129508D01*
X277909Y129500D01*
X277852Y129466D01*
X277792Y129441D01*
X277757Y129410D01*
X277716Y129385D01*
X277675Y129334D01*
X277626Y129290D01*
X277604Y129248D01*
X277575Y129211D01*
X277554Y129149D01*
X277523Y129090D01*
X277515Y129036D01*
X277503Y128999D01*
X277503Y128995D01*
X277503Y128994D01*
X277504Y128959D01*
X277496Y128905D01*
X277496Y125095D01*
X277507Y125030D01*
X277509Y124964D01*
X277527Y124921D01*
X277535Y124874D01*
X277569Y124817D01*
X277594Y124757D01*
X277625Y124722D01*
X277650Y124681D01*
X277701Y124640D01*
X277745Y124591D01*
X277787Y124569D01*
X277824Y124540D01*
X277886Y124519D01*
X277945Y124488D01*
X277999Y124480D01*
X278036Y124468D01*
X278076Y124469D01*
X278130Y124461D01*
X280670Y124461D01*
X280735Y124472D01*
G37*
G36*
X370270Y55892D02*
X370270Y55892D01*
X370336Y55894D01*
X370379Y55912D01*
X370426Y55920D01*
X370483Y55954D01*
X370543Y55979D01*
X370578Y56010D01*
X370619Y56035D01*
X370661Y56086D01*
X370709Y56130D01*
X370731Y56172D01*
X370760Y56209D01*
X370781Y56271D01*
X370812Y56330D01*
X370820Y56384D01*
X370832Y56421D01*
X370831Y56461D01*
X370839Y56515D01*
X370839Y59055D01*
X370828Y59120D01*
X370826Y59186D01*
X370808Y59229D01*
X370800Y59276D01*
X370766Y59333D01*
X370741Y59393D01*
X370710Y59428D01*
X370685Y59469D01*
X370634Y59511D01*
X370590Y59559D01*
X370548Y59581D01*
X370511Y59610D01*
X370449Y59631D01*
X370390Y59662D01*
X370336Y59670D01*
X370299Y59682D01*
X370259Y59681D01*
X370205Y59689D01*
X366395Y59689D01*
X366330Y59678D01*
X366264Y59676D01*
X366221Y59658D01*
X366174Y59650D01*
X366117Y59616D01*
X366057Y59591D01*
X366022Y59560D01*
X365981Y59535D01*
X365940Y59484D01*
X365891Y59440D01*
X365869Y59398D01*
X365840Y59361D01*
X365819Y59299D01*
X365788Y59240D01*
X365780Y59186D01*
X365768Y59149D01*
X365768Y59146D01*
X365769Y59109D01*
X365761Y59055D01*
X365761Y56515D01*
X365772Y56450D01*
X365774Y56384D01*
X365792Y56341D01*
X365800Y56294D01*
X365834Y56237D01*
X365859Y56177D01*
X365890Y56142D01*
X365915Y56101D01*
X365966Y56060D01*
X366010Y56011D01*
X366052Y55989D01*
X366089Y55960D01*
X366151Y55939D01*
X366210Y55908D01*
X366264Y55900D01*
X366301Y55888D01*
X366341Y55889D01*
X366395Y55881D01*
X370205Y55881D01*
X370270Y55892D01*
G37*
G36*
X370270Y214007D02*
X370270Y214007D01*
X370336Y214009D01*
X370379Y214027D01*
X370426Y214035D01*
X370483Y214069D01*
X370543Y214094D01*
X370578Y214125D01*
X370619Y214150D01*
X370661Y214201D01*
X370709Y214245D01*
X370731Y214287D01*
X370760Y214324D01*
X370781Y214386D01*
X370812Y214445D01*
X370820Y214499D01*
X370832Y214536D01*
X370831Y214576D01*
X370839Y214630D01*
X370839Y217170D01*
X370828Y217235D01*
X370826Y217301D01*
X370808Y217344D01*
X370800Y217391D01*
X370766Y217448D01*
X370741Y217508D01*
X370710Y217543D01*
X370685Y217584D01*
X370634Y217626D01*
X370590Y217674D01*
X370548Y217696D01*
X370511Y217725D01*
X370449Y217746D01*
X370390Y217777D01*
X370336Y217785D01*
X370299Y217797D01*
X370259Y217796D01*
X370205Y217804D01*
X366395Y217804D01*
X366330Y217793D01*
X366264Y217791D01*
X366221Y217773D01*
X366174Y217765D01*
X366117Y217731D01*
X366057Y217706D01*
X366022Y217675D01*
X365981Y217650D01*
X365940Y217599D01*
X365891Y217555D01*
X365869Y217513D01*
X365840Y217476D01*
X365819Y217414D01*
X365788Y217355D01*
X365780Y217301D01*
X365768Y217264D01*
X365768Y217261D01*
X365769Y217224D01*
X365761Y217170D01*
X365761Y214630D01*
X365772Y214565D01*
X365774Y214499D01*
X365792Y214456D01*
X365800Y214409D01*
X365834Y214352D01*
X365859Y214292D01*
X365890Y214257D01*
X365915Y214216D01*
X365966Y214175D01*
X366010Y214126D01*
X366052Y214104D01*
X366089Y214075D01*
X366151Y214054D01*
X366210Y214023D01*
X366264Y214015D01*
X366301Y214003D01*
X366341Y214004D01*
X366395Y213996D01*
X370205Y213996D01*
X370270Y214007D01*
G37*
D10*
X323850Y158750D03*
X336550Y184150D03*
X349250Y158750D03*
X374650Y158750D03*
X400050Y158750D03*
X361950Y184150D03*
X387350Y184150D03*
D11*
X412750Y184150D03*
D12*
X425450Y247650D03*
X311150Y247650D03*
D13*
X228600Y38100D03*
X25400Y38100D03*
X25400Y241300D03*
D14*
X363093Y57785D03*
X373507Y57785D03*
D15*
X12700Y63500D03*
X406400Y266700D03*
D10*
X412750Y119380D03*
X400050Y93980D03*
X387350Y119380D03*
X361950Y119380D03*
X336550Y119380D03*
X374650Y93980D03*
X349250Y93980D03*
D11*
X323850Y93980D03*
D12*
X311150Y30480D03*
X425450Y30480D03*
D10*
X12700Y190500D03*
X12700Y165100D03*
X12700Y139700D03*
X12700Y114300D03*
X241300Y254000D03*
X215900Y254000D03*
D14*
X373507Y215900D03*
X363093Y215900D03*
D10*
X12700Y88900D03*
D16*
X279400Y132207D03*
X279400Y121793D03*
D17*
X193040Y127508D03*
X193040Y119380D03*
X193040Y111252D03*
M02*
